<svg xmlns="http://www.w3.org/2000/svg" xmlns:xlink="http://www.w3.org/1999/xlink" width="462px" height="159px" viewBox="0 0 462 159"><title>30_minutes_free_illustration</title><desc>Created with Sketch.</desc><defs><path d="M17.4661413,24.9612043 C18.413442,26.6040614 19.3448789,28.2306527 20.2581856,29.8386543 C18.925619,24.1084057 19.2225003,15.9731259 27.2722906,8.31420489 C30.0960628,20.8691655 31.206535,26.4228127 24.083649,36.642453 C24.9448316,38.1923621 25.7901502,39.7260053 26.6196049,41.2410588 C26.8915573,35.3737119 29.3368624,25.0634472 42.5242863,20.8552233 C39.8455554,33.1406345 38.5107225,38.6710447 28.4394196,44.5848656 C30.660364,48.6885229 32.761196,52.6574055 34.7487147,56.486866 C34.3339873,49.3066276 36.0722162,37.0374823 50.8868218,30.1360881 C49.4568056,45.4562538 48.6590786,52.2832896 37.1011027,61.0599111 C38.6104384,64.0203071 40.0495197,66.8877551 41.4160804,69.662255 C42.2047423,63.506769 46.3202882,49.9805011 67,45.1867044 C61.1643553,59.4100828 58.4176363,65.6376036 42.664795,72.2067084 C45.7650521,78.5620327 48.4845758,84.3898767 50.8528278,89.6484138 L49.157658,92 C47.2381275,87.7057992 45.0715735,83.0119216 42.6466649,77.9416044 C28.3827628,87.5594059 21.8241781,86.3394625 7.07076174,83.1885229 C22.9573129,68.1681148 36.3577662,72.8271368 41.5429915,75.6504344 C40.3531998,73.1849869 39.1022189,70.6382097 37.7900487,68.0077793 C23.4762887,73.2895534 17.5749222,70.1130531 4.15180625,62.4425136 C20.2332567,52.5505153 32.1787647,61.364316 36.6229198,65.6771065 C34.4563659,61.3736108 32.131173,56.8586583 29.63601,52.1485149 C19.0162698,57.4395838 13.8287782,55.4365528 2.35465431,50.682259 C13.3641929,41.8289553 23.1386145,45.8326935 27.9363077,48.9557486 C26.9187525,47.0526369 25.8717359,45.1169933 24.7997903,43.1534653 C12.3579692,43.420691 8.53250575,39.3402708 0,29.7666195 C9.88320254,27.5126288 16.3488702,31.0493029 20.3103098,35.0460699 C18.6106075,32.0136391 16.8474496,28.9184684 15.0231024,25.758234 C10.6106751,22.867549 1.69743607,14.9460497 5.93536057,0" id="path-1"></path><linearGradient x1="54.3234058%" y1="53.7280259%" x2="-41.587354%" y2="-28.9790867%" id="linearGradient-3"><stop stop-color="#FFFFFE" offset="0%"></stop><stop stop-color="#65C5E5" offset="100%"></stop></linearGradient><path d="M43.7073723,23.8604165 C42.2003679,13.1225818 45.3289939,8.96501687 52.3928117,0 C57.3595585,13.4165888 49.8096788,21.3986571 45.9975945,24.4023546 C44.564879,27.4499338 43.1852271,30.4360787 41.8543937,33.3585952 C45.1761709,29.3719492 50.8157634,25.6156817 60,26.916772 C52.9170794,36.3908158 49.7290222,40.4410902 38.3564455,41.165137 C37.5222867,43.0564353 36.7093533,44.9170163 35.9197679,46.7490744 C40.0693364,43.5018338 48.693222,39.0544307 59.3887081,46.3409752 C49.2705533,51.6089648 44.6837413,53.8557042 34.6037923,49.8185943 C32.6744022,54.3449844 30.8850998,58.6782953 29.2252724,62.8075566 C32.9630678,58.4939925 43.2128201,49.4543768 58.6139805,57.2982181 C46.9315127,65.403155 41.7801047,68.7842345 28.3316825,65.0411315 C27.3277204,67.5621312 26.3746993,70.0041438 25.4683741,72.3649755 C29.9936324,69.363472 41.8777416,64.0318541 57.4784208,76.6105231 C44.2486203,80.6607975 38.3543229,82.2953882 24.6320928,74.5590569 C22.7918494,79.4123651 21.1617377,83.8992617 19.7247771,88 L18.0055186,85.9660865 C19.7778407,80.9460281 21.8324607,75.3730612 24.1948493,69.2844851 C9.33705957,64.4684763 6.37186925,58.9547496 0,46.3278107 C19.2238574,49.1230705 23.9719825,61.2475647 25.1436253,66.8468606 C26.1879157,64.1898279 27.2895146,61.4384498 28.4505448,58.5971143 C17.258384,51.424662 16.02731,45.2066351 13.5970001,31.225948 C27.6206311,36.4193388 30.1103722,47.5696608 30.2610726,54.2067573 C31.7914249,50.5294767 33.4151691,46.7139691 35.1407952,42.7646224 C25.5171926,38.1131697 23.8892033,33.1282166 20.5419556,22.0371348 C32.8845337,24.8784703 35.8751946,34.1725994 36.5544078,39.548099 C37.1996604,38.0890348 37.8597708,36.6146121 38.5304938,35.1204426 C31.2798925,26.2761002 31.8826942,21.0805153 33.536154,9.31014588 C41.4447432,15.7291506 42.3149851,23.1890276 41.5190321,28.5645272" id="path-4"></path><linearGradient x1="26.7561983%" y1="117.824231%" x2="100.410535%" y2="-74.8342463%" id="linearGradient-6"><stop stop-color="#FFFFFE" offset="0%"></stop><stop stop-color="#B0D6FB" offset="100%"></stop></linearGradient><path d="M86.962913,0 L6.63686626,107.986295 L0,108 L80.3351218,0 L86.962913,0 L86.962913,0 Z M148,0.00015227224 L68.0868668,107.875137 L25.8244883,107.951273 L106.191373,0.00015227224 L148,0.00015227224 Z" id="path-7"></path><path d="M3.32407209,8.1 C1.49565544,8.1 0,6.27831325 0,4.05 C0,1.82331325 1.49565544,0 3.32407209,0 L29.6759279,0 C31.5025746,0 33,1.82331325 33,4.05 C33,6.27831325 31.5025746,8.1 29.6759279,8.1" id="path-9"></path><linearGradient x1="49.9999464%" y1="75.6427711%" x2="49.9999464%" y2="-23.0604418%" id="linearGradient-11"><stop stop-color="#FAD07F" offset="0%"></stop><stop stop-color="#E26229" offset="100%"></stop></linearGradient><path d="M3.42389576,9 C1.54014262,9 0,6.97450311 0,4.49909657 C0,2.02549689 1.54014262,0 3.42389576,0 L30.5761042,0 C32.4581132,0 34,2.02549689 34,4.49909657 C34,6.97450311 32.4581132,9 30.5761042,9" id="path-12"></path><linearGradient x1="49.9974863%" y1="14.193937%" x2="49.9974863%" y2="104.744027%" id="linearGradient-14"><stop stop-color="#C0242B" offset="0%"></stop><stop stop-color="#501A1C" offset="100%"></stop></linearGradient><path d="M5,0 C3.87109529,0.555984556 4.50375643,2.68211068 3.39659945,3.92792793 L1.96915777,2.86572287 L0,4 C0.759193357,2.62719863 0.389482009,0.528528529 1.66864373,0" id="path-15"></path><linearGradient x1="50.0197707%" y1="66.4525955%" x2="50.0197707%" y2="-12.2059202%" id="linearGradient-17"><stop stop-color="#25367D" offset="0%"></stop><stop stop-color="#4E8EBF" offset="100%"></stop></linearGradient><linearGradient x1="49.9999682%" y1="113.739086%" x2="49.9999682%" y2="7.28691193%" id="linearGradient-18"><stop stop-color="#95BAEC" offset="0%"></stop><stop stop-color="#518CDC" offset="100%"></stop></linearGradient><path d="M5,104 L72,104 C74.7614237,104 77,101.761424 77,99 L77,5 C77,2.23857625 74.7614237,-5.07265313e-16 72,0 L5,0 C2.23857625,5.07265313e-16 -3.38176876e-16,2.23857625 0,5 L0,99 C-5.50001544e-16,101.761424 2.23857625,104 5,104 Z" id="path-19"></path><path d="M3.27254798,3.69926448 C2.25154638,2.61167898 1.21012475,1.4954728 0.148283092,0.350645952 C1.21012475,1.26650743 2.25154638,2.38271361 3.27254798,3.69926448" id="path-21"></path><path d="M1.74109952,4.53723006 C1.4495238,2.92133782 1.19960176,1.54052296 1.07067372,0.816230508 C1.02703654,0.566328432 0.862405353,0.426552695 0.60256577,0.375725154 L0.999267423,0.13641215 C1.02306952,0.329133242 1.3285298,2.15257127 1.74109952,4.53723006" id="path-23"></path></defs><g id="Welcome" stroke="none" stroke-width="1" fill="none" fill-rule="evenodd"><g id="Marketing_Consulting_Page" transform="translate(-1039.000000, -8906.000000)"><g id="30_minutes_free_illustration" transform="translate(1039.000000, 8906.000000)"><g id="Group-156" fill="#F0F7FE"><path d="M35.9118541,8.44086022 C38.4780208,8.44086022 40.5592705,6.55179449 40.5592705,4.22088359 C40.5592705,1.88921689 38.4780208,0 35.9118541,0 C33.3456874,0 31.2644377,1.88921689 31.2644377,4.22088359 C31.2644377,6.55179449 33.3456874,8.44086022 35.9118541,8.44086022 Z M242.661849,111.939484 L254.363759,111.939484 C267.363778,111.939484 278,122.077946 278,134.469742 C278,146.861538 267.363778,157 254.363759,157 L35.0833504,157 C14.0329958,157 0,140.583069 0,120.516045 C0,100.452108 15.6151726,85.9057536 35.0833504,84.0334795 C43.9824493,84.0334795 52.0327853,77.0916659 52.0327853,68.6073986 C52.0327853,60.1232856 44.7520173,53.181935 35.8511968,53.181935 L26.6990184,53.181935 C17.445264,53.181935 9.87526242,45.9646281 9.87526242,37.1437496 C9.87526242,28.3230255 17.445264,21.1058729 26.6990184,21.1058729 L50.1045611,21.1058729 C53.70793,21.1058729 56.6553584,18.2964587 56.6553584,14.8622843 C56.6553584,11.4278013 53.70793,8.61823272 50.1045611,8.61823272 L48.4380245,8.61823272 C45.9502709,8.61823272 43.9170274,6.67913036 43.9170274,4.30957937 L43.9170274,4.30896202 C43.9170274,1.9392567 45.9519926,0 48.4380245,0 L64.7091376,0 C64.7091376,0 69.4728843,0 75.4727605,0 C81.4726366,0 82.1406286,6.75583633 97.2944047,6.75583633 C120.722329,6.75583633 106.439697,6.75583633 129.86762,6.75583633 C133.111169,6.75583633 135.76592,9.28682485 135.76592,12.3785232 L135.76592,12.3789862 C135.76592,15.4716107 133.111169,18.0018275 129.86762,18.0018275 L124.20174,18.0018275 C119.501694,18.0018275 115.655575,21.6684348 115.655575,26.1493294 C115.655575,30.6305326 119.501694,34.2963682 124.20174,34.2963682 L132.727246,34.2963682 C155.748865,34.2963682 159.001022,40.0320305 163.033076,51.4383788 C167.065131,62.8450358 207.943484,63.7642728 207.943484,63.7642728 L229.472451,63.7642728 C236.556953,63.7642728 242.353677,69.2891094 242.353677,76.0420134 C242.324409,80.4309224 240.87652,85.542905 231.373129,89.3829882 C227.053562,91.1285508 224.360935,96.3482612 224.360935,101.106501 C224.360935,107.601043 235.849364,111.939484 242.661849,111.939484 L242.661849,111.939484 Z" id="Fill-154"></path></g><g id="Group-156-Copy" transform="translate(323.000000, 78.500000) scale(-1, 1) translate(-323.000000, -78.500000) translate(184.000000, 0.000000)" fill="#F0F7FE"><path d="M35.9118541,8.44086022 C38.4780208,8.44086022 40.5592705,6.55179449 40.5592705,4.22088359 C40.5592705,1.88921689 38.4780208,0 35.9118541,0 C33.3456874,0 31.2644377,1.88921689 31.2644377,4.22088359 C31.2644377,6.55179449 33.3456874,8.44086022 35.9118541,8.44086022 Z M242.661849,111.939484 L254.363759,111.939484 C267.363778,111.939484 278,122.077946 278,134.469742 C278,146.861538 267.363778,157 254.363759,157 L35.0833504,157 C14.0329958,157 0,140.583069 0,120.516045 C0,100.452108 15.6151726,85.9057536 35.0833504,84.0334795 C43.9824493,84.0334795 52.0327853,77.0916659 52.0327853,68.6073986 C52.0327853,60.1232856 44.7520173,53.181935 35.8511968,53.181935 L26.6990184,53.181935 C17.445264,53.181935 9.87526242,45.9646281 9.87526242,37.1437496 C9.87526242,28.3230255 17.445264,21.1058729 26.6990184,21.1058729 L50.1045611,21.1058729 C53.70793,21.1058729 56.6553584,18.2964587 56.6553584,14.8622843 C56.6553584,11.4278013 53.70793,8.61823272 50.1045611,8.61823272 L48.4380245,8.61823272 C45.9502709,8.61823272 43.9170274,6.67913036 43.9170274,4.30957937 L43.9170274,4.30896202 C43.9170274,1.9392567 45.9519926,0 48.4380245,0 L64.7091376,0 C64.7091376,0 69.4728843,0 75.4727605,0 C81.4726366,0 82.1406286,6.75583633 97.2944047,6.75583633 C120.722329,6.75583633 106.439697,6.75583633 129.86762,6.75583633 C133.111169,6.75583633 135.76592,9.28682485 135.76592,12.3785232 L135.76592,12.3789862 C135.76592,15.4716107 133.111169,18.0018275 129.86762,18.0018275 L124.20174,18.0018275 C119.501694,18.0018275 115.655575,21.6684348 115.655575,26.1493294 C115.655575,30.6305326 119.501694,34.2963682 124.20174,34.2963682 L132.727246,34.2963682 C155.748865,34.2963682 159.001022,40.0320305 163.033076,51.4383788 C167.065131,62.8450358 207.943484,63.7642728 207.943484,63.7642728 L229.472451,63.7642728 C236.556953,63.7642728 242.353677,69.2891094 242.353677,76.0420134 C242.324409,80.4309224 240.87652,85.542905 231.373129,89.3829882 C227.053562,91.1285508 224.360935,96.3482612 224.360935,101.106501 C224.360935,107.601043 235.849364,111.939484 242.661849,111.939484 L242.661849,111.939484 Z" id="Fill-154"></path></g><polygon id="Rectangle" fill="#A6C3EA" points="20 157 442 157 442 159 20 159"></polygon><g id="Group-159" transform="translate(50.000000, 62.000000)"><mask id="mask-2" fill="white"><use xlink:href="#path-1"></use></mask><g id="Clip-158"></g><path d="M17.4661413,24.9612043 C18.413442,26.6040614 19.3448789,28.2306527 20.2581856,29.8386543 C18.925619,24.1084057 19.2225003,15.9731259 27.2722906,8.31420489 C30.0960628,20.8691655 31.206535,26.4228127 24.083649,36.642453 C24.9448316,38.1923621 25.7901502,39.7260053 26.6196049,41.2410588 C26.8915573,35.3737119 29.3368624,25.0634472 42.5242863,20.8552233 C39.8455554,33.1406345 38.5107225,38.6710447 28.4394196,44.5848656 C30.660364,48.6885229 32.761196,52.6574055 34.7487147,56.486866 C34.3339873,49.3066276 36.0722162,37.0374823 50.8868218,30.1360881 C49.4568056,45.4562538 48.6590786,52.2832896 37.1011027,61.0599111 C38.6104384,64.0203071 40.0495197,66.8877551 41.4160804,69.662255 C42.2047423,63.506769 46.3202882,49.9805011 67,45.1867044 C61.1643553,59.4100828 58.4176363,65.6376036 42.664795,72.2067084 C45.7650521,78.5620327 48.4845758,84.3898767 50.8528278,89.6484138 L49.157658,92 C47.2381275,87.7057992 45.0715735,83.0119216 42.6466649,77.9416044 C28.3827628,87.5594059 21.8241781,86.3394625 7.07076174,83.1885229 C22.9573129,68.1681148 36.3577662,72.8271368 41.5429915,75.6504344 C40.3531998,73.1849869 39.1022189,70.6382097 37.7900487,68.0077793 C23.4762887,73.2895534 17.5749222,70.1130531 4.15180625,62.4425136 C20.2332567,52.5505153 32.1787647,61.364316 36.6229198,65.6771065 C34.4563659,61.3736108 32.131173,56.8586583 29.63601,52.1485149 C19.0162698,57.4395838 13.8287782,55.4365528 2.35465431,50.682259 C13.3641929,41.8289553 23.1386145,45.8326935 27.9363077,48.9557486 C26.9187525,47.0526369 25.8717359,45.1169933 24.7997903,43.1534653 C12.3579692,43.420691 8.53250575,39.3402708 0,29.7666195 C9.88320254,27.5126288 16.3488702,31.0493029 20.3103098,35.0460699 C18.6106075,32.0136391 16.8474496,28.9184684 15.0231024,25.758234 C10.6106751,22.867549 1.69743607,14.9460497 5.93536057,0 C14.406677,9.02990503 18.1732174,13.2288341 17.4661413,24.9612043" id="Fill-157" fill="url(#linearGradient-3)" mask="url(#mask-2)"></path></g><g id="Group-162" transform="translate(362.000000, 50.000000)"><mask id="mask-5" fill="white"><use xlink:href="#path-4"></use></mask><g id="Clip-161"></g><path d="M43.7073723,23.8604165 C42.9644828,25.4445433 42.2364511,27.0133116 41.5190321,28.5645272 C42.3149851,23.1890276 41.4447432,15.7291506 33.536154,9.31014588 C31.8826942,21.0805153 31.2798925,26.2761002 38.5304938,35.1204426 C37.8597708,36.6146121 37.1996604,38.0890348 36.5544078,39.548099 C35.8751946,34.1725994 32.8845337,24.8784703 20.5419556,22.0371348 C23.8892033,33.1282166 25.5171926,38.1131697 35.1407952,42.7646224 C33.4151691,46.7139691 31.7914249,50.5294767 30.2610726,54.2067573 C30.1103722,47.5696608 27.6206311,36.4193388 13.5970001,31.225948 C16.02731,45.2066351 17.258384,51.424662 28.4505448,58.5971143 C27.2895146,61.4384498 26.1879157,64.1898279 25.1436253,66.8468606 C23.9719825,61.2475647 19.2238574,49.1230705 0,46.3278107 C6.37186925,58.9547496 9.33705957,64.4684763 24.1948493,69.2844851 C21.8324607,75.3730612 19.7778407,80.9460281 18.0055186,85.9660865 L19.7247771,88 C21.1617377,83.8992617 22.7918494,79.4123651 24.6320928,74.5590569 C38.3543229,82.2953882 44.2486203,80.6607975 57.4784208,76.6105231 C41.8777416,64.0318541 29.9936324,69.363472 25.4683741,72.3649755 C26.3746993,70.0041438 27.3277204,67.5621312 28.3316825,65.0411315 C41.7801047,68.7842345 46.9315127,65.403155 58.6139805,57.2982181 C43.2128201,49.4543768 32.9630678,58.4939925 29.2252724,62.8075566 C30.8850998,58.6782953 32.6744022,54.3449844 34.6037923,49.8185943 C44.6837413,53.8557042 49.2705533,51.6089648 59.3887081,46.3409752 C48.693222,39.0544307 40.0693364,43.5018338 35.9197679,46.7490744 C36.7093533,44.9170163 37.5222867,43.0564353 38.3564455,41.165137 C49.7290222,40.4410902 52.9170794,36.3908158 60,26.916772 C50.8157634,25.6156817 45.1761709,29.3719492 41.8543937,33.3585952 C43.1852271,30.4360787 44.564879,27.4499338 45.9975945,24.4023546 C49.8096788,21.3986571 57.3595585,13.4165888 52.3928117,0 C45.3289939,8.96501687 42.2003679,13.1225818 43.7073723,23.8604165" id="Fill-160" fill="url(#linearGradient-6)" mask="url(#mask-5)"></path></g><g id="Group-165" transform="translate(193.000000, 26.000000)" fill="#518CDC"><path d="M7.0278083,0 L169.972192,0 C173.837563,0 177,3.58499183 177,7.96605907 L177,110.033005 C177,114.414384 173.837563,118 169.972192,118 L7.0278083,118 C3.16243716,118 0,114.414384 0,110.033005 L0,7.96605907 C0,3.5848358 3.16243716,0 7.0278083,0" id="Fill-163"></path></g><path d="M359.547895,30 C360.347163,30 361,30.6583753 361,31.4635174 L361,137.535407 C361,138.340703 360.347163,139 359.547895,139 L202.452105,139 C201.654362,139 201,138.340703 201,137.535407 L201,31.4635174 C201,30.6583753 201.654362,30 202.452105,30 L359.547895,30 Z" id="Fill-166" fill="#3C76C5"></path><g id="Group-171" transform="translate(207.000000, 31.000000)"><mask id="mask-8" fill="white"><use xlink:href="#path-7"></use></mask><g id="Clip-170"></g></g><path d="M208.247717,33 L277.753835,33 C279.539148,33 281,34.4430004 281,36.2068039 L281,133.793503 C281,135.557 279.539148,137 277.753835,137 L208.247717,137 C206.460852,137 205,135.557 205,133.793503 L205,36.2068039 C205,34.4430004 206.460852,33 208.247717,33" id="Fill-172" fill="#FFFFFF"></path><path d="M218.5,108 C222.088737,108 225,110.909702 225,114.5 C225,118.088737 222.088737,121 218.5,121 C214.909702,121 212,118.088737 212,114.5 C212,110.909702 214.909702,108 218.5,108" id="Fill-173" fill="#D4EDF4"></path><path d="M233.007678,109 L244.99083,109 C245.546172,109 246,109.675056 246,110.50111 C246,111.324944 245.546172,112 244.99083,112 L233.007678,112 C232.453828,112 232,111.324944 232,110.50111 C232,109.675056 232.453828,109 233.007678,109" id="Fill-174" fill="#00A2ED"></path><path d="M232.996264,114 L263.003736,114 C263.551312,114 264,114.45037 264,115 C264,115.54963 263.551312,116 263.003736,116 L232.996264,116 C232.448688,116 232,115.54963 232,115 C232,114.45037 232.448688,114 232.996264,114" id="Fill-175" fill="#00A2ED"></path><path d="M233.052417,118 L251.947583,118 C252.526023,118 253,118.675056 253,119.49889 C253,120.324944 252.526023,121 251.947583,121 L233.052417,121 C232.473977,121 232,120.324944 232,119.49889 C232,118.675056 232.473977,118 233.052417,118" id="Fill-176" fill="#00A2ED"></path><g id="Group-28" transform="translate(54.000000, 44.000000)"><g id="Group-51" transform="translate(12.000000, 0.000000)"><path d="M53.3592548,19.5413534 C53.4678975,17.3495759 52.7444962,15.1242663 51.4142857,13.5482594 C53.3407061,12.206977 55.3492709,9.90240979 56.4542465,7.64661654 C56.268759,8.0276627 57.4161318,12.5819264 53.3592548,19.5413534" id="Fill-28" fill="#131730"></path><path d="M112.549904,61.1729323 C113.465557,59.6824042 115.261541,55.2671219 115.413697,53.8299328 C115.560419,52.3927436 115.397395,48.4545489 115.258824,47.8826365 C115.120253,47.3107241 113.82421,47.4470348 113.737264,49.1598087 C113.677489,50.3095601 113.386762,52.7127775 112.943879,54.5944581 C112.693909,55.6464214 111.419602,57.4747631 110.414286,59.166794 L112.549904,61.1729323" id="Fill-29" fill="#FFC098"></path><path d="M115.554069,62.0225564 C116.422427,60.3579211 117.981176,55.5472495 117.999587,54.031686 C118.017997,52.5161226 117.41659,48.4290703 117.201802,47.8483114 C116.990082,47.2675524 115.547932,47.5625904 115.624642,49.3576635 C115.679873,50.5626607 115.603163,53.1030928 115.305528,55.1155623 C115.136766,56.2429179 113.897131,58.295761 112.942857,60.1777927 L115.554069,62.0225564" id="Fill-30" fill="#FAB488"></path><path d="M110.23742,56.200101 C111.349472,53.10358 111.096602,51.3238321 110.033401,51.1224079 C109.162725,50.960066 108.714456,54.2550048 106.116797,57.1561142 C103.711663,59.8347551 102.065138,62.4292188 100.654241,66.463715 C98.7749609,71.8510601 104.935782,78.1252729 105.964501,72.6567568 C106.861038,67.8736842 115.567795,63.0785863 116.317783,61.4130789 C117.067771,59.7505779 118.039019,55.8122843 117.99879,54.3331694 C117.952814,52.8540546 116.993059,50.0762047 116.768925,49.5200335 C116.54479,48.9638622 115.205732,49.3216156 115.352281,51.0682939 C115.447107,52.240763 115.717218,53.5455107 115.513198,55.5206702 C115.401131,56.627 114.619534,57.8595957 113.800582,59.7415589 C110.973041,60.1143439 109.266172,58.6171911 110.23742,56.200101" id="Fill-31" fill="#FFC098"></path><path d="M28.1595644,26.3383459 C28.8977466,32.3448305 28.7816615,38.4477228 27.8142857,44.4191501 L33.0143025,55.2255639 L42.9857143,46.3823591 C42.2981334,45.4153618 41.5057751,40.5444491 42.1100128,39.5219444" id="Fill-33" fill="#FFC098"></path><path d="M51.2304459,48.4326784 C55.5085959,48.2910281 58.9451908,51.8381869 61.5578239,55.2554996 C66.6951226,61.9661811 71.0348499,69.2936314 74.4538512,77.0312773 C74.8233145,77.8693747 75.3042032,78.8137098 76.1926744,79.01143 C76.8993462,79.1648844 77.6001535,78.7782972 78.2217901,78.4064653 C83.974861,74.9419358 89.7308641,71.4803574 95.4839349,68.018779 C96.4486446,67.4374227 100.600708,64.8523053 100.600708,64.8523053 C100.600708,64.8523053 100.685743,65.4130043 101.873304,67.1364159 C103.544685,69.5592256 104.793823,71.9082592 107.042857,73.9061182 C98.0496521,81.6909809 88.6811192,89.0420396 78.9871069,95.9179797 C72.0728657,100.82262 66.6188842,94.6578825 62.8509453,89.2456618 C58.4496408,82.9156655 53.4824125,77.1316129 50.0076984,70.1582882 C48.0167019,66.1566682 46.4391524,61.585496 47.5885937,57.2651628 C48.4066909,54.1813184 50.5413676,51.5578374 51.2304459,48.4326784" id="Fill-35" fill="#116DC0"></path><path d="M58.0304924,95.5695872 C57.3717348,91.2795165 57.3835511,86.885462 58.0836657,82.6043042 C58.771964,78.4033623 56.6420796,74.244014 56.3939377,69.9955367 C56.2019231,66.7037096 56.3880295,63.4059405 56.3555348,60.1111424 C56.3289481,57.3124952 56.0867144,54.5168189 55.7469964,51.7389684 C56.2137394,51.7231233 57.1241957,51.7231233 58.4783651,51.7389684 L56.0246789,49.1542305 C52.753045,46.4281349 47.2607533,45.9771616 42.6642205,45.3770271 C33.8001116,51.5362347 28.1156008,44.1727071 27.8142857,44.1637942 C26.1659147,44.1222007 21.0208399,45.8299519 16.2924385,49.1542305 C11.5640371,52.478509 10.3748815,54.848667 9.47684421,56.3014679 C8.49018486,57.8939042 8.1327424,59.7953206 7.94072785,61.6610854 C7.16676154,69.1716801 15.3796309,72.6426649 16.2924385,80.1354338 C17.0811752,86.6091625 17.3440874,93.1452813 17.075267,99.6635744 C16.945288,102.79497 16.6410188,106.083826 14.8922094,108.680447 C23.3526656,109.580649 29.7186863,109.36674 37.64741,112.51299 C41.0268659,113.852894 43.9838899,112.073287 45.0207685,111.413733 C49.3012158,108.686389 59.9270053,110.914612 61.2622449,108.386322 C62.2843531,106.446283 60.0747088,103.680317 59.5075274,101.897739 C58.8517239,99.8299483 58.3554401,97.7116516 58.0304924,95.5695872 Z" id="Fill-41" fill="#116DC0"></path><path d="M58.9069851,101.368871 C58.2933791,99.2879148 57.8290286,97.1561308 57.5249896,95.0004278 C56.9003276,90.6142747 57.3674421,85.3819858 57.7682208,81.9167155 C57.8317926,81.3725575 55.8002591,80.1108284 54.8411542,71.3684211 C54.7637625,71.8767005 54.6891347,72.38498 54.617271,72.8932595 C54.5564632,73.428448 54.5094753,73.9636364 54.4459035,74.4988248 C54.2634801,76.0924305 54.1004046,77.6890261 53.9428571,79.2826318 C54.0700007,81.136357 54.2137283,82.9870924 54.4763074,84.8228783 C54.918546,87.9323529 55.5597919,90.9700703 55.2806288,94.076555 C55.0346336,96.8362137 55.4713442,99.8888806 57.1822547,102.065513 C57.7433449,102.780094 58.4398706,103.393019 58.8268294,104.233175 C59.3934475,105.465006 59.8329221,106.057002 60.6676474,107.052632 C60.8666548,105.192927 59.3658076,102.923608 58.9069851,101.368871" id="Fill-42" fill="#0F61AB"></path><path d="M54.2460717,109.804982 C55.8853573,109.802001 57.5037793,109.787098 59,109.506913 C56.6155846,108.478575 54.0255133,108.055317 51.4950524,107.477063 C43.1376763,105.575382 35.1796898,101.93894 28.2738265,96.862825 C26.6017552,95.6377613 24.9296839,94.245779 24.1398463,92.3291952 C22.78371,89.0534167 24.3663657,85.4020712 25.3350345,81.9951424 C26.2381318,78.823688 26.6077162,75.5002185 26.4199435,72.2065558 C26.1665994,67.6967716 22.405184,62.5819073 19.4961972,59.3389164 C18.1191973,57.8008802 16.5514441,56.465531 14.909178,55.2255639 C14.7512105,55.955833 14.6081455,56.6920635 14.5336326,57.4312746 C13.7527365,64.9664594 15.3890416,72.5105862 16.3100221,80.0278869 C17.1058207,86.5228107 17.3710869,93.0803291 17.0998597,99.6199634 C16.9687168,102.761611 16.6617233,106.061235 14.8972559,108.666358 C23.4334632,109.569507 29.8564823,109.354897 37.8561961,112.511448 C41.2659102,113.85574 44.24941,112.070306 45.2955723,111.405612 C47.8856435,109.766233 51.1046044,109.810943 54.2460717,109.804982" id="Fill-43" fill="#0F61AB"></path><path d="M23.3365032,75.3989975 C24.7911383,71.2417425 26.1567142,66.6912336 24.7436401,62.5191946 C23.704615,59.4559541 21.1337701,56.9456344 18.0315381,55.9728485 C14.9352433,55.0000627 13.6616954,53.3413002 11.0433523,55.2602607 L9.1790444,56.9899863 C8.17861168,57.950945 0.466076963,82.8353391 0,102.965205 C2.44911562,105.073612 6.2858238,107.788142 10.5548323,110.606538 C19.7005558,110.92991 29.6245815,111.612267 33.8001116,110.966554 C25.6493844,103.707585 16.0204617,96.2495877 16.069265,96.0847414 C18.2096566,89.1185303 20.9289337,82.2765047 23.3365032,75.3989975 Z" id="Fill-44" fill="#116DC0"></path><path d="M51.7476203,33.9198065 C50.8096948,36.5680193 49.3545955,39.1380782 47.0609147,40.6951432 C42.8271015,43.5687997 35.8233401,39.255309 33.4069402,35.4919011 C29.8685359,29.9850613 24.4880393,24.6143089 25.2857143,17.8269485 C26.1681239,10.3331978 34.7714611,3.25644839 42.1696771,4.40771456 C47.6920422,5.26440087 52.4664043,9.88449512 53.6030181,15.4664828 C54.093895,17.8621985 53.9624101,20.3360681 53.7695656,22.7708608 C53.5299709,25.7707659 53.193954,28.7857005 52.4313417,31.6864103 C52.2355753,32.4378895 52.0076682,33.1863628 51.7476203,33.9198065 Z" id="Fill-48" fill="#FFC098"></path><path d="M29.135616,10.6585159 C37.8721805,17.5029685 58.6709929,18.3702347 57.2444342,2.08859639 C56.2579526,4.18574876 53.4402776,4.65715476 51.2635204,3.98328592 C42.8193561,1.37846554 30.1220976,-5.6231224 28.6571429,8.93002717" id="Fill-50" fill="#131730"></path><path d="M23.742048,5.76397686 C21.269212,9.51340544 20.5881083,14.1260118 21.3919334,18.4748694 C22.2571192,23.1654016 24.8680168,26.9867617 27.8194663,30.6762473 C28.147746,31.0838591 28.4760257,31.4914708 28.8043055,31.8990826 L29.117245,32.2857143 C29.0067958,30.2386641 28.8871424,25.8718237 28.7981694,25.6440406 L28.3962568,25.0715859 C27.0984781,23.5340505 26.472599,20.8006541 27.7120851,19.1851928 C29.0466802,17.4498458 30.4334319,19.2960872 31.4152031,20.7766769 C31.9306329,18.2650693 33.1087583,13.8622631 35.4496688,12.705365 L36.0632758,12.2947561 C36.4375761,11.8272015 36.1522488,11.155841 35.8822618,10.6223491 C34.7041364,8.31454738 34.6427757,3.59704092 32.1453954,2.29328278 C28.9331629,0.614881497 25.8958085,2.76982886 24.0549876,5.31140795 L23.742048,5.76397686" id="Fill-51" fill="#131730"></path></g><path d="M50.549129,111 L79,111 L79,114 L49,114 L49,112.499182 C49,111.674304 49.6967698,111 50.549129,111" id="Fill-192" fill="#C8D3E3"></path><g id="Group-195" transform="translate(0.000000, 97.000000)"><mask id="mask-10" fill="white"><use xlink:href="#path-9"></use></mask><g id="Clip-194"></g><path d="M3.32407209,0 L29.6759279,0 C31.5025746,0 33,1.82331325 33,4.05 C33,6.27831325 31.5025746,8.1 29.6759279,8.1 L3.32407209,8.1 C1.49565544,8.1 0,6.27831325 0,4.05 C0,1.82331325 1.49565544,0 3.32407209,0" id="Fill-193" fill="url(#linearGradient-11)" mask="url(#mask-10)"></path></g><path d="M11.1230599,97 L20,97 C18.2821508,97 16.8769401,99.0259036 16.8769401,101.5 C16.8769401,103.975904 18.2821508,106 20,106 L11.1230599,106 C9.40521064,106 8,103.975904 8,101.5 C8,99.0259036 9.40521064,97 11.1230599,97" id="Fill-196" fill="#E26229"></path><path d="M28.4355508,105 L52,105 C51.0228885,103.454519 50.6414135,101.259313 52,99 L28.4355508,99 C27.6475037,99 27,100.351429 27,101.999134 C27,103.646838 27.6475037,105 28.4355508,105" id="Fill-197" fill="#EEEFEB"></path><path d="M51.1199304,102 C51.1015259,101.053949 51.3541695,100.034483 52,99 L28.4355508,99 C27.6475037,99 27,100.301446 27,101.888209 C27,101.926585 27,101.963293 27.0016731,102 L51.1199304,102" id="Fill-198" fill="#DEDED7"></path><path d="M53,106 L28.3621618,106 C27.2140531,106.001806 26,103.948794 26,101.472891 C26,98.9969877 27.2140531,97 28.3621618,97 L53,97 L52.9881638,98.3481926 L28.4416333,98.3716866 C27.645228,98.3716866 26.9908567,99.7813249 26.9908567,101.5 C26.9908567,103.218674 27.645228,104.630119 28.4416333,104.630119 L52.9881638,104.606625 L53,106" id="Fill-199" fill="#E26229"></path><g id="Group-202" transform="translate(24.000000, 105.000000)"><mask id="mask-13" fill="white"><use xlink:href="#path-12"></use></mask><g id="Clip-201"></g><path d="M30.5761042,0 L3.42389576,0 C1.54014262,0 0,2.02549689 0,4.49909657 C0,6.97450311 1.54014262,9 3.42389576,9 L30.5761042,9 C32.4581132,9 34,6.97450311 34,4.49909657 C34,2.02549689 32.4581132,0 30.5761042,0" id="Fill-200" fill="url(#linearGradient-14)" mask="url(#mask-13)"></path></g><path d="M47.6160371,105 L38,105 C39.860835,105 41.3839629,107.025497 41.3839629,109.499097 L41.3839629,109.500903 C41.3839629,111.974503 39.860835,114 38,114 L47.6160371,113.998193 C49.4768721,113.998193 51,111.974503 51,109.499097 C51,107.025497 49.4785951,105 47.6160371,105" id="Fill-203" fill="#5C1A1B"></path><path d="M29.4496863,112 L4,112 C5.05428242,110.712099 5.46735373,108.882761 4,107 L29.4496863,107 C30.3017539,107 31,108.126191 31,109.499278 C31,110.873809 30.3017539,112 29.4496863,112" id="Fill-204" fill="#EEEFEB"></path><path d="M4.95058251,111 C4.96959416,109.740823 4.69651773,108.37931 4,107 L29.4496863,107 C30.3017539,107 31,108.735261 31,110.850945 C31,110.902113 31,110.951057 31,111 L4.95058251,111" id="Fill-205" fill="#DEDED7"></path><path d="M2,114 L27.5496855,114 C28.7404612,114.001806 30,111.948794 30,109.472891 C30,106.998795 28.7404612,105 27.5496855,105 L2,105 L2.01006289,106.348193 L27.4675052,106.371687 C28.2943396,106.373494 28.9719078,107.781325 28.9719078,109.5 C28.9719078,111.220481 28.2943396,112.630119 27.4675052,112.630119 L2.01006289,112.606625 L2,114" id="Fill-206" fill="#5C1A1B"></path><g id="Group-209" transform="translate(23.000000, 108.000000)"><mask id="mask-16" fill="white"><use xlink:href="#path-15"></use></mask><g id="Clip-208"></g><path d="M5,0 C3.78015026,0 2.89047054,0 1.66864373,0 C0.389482009,0.528528529 0.759193357,2.62719863 0,4 L1.96915777,2.86572287 L3.39659945,3.92792793 C4.50375643,2.68211068 3.87109529,0.555984556 5,0" id="Fill-207" fill="url(#linearGradient-17)" mask="url(#mask-16)"></path></g><path d="M88.4203146,74 L135.634342,74 C137.456106,74 139.347028,75.6231884 138.945566,77.5014493 L131.889607,110.498551 C131.488144,112.376812 130.400147,114 128.578384,114 L81.3643561,114 C79.5442798,114 77.6516703,112.376812 78.0548197,110.498551 L85.1090914,77.5014493 C85.510554,75.6231884 86.6002383,74 88.4203146,74" id="Fill-289" fill="#C8D3E3"></path><g id="Group-292" transform="translate(79.000000, 74.000000)" fill="url(#linearGradient-18)"><path d="M10.590782,0 L58.5791439,0 C60.4307849,0 62.3527197,1.62318841 61.9446729,3.50144928 L54.7747075,36.4985507 C54.3666607,38.3768116 53.2608196,40 51.4091786,40 L3.42081663,40 C1.57089013,40 -0.352759105,38.3768116 0.0552877029,36.4985507 L7.22696752,3.50144928 C7.63501433,1.62318841 8.74085547,0 10.590782,0" id="Fill-290"></path></g><path d="M115.320475,93.0327407 C116.808022,93.2932964 117.421962,95.0575411 116.693285,96.9724686 C115.962596,98.8873962 114.167072,100.229415 112.679525,99.9672897 C111.191978,99.706734 110.578038,97.9424893 111.306715,96.0275618 C112.037404,94.1110647 113.832928,92.7706154 115.320475,93.0327407" id="Fill-293" fill="#FFFFFE"></path></g><polygon id="Fill-210" fill="#0F112B" points="270 155 298 155 298 144 270 144"></polygon><path d="M255.57336,152 L313.42664,152 C314.843265,152 316,153.123759 316,154.5 L316,157 L253,157 L253,154.5 C253,153.123759 254.158237,152 255.57336,152" id="Fill-211" fill="#25367D"></path><path d="M218.5,42 C222.088737,42 225,44.910068 225,48.4998439 C225,52.0897759 222.088737,55 218.5,55 C214.909702,55 212,52.0897759 212,48.4998439 C212,44.910068 214.909702,42 218.5,42" id="Fill-212" fill="#00A2ED"></path><path d="M233.007678,41 L244.99083,41 C245.546172,41 246,41.4499408 246,42 L246,42.0001481 C246,42.5500592 245.546172,43 244.99083,43 L233.007678,43 C232.453828,43 232,42.5500592 232,42.0001481 L232,42 C232,41.4499408 232.453828,41 233.007678,41" id="Fill-213" fill="#00A2ED"></path><path d="M232.996264,46 L263.003736,46 C263.551312,46 264,46.449826 264,46.9999259 L264,47.0000741 C264,47.550174 263.551312,48 263.003736,48 L232.996264,48 C232.448688,48 232,47.550174 232,47.0000741 L232,46.9999259 C232,46.449826 232.448688,46 232.996264,46" id="Fill-214" fill="#00A2ED"></path><path d="M233.052417,51 L251.947583,51 C252.526023,51 253,51.4499408 253,52 L253,52.0001481 C253,52.5502073 252.526023,53 251.947583,53 L233.052417,53 C232.473977,53 232,52.5502073 232,52.0001481 L232,52 C232,51.4499408 232.473977,51 233.052417,51" id="Fill-215" fill="#00A2ED"></path><path d="M218.5,63 C222.088737,63 225,65.9101891 225,69.4999219 C225,73.0898109 222.088737,76 218.5,76 C214.909702,76 212,73.0898109 212,69.4999219 C212,65.9101891 214.909702,63 218.5,63" id="Fill-216" fill="#00A2ED"></path><path d="M218.5,86 C222.088737,86 225,88.9107786 225,92.4996878 C225,96.090158 222.088737,99 218.5,99 C214.909702,99 212,96.090158 212,92.4996878 C212,88.9107786 214.909702,86 218.5,86" id="Fill-217" fill="#00A2ED"></path><path d="M233.007678,64 L244.99083,64 C245.546172,64 246,64.6749611 246,65.4998889 L246,65.5001111 C246,66.3252611 245.546172,67 244.99083,67 L233.007678,67 C232.453828,67 232,66.3252611 232,65.5001111 L232,65.4998889 C232,64.6749611 232.453828,64 233.007678,64" id="Fill-218" fill="#00A2ED"></path><path d="M233.007678,87 L244.99083,87 C245.546172,87 246,87.6741947 246,88.5005553 C246,89.3246946 245.546172,90 244.99083,90 L233.007678,90 C232.453828,90 232,89.3246946 232,88.5005553 C232,87.6741947 232.453828,87 233.007678,87" id="Fill-219" fill="#00A2ED"></path><path d="M232.996264,69 L263.003736,69 C263.551312,69 264,69.674689 264,70.4997778 L264,70.5 C264,71.3250889 263.551312,72 263.003736,72 L232.996264,72 C232.448688,72 232,71.3250889 232,70.5 L232,70.4997778 C232,69.674689 232.448688,69 232.996264,69" id="Fill-220" fill="#00A2ED"></path><path d="M232.996264,91 L263.003736,91 C263.551312,91 264,91.4503704 264,92 C264,92.5511111 263.551312,93 263.003736,93 L232.996264,93 C232.448688,93 232,92.5511111 232,92 C232,91.4503704 232.448688,91 232.996264,91" id="Fill-221" fill="#00A2ED"></path><path d="M233.052417,73 L251.947583,73 C252.526023,73 253,73.4499408 253,74 L253,74.0001481 C253,74.5500592 252.526023,75 251.947583,75 L233.052417,75 C232.473977,75 232,74.5500592 232,74.0001481 L232,74 C232,73.4499408 232.473977,73 233.052417,73" id="Fill-222" fill="#00A2ED"></path><path d="M233.052417,96 L251.947583,96 C252.526023,96 253,96.6750555 253,97.4988897 L253,97.5011103 C253,98.3249445 252.526023,99 251.947583,99 L233.052417,99 C232.473977,99 232,98.3249445 232,97.5011103 L232,97.4988897 C232,96.6750555 232.473977,96 233.052417,96" id="Fill-223" fill="#00A2ED"></path><g id="Group-73" transform="translate(282.000000, 33.000000)"><mask id="mask-20" fill="white"><use xlink:href="#path-19"></use></mask><use id="Mask" fill="#FFFFFF" xlink:href="#path-19"></use><g mask="url(#mask-20)"><g transform="translate(39.599151, 119.019387) rotate(-3.000000) translate(-39.599151, -119.019387) translate(7.599151, 13.019387)"><path d="M0.266013799,81.7708599 C2.67026958,89.745213 9.21632376,85.3644746 13.7166377,78.3559807 C19.9167558,68.6922333 26.1215912,47.6890933 25.3526697,42.4318635 C24.5821756,37.1763523 20.0163463,35.9136691 20.0163463,35.9136691 C12.342855,40.0984858 -2.13824199,73.7982254 0.266013799,81.7708599 Z" id="Fill-40" fill="#22407A"></path><path d="M18.0725397,146.999823 C18.667756,157.742317 21.2697489,211.07818 21.2697489,211.07818 C28.1596267,212.569542 32.5406181,211.07818 32.5406181,211.07818 C34.8067627,170.182051 34.7402581,158.421882 35.3920033,152.322529 C36.0420859,146.22485 36.8451291,128.59464 36.8451291,128.59464 C41.7016284,118.474802 36.620676,105.305288 34.2248474,102.133424 C31.8273561,98.963233 19.1066864,103.492555 19.1066864,103.492555 C19.1066864,103.492555 17.4773234,136.257329 18.0725397,146.999823 Z" id="Fill-42" fill="#2B478B"></path><path d="M34.1371538,140.866922 C36.7250085,149.526784 39.0526584,174.915524 40.1549804,179.344658 C41.2573024,183.773792 42.6040592,211.127633 42.6040592,211.127633 C48.5572288,212.507725 53.2062206,211.127633 53.2062206,211.127633 C53.0800607,185.509849 53.7502851,164.688835 53.2062206,157.661451 C52.6605791,150.634067 53.4222694,129.813053 53.4222694,129.813053 C55.8792332,120.120311 56.025894,118.881729 53.4222694,112.443729 C50.8186447,106.00427 39.6235318,100.902597 29.9029126,106.217266 C29.9029126,106.217266 31.5461451,132.20852 34.1371538,140.866922 Z" id="Fill-44" fill="#2B478B"></path><path d="M60.458442,47.793116 C67.2161845,56.7611877 57.4085448,72.6109094 55.0571097,82.162572 C52.7089157,91.7142346 56.142886,115.695435 56.1364038,117.996065 C45.6513692,125.233604 20.3932938,126.149471 17.5589313,115.356413 C16.3872651,103.608694 18.9720611,89.6615464 19.1114294,82.7917032 C18.7711115,68.0298895 12.6162179,38.8115509 24.3328794,34.4413658 C33.1843877,34.0331895 53.7039406,38.8233576 60.458442,47.793116 Z" id="Fill-45" fill="#FCFCFC"></path><g id="Group-65" stroke-width="1" fill="none" transform="translate(28.342207, 0.000000)"><g id="Group-873" transform="translate(14.092193, 3.824534) rotate(9.000000) translate(-14.092193, -3.824534) translate(12.322078, 1.602312)"><mask id="mask-22" fill="white"><use xlink:href="#path-21"></use></mask><g id="Clip-872"></g><path d="M3.27254798,3.69926448 C2.25154638,2.61167898 1.21012475,1.4954728 0.148283092,0.350645952 C1.21012475,1.26650743 2.25154638,2.38271361 3.27254798,3.69926448" id="Fill-871" mask="url(#mask-22)"></path></g><path d="M4.19774631,41.2343118 C4.51129127,45.4733108 6.82683032,52.1912495 8.41013035,52.0052092 C9.98974626,51.8275231 16.1730266,44.7929268 15.8420841,39.3900299 C15.6165766,33.9426037 15.5960633,30.9180858 15.1285746,28.3148351 C14.6631577,25.7325787 3.16182911,27.7528976 3.16182911,27.7528976 C4.15425074,31.0135298 3.88420135,36.9953128 4.19774631,41.2343118 Z" id="Fill-883" fill="#F9B589" transform="translate(9.508356, 39.504940) rotate(9.000000) translate(-9.508356, -39.504940) "></path><g id="Group-890" transform="translate(19.201374, 22.873526) rotate(9.000000) translate(-19.201374, -22.873526) translate(17.873788, 20.206859)"><mask id="mask-24" fill="white"><use xlink:href="#path-23"></use></mask><g id="Clip-889"></g><path d="M1.74109952,4.53723006 C1.4495238,2.92133782 1.19960176,1.54052296 1.07067372,0.816230508 C1.02703654,0.566328432 0.862405353,0.426552695 0.60256577,0.375725154 L0.999267423,0.13641215 C1.02306952,0.329133242 1.3285298,2.15257127 1.74109952,4.53723006" id="Fill-888" mask="url(#mask-24)"></path></g><path d="M3.06744437,10.5670261 C3.88336996,7.55383296 9.25686043,4.64261325 10.5650879,4.56950136 C18.6363911,4.09867051 19.3337811,10.3362695 19.7495676,16.7791258 C21.5160404,15.3403445 22.4035831,17.4887748 22.4008033,20.0595647 C22.4047339,22.0236296 22.4073909,24.8760047 19.7677941,25.7475254 C19.0258046,28.8209391 18.1395975,29.7652552 17.0941171,31.7492496 C15.7780761,33.5761309 13.4079343,34.4738514 11.7214129,34.6511119 C9.94716998,34.8375924 7.03811362,33.4883243 6.25297603,31.8233146 C5.13940955,30.280458 4.31818398,28.7131214 3.58224044,26.2607901 C2.39224685,22.0339126 1.8558276,15.2809786 3.06744437,10.5670261 Z" id="Fill-910" fill="#FFC098" transform="translate(12.391769, 19.606404) rotate(9.000000) translate(-12.391769, -19.606404) "></path><path d="M14.2559711,3.43970821 C12.2789115,3.42063503 13.2867467,8.93964321 13.6677999,9.10973936 C14.6878287,8.34951408 15.6844874,8.89838212 15.961734,9.01952329 C16.5194738,9.22829547 17.7038741,10.7823681 17.9318346,11.98043 C18.0711216,12.712462 19.2512579,13.2921638 19.6972737,14.0562725 C20.4076757,15.2733244 20.1640275,17.4971688 20.1732615,18.5087163 L21.4639627,17.1429798 C21.7474629,15.1870899 21.7572692,13.4777228 21.4933815,12.0148785 C21.09755,9.82061189 20.6345292,9.47809302 19.9117312,8.00374424 C19.1889333,6.52939547 16.2330306,3.45888054 14.2559711,3.43970821 Z" id="Fill-911" fill="#131730" transform="translate(17.377543, 10.974212) rotate(9.000000) translate(-17.377543, -10.974212) "></path><path d="M4.13050575,6.75634888 C5.25387358,4.09577232 7.50567775,2.65605743 9.0661185,2.03461849 C9.94917404,1.68294536 14.8544981,0.818948022 17.4454168,2.54587578 C20.6957864,4.8429895 21.1479465,7.52797513 21.5712821,10.0870546 C21.8566361,11.8120302 19.9419842,11.6525752 19.3060094,10.3569424 C18.9716704,9.67581386 18.5645908,7.28569725 16.9899847,6.83637306 C15.4153786,6.38704888 14.8196748,8.69343919 12.1246986,8.81992524 C9.42972243,8.94641129 7.72797754,7.37006228 6.56291186,8.76613036 C5.89910595,9.60687297 5.98837814,10.7284556 5.79603025,11.5230811 C5.60368236,12.3177066 5.31605336,13.1885611 4.95356805,13.680148 C4.72115914,13.9953308 4.04435781,16.0101902 4.04435781,16.0101902 C3.37387274,14.1495596 3.00713792,9.41692543 4.13050575,6.75634888 Z" id="Fill-916" fill="#131730" transform="translate(12.505381, 8.757784) rotate(9.000000) translate(-12.505381, -8.757784) "></path><path d="M4.53573054,32.0951879 C4.4183909,31.9541786 4.80950008,30.3949948 5.55689359,30.9768513 C5.68020777,31.0728532 6.06872972,31.8227781 6.13423006,31.9103839 C6.61077346,32.5477543 6.8628435,32.5678803 7.22770685,32.7204697 C8.10588593,32.9498364 8.11844695,31.0736714 8.9338087,31.0815578 C9.74917045,31.0894441 10.1125203,31.6870275 10.6405895,32.2228075 C11.1686587,32.7585875 12.7650358,32.2810159 13.2268129,31.7232048 C13.8209857,31.0449689 13.2405977,30.1692615 14.3781306,29.9387865 C14.9046865,29.8321013 15.252209,30.2877173 15.5272947,30.6934828 C15.0530075,31.731199 14.2697378,32.559306 13.1169331,33.2714464 C11.9978267,33.9825321 10.4258311,34.4526573 9.47975792,34.4712479 C8.53368475,34.4898385 6.12580435,34.0062436 4.53573054,32.0951879 Z" id="Path-7" fill="#131730" transform="translate(10.021238, 32.197398) rotate(9.000000) translate(-10.021238, -32.197398) "></path></g><path d="M24.4385587,89.8786157 C25.0640827,98.6939935 25.3256322,127.194245 25.3256322,127.194245 C17.8431216,123.572201 14.5600352,116.930386 14.5600352,113.910614 C14.5600352,110.890843 17.3785512,85.0974509 17.2871003,83.0248277 C17.1956494,80.9488398 12.5597803,58.0772264 13.6114653,47.4499857 C14.6613214,36.8244272 20.5220923,35.6571129 20.5220923,35.6571129 L32.1456311,35.9136691 L31.656027,39.3433399 C27.2049225,46.1425971 23.8130347,81.0632379 24.4385587,89.8786157 Z" id="Fill-46" fill="#274887"></path><path d="M35.1471337,80.923972 C35.3960388,93.1331395 38.0354703,128.690647 38.0354703,128.690647 C50.7814869,125.728347 59.4655103,122.290494 61.9476475,118.142614 C56.4890198,104.392852 54.5029643,95.1476357 55.6213089,91.2358805 C56.7361964,87.3241253 66.367442,57.5029776 61.3651404,48.649102 C56.6134723,43.7053304 46.0920452,40.4028777 46.0920452,40.4028777 C38.745887,55.2028194 34.8999571,68.7148045 35.1471337,80.923972 Z" id="Fill-51" fill="#274887"></path><path d="M45.6019417,39.4132199 C45.6019417,39.4132199 42.5842391,46.1669295 41.4976044,49.1490216 C40.4093331,52.1294375 37.5487343,54.618705 37.5487343,54.618705 L33.6407767,50.2486576 C39.0281286,47.3269114 44.4456457,37.2419461 44.4456457,37.2419461 C44.4914676,37.5000924 45.6019417,39.4132199 45.6019417,39.4132199 Z" id="Fill-52" fill="#FCFCFC"></path><path d="M34.3883495,50.2957568 C32.1659683,52.5263934 30.6722369,53.1223022 30.6722369,53.1223022 C30.6722369,53.1223022 30.3741372,44.391462 31.9850666,40.4185103 C32.3027568,39.9971678 33.2350903,48.2153784 34.3883495,50.2957568 Z" id="Fill-53" fill="#FCFCFC"></path><path d="M28.3367376,70.8175592 C27.6293382,70.3944113 26.8755802,70.0407354 26.0874823,69.7707418 C25.7217637,69.644429 25.369781,69.5260107 24.9800245,69.5133795 C24.6847025,69.5023271 24.0803224,69.3475939 23.8468119,69.5481155 C23.6939999,69.679165 23.7334907,69.9096859 23.8159061,70.0849449 C24.1387,70.7622973 24.904477,71.1475514 25.5947065,71.5217531 C26.7811458,72.1675273 27.2344308,73.0927686 27.6327722,74.1632697 C26.4875407,73.0896108 25.4418945,71.9085861 24.0528506,71.0812372 C22.6929955,70.2712563 21.1768944,69.7170589 19.6556423,69.2039131 C18.9928847,68.9797078 18.2923532,68.7586604 17.5952558,68.8597107 C16.793422,68.97655 16.4517413,69.573378 16.9925927,70.1749428 C17.4647646,70.697562 18.2751833,70.8933469 18.9001673,71.2264969 C19.7397748,71.6733285 20.5261556,72.2022634 21.243857,72.8022492 C21.5752358,73.0785585 21.9443884,73.3690779 22.2002197,73.7085436 C22.3873715,73.9532747 22.615731,74.4758939 22.9282229,74.6006278 C22.0680116,74.2595832 21.2284041,73.877487 20.4111174,73.455918 C19.6951331,73.086453 18.9482429,72.9080362 18.2116548,72.5748861 C17.569501,72.2843667 16.9822908,71.8485875 16.3452879,71.5375422 C16.0053242,71.3717566 15.5880959,71.2122867 15.2481321,71.3812301 C14.9974518,71.505964 14.8703946,71.7838522 14.8806965,72.0459513 C14.8892815,72.3080503 15.0129047,72.5559392 15.1605657,72.7801444 C15.5331523,73.3438154 16.0722867,73.8001204 16.7007046,74.1143235 C17.2638769,74.3969484 17.7034261,74.7585188 18.2322586,75.0964056 C18.8950163,75.5211324 19.549189,75.9537537 20.1776069,76.42269 C20.4883819,76.6579476 20.7940059,76.9010998 21.087611,77.1553043 C21.3262724,77.3621416 21.6044246,77.7631847 21.8842938,77.9037077 C20.5776653,77.2547757 19.3002256,76.5553185 18.0554088,75.8069151 C17.5901048,75.527448 17.0887441,75.2511388 16.6835347,74.9037785 C16.190759,74.4790517 15.6172847,74.1711642 14.9476591,74.0590616 C14.7845451,74.0306412 14.6042613,74.01801 14.4617513,74.0953766 C14.2763165,74.1948479 14.2110709,74.4237899 14.2557126,74.6179958 C14.3003543,74.8122017 14.4291285,74.9795662 14.5561856,75.1390361 C15.3116607,76.0784876 16.1529852,76.9595195 17.0921781,77.7458167 C17.9352196,78.4547473 19.0821681,79.4463029 20.2153807,79.7147176 C18.635751,79.3420948 17.2278202,78.7863185 16.034513,77.7663425 C15.4850766,77.2942484 14.8669606,76.8253121 14.1200705,76.7368932 C13.895145,76.7100517 13.6272947,76.7384721 13.5105395,76.9168889 C13.3851993,77.1063581 13.5002375,77.3479314 13.6221437,77.5389795 C14.4480153,78.8368436 15.6825303,80.3257558 17.1797445,80.9920559 C17.9987481,81.3567841 18.7250344,81.9441387 19.5148492,82.3720233 C20.3681927,82.8362229 21.243857,83.2656864 22.0886154,83.7440962 C24.0665865,84.8588067 26.5562202,85.9798329 28.7883057,86.5545561 C29.4287425,86.7203417 30.1069531,86.8040239 30.7714277,86.7898137 C31.4788271,86.7756035 31.8617156,86.6398173 32.3905481,86.2261428 C33.322873,85.4966864 33.9238191,84.4482901 34.1951033,83.3588421 C34.5161803,82.0657147 34.402859,80.709431 34.1058199,79.4099879 C33.9890647,78.8921054 33.8431206,78.372644 33.6679878,77.8563404 C32.7270779,75.0758797 30.9585795,72.3948904 28.3367376,70.8175592 Z" id="Fill-96" fill="#FFC098"></path><path d="M9.94906398,68.2116742 C9.86112638,68.080325 9.76292939,67.9439239 9.62516048,67.9035087 C9.30272261,67.8108907 9.07701611,68.2739809 9.04330669,68.651189 C8.94071283,69.7390301 9.36134768,70.784772 9.65886989,71.8254621 C9.96958275,72.9234069 9.9446671,74.2705785 9.81422632,75.5891227 L9.61343547,75.2523298 C7.99098674,72.7870058 7.18342645,69.4140249 6.09593146,66.5698089 C5.96988756,66.2397518 5.78228735,65.8591758 5.47010887,65.8423362 C5.03188649,65.8187607 4.85894255,66.4839267 4.86040817,66.9874321 C4.86627068,69.2725719 5.27518052,71.2798576 6.16335028,73.3359782 C5.27664615,71.8321979 4.53503905,70.215592 3.9605134,68.5248916 C3.81834761,68.1123203 3.61169425,67.6273386 3.22770006,67.5953432 C1.66094515,67.465678 3.6366099,74.4103476 3.93413212,75.2691695 C3.11631244,73.9927244 2.54325241,72.5074677 2.27064585,70.9514845 C2.21788329,70.6517388 2.17244886,70.3418893 2.03321433,70.0791909 C1.87199539,69.7777612 1.45429179,69.4847514 1.202204,69.7996528 C0.989688137,70.0623512 0.947184964,70.784772 0.92226931,71.1249328 C0.84752235,72.1437314 1.06296947,73.1743176 1.38540734,74.1173378 C1.8558735,75.4965047 2.54764929,76.7712658 2.94483412,78.1790602 C2.25892083,77.2040447 1.57300755,76.2307132 0.88709427,75.2556978 C0.744928483,75.0519381 0.558793896,74.8262868 0.331621762,74.863334 C0.0311682944,74.912169 -0.0582349325,75.3819951 0.0355651745,75.7120522 C0.677509656,77.9332013 1.67706705,80.0263692 3.03423734,81.7776923 C3.6967006,82.6348302 4.52624529,83.3050481 5.15499914,84.1756578 C5.79108111,85.0546872 6.67631962,85.7333249 7.58647378,86.1762076 C8.55085613,86.6426658 9.60757296,86.8598972 10.6525648,86.772331 C11.4630563,86.7032885 11.9364537,86.4927929 12.4098512,85.7670042 C12.8172954,85.1388855 13.2218083,84.3878373 13.3200053,83.596374 C13.4944149,82.1885796 13.5149337,80.7757334 13.3024178,79.371307 C12.7381515,75.6446936 11.9760257,71.2714378 9.94906398,68.2116742 Z" id="Fill-97" fill="#FFC098"></path><path d="M49.4344684,81.9290774 C47.931287,62.1760853 51.4154822,41.1743123 59.6680474,48.7035318 C64.4248035,53.0427136 64.7068574,89.9631232 61.0418158,95.4198977 C57.3751152,100.875011 41.6580765,93.0352573 30.6646111,87.5187008 C30.3842164,82.7527414 34.3711311,76.7944619 34.3711311,76.7944619 L49.4344684,81.9290774 Z" id="Fill-98" fill="#22407A"></path></g></g></g><path d="M272.49923,25 L286.49923,25 C288.424422,25 290,26.5948404 290,28.544523 L290,31.4553211 C290,33.4050037 288.424422,35 286.49923,35 L272.49923,35 C270.574037,35 269,33.4050037 269,31.4553211 L269,28.544523 C269,26.5948404 270.574037,25 272.49923,25" id="Fill-277" fill="#0F1429"></path><path d="M279.999254,28 C281.104812,28 282,28.895538 282,30 C282,31.1046113 281.104812,32 279.999254,32 C278.895188,32 278,31.1046113 278,30 C278,28.895538 278.895188,28 279.999254,28" id="Fill-281" fill="#F4FAFB"></path><g id="Group-59" transform="translate(135.000000, 4.000000)"><path d="M14,0 C21.7312448,0 28,6.26807839 28,14 C28,21.7319216 21.7312448,28 14,28 C6.26710635,28 0,21.7319216 0,14 C0,6.26807839 6.26710635,0 14,0" id="Fill-282" fill="#6EB0D5"></path><path d="M25.5294118,13.9999143 C25.5294118,20.3674235 20.3684724,25.5294118 14.000857,25.5294118 C7.63324166,25.5294118 2.47058824,20.3674235 2.47058824,13.9999143 C2.47058824,7.63240509 7.63324166,2.47058824 14.000857,2.47058824 C20.3684724,2.47058824 25.5294118,7.63240509 25.5294118,13.9999143 Z" id="Fill-283" fill="#FFFFFE"></path><path d="M18.0831095,6.16426628 L13.6389394,14 L13.1764706,13.7353306 L17.6206407,5.8995969 C17.6928477,5.77158124 17.8561731,5.72683622 17.983395,5.79956847 L17.983395,5.79974123 C18.1106169,5.87247348 18.1553165,6.03642337 18.0831095,6.16426628" id="Fill-284" fill="#2B2B68" transform="translate(15.647059, 9.882353) rotate(-6.000000) translate(-15.647059, -9.882353) "></path><path d="M8.34504971,16.857118 L12.9577585,14 L13.1764706,14.4056085 L8.56235076,17.2628778 C8.45934442,17.3273514 8.32529507,17.2887581 8.2646201,17.1772157 L8.2646201,17.1770644 C8.20394513,17.0653707 8.24063232,16.9215916 8.34504971,16.857118" id="Fill-285" fill="#3973AC"></path><path d="M21.3007223,18.1054559 L14,13.2770707 L14.082803,13.1764706 L21.3835253,18.0049959 C21.4147717,18.0254522 21.421021,18.0645433 21.3975862,18.0922854 C21.3757137,18.1200275 21.3319687,18.1259122 21.3007223,18.1054559" id="Fill-286" fill="#2B2B68"></path><path d="M14,11.5294118 C14.9097536,11.5294118 15.6470588,12.266696 15.6470588,13.1763826 C15.6470588,14.0858933 14.9097536,14.8235294 14,14.8235294 C13.0902464,14.8235294 12.3529412,14.0858933 12.3529412,13.1763826 C12.3529412,12.266696 13.0902464,11.5294118 14,11.5294118" id="Fill-287" fill="#3973AC"></path><path d="M14.0008429,12.3529412 C14.4560178,12.3529412 14.8235294,12.7215197 14.8235294,13.1763863 C14.8235294,13.631253 14.4560178,14 14.0008429,14 C13.545668,14 13.1764706,13.631253 13.1764706,13.1763863 C13.1764706,12.7215197 13.545668,12.3529412 14.0008429,12.3529412" id="Fill-288" fill="#FFFFFE"></path></g></g></g></g></svg>