<svg xmlns="http://www.w3.org/2000/svg" xmlns:xlink="http://www.w3.org/1999/xlink" width="200px" height="149px" viewBox="0 0 200 149"><title>Hand_shake_illustration </title><desc>Created with Sketch.</desc><g id="Welcome" stroke="none" stroke-width="1" fill="none" fill-rule="evenodd"><g id="03_HOURS" transform="translate(-1241.000000, -7106.000000)"><g id="CTA" transform="translate(1216.000000, 7106.000000)"><g id="Hand_shake_illustration-" transform="translate(25.000000, 0.000000)"><path d="M186,72.0390519 L115.651542,137.787643 L79.4347484,103.321625 C72.6553364,109.991437 62.1836445,120.286409 51.6494645,130.617733 C44.4501763,137.67859 38.6223377,143.382353 33.8984558,148 L1,147.961446 C10.123922,139.283531 46.8609019,103.218081 71.6105791,78.8454542 L79.1782182,71.3935507 L115.789674,106.234091 L169.537123,56 L186,72.0390519" id="Fill-9" fill="#D5E5FB"></path><polyline id="Fill-10" fill="#D5E5FB" points="161 47.9526841 193.500358 83 200 43 161 47.9526841"></polyline><path d="M0.424986444,149 C0.191304825,149 0,148.808163 0,148.572789 L0,148.427211 C0,148.193197 0.191304825,148 0.424986444,148 L194.574878,148 C194.809101,148 195,148.193197 195,148.427211 L195,148.572789 C195,148.808163 194.809101,149 194.574878,149 L0.424986444,149 Z" id="Fill-11" fill="#2E3552"></path><path d="M195,145.652828 L195,147.347172 C195,147.482664 194.951752,147.607208 194.87,147.711223 C194.782886,147.82208 194.658246,147.908303 194.512163,147.956204 C194.467936,147.971259 194.421029,147.982208 194.372782,147.99042 C194.328555,147.997263 194.284328,148 194.238761,148 L162.76258,148 C162.356496,148 162.022784,147.724909 162.00134,147.381387 C162.00134,147.369069 162,147.35812 162,147.347172 L162,145.652828 C162,145.64188 162.00134,145.630931 162.00134,145.618613 C162.022784,145.275091 162.356496,145 162.76258,145 L194.238761,145 C194.284328,145 194.328555,145.002737 194.372782,145.00958 C194.421029,145.017792 194.467936,145.028741 194.512163,145.043796 C194.658246,145.091697 194.782886,145.17792 194.87,145.287409 C194.951752,145.392792 195,145.517336 195,145.652828" id="Fill-352" fill="#FFB93E"></path><path d="M179,148 L161.698549,148 C161.327273,148 161.020626,147.724909 161.001375,147.381387 C161.001375,147.369069 161,147.35812 161,147.347172 L161,145.652828 C161,145.64188 161.001375,145.630931 161.001375,145.618613 C161.020626,145.275091 161.327273,145 161.698549,145 L176.875477,145 C177.117494,145.882755 177.682659,147.104927 179,148" id="Fill-353" fill="#FFA412"></path><polygon id="Fill-354" fill="#FFA412" points="190.871465 148 191.128535 148 191.128535 145 190.871465 145"></polygon><polygon id="Fill-355" fill="#FFA412" points="188.871465 148 189.128535 148 189.128535 145 188.871465 145"></polygon><polygon id="Fill-356" fill="#FFA412" points="187.871465 148 188.128535 148 188.128535 145 187.871465 145"></polygon><polygon id="Fill-357" fill="#FFA412" points="185.871465 148 186.128535 148 186.128535 145 185.871465 145"></polygon><polygon id="Fill-358" fill="#FFA412" points="182.871465 148 183.128535 148 183.128535 145 182.871465 145"></polygon><polygon id="Fill-359" fill="#FFA412" points="179.871465 148 180.128535 148 180.128535 145 179.871465 145"></polygon><polygon id="Fill-360" fill="#FFA412" points="175.871465 148 176.128535 148 176.128535 145 175.871465 145"></polygon><polygon id="Fill-361" fill="#FFA412" points="172.871465 148 173.128535 148 173.128535 145 172.871465 145"></polygon><polygon id="Fill-362" fill="#FFA412" points="191.871465 148 192.128535 148 192.128535 145 191.871465 145"></polygon><polygon id="Fill-363" fill="#FFA412" points="192.871465 148 193.128535 148 193.128535 145 192.871465 145"></polygon><polygon id="Fill-364" fill="#FFA412" points="192.871465 148 193.128535 148 193.128535 145 192.871465 145"></polygon><path d="M194.128535,145.00958 L194.128535,147.99042 C194.096762,147.997263 194.064989,148 194.032254,148 L193.871465,148 L193.871465,145 L194.032254,145 C194.064989,145 194.096762,145.002737 194.128535,145.00958" id="Fill-365" fill="#FFA412"></path><path d="M195.128535,145.25094 L195.128535,147.74765 C195.065952,147.861842 194.976411,147.950658 194.871465,148 L194.871465,145 C194.976411,145.049342 195.065952,145.138158 195.128535,145.25094" id="Fill-366" fill="#FFA412"></path><path d="M191,142.652531 L191,144.346101 C191,144.481532 190.951752,144.607387 190.87,144.711354 C190.782886,144.820793 190.658246,144.906977 190.512163,144.954856 C190.467936,144.969904 190.421029,144.982216 190.372782,144.989056 C190.328555,144.995896 190.284328,145 190.238761,145 L158.76258,145 C158.356496,145 158.021443,144.723666 158.00134,144.380301 C158.00134,144.369357 158,144.358413 158,144.346101 L158,142.652531 C158,142.641587 158.00134,142.630643 158.00134,142.619699 C158.021443,142.276334 158.356496,142 158.76258,142 L190.238761,142 C190.258864,142 190.278967,142.001368 190.29907,142.002736 C190.307111,142.002736 190.315152,142.002736 190.324534,142.004104 C190.333915,142.005472 190.343297,142.00684 190.352678,142.008208 C190.359379,142.008208 190.36608,142.009576 190.372782,142.010944 C190.421029,142.017784 190.467936,142.028728 190.512163,142.043776 C190.518864,142.046512 190.525566,142.04788 190.532267,142.050616 C190.537627,142.053352 190.544328,142.056088 190.55103,142.058824 C190.564432,142.062927 190.576494,142.068399 190.589896,142.073871 C190.596597,142.077975 190.604638,142.080711 190.611339,142.084815 C190.61804,142.087551 190.624741,142.090287 190.630102,142.094391 C190.643504,142.099863 190.654226,142.106703 190.666288,142.113543 C190.67969,142.121751 190.693092,142.129959 190.705154,142.138167 C190.715875,142.145007 190.725257,142.151847 190.734638,142.158687 C190.735979,142.160055 190.735979,142.160055 190.737319,142.160055 C190.74268,142.165527 190.749381,142.170999 190.756082,142.175103 C190.776185,142.19015 190.793608,142.206566 190.81103,142.22435 C190.816391,142.229822 190.821752,142.233926 190.827113,142.239398 C190.831133,142.24487 190.836494,142.250342 190.840515,142.255814 C190.851237,142.26539 190.860618,142.277702 190.87,142.288646 C190.951752,142.392613 191,142.518468 191,142.652531" id="Fill-367" fill="#FFB93E"></path><path d="M176,145 L158.698549,145 C158.325898,145 158.020626,144.723666 158.001375,144.380301 C158.001375,144.369357 158,144.358413 158,144.346101 L158,142.652531 C158,142.641587 158.001375,142.630643 158.001375,142.619699 C158.020626,142.276334 158.325898,142 158.698549,142 L173.875477,142 C173.882353,142.024624 173.889228,142.049248 173.896104,142.073871 C174.149121,142.950752 174.718411,144.128591 176,145" id="Fill-368" fill="#FFA412"></path><polygon id="Fill-369" fill="#FFA412" points="186.871465 145 187.128535 145 187.128535 142 186.871465 142"></polygon><polygon id="Fill-370" fill="#FFA412" points="185.871465 145 186.128535 145 186.128535 142 185.871465 142"></polygon><polygon id="Fill-371" fill="#FFA412" points="184.871465 145 185.128535 145 185.128535 142 184.871465 142"></polygon><polygon id="Fill-372" fill="#FFA412" points="181.871465 145 182.128535 145 182.128535 142 181.871465 142"></polygon><polygon id="Fill-373" fill="#FFA412" points="179.871465 145 180.128535 145 180.128535 142 179.871465 142"></polygon><polygon id="Fill-374" fill="#FFA412" points="175.871465 145 176.128535 145 176.128535 142 175.871465 142"></polygon><polygon id="Fill-375" fill="#FFA412" points="172.871465 145 173.128535 145 173.128535 142 172.871465 142"></polygon><polygon id="Fill-376" fill="#FFA412" points="169.871465 145 170.128535 145 170.128535 142 169.871465 142"></polygon><polygon id="Fill-377" fill="#FFA412" points="188.871465 145 189.128535 145 189.128535 142 188.871465 142"></polygon><polygon id="Fill-378" fill="#FFA412" points="188.871465 145 189.128535 145 189.128535 142 188.871465 142"></polygon><polygon id="Fill-379" fill="#FFA412" points="189.871465 145 190.128535 145 190.128535 142 189.871465 142"></polygon><path d="M191.128535,142.010944 L191.128535,144.989056 C191.096762,144.995896 191.064989,145 191.032254,145 L190.871465,145 L190.871465,142 L191.032254,142 C191.064989,142 191.096762,142.004104 191.128535,142.010944" id="Fill-380" fill="#FFA412"></path><path d="M191.128535,142.25235 L191.128535,144.74906 C191.066683,144.861842 190.976806,144.950658 190.871465,145 L190.871465,142 C190.976806,142.050752 191.066683,142.139568 191.128535,142.25235" id="Fill-381" fill="#FFA412"></path><path d="M193,139.652828 L193,141.347172 C193,141.482664 192.953091,141.607208 192.869994,141.711223 C192.782877,141.82208 192.658232,141.908303 192.512144,141.956204 C192.467915,141.971259 192.421006,141.982208 192.372756,141.989051 C192.329868,141.995894 192.284299,142 192.23873,142 L160.76127,142 C160.635286,142 160.516002,141.973996 160.410121,141.926095 C160.187637,141.826186 160.028146,141.63458 160.002681,141.410128 C160.00134,141.400547 160.00134,141.390967 160.00134,141.380018 C160,141.369069 160,141.35812 160,141.347172 L160,139.652828 C160,139.64188 160,139.629562 160.00134,139.618613 C160.021444,139.275091 160.35517,139 160.76127,139 L192.23873,139 C192.284299,139 192.329868,139.002737 192.372756,139.00958 C192.421006,139.017792 192.467915,139.028741 192.512144,139.043796 C192.658232,139.091697 192.782877,139.17792 192.869994,139.287409 C192.953091,139.392792 193,139.517336 193,139.652828" id="Fill-382" fill="#FFB93E"></path><path d="M177,142 L159.697227,142 C159.58171,142 159.471694,141.973996 159.37543,141.926095 C159.1719,141.826186 159.026129,141.63458 159.00275,141.410128 C159.001375,141.400547 159.001375,141.390967 159.001375,141.380018 C159,141.369069 159,141.35812 159,141.347172 L159,139.652828 C159,139.64188 159,139.629562 159.001375,139.618613 C159.019253,139.275091 159.325923,139 159.697227,139 L174.875315,139 C175.11185,139.85812 175.652303,141.037865 176.89411,141.926095 C176.929865,141.95073 176.964245,141.975365 177,142" id="Fill-383" fill="#FFA412"></path><polygon id="Fill-384" fill="#FFA412" points="188.871465 142 189.128535 142 189.128535 139 188.871465 139"></polygon><polygon id="Fill-385" fill="#FFA412" points="186.871465 142 187.128535 142 187.128535 139 186.871465 139"></polygon><polygon id="Fill-386" fill="#FFA412" points="186.871465 142 187.128535 142 187.128535 139 186.871465 139"></polygon><polygon id="Fill-387" fill="#FFA412" points="183.871465 142 184.128535 142 184.128535 139 183.871465 139"></polygon><polygon id="Fill-388" fill="#FFA412" points="181.871465 142 182.128535 142 182.128535 139 181.871465 139"></polygon><polygon id="Fill-389" fill="#FFA412" points="177.871465 142 178.128535 142 178.128535 139 177.871465 139"></polygon><polygon id="Fill-390" fill="#FFA412" points="174.871465 142 175.128535 142 175.128535 139 174.871465 139"></polygon><polygon id="Fill-391" fill="#FFA412" points="170.871465 142 171.128535 142 171.128535 139 170.871465 139"></polygon><polygon id="Fill-392" fill="#FFA412" points="189.871465 142 190.128535 142 190.128535 139 189.871465 139"></polygon><polygon id="Fill-393" fill="#FFA412" points="190.871465 142 191.128535 142 191.128535 139 190.871465 139"></polygon><polygon id="Fill-394" fill="#FFA412" points="191.871465 142 192.128535 142 192.128535 139 191.871465 139"></polygon><path d="M192.128535,139.00958 L192.128535,141.989051 C192.097725,141.995894 192.064989,142 192.032254,142 L191.871465,142 L191.871465,139 L192.032254,139 C192.064989,139 192.097725,139.002737 192.128535,139.00958" id="Fill-395" fill="#FFA412"></path><path d="M193.128535,139.25094 L193.128535,141.74765 C193.065952,141.861842 192.976411,141.950658 192.871465,142 L192.871465,139 C192.976411,139.049342 193.065952,139.138158 193.128535,139.25094" id="Fill-396" fill="#FFA412"></path><path d="M193,136.652531 L193,138.346101 C193,138.481532 192.951752,138.607387 192.87,138.711354 C192.782886,138.820793 192.658246,138.906977 192.512163,138.954856 C192.467936,138.969904 192.421029,138.982216 192.372782,138.989056 C192.328555,138.995896 192.284328,139 192.238761,139 L160.76258,139 C160.356496,139 160.021443,138.723666 160.00134,138.380301 C160.00134,138.369357 160,138.358413 160,138.346101 L160,136.652531 C160,136.641587 160.00134,136.630643 160.00134,136.619699 C160.020103,136.300958 160.308248,136.042408 160.671445,136.004104 C160.70093,136.001368 160.731755,136 160.76258,136 L192.238761,136 C192.284328,136 192.328555,136.004104 192.372782,136.010944 C192.421029,136.017784 192.467936,136.028728 192.512163,136.043776 C192.658246,136.093023 192.782886,136.179207 192.87,136.288646 C192.951752,136.392613 193,136.518468 193,136.652531" id="Fill-397" fill="#FFB93E"></path><path d="M178,139 L160.698549,139 C160.327273,139 160.020626,138.723666 160.001375,138.380301 C160.001375,138.369357 160,138.358413 160,138.346101 L160,136.652531 C160,136.641587 160.001375,136.630643 160.001375,136.619699 C160.019251,136.302326 160.281895,136.042408 160.616043,136.004104 C160.64217,136.001368 160.669672,136 160.698549,136 L175.875477,136 C175.875477,136.001368 175.876853,136.002736 175.876853,136.004104 C176.120244,136.886457 176.685409,138.105335 178,139" id="Fill-398" fill="#FFA412"></path><polygon id="Fill-399" fill="#FFA412" points="189.871465 139 190.128535 139 190.128535 136 189.871465 136"></polygon><polygon id="Fill-400" fill="#FFA412" points="188.871465 139 189.128535 139 189.128535 136 188.871465 136"></polygon><polygon id="Fill-401" fill="#FFA412" points="186.871465 139 187.128535 139 187.128535 136 186.871465 136"></polygon><polygon id="Fill-402" fill="#FFA412" points="184.871465 139 185.128535 139 185.128535 136 184.871465 136"></polygon><polygon id="Fill-403" fill="#FFA412" points="182.871465 139 183.128535 139 183.128535 136 182.871465 136"></polygon><polygon id="Fill-404" fill="#FFA412" points="178.871465 139 179.128535 139 179.128535 136 178.871465 136"></polygon><polygon id="Fill-405" fill="#FFA412" points="174.871465 139 175.128535 139 175.128535 136 174.871465 136"></polygon><polygon id="Fill-406" fill="#FFA412" points="171.871465 139 172.128535 139 172.128535 136 171.871465 136"></polygon><polygon id="Fill-407" fill="#FFA412" points="190.871465 139 191.128535 139 191.128535 136 190.871465 136"></polygon><polygon id="Fill-408" fill="#FFA412" points="191.871465 139 192.128535 139 192.128535 136 191.871465 136"></polygon><polygon id="Fill-409" fill="#FFA412" points="192.871465 139 193.128535 139 193.128535 136 192.871465 136"></polygon><path d="M193.128535,136.010944 L193.128535,138.989056 C193.096762,138.995896 193.064989,139 193.032254,139 L192.871465,139 L192.871465,136 L193.032254,136 C193.064989,136 193.096762,136.004104 193.128535,136.010944" id="Fill-410" fill="#FFA412"></path><path d="M193.128535,136.25235 L193.128535,138.74906 C193.065952,138.861842 192.976411,138.950658 192.871465,139 L192.871465,136 C192.976411,136.049342 193.065952,136.139568 193.128535,136.25235" id="Fill-411" fill="#FFA412"></path><path d="M191,133.652828 L191,135.347172 C191,135.482664 190.95175,135.607208 190.869994,135.712591 C190.782877,135.82208 190.658232,135.908303 190.512144,135.956204 C190.467915,135.971259 190.421006,135.983577 190.372756,135.99042 C190.358013,135.991788 190.34327,135.994526 190.328527,135.995894 C190.320486,135.997263 190.312444,135.997263 190.304403,135.998631 C190.296361,135.998631 190.286979,135.998631 190.278938,136 C190.265535,136 190.252132,136 190.23873,136 L158.76127,136 C158.35517,136 158.021444,135.724909 158,135.381387 C158,135.370438 158,135.35812 158,135.347172 L158,133.652828 C158,133.64188 158,133.630931 158,133.619982 C158.00134,133.610401 158.00134,133.600821 158.002681,133.592609 C158.032166,133.314781 158.266713,133.087591 158.573633,133.020529 C158.580335,133.017792 158.589717,133.016423 158.596418,133.015055 C158.650028,133.005474 158.704979,133 158.76127,133 L190.23873,133 C190.261514,133 190.284299,133.001369 190.307083,133.002737 C190.316465,133.004106 190.327187,133.004106 190.337909,133.005474 C190.349972,133.006843 190.360694,133.008212 190.372756,133.010949 C190.421006,133.017792 190.467915,133.028741 190.512144,133.043796 C190.658232,133.091697 190.782877,133.17792 190.869994,133.288777 C190.95175,133.392792 191,133.517336 191,133.652828" id="Fill-412" fill="#FFB93E"></path><path d="M176,136 L158.697227,136 C158.325923,136 158.019253,135.724909 158,135.381387 C158,135.370438 158,135.35812 158,135.347172 L158,133.652828 C158,133.64188 158,133.630931 158,133.619982 C158.001375,133.610401 158.001375,133.600821 158.00275,133.592609 C158.030254,133.309307 158.254412,133.078011 158.543204,133.016423 C158.554206,133.013686 158.563832,133.012318 158.573459,133.010949 C158.613339,133.004106 158.654595,133 158.697227,133 L173.875315,133 C173.87669,133.006843 173.879441,133.013686 173.882191,133.020529 C174.126977,133.901916 174.692184,135.107664 175.993124,135.995894 C175.995874,135.997263 175.998625,135.998631 176,136" id="Fill-413" fill="#FFA412"></path><polygon id="Fill-414" fill="#FFA412" points="186.871465 136 187.128535 136 187.128535 133 186.871465 133"></polygon><polygon id="Fill-415" fill="#FFA412" points="185.871465 136 186.128535 136 186.128535 133 185.871465 133"></polygon><polygon id="Fill-416" fill="#FFA412" points="184.871465 136 185.128535 136 185.128535 133 184.871465 133"></polygon><polygon id="Fill-417" fill="#FFA412" points="182.871465 136 183.128535 136 183.128535 133 182.871465 133"></polygon><polygon id="Fill-418" fill="#FFA412" points="179.871465 136 180.128535 136 180.128535 133 179.871465 133"></polygon><polygon id="Fill-419" fill="#FFA412" points="175.871465 136 176.128535 136 176.128535 133 175.871465 133"></polygon><polygon id="Fill-420" fill="#FFA412" points="172.871465 136 173.128535 136 173.128535 133 172.871465 133"></polygon><polygon id="Fill-421" fill="#FFA412" points="169.871465 136 170.128535 136 170.128535 133 169.871465 133"></polygon><polygon id="Fill-422" fill="#FFA412" points="188.871465 136 189.128535 136 189.128535 133 188.871465 133"></polygon><polygon id="Fill-423" fill="#FFA412" points="188.871465 136 189.128535 136 189.128535 133 188.871465 133"></polygon><polygon id="Fill-424" fill="#FFA412" points="189.871465 136 190.128535 136 190.128535 133 189.871465 133"></polygon><path d="M191.128535,133.010949 L191.128535,135.99042 C191.097725,135.997263 191.064989,136 191.032254,136 L190.871465,136 L190.871465,133 L191.032254,133 C191.064989,133 191.097725,133.002737 191.128535,133.010949" id="Fill-425" fill="#FFA412"></path><path d="M191.128535,133.25235 L191.128535,135.74906 C191.065952,135.861842 190.976411,135.950658 190.871465,136 L190.871465,133 C190.976411,133.049342 191.065952,133.138158 191.128535,133.25235" id="Fill-426" fill="#FFA412"></path><path d="M191,130.652828 L191,132.347172 C191,132.482664 190.951752,132.607208 190.87,132.712591 C190.782886,132.82208 190.658246,132.908303 190.512163,132.956204 C190.477318,132.968522 190.439792,132.978102 190.403606,132.984945 L190.402266,132.984945 C190.392885,132.986314 190.382163,132.989051 190.372782,132.99042 C190.328555,132.997263 190.284328,133 190.238761,133 L158.76258,133 C158.729074,133 158.695569,132.998631 158.663404,132.994526 C158.651342,132.993157 158.63794,132.991788 158.625878,132.99042 C158.284125,132.937044 158.020103,132.685219 158.00134,132.381387 C158.00134,132.370438 158,132.35812 158,132.347172 L158,130.652828 C158,130.64188 158.00134,130.630931 158.00134,130.619982 C158.021443,130.275091 158.356496,130 158.76258,130 L190.238761,130 C190.258864,130 190.278967,130 190.29907,130.002737 C190.307111,130.002737 190.315152,130.002737 190.324534,130.004106 C190.333915,130.005474 190.343297,130.005474 190.352678,130.006843 C190.359379,130.008212 190.36608,130.00958 190.372782,130.010949 C190.421029,130.017792 190.467936,130.028741 190.512163,130.043796 C190.518864,130.046533 190.525566,130.047901 190.532267,130.050639 C190.537627,130.053376 190.544328,130.056113 190.55103,130.057482 C190.564432,130.062956 190.576494,130.068431 190.589896,130.073905 C190.603298,130.080748 190.6167,130.086223 190.630102,130.094434 C190.643504,130.099909 190.654226,130.106752 190.666288,130.113595 C190.67969,130.121807 190.693092,130.130018 190.705154,130.13823 C190.715875,130.145073 190.725257,130.151916 190.734638,130.158759 C190.735979,130.158759 190.735979,130.160128 190.737319,130.160128 C190.74268,130.165602 190.749381,130.169708 190.756082,130.175182 C190.776185,130.190237 190.793608,130.206661 190.81103,130.224453 C190.816391,130.228558 190.821752,130.234033 190.827113,130.239507 C190.831133,130.244982 190.836494,130.249088 190.840515,130.254562 C190.851237,130.265511 190.860618,130.27646 190.87,130.288777 C190.951752,130.392792 191,130.517336 191,130.652828" id="Fill-427" fill="#FFB93E"></path><path d="M176,133 L158.698549,133 C158.684798,133 158.671047,133 158.657296,133 C158.64217,132.998631 158.627044,132.997263 158.611917,132.995894 C158.280519,132.957573 158.019251,132.697536 158.001375,132.381387 C158.001375,132.370438 158,132.35812 158,132.347172 L158,130.652828 C158,130.64188 158.001375,130.630931 158.001375,130.619982 C158.020626,130.275091 158.325898,130 158.698549,130 L173.875477,130 C173.882353,130.024635 173.889228,130.04927 173.896104,130.073905 C174.147746,130.942974 174.708785,132.110401 175.968373,132.979471 C175.979374,132.986314 175.988999,132.993157 176,133" id="Fill-428" fill="#FFA412"></path><polygon id="Fill-429" fill="#FFA412" points="186.871465 133 187.128535 133 187.128535 130 186.871465 130"></polygon><polygon id="Fill-430" fill="#FFA412" points="185.871465 133 186.128535 133 186.128535 130 185.871465 130"></polygon><polygon id="Fill-431" fill="#FFA412" points="184.871465 133 185.128535 133 185.128535 130 184.871465 130"></polygon><polygon id="Fill-432" fill="#FFA412" points="181.871465 133 182.128535 133 182.128535 130 181.871465 130"></polygon><polygon id="Fill-433" fill="#FFA412" points="179.871465 133 180.128535 133 180.128535 130 179.871465 130"></polygon><polygon id="Fill-434" fill="#FFA412" points="175.871465 133 176.128535 133 176.128535 130 175.871465 130"></polygon><polygon id="Fill-435" fill="#FFA412" points="172.871465 133 173.128535 133 173.128535 130 172.871465 130"></polygon><polygon id="Fill-436" fill="#FFA412" points="169.871465 133 170.128535 133 170.128535 130 169.871465 130"></polygon><polygon id="Fill-437" fill="#FFA412" points="188.871465 133 189.128535 133 189.128535 130 188.871465 130"></polygon><polygon id="Fill-438" fill="#FFA412" points="188.871465 133 189.128535 133 189.128535 130 188.871465 130"></polygon><polygon id="Fill-439" fill="#FFA412" points="189.871465 133 190.128535 133 190.128535 130 189.871465 130"></polygon><path d="M191.128535,130.010944 L191.128535,132.989056 C191.096762,132.995896 191.064989,133 191.032254,133 L190.871465,133 L190.871465,130 L191.032254,130 C191.064989,130 191.096762,130.004104 191.128535,130.010944" id="Fill-440" fill="#FFA412"></path><path d="M191.128535,130.25235 L191.128535,132.74906 C191.066683,132.861842 190.976806,132.950658 190.871465,133 L190.871465,130 C190.976806,130.049342 191.066683,130.139568 191.128535,130.25235" id="Fill-441" fill="#FFA412"></path><path d="M193,127.653899 L193,129.347469 C193,129.481532 192.953091,129.607387 192.869994,129.711354 C192.782877,129.820793 192.658232,129.906977 192.512144,129.956224 C192.467915,129.971272 192.421006,129.982216 192.372756,129.989056 C192.329868,129.995896 192.284299,130 192.23873,130 L160.76127,130 C160.635286,130 160.516002,129.97264 160.410121,129.926129 C160.187637,129.826265 160.028146,129.633379 160.002681,129.410397 C160.00134,129.400821 160.00134,129.389877 160.00134,129.380301 C160,129.369357 160,129.358413 160,129.347469 L160,127.653899 C160,127.641587 160,127.630643 160.00134,127.619699 C160.021444,127.276334 160.35517,127 160.76127,127 L192.23873,127 C192.284299,127 192.329868,127.004104 192.372756,127.010944 C192.421006,127.017784 192.467915,127.030096 192.512144,127.045144 C192.658232,127.093023 192.782877,127.179207 192.869994,127.288646 C192.953091,127.392613 193,127.518468 193,127.653899" id="Fill-442" fill="#FFB93E"></path><path d="M177,130 L159.697227,130 C159.58171,130 159.471694,129.97264 159.37543,129.926129 C159.1719,129.826265 159.026129,129.633379 159.00275,129.410397 C159.001375,129.400821 159.001375,129.389877 159.001375,129.380301 C159,129.369357 159,129.358413 159,129.347469 L159,127.653899 C159,127.641587 159,127.630643 159.001375,127.619699 C159.019253,127.276334 159.325923,127 159.697227,127 L174.875315,127 C175.11185,127.859097 175.652303,129.038304 176.89411,129.926129 C176.929865,129.950752 176.964245,129.975376 177,130" id="Fill-443" fill="#FFA412"></path><polygon id="Fill-444" fill="#FFA412" points="188.871465 130 189.128535 130 189.128535 127 188.871465 127"></polygon><polygon id="Fill-445" fill="#FFA412" points="186.871465 130 187.128535 130 187.128535 127 186.871465 127"></polygon><polygon id="Fill-446" fill="#FFA412" points="186.871465 130 187.128535 130 187.128535 127 186.871465 127"></polygon><polygon id="Fill-447" fill="#FFA412" points="183.871465 130 184.128535 130 184.128535 127 183.871465 127"></polygon><polygon id="Fill-448" fill="#FFA412" points="181.871465 130 182.128535 130 182.128535 127 181.871465 127"></polygon><polygon id="Fill-449" fill="#FFA412" points="177.871465 130 178.128535 130 178.128535 127 177.871465 127"></polygon><polygon id="Fill-450" fill="#FFA412" points="174.871465 130 175.128535 130 175.128535 127 174.871465 127"></polygon><polygon id="Fill-451" fill="#FFA412" points="170.871465 130 171.128535 130 171.128535 127 170.871465 127"></polygon><polygon id="Fill-452" fill="#FFA412" points="189.871465 130 190.128535 130 190.128535 127 189.871465 127"></polygon><polygon id="Fill-453" fill="#FFA412" points="190.871465 130 191.128535 130 191.128535 127 190.871465 127"></polygon><polygon id="Fill-454" fill="#FFA412" points="191.871465 130 192.128535 130 192.128535 127 191.871465 127"></polygon><path d="M192.128535,127.010944 L192.128535,129.989056 C192.097725,129.995896 192.064989,130 192.032254,130 L191.871465,130 L191.871465,127 L192.032254,127 C192.064989,127 192.097725,127.004104 192.128535,127.010944" id="Fill-455" fill="#FFA412"></path><path d="M193.128535,127.25094 L193.128535,129.74765 C193.065952,129.860432 192.976411,129.949248 192.871465,130 L192.871465,127 C192.976411,127.049342 193.065952,127.138158 193.128535,127.25094" id="Fill-456" fill="#FFA412"></path><path d="M196,124.652828 L196,126.347172 C196,126.482664 195.951752,126.607208 195.868659,126.712591 C195.782886,126.82208 195.658246,126.908303 195.512163,126.956204 C195.466596,126.971259 195.419689,126.982208 195.372782,126.99042 C195.328555,126.997263 195.284328,127 195.23742,127 L163.761239,127 C163.355156,127 163.021443,126.724909 163.00134,126.381387 C163,126.370438 163,126.35812 163,126.347172 L163,124.652828 C163,124.64188 163,124.630931 163.00134,124.619982 C163.020103,124.301095 163.306908,124.041058 163.671445,124.004106 C163.70093,124.001369 163.731755,124 163.761239,124 L195.23742,124 C195.284328,124 195.328555,124.004106 195.372782,124.010949 C195.419689,124.017792 195.466596,124.028741 195.512163,124.043796 C195.658246,124.091697 195.782886,124.17792 195.868659,124.288777 C195.951752,124.392792 196,124.517336 196,124.652828" id="Fill-457" fill="#FFB93E"></path><path d="M180,127 L162.697173,127 C162.325898,127 162.020626,126.724909 162.001375,126.381387 C162,126.370438 162,126.35812 162,126.347172 L162,124.652828 C162,124.64188 162,124.630931 162.001375,124.619982 C162.017876,124.301095 162.281895,124.041058 162.614668,124.004106 C162.64217,124.001369 162.669672,124 162.697173,124 L177.875477,124 C177.875477,124.001369 177.875477,124.002737 177.875477,124.004106 C178.118869,124.88823 178.684034,126.106296 180,127" id="Fill-458" fill="#FFA412"></path><polygon id="Fill-459" fill="#FFA412" points="190.871465 127 191.128535 127 191.128535 124 190.871465 124"></polygon><polygon id="Fill-460" fill="#FFA412" points="190.871465 127 191.128535 127 191.128535 124 190.871465 124"></polygon><polygon id="Fill-461" fill="#FFA412" points="188.871465 127 189.128535 127 189.128535 124 188.871465 124"></polygon><polygon id="Fill-462" fill="#FFA412" points="186.871465 127 187.128535 127 187.128535 124 186.871465 124"></polygon><polygon id="Fill-463" fill="#FFA412" points="183.871465 127 184.128535 127 184.128535 124 183.871465 124"></polygon><polygon id="Fill-464" fill="#FFA412" points="180.871465 127 181.128535 127 181.128535 124 180.871465 124"></polygon><polygon id="Fill-465" fill="#FFA412" points="176.871465 127 177.128535 127 177.128535 124 176.871465 124"></polygon><polygon id="Fill-466" fill="#FFA412" points="173.871465 127 174.128535 127 174.128535 124 173.871465 124"></polygon><polygon id="Fill-467" fill="#FFA412" points="192.871465 127 193.128535 127 193.128535 124 192.871465 124"></polygon><polygon id="Fill-468" fill="#FFA412" points="192.871465 127 193.128535 127 193.128535 124 192.871465 124"></polygon><polygon id="Fill-469" fill="#FFA412" points="193.871465 127 194.128535 127 194.128535 124 193.871465 124"></polygon><path d="M195.128535,124.010949 L195.128535,126.99042 C195.096762,126.997263 195.064989,127 195.031291,127 L194.871465,127 L194.871465,124 L195.031291,124 C195.064989,124 195.096762,124.002737 195.128535,124.010949" id="Fill-470" fill="#FFA412"></path><path d="M195.128535,124.25235 L195.128535,126.74906 C195.066683,126.861842 194.976806,126.950658 194.871465,127 L194.871465,124 C194.976806,124.049342 195.066683,124.138158 195.128535,124.25235" id="Fill-471" fill="#FFA412"></path><path d="M191,121.652828 L191,123.347172 C191,123.482664 190.95175,123.607208 190.869994,123.711223 C190.782877,123.82208 190.658232,123.908303 190.512144,123.956204 C190.467915,123.971259 190.421006,123.982208 190.372756,123.99042 C190.358013,123.991788 190.34327,123.994526 190.328527,123.995894 C190.316465,123.997263 190.305743,123.997263 190.29368,123.998631 C190.286979,123.998631 190.281618,124 190.276257,124 C190.264195,124 190.250792,124 190.23873,124 L158.76127,124 C158.35517,124 158.021444,123.724909 158,123.381387 C158,123.369069 158,123.35812 158,123.347172 L158,121.652828 C158,121.64188 158,121.630931 158,121.618613 C158.021444,121.275091 158.35517,121 158.76127,121 L190.23873,121 C190.252132,121 190.265535,121 190.278938,121.001369 C190.311104,121.002737 190.34193,121.005474 190.372756,121.00958 C190.421006,121.017792 190.467915,121.028741 190.512144,121.043796 C190.534928,121.050639 190.557713,121.05885 190.577817,121.068431 C190.592559,121.075274 190.604622,121.080748 190.618025,121.086223 C190.619365,121.087591 190.620705,121.087591 190.622045,121.08896 C190.635448,121.095803 190.64751,121.102646 190.659573,121.109489 C190.662253,121.110858 190.664934,121.112226 190.666274,121.113595 C190.678336,121.120438 190.689059,121.127281 190.699781,121.134124 C190.727926,121.151916 190.753391,121.171077 190.776176,121.191606 C190.784217,121.19708 190.790919,121.203923 190.79762,121.210766 C190.79896,121.212135 190.800301,121.212135 190.801641,121.213504 C190.805662,121.217609 190.811023,121.221715 190.815043,121.225821 C190.815043,121.22719 190.816384,121.228558 190.817724,121.228558 C190.824425,121.23677 190.832467,121.244982 190.839168,121.253193 C190.84989,121.264142 190.860612,121.275091 190.869994,121.287409 C190.95175,121.392792 191,121.517336 191,121.652828" id="Fill-472" fill="#FFB93E"></path><path d="M176,124 L158.697227,124 C158.325923,124 158.019253,123.724909 158,123.381387 C158,123.369069 158,123.35812 158,123.347172 L158,121.652828 C158,121.64188 158,121.630931 158,121.618613 C158.019253,121.275091 158.325923,121 158.697227,121 L173.875315,121 C173.882191,121.021898 173.887692,121.045164 173.895943,121.068431 C174.147605,121.944343 174.715563,123.124088 175.993124,123.995894 C175.995874,123.997263 175.998625,123.998631 176,124" id="Fill-473" fill="#FFA412"></path><polygon id="Fill-474" fill="#FFA412" points="186.871465 124 187.128535 124 187.128535 121 186.871465 121"></polygon><polygon id="Fill-475" fill="#FFA412" points="185.871465 124 186.128535 124 186.128535 121 185.871465 121"></polygon><polygon id="Fill-476" fill="#FFA412" points="184.871465 124 185.128535 124 185.128535 121 184.871465 121"></polygon><polygon id="Fill-477" fill="#FFA412" points="182.871465 124 183.128535 124 183.128535 121 182.871465 121"></polygon><polygon id="Fill-478" fill="#FFA412" points="179.871465 124 180.128535 124 180.128535 121 179.871465 121"></polygon><polygon id="Fill-479" fill="#FFA412" points="175.871465 124 176.128535 124 176.128535 121 175.871465 121"></polygon><polygon id="Fill-480" fill="#FFA412" points="172.871465 124 173.128535 124 173.128535 121 172.871465 121"></polygon><polygon id="Fill-481" fill="#FFA412" points="169.871465 124 170.128535 124 170.128535 121 169.871465 121"></polygon><polygon id="Fill-482" fill="#FFA412" points="188.871465 124 189.128535 124 189.128535 121 188.871465 121"></polygon><polygon id="Fill-483" fill="#FFA412" points="188.871465 124 189.128535 124 189.128535 121 188.871465 121"></polygon><polygon id="Fill-484" fill="#FFA412" points="189.871465 124 190.128535 124 190.128535 121 189.871465 121"></polygon><path d="M191.128535,121.00958 L191.128535,123.99042 C191.097725,123.997263 191.064989,124 191.032254,124 L190.871465,124 L190.871465,121 L191.032254,121 C191.064989,121 191.097725,121.002737 191.128535,121.00958" id="Fill-485" fill="#FFA412"></path><path d="M191.128535,121.25094 L191.128535,123.74765 C191.065952,123.861842 190.976411,123.950658 190.871465,124 L190.871465,121 C190.976411,121.049342 191.065952,121.138158 191.128535,121.25094" id="Fill-486" fill="#FFA412"></path><path d="M193,118.652828 L193,120.347172 C193,120.482664 192.951752,120.607208 192.87,120.712591 C192.782886,120.82208 192.658246,120.908303 192.512163,120.956204 C192.467936,120.971259 192.421029,120.982208 192.372782,120.99042 C192.328555,120.997263 192.284328,121 192.238761,121 L160.76258,121 C160.640621,121 160.524022,120.975365 160.422166,120.931569 C160.19299,120.833029 160.028144,120.635949 160.004021,120.407391 C160.00268,120.399179 160.00134,120.389599 160.00134,120.381387 C160.00134,120.369069 160,120.35812 160,120.347172 L160,118.652828 C160,118.64188 160.00134,118.630931 160.00134,118.618613 C160.020103,118.301095 160.308248,118.041058 160.671445,118.004106 C160.70093,118.001369 160.731755,118 160.76258,118 L192.238761,118 C192.284328,118 192.328555,118.002737 192.372782,118.00958 C192.421029,118.017792 192.467936,118.028741 192.512163,118.043796 C192.658246,118.091697 192.782886,118.17792 192.87,118.288777 C192.951752,118.392792 193,118.517336 193,118.652828" id="Fill-487" fill="#FFB93E"></path><path d="M178,121 L160.698549,121 C160.585791,121 160.479908,120.975365 160.386402,120.931569 C160.176012,120.833029 160.026127,120.635949 160.004125,120.407391 C160.00275,120.399179 160.001375,120.389599 160.001375,120.381387 C160.001375,120.369069 160,120.35812 160,120.347172 L160,118.652828 C160,118.64188 160.001375,118.630931 160.001375,118.618613 C160.019251,118.301095 160.281895,118.041058 160.616043,118.004106 C160.64217,118.001369 160.669672,118 160.698549,118 L175.875477,118 C175.875477,118.001369 175.876853,118.002737 175.876853,118.004106 C176.113369,118.864964 176.656532,120.044708 177.900993,120.931569 C177.93262,120.954836 177.966998,120.978102 178,121" id="Fill-488" fill="#FFA412"></path><polygon id="Fill-489" fill="#FFA412" points="189.871465 121 190.128535 121 190.128535 118 189.871465 118"></polygon><polygon id="Fill-490" fill="#FFA412" points="188.871465 121 189.128535 121 189.128535 118 188.871465 118"></polygon><polygon id="Fill-491" fill="#FFA412" points="186.871465 121 187.128535 121 187.128535 118 186.871465 118"></polygon><polygon id="Fill-492" fill="#FFA412" points="184.871465 121 185.128535 121 185.128535 118 184.871465 118"></polygon><polygon id="Fill-493" fill="#FFA412" points="182.871465 121 183.128535 121 183.128535 118 182.871465 118"></polygon><polygon id="Fill-494" fill="#FFA412" points="178.871465 121 179.128535 121 179.128535 118 178.871465 118"></polygon><polygon id="Fill-495" fill="#FFA412" points="174.871465 121 175.128535 121 175.128535 118 174.871465 118"></polygon><polygon id="Fill-496" fill="#FFA412" points="171.871465 121 172.128535 121 172.128535 118 171.871465 118"></polygon><polygon id="Fill-497" fill="#FFA412" points="190.871465 121 191.128535 121 191.128535 118 190.871465 118"></polygon><polygon id="Fill-498" fill="#FFA412" points="191.871465 121 192.128535 121 192.128535 118 191.871465 118"></polygon><polygon id="Fill-499" fill="#FFA412" points="192.871465 121 193.128535 121 193.128535 118 192.871465 118"></polygon><path d="M193.128535,118.00958 L193.128535,120.99042 C193.096762,120.997263 193.064989,121 193.032254,121 L192.871465,121 L192.871465,118 L193.032254,118 C193.064989,118 193.096762,118.002737 193.128535,118.00958" id="Fill-500" fill="#FFA412"></path><path d="M193.128535,118.25094 L193.128535,120.74765 C193.065952,120.861842 192.976411,120.950658 192.871465,121 L192.871465,118 C192.976411,118.049342 193.065952,118.138158 193.128535,118.25094" id="Fill-501" fill="#FFA412"></path><path d="M195,115.652828 L195,117.347172 C195,117.482664 194.951752,117.607208 194.87,117.711223 C194.782886,117.82208 194.658246,117.908303 194.512163,117.956204 C194.467936,117.971259 194.421029,117.982208 194.372782,117.99042 C194.358039,117.991788 194.343297,117.994526 194.328555,117.995894 C194.320513,117.995894 194.312472,117.997263 194.303091,117.997263 C194.295049,117.998631 194.287008,117.998631 194.278967,117.998631 C194.265565,118 194.252163,118 194.238761,118 L162.76258,118 C162.356496,118 162.022784,117.724909 162.00134,117.381387 C162.00134,117.369069 162,117.35812 162,117.347172 L162,115.652828 C162,115.64188 162.00134,115.630931 162.00134,115.618613 C162.022784,115.275091 162.356496,115 162.76258,115 L194.238761,115 C194.284328,115 194.328555,115.002737 194.372782,115.00958 C194.421029,115.017792 194.467936,115.028741 194.512163,115.043796 C194.658246,115.091697 194.782886,115.17792 194.87,115.287409 C194.951752,115.392792 195,115.517336 195,115.652828" id="Fill-502" fill="#FFB93E"></path><path d="M179,118 L161.698549,118 C161.327273,118 161.020626,117.724909 161.001375,117.381387 C161.001375,117.369069 161,117.35812 161,117.347172 L161,115.652828 C161,115.64188 161.001375,115.630931 161.001375,115.618613 C161.020626,115.275091 161.327273,115 161.698549,115 L176.875477,115 C177.117494,115.881387 177.679908,117.100821 178.993125,117.995894 C178.995875,117.997263 178.99725,117.998631 179,118" id="Fill-503" fill="#FFA412"></path><polygon id="Fill-504" fill="#FFA412" points="190.871465 118 191.128535 118 191.128535 115 190.871465 115"></polygon><polygon id="Fill-505" fill="#FFA412" points="188.871465 118 189.128535 118 189.128535 115 188.871465 115"></polygon><polygon id="Fill-506" fill="#FFA412" points="187.871465 118 188.128535 118 188.128535 115 187.871465 115"></polygon><polygon id="Fill-507" fill="#FFA412" points="185.871465 118 186.128535 118 186.128535 115 185.871465 115"></polygon><polygon id="Fill-508" fill="#FFA412" points="182.871465 118 183.128535 118 183.128535 115 182.871465 115"></polygon><polygon id="Fill-509" fill="#FFA412" points="179.871465 118 180.128535 118 180.128535 115 179.871465 115"></polygon><polygon id="Fill-510" fill="#FFA412" points="175.871465 118 176.128535 118 176.128535 115 175.871465 115"></polygon><polygon id="Fill-511" fill="#FFA412" points="172.871465 118 173.128535 118 173.128535 115 172.871465 115"></polygon><polygon id="Fill-512" fill="#FFA412" points="191.871465 118 192.128535 118 192.128535 115 191.871465 115"></polygon><polygon id="Fill-513" fill="#FFA412" points="192.871465 118 193.128535 118 193.128535 115 192.871465 115"></polygon><polygon id="Fill-514" fill="#FFA412" points="192.871465 118 193.128535 118 193.128535 115 192.871465 115"></polygon><path d="M194.128535,115.00958 L194.128535,117.99042 C194.096762,117.997263 194.064989,118 194.032254,118 L193.871465,118 L193.871465,115 L194.032254,115 C194.064989,115 194.096762,115.002737 194.128535,115.00958" id="Fill-515" fill="#FFA412"></path><path d="M195.128535,115.25094 L195.128535,117.74765 C195.065952,117.861842 194.976411,117.950658 194.871465,118 L194.871465,115 C194.976411,115.049342 195.065952,115.138158 195.128535,115.25094" id="Fill-516" fill="#FFA412"></path><path d="M196,112.652531 L196,114.347469 C196,114.481532 195.951752,114.607387 195.868659,114.711354 C195.782886,114.820793 195.658246,114.906977 195.512163,114.954856 C195.466596,114.971272 195.419689,114.982216 195.372782,114.989056 C195.328555,114.995896 195.284328,115 195.23742,115 L163.761239,115 C163.355156,115 163.021443,114.723666 163.00134,114.380301 C163,114.369357 163,114.358413 163,114.347469 L163,112.652531 C163,112.641587 163,112.630643 163.00134,112.619699 C163.020103,112.302326 163.306908,112.042408 163.671445,112.004104 C163.70093,112.001368 163.731755,112 163.761239,112 L195.23742,112 C195.284328,112 195.328555,112.004104 195.372782,112.010944 C195.419689,112.017784 195.466596,112.028728 195.512163,112.043776 C195.658246,112.093023 195.782886,112.179207 195.868659,112.288646 C195.951752,112.392613 196,112.518468 196,112.652531" id="Fill-517" fill="#FFB93E"></path><path d="M180,115 L162.697173,115 C162.325898,115 162.020626,114.723666 162.001375,114.380301 C162,114.369357 162,114.358413 162,114.347469 L162,112.652531 C162,112.641587 162,112.630643 162.001375,112.619699 C162.017876,112.302326 162.281895,112.042408 162.614668,112.004104 C162.64217,112.001368 162.669672,112 162.697173,112 L177.875477,112 C177.875477,112.001368 177.875477,112.002736 177.875477,112.004104 C178.118869,112.887825 178.684034,114.105335 180,115" id="Fill-518" fill="#FFA412"></path><polygon id="Fill-519" fill="#FFA412" points="190.871465 115 191.128535 115 191.128535 112 190.871465 112"></polygon><polygon id="Fill-520" fill="#FFA412" points="190.871465 115 191.128535 115 191.128535 112 190.871465 112"></polygon><polygon id="Fill-521" fill="#FFA412" points="188.871465 115 189.128535 115 189.128535 112 188.871465 112"></polygon><polygon id="Fill-522" fill="#FFA412" points="186.871465 115 187.128535 115 187.128535 112 186.871465 112"></polygon><polygon id="Fill-523" fill="#FFA412" points="183.871465 115 184.128535 115 184.128535 112 183.871465 112"></polygon><polygon id="Fill-524" fill="#FFA412" points="180.871465 115 181.128535 115 181.128535 112 180.871465 112"></polygon><polygon id="Fill-525" fill="#FFA412" points="176.871465 115 177.128535 115 177.128535 112 176.871465 112"></polygon><polygon id="Fill-526" fill="#FFA412" points="173.871465 115 174.128535 115 174.128535 112 173.871465 112"></polygon><polygon id="Fill-527" fill="#FFA412" points="192.871465 115 193.128535 115 193.128535 112 192.871465 112"></polygon><polygon id="Fill-528" fill="#FFA412" points="192.871465 115 193.128535 115 193.128535 112 192.871465 112"></polygon><polygon id="Fill-529" fill="#FFA412" points="193.871465 115 194.128535 115 194.128535 112 193.871465 112"></polygon><path d="M195.128535,112.010944 L195.128535,114.989056 C195.096762,114.995896 195.064989,115 195.031291,115 L194.871465,115 L194.871465,112 L195.031291,112 C195.064989,112 195.096762,112.004104 195.128535,112.010944" id="Fill-530" fill="#FFA412"></path><path d="M195.128535,112.25235 L195.128535,114.74906 C195.066683,114.861842 194.976806,114.950658 194.871465,115 L194.871465,112 C194.976806,112.050752 195.066683,112.139568 195.128535,112.25235" id="Fill-531" fill="#FFA412"></path><path d="M191,109.652828 L191,111.347172 C191,111.482664 190.95175,111.607208 190.869994,111.712591 C190.782877,111.82208 190.658232,111.908303 190.512144,111.956204 C190.467915,111.971259 190.421006,111.983577 190.372756,111.99042 C190.358013,111.991788 190.34327,111.994526 190.328527,111.995894 C190.316465,111.997263 190.305743,111.998631 190.29368,111.998631 C190.286979,111.998631 190.281618,112 190.276257,112 C190.264195,112 190.250792,112 190.23873,112 L158.76127,112 C158.35517,112 158.021444,111.724909 158,111.381387 C158,111.370438 158,111.35812 158,111.347172 L158,109.652828 C158,109.64188 158,109.630931 158,109.619982 C158.021444,109.275091 158.35517,109 158.76127,109 L190.23873,109 C190.252132,109 190.265535,109 190.278938,109.001369 C190.311104,109.002737 190.34193,109.005474 190.372756,109.010949 C190.421006,109.017792 190.467915,109.028741 190.512144,109.043796 C190.534928,109.052007 190.557713,109.060219 190.577817,109.069799 C190.592559,109.075274 190.604622,109.080748 190.618025,109.087591 C190.619365,109.087591 190.620705,109.08896 190.622045,109.08896 C190.635448,109.095803 190.64751,109.102646 190.659573,109.109489 C190.662253,109.110858 190.664934,109.112226 190.666274,109.113595 C190.678336,109.120438 190.689059,109.127281 190.699781,109.135493 C190.727926,109.151916 190.753391,109.171077 190.776176,109.191606 C190.784217,109.19708 190.790919,109.203923 190.79762,109.210766 C190.79896,109.212135 190.800301,109.213504 190.801641,109.214872 C190.805662,109.217609 190.811023,109.221715 190.815043,109.22719 C190.815043,109.22719 190.816384,109.228558 190.817724,109.228558 C190.824425,109.23677 190.832467,109.244982 190.839168,109.253193 C190.84989,109.264142 190.860612,109.27646 190.869994,109.288777 C190.95175,109.392792 191,109.517336 191,109.652828" id="Fill-532" fill="#FFB93E"></path><path d="M176,112 L158.697227,112 C158.325923,112 158.019253,111.724909 158,111.381387 C158,111.370438 158,111.35812 158,111.347172 L158,109.652828 C158,109.64188 158,109.630931 158,109.619982 C158.019253,109.275091 158.325923,109 158.697227,109 L173.875315,109 C173.882191,109.023266 173.887692,109.045164 173.895943,109.069799 C174.147605,109.944343 174.715563,111.124088 175.993124,111.995894 C175.995874,111.997263 175.998625,111.998631 176,112" id="Fill-533" fill="#FFA412"></path><polygon id="Fill-534" fill="#FFA412" points="186.871465 112 187.128535 112 187.128535 109 186.871465 109"></polygon><polygon id="Fill-535" fill="#FFA412" points="185.871465 112 186.128535 112 186.128535 109 185.871465 109"></polygon><polygon id="Fill-536" fill="#FFA412" points="184.871465 112 185.128535 112 185.128535 109 184.871465 109"></polygon><polygon id="Fill-537" fill="#FFA412" points="182.871465 112 183.128535 112 183.128535 109 182.871465 109"></polygon><polygon id="Fill-538" fill="#FFA412" points="179.871465 112 180.128535 112 180.128535 109 179.871465 109"></polygon><polygon id="Fill-539" fill="#FFA412" points="175.871465 112 176.128535 112 176.128535 109 175.871465 109"></polygon><polygon id="Fill-540" fill="#FFA412" points="172.871465 112 173.128535 112 173.128535 109 172.871465 109"></polygon><polygon id="Fill-541" fill="#FFA412" points="169.871465 112 170.128535 112 170.128535 109 169.871465 109"></polygon><polygon id="Fill-542" fill="#FFA412" points="188.871465 112 189.128535 112 189.128535 109 188.871465 109"></polygon><polygon id="Fill-543" fill="#FFA412" points="188.871465 112 189.128535 112 189.128535 109 188.871465 109"></polygon><polygon id="Fill-544" fill="#FFA412" points="189.871465 112 190.128535 112 190.128535 109 189.871465 109"></polygon><path d="M191.128535,109.010949 L191.128535,111.99042 C191.097725,111.997263 191.064989,112 191.032254,112 L190.871465,112 L190.871465,109 L191.032254,109 C191.064989,109 191.097725,109.004106 191.128535,109.010949" id="Fill-545" fill="#FFA412"></path><path d="M191.128535,109.25235 L191.128535,111.74906 C191.065952,111.861842 190.976411,111.950658 190.871465,112 L190.871465,109 C190.976411,109.049342 191.065952,109.138158 191.128535,109.25235" id="Fill-546" fill="#FFA412"></path><path d="M193,106.652531 L193,108.346101 C193,108.481532 192.951752,108.607387 192.87,108.711354 C192.782886,108.820793 192.658246,108.906977 192.512163,108.954856 C192.467936,108.971272 192.421029,108.982216 192.372782,108.989056 C192.328555,108.995896 192.284328,109 192.238761,109 L160.76258,109 C160.640621,109 160.524022,108.974008 160.422166,108.930233 C160.19299,108.831737 160.028144,108.636115 160.004021,108.406293 C160.00268,108.398085 160.00134,108.389877 160.00134,108.380301 C160.00134,108.369357 160,108.358413 160,108.346101 L160,106.652531 C160,106.641587 160.00134,106.630643 160.00134,106.619699 C160.020103,106.300958 160.308248,106.042408 160.671445,106.004104 C160.70093,106.001368 160.731755,106 160.76258,106 L192.238761,106 C192.284328,106 192.328555,106.004104 192.372782,106.010944 C192.421029,106.017784 192.467936,106.028728 192.512163,106.043776 C192.658246,106.093023 192.782886,106.179207 192.87,106.288646 C192.951752,106.392613 193,106.518468 193,106.652531" id="Fill-547" fill="#FFB93E"></path><path d="M178,109 L160.698549,109 C160.585791,109 160.479908,108.974008 160.386402,108.930233 C160.176012,108.831737 160.026127,108.636115 160.004125,108.406293 C160.00275,108.398085 160.001375,108.389877 160.001375,108.380301 C160.001375,108.369357 160,108.358413 160,108.346101 L160,106.652531 C160,106.641587 160.001375,106.630643 160.001375,106.619699 C160.019251,106.302326 160.281895,106.042408 160.616043,106.004104 C160.64217,106.001368 160.669672,106 160.698549,106 L175.875477,106 C175.875477,106.001368 175.876853,106.002736 175.876853,106.004104 C176.113369,106.864569 176.656532,108.043776 177.900993,108.930233 C177.93262,108.953488 177.966998,108.976744 178,109" id="Fill-548" fill="#FFA412"></path><polygon id="Fill-549" fill="#FFA412" points="189.871465 109 190.128535 109 190.128535 106 189.871465 106"></polygon><polygon id="Fill-550" fill="#FFA412" points="188.871465 109 189.128535 109 189.128535 106 188.871465 106"></polygon><polygon id="Fill-551" fill="#FFA412" points="186.871465 109 187.128535 109 187.128535 106 186.871465 106"></polygon><polygon id="Fill-552" fill="#FFA412" points="184.871465 109 185.128535 109 185.128535 106 184.871465 106"></polygon><polygon id="Fill-553" fill="#FFA412" points="182.871465 109 183.128535 109 183.128535 106 182.871465 106"></polygon><polygon id="Fill-554" fill="#FFA412" points="178.871465 109 179.128535 109 179.128535 106 178.871465 106"></polygon><polygon id="Fill-555" fill="#FFA412" points="174.871465 109 175.128535 109 175.128535 106 174.871465 106"></polygon><polygon id="Fill-556" fill="#FFA412" points="171.871465 109 172.128535 109 172.128535 106 171.871465 106"></polygon><polygon id="Fill-557" fill="#FFA412" points="190.871465 109 191.128535 109 191.128535 106 190.871465 106"></polygon><polygon id="Fill-558" fill="#FFA412" points="191.871465 109 192.128535 109 192.128535 106 191.871465 106"></polygon><polygon id="Fill-559" fill="#FFA412" points="192.871465 109 193.128535 109 193.128535 106 192.871465 106"></polygon><path d="M193.128535,106.010949 L193.128535,108.99042 C193.096762,108.997263 193.064989,109 193.032254,109 L192.871465,109 L192.871465,106 L193.032254,106 C193.064989,106 193.096762,106.004106 193.128535,106.010949" id="Fill-560" fill="#FFA412"></path><path d="M193.128535,107.25235 L193.128535,109.74906 C193.065952,109.861842 192.976411,109.950658 192.871465,110 L192.871465,107 C192.976411,107.049342 193.065952,107.138158 193.128535,107.25235" id="Fill-561" fill="#FFA412"></path><path d="M195,104.652828 L195,106.347172 C195,106.482664 194.951752,106.607208 194.87,106.712591 C194.782886,106.82208 194.658246,106.908303 194.512163,106.956204 C194.467936,106.971259 194.421029,106.983577 194.372782,106.99042 C194.358039,106.991788 194.343297,106.994526 194.328555,106.995894 C194.320513,106.997263 194.312472,106.997263 194.303091,106.998631 C194.295049,106.998631 194.287008,106.998631 194.278967,107 C194.265565,107 194.252163,107 194.238761,107 L162.76258,107 C162.356496,107 162.022784,106.724909 162.00134,106.381387 C162.00134,106.370438 162,106.35812 162,106.347172 L162,104.652828 C162,104.64188 162.00134,104.630931 162.00134,104.618613 C162.022784,104.275091 162.356496,104 162.76258,104 L194.238761,104 C194.284328,104 194.328555,104.002737 194.372782,104.010949 C194.421029,104.017792 194.467936,104.028741 194.512163,104.043796 C194.658246,104.091697 194.782886,104.17792 194.87,104.288777 C194.951752,104.392792 195,104.517336 195,104.652828" id="Fill-562" fill="#FFB93E"></path><path d="M179,107 L161.698549,107 C161.327273,107 161.020626,106.724909 161.001375,106.381387 C161.001375,106.370438 161,106.35812 161,106.347172 L161,104.652828 C161,104.64188 161.001375,104.630931 161.001375,104.618613 C161.020626,104.275091 161.327273,104 161.698549,104 L176.875477,104 C177.117494,104.881387 177.679908,106.100821 178.993125,106.995894 C178.995875,106.997263 178.99725,106.998631 179,107" id="Fill-563" fill="#FFA412"></path><polygon id="Fill-564" fill="#FFA412" points="190.871465 107 191.128535 107 191.128535 104 190.871465 104"></polygon><polygon id="Fill-565" fill="#FFA412" points="188.871465 107 189.128535 107 189.128535 104 188.871465 104"></polygon><polygon id="Fill-566" fill="#FFA412" points="187.871465 107 188.128535 107 188.128535 104 187.871465 104"></polygon><polygon id="Fill-567" fill="#FFA412" points="185.871465 107 186.128535 107 186.128535 104 185.871465 104"></polygon><polygon id="Fill-568" fill="#FFA412" points="182.871465 107 183.128535 107 183.128535 104 182.871465 104"></polygon><polygon id="Fill-569" fill="#FFA412" points="179.871465 107 180.128535 107 180.128535 104 179.871465 104"></polygon><polygon id="Fill-570" fill="#FFA412" points="175.871465 107 176.128535 107 176.128535 104 175.871465 104"></polygon><polygon id="Fill-571" fill="#FFA412" points="172.871465 107 173.128535 107 173.128535 104 172.871465 104"></polygon><polygon id="Fill-572" fill="#FFA412" points="191.871465 107 192.128535 107 192.128535 104 191.871465 104"></polygon><polygon id="Fill-573" fill="#FFA412" points="192.871465 107 193.128535 107 193.128535 104 192.871465 104"></polygon><polygon id="Fill-574" fill="#FFA412" points="192.871465 107 193.128535 107 193.128535 104 192.871465 104"></polygon><path d="M194.128535,104.00958 L194.128535,106.99042 C194.096762,106.997263 194.064989,107 194.032254,107 L193.871465,107 L193.871465,104 L194.032254,104 C194.064989,104 194.096762,104.002737 194.128535,104.00958" id="Fill-575" fill="#FFA412"></path><path d="M195.128535,103.25235 L195.128535,105.74906 C195.065952,105.861842 194.976411,105.950658 194.871465,106 L194.871465,103 C194.976411,103.049342 195.065952,103.138158 195.128535,103.25235" id="Fill-576" fill="#FFA412"></path><path d="M160,82.999317 C160,71.9546122 168.954918,63 180,63 C191.046448,63 200,71.9546122 200,82.999317 C200,94.0453878 191.046448,103 180,103 C168.954918,103 160,94.0453878 160,82.999317" id="Fill-577" fill="#E2810E"></path><path d="M158,82.999317 C158,71.9546122 166.953552,63 178,63 C189.045082,63 198,71.9546122 198,82.999317 C198,94.0453878 189.045082,103 178,103 C166.953552,103 158,94.0453878 158,82.999317" id="Fill-578" fill="#FFB93E"></path><path d="M178,66.0728343 C168.667366,66.0728343 161.074143,73.6663418 161.074143,82.9993253 C161.074143,92.3336582 168.667366,99.9258162 178,99.9258162 C187.332634,99.9258162 194.925857,92.3336582 194.925857,82.9993253 C194.925857,73.6663418 187.332634,66.0728343 178,66.0728343 Z M178,101 C173.191993,101 168.671415,99.1282753 165.272209,95.7275931 C161.871655,92.3282603 160,87.8075121 160,82.9993253 C160,78.1911384 161.871655,73.6717397 165.272209,70.2710575 C168.671415,66.8717247 173.191993,65 178,65 C182.808007,65 187.327236,66.8717247 190.727791,70.2710575 C194.126996,73.6717397 196,78.1911384 196,82.9993253 C196,87.8075121 194.126996,92.3282603 190.727791,95.7275931 C187.327236,99.1282753 182.808007,101 178,101 L178,101 Z" id="Fill-579" fill="#FFA412"></path><path d="M180.518228,88.7862394 C180.564805,88.3919789 180.551106,88.0387872 180.47576,87.7252953 C180.400415,87.4118035 180.249724,87.118846 180.026427,86.845054 C179.803131,86.571262 179.504489,86.3084216 179.129131,86.0537951 C178.755144,85.8005374 178.292111,85.541804 177.740035,85.2762257 C176.790682,84.8121483 175.934483,84.341226 175.171439,83.8661968 C174.408395,83.3911677 173.768643,82.8709628 173.252184,82.3055823 C172.735726,81.7402018 172.357628,81.1050043 172.119263,80.4027278 C171.879527,79.6990823 171.813771,78.887289 171.923364,77.9687167 C172.017889,77.171982 172.245295,76.4614917 172.606953,75.8386148 C172.967242,75.2171069 173.439863,74.6927952 174.022078,74.2670486 C174.605663,73.841302 175.281032,73.5195964 176.049556,73.3019318 C176.81808,73.0842671 177.661949,72.9870709 178.581164,73.0103433 L178.938713,70 L181.363467,70.2874816 L181.000439,73.3402626 C181.855267,73.5551894 182.615571,73.878264 183.282721,74.3094864 C183.948501,74.7393399 184.495098,75.2609137 184.925253,75.8728388 C185.354037,76.484764 185.658159,77.1843026 185.836248,77.9714546 C186.012967,78.7572377 186.047215,79.6196826 185.936252,80.5574203 L181.556625,80.0385844 C181.690877,78.9132992 181.540186,78.0412716 181.107292,77.4238706 C180.673028,76.8078386 180.037386,76.449171 179.198997,76.3492369 C178.744184,76.2958475 178.345538,76.312275 178.001689,76.3998885 C177.659209,76.4875019 177.367417,76.6298738 177.129051,76.8242661 C176.890686,77.0200274 176.704377,77.2609644 176.567385,77.5498149 C176.430393,77.8372966 176.341349,78.1548953 176.300251,78.5026112 C176.259154,78.8489581 176.272853,79.1692947 176.339979,79.4622522 C176.407105,79.7552097 176.550946,80.0358465 176.770133,80.3055316 C176.98932,80.5724788 177.290702,80.8366881 177.674279,81.0967905 C178.059225,81.355524 178.540067,81.6347919 179.119542,81.9304872 C180.056565,82.4123612 180.903174,82.8942352 181.660739,83.3733712 C182.418303,83.8525072 183.055315,84.3781879 183.570404,84.9476753 C184.086863,85.5171627 184.46496,86.1550981 184.703326,86.8573746 C184.943062,87.5610201 185.008818,88.3673376 184.900594,89.2776961 C184.80196,90.1018101 184.570444,90.82599 184.204676,91.4474978 C183.838908,92.0703747 183.364916,92.5892106 182.782701,93.0053744 C182.200486,93.4215383 181.521007,93.7309233 180.744264,93.9335294 C179.967521,94.1361355 179.119542,94.2251179 178.200327,94.2018456 L177.868807,97 L175.459122,96.7152563 L175.789272,93.9307915 C174.961842,93.7459818 174.172769,93.4680829 173.423424,93.0929879 C172.674079,92.7192618 172.027478,92.231912 171.484991,91.6295695 C170.941133,91.0285961 170.535638,90.3030472 170.268504,89.452923 C170,88.6041677 169.932874,87.6171475 170.067126,86.4918623 L174.445383,87.0106982 C174.365927,87.6760128 174.393326,88.2427623 174.527578,88.7109466 C174.66183,89.177762 174.868687,89.5638088 175.15089,89.8677179 C175.431723,90.172996 175.765983,90.4029813 176.1523,90.5576738 C176.538617,90.7123663 176.938633,90.8150383 177.352348,90.8629519 C177.827709,90.9204482 178.251014,90.9081276 178.623631,90.8287279 C178.997619,90.7493282 179.31818,90.6165391 179.585314,90.4289915 C179.853818,90.242813 180.066155,90.0087208 180.222325,89.728084 C180.378496,89.4474471 180.47713,89.1325863 180.518228,88.7862394" id="Fill-580" fill="#FFA412"></path><path d="M68.932578,65.9979863 C70.6900067,65.9617136 73.1638737,66.2050429 73.979967,65.2014985 C74.9064888,64.0649542 76,64.2312041 76,64.2312041 L75.7791431,62.9314327 L75.5138454,61.3792638 C75.5138454,61.3792638 75.4141904,61.2371958 75.0532779,61.2417299 C75.0532779,61.2417299 73.7806571,61.3036957 73.1733005,61.0603664 C71.6932897,60.4664011 65.8069137,64.4246584 66.0048769,65.5234186 C66.0802915,65.9345091 68.1851658,66.0146113 68.932578,65.9979863" id="Fill-583" fill="#F5C4A2"></path><path d="M100.968005,31 C100.968005,31 91.1096424,51.705523 88.0589439,53.9279235 C85.0082454,56.150324 74.1325387,60.9562481 74.1325387,60.9562481 C74.1325387,60.9562481 73.8481629,61.6445541 74.1125122,62.6532552 C74.3875424,63.7026844 74.9295921,64 74.9295921,64 C74.9295921,64 90.135021,62.619315 93.67036,60.3819809 C97.2043639,58.1446467 105,49.226535 105,49.226535 L100.968005,31" id="Fill-584" fill="#233862"></path><g id="Group-31" transform="translate(109.009716, 77.113364) rotate(-1.000000) translate(-109.009716, -77.113364) translate(82.009716, 5.113364)"><path d="M30,16 L23.7272365,27.2303482 L20.5109469,26.1263264 L21.5554562,29.1228993 L15.2655696,47 C15.2655696,47 11.7881527,24.2860208 30,16" id="Fill-581" fill="#233862"></path><g id="Group-46" transform="translate(25.000000, 0.000000)"><path d="M4.12113102,14.347871 C3.96901759,13.747871 4.09516043,12.5701885 3.86977286,11.1916478 L9.53970794,10.052592 L10.7658905,9.7049525 C10.2817623,11.1035972 10.6851172,14.5746638 11.0051988,16.8953604 C11.3463273,17.6980138 11.7853898,18.1247224 11.976453,18.4832826 C11.8324751,18.751141 10.6142515,19.0000308 10.0864236,19.3594174 C9.09976577,20.0312115 7.77676214,20.2369006 6,21 C4.75494274,19.7677313 2.63345695,19.7677313 1.55567929,19.3594174 C1.87821965,19.1743437 3.87990496,16.8377213 4.16174086,16.0420523 C4.27985173,14.8850868 4.34360133,15.2150912 4.27973709,14.9504461 C4.23336104,14.7538795 4.17492723,14.5581714 4.12113102,14.347871 Z" id="Fill-302" fill="#F5C4A2"></path><path d="M7.65625294,14.0219309 C9.05608935,13.273864 9.06965178,12.0717513 9.69836724,10.2729202 C11.0042354,9.5952256 11.4973266,8.9821192 11.7104504,8.2398363 C12.2161353,6.47956541 11.4624517,4.40020928 10.2340832,3.14893239 C9.15974506,2.05575211 7.81125212,1.60267034 6.20507304,1.72413481 C3.08474564,1.95935173 1.56090988,3.37643728 1.03197515,5.95996738 C0.986444137,6.18072424 0.844600228,8.40095375 0.873662576,10.2729202 C0.902724923,12.1448867 1.3004417,14.8259101 1.8439076,15.3397241 C2.44937318,15.9113783 3.4354313,15.7340016 4.60664392,15.3397241 C5.31382771,15.0052148 7.01688129,14.3641522 7.65625294,14.0219309 Z" id="Fill-305" fill="#F5C4A2"></path><path d="M1.06850669,5.66830777 C1.06850669,4.66915082 1.11163089,3.39232322 2.67124801,1.87828116 C4.23086513,0.364239107 8.51501491,-0.505984497 11.0939919,3.05032726 C11.8610319,4.20789715 12.1006119,6.82831956 11.8697729,7.93132386 C11.5398729,9.50982825 10.3896601,10.2286247 9.00916973,11.6151752 C8.49023624,12.1364714 8.64770194,10.238199 8.51501491,9.75685263 C8.18328771,9.75685263 8.43096863,9.75685263 8.00751219,9.75685263 C7.84031226,8.92727528 7.78134253,8.3101326 7.2372822,7.93132386 C6.87583022,7.67965844 6.20354568,7.71086914 6.20354568,7.01692304 C6.20354568,6.50305705 6.85364149,5.88469106 6.20354568,5.07227152 C5.8118902,4.70858703 5.31770216,4.65366598 4.50815559,4.99632858 C3.94571508,5.23439681 2.45440582,5.80745534 1.58659574,5.47909124 C1.41926306,5.41577549 1.16743932,5.51732547 1.06850669,5.66830777 Z" id="Fill-306" fill="#131730"></path><path d="M9.50773715,8.76864395 C11.0590101,8.37403593 10.9934459,9.90528662 10.7113963,10.8242515 C10.5171779,11.4558388 9.91225568,11.386139 9.66731785,11.8815436 C9.37537175,12.471311 8.82488017,12.7308087 8.36716807,12.7029288 C7.43689915,12.6460967 8.07151079,11.4697787 8.2063503,10.9979648 C8.1358379,10.2141103 8.5230376,9.01956318 9.50773715,8.76864395" id="Fill-307" fill="#F5C4A2"></path><path d="M5,15.1090927 C4.92976905,14.7115211 4.93443933,13.9802799 4.56790756,13.9802799 C4.38286501,13.9802799 4.31918035,14.0751465 4.19831724,14.1953583 C4.01491516,14.3777721 4.03372958,14.7512746 3.91173934,15.0130406 C3.75687307,15.3453518 3.13937669,15.3453518 2.98010556,15.2574521 C2.40570674,14.9404488 2.7490473,14.0518089 1.8106191,13.8419329 C1.63759827,13.8143237 1.4603097,13.8462753 1.27875338,13.9377877 C1.42573918,14.9422442 1.79300288,15.5229391 2.38054449,15.6798722 C3.26185689,15.915272 4.51830788,15.3941302 5,15.1090927 Z" id="Path-3" fill="#131730"></path></g><path d="M19.366869,26 C19.366869,26 12.6469684,50.5682291 12,74.0106097 C12,74.0106097 17.5724993,75.9382071 26.3286915,74.4123068 C35.1291208,72.8795515 19.366869,26 19.366869,26" id="Fill-582" fill="#233862"></path><path d="M0.314265846,142.629974 L13.8749677,142.629974 C14.527629,141.827293 14.2874605,138.861759 14.1884079,137.894707 C14.1680547,137.698831 14.1544858,137.585141 14.1544858,137.585141 C14.1544858,137.585141 9.52343967,133.845692 8.88706093,136.709864 C8.86806455,136.798898 8.84499752,136.886563 8.81921671,136.974228 C8.01729809,139.652112 4.42291154,140.86846 2.34687855,141.208161 C0.998135539,141.428693 0.498802112,142.136859 0.314265846,142.629974" id="Fill-586" fill="#233862" transform="translate(7.314266, 139.129974) rotate(1.000000) translate(-7.314266, -139.129974) "></path><path d="M22.8122789,143.022678 L36.3729807,143.022678 C37.0256421,142.219997 36.7854736,139.254463 36.686421,138.287412 C36.6660677,138.091536 36.6524989,137.977846 36.6524989,137.977846 C36.6524989,137.977846 32.0214527,134.238396 31.385074,137.102568 C31.3660776,137.191602 31.3430106,137.279267 31.3172298,137.366932 C30.5153112,140.044816 26.9209246,141.261164 24.8448916,141.600865 C23.4961486,141.821397 22.9968152,142.529564 22.8122789,143.022678" id="Fill-586-Copy" fill="#233862" transform="translate(29.812279, 139.522678) rotate(1.000000) translate(-29.812279, -139.522678) "></path><path d="M11.5377516,86.7096576 C12.262061,96.3469674 12.9911504,114.271708 13.7250198,140.483878 C16.1182612,140.676113 18.7328837,140.460481 21.5688873,139.836981 C21.5688873,139.836981 27.3786143,67.1078894 24.7455196,67.245884 L10.0576411,67.2145766 C10.0576411,67.2145766 10.7386494,76.0672632 11.5377516,86.7096576 Z" id="Fill-587" fill="#4E71F7" transform="translate(17.743952, 103.883204) rotate(11.000000) translate(-17.743952, -103.883204) "></path><path d="M29.0470199,139.963677 C30.6574339,139.991787 33.2428554,140.036915 36.8032844,140.099063 C39.8937445,99.158692 41.3813211,77.2908549 41.2660142,74.4955517 C41.0930538,70.3012311 40.141772,62 40.141772,62 L25.5707351,66.8609087 C25.5707351,66.8609087 29.1001253,136.921271 29.0470199,139.963677 Z" id="Fill-589" fill="#5A7CFF"></path><path d="M17.0132304,68.1322725 C17.1627108,68.2570619 17.3352927,68.3324841 17.533694,68.3324841 C19.3967637,68.3078005 24.8283388,69.3513694 29.4241825,68.8755239 C33.2984433,68.4997842 36.7283397,67.341025 40.4109938,65.6762515 C40.9002025,65.4540988 42.0253824,64.8479786 41.9995631,64.2967109 C41.9832561,63.6933334 41.9234639,62.8170646 41.8487237,61.7131579 C41.5891713,57.8775963 41.1339355,51.2802111 41.5769411,43.6680545 C41.657117,42.2514885 41.6992433,40.8445217 41.70332,39.4608673 C41.7413696,29.1446192 39.7152304,20.0709176 35.6412093,17 C35.6412093,17 32.8010812,18.6078641 30.8360931,19.2419591 C28.9091545,19.8633008 27.917148,19.7383743 26.918347,19.0695851 C26.918347,19.0695851 24.9737425,20.0449998 24.1420878,20.9596653 C22.2165081,23.0769721 20.7149093,25.8876145 19.7215439,29.9225649 C18.8763,33.3561947 18.0840538,38.3624458 17.8109123,44.7788178 C17.6872512,47.6873719 16.8882104,68.0321666 17.0132304,68.1322725" id="Fill-591" fill="#FFFFFF"></path><path d="M35.3241846,17 C35.3241846,17 22.1098401,21.9198299 21.4974814,40.3415352 C21.2577436,44.5380914 20.2371458,61.7408614 22.0824415,75.9967103 C22.0824415,75.9967103 34.8033986,77.8767416 41.4159255,73.0335448 L40.8285632,33.8107037 L35.3241846,17 Z" id="Fill-592" fill="#2B478B"></path><path d="M36.1940936,63.9826344 C36.1940936,63.9826344 37.0590412,65.2516672 37.0933937,65.7584694 C37.3252732,69.1952643 35.8996434,69.6709827 39.5913132,71.5792621 C39.5913132,71.5792621 41.1666219,72.2414837 41.1936132,70.8940654 C41.2206044,69.5466472 40.1004667,69.5250237 40.305355,67.6383679 C40.5409152,65.4624969 40.5176045,65.4422248 39.2207966,64.3056364 L38.3619834,62.7419825 L36.1940936,63.9826344" id="Fill-597" fill="#F5C4A2" transform="translate(38.694094, 67.241983) rotate(16.000000) translate(-38.694094, -67.241983) "></path><path d="M42.0400133,63.8381864 C42.0400133,63.8381864 37.4803928,49.4771489 36.8936719,48.1659478 C36.306951,46.853365 23.8228907,28.005061 23.8228907,28.005061 L28.7790564,17.8817906 C28.7790564,17.8817906 32.0521358,16.9942186 35.0212941,21.604937 C39.2595588,28.1864134 41.9794078,39.7820126 43.3462446,44.883117 C44.7130814,49.9842215 47.3516665,62.7411435 47.3516665,62.7411435 C47.3516665,62.7411435 46.4465174,63.4167782 45.2405554,63.6571881 C43.70397,63.9611546 42.0400133,63.8381864 42.0400133,63.8381864 Z" id="Fill-598" fill="#3756A2" transform="translate(35.587279, 40.837994) rotate(16.000000) translate(-35.587279, -40.837994) "></path><path d="M36.9417389,66.1519695 C36.9417389,66.1519695 36.3360072,67.0024769 36.2976472,67.3556537 C36.1754304,68.4908648 35.8935287,68.9809877 36.0344796,69.1047197 C36.3279784,69.361794 36.7160392,68.5208969 36.9015947,67.766492 C37.0871502,67.0132884 36.9417389,66.1519695 36.9417389,66.1519695" id="Fill-600" fill="#F5C4A2" transform="translate(36.495933, 67.651970) rotate(16.000000) translate(-36.495933, -67.651970) "></path><path d="M36.0509387,17.0172794 L29.7281783,27.2303482 L26.5102129,26.1263264 L27.554803,29.1228993 L21.2658569,47 C21.2658569,47 17.7621454,25.1144902 35.9754014,16.8284694 L36.0509387,17.0172794 Z" id="Fill-601" fill="#233862"></path></g><path d="M59.2286986,81.8543262 C59.1739544,81.6151285 59.2848113,81.3759307 59.4873647,81.2583821 C59.5338973,81.2310452 59.5845356,81.2091757 59.6406484,81.1968741 L60.4508621,81.0082496 L63.4576854,80.3138927 L65.0959046,79.9339099 C65.3915231,79.8655677 65.6871416,80.0500917 65.7542032,80.3439632 L66.1510984,82.049785 L59.6255938,83.5587811 L59.2286986,81.8543262 Z M74.9580661,82.3176865 L74.9580661,82.3163196 C74.0000432,81.2884527 72.5780635,80.7335139 71.1205,80.9221384 L71.1191314,80.9235052 C71.1177628,80.9235052 71.1163942,80.9235052 71.1150256,80.9235052 C70.9726908,80.9412742 70.830356,80.9672443 70.6852839,81.0000485 L67.0475341,81.8420246 L66.6520075,80.1362029 C66.5644168,79.7562202 66.3317541,79.4309112 65.9978147,79.2231509 C65.6638753,79.0153906 65.2697173,78.949782 64.8892453,79.0386269 L63.9394341,79.257322 L60.1196599,80.1416703 L59.431252,80.3002242 C58.642936,80.4833814 58.1475013,81.2734174 58.3322628,82.0620866 L58.7277894,83.7679083 L52.4486336,85.2208638 C50.0617879,85.7730689 48.5617978,88.1746144 49.1147139,90.5583909 L50.9705411,98.5571639 C51.5234572,100.939574 53.9280947,102.437635 56.3149403,101.88543 L74.5515907,97.6673483 C74.8732126,97.5921718 75.1784114,97.4841911 75.463081,97.3475067 L75.4644496,97.3461398 C75.4658182,97.3461398 75.4658182,97.3461398 75.4671868,97.3461398 C75.9256692,97.1274448 76.3348819,96.8335732 76.6838759,96.4836611 C77.7377011,95.4325578 78.2440847,93.8770889 77.8855104,92.3284543 L76.0296831,84.3296813 C75.8490274,83.55058 75.469924,82.865791 74.9580661,82.3176865 L74.9580661,82.3176865 Z" id="Fill-604" fill="#ED7D2B"></path><path d="M63.8434047,72.3637545 C63.8434047,72.3637545 63.2767529,74.2471065 63.4721986,74.8480921 C64.7896992,78.9166069 67.0703673,81.5788679 60.9412475,80.8922154 C60.9412475,80.8922154 61.1943426,80.6563022 60.0216686,78.5858012 C58.6676098,76.1976739 58.6915132,76.1634072 59.9035576,74.2194295 L60.3225706,72 L63.8434047,72.3637545" id="Fill-605" fill="#FFB27D"></path><path d="M70.4676106,66.9983486 C68.704691,66.8868248 66.557305,66.4058784 65.7736364,65.4370155 C64.8854786,64.3371122 64,64.0415742 64,64.0415742 L64.2706001,62.8399054 L64.5947844,61.4054307 C64.5947844,61.4054307 64.6992736,61.2785724 65.0609668,61.2994831 C65.0609668,61.2994831 66.4434386,61.6242961 66.9578468,61.2116581 C67.4695757,60.7990201 68.4086384,61.0499486 68.9873476,61.4500402 C69.7214509,61.9574734 70.7140978,61.8752246 70.6899849,62.1247591 C70.6899849,62.1247591 69.2324952,62.8691804 69.3677953,62.9960387 C70.703381,64.2283765 74.2171636,64.7190812 73.9894308,65.6809738 C73.8983377,66.0601547 71.2191287,67.0457462 70.4676106,66.9983486" id="Fill-606" fill="#FFB27D"></path><path d="M45.9734246,21.4544785 L45.9681096,22.4001523 C45.9681096,22.4001523 46.2258906,25.3573328 42.5664633,25.7891914 C38.9057072,26.2222396 35.9040201,26.1652666 36.002349,23.8831708 C36.3332122,22.1163444 36.9231853,19.3737052 36.9484319,17.9117046 C36.9564045,17.3684114 36.919199,16.7918068 36.8182126,16.1409125 L43.9111766,16 L46,16.3395913 L45.9734246,21.4544785" id="Fill-607" fill="#FFB27D"></path><path d="M36.261198,14.682519 C37.1560821,19.3211804 43.374009,19.1689334 46.0615528,18.8772427 C46.8176504,18.7962485 47.2932835,18.7034252 47.2932835,18.7034252 C48.1462425,18.4842396 48.6218756,17.191393 48.841621,15.4980283 C49.2811118,12.146647 48.7274112,7.22728896 48.1390141,5.9690945 C47.2542498,4.07574913 45.5859197,2.02806932 39.3246221,3.50544929 C33.0618787,4.98408175 35.1118718,8.73918195 36.261198,14.682519" id="Fill-609" fill="#FFB27D"></path><path d="M31,149 L39,149 C38.9396226,148.572617 38.7361772,147.269032 38.3621001,146.069948 C38.2321575,145.651943 38.0812141,145.245996 37.9092699,144.89364 C37.130927,143.307365 32.1891715,144.316204 32.1891715,144.316204 C32.1891715,144.316204 31.7297785,144.718131 31.371452,146.250815 C31.2126333,146.926054 31.0735029,147.822352 31,149" id="Fill-610" fill="#233862"></path><path d="M56.0037649,146.214195 C56.0269224,147.415148 56.1685917,148.552359 56.5786155,149 L73,149 C72.7915826,148.368377 72.2003855,147.418045 70.5139754,147.126861 C68.5987148,146.798011 65.6127608,145.817257 63.8691381,143.857198 C63.2479725,143.160384 62.7848227,142.338984 62.5832163,141.378512 C61.8094837,137.720603 56.1944736,142.499787 56.1944736,142.499787 C56.1944736,142.499787 55.9683476,144.426527 56.0037649,146.214195" id="Fill-611" fill="#233862"></path><path d="M45.1383008,108.336213 C45.3639214,109.609836 45.5076203,110.653517 45.5452237,111.402545 C46.059585,121.694791 53.9952525,145.22858 55.4147821,145.776582 C57.6105541,146.626122 61.07007,144.821021 62.8790638,144.228958 C63.6284465,143.983872 64.1347499,143.208683 63.9682204,142.42248 C60.0386615,123.899191 58.5936153,97.2260949 58.0685102,81.4359307 C57.8026002,73.4816423 56.4717072,67.9864779 56.4717072,67.9864779 C56.4717072,67.9864779 37.1166826,62.6923393 37.0011863,69.3895279 C36.8991199,75.3170355 43.4125718,98.5603005 45.1383008,108.336213" id="Fill-612" fill="#2B478B"></path><path d="M49,70.3868838 L38.6319593,145.440076 C38.6319593,145.440076 34.0786762,146.536944 30.5378386,145.660265 C30.5378386,145.660265 27.5018629,105.743531 27.7549743,96.0932716 C28.0080857,86.4430123 25.5776722,70.2713525 28.3101864,68.4880933 C31.0440614,66.7034749 49,70.3868838 49,70.3868838" id="Fill-614" fill="#3856A1"></path><path d="M41.7340778,8.15258079 C40.2752661,9.31363511 41.6647426,11.2245654 39.9979254,11.9067291 L39.9909919,11.9093177 C39.6540231,12.0467859 39.2615861,11.9535963 39.0327801,11.6734828 C38.5710079,11.1069886 37.9317378,10.5426742 37.3479357,10.7763292 C36.8695231,10.9691116 36.8445625,11.5771597 37.0567281,12.1683137 C37.2342261,12.6654608 37.1843048,13.2232355 36.8764567,13.6553952 C36.7447199,13.8424554 36.6573576,14.0472271 36.6947986,14.2541787 C36.8334689,15.0037822 36.9180578,15.5013543 37.0567281,16 L36.8764567,16.476967 C36.8764567,16.476967 34.5967167,14.0293794 33.4207924,11.5298837 C32.6137312,9.8144607 32.6289849,3.40359342 36.5783155,1.52972095 C36.7437379,1.44193137 37.1121391,1.24427645 37.4228177,1.08461834 C38.4600717,0.54755238 41.6522623,-0.642521486 44.1829955,0.439512474 C45.8941872,1.17058704 47.4625485,1.56023916 48.5303099,1.76296726 C49.408093,1.92972746 50.0307227,2.69935852 49.9988285,3.57716572 C49.9516806,4.80933837 49.5148691,6.58048436 48.3333981,7.00378825 C46.6832213,7.51455951 43.1928895,6.99316138 41.7340778,8.15258079 Z" id="Fill-615" fill="#131730"></path><path d="M35,24 L37.3043165,75.9947508 C37.3043165,75.9947508 56.5376078,76.3249262 55.9884605,71.7480597 C55.4393133,67.1711932 49.0558049,25.5923019 49.0558049,25.5923019" id="Fill-616" fill="#E9F3FE"></path><path d="M41,56.8154711 C41,56.8154711 40.0087113,70.4267419 38.1035159,78.9715275 C38.1035159,78.9715275 26.7056977,79.5848674 24,75.1181826 C24,75.1181826 26.1413436,56.7328801 26.1413436,53.0027448 C26.1413436,51.6921201 26.042615,49.9103204 25.8838487,47.9186582 C25.6477005,44.9007012 25.2794695,41.4061533 24.9299168,38.3605756 C24.4456129,34.1202715 24,30.7500163 24,30.7500163 L33.3978967,23 L41,56.8154711" id="Fill-617" fill="#22407A"></path><path d="M64,72.2307146 C64,72.2307146 61.8861066,73.5931792 58.5574538,73.1358389 C57.3466729,76.1952411 54.4888057,77.2341545 54.4888057,76.9570199 C54.4888057,76.9242552 53.8469459,71.1808795 53.0883844,64.4122424 C53.0141197,63.7351056 52.9385287,63.0497777 52.8602855,62.358989 C52.8536547,62.3002856 52.8470239,62.240217 52.8403932,62.1815136 C52.7130821,61.0484017 52.5857711,59.9016378 52.4571339,58.7603347 C51.5447383,50.608755 50.669475,42.7943783 50.669475,42.7943783 C48.6828926,30.2744474 47,22 47,22 C51.2383961,22.4540639 54.0989157,24.008202 55.2394103,26.0437078 C58.6224354,32.0797813 61.0718465,47.1766545 62.508074,58.4791046 C62.5107263,58.5077737 62.5133786,58.5364428 62.5186832,58.5651119 C62.7653483,60.5159756 62.982838,62.352163 63.1671737,64.0081446 C63.1804353,64.1118994 63.1910445,64.2142891 63.2016538,64.3139483 C63.7294641,69.0511752 64,72.2307146 64,72.2307146" id="Fill-618" fill="#22407A"></path><path d="M34.0001867,22.2007781 C33.9764995,21.6966871 36.2149382,21 36.2149382,21 C36.2149382,21 38.7784177,24.7900172 43,24.8555729 C43,24.8555729 41.7972175,27.3532868 40.3786185,28 C40.3786185,28 34.1396779,25.195143 34.0001867,22.2007781" id="Fill-620" fill="#D9E9F9"></path><path d="M43,25.1390385 C43,25.1390385 45.478264,23.6442456 45.487016,22.0236379 C45.487016,22.0236379 47.0886251,21.8197823 47.7873234,22.609389 C47.7873234,22.609389 48.3751635,25.3868106 47.5962389,27 C47.5962389,27 44.0254383,26.4468895 43,25.1390385" id="Fill-621" fill="#D9E9F9"></path><path d="M42.1075886,24.841657 L44.6745891,24 C44.6745891,24 45.0098026,24.0397741 44.9997796,24.611851 C44.9908703,25.1839278 44.2770103,26.8555076 43.9618428,26.9891548 C43.6455616,27.1228019 41.5006406,25.9990687 42.1075886,24.841657" id="Fill-622" fill="#BA4C43"></path><path d="M35.0002859,21.5729823 C34.9756329,21.0591013 36.5534248,20 36.5534248,20 C36.5534248,20 39.6062878,23.727676 44,23.7943618 C44,23.7943618 42.7481755,26.340727 41.2717348,27 C41.2717348,27 35.1454647,24.6255009 35.0002859,21.5729823" id="Fill-623" fill="#E9F3FE"></path><path d="M46,20.7288418 C46.2110015,20.7288418 47.0445605,21.7007797 47.747453,22.5175886 C47.747453,22.5175886 48.3961642,24.3312358 47.6141963,26 C47.6141963,26 44.0294446,25.4278347 43,24.0749279 C43,24.0749279 45.9912138,22.4054334 46,20.7288418 Z" id="Fill-624" fill="#E9F3FE"></path><path d="M49.7308575,68.2039244 C49.6048495,69.6950729 49.0201161,71.0894833 48.0899227,72.114907 L46.6273811,73.7249051 C46.2606839,74.1298231 45.6901086,74.0814541 45.3899549,73.6212572 L43.6244279,70.9195007 C43.1515442,70.195347 42.9349238,69.2735712 43.0170414,68.3476496 C43.2053454,66.2857464 43.5564686,62.313957 43.8452958,58.4803649 C44.078906,55.3736904 44.2714575,52.3568441 44.3026055,50.5229664 C44.3988812,44.6647843 43.6131014,26 43.6131014,26 L44.7853999,26.0598394 C44.7853999,26.0598394 47.6283655,33.2758096 49.0569274,43.1225029 C49.4094665,45.5464829 49.6742247,48.1280078 49.7917377,50.8021249 C49.7917377,50.8021249 50.2986011,61.4626618 49.7308575,68.2039244" id="Fill-625" fill="#C65447"></path><path d="M49.7308575,67.1809292 C49.6048495,68.6779936 49.0201161,70.0779362 48.0899227,71.1074281 L46.6273811,72.7238137 C46.2606839,73.1303382 45.6901086,73.0817772 45.3899549,72.6197546 L43.6244279,69.9072791 C43.1515442,69.1802525 42.9349238,68.2548197 43.0170414,67.3252245 C43.2053454,65.255141 43.5564686,61.267594 43.8452958,57.4187925 C47.129997,53.0039093 48.5047578,46.9407289 49.0569274,42 C49.4094665,44.4335969 49.6742247,47.0253637 49.7917377,49.71009 C49.7917377,49.71009 50.2986011,60.4129214 49.7308575,67.1809292" id="Fill-626" fill="#BA4C43"></path><path d="M39.8925292,58 C39.8925292,58 37.5887367,47.4736602 32.0461799,38.8513113 C32.0461799,38.8513113 34.0685198,37.0784036 33.9586846,36.4247662 C33.9586846,36.4247662 32.4580618,35.9810262 31,36.2798632 C31,36.2798632 31.4004639,24.1890678 32.0461799,23.5 C32.6918959,22.8109322 33.9586846,22 34.4925524,21.7863239 C34.4925524,21.7863239 40.8892833,48.1496009 39.8925292,58 Z" id="Fill-627" fill="#233862"></path><path d="M47.0873838,22 C46.1224068,22.0741874 53.4562319,47.0081159 54,55 C54,55 53.3562124,40.7383435 53.4196051,36.6276387 C53.4196051,36.6276387 50.7500702,35.283963 50.7500702,34.8127257 C50.7500702,34.3413545 53.5971045,33.0667776 53.5971045,33.0667776 C53.5971045,33.0667776 51.7939358,24.2838737 50.8106454,23.3160898 C49.8259462,22.3481719 47.0873838,22 47.0873838,22" id="Fill-628" fill="#233862"></path><path d="M59.282694,76 C59.282694,76 58.7915911,76.5661566 59.1039699,77.9914922 C59.4163486,79.4155019 59.243841,80.2017568 59.6758872,79.9551406 C60.1079334,79.7098503 61,77.9994475 61,77.9994475 L59.282694,76" id="Fill-629" fill="#FFB27D"></path><path d="M41,60 C33.6010272,58.9359143 28.6535214,52.2749795 25.9959084,47.2309718 C25.7493689,44.239992 25.3649343,40.7766817 25,37.7583282 L26.7313485,33 L41,60" id="Fill-630" fill="#233862"></path><path d="M64,65.3143706 C62.5118392,65.6846055 57.9924485,66.5913034 53.2632792,65.4231743 C53.1844362,64.6736374 53.1041853,63.9150336 53.0211186,63.1503851 C53.0140791,63.085405 53.0070395,63.0189139 53,62.9539339 C53.1548701,62.3026226 53.3111481,61.6513113 53.4660182,61 C56.1424549,62.0291021 62.1232561,64.280735 63.9633943,64.97587 C63.9774734,65.0907184 63.9887367,65.2040557 64,65.3143706" id="Fill-631" fill="#233862"></path><path d="M33,22.8109322 C33.0027511,22.8128303 26.6400666,23.7992064 23.7087167,27.8311654 C20.7773668,31.8631244 27.0719971,53.8225234 40.1330799,60.8547262 C46.4167057,64.2372877 64.5467816,64.9992113 64.5467816,64.9992113 C64.5467816,64.9992113 65.5440734,65.0968243 65.9388633,63.1201612 C66.0764208,62.4300915 65.9388633,61.2546684 65.9388633,61.2546684 C65.9388633,61.2546684 45.3011145,53.6286531 43.4867313,52.160391 C41.6723481,50.6907731 33.0598743,23 33.0598743,23" id="Fill-632" fill="#22407A"></path><path d="M73.4643245,60.9623318 C73.4643245,60.9623318 71.2890799,60.5204493 70.6656021,60.4139041 C69.9382114,60.2894144 69.2717829,59.8464104 69.0598005,60.0550148 C68.6649312,60.4430638 70.3303096,61.1249535 70.9870395,62.323868 C71.3084769,62.9126707 71.9582793,63.2323064 73.2578841,62.8005178 C73.9132285,62.5829411 74.4355643,61.4827212 73.4643245,60.9623318" id="Fill-633" fill="#F5C4A2"></path></g></g></g></g></svg>