<svg xmlns="http://www.w3.org/2000/svg" xmlns:xlink="http://www.w3.org/1999/xlink" width="187px" height="138px" viewBox="0 0 187 138"><title>Step_2_illustration</title><desc>Created with Sketch.</desc><defs><path d="M55,33.1439621 C55,34.168511 53.4728485,35 51.5977308,35 L3.39678459,35 C1.52227627,35 0,34.168511 0,33.1439621 L0,3.74726408 C0,2.7233809 1.52227627,1.89189189 3.39678459,1.89189189 L51.5977308,1.89189189 C53.4728485,1.89189189 55,2.7233809 55,3.74726408 L55,33.1439621 Z" id="path-1"></path><filter x="-41.8%" y="-48.3%" width="183.6%" height="238.9%" filterUnits="objectBoundingBox" id="filter-2"><feGaussianBlur stdDeviation="6.5"></feGaussianBlur></filter></defs><g id="Welcome" stroke="none" stroke-width="1" fill="none" fill-rule="evenodd"><g id="03_HOURS" transform="translate(-877.000000, -6522.000000)"><g id="Step_2_illustration" transform="translate(877.000000, 6522.000000)"><path d="M0.10280629,71.3485771 L74.414041,71.3485771 C80.5597124,71.3485771 80.549589,62.8530586 74.414041,62.8530586 L1.25740076,62.8530586 C1.80592638,60.5801767 2.56757511,58.3978974 3.63558831,56.3675874 C6.41870978,51.0773187 10.9379854,47.4283185 15.6456086,44.7380276 C20.8026552,41.7909808 26.2745911,39.8373792 31.8661424,38.3914998 C32.7428776,31.3082827 36.1062268,24.3029318 40.3143427,19.0083211 C42.514306,16.2401639 44.9279253,13.758867 47.5037845,11.5435887 L116.786912,11.5435887 C121.267026,11.5435887 121.259567,5.35047751 116.786912,5.35047751 L56.2386354,5.35047751 C60.0540719,3.13838332 64.0698442,1.37264469 68.1708657,0 L138.542786,0 C145.995169,3.11146304 152.96536,7.87085231 158.908032,14.1041991 C161.45805,16.7785695 163.856484,19.8596387 165.83107,23.2307521 L154.25662,23.2307521 C148.110948,23.2307521 148.121072,31.7259812 154.25662,31.7259812 L168.615523,31.7259812 C168.948528,31.7259812 169.26022,31.6964557 169.558593,31.6489834 C170.640193,35.2308276 171.141032,38.9959034 170.816019,42.8478188 C170.5656,45.8084704 169.824997,48.6382837 168.727413,51.2808129 C171.884299,53.5635366 174.822734,56.2483277 177.41218,59.428973 C185.07662,68.8342811 189.2192,83.0890022 185.774598,95.5748006 C185.35368,97.1008619 184.8262,98.5652671 184.221463,99.9795948 L136.747224,99.9795948 C130.601552,99.9795948 130.611676,108.475113 136.747224,108.475113 L179.23971,108.475113 C176.828755,111.681232 174.055491,114.560543 171.204969,117.174415 C161.126377,126.414728 149.661152,133.285478 137.581867,138 L40.7341952,138 C36.022576,136.115002 31.4963738,133.68523 27.3215584,130.438297 C25.6647926,129.149597 24.0815543,127.738743 22.5428054,126.258128 L43.2471831,126.258128 C49.3931209,126.258128 49.3829976,117.763188 43.2471831,117.763188 L14.5408317,117.763188 C14.3991048,117.603982 14.2565787,117.445355 14.1148518,117.286439 C10.0814969,112.763832 5.96235991,108.105756 3.50931287,102.171716 C0.842343496,95.7204016 0.373739049,88.3173253 0.114528061,81.1226641 C0,77.9012042 -0.0660937782,74.599273 0.10280629,71.3485771" id="Fill-6" fill="#F0F5FC"></path><path d="M131.967912,95 L39.0320878,95 C34.0437942,95 30,90.9246696 30,85.897474 L30,18.1021389 C30,13.0749433 34.0437942,9 39.0320878,9 L131.967912,9 C136.955822,9 141,13.0749433 141,18.1021389 L141,85.897474 C141,90.9246696 136.955822,95 131.967912,95" id="Fill-19" fill="#2B7AF0"></path><path d="M39.9307798,92 C36.1091313,92 33,88.8632861 33,85.0077339 L33,16.9922661 C33,13.1371022 36.1091313,10 39.9307798,10 L133.06922,10 C136.890869,10 140,13.1371022 140,16.9922661 L140,85.0077339 C140,88.8632861 136.890869,92 133.06922,92 L39.9307798,92" id="Fill-20" fill="#F7F7F7"></path><path d="M140,17.1823682 C140,13.2223921 136.890869,10 133.06922,10 L39.9307798,10 C36.1091313,10 33,13.2223921 33,17.1823682 L33,28 L140,28 L140,17.1823682 Z" id="Fill-21" fill="#0B57C7"></path><rect id="Rectangle" fill="#FFFFFF" x="106" y="17" width="28" height="5" rx="2"></rect><path d="M40,58 L46,58 C47.1045695,58 48,57.1045695 48,56 L48,50 C48,48.8954305 47.1045695,48 46,48 L40,48 C38.8954305,48 38,48.8954305 38,50 L38,56 C38,57.1045695 38.8954305,58 40,58 Z" id="Fill-40" fill="#B9DDFF"></path><path d="M40,46 L46,46 C47.1045695,46 48,45.1045695 48,44 L48,38 C48,36.8954305 47.1045695,36 46,36 L40,36 C38.8954305,36 38,36.8954305 38,38 L38,44 C38,45.1045695 38.8954305,46 40,46 Z" id="Fill-40-Copy" fill="#B9DDFF"></path><path d="M40,72 L46,72 C47.1045695,72 48,71.1045695 48,70 L48,64 C48,62.8954305 47.1045695,62 46,62 L40,62 C38.8954305,62 38,62.8954305 38,64 L38,70 C38,71.1045695 38.8954305,72 40,72 Z" id="Fill-41" fill="#B9DDFF"></path><path d="M40,85 L46,85 C47.1045695,85 48,84.1045695 48,83 L48,77 C48,75.8954305 47.1045695,75 46,75 L40,75 C38.8954305,75 38,75.8954305 38,77 L38,83 C38,84.1045695 38.8954305,85 40,85 Z" id="Fill-42" fill="#B9DDFF"></path><path d="M54,58 L60,58 C61.1045695,58 62,57.1045695 62,56 L62,50 C62,48.8954305 61.1045695,48 60,48 L54,48 C52.8954305,48 52,48.8954305 52,50 L52,56 C52,57.1045695 52.8954305,58 54,58 Z" id="Fill-43" fill="#B9DDFF"></path><path d="M54,46 L60,46 C61.1045695,46 62,45.1045695 62,44 L62,38 C62,36.8954305 61.1045695,36 60,36 L54,36 C52.8954305,36 52,36.8954305 52,38 L52,44 C52,45.1045695 52.8954305,46 54,46 Z" id="Fill-43-Copy-3" fill="#B9DDFF"></path><path d="M54,72 L60,72 C61.1045695,72 62,71.1045695 62,70 L62,64 C62,62.8954305 61.1045695,62 60,62 L54,62 C52.8954305,62 52,62.8954305 52,64 L52,70 C52,71.1045695 52.8954305,72 54,72 Z" id="Fill-43-Copy" fill="#B9DDFF"></path><path d="M54,85 L60,85 C61.1045695,85 62,84.1045695 62,83 L62,77 C62,75.8954305 61.1045695,75 60,75 L54,75 C52.8954305,75 52,75.8954305 52,77 L52,83 C52,84.1045695 52.8954305,85 54,85 Z" id="Fill-43-Copy-2" fill="#B9DDFF"></path><path d="M69,46 L75,46 C76.1045695,46 77,45.1045695 77,44 L77,38 C77,36.8954305 76.1045695,36 75,36 L69,36 C67.8954305,36 67,36.8954305 67,38 L67,44 C67,45.1045695 67.8954305,46 69,46 Z" id="Fill-46" fill="#B9DDFF"></path><path d="M69,58 L75,58 C76.1045695,58 77,57.1045695 77,56 L77,50 C77,48.8954305 76.1045695,48 75,48 L69,48 C67.8954305,48 67,48.8954305 67,50 L67,56 C67,57.1045695 67.8954305,58 69,58 Z" id="Fill-47" fill="#B9DDFF"></path><path d="M69,72 L75,72 C76.1045695,72 77,71.1045695 77,70 L77,64 C77,62.8954305 76.1045695,62 75,62 L69,62 C67.8954305,62 67,62.8954305 67,64 L67,70 C67,71.1045695 67.8954305,72 69,72 Z" id="Fill-48" fill="#B9DDFF"></path><path d="M69,85 L75,85 C76.1045695,85 77,84.1045695 77,83 L77,77 C77,75.8954305 76.1045695,75 75,75 L69,75 C67.8954305,75 67,75.8954305 67,77 L67,83 C67,84.1045695 67.8954305,85 69,85 Z" id="Fill-49" fill="#E05A55"></path><path d="M83,46 L89,46 C90.1045695,46 91,45.1045695 91,44 L91,38 C91,36.8954305 90.1045695,36 89,36 L83,36 C81.8954305,36 81,36.8954305 81,38 L81,44 C81,45.1045695 81.8954305,46 83,46 Z" id="Fill-50" fill="#B9DDFF"></path><polygon id="Fill-51" fill="#B9DDFF" points="81 58 91 58 91 48 81 48"></polygon><polygon id="Fill-52" fill="#B9DDFF" points="81 72 91 72 91 62 81 62"></polygon><path d="M83,85 L89,85 C90.1045695,85 91,84.1045695 91,83 L91,77 C91,75.8954305 90.1045695,75 89,75 L83,75 C81.8954305,75 81,75.8954305 81,77 L81,83 C81,84.1045695 81.8954305,85 83,85 Z" id="Fill-53" fill="#B9DDFF"></path><path d="M98,46 L104,46 C105.104569,46 106,45.1045695 106,44 L106,38 C106,36.8954305 105.104569,36 104,36 L98,36 C96.8954305,36 96,36.8954305 96,38 L96,44 C96,45.1045695 96.8954305,46 98,46 Z" id="Fill-54" fill="#B9DDFF"></path><polygon id="Fill-55" fill="#E05A55" points="96 58 106 58 106 48 96 48"></polygon><polygon id="Fill-56" fill="#B9DDFF" points="96 72 106 72 106 62 96 62"></polygon><path d="M98,85 L104,85 C105.104569,85 106,84.1045695 106,83 L106,77 C106,75.8954305 105.104569,75 104,75 L98,75 C96.8954305,75 96,75.8954305 96,77 L96,83 C96,84.1045695 96.8954305,85 98,85 Z" id="Fill-57" fill="#01BEEE"></path><path d="M112,46 L118,46 C119.104569,46 120,45.1045695 120,44 L120,38 C120,36.8954305 119.104569,36 118,36 L112,36 C110.895431,36 110,36.8954305 110,38 L110,44 C110,45.1045695 110.895431,46 112,46 Z" id="Fill-58" fill="#B9DDFF"></path><path d="M112,58 L118,58 C119.104569,58 120,57.1045695 120,56 L120,50 C120,48.8954305 119.104569,48 118,48 L112,48 C110.895431,48 110,48.8954305 110,50 L110,56 C110,57.1045695 110.895431,58 112,58 Z" id="Fill-59" fill="#B9DDFF"></path><path d="M112,72 L118,72 C119.104569,72 120,71.1045695 120,70 L120,64 C120,62.8954305 119.104569,62 118,62 L112,62 C110.895431,62 110,62.8954305 110,64 L110,70 C110,71.1045695 110.895431,72 112,72 Z" id="Fill-60" fill="#B9DDFF"></path><path d="M112,85 L118,85 C119.104569,85 120,84.1045695 120,83 L120,77 C120,75.8954305 119.104569,75 118,75 L112,75 C110.895431,75 110,75.8954305 110,77 L110,83 C110,84.1045695 110.895431,85 112,85 Z" id="Fill-61" fill="#B9DDFF"></path><path d="M125,46 L131,46 C132.104569,46 133,45.1045695 133,44 L133,38 C133,36.8954305 132.104569,36 131,36 L125,36 C123.895431,36 123,36.8954305 123,38 L123,44 C123,45.1045695 123.895431,46 125,46 Z" id="Fill-62" fill="#0B57C7"></path><path d="M125,58 L131,58 C132.104569,58 133,57.1045695 133,56 L133,50 C133,48.8954305 132.104569,48 131,48 L125,48 C123.895431,48 123,48.8954305 123,50 L123,56 C123,57.1045695 123.895431,58 125,58 Z" id="Fill-63" fill="#0B57C7"></path><path d="M125,72 L131,72 C132.104569,72 133,71.1045695 133,70 L133,64 C133,62.8954305 132.104569,62 131,62 L125,62 C123.895431,62 123,62.8954305 123,64 L123,70 C123,71.1045695 123.895431,72 125,72 Z" id="Fill-64" fill="#0B57C7"></path><path d="M125,85 L131,85 C132.104569,85 133,84.1045695 133,83 L133,77 C133,75.8954305 132.104569,75 131,75 L125,75 C123.895431,75 123,75.8954305 123,77 L123,83 C123,84.1045695 123.895431,85 125,85 Z" id="Fill-65" fill="#0B57C7"></path><g id="Group-44" transform="translate(58.000000, 6.000000)"><g id="Fill-111"><use fill="black" fill-opacity="1" filter="url(#filter-2)" xlink:href="#path-1"></use><use fill="#1467E1" fill-rule="evenodd" xlink:href="#path-1"></use></g><text id="Confirm-Booking" font-family="Montserrat-Bold, Montserrat" font-size="10" font-weight="bold" fill="#FFFFFE"><tspan x="5.14959956" y="18.9189189">Confirm </tspan><tspan x="4.52542373" y="28.9189189">Booking</tspan></text><path d="M55,6.62162162 L0,6.62162162 L0,3.01962848 C0,1.35325295 1.52227627,0 3.39678459,0 L51.5977308,0 C53.4728485,0 55,1.35325295 55,3.01962848 L55,6.62162162 Z" id="Fill-138" fill="#E05A55"></path></g><g id="Group-78" transform="translate(14.000000, 32.000000)"><path d="M50,101.609662 C50,104.034508 38.8072497,106 25,106 C11.1931418,106 0,104.034508 0,101.609662 C0,99.184816 11.1931418,97.2189349 25,97.2189349 C38.8072497,97.2189349 50,99.184816 50,101.609662" id="Fill-77" fill="#CDDEF2"></path><path d="M49.1969114,5.47248614 C48.6698615,5.97885006 47.6487982,6.7263941 46.3161916,6.55303399 C46.3161916,6.55532006 45.4987264,7.4625078 44.8203224,8.15404318 C44.6739623,8.30416161 44.5345169,8.4634243 44.4046752,8.62725913 L35.7390827,19.469475 L35.6637899,19.4790002 C35.6376679,19.2305809 35.5738995,18.9844477 35.4863139,18.7501258 C35.3399538,18.3561601 35.3201109,17.9839096 35.443038,17.5621302 C35.4787637,17.4424927 35.5666007,17.3040279 35.6115459,17.1962017 L35.81015,17.2335408 C36.334895,16.933685 36.7670606,16.525622 37.0981955,16.1411816 C37.5303611,15.6397708 37.7808251,15.0091973 37.8165508,14.3576681 C37.8257703,14.1843079 37.8211605,14.0132339 37.8000324,13.8398738 C37.6886298,12.8907748 37.3133179,11.9895176 37.0981955,11.1832979 L44.9125177,3.95606143 C45.0212314,3.8531884 45.1276402,3.74764829 45.2267501,3.63524998 L48.2891716,0.194718558 C48.4950745,-0.0373172819 48.8469533,-0.0655121131 49.0878136,0.129184626 C49.227259,0.241582939 49.2983263,0.408084848 49.2983263,0.574205745 C49.2983263,0.689271136 49.2652896,0.803955517 49.1919175,0.904923493 L47.7456033,2.90866156 L47.1006202,3.79908481 C46.880888,4.10656087 46.9258332,4.52605424 47.2093338,4.77675963 C47.3510841,4.90325536 47.528176,4.96650322 47.705652,4.96650322 C47.8593109,4.96650322 48.0129697,4.91963884 48.1451164,4.82362401 L48.4451353,4.60568558 C48.5941845,4.49557334 48.7831849,4.46737851 48.9533621,4.51652896 L48.9533621,4.51881502 C49.0386428,4.54243772 49.1208503,4.59120716 49.1896126,4.6571221 C49.3079299,4.76952041 49.3670886,4.92192491 49.3670886,5.07204333 C49.3670886,5.21720861 49.3102348,5.36237389 49.1969114,5.47248614 Z" id="Fill-78" fill="#FFC28A"></path><path d="M48.7341772,4.71599752 C48.5496359,4.66770191 48.3446826,4.69540637 48.1830527,4.80360351 L47.8577102,5.01775148 C47.7502347,3.94439094 46.835443,3.87288349 46.835443,3.87288349 L47.4244755,3.13609467 C47.4244755,3.13609467 48.7316778,3.22819328 48.7341772,4.71599752" id="Fill-79" fill="#FFC28A"></path><path d="M48.7341772,4.88072433 C48.5928074,4.97280657 48.4284239,5.01775148 48.2640405,5.01775148 C48.0741775,5.01775148 47.8847256,4.95709413 47.7330818,4.83577943 C47.4297943,4.59534246 47.3817121,4.19303075 47.6167805,3.89814832 L47.7256846,3.76331361 C47.7256846,3.76331361 48.6281499,3.8331061 48.7341772,4.88072433" id="Fill-80" fill="#FFC28A"></path><path d="M26.7405063,70.585652 C24.5348747,74.8941841 19.2551273,91.3038543 18.3544304,94.0322073 C16.7566923,93.5552735 12.0253165,91.7316355 12.0253165,91.7316355 C13.4436068,87.5575051 17.3212061,73.4484066 18.6445851,70.585652 C18.8125051,70.2262237 18.9258608,69.843755 18.9873418,69.4516863 C22.5954638,56.7180924 24.4380786,50.3016309 24.515186,50.2023017 C24.5174915,50.2023017 24.5174915,50.1999977 24.5174915,50.1999977 C25.2006994,49.9450186 26.6093833,49.4892051 28.6021369,49.1962095 C29.8548127,49.0118873 31.3391951,48.8939979 33.017627,48.9293263 C33.509091,48.9412305 34.0009391,48.988463 34.487792,49.06872 C35.258226,49.1962095 36.6857385,49.401652 38.2269909,49.4561807 C38.7060305,49.4717969 39.7822656,48.8759497 41.4556962,47.6686391 L41.1296636,51.0386638 C41.3233288,58.5217622 39.1529428,73.047925 39.1529428,73.047925 C37.6497318,82.1184986 37.6497318,89.1124344 36.7568259,93.6163303 C33.9014167,94.2967865 31.2873205,94.0322073 31.2873205,94.0322073 C30.892305,88.5874055 31.2873205,73.9468446 31.2873205,73.9468446 C31.5470779,70.0491975 31.4905922,66.9168717 31.3107602,64.5076265 C31.1012124,61.6887765 31.0933991,59.6083707 31.2873205,58.2664091" id="Fill-82" fill="#1A458F"></path><path d="M41.026959,30.7576031 L41.1392405,31.7927188 C37.4565664,31.4518293 35.5965819,33.2426036 35.5965819,33.2426036 L35.5942014,33.2426036 C35.5406396,32.8077586 35.4894582,32.3901789 35.443038,32.0003041 C35.443038,32.0003041 37.3589648,30.5303435 41.0245785,30.7576031 L41.026959,30.7576031" id="Fill-83" fill="#FFFFFF"></path><path d="M33.5983355,22.2557048 C33.6249911,22.072744 37.1649243,21.6385567 40.4583677,23.411579 C41.3168356,24.2447792 41.7838144,26.0637732 41.8593042,28.8685611 C41.9725388,33.0757429 41.582513,45.678023 41.1392405,49.6048176 C40.5198329,49.8293968 28.9141085,49.1458671 28.6922396,49.6048176 C26.6593562,49.8995813 25.2223044,50.3581455 24.5253382,50.6146633 C24.2121346,50.7313326 24.0506329,50.8047337 24.0506329,50.8047337 C24.1423596,47.6686391 23.4917285,41.797965 23.4917285,36.3786982 C23.4917285,30.9594314 24.1423596,26.8732643 24.0506329,25.5497252 C24.5810015,25.3523147 33.5720719,22.4337992 33.5983355,22.2557048 Z" id="Fill-84" fill="#E76C63"></path><path d="M41.1312419,99.9066467 C41.1656898,100.117802 41.1116145,100.451881 40.5075735,100.626085 C40.5075735,100.626085 39.1328595,101.288963 35.9568375,101.140777 C35.7004806,101.129465 35.4469276,101.166417 35.2053913,101.245224 C34.7619739,101.391524 33.9660658,101.609467 33.1873816,101.609467 L31.0560141,101.609467 C31.0560141,101.609467 30.905805,100.414929 31.1645652,99.1902252 C31.2506852,98.7841273 31.2827298,98.3712423 31.2827298,97.956472 L31.2827298,97.7287254 C31.2827298,97.4459274 31.5242661,97.2189349 31.822281,97.2189349 L32.8224736,97.2189349 C33.0467859,97.2189349 33.2614848,97.301889 33.4265146,97.4508292 C33.6996949,97.6962979 34.2716913,98.0028508 35.2374359,97.5963759 C35.2374359,97.5963759 35.5134202,97.3995485 35.9324035,97.3181027 C36.2624631,97.2555101 36.6838498,97.2653138 37.1272671,97.5062576 L37.9624299,98.3018626 C38.1546976,98.487378 38.3838166,98.6333018 38.6373696,98.7354861 L40.9265569,99.6585386 C41.035108,99.7026551 41.1140179,99.7957899 41.1312419,99.9066467" id="Fill-85" fill="#121836"></path><path d="M37.2359681,39.8420656 C37.0957592,39.2704586 36.9679335,38.6826631 36.8476974,38.0875442 C36.577266,36.7431307 36.3535709,35.3752053 36.1766121,34.1302352 C36.1398622,33.8881791 36.1079058,33.6515192 36.0759494,33.4214117 L36.0783461,33.4214117 C36.0783461,33.4214117 37.9509934,31.7023508 41.6587393,32.0295891 L42.3713678,38.1962382 C42.3713678,38.1962382 42.9465837,40.4583836 43.388781,41.6104627 C43.388781,41.6104627 44.1405562,44.6808751 44.2731754,47.1538559 C44.2731754,47.1538559 44.7153726,54.3191792 46.7034626,58.2857387 C46.7034626,58.2857387 47.201983,59.3121646 46.2612654,60.5879698 L44.2731754,63.1700301 C44.1137927,63.3762403 43.8090081,63.4093882 43.6048864,63.2432637 C43.4990307,63.1557689 43.4427075,63.0301155 43.4427075,62.9044622 C43.4427075,62.816582 43.4698704,62.7287017 43.5237969,62.6531555 L44.2292353,61.6687426 L43.7007557,62.1482296 C43.6344461,62.2098999 43.5461664,62.2407351 43.459884,62.2407351 C43.3692076,62.2407351 43.2805285,62.2072019 43.2118222,62.1409062 C43.0764068,62.0129403 43.07401,61.8044174 43.2018358,61.6714407 L44.3103248,60.5166635 C44.4944738,60.3270272 44.6123131,60.0853565 44.6466663,59.8267265 C44.6934026,59.4782891 44.649063,59.1225283 44.5164438,58.79529 L44.2264391,58.0818412 L43.7351089,59.8483111 C43.6564161,60.1373909 43.383588,60.3320379 43.0863932,60.3320379 C43.0324667,60.3320379 42.9809369,60.3247146 42.926611,60.3127659 C42.5778863,60.2298964 42.356588,59.9026581 42.4205009,59.5638567 C42.693329,58.1242395 42.7252854,56.1542574 42.7252854,56.1542574 C42.7252854,54.5631625 42.4452671,53.2707833 42.3098517,52.7423456 C42.2707051,52.5881697 42.2191753,52.4363065 42.1576592,52.2871413 L41.8848311,51.6423008 L39.2628052,45.4232318 L39.2628052,45.4205338 L37.9805531,42.3809566 C37.9310206,42.2653247 37.8870805,42.1489219 37.8499312,42.0302065 C37.6266356,41.3522182 37.4225138,40.6125595 37.2359681,39.8420656" id="Fill-81" fill="#FFC28A"></path><path d="M37.9454925,14.1119493 C38.0841817,14.9556109 37.725351,15.8085691 36.939996,16.4515802 C36.465591,16.8424225 35.8464429,17.2572809 35.0946595,17.5621302 L34.8101266,17.5241693 C34.9691788,17.2499212 35.1320836,16.9903926 35.0842028,16.6592031 C35.026966,16.2826929 34.946064,16.2110321 35.3417684,15.9108311 C35.7820515,15.5773175 36.2355431,15.2771165 36.3742323,14.8146133 C36.4457783,14.5740651 36.4859541,14.2641802 36.3879911,14.0236321 C36.2999345,13.8140724 36.0594298,13.6781104 35.9614669,13.4805588 C35.79526,13.1516935 36.198119,12.9398097 36.3472649,12.5989363 C36.6758262,11.8482402 35.7176601,11.2811508 36.0054952,10.559119 C36.1441843,10.2089491 36.3472649,9.78247003 36.2933302,9.41060816 L36.3302039,9.40828402 C36.3302039,9.40828402 36.7435197,10.2159215 37.1628893,11.3384795 C37.4710875,12.1581251 37.7858899,13.1470452 37.9454925,14.1119493" id="Fill-89" fill="#FFC28A"></path><path d="M36.0500195,97.1727067 L36.0759494,97.2887725 C35.6384877,97.3840966 35.3503318,97.6144629 35.3503318,97.6144629 C34.3419952,98.0902004 33.7447722,97.7314114 33.4595439,97.4441154 C33.2872358,97.269796 33.0630681,97.1727067 32.828863,97.1727067 L32.278481,97.1727067 L32.278481,95.7794756 L36.0500195,95.3372781 L36.0500195,97.1727067" id="Fill-91" fill="#D9844B"></path><path d="M17.5170076,99.3547945 C17.9354443,99.5531553 19.1212038,100.209563 18.9749211,101.313417 C18.9749211,101.313417 18.6910494,101.509128 18.1123443,101.581053 C17.544979,101.656006 16.6960099,101.606794 15.5544753,101.136256 C15.5544753,101.136256 14.6128983,100.451835 14.0806862,99.3222392 C14.0806862,99.3222392 13.2782101,97.8368051 10.9342844,98.5799007 C10.9342844,98.5799007 10.4323116,97.9670266 11.129706,96.9562955 C11.1784669,96.8843708 11.2249599,96.8124461 11.2669169,96.7352217 C11.3924102,96.4978702 11.6808177,95.9364791 11.9155505,95.2963494 C12.0599433,94.9026564 12.4598583,94.6603837 12.8760271,94.7186806 C12.9153382,94.7232232 12.9572953,94.7304157 12.9992523,94.7372296 C13.775647,94.8538233 14.9013059,95.1543928 15.6523752,95.906195 C15.6523752,95.906195 16.1868552,96.3812765 16.1868552,97.687656 C16.1868552,97.687656 16.2938269,99.0265908 17.2448537,99.2688635 C17.3378396,99.2919551 17.4308255,99.3154252 17.5170076,99.3547945" id="Fill-98" fill="#121836"></path><path d="M18.3520315,101.69361 L18.3544304,101.721718 C17.0610202,102.432022 14.9259937,102.200698 14.9259937,102.200698 C12.3139848,102.081808 12.1392645,100.502048 12.1392645,100.502048 C11.7950215,99.5159796 10.7594937,98.6822278 10.7594937,98.6822278 C13.2387631,97.9365992 14.0875761,99.4270967 14.0875761,99.4270967 C14.6505194,100.560543 15.6464652,101.247296 15.6464652,101.247296 C16.8539146,101.719439 17.7519051,101.768819 18.3520315,101.69361" id="Fill-99" fill="#121836"></path><path d="M16.4556962,94.6726651 L15.8189572,95.964497 C14.9241902,95.152862 13.5831656,94.8283715 12.6582278,94.7024986 L13.3120787,93.4556213 L16.4556962,94.6726651" id="Fill-101" fill="#D9844B"></path><path d="M36.3611134,13.3123302 C36.2418856,12.9869956 36.5308748,12.7773866 36.637864,12.4401728 C36.8735561,11.6975361 36.1862196,11.136535 36.3926969,10.422255 C36.492185,10.0758444 36.637864,9.65394404 36.5991742,9.28607447 C36.5991742,9.27917692 36.5964106,9.26959698 36.5964106,9.26269943 C36.5553521,8.95154309 36.3393997,8.8595757 36.1716122,8.61662851 C35.9698724,8.32233285 36.0160634,7.94488335 35.9118377,7.58199535 C35.7855036,7.13863589 35.5280979,6.7592704 35.1419893,6.49064898 C34.7483796,6.21474681 34.2726527,6.07104776 33.8012686,6.0189329 C33.3543617,5.96950043 32.8592899,6.22394355 32.4562052,6.1557344 C32.2327517,6.11818105 32.0041659,6.02621365 31.7736062,5.93654545 C31.5548903,5.85185881 31.3314368,5.76908816 31.1032459,5.73153481 C30.6176491,5.65374572 30.109944,5.60891162 29.6219785,5.68210233 C29.4395836,5.70777656 29.2575836,5.75261067 29.0826898,5.81660464 C28.1162339,6.16761352 27.5382554,6.84663942 26.9385632,7.62682946 C26.5958819,8.07210491 25.9792135,8.29359304 25.4667708,8.49400532 C24.8690526,8.73005495 24.3956945,8.99407801 24.017087,9.51944173 C23.7592865,9.87543217 23.5820239,10.2785559 23.453321,10.6912596 C23.3151431,11.1342358 23.2543448,11.3369473 23.0454988,11.4879271 C22.7296635,11.7163128 22.3072338,11.7849051 21.9744224,11.9991125 C21.5954201,12.2443589 21.2724786,12.5624128 21.0028342,12.916104 C20.5902744,13.4606276 20.2065346,14.156131 20.0486169,14.8186794 C19.9053067,15.4195331 20.0217709,15.9970116 19.992951,16.6005477 C19.9538663,17.3546803 19.5799964,18.1256736 19.6238185,18.8610295 C19.6818532,19.8036952 19.883593,20.7988591 20.5464523,21.5273174 C20.5610596,21.5457109 20.575667,21.5625716 20.5926432,21.5790491 C20.9811205,21.9821728 21.5326479,22.2201384 21.8871729,22.6562172 C22.3218412,23.1888616 22.3119714,24.0349616 22.69808,24.6338993 C23.0186528,25.1335888 23.4825358,25.5554892 24.0435382,25.7746781 C24.0482757,25.7769773 24.0530132,25.7792765 24.0581456,25.7792765 C24.3155513,25.8785246 24.5851957,25.9302563 24.8572088,25.9467338 C25.0802674,25.9609121 25.3037209,25.9540145 25.5248056,25.9279571 C25.8477471,25.8927029 26.2196431,25.7037866 26.5449535,25.7536023 C26.8896087,25.8053339 27.2540036,26.0620762 27.6014224,26.156726 C28.2571754,26.3379784 28.9492494,26.38971 29.6243473,26.300425 C29.7601564,26.2839475 29.8963604,26.2601893 30.0298008,26.2318327 C30.173111,26.2011769 30.3140525,26.1636235 30.454994,26.1187894 C31.0428424,25.9256579 31.5888426,25.5980241 31.9338926,25.1052321 C32.1012853,24.8645841 32.2205131,24.5653069 32.4562052,24.377157 C32.8154678,24.0893757 33.3227782,24.0916749 33.6654594,23.7475635 C33.8644356,23.5448521 33.9836634,23.280829 34.0586743,23.0099084 C34.1194726,22.797617 34.1557937,22.5734465 34.1289477,22.3569399 C34.107234,22.1799027 34.0444617,22.0055479 34.0709129,21.8288938 C34.0977589,21.6472582 34.2359369,21.55759 34.4037243,21.4985776 C34.5734858,21.4376492 34.7700932,21.4092926 34.9110347,21.3456818 C35.3555729,21.1475687 35.6568007,20.7068917 35.7539201,20.2401572 C35.800111,20.0209682 35.8072173,19.7967977 35.7807661,19.5730104 C35.7539201,19.3231656 35.6883843,19.0756201 35.5983712,18.8399536 C35.4479547,18.4437274 35.2801672,18.0762411 35.4065013,17.6516583 C35.4432171,17.5317175 35.4890133,17.4209734 35.5352042,17.3125285 C35.6492997,17.0412247 35.7661587,16.7844824 35.7318116,16.4568486 C35.690753,16.0843807 35.6327183,16.0134891 35.9165752,15.7165111 C36.2324105,15.3865781 36.5577208,15.0896001 36.6572089,14.6320623 C36.7085322,14.3940967 36.7373521,14.0875387 36.6670788,13.8495731 C36.6039117,13.6422632 36.4313867,13.5077609 36.3611134,13.3123302 Z" id="Fill-106" fill="#1E3135"></path><path d="M35.8260885,19.469603 L35.7566031,19.4790002 C35.7324959,19.2339202 35.7361014,18.9558822 35.6552714,18.72471 C35.5202003,18.3360401 35.3295924,17.9782401 35.443038,17.5621302 C35.4760081,17.4441008 35.5570701,17.3327905 35.5985487,17.2264137 L35.7566031,17.1656846 C36.2408739,16.8698594 36.6649371,16.5648478 36.9705312,16.1855751 C37.3693633,15.6909043 37.6005086,15.0688069 37.6334788,14.4260355 L39.2405063,14.8677059 L35.8260885,19.469603 Z" id="Fill-108" fill="#FFC28A"></path><path d="M36.4710784,9.40828402 C36.8204747,10.1070744 37.0993507,10.8294936 37.3434244,11.5600472 C37.5897878,12.2902135 37.7807423,13.0350993 37.9080453,13.7900564 C37.9744443,14.1611435 38.0078728,14.5686421 37.928194,14.9532868 C37.8517206,15.3394808 37.6932787,15.7156036 37.4487471,16.0467931 C37.206505,16.3822435 36.8859579,16.6603651 36.5548785,16.9175696 C36.2141827,17.168189 35.8469273,17.395567 35.443038,17.5621302 C35.8139568,17.3494717 36.1564843,17.1073741 36.4591723,16.8335133 C36.7659817,16.5631388 37.0585954,16.278432 37.260998,15.9549897 C37.6818306,15.3057808 37.7912746,14.5550847 37.6291693,13.8225943 C37.5105669,13.0784832 37.3292288,12.3409571 37.134153,11.6049805 C37.0366151,11.2369922 36.9303766,10.870166 36.8163534,10.5048892 C36.7110308,10.1376756 36.5892229,9.77394819 36.4710784,9.40828402" id="Fill-109" fill="#FFC28A"></path></g><g id="Group-57" transform="translate(96.000000, 45.000000)"><path d="M58.5870661,10.3331203 L27.1154533,0.509215829 C25.6739281,0.0620992641 24.140283,0.859674835 23.6898064,2.29044784 L1.2834029,73.469295 C0.832926277,74.900068 1.63669805,76.4222738 3.07822324,76.8693904 L35.3424724,86.8757586 C36.7839976,87.3228752 38.318655,86.5250987 38.7691317,85.0943257 L60.7857969,15.1534388 C61.5764087,12.6422513 60.0285913,10.7802369 58.5870661,10.3331203" id="Fill-7" fill="#8BA6DB"></path><path d="M58.3060499,10.1301412 L25.995042,0.124251031 C24.5514729,-0.322866619 23.0156534,0.474811364 22.5645381,1.90558785 L0.125352527,73.0843064 C-0.325762791,74.5150828 0.479148585,76.0372924 1.9227176,76.48441 L34.2337255,86.4908026 C35.6772945,86.9379202 37.2131141,86.1401418 37.6642294,84.7093653 L60.1024012,13.5305463 C60.5535165,12.0995688 59.7496189,10.5772588 58.3060499,10.1301412" id="Fill-8" fill="#DDE8FF"></path><polyline id="Fill-13" fill="#283C8E" points="4.63291139 65.8343866 38.165468 76.2212389 56.3670886 18.4702195 22.835546 8.0840708 4.63291139 65.8343866"></polyline><path d="M44.4462764,9.86993488 L37.3040195,7.72017234 C37.0500188,7.6439534 36.7778753,7.78124459 36.699256,8.02543648 C36.6196288,8.26953129 36.7627562,8.53168561 37.0157489,8.60800165 L44.1580058,10.7576671 C44.4120065,10.8339831 44.6841501,10.6965948 44.7627693,10.4525 C44.8423965,10.2083081 44.6992691,9.94615383 44.4462764,9.86993488" id="Fill-14" fill="#1B2B80"></path><path d="M46.3569834,10.4818674 C45.9790757,10.6791655 45.8337266,11.1442768 46.0311591,11.5208818 C46.2285917,11.8974867 46.6961314,12.0428642 47.0740391,11.8455662 C47.4507356,11.6482682 47.5972959,11.1830361 47.3986521,10.8065519 C47.2012196,10.4299469 46.7348911,10.2845694 46.3569834,10.4818674" id="Fill-15" fill="#1B2B80"></path><path d="M38.165468,76.2212389 L4.63291139,65.8357637 L15.5914024,55.8050812 C15.6076267,55.8101066 15.624865,55.816137 15.6421033,55.8211624 L34.8942464,61.789318 C35.098064,61.852638 35.3049236,61.8827903 35.5056992,61.8827903 C36.2966331,61.8827903 37.0115157,61.4194492 37.2427118,60.6837318 L39.0050748,55.1005212 C39.2960979,54.1788643 38.7160797,53.1778062 37.70916,52.8662319 L23.5849052,48.4871053 L30.7712498,41.9088671 L38.8560142,44.4285986 C39.0567897,44.4909135 39.2606073,44.5301116 39.4623969,44.548203 C39.6743266,44.6095128 39.8892984,44.63866 40.1002141,44.63866 C41.0696152,44.63866 41.968035,44.0195317 42.2722403,43.0546565 L42.2945487,42.9832959 C42.364516,42.8466052 42.423329,42.702879 42.4709878,42.5521173 L47.4995024,26.5957939 L56.3670886,18.4778761 L38.165468,76.2212389" id="Fill-16" fill="#253783"></path><path d="M47.5611692,22.7663093 C47.2176955,22.100537 46.6039142,21.6111763 45.8834324,21.3881446 L11.941526,10.882194 C10.7393682,10.5099374 9.45997952,11.1741993 9.08398762,12.3656819 L3.19310917,31.053019 C2.81711728,32.2446023 3.48780553,33.5125098 4.6899634,33.8840615 L39.1521612,44.5513199 C40.3543191,44.9238785 41.6337078,44.2593145 42.0096997,43.068134 L47.7390032,24.8939208 C47.9473231,24.235197 47.9168372,23.5193811 47.6241733,22.8931806 C47.6038494,22.8503867 47.5835255,22.8079955 47.5611692,22.7663093" id="Fill-17" fill="#4EBED8"></path><path d="M12.8652255,14.4994123 L12.8388784,14.5818746 C12.8114335,14.6569647 12.7675217,14.7133087 12.7038495,14.7510117 C12.6412751,14.7889254 12.5808964,14.801458 12.5216154,14.7886095 L12.2394819,14.7042515 L12.416227,14.1611379 C12.4425741,14.1010026 12.4897793,14.0826776 12.5589404,14.1059524 L12.7269032,14.1561881 C12.7839886,14.1781991 12.8268026,14.2216945 12.8553453,14.2869903 C12.8849858,14.3523914 12.8882792,14.4231636 12.8652255,14.4994123 M12.4820947,15.6749473 L12.4557476,15.7575149 C12.4294005,15.8324997 12.3843909,15.888949 12.3218165,15.9266521 C12.2592422,15.9645658 12.1977656,15.9770983 12.1384846,15.9642498 L11.9705219,15.9140142 C11.9002629,15.8953733 11.8717202,15.8541948 11.8859916,15.7905841 L12.0627367,15.2473651 L12.3448703,15.3317231 C12.4008578,15.3537341 12.4436719,15.3973348 12.4722146,15.4626306 C12.5018551,15.5280318 12.5051485,15.598804 12.4820947,15.6749473 M13.3098328,13.8593028 C13.2209114,13.7570412 13.1133274,13.685953 12.9881786,13.645933 L12.5303978,13.5086012 C12.3898799,13.461525 12.2581444,13.4617356 12.1351912,13.5092331 C12.0122381,13.5566252 11.9310012,13.6408778 11.889285,13.7615697 L11.2152383,15.8310253 C11.1779133,15.9530863 11.195478,16.0671434 11.2679325,16.1731964 C11.340387,16.2792494 11.4490688,16.3511801 11.5917823,16.3890938 L12.050661,16.5264256 C12.1769075,16.5618117 12.3075452,16.5620223 12.4414763,16.5268469 C12.5754074,16.4915661 12.6983605,16.4221629 12.8103357,16.3184269 C12.9223109,16.2147961 12.9980588,16.1088484 13.0408728,16.0006891 L13.110034,15.7875299 C13.1396745,15.6757898 13.1440656,15.5703687 13.1243053,15.4710559 C13.1034472,15.3719537 13.0836869,15.2982327 13.0650243,15.2495768 C13.1089362,15.220299 13.1693149,15.1703793 13.2450629,15.099923 C13.3208108,15.0294667 13.378994,14.9402642 13.4207102,14.8319996 L13.4909691,14.6187351 C13.5206096,14.5071003 13.5195118,14.3780885 13.4898713,14.2319101 C13.4591331,14.0857318 13.3998521,13.9615645 13.3098328,13.8593028" id="Fill-18" fill="#FFFFFF"></path><path d="M14.3923259,15.5016323 L14.1326205,15.4118826 L14.3411295,14.8410955 C14.3588155,14.8247962 14.3792941,14.819535 14.4016343,14.8250025 L14.4723784,14.8495547 C14.4937879,14.8593549 14.5077505,14.8764796 14.5142664,14.9007223 L14.3923259,15.5016323 M14.7022968,14.3525273 L14.4686551,14.2715463 C14.3727782,14.2358528 14.2694546,14.234099 14.1586842,14.2660788 C14.0488446,14.2980586 13.9743771,14.3543842 13.9371434,14.4349526 L13.1394105,16.612671 C13.1198628,16.6873592 13.1226553,16.7566831 13.1477881,16.8207458 C13.17199,16.8847053 13.2082929,16.9275169 13.2566968,16.9489743 L13.3730522,16.9894132 C13.4605515,17.0097358 13.5359498,16.9741455 13.5983163,16.8825389 L13.9445901,15.9306769 L14.2796938,16.0468356 L14.0758391,17.0479052 C14.0804933,17.1629292 14.124243,17.2394743 14.2061572,17.2777469 L14.3234435,17.3182889 C14.373709,17.3307714 14.4249054,17.3184953 14.4788944,17.2814606 C14.5319524,17.244426 14.5691862,17.189132 14.5924573,17.1156817 L15.0550865,14.8219077 C15.0653258,14.7318485 15.0336771,14.6389009 14.9592096,14.5430648 C14.8847421,14.4471255 14.7991045,14.3835786 14.7022968,14.3525273" id="Fill-19" fill="#FFFFFF"></path><path d="M16.8460022,14.9883529 L16.7179215,14.9493407 C16.6630298,14.9373293 16.6071216,14.9491421 16.5481638,14.98468 C16.4902226,15.0202178 16.449562,15.0735245 16.4241492,15.1442031 L16.0907328,16.1875063 L15.9911145,14.97654 C15.9768833,14.8181088 15.9158925,14.7164587 15.8081421,14.6718875 L15.681078,14.6329746 C15.6261862,14.6207647 15.5692615,14.6325775 15.5113202,14.6683139 C15.453379,14.703951 15.4117019,14.7570592 15.3873056,14.827837 L14.6848949,17.0245312 C14.6635481,17.0963018 14.6665977,17.1630096 14.6940435,17.2246548 C14.7204729,17.2861015 14.7601169,17.3273969 14.8119591,17.3480446 L14.9400397,17.3869575 C14.9949315,17.3989689 15.0518562,17.387156 15.1097975,17.3515189 C15.1677387,17.3158818 15.2094158,17.2627736 15.2338121,17.1919958 L15.5672285,16.1486926 L15.6668468,17.3598574 C15.681078,17.5182886 15.7420688,17.6198394 15.8498192,17.6645099 L15.9768833,17.7034228 C16.0317751,17.7154342 16.0886998,17.7036213 16.1466411,17.6679842 C16.2045823,17.6323471 16.2462594,17.5792389 16.2706557,17.5084611 L16.9740829,15.3117669 C16.9944132,15.2398971 16.9913636,15.1731893 16.9649343,15.1116433 C16.9374884,15.0500973 16.8978444,15.0090005 16.8460022,14.9883529" id="Fill-20" fill="#FFFFFF"></path><path d="M18.7825059,15.3643422 L18.6548454,15.3254972 C18.592547,15.3091467 18.5322912,15.3191552 18.474078,15.3558201 L17.6590931,16.0426419 L17.8725415,15.3795036 C17.8939885,15.3077594 17.8909246,15.2412672 17.8633499,15.1797297 C17.8367965,15.1182913 17.7969665,15.0772663 17.7438597,15.0566547 L17.6161991,15.0178098 C17.5610498,15.0058194 17.5038578,15.0176116 17.4456446,15.0530873 C17.3874314,15.0886621 17.3455587,15.1416775 17.3210479,15.2123317 L16.6153404,17.4051869 C16.5938934,17.476832 16.5969573,17.5434233 16.624532,17.6049608 C16.6510854,17.6664983 16.6898942,17.7071269 16.7409584,17.7272431 L16.8716828,17.7669798 C16.9268321,17.7789702 16.9840241,17.767178 17.0422373,17.7317023 C17.1004505,17.6960284 17.1423232,17.643013 17.166834,17.5723588 L17.3578142,16.9805684 L17.5375602,16.8398546 L17.6396887,17.8719206 C17.6499015,17.9581325 17.6989232,18.0154089 17.7857323,18.0440472 L17.90318,18.0795229 C17.9664997,18.1035037 18.0267554,18.0952789 18.0849687,18.0549475 C18.1431819,18.014418 18.1727991,17.9578352 18.1738204,17.8847037 L18.035947,16.4301992 L18.8550171,15.7483321 C18.8805492,15.7184057 18.8999536,15.6772816 18.9111877,15.6252572 C18.9234432,15.5731336 18.9183367,15.522001 18.8968898,15.4716612 C18.8754428,15.4213213 18.8376553,15.3856474 18.7825059,15.3643422" id="Fill-21" fill="#FFFFFF"></path><path d="M16.3006043,19.2278847 L11.4040895,17.7271923 C11.1792443,17.6580036 10.9390687,17.7814402 10.8685491,18.0027437 L9.28543462,22.9763068 C9.21491499,23.1977106 9.34062389,23.4330524 9.56546907,23.5022411 L14.461984,25.0029335 C14.6878512,25.072022 14.9280267,24.9486856 14.9985463,24.7273821 L16.5816608,19.7537187 C16.6521805,19.5325155 16.5264716,19.2969731 16.3006043,19.2278847" id="Fill-22" fill="#FFCC4D"></path><path d="M14.277944,20.9459625 L13.8579107,22.2305255 C13.7287532,22.6245716 13.2891835,22.8450756 12.8756624,22.7220205 C12.4632266,22.5988616 12.2331309,22.178069 12.3612031,21.784023 L12.7823217,20.49946 C12.9103938,20.105414 13.3510489,19.8849099 13.7634846,20.0080687 C14.1759204,20.1312275 14.4071015,20.5519165 14.277944,20.9459625 M13.8698497,19.6824443 C13.2696471,19.5032005 12.628201,19.8241599 12.4404341,20.3977606 L12.0204009,21.6823237 C11.8326341,22.2560281 12.1690948,22.8685048 12.7692974,23.0476449 C13.3705853,23.2268887 14.0109461,22.9059293 14.1987129,22.3322249 L14.6187462,21.0477655 C14.806513,20.4741647 14.4711376,19.8616881 13.8698497,19.6824443" id="Fill-23" fill="#F7B41E"></path><path d="M38.3882201,32.7212389 C38.0967819,32.6996937 37.8022867,32.6455315 37.5108485,32.5564581 C35.4381729,31.9226703 34.2785343,29.7564807 34.9266276,27.7277414 C35.4524391,26.0801325 37.0105124,25.0221239 38.6878104,25.0221239 C39.0750359,25.0221239 39.4693945,25.07868 39.8596771,25.1977771 C41.1691108,25.5981586 42.1137374,26.6102839 42.4683544,27.8129247 C42.3746051,27.9614469 42.2798367,28.1100688 42.1820113,28.2579925 C42.1463458,28.1506655 42.0984521,28.0418424 42.0383303,27.9317225 L40.8766537,27.6448522 C40.8817487,28.0171053 40.9204713,28.2029326 40.8735966,28.5337909 C40.832836,28.8186663 40.7696571,29.0946642 40.7207444,29.2650308 L41.3464194,29.4561447 C41.2343278,29.6072603 41.1191791,29.7579769 41.0030115,29.907297 L40.552607,29.7694477 C40.2988724,30.4331593 40.061442,30.7829695 39.6752355,31.2208556 L39.853563,31.2723247 C39.7598137,31.3745646 39.6650453,31.4763058 39.569258,31.5770495 L39.2982001,31.4938611 C38.8844802,31.8959383 38.5074448,32.0587242 38.1772841,32.211336 C38.4147145,32.2472447 38.6490878,32.2691889 38.8783661,32.2694881 C38.7183808,32.4224989 38.5553385,32.5732155 38.3882201,32.7212389 M37.965329,31.0863976 L37.6392444,32.1082981 C37.9785762,32.0129407 38.4024863,31.7482141 38.8610428,31.3602011 L37.965329,31.0863976 M35.5523025,30.348375 C35.8264174,31.1114339 36.3797424,31.4887741 37.0247786,31.8310035 C36.8484891,31.5258797 36.637553,31.2085868 36.5417657,30.6508057 L35.5523025,30.348375 M36.9554856,30.7302037 C37.0492349,31.1296875 37.0645202,31.4926642 37.4303464,31.7965911 L37.7044613,30.9370775 L36.9554856,30.7302037 M38.6113843,29.1760571 L38.1171622,30.7248174 L39.3145043,31.076822 C39.6650453,30.8134919 39.9269321,30.3193488 40.1847428,29.6570336 L38.6113843,29.1760571 M36.8800785,28.6465042 C36.706846,29.3348532 36.7200932,30.020509 36.7781771,30.289026 L37.7808874,30.5934516 L38.2669573,29.0706253 L36.8800785,28.6465042 M35.2129707,28.1367011 C35.1049551,28.6596707 35.0529854,29.1856328 35.2394651,29.7985736 L36.3868755,30.1801031 C36.3236966,29.6048663 36.3349057,29.2210427 36.5122143,28.5340902 L35.2129707,28.1367011 M39.2717057,27.1085165 L38.7815597,28.6435118 L40.3569562,29.1424427 C40.4068879,28.9721758 40.4619147,28.7243063 40.4996183,28.4607767 C40.551588,28.1025878 40.5138845,27.8657902 40.4914662,27.4816673 L39.2717057,27.1085165 M37.8705607,26.7554148 C37.6514725,26.9903172 37.471107,27.2019788 37.3050076,27.5251567 C37.1827258,27.762852 37.0910145,27.9772068 37.0319117,28.1444813 L38.4238856,28.5775796 L38.9048605,27.0717102 L37.8705607,26.7554148 M36.3960466,26.2436167 C35.7408202,26.721501 35.5421124,27.1256729 35.3627658,27.6267981 L36.6671045,28.025484 C36.7262073,27.8583092 36.8352419,27.5962758 36.9666948,27.3393294 C37.120566,27.0408886 37.26119,26.9099217 37.4812971,26.6067928 L36.3960466,26.2436167 M40.2835872,25.6158137 C40.5332458,26.0086145 40.8430262,26.9099217 40.8603494,27.0660246 L42.0108169,27.4180292 C41.6490667,26.7790546 41.0824946,25.9963457 40.2835872,25.6158137 M39.8158595,25.4814554 L39.4255769,26.6271411 L40.4405154,26.9375514 C40.3783555,26.9185997 40.0848793,25.8252808 39.8158595,25.4814554 M39.429653,25.3692409 C39.0638267,25.5821992 38.2985468,26.2071095 38.2516721,26.2681543 L39.080131,26.5216095 L39.429653,25.3692409 M38.7968449,25.2688962 C38.0672305,25.2688962 37.3223308,25.5218527 36.7985573,25.8237846 L37.8318381,26.1397808 C37.9072452,26.0118063 38.6867914,25.4689872 39.1096824,25.2851548 C39.0057429,25.2741827 38.9018034,25.2688962 38.7968449,25.2688962" id="Fill-24" fill="#E8F7FA"></path><path d="M21.8708178,17.3317929 C21.7687894,17.3001586 21.6609722,17.3566535 21.6291336,17.4581137 C21.5972949,17.5595019 21.6537362,17.6674474 21.7557645,17.6991538 C21.8577929,17.7308601 21.9656101,17.6742931 21.9974487,17.5728329 C22.0292873,17.4714448 21.9728461,17.3634992 21.8708178,17.3317929" id="Fill-25" fill="#FFFFFF"></path><path d="M23.807431,16.6619607 C24.0709795,17.1940746 24.1366142,17.8166037 23.9376906,18.4209729 C23.7397768,19.0252461 23.3136562,19.5016312 22.778481,19.7965134 L22.9127797,20.0176991 C23.5045017,19.6916856 23.9750519,19.1652407 24.1951805,18.4972637 C24.4142994,17.8292868 24.3415964,17.1412283 24.0507842,16.5530973 L23.807431,16.6619607" id="Fill-26" fill="#FFFFFF"></path><path d="M23.1111836,16.6690563 C23.2951507,17.0667762 23.3403885,17.5321473 23.2016592,17.9839063 C23.0639352,18.4356653 22.7653657,18.7916277 22.3924051,19.0121852 L22.5261079,19.2477876 C22.9563698,18.9942745 23.2981665,18.5847847 23.4580068,18.0651697 C23.6168418,17.5457595 23.564567,17.0105878 23.3534572,16.5530973 L23.1111836,16.6690563" id="Fill-27" fill="#FFFFFF"></path><path d="M22.4063467,17.0486686 C22.5081694,17.2530924 22.5341446,17.4923034 22.4562191,17.7244788 C22.3793326,17.9567518 22.2141305,18.1396779 22.0063291,18.2530295 L22.144517,18.4778761 C22.4105028,18.3329619 22.6224601,18.0990277 22.7211658,17.8021637 C22.8198714,17.505202 22.7866232,17.1995435 22.6557084,16.9380531 L22.4063467,17.0486686" id="Fill-28" fill="#FFFFFF"></path><polyline id="Fill-29" fill="#FFFFFF" points="6.17721519 22.7123894 7.19081136 19.3761516 7.2156544 19.3584709 6.20305195 22.6948109 6.17721519 22.7123894"></polyline><path d="M5.79113924,22.7123894 L6.82499647,19.4670686 L11.4281468,16.4146081 L11.7812207,16.5226695 C11.8400664,16.5394702 11.8989121,16.5478208 11.9597869,16.5478208 C12.0196471,16.5478208 12.0805219,16.5395696 12.1424113,16.5230671 C12.2661901,16.4897639 12.3798231,16.4242511 12.4833102,16.3263298 C12.5867974,16.2285079 12.6568035,16.128499 12.6963721,16.0264023 L12.7602906,15.8251914 C12.7876843,15.7197148 12.7917426,15.6202029 12.7734802,15.5264569 C12.7734802,15.525264 12.7724656,15.524071 12.7724656,15.5228781 L13.3142514,15.1633031 L12.7471011,16.533406 C12.7257949,16.6053807 12.7288387,16.6721859 12.7562323,16.733921 C12.7826114,16.7955568 12.82218,16.8368129 12.8749382,16.8574907 L13.0017607,16.8964604 C13.0190086,16.9000393 13.0362565,16.9018287 13.0524897,16.9018287 C13.1265541,16.9018287 13.1914872,16.865742 13.2472891,16.7934691 L13.624713,15.87619 L13.9899618,15.9881285 L13.7677688,16.9528273 C13.7728417,17.0636722 13.820527,17.1374363 13.90981,17.1743184 L14.0376471,17.2133875 C14.0508367,17.2163698 14.0650408,17.217861 14.0792449,17.217861 C14.086347,17.217861 14.0924344,17.2175628 14.0995365,17.2168669 L12.4508437,18.3072231 L11.2637848,17.9440693 C11.2221871,17.9311456 11.1795747,17.9249821 11.1379769,17.9249821 C10.956367,17.9249821 10.7889613,18.0391076 10.7321448,18.2172548 L10.2370297,19.7717679 L5.79113924,22.7123894 M14.2994088,17.0846483 C14.3115838,17.0644675 14.3217296,17.0422986 14.3308608,17.0181413 L14.8351072,14.8077046 C14.8462675,14.7209175 14.8117718,14.6313468 14.7306054,14.5389926 C14.6636431,14.4627433 14.5885642,14.4077682 14.504354,14.3740673 L17.0235566,12.7035398 L18.7371826,13.2281395 L19.6898734,13.519617 L16.7841157,15.4413598 L16.8094802,15.3622275 C16.8297718,15.2902528 16.8267281,15.2234476 16.800349,15.1618119 C16.7729553,15.1001761 16.7333867,15.0590194 16.6816431,15.0383416 L16.553806,14.9992725 C16.5406165,14.9962901 16.5264124,14.9947989 16.5122082,14.9947989 C16.4706104,14.9947989 16.4279981,15.0081202 16.3843711,15.0346633 C16.3265401,15.070253 16.2859568,15.1236375 16.2605923,15.1944192 L16.0211514,15.94558 L15.9095476,16.0194434 L15.8283812,15.0265115 C15.814177,14.8678492 15.7533022,14.7660508 15.6457567,14.7214146 L15.5189342,14.6824449 C15.5047301,14.6793631 15.490526,14.6777725 15.4763218,14.6777725 C15.4347241,14.6777725 15.3931263,14.6910937 15.3494993,14.7178357 C15.2916682,14.7535248 15.2500705,14.8067105 15.2257205,14.8775916 L14.5814621,16.898051 L14.2994088,17.0846483 M15.3434118,16.3938309 L15.4053012,16.2003742 L15.4174762,16.3452182 L15.3434118,16.3938309 M14.1127261,15.4627335 L13.8296582,15.3762446 L14.0569241,14.8261953 C14.0711283,14.8144646 14.0873615,14.8086987 14.1046094,14.8086987 C14.1106969,14.8086987 14.1167844,14.8092952 14.1228719,14.810687 L14.1999799,14.8343471 C14.2233153,14.8437913 14.238534,14.8602938 14.2456361,14.8836557 L14.1127261,15.4627335" id="Fill-31" fill="#6CC9DF"></path><path d="M12.1875354,16.5530973 C12.1182312,16.5530973 12.0512371,16.5436881 11.984243,16.5247577 L11.5822785,16.4029982 L13.1127469,15.3982301 C13.1127469,15.3995743 13.113902,15.4009184 13.113902,15.4022626 C13.1346933,15.5078921 13.130073,15.6200184 13.0988861,15.7388655 L13.0261166,15.9655824 C12.9810689,16.0806211 12.901369,16.1933075 12.7835518,16.3035295 C12.6657346,16.4138636 12.5363667,16.487681 12.3954481,16.5252058 C12.3249888,16.5438002 12.2556846,16.5530973 12.1875354,16.5530973" id="Fill-32" fill="#FFFFFF"></path><path d="M14.3616081,16.9380531 C14.3485763,16.9380531 14.3355444,16.9366401 14.3234435,16.9338141 L14.2061572,16.8967934 C14.124243,16.8618452 14.0804933,16.7919486 14.0758391,16.6869154 L14.2796938,15.7727969 L13.9445901,15.6667275 L13.5983163,16.5359125 C13.5471199,16.6043961 13.487546,16.6385907 13.4195944,16.6385907 C13.4047009,16.6385907 13.3888765,16.6368951 13.3730522,16.6335039 L13.2566968,16.5965775 C13.2082929,16.5769838 13.17199,16.5378907 13.1477881,16.4794866 C13.1226553,16.4209883 13.1198628,16.3576858 13.1394105,16.2894849 L13.659752,14.991218 L14.7516315,14.2433628 C14.8288915,14.2752967 14.897774,14.3273894 14.9592096,14.3996409 C15.0336771,14.4871529 15.0653258,14.5720272 15.0550865,14.654264 L14.5924573,16.7488049 C14.5840797,16.7716956 14.5747712,16.7927022 14.5636011,16.8118249 L14.3802249,16.9371111 C14.373709,16.9377705 14.368124,16.9380531 14.3616081,16.9380531 M14.3848792,14.655206 C14.3690548,14.655206 14.3541613,14.6606696 14.3411295,14.6717852 L14.1326205,15.1929948 L14.3923259,15.274949 L14.5142664,14.7262329 C14.5077505,14.7040959 14.4937879,14.6884587 14.4723784,14.6795097 L14.4016343,14.65709 C14.3960493,14.6557712 14.3904642,14.655206 14.3848792,14.655206" id="Fill-33" fill="#FFFFFF"></path><path d="M14.6708861,16.5530973 L15.3367622,14.4512327 C15.3619292,14.3774958 15.4049228,14.3221672 15.4646943,14.2850402 C15.5097852,14.2572208 15.5527787,14.2433628 15.5957723,14.2433628 C15.6104531,14.2433628 15.6251338,14.2450175 15.6398145,14.2482235 L15.7708925,14.2887633 C15.8820466,14.3351979 15.9449641,14.4410978 15.9596448,14.6061527 L16.0435347,15.6390903 L15.5349521,15.9779906 L15.5223686,15.8273108 L15.4584026,16.028562 L14.6708861,16.5530973 M16.1588833,15.5622508 L16.4063586,14.7808255 C16.4325742,14.7071919 16.4745191,14.6516565 16.5342907,14.614633 C16.5793815,14.5870204 16.6234237,14.5731624 16.6664173,14.5731624 C16.681098,14.5731624 16.6957787,14.5747137 16.7094109,14.5778162 L16.8415375,14.6184594 C16.8950173,14.6399703 16.9359136,14.6827853 16.9642265,14.7469044 C16.9914907,14.8110235 16.9946365,14.8805203 16.9736641,14.9553948 L16.9474485,15.0377154 L16.1588833,15.5622508" id="Fill-34" fill="#FFFFFF"></path><path d="M10.4240506,19.6327434 L10.9421214,18.0125805 C11.0015721,17.8269099 11.1767395,17.7079646 11.3667695,17.7079646 C11.410296,17.7079646 11.454884,17.7143885 11.4984105,17.7278579 L12.7405063,18.1063483 L10.4240506,19.6327434" id="Fill-35" fill="#FFD56B"></path><path d="M3.65391442,32.7212389 C3.50210599,32.6716803 3.41061878,31.35737 3.52824519,30.9791331 L3.53126125,30.9677507 L4.73265916,27.1157778 L9.6106363,23.8232531 C9.62873267,23.8323187 9.64883975,23.8401756 9.66894683,23.8466222 L14.4855974,25.3541305 C14.5087205,25.3612823 14.5318437,25.3663187 14.5549668,25.3695421 L3.66296261,32.7149937 C3.65994655,32.7168069 3.65693049,32.7189222 3.65391442,32.7212389 M15.0194403,25.0557716 L16.5707014,20.0810747 C16.6400708,19.8588668 16.5164123,19.6222547 16.294229,19.5528525 L16.049928,19.4763993 L17.6705585,18.3828866 L17.7650618,18.4125009 C17.7881849,18.4215665 17.8113081,18.4260993 17.8334259,18.4260993 C17.8716293,18.4260993 17.9078221,18.413206 17.9440148,18.3875202 C18.00132,18.3463221 18.0304752,18.2888059 18.0314806,18.214468 L18.0244431,18.1436556 L23.2321763,14.6283186 L28.1835443,16.1779316 L24.1560966,18.8942871 C24.1902786,18.8133011 24.2204392,18.7298976 24.2475838,18.6442781 C24.4657456,17.9440109 24.3933601,17.2226915 24.1038182,16.60613 L23.8615279,16.7202558 C24.1239252,17.2780923 24.1892732,17.9307147 23.9912185,18.5642993 C23.9178277,18.8005085 23.8122655,19.0180829 23.6815695,19.2141013 L15.0194403,25.0557716 M23.4181668,16.9292683 L23.1758765,17.0433941 C23.3598563,17.4348265 23.4050972,17.8928407 23.2663584,18.3374579 C23.1286249,18.7820752 22.8300348,19.1324102 22.4570485,19.3494809 L22.5907605,19.5813588 C23.021052,19.3318534 23.3628723,18.9288371 23.5227236,18.4174366 C23.6815695,17.9062376 23.6292911,17.3795263 23.4181668,16.9292683 M22.6721942,17.2804091 L22.4309093,17.3944342 C22.529434,17.605159 22.5545678,17.8517433 22.4791663,18.0910751 C22.4047701,18.3305076 22.2449188,18.5190721 22.043848,18.6359176 L22.1775601,18.8676947 C22.4349307,18.7183138 22.6400229,18.4771689 22.7355315,18.1711545 C22.8310401,17.8650395 22.7988688,17.5499596 22.6721942,17.2804091 M21.5612781,17.5347495 C21.4476732,17.5347495 21.3411056,17.6084831 21.3059183,17.7236162 C21.2616827,17.8653417 21.3401003,18.0162335 21.4818552,18.0605542 C21.5079944,18.0689147 21.5351389,18.0728432 21.5622835,18.0728432 C21.6758885,18.0728432 21.782456,17.9991096 21.8176434,17.8839765 C21.861879,17.742251 21.7834614,17.5913591 21.6417065,17.5470384 C21.6155673,17.5386779 21.5884227,17.5347495 21.5612781,17.5347495" id="Fill-38" fill="#6CC9DF"></path><path d="M17.9337118,18.0929204 C17.9100525,18.0929204 17.8853179,18.0867424 17.8605832,18.0743865 L17.7594937,18.0340238 L18.1380417,17.7079646 L18.1455696,17.8044781 C18.1444942,17.9057967 18.113307,17.9841882 18.052008,18.040339 C18.0132929,18.0753475 17.9745778,18.0929204 17.9337118,18.0929204" id="Fill-39" fill="#FFFFFF"></path><path d="M14.5749884,25.0221239 C14.5519646,25.0189656 14.5289408,25.0140306 14.505917,25.0070231 L9.70995876,23.5299063 C9.68993806,23.5235896 9.66991736,23.5158912 9.65189873,23.5070083 L11.7650834,22.1035204 C11.7921114,22.5197306 12.0744032,22.8966589 12.5008441,23.0282235 C12.6049517,23.0603004 12.7110614,23.0754999 12.814168,23.0754999 C13.2626317,23.0754999 13.6790622,22.7907557 13.8192071,22.3471075 L14.2066076,21.1242372 C14.275679,20.9078908 14.2686718,20.6857212 14.2006014,20.48566 L16.0635274,19.2477876 L16.3067788,19.3226995 C16.5280076,19.3907026 16.6511349,19.6225446 16.5820634,19.8402727 L15.0374666,24.7146791 L14.5749884,25.0221239 M12.814168,22.7506843 C12.7430945,22.7506843 12.67102,22.7402223 12.5989455,22.7182126 C12.2355698,22.6059928 12.0243515,22.2339007 12.1114415,21.8730602 L13.9113023,20.6772332 C13.9343261,20.7901439 13.9293209,20.9099634 13.8922826,21.0273156 L13.5048821,22.2502846 C13.4087828,22.5549658 13.1224868,22.7506843 12.814168,22.7506843" id="Fill-40" fill="#FFD56B"></path><path d="M13.106953,23.0973451 C12.9950488,23.0973451 12.8798852,23.0815303 12.7668945,23.0481547 C12.3040672,22.9112636 11.9976886,22.5190753 11.9683544,22.0860147 L12.3442658,21.8462243 C12.2497447,22.2216735 12.4789855,22.6088298 12.8733665,22.7255929 C12.9515908,22.7484937 13.0298152,22.7593792 13.106953,22.7593792 C13.4415793,22.7593792 13.7523038,22.555737 13.8566029,22.2387207 L14.2770587,20.9662395 C14.3172573,20.8441363 14.3226895,20.7194658 14.2977012,20.6019839 L14.611685,20.4026549 C14.6855635,20.6108156 14.6931687,20.8419798 14.6182037,21.067085 L14.1977479,22.3394635 C14.045645,22.801073 13.5936822,23.0973451 13.106953,23.0973451" id="Fill-41" fill="#F8C144"></path><path d="M21.8136529,17.7079646 C21.7941156,17.7079646 21.7745783,17.7051542 21.7557645,17.699173 C21.6537362,17.6674657 21.5972949,17.5595167 21.6291336,17.4581253 C21.6544598,17.3757583 21.7311619,17.3230088 21.8129293,17.3230088 C21.8324667,17.3230088 21.852004,17.3258193 21.8708178,17.3318004 C21.9728461,17.3635078 22.0292873,17.4714568 21.9974487,17.5728482 C21.9721225,17.6552151 21.8954204,17.7079646 21.8136529,17.7079646" id="Fill-42" fill="#FFFFFF"></path><path d="M23.9367089,18.8628319 C24.0095142,18.6602956 24.0683186,18.4354865 24.1092016,18.191423 C24.2195298,17.5367707 24.1831271,16.8624477 24.0369563,16.2860623 L24.1719263,16.1681416 C24.3332182,16.8052046 24.3735412,17.5505091 24.2520122,18.2740611 C24.2368911,18.3625277 24.2200898,18.4487045 24.2010484,18.5323834 L23.9367089,18.8628319" id="Fill-43" fill="#FFFFFF"></path><path d="M22.5261079,19.2477876 L22.3924051,19.0121852 C22.7653657,18.7916277 23.0639352,18.4356653 23.2016592,17.9839063 C23.3403885,17.5321473 23.2951507,17.0667762 23.1111836,16.6690563 L23.3534572,16.5530973 C23.564567,17.0105878 23.6168418,17.5457595 23.4580068,18.0651697 C23.2981665,18.5847847 22.9563698,18.9942745 22.5261079,19.2477876" id="Fill-44" fill="#FFFFFF"></path><path d="M22.144517,18.4778761 L22.0063291,18.2530295 C22.2141305,18.1396779 22.3793326,17.9567518 22.4562191,17.7244788 C22.5341446,17.4923034 22.5081694,17.2530924 22.4063467,17.0486686 L22.6557084,16.9380531 C22.7866232,17.1995435 22.8198714,17.505202 22.7211658,17.8021637 C22.6224601,18.0990277 22.4105028,18.3329619 22.144517,18.4778761" id="Fill-45" fill="#FFFFFF"></path><polyline id="Fill-46" fill="#EEF0F9" points="11.9643731 35.800885 5.40506329 33.8761062 11.9683544 35.7888086 11.9643731 35.800885"></polyline><polyline id="Fill-47" fill="#CEDBF9" points="13.5076495 36.5707965 11.5822785 36.1939516 11.5862855 36.1858407 13.5126582 36.5608138 13.5076495 36.5707965"></polyline><path d="M30.4866823,41.960177 L13.5126582,36.71384 L13.5177409,36.6978511 L30.5293766,41.9222035 L30.4866823,41.960177 M47.1994581,26.7862714 L47.747368,25.0625749 C47.814459,24.8524216 47.8561367,24.6363725 47.8734177,24.419324 C47.8602028,24.7068233 47.8073432,25.002217 47.7128059,25.2997093 L47.2563838,26.7351071 L47.1994581,26.7862714 M45.8464562,21.5695528 L45.8068115,21.5575528 L45.8159603,21.5601528 C45.8261256,21.5632528 45.8362909,21.5663528 45.8464562,21.5695528" id="Fill-48" fill="#273C91"></path><path d="M39.5112472,44.6548673 C39.3109894,44.6370222 39.108719,44.5983579 38.9094676,44.5368915 L30.8860759,42.0514692 L30.9283414,42.0137963 L39.469988,44.6419791 C39.4840765,44.6459447 39.4971587,44.6509017 39.5112472,44.6548673 M42.3218997,43.1112683 L47.4309878,26.997662 L47.4873418,26.9469027 L42.4969995,42.6859607 C42.4497024,42.8346697 42.3913358,42.9764389 42.3218997,43.1112683" id="Fill-49" fill="#253887"></path><path d="M39.529227,44.6548673 C39.4467054,44.6548673 39.3651901,44.6518807 39.2826685,44.6449121 C39.2685794,44.64093 39.2554967,44.6359525 39.2414076,44.6319704 L30.699412,41.9928598 L13.8579538,36.7883066 L11.9227208,36.190002 L5.28677361,34.1402363 L5.26564002,34.1332677 C4.17575062,33.5867299 3.86075949,32.6756344 3.86075949,32.6756344 L3.86981675,32.6694622 C3.88390581,32.6614981 3.89799487,32.6581133 3.91409665,32.6581133 C3.98655467,32.6581133 4.07612084,32.7346684 4.15159794,32.7590586 C10.8147168,34.8988188 18.9370598,36.8699388 26.313689,36.8699388 C26.8943595,36.8699388 27.4710046,36.8569971 28.0416115,36.8321092 C29.3418304,36.7743694 30.8644553,36.6091138 32.6587977,36.0038406 C34.8405892,35.2681549 36.7013514,34.0854829 38.2853643,32.6608012 C38.3829814,32.6680685 38.4795921,32.6716523 38.5762028,32.6716523 C40.2326736,32.6717519 41.7714002,31.6157094 42.2906827,29.9713175 C42.5261713,29.2256766 42.5191268,28.4616188 42.3148354,27.7620703 C43.6563152,25.6120562 44.6284603,23.4077866 45.3188242,21.5575221 L45.8240176,21.7053561 L45.8632657,21.7173023 C47.1997137,22.1435819 47.9303321,23.2695095 47.8699504,24.5563124 C47.8528422,24.7725383 47.8115814,24.9877687 47.7451616,25.1971255 L42.0934359,43.094895 C41.6043442,44.0565627 40.5979828,44.6548673 39.529227,44.6548673 M38.7734496,32.2099324 C38.7724432,32.2099324 38.7714369,32.2099324 38.7694241,32.2099324 C39.0039064,31.9843487 39.231344,31.7539865 39.4517372,31.5188458 L40.2769535,31.7736977 C39.7949064,32.0958464 39.2937384,32.2099324 38.7734496,32.2099324 M40.8083124,31.5276063 L39.732512,31.2147159 C40.1320375,30.7732049 40.5104294,30.3174581 40.8676877,29.8523534 L41.8227247,30.1475237 C41.6103824,30.6365207 41.3114931,31.1284047 40.8083124,31.5276063 M41.9938061,29.6453858 L41.2068315,29.4020819 C41.4956572,29.0079575 41.7703939,28.608955 42.0320478,28.2062691 C42.2071547,28.7324984 42.1115504,29.2207986 41.9938061,29.6453858" id="Fill-50" fill="#4AB4D5"></path><path d="M38.51684,32.7212389 C38.4187403,32.7212389 38.3206406,32.7175859 38.221519,32.7101782 C38.389106,32.5595898 38.5526055,32.4062617 38.7130394,32.2505996 C38.7150831,32.2505996 38.716105,32.2505996 38.7171269,32.2505996 C39.2454347,32.2505996 39.7543269,32.1343096 40.2438036,31.8059377 L39.4058686,31.5461626 C39.5019245,31.4436732 39.5969586,31.3401691 39.6909708,31.2361576 L40.7833519,31.5550924 C41.2942879,31.1481791 41.5977839,30.6467929 41.8133989,30.1483495 L40.8436424,29.8474772 C40.9601358,29.6955696 41.0756073,29.5422414 41.1880132,29.3885074 L41.9871171,29.6365114 C42.1066761,29.203722 42.2037539,28.7059889 42.0259482,28.169594 C42.1240479,28.0191071 42.219082,27.8679099 42.3130942,27.7168142 C42.5205342,28.4298764 42.5276873,29.2086943 42.2885693,29.9687394 C41.7612834,31.6448974 40.1988412,32.7213404 38.51684,32.7212389" id="Fill-51" fill="#D8E9F4"></path><path d="M23.0013696,29.3097009 L18.0999106,27.7531477 C17.6879039,27.6223692 17.2495126,27.8557697 17.1216484,28.2744053 L17.0232133,28.5935132 C16.8943344,29.0122519 17.123678,29.4577034 17.5356847,29.5884819 L22.4371437,31.1450351 C22.8491504,31.2759167 23.2875418,31.0425163 23.4164207,30.6237775 L23.5148558,30.3046696 C23.6437347,29.886034 23.4133763,29.4404794 23.0013696,29.3097009" id="Fill-53" fill="#FFFFFF"></path><path d="M14.1225431,26.9999664 L9.22108414,25.4434132 C8.80907744,25.3126347 8.37068608,25.5460351 8.24180714,25.9646708 L8.14337204,26.2837786 C8.0144931,26.7025174 8.24485152,27.1479689 8.65685822,27.2788505 L13.5583172,28.8353006 C13.9703239,28.9661822 14.4087153,28.7327818 14.5375942,28.314043 L14.6350145,27.9949351 C14.7638935,27.5762995 14.5345498,27.1307449 14.1225431,26.9999664" id="Fill-54" fill="#FFFFFF"></path><path d="M23.0051866,33.507158 L8.34252934,28.9073291 C7.93338578,28.7790192 7.49904865,29.0080139 7.37106532,29.4187473 C7.24308198,29.8295818 7.47083185,30.2666248 7.87997541,30.3949347 L22.5426327,34.9956743 C22.9517762,35.1231746 23.3871211,34.8944835 23.5151044,34.483649 C23.6430878,34.0728144 23.4143302,33.6356703 23.0051866,33.507158" id="Fill-55" fill="#FFFFFF"></path><path d="M31.1089646,32.389424 L26.2075056,30.8328447 C25.7954989,30.7019522 25.3571075,30.9353721 25.2282286,31.3540425 L25.1308083,31.67328 C25.0019293,32.0919504 25.231273,32.5374388 25.6432797,32.6683314 L30.5447386,34.2246012 C30.9567453,34.3555969 31.3951367,34.1224865 31.5240156,33.7037129 L31.6224507,33.3849912 C31.7513297,32.965805 31.5209713,32.5203166 31.1089646,32.389424" id="Fill-56" fill="#FFFFFF"></path><path d="M39.6035564,34.698985 L34.7021024,33.1426521 C34.2900961,33.0116684 33.8517052,33.2447574 33.7228264,33.6634924 L33.6243914,33.9832162 C33.4955126,34.4019513 33.7258708,34.8475019 34.1368623,34.9774541 L39.039331,36.5348185 C39.4513373,36.6647707 39.8897282,36.4316818 40.0175922,36.0129467 L40.1160272,35.6942543 C40.244906,35.2755192 40.0155626,34.8299686 39.6035564,34.698985" id="Fill-57" fill="#FFFFFF"></path><path d="M17.1690446,46.0928589 C16.1672059,45.7826171 15.1199208,46.2750009 14.8300744,47.1937169 L13.0748368,53.7530498 C12.7849903,54.6707651 13.3626634,55.667542 14.3655121,55.9777838 L35.5398162,62.9204154 C36.5416549,63.2306572 37.5889399,62.7382734 37.8787864,61.8195574 L39.634024,55.2602245 C39.9238705,54.3425092 39.3461973,53.3457324 38.3433487,53.0354906 L17.1690446,46.0928589 Z" id="Fill-61" fill="#F1A656"></path><text id="PAID" transform="translate(26.745990, 54.520752) rotate(17.000000) translate(-26.745990, -54.520752) " font-family="Montserrat-SemiBold, Montserrat" font-size="9" font-weight="500" fill="#FFFFFE"><tspan x="15.1614573" y="58.0207518">PAID</tspan></text></g></g></g></g></svg>