<svg xmlns="http://www.w3.org/2000/svg" xmlns:xlink="http://www.w3.org/1999/xlink" width="158px" height="137px" viewBox="0 0 158 137"><title>Step_5_illustration</title><desc>Created with Sketch.</desc><defs><path d="M13.6609032,23.9801739 C13.6609032,23.9801739 15.1948387,23.2132174 15.3058065,22.7535652 C15.6743226,21.2311304 15.84,19.8563478 15.7419355,18.2681739 C15.6206452,16.2829565 15.2934194,14.2038261 14.6353548,12.3975652 C13.4353548,9.10278261 10.9868387,5.724 11.8353548,1.76608696 C11.9618065,1.176 12.1543226,0.547826087 12.3824516,0.00208695652 L3.49264516,0.00208695652 C3.72077419,0.547826087 3.91329032,1.176 4.03974194,1.76608696 C4.88774194,5.724 2.43974194,9.10278261 1.23974194,12.3975652 C0.58116129,14.2038261 0.254451613,16.2829565 0.132129032,18.2681739 C0.0350967742,19.8563478 0.200774194,21.2311304 0.569290323,22.7535652 C0.680258065,23.2132174 1.88645161,23.9801739 1.88645161,23.9801739 L13.6609032,23.9801739" id="path-1"></path></defs><g id="Welcome" stroke="none" strokeWidth="1" fill="none" fillRule="evenodd"><g id="03_HOURS" transform="translate(-884.000000, -7092.000000)"><g id="Step_5_illustration" transform="translate(884.000000, 7092.000000)"><polyline id="Fill-280" fill="#387499" points="67.5 57.3565 67.356 57.4995 67.5 57.6435 67.644 57.4995 67.5 57.3565"></polyline><polygon id="Fill-281" fill="#8CB4F4" points="52 134 54 134 54 86 52 86"></polygon><polygon id="Fill-282" fill="#8CB4F4" points="101 133 103 133 103 85 101 85"></polygon><polygon id="Fill-283" fill="#E4E8F3" points="44 92 110 92 110 28 44 28"></polygon><path d="M156.786161,137 L0.214060843,137 C0.096338459,137 0,136.520661 0,135.936639 L0,135.066116 C0,134.479339 0.096338459,134 0.214060843,134 L156.786161,134 C156.903606,134 157,134.479339 157,135.066116 L157,135.936639 C157,136.520661 156.903606,137 156.786161,137" id="Fill-79" fill="#2E3552"></path><path d="M77,56 L56,56 C56,44.4098895 65.4101735,35 77,35 L77,56" id="Fill-284" fill="#E76C63"></path><path d="M78.0002573,36 L78.0676648,36 C89.6267596,36.0365343 99,45.4320159 99,57 C99,68.5901105 89.5902258,78 78.0002573,78 C66.4097742,78 57,68.5901105 57,57 L78.0002573,57 L78.0002573,36" id="Fill-285" fill="#0091FF"></path><polygon id="Fill-286" fill="#6E99DF" points="45 135 60 135 60 132 45 132"></polygon><polygon id="Fill-287" fill="#6E99DF" points="95 135 110 135 110 132 95 132"></polygon><path d="M111.623318,130 L114.673299,130.789545 C114.673299,130.789545 115.174256,134.714281 114.935502,134.736768 C114.697281,134.758756 112.481342,134.870691 112.481342,134.870691 L112.384881,134.331002 C112.389677,134.30052 111.717647,134.90667 111.008312,134.96014 C109.812409,135.049588 105.305387,134.992621 105.061836,134.747262 C104.442567,134.121623 108.645284,133.48549 110.05063,132.435096 C111.188444,131.585586 111.623318,130 111.623318,130" id="Fill-288" fill="#121E3A"></path><path d="M125.548892,130 L125.172879,130.830659 C125.172879,130.830659 124.846866,134.313093 125.090228,134.685474 C125.33359,135.057376 125.455016,135.085688 126.135104,135.094326 C126.179491,135.094806 127.007535,135.521412 127.563646,135.807896 C128.120267,136.09342 132.499768,136.122212 131.952841,135.464307 C131.404893,134.806402 128.637604,133.448363 128.36414,132.213172 C128.090166,130.97894 127.989658,130.480352 127.989658,130.480352 L125.548892,130" id="Fill-289" fill="#121E3A"></path><path d="M111.975576,84.245909 C111.975576,84.245909 110.982509,86.0723411 110.415922,95.5494253 C110.200373,99.1555379 109.771326,104.750675 110.151617,110.86891 C110.770039,120.831173 111.556794,131.010052 111.556794,131.010052 C112.289663,131.578864 114.261427,132.0469 115.192909,131.701457 C115.192909,131.701457 117.067163,94.0751891 120.082802,92.740169 C121.49773,93.61962 124.464615,131.90197 124.464615,131.90197 C125.260095,132.128456 127.583923,131.951319 127.904168,131.48588 C127.904168,131.48588 129.639342,101.357022 130.740697,93.8544173 C131.839486,86.3497344 129.090717,79.3769817 129.090717,79.3769817 C117.565492,75.4254262 116.993773,80.9000474 111.975576,84.245909" id="Fill-290" fill="#5A7CFF"></path><path d="M116.083718,52 C116.083718,52 101.793861,57.5037104 100.529694,57.5037104 C99.2655275,57.5037104 92.4164299,48 92.4164299,48 L90,49.6860066 C90,49.6860066 96.3348931,61.5806373 99,62.1724459 C101.665107,62.7642545 112.967709,59.9164483 112.967709,59.9164483 C112.74451,59.0902688 116.083718,52 116.083718,52 Z" id="Fill-291" fill="#F3F3F0"></path><path d="M129,52.4792883 C130.248275,53.099105 132.609464,53.3796659 133.859789,54 C132.895399,63.9419016 131.073782,74.2736007 130.109392,84.2180892 C123.976138,85.7784959 115.103955,84.6066388 111.675297,84.0980579 C109.913056,83.8367829 111.970968,62.1085334 113.615351,57.1158528 C113.669668,56.0024592 115.194142,52.0015888 116.083718,51.9997797 C116.936398,51.9990019 117.702991,52.0202143 117.702991,52.0202143 C120.252322,52.2592422 122.802165,52.4962005 125.351496,52.7331588 C125.791159,52.6777995 129,52.4792883 129,52.4792883 Z" id="Fill-292" fill="#1F3F83"></path><g id="Group-46" transform="translate(117.000000, 34.000000)"><path d="M4.12113102,14.347871 C3.96901759,13.747871 4.09516043,12.5701885 3.86977286,11.1916478 L9.53970794,10.052592 L10.7658905,9.7049525 C10.2817623,11.1035972 10.4707949,13.7213558 10.7908764,16.0420523 C11.1320049,16.8447058 11.7853898,18.1247224 11.976453,18.4832826 C11.8324751,18.751141 10.6142515,19.0000308 10.0864236,19.3594174 C9.09976577,20.0312115 7.77676214,20.2369006 6,21 C4.75494274,19.7677313 3.49999264,18.1424584 2.50127705,18.1655847 C2.82381742,17.980511 3.87990496,16.8377213 4.16174086,16.0420523 C4.27985173,14.8850868 4.34360133,15.2150912 4.27973709,14.9504461 C4.23336104,14.7538795 4.17492723,14.5581714 4.12113102,14.347871 Z" id="Fill-302" fill="#F5C4A2"></path><path d="M7.65625294,14.0219309 C9.05608935,13.273864 9.06965178,12.0717513 9.69836724,10.2729202 C11.0042354,9.5952256 11.4973266,8.9821192 11.7104504,8.2398363 C12.2161353,6.47956541 11.4624517,4.40020928 10.2340832,3.14893239 C9.15974506,2.05575211 7.81125212,1.60267034 6.20507304,1.72413481 C3.08474564,1.95935173 1.56090988,3.37643728 1.03197515,5.95996738 C0.986444137,6.18072424 0.844600228,8.40095375 0.873662576,10.2729202 C0.902724923,12.1448867 1.3004417,14.8259101 1.8439076,15.3397241 C2.44937318,15.9113783 3.4354313,15.7340016 4.60664392,15.3397241 C5.31382771,15.0052148 7.01688129,14.3641522 7.65625294,14.0219309 Z" id="Fill-305" fill="#F5C4A2"></path><path d="M1.06850669,5.66830777 C1.06850669,4.66915082 1.11163089,3.39232322 2.67124801,1.87828116 C4.23086513,0.364239107 8.51501491,-0.505984497 11.0939919,3.05032726 C11.8610319,4.20789715 12.1006119,6.82831956 11.8697729,7.93132386 C11.5398729,9.50982825 10.3896601,10.2286247 9.00916973,11.6151752 C8.49023624,12.1364714 8.64770194,10.238199 8.51501491,9.75685263 C8.18328771,9.75685263 8.43096863,9.75685263 8.00751219,9.75685263 C7.84031226,8.92727528 7.78134253,8.3101326 7.2372822,7.93132386 C6.87583022,7.67965844 6.20354568,7.71086914 6.20354568,7.01692304 C6.20354568,6.50305705 6.85364149,5.88469106 6.20354568,5.07227152 C5.8118902,4.70858703 5.31770216,4.65366598 4.50815559,4.99632858 C3.94571508,5.23439681 2.45440582,5.80745534 1.58659574,5.47909124 C1.41926306,5.41577549 1.16743932,5.51732547 1.06850669,5.66830777 Z" id="Fill-306" fill="#131730"></path><path d="M9.50773715,8.76864395 C11.0590101,8.37403593 10.9934459,9.90528662 10.7113963,10.8242515 C10.5171779,11.4558388 9.91225568,11.386139 9.66731785,11.8815436 C9.37537175,12.471311 8.82488017,12.7308087 8.36716807,12.7029288 C7.43689915,12.6460967 8.07151079,11.4697787 8.2063503,10.9979648 C8.1358379,10.2141103 8.5230376,9.01956318 9.50773715,8.76864395" id="Fill-307" fill="#F5C4A2"></path><path d="M5,15.1090927 C4.92976905,14.7115211 4.93443933,13.9802799 4.56790756,13.9802799 C4.38286501,13.9802799 4.31918035,14.0751465 4.19831724,14.1953583 C4.01491516,14.3777721 4.03372958,14.7512746 3.91173934,15.0130406 C3.75687307,15.3453518 3.13937669,15.3453518 2.98010556,15.2574521 C2.40570674,14.9404488 2.7490473,14.0518089 1.8106191,13.8419329 C1.63759827,13.8143237 1.4603097,13.8462753 1.27875338,13.9377877 C1.42573918,14.9422442 1.79300288,15.5229391 2.38054449,15.6798722 C3.26185689,15.915272 4.51830788,15.3941302 5,15.1090927 Z" id="Path-3" fill="#131730"></path></g><polyline id="Fill-294" fill="#C7C6C1" points="127 52.075 125.012658 52 123 55 127 53.8377953 127 52.075"></polyline><polygon id="Fill-295" fill="#E5E5E0" points="125 52 126.489107 56 129 52.4792883 127.789145 50"></polygon><polyline id="Fill-296" fill="#C7C6C1" points="120.326747 52 121.931552 52.1672009 123 55 120 53.8076923 120.326747 52"></polyline><path d="M121.931552,52.1672009 L119,56 L119.446346,52.0919252 C119.902567,51.376196 120.354345,50.8643477 121.150263,50 C121.657834,51.3241527 121.658511,51.7519277 121.931552,52.1672009 Z" id="Fill-297" fill="#E5E5E0"></path><path d="M92.6246167,49.3856219 C92.725773,49.2922909 92.8088277,49.1488559 92.875378,48.9955966 C93.048941,48.5967295 93.0361634,48.1497232 92.8684568,47.7484 C92.5740385,47.0439967 92.0693214,45.8817804 91.9127953,45.7923791 C91.688654,45.6612245 86.9550682,43.567172 87.0003224,44.0809836 C87.0216185,44.3197144 86.9992576,44.5442 87.7185326,45.0162583 C88.4665574,45.5069828 89.1224766,46.1151078 89.1687956,46.1632469 C89.1709252,46.165703 88.7178511,46.08367 88.6071115,46.3685751 C88.5006311,46.6421822 88.9190991,46.942315 88.9190991,46.942315 C88.9190991,46.942315 88.4990339,47.3195687 88.6481065,47.5415982 C88.7993086,47.7641189 89.0969213,48.0028497 89.0969213,48.0028497 C89.0969213,48.0028497 88.8371091,48.3275433 89.1022453,48.7927245 C89.3705759,49.2554497 90.3959821,50.0423773 90.8304221,49.9957118 C91.6817328,50.0438509 92.3115643,49.6769128 92.6246167,49.3856219" id="Fill-304" fill="#F3B78E"></path><path d="M133.009935,82.3222573 C133.538699,80.9287762 130.737249,84.5045868 130.300742,84.5217467 C129.14094,84.5676745 128.490396,84.8558591 128.130857,85.2106643 C127.425487,85.9056383 129.766706,89.295214 130.510034,88.9792709 C131.253361,88.6633277 132.118996,87.1002669 132.140083,86.854982 C132.146409,86.7802862 133.99893,84.7811633 134,84.5121573 C134.004729,83.895412 132.945618,82.4903229 133.009935,82.3222573" id="Fill-305" fill="#F3B78E"></path><path d="M133.859789,54 C133.859789,54 139.883297,67.3321988 139.777915,73.1179835 C139.697544,77.574575 133.282696,86 133.282696,86 L131.008298,83.7641442 C130.878961,83.5579829 132.312175,79.847254 135.307939,72.6319576 C132.812453,66.3515381 131.516948,62.2351146 131.421422,60.2826869 C131.235295,56.4650402 133.859789,54 133.859789,54 Z" id="Fill-306" fill="#F3F3F0"></path><polygon id="Fill-311" fill="#182D4F" points="71 137 73 137 73 94 71 94"></polygon><polygon id="Fill-312" fill="#182D4F" points="70 137 72 137 72 94 70 94"></polygon><polygon id="Fill-313" fill="#182D4F" points="78 137 80 137 80 94 78 94"></polygon><polygon id="Fill-314" fill="#182D4F" points="77 137 79 137 79 94 77 94"></polygon><polygon id="Fill-315" fill="#182D4F" points="26 137 28 137 28 94 26 94"></polygon><polygon id="Fill-316" fill="#182D4F" points="24 137 26 137 26 94 24 94"></polygon><polygon id="Fill-317" fill="#182D4F" points="32 137 34 137 34 94 32 94"></polygon><polygon id="Fill-318" fill="#182D4F" points="31 137 33 137 33 94 31 94"></polygon><polygon id="Fill-319" fill="#182D4F" points="16 96 84 96 84 92 16 92"></polygon><polyline id="Fill-320" fill="#182D4F" points="47.0835598 77.4764345 67.6713655 76 68 76.7332906 65.3001019 91.7278912 64.3513927 91.7278912 44 93 47.0835598 77.4764345"></polyline><polyline id="Fill-321" fill="#2A4571" points="46.1693239 76 68 76 64.8301523 91 43 91 46.1693239 76"></polyline><polygon id="Fill-322" fill="#98746B" points="59 92 65 92 65 91 59 91"></polygon><polygon id="Fill-323" fill="#B08A81" points="39 92 59 92 59 91 39 91"></polygon><polyline id="Fill-324" fill="#E3EFF4" points="46.7080737 76 44 90 63.2919263 90 66 76 46.7080737 76"></polyline><polyline id="Fill-325" fill="#FFFFFE" points="57.1602043 82 62 82 60.8392932 89 56 89 57.1602043 82"></polyline><polyline id="Fill-326" fill="#93736C" points="58 83.5535 61.9910626 83.5535 62 83.4465 58.0089374 83.4465 58 83.5535"></polyline><polyline id="Fill-327" fill="#93736C" points="58 83.5535 61.9910626 83.5535 62 83.4465 58.0084409 83.4465 58 83.5535"></polyline><polyline id="Fill-328" fill="#93736C" points="58 83.554 61.9826604 83.554 62 83.446 58.0089175 83.446 58 83.554"></polyline><polyline id="Fill-329" fill="#93736C" points="58 84.553 61.9905894 84.553 62 84.447 58.0094106 84.447 58 84.553"></polyline><polyline id="Fill-330" fill="#93736C" points="58 84.554 61.9910825 84.554 62 84.446 58.017835 84.446 58 84.554"></polyline><polyline id="Fill-331" fill="#93736C" points="58 85.5535 61.9915779 85.5535 62 85.4465 58.017835 85.4465 58 85.5535"></polyline><polyline id="Fill-332" fill="#93736C" points="57 85.554 60.9905672 85.554 61 85.446 57.0089363 85.446 57 85.554"></polyline><polyline id="Fill-333" fill="#93736C" points="57 85.5535 60.9915591 85.5535 61 85.4465 57.0084409 85.4465 57 85.5535"></polyline><polyline id="Fill-334" fill="#93736C" points="57 86.554 60.9910637 86.554 61 86.446 57.0094328 86.446 57 86.554"></polyline><polyline id="Fill-335" fill="#93736C" points="57 86.5535 60.982165 86.5535 61 86.4465 57.0084221 86.4465 57 86.5535"></polyline><polyline id="Fill-336" fill="#93736C" points="57 87.5535 60.9910836 87.5535 61 87.4465 57.0094118 87.4465 57 87.5535"></polyline><polyline id="Fill-337" fill="#93736C" points="57 87.5625 60.9905882 87.5625 61 87.4375 57.0178328 87.4375 57 87.5625"></polyline><polyline id="Fill-338" fill="#93736C" points="57 87.5625 60.9915601 87.5625 61 87.4375 57.0089363 87.4375 57 87.5625"></polyline><polyline id="Fill-339" fill="#93736C" points="57 88.563 60.9910626 88.563 61 88.437 57.0084409 88.437 57 88.563"></polyline><polyline id="Fill-340" fill="#FFFFFE" points="48.1238569 77 57 77 54.8756273 89 46 89 48.1238569 77"></polyline><polyline id="Fill-341" fill="#93736C" points="48 78.6075 54.9824927 78.6075 55 78.3925 48.0257746 78.3925 48 78.6075"></polyline><polyline id="Fill-342" fill="#93736C" points="48 79.5985 54.9824927 79.5985 55 79.4015 48.0262609 79.4015 48 79.5985"></polyline><polyline id="Fill-343" fill="#93736C" points="48 79.607 54.9829778 79.607 55 79.393 48.0257764 79.393 48 79.607"></polyline><polyline id="Fill-344" fill="#93736C" points="48 80.6075 54.9824927 80.6075 55 80.3925 48.0262609 80.3925 48 80.6075"></polyline><polyline id="Fill-345" fill="#93736C" points="48 81.5985 54.9824927 81.5985 55 81.4015 48.0262609 81.4015 48 81.5985"></polyline><polyline id="Fill-346" fill="#93736C" points="48 82.5985 54.9829577 82.5985 55 82.4015 48.0180161 82.4015 48 82.5985"></polyline><polyline id="Fill-347" fill="#93736C" points="48 82.607 54.9829577 82.607 55 82.393 48.0180161 82.393 48 82.607"></polyline><polyline id="Fill-348" fill="#93736C" points="48 83.6075 54.9824708 83.6075 55 83.3925 48.0175292 83.3925 48 83.6075"></polyline><polyline id="Fill-349" fill="#93736C" points="47 84.599 53.9829577 84.599 54 84.401 47.0175292 84.401 47 84.599"></polyline><polyline id="Fill-350" fill="#93736C" points="47 84.6075 53.9824708 84.6075 54 84.3925 47.0175292 84.3925 47 84.6075"></polyline><polyline id="Fill-351" fill="#93736C" points="47 85.6075 53.9824708 85.6075 54 85.3925 47.0175292 85.3925 47 85.6075"></polyline><polyline id="Fill-352" fill="#93736C" points="47 86.598 53.9824708 86.598 54 86.402 47.0170423 86.402 47 86.598"></polyline><polyline id="Fill-353" fill="#93736C" points="47 86.6075 53.9819851 86.6075 54 86.3925 47.017528 86.3925 47 86.6075"></polyline><polyline id="Fill-354" fill="#93736C" points="47 87.6075 53.9819851 87.6075 54 87.3925 47.017528 87.3925 47 87.6075"></polyline><path d="M50.2542991,91.9817282 C50.8831654,92.0702839 52.2111515,91.8436694 53.1542069,91.1544754 C54.0884807,90.4652814 54.8315089,89.8107396 54.8315089,89.8107396 C54.8315089,89.8107396 56.8688601,90.1099587 56.9991217,89.5841251 C57.0557148,88.8833803 54.3597373,88.0528273 53.9835884,88.0033241 C53.5996336,87.954371 50.4377388,88.4565531 50.1147679,88.8206763 C49.7913091,89.1847996 50.2542991,91.9817282 50.2542991,91.9817282" id="Fill-355" fill="#F3B78E"></path><path d="M39.2627427,90.9817022 C39.894264,91.0702557 41.2278567,90.8441968 42.1665649,90.1544698 C43.1047832,89.4652929 43.9993975,88.4609535 43.9993975,88.4609535 C43.9993975,88.4609535 46.0433905,88.677112 45.9992967,88.4609535 C45.9468741,88.2541454 43.3855137,87.0523484 42.999448,87.0033965 C42.6222009,86.9538945 39.438138,87.4560642 39.1138036,87.8201784 C38.7889792,88.1853927 39.2627427,90.9817022 39.2627427,90.9817022" id="Fill-356" fill="#F3B78E"></path><path d="M43.4241666,88 C43.674961,88.2627454 45.2667749,89.2504453 44.9611953,89.6311477 C44.6562245,90.0214689 43.9257554,90.1844825 43.1301528,89.7040482 C42.3345501,89.2236139 41.8335701,88.6616729 42.0508846,88.4713217 C42.2694166,88.2809705 43.4241666,88 43.4241666,88" id="Fill-357" fill="#F3B78E"></path><path d="M14.4184934,75.0471242 C12.3896226,75.876401 12.8736109,79.8209993 13.7966604,82.6501148 C14.7105201,85.4792303 24.1896456,92.161317 26.9955525,92.8984519 C29.8014594,93.6268359 40.6876226,90.1980261 40.6876226,90.1980261 C41.4279001,88.677428 40.7881982,87.0652028 39.4449775,87.4147242 C39.4449775,87.4147242 28.8329723,89.0923238 27.2421415,87.2397061 C25.9622273,85.7561706 16.5663192,74.1720339 14.4184934,75.0471242" id="Fill-358" fill="#C7C6C1"></path><path d="M22.9735468,68.9312826 C19.6104995,75.6356489 12.6991501,73.3976159 11.0685974,66.9872827 C9.43804468,60.5856579 9.01216563,55.0553752 14.6821009,54.0831192 C20.8425992,53.0289027 26.3459086,62.2274285 22.9735468,68.9312826" id="Fill-359" fill="#F3B78E"></path><path d="M13,69.5581197 C13.6208941,71.6323483 13.4320137,77.1956588 13.4320137,77.1956588 C13.4320137,77.1956588 22.2641815,79.9292624 21.9939218,78.6671064 C20.91439,73.5533455 20.3658331,69.0797391 19.377225,68.1427324 C18.5584084,67.3787115 16.5440191,69.9494735 13,69.5581197" id="Fill-360" fill="#F3B78E"></path><path d="M31.4448366,131 C31.4448366,131 33.3318214,133.33003 35.7738605,134.371553 C38.2153999,135.413075 39.3155166,135.860609 38.9218327,136.499504 C38.5286484,137.139421 35.3981621,136.838344 33.0365585,136.920502 C30.6844472,137.00266 29.0922257,137.184837 29.0112907,136.417346 C28.9308553,135.65955 29.3065536,131.447533 29.3065536,131.447533 L31.4448366,131" id="Fill-361" fill="#121E3A"></path><path d="M28,112.465716 C28.0881694,115.094583 28.95005,134.809032 28.95005,134.809032 C29.5513851,135.529404 33.5284194,134.050666 33.8058062,133.050464 C33.8058062,133.050464 35.5112401,111.105072 34.846007,111.003922 C34.1896898,110.912015 28,112.465716 28,112.465716" id="Fill-362" fill="#233862"></path><path d="M52.4532501,131 C52.4532501,131 54.3406731,133.329282 56.7731408,134.379882 C59.2151006,135.421298 60.3151814,135.859601 59.9220099,136.508636 C59.5283388,137.147977 56.3974547,136.837236 54.0454198,136.919386 C51.6843925,137.002046 50.0917231,137.184715 50.0112903,136.426486 C49.9308575,135.659073 50.3065437,131.447487 50.3065437,131.447487 L52.4532501,131" id="Fill-363" fill="#121E3A"></path><path d="M14.49091,104 C14.1949491,106.075886 11.0602419,109.324104 14.8793266,112.572322 C18.6984112,115.82106 43.2874488,113.075047 43.6014877,113.512268 C43.9160431,113.94065 50.0005464,135 50.0005464,135 C50.0005464,135 55.2653462,134.832078 54.9895292,132.664173 C52.9565406,127.015664 53.2927895,108.979943 49.1777439,107.006473 C45.0719954,105.033524 14.49091,104 14.49091,104" id="Fill-364" fill="#1F3F83"></path><path d="M23.6585762,74.8367889 C20.1915539,73.8899562 9.83114989,73.1268374 8.44352771,76.1766958 C5.22099122,83.2604067 7.78631325,110.483023 12.27245,110.933148 C15.1574842,111.223112 29.4738821,110.772987 29.956246,105.422257 C30.5839799,98.3851292 24.2593708,88.208641 23.6585762,74.8367889" id="Fill-365" fill="#0D6DD4"></path><polygon id="Fill-366" fill="#77A1E4" points="8 115 12 115 12 97 8 97"></polygon><path d="M24.4559942,75.0469024 C22.380326,75.8713639 22.8661985,79.8022693 23.8107765,82.6149572 C24.7558768,85.418945 34.4555637,92.0612079 37.3269134,92.7945743 C40.1982632,93.5182171 51.684707,92.0975435 51.684707,92.0975435 C52.4328461,90.585775 51.7876283,88.9823995 50.4026305,89.3309149 C50.4026305,89.3309149 39.1972613,89.0100351 37.5698497,87.1681749 C36.2700101,85.6937655 26.6450327,74.1763816 24.4559942,75.0469024" id="Fill-368" fill="#0D6DD4"></path><path d="M20.3722166,60.5200465 C19.6986836,59.6876586 21.5391085,63.1655003 20.9795091,64.6272168 C20.9890478,63.064229 17.0988781,61.1767598 18.5985621,65.422403 C18.7782062,65.9406433 19.0034237,68.1541441 19.0034237,68.1541441 C18.9652692,69.0655856 14.1811183,71.8221277 12.6019458,70.7603294 C11.1695621,69.9465423 8.90201865,66.6717599 7.45002779,62.9991261 C5.98955814,59.3264922 8.55120918,57.5320272 8.55120918,57.5320272 C8.55120918,57.5320272 8.19986979,56.5978513 9.35722309,54.8400713 C10.2586233,53.4527581 23.6927183,50.7049997 22.9720222,56.7549251 C22.8199341,58.0037653 21.4728681,59.0862313 20.3722166,60.5200465" id="Fill-369" fill="#131730"></path><path d="M3.78215499,83 L17.2250023,83 C18.1978769,83 19,84.0923008 19,85.4256111 L19,95.5738717 C19,96.9076992 18.1978769,98 17.2250023,98 L3.78215499,98 C2.80263435,98 2,96.9076992 2,95.5738717 L2,85.4256111 C2,84.0923008 2.80263435,83 3.78215499,83" id="Fill-371" fill="#8CB4F4"></path><polygon id="Fill-372" fill="#4A75B9" points="21 134 24 134 24 116 21 116"></polygon><polygon id="Fill-373" fill="#233862" points="11 134 34 134 34 133 11 133"></polygon><path d="M33.4956628,136 C34.3293258,136 35,135.329782 35,134.503881 C35,133.670218 34.3293258,133 33.4956628,133 C32.6702176,133 32,133.670218 32,134.503881 C32,135.329782 32.6702176,136 33.4956628,136" id="Fill-374" fill="#121E3A"></path><path d="M22.4958904,136 C23.3296804,136 24,135.32968 24,134.50411 C24,133.67032 23.3296804,133 22.4958904,133 C21.6703196,133 21,133.67032 21,134.50411 C21,135.32968 21.6703196,136 22.4958904,136" id="Fill-375" fill="#152A5C"></path><path d="M10.5002277,136 C11.3234178,136 12,135.329782 12,134.503881 C12,133.670218 11.3234178,133 10.5002277,133 C9.67703749,133 9,133.670218 9,134.503881 C9,135.329782 9.67703749,136 10.5002277,136" id="Fill-376" fill="#152A5C"></path><g id="Group-79" transform="translate(17.000000, 2.000000)"><polyline id="Fill-392" fill="#EA882D" points="0.174356757 40.6899375 9.9475983e-13 40.4101125 0.395935135 40.16975 0.570291892 40.4500875 0.174356757 40.6899375"></polyline><path d="M27.9209514,23.846625 L27.7471135,23.5668 L27.9811459,23.4248375 L28.1555027,23.7046625 L27.9209514,23.846625 Z M26.2059243,24.888025 L26.0315676,24.6082 L26.5826595,24.2735375 L26.7570162,24.55285 L26.2059243,24.888025 Z M24.4908973,25.9289125 L24.3165405,25.6496 L24.8676324,25.314425 L25.0425081,25.59425 L24.4908973,25.9289125 Z M22.7753514,26.9703125 L22.6015135,26.691 L23.1526054,26.3553125 L23.3264432,26.63565 L22.7753514,26.9703125 Z M21.0603243,28.0112 L20.8864865,27.7318875 L21.4375784,27.397225 L21.6114162,27.67705 L21.0603243,28.0112 Z M19.3447784,29.0531125 L19.1709405,28.7732875 L19.7220324,28.4381125 L19.8963892,28.7179375 L19.3447784,29.0531125 Z M17.6297514,30.094 L17.4553946,29.814175 L18.0064865,29.479 L18.1808432,29.7593375 L17.6297514,30.094 Z M15.9147243,31.1354 L15.7403676,30.855575 L16.2914595,30.5198875 L16.4658162,30.800225 L15.9147243,31.1354 Z M14.1991784,32.1762875 L14.0253405,31.8964625 L14.5764324,31.5623125 L14.7513081,31.841625 L14.1991784,32.1762875 Z M12.4841514,33.2176875 L12.3097946,32.9378625 L12.8614054,32.6032 L13.0352432,32.883025 L12.4841514,33.2176875 Z M10.7686054,34.258575 L10.5952865,33.9792625 L11.1463784,33.6440875 L11.3202162,33.924425 L10.7686054,34.258575 Z M9.05357838,35.299975 L8.87974054,35.0206625 L9.43083243,34.686 L9.60518919,34.965825 L9.05357838,35.299975 Z M7.33855135,36.341375 L7.16419459,36.06155 L7.71528649,35.7268875 L7.89016216,36.0067125 L7.33855135,36.341375 Z M5.62352432,37.3822625 L5.44916757,37.10295 L6.00025946,36.7688 L6.17461622,37.0481125 L5.62352432,37.3822625 Z M3.90797838,38.4236625 L3.73414054,38.1438375 L4.28575135,37.8086625 L4.45958919,38.089 L3.90797838,38.4236625 Z M2.19295135,39.4650625 L2.01859459,39.1852375 L2.57020541,38.8510875 L2.74456216,39.1304 L2.19295135,39.4650625 L2.19295135,39.4650625 Z" id="Fill-393" fill="#EB7774"></path><polyline id="Fill-394" fill="#EB7774" points="28.966573 23.21215 28.7927351 22.932325 29.2473081 22.655575 29.7667459 22.78165 29.6873514 23.1009375 29.3038703 23.0076625 28.966573 23.21215"></polyline><path d="M32.1003243,23.6831375 L31.4719135,23.530925 L31.551827,23.21215 L32.1802378,23.3643625 L32.1003243,23.6831375 Z M33.9865946,24.1392625 L33.3576649,23.9875625 L33.4375784,23.668275 L34.0659892,23.8194625 L33.9865946,24.1392625 Z M35.8723459,24.594875 L35.2439351,24.4426625 L35.3233297,24.123375 L35.9512216,24.2761 L35.8723459,24.594875 Z M37.7580973,25.0504875 L37.1296865,24.898275 L37.2096,24.5795 L37.8374919,24.7317125 L37.7580973,25.0504875 Z M39.6438486,25.5055875 L39.0149189,25.3544 L39.0953514,25.0351125 L39.7232432,25.1868125 L39.6438486,25.5055875 Z M41.5296,25.9617125 L40.9011892,25.8095 L40.9800649,25.490725 L41.6089946,25.6429375 L41.5296,25.9617125 Z M43.4158703,26.4168125 L42.7869405,26.2651125 L42.8652973,25.9463375 L43.4947459,26.0980375 L43.4158703,26.4168125 Z M45.3016216,26.8729375 L44.6732108,26.7212375 L44.7515676,26.40195 L45.3799784,26.5541625 L45.3016216,26.8729375 Z M46.6399135,27.196325 L46.5584432,27.1773625 L46.6373189,26.858075 L46.7187892,26.8770375 L46.6399135,27.196325 L46.6399135,27.196325 Z" id="Fill-395" fill="#EB7774"></path><polyline id="Fill-396" fill="#EB7774" points="48.0617514 27.5402125 47.5319351 27.4120875 47.6113297 27.0933125 47.9844324 27.183 48.288 26.9498125 48.4919351 27.2091375 48.0617514 27.5402125"></polyline><path d="M64.7112649,15.1530875 L64.1010162,15.11465 L64.1067243,15.0331625 L63.9655784,14.8548125 L64.0589838,14.783575 L64.7325405,14.824575 L64.7112649,15.1530875 Z M66.7106595,15.2766 L66.0443676,15.2356 L66.0651243,14.9076 L66.7319351,14.9486 L66.7106595,15.2766 Z M68.7100541,15.40165 L68.0437622,15.3601375 L68.064,15.031625 L68.7308108,15.0731375 L68.7100541,15.40165 Z M70.7094486,15.525675 L70.0426378,15.4841625 L70.0633946,15.1561625 L70.7302054,15.1971625 L70.7094486,15.525675 Z M72.7088432,15.6497 L72.0420324,15.607675 L72.0627892,15.279675 L72.7296,15.3211875 L72.7088432,15.6497 Z M74.7077189,15.773725 L74.0409081,15.7317 L74.0616649,15.4042125 L74.7284757,15.445725 L74.7077189,15.773725 Z M76.7060757,15.8972375 L76.0403027,15.85675 L76.0615784,15.52875 L76.7273514,15.56975 L76.7060757,15.8972375 Z M78.7059892,16.0228 L78.0391784,15.980775 L78.060973,15.6522625 L78.7272649,15.6942875 L78.7059892,16.0228 Z M80.7048649,16.1463125 L80.038573,16.1053125 L80.0588108,15.7768 L80.7256216,15.8183125 L80.7048649,16.1463125 Z M62.5909622,16.3318375 L62.3865081,16.073025 L62.9126919,15.667125 L63.1176649,15.9259375 L62.5909622,16.3318375 Z M61.0124108,17.55005 L60.8074378,17.2912375 L61.3336216,16.884825 L61.5391135,17.1436375 L61.0124108,17.55005 Z M59.4343784,18.76775 L59.2288865,18.508425 L59.7555892,18.1030375 L59.9605622,18.36185 L59.4343784,18.76775 Z M57.8553081,19.98545 L57.6503351,19.7266375 L58.1770378,19.320225 L58.3814919,19.5790375 L57.8553081,19.98545 Z M56.2767568,21.20315 L56.0717838,20.9443375 L56.5979676,20.5384375 L56.8034595,20.79725 L56.2767568,21.20315 Z M54.6982054,22.4213625 L54.4932324,22.16255 L55.0194162,21.7561375 L55.2249081,22.01495 L54.6982054,22.4213625 Z M53.1191351,23.6390625 L52.9152,23.3797375 L53.4408649,22.9738375 L53.6458378,23.233675 L53.1191351,23.6390625 Z M51.5411027,24.8567625 L51.3361297,24.5974375 L51.8617946,24.1915375 L52.0672865,24.4508625 L51.5411027,24.8567625 Z M49.9625514,26.074975 L49.7575784,25.81565 L50.2837622,25.40975 L50.4892541,25.669075 L49.9625514,26.074975 L49.9625514,26.074975 Z" id="Fill-397" fill="#EB7774"></path><polyline id="Fill-398" fill="#EB7774" points="82.9061189 16.28315 82.3571027 16.249325 82.3778595 15.9208125 82.7551135 15.943875 82.9912216 15.6522625 83.2517189 15.8582875 82.9061189 16.28315"></polyline><path d="M93.9300324,2.6880625 L93.6700541,2.48255 L94.1194378,1.928025 L94.3788973,2.133025 L93.9300324,2.6880625 Z M92.5813622,4.351125 L92.3208649,4.1451 L92.7707676,3.5910875 L93.0312649,3.7960875 L92.5813622,4.351125 Z M91.2332108,6.0131625 L90.9732324,5.8081625 L91.4231351,5.2536375 L91.6825946,5.4596625 L91.2332108,6.0131625 Z M89.8850595,7.6767375 L89.6245622,7.471225 L90.0744649,6.9167 L90.3339243,7.122725 L89.8850595,7.6767375 Z M88.5363892,9.3398 L88.2764108,9.1342875 L88.7263135,8.5797625 L88.9862919,8.785275 L88.5363892,9.3398 Z M87.1882378,11.0028625 L86.9282595,10.79735 L87.3781622,10.2433375 L87.6376216,10.44885 L87.1882378,11.0028625 Z M85.8400865,12.665925 L85.5801081,12.460925 L86.0294919,11.9064 L86.2899892,12.1114 L85.8400865,12.665925 Z M84.4914162,14.328475 L84.2314378,14.123475 L84.6813405,13.5684375 L84.9408,13.7744625 L84.4914162,14.328475 L84.4914162,14.328475 Z" id="Fill-399" fill="#EB7774"></path><polyline id="Fill-400" fill="#EB7774" points="95.6507676 0.5642625 95.3913081 0.35875 95.6824216 2.84217094e-13 95.9418811 0.205 95.6507676 0.5642625"></polyline><path d="M30.1232432,22.5582 C30.2752865,23.0168875 30.0210162,23.51145 29.5565838,23.6616125 C29.0911135,23.811775 28.5908757,23.561675 28.4388324,23.1019625 C28.2867892,22.6427625 28.5410595,22.1487125 29.0054919,21.9980375 C29.4709622,21.847875 29.9712,22.097975 30.1232432,22.5582" id="Fill-401" fill="#EB7774"></path><path d="M48.8178162,27.1056125 C48.9698595,27.5648125 48.7161081,28.0588625 48.2511568,28.209025 C47.7862054,28.3591875 47.2859676,28.1096 47.1339243,27.649375 C46.9808432,27.1906875 47.2345946,26.6956125 47.7000649,26.54545 C48.1650162,26.3952875 48.6652541,26.6459 48.8178162,27.1056125" id="Fill-402" fill="#EB7774"></path><path d="M64.8788757,14.801 C65.0319568,15.2602 64.7776865,15.7547625 64.3127351,15.904925 C63.8477838,16.0556 63.347027,15.804475 63.1955027,15.3457875 C63.0429405,14.8855625 63.2966919,14.392025 63.7621622,14.2418625 C64.2271135,14.0911875 64.7273514,14.3418 64.8788757,14.801" id="Fill-403" fill="#EB7774"></path><path d="M83.6377946,15.853675 C83.7898378,16.3123625 83.5355676,16.8074375 83.0711351,16.9576 C82.6056649,17.1077625 82.105427,16.85715 81.9533838,16.396925 C81.8013405,15.9382375 82.054573,15.443675 82.5195243,15.2935125 C82.9849946,15.1428375 83.4852324,15.39345 83.6377946,15.853675" id="Fill-404" fill="#EB7774"></path></g><path d="M7.04581725,113 L36.9449163,113 C38.0785071,113 39,113.899209 39,114.99523 C39,116.100791 38.0785071,117 36.9449163,117 L7.04581725,117 C5.92149292,117 5,116.100791 5,114.99523 C5,113.899209 5.92149292,113 7.04581725,113" id="Fill-377" fill="#73A2E5"></path><path d="M12,74.5041281 C12.0477246,73.8857721 12.4767162,72.1461737 12.4767162,72.1461737 C12.4767162,72.1461737 19.4636039,71.6627121 21.1254821,72.4542726 C21.3858465,72.578915 23,75 23,75 C18.5950154,74.187396 14.8252989,74.1496256 12,74.5041281" id="Fill-378" fill="#E5E5E0"></path><polygon id="Fill-379" fill="#63BBA8" points="69 92 83 92 83 91 69 91"></polygon><polygon id="Fill-380" fill="#CD4A3B" points="68 91 82 91 82 89 68 89"></polygon><polygon id="Fill-381" fill="#E15B4B" points="73 91 82 91 82 89 73 89"></polygon><path d="M68,87 L82,87 L82,89 L68,89 C68.0751857,88.70733 68.1135784,88.3659698 68.1135784,88.0002646 C68.1135784,87.6345594 68.0751857,87.2931993 68,87" id="Fill-382" fill="#FFF9F2"></path><polyline id="Fill-383" fill="#AB3F6F" points="67 87 81 87 81 89 67 89 67 88.6311907 80.568507 88.6311907 80.568507 87.3877766 67 87.3877766 67 87"></polyline><g id="Group-81" transform="translate(28.000000, 7.000000)" fill="#658AFF"><polyline id="Fill-384" points="0.52104 1.70530257e-13 3.04112291e-12 1.70530257e-13 3.04112291e-12 10.771619 12.93188 10.771619 12.93188 10.2457143 0.52104 10.2457143 0.52104 1.70530257e-13"></polyline><polygon id="Fill-385" points="1.11228 9.78214286 3.37376 9.78214286 3.37376 3.30157143 1.11228 3.30157143"></polygon><polygon id="Fill-386" points="4.02532 9.78214286 6.28524 9.78214286 6.28524 4.26485714 4.02532 4.26485714"></polygon><polygon id="Fill-387" points="6.93784 9.78214286 9.19776 9.78214286 9.19776 2.29428571 6.93784 2.29428571"></polygon><polygon id="Fill-388" points="9.85036 9.78214286 12.10976 9.78214286 12.10976 0.586666667 9.85036 0.586666667"></polygon></g><path d="M90.7555005,28.0884367 L89.6108656,28.0884367 L89.6108656,26.6516523 C89.6108656,26.3077038 89.3346258,26.0287457 88.9924256,26.0287457 L85.6691163,26.0287457 L85.6691163,23.9115633 L86.8137511,23.9115633 C86.9476555,23.9115633 87.0567628,23.8005799 87.0567628,23.6661001 L87.0567628,21.2449633 C87.0567628,21.1094836 86.9476555,21 86.8137511,21 L84.1867448,21 C84.0523445,21 83.9437331,21.1094836 83.9437331,21.2449633 L83.9437331,23.6661001 C83.9437331,23.8005799 84.0523445,23.9115633 84.1867448,23.9115633 L85.3313796,23.9115633 L85.3313796,26.0287457 L82.0070784,26.0287457 C81.6648783,26.0287457 81.3881425,26.3077038 81.3881425,26.6516523 L81.3881425,28.0884367 L80.2444995,28.0884367 C80.1100992,28.0884367 80,28.19992 80,28.3343998 L80,30.7545368 C80,30.8900165 80.1100992,31 80.2444995,31 L82.870018,31 C83.0044184,31 83.1135257,30.8900165 83.1135257,30.7545368 L83.1135257,28.3343998 C83.1135257,28.19992 83.0044184,28.0884367 82.870018,28.0884367 L81.7258792,28.0884367 L81.7258792,26.6516523 C81.7258792,26.4961756 81.8518485,26.3691946 82.0070784,26.3686947 L85.3313796,26.3686947 L85.3313796,28.0884367 L84.1867448,28.0884367 C84.0523445,28.0884367 83.9437331,28.19992 83.9437331,28.3343998 L83.9437331,30.7545368 C83.9437331,30.8900165 84.0523445,31 84.1867448,31 L86.8137511,31 C86.9476555,31 87.0567628,30.8900165 87.0567628,30.7545368 L87.0567628,28.3343998 C87.0567628,28.19992 86.9476555,28.0884367 86.8137511,28.0884367 L85.6691163,28.0884367 L85.6691163,26.3686947 L88.9924256,26.3686947 C89.1491434,26.3691946 89.2736249,26.4961756 89.2746168,26.6516523 L89.2746168,28.0884367 L88.1304779,28.0884367 C87.9955816,28.0884367 87.8864743,28.19992 87.8864743,28.3343998 L87.8864743,30.7545368 C87.8864743,30.8900165 87.9955816,31 88.1304779,31 L90.7555005,31 C90.8894049,31 91,30.8900165 91,30.7545368 L91,28.3343998 C91,28.19992 90.8894049,28.0884367 90.7555005,28.0884367" id="Fill-389" fill="#FFC300"></path><path d="M29,43.0245016 C29.0538453,44.1078549 29.5019314,45.1715109 30.3377034,45.9685323 C30.8841157,46.4883497 31.5279176,46.8308912 32.2030902,47 L33,43 L29,43.0245016" id="Fill-390" fill="#EB7774"></path><path d="M33.4812602,46.8830355 C33.8081341,46.958227 34.1496287,47 34.5005222,47 C36.9849733,47 39,44.9849733 39,42.5 C39,40.0145045 36.9849733,38 34.5005222,38 C32.0155489,38 30,40.0145045 30,42.5 L30.0020887,42.5731028 L34.3407403,42.5370736 L33.4812602,46.8830355" id="Fill-391" fill="#EB7774"></path><g id="Group-84" transform="translate(76.000000, 0.000000)" fill="#7996FF"><path d="M7.406875,6.0305 L7.406875,6.0305 C5.963375,6.0305 4.792875,4.8595 4.792875,3.416 C4.792875,1.973 5.963375,0.802 7.406875,0.802 C8.850375,0.802 10.020875,1.973 10.020875,3.416 C10.020875,4.8595 8.850375,6.0305 7.406875,6.0305 Z M9.879875,1.0005 C8.513375,-0.3335 6.299875,-0.3335 4.933875,1.0005 C3.566875,2.335 3.566875,4.4965 4.933875,5.831 C6.299875,7.1655 8.513375,7.1655 9.879875,5.831 C11.246375,4.4965 11.246375,2.335 9.879875,1.0005 L9.879875,1.0005 Z" id="Fill-405"></path><path d="M4.239375,7.073 C4.292375,7.1255 4.377875,7.1255 4.430875,7.073 L4.995875,6.5175 L5.036875,6.411 L4.982875,6.3115 C4.882875,6.2345 4.785875,6.151 4.692875,6.061 C4.573875,5.944 4.466375,5.821 4.370375,5.6925 L4.271375,5.6375 L4.165375,5.6765 L3.590875,6.2415 L3.550875,6.339 L3.590875,6.436 L4.239375,7.073" id="Fill-406"></path><path d="M0.208875,9.406 C-0.069625,9.676 -0.069625,10.1165 0.208875,10.3875 C0.485375,10.658 0.935875,10.658 1.213875,10.3875 L4.170375,7.477 L4.211375,7.3795 L4.170375,7.283 L3.362375,6.488 C3.309875,6.435 3.224375,6.435 3.171375,6.488 L0.208875,9.406" id="Fill-407"></path><path d="M7.610875,5.559 C7.360875,5.559 7.102875,5.51 6.852875,5.41 L6.853375,5.41 C6.732875,5.3615 6.674875,5.2245 6.723875,5.104 C6.772375,4.9835 6.908375,4.926 7.028375,4.9745 C7.222875,5.0525 7.422375,5.09 7.610875,5.09 C8.125375,5.0885 8.562875,4.8265 8.732375,4.4055 C8.780875,4.2855 8.918875,4.2275 9.037875,4.2755 C9.158375,4.324 9.216375,4.461 9.167375,4.5815 C8.913875,5.2055 8.285375,5.559 7.615875,5.559 L7.610875,5.559" id="Fill-408"></path></g><g id="Group-58" transform="translate(116.000000, 7.000000)"><path d="M0.1535,6.9165 L10.537,6.9165 C10.622,6.9165 10.6915,6.9865 10.6915,7.07 L10.6915,7.3775 C10.6915,7.4615 10.622,7.531 10.537,7.531 L0.1535,7.531 C0.0695,7.531 7.95807864e-13,7.4615 7.95807864e-13,7.3775 L7.95807864e-13,7.07 C7.95807864e-13,6.9865 0.0695,6.9165 0.1535,6.9165" id="Fill-410" fill="#EB7774"></path><path d="M7.3125,4.7735 L7.3125,4.7735 C7.423,4.799 7.539,4.8135 7.6575,4.8135 C8.501,4.8135 9.1845,4.13 9.1845,3.287 C9.1845,2.445 8.501,1.761 7.6575,1.761 C6.8155,1.761 6.1325,2.445 6.1325,3.287 L6.1325,3.3125 L7.6045,3.299 L7.3125,4.7735 Z M5.89,3.4785 L5.89,3.4785 C5.911,3.878 6.08,4.2695 6.3955,4.5635 C6.602,4.7555 6.846,4.882 7.102,4.9445 L7.403,3.4695 L5.89,3.4785 Z M3.7255,5.8165 L4.2935,5.8165 L4.2935,1.3005 L3.7255,1.3005 L3.7255,5.8165 Z M2.85,5.8165 L3.4185,5.8165 L3.4185,2.4 L2.85,2.4 L2.85,5.8165 Z M1.974,5.8165 L2.5425,5.8165 L2.5425,4.049 L1.974,4.049 L1.974,5.8165 Z M1.099,5.8165 L1.667,5.8165 L1.667,3.146 L1.099,3.146 L1.099,5.8165 Z M0.23,6.705 L10.461,6.705 L10.461,-8.52651283e-14 L0.23,-8.52651283e-14 L0.23,6.705 Z" id="Fill-411" fill="#EB7774"></path><polyline id="Fill-412" fill="#EB7774" points="2.4585 11.012 2.4585 10.7595 5.154 10.7595 5.154 7.754 5.5345 7.754 5.5345 10.7595 8.234 10.7595 8.234 11.4845 7.852 11.4845 7.852 11.0855 5.5345 11.0855 5.5345 11.4845 5.154 11.4845 5.154 11.0855 2.8395 11.0855 2.8395 11.4845 2.4585 11.4845 2.4585 11.012"></polyline><polyline id="Fill-413" fill="#FFFFFE" points="2.9355 11.1775 3.0385 11.1775 3.1035 11.2435 3.1035 11.723 3.0385 11.7885 2.9355 11.7885 2.869 11.723 2.869 11.2435 2.9355 11.1775"></polyline><polyline id="Fill-414" fill="#FFFFFE" points="2.2555 11.1775 2.3595 11.1775 2.4235 11.2435 2.4235 11.723 2.3595 11.7885 2.2555 11.7885 2.189 11.723 2.189 11.2435 2.2555 11.1775"></polyline><polyline id="Fill-415" fill="#FFFFFE" points="8.328 11.1775 8.4325 11.1775 8.497 11.2435 8.497 11.723 8.4325 11.7885 8.328 11.7885 8.264 11.723 8.264 11.2435 8.328 11.1775"></polyline><polyline id="Fill-416" fill="#FFFFFE" points="7.649 11.1775 7.752 11.1775 7.818 11.2435 7.818 11.723 7.752 11.7885 7.649 11.7885 7.5835 11.723 7.5835 11.2435 7.649 11.1775"></polyline><polyline id="Fill-417" fill="#FFFFFE" points="5.6325 11.1775 5.7355 11.1775 5.8015 11.2435 5.8015 11.723 5.7355 11.7885 5.6325 11.7885 5.567 11.723 5.567 11.2435 5.6325 11.1775"></polyline><polyline id="Fill-418" fill="#FFFFFE" points="4.953 11.1775 5.0565 11.1775 5.1215 11.2435 5.1215 11.723 5.0565 11.7885 4.953 11.7885 4.887 11.723 4.887 11.2435 4.953 11.1775"></polyline></g><path d="M145.137414,111 C144.029943,102.704469 149.797873,92.2904483 155.912685,95.6453548 C162.793698,99.4211368 150.946664,108.108308 145.137414,111" id="Fill-420" fill="#67B37E"></path><path d="M153.896787,98.0189006 C151.487984,100.461272 149.458639,103.398734 147.774349,106.198116 C146.145712,108.905096 144.71996,111.78113 144,114.882397 L144.033898,115 L144.106754,114.954324 C145.331647,110.40034 148.151783,106.137214 150.092082,103.26958 C151.300784,101.483477 152.546926,99.6805744 153.982798,98.1071032 L154,98 L153.896787,98.0189006" id="Fill-421" fill="#426053"></path><path d="M151.135825,97 C151.028487,97.7911191 150.993936,98.5966537 151.000846,99.4004584 C151.004071,99.8369578 150.997161,100.300558 151.126612,100.67536 C151.270804,101.091101 151.815787,101.027096 152.336355,100.920422 C153.194139,100.743977 154.008619,100.363409 154.86456,100.077984 C154.916156,100.060685 154.988022,100.042234 154.988022,100.042234 L155,100.020322 L154.982955,100.00533 C154.66048,100.067028 154.345375,100.212336 154.025203,100.323623 C153.313455,100.569262 152.592953,100.836812 151.862777,100.875446 C151.594201,100.889861 151.2814,100.90716 151.187421,100.569262 C151.099892,100.250969 151.090679,99.8980792 151.079162,99.5521088 C151.050139,98.706211 151.068106,97.8533938 151.162545,97.0247945 L151.135825,97" id="Fill-422" fill="#426053"></path><path d="M149.135825,100 C149.028487,100.791192 148.993936,101.596801 149.000846,102.400679 C149.004532,102.837219 148.997161,103.300862 149.126612,103.675698 C149.270804,104.091478 149.815787,104.02689 150.336355,103.920206 C151.194599,103.744322 152.008619,103.363719 152.865021,103.078267 C152.916156,103.060967 152.988022,103.041937 152.988022,103.041937 L153,103.0206 L152.982955,103.005607 C152.66048,103.067311 152.346297,103.212055 152.025203,103.323929 C151.313455,103.569014 150.592953,103.837166 149.862777,103.875803 C149.594201,103.89022 149.2814,103.90752 149.187421,103.568437 C149.099892,103.251269 149.090679,102.897769 149.079162,102.552344 C149.050139,101.706368 149.068106,100.852896 149.162545,100.024797 L149.135825,100" id="Fill-423" fill="#426053"></path><path d="M147.135713,103 C147.028845,103.790623 146.994297,104.59624 147.000746,105.400703 C147.004431,105.837247 146.997061,106.300894 147.126961,106.675157 C147.270219,107.091517 147.816074,107.026929 148.336595,106.920244 C149.194301,106.744358 150.008708,106.363752 150.864573,106.078297 C150.915703,106.060997 150.988023,106.041967 150.988023,106.041967 L151,106.02063 L150.982956,106.005636 C150.66051,106.06734 150.345434,106.212086 150.025291,106.323961 C149.313146,106.569049 148.592709,106.837203 147.862599,106.87584 C147.594047,106.890257 147.281735,106.907557 147.187765,106.568472 C147.099783,106.250723 147.091031,105.897798 147.079055,105.552369 C147.050034,104.706385 147.06846,103.852904 147.162891,103.024797 L147.135713,103" id="Fill-424" fill="#426053"></path><path d="M146,112 C147.569321,107.715997 153.726094,104.057532 156.406366,107.15172 C159.422884,110.63358 150.171047,111.994735 146,112" id="Fill-425" fill="#7CC190"></path><path d="M154.935901,107 C152.936216,107.601252 151.031629,108.553972 149.359796,109.527551 C147.743656,110.46932 146.202123,111.550322 145.009983,112.931688 L145,113 L145.053591,112.99635 C146.900384,111.012168 149.59255,109.596384 151.428834,108.656179 C152.572637,108.069529 153.741659,107.485486 154.963222,107.067269 L155,107.017208 L154.935901,107" id="Fill-426" fill="#426053"></path><path d="M153.974968,107 C153.688189,107.265315 153.450521,107.551738 153.243773,107.848096 C153.131608,108.008692 153.004286,108.176738 153.000042,108.343543 C152.995192,108.529387 153.411111,108.631209 153.819149,108.711507 C154.490927,108.844785 155.186349,108.892798 155.886016,108.985099 L155.986055,109 L156,108.995447 L155.992118,108.985927 C155.739899,108.934189 155.471915,108.914735 155.208782,108.881623 C154.624312,108.807947 154.028322,108.740066 153.48508,108.586507 C153.285002,108.530215 153.051577,108.464404 153.072798,108.318709 C153.092199,108.182119 153.1789,108.050497 153.261356,107.921772 C153.462647,107.605132 153.700315,107.297185 153.9877,107.015315 L153.974968,107" id="Fill-427" fill="#426053"></path><path d="M151.974361,108 C151.688189,108.264901 151.449915,108.551738 151.243774,108.848096 C151.131609,109.008278 151.004286,109.176738 151.000042,109.343543 C150.995192,109.528974 151.410505,109.630795 151.818543,109.711093 C152.490927,109.844371 153.185743,109.892384 153.886016,109.985099 L153.985449,110 L154,109.995033 L153.992118,109.985927 C153.739899,109.934189 153.471915,109.914735 153.208782,109.881623 C152.624312,109.807947 152.028322,109.740066 151.484473,109.586507 C151.285002,109.529387 151.051577,109.464404 151.072191,109.318295 C151.092199,109.181705 151.178293,109.050497 151.26075,108.921358 C151.462647,108.605132 151.700315,108.297185 151.9877,108.015315 L151.974361,108" id="Fill-428" fill="#426053"></path><path d="M149.974158,109 C149.687436,109.264487 149.450421,109.551738 149.243715,109.847682 C149.131573,110.008278 149.004276,110.176325 149.000032,110.343543 C148.995789,110.52856 149.410414,110.630381 149.818371,110.711507 C150.49062,110.844371 151.185299,110.892384 151.885433,110.984685 L151.984846,111 L152,110.995033 L151.991514,110.985513 C151.739344,110.934189 151.471414,110.914735 151.208333,110.881623 C150.623979,110.807533 150.028108,110.740066 149.484367,110.586093 C149.284329,110.529387 149.051557,110.46399 149.072773,110.318295 C149.092171,110.181705 149.178248,110.050497 149.260688,109.920944 C149.462545,109.605132 149.700772,109.296772 149.986888,109.015315 L149.974158,109" id="Fill-429" fill="#426053"></path><path d="M143,112 C141.431194,107.715997 135.273791,104.057532 132.593479,107.15172 C129.577454,110.63358 138.828891,111.994735 143,112" id="Fill-430" fill="#8CC899"></path><path d="M134.064099,107 C136.062733,107.601252 137.967845,108.553972 139.639678,109.527551 C141.255819,110.46932 142.797877,111.550322 143.989492,112.931688 L144,113 L143.945883,112.99635 C142.099616,111.012168 139.40745,109.596384 137.57064,108.656179 C136.427363,108.069529 135.257815,107.485486 134.036778,107.067269 L134,107.017208 L134.064099,107" id="Fill-431" fill="#426053"></path><path d="M136.025645,107 C136.311818,107.265315 136.549488,107.551738 136.756236,107.848096 C136.868401,108.008692 136.995724,108.176738 136.999968,108.343543 C137.004212,108.529387 136.588897,108.631209 136.181464,108.711507 C135.508472,108.844785 134.81426,108.892798 134.113984,108.985099 L134.013945,109 L134,108.995447 L134.008488,108.985927 C134.260102,108.934189 134.528086,108.914735 134.791827,108.881623 C135.375693,108.807947 135.972291,108.740066 136.514928,108.586507 C136.715007,108.530215 136.947826,108.464404 136.927212,108.318709 C136.90781,108.182119 136.82111,108.050497 136.739259,107.921772 C136.537362,107.605132 136.299692,107.297185 136.012307,107.015315 L136.025645,107" id="Fill-432" fill="#426053"></path><path d="M138.026251,108 C138.311818,108.264901 138.549488,108.551738 138.756842,108.848096 C138.868401,109.008278 138.995724,109.176738 138.999968,109.343543 C139.004212,109.528974 138.589503,109.630795 138.181464,109.711093 C137.509078,109.844371 136.81426,109.892384 136.113984,109.985099 L136.014551,110 L136,109.995033 L136.008488,109.985927 C136.260709,109.934189 136.528086,109.914735 136.791827,109.881623 C137.375693,109.807947 137.972291,109.740066 138.515535,109.586507 C138.715007,109.529387 138.948432,109.464404 138.927212,109.318295 C138.908417,109.181705 138.821716,109.050497 138.739259,108.921358 C138.537362,108.605132 138.299692,108.297185 138.012307,108.015315 L138.026251,108" id="Fill-433" fill="#426053"></path><path d="M140.026245,109 C140.311811,109.264487 140.549479,109.551738 140.756833,109.847682 C140.868391,110.008278 140.995714,110.176325 140.999958,110.343543 C141.004808,110.52856 140.589495,110.630381 140.181457,110.711507 C139.509073,110.844371 138.813651,110.892384 138.113984,110.984685 L138.014551,111 L138,110.995033 L138.007882,110.985513 C138.260101,110.934189 138.528085,110.914735 138.791218,110.881623 C139.375688,110.807533 139.972284,110.740066 140.515527,110.586093 C140.714998,110.529387 140.948423,110.46399 140.927809,110.318295 C140.908407,110.181705 140.8211,110.050497 140.738644,109.920944 C140.537353,109.605132 140.299685,109.296772 140.0123,109.015315 L140.026245,109" id="Fill-434" fill="#426053"></path><path d="M143.834761,112 C136.875174,107.240892 132.764564,95.7630137 139.242117,93.3304538 C146.53194,90.5928496 145.412556,105.577439 143.834761,112" id="Fill-435" fill="#67B37E"></path><path d="M139,96.0931373 C139.199725,99.5897308 140.020247,103.114213 140.967399,106.27667 C141.88315,109.33494 143.060398,112.344799 144.874914,114.948432 L144.984043,115 L145,114.912651 C142.446809,110.957212 141.174331,105.939903 140.347117,102.53171 C139.832361,100.409023 139.329444,98.2452919 139.123027,96.0836657 L139.055594,96 L139,96.0931373" id="Fill-436" fill="#426053"></path><path d="M137,97.6253039 C137.465878,98.2286194 137.996197,98.7746901 138.55768,99.2820364 C138.862455,99.557036 139.177266,99.8595356 139.533805,99.9796375 C139.929432,100.112648 140.295479,99.5710666 140.61293,99.0238735 C141.136911,98.1231094 141.486055,97.131427 141.931861,96.1610712 C141.9588,96.1032652 142,96.0246938 142,96.0246938 L141.994718,96 L141.971477,96.0061735 C141.771815,96.3423465 141.63501,96.7239786 141.470737,97.0904577 C141.105219,97.901426 140.748679,98.7348432 140.225755,99.4313219 C140.034016,99.6878011 139.811113,99.9863722 139.506338,99.855607 C139.220051,99.7338215 138.969153,99.5166279 138.721424,99.3067302 C138.115043,98.7937717 137.53877,98.2319868 137.036974,97.6157631 C137.036974,97.6157631 137.003697,97.5714264 137,97.6253039" id="Fill-437" fill="#426053"></path><path d="M138,101.624692 C138.466308,102.22855 138.997043,102.774043 139.557879,103.281934 C139.862062,103.556925 140.176806,103.859416 140.533798,103.979514 C140.929341,104.113081 141.294782,103.570394 141.612695,103.02378 C142.136037,102.122482 142.485108,101.130831 142.931876,100.161066 C142.958809,100.102701 143,100.024693 143,100.024693 L142.994191,100 L142.970955,100.006173 C142.770807,100.341775 142.63403,100.723956 142.470321,101.089863 C142.104351,101.901367 141.748416,102.734758 141.225602,103.430654 C141.033376,103.687125 140.81052,103.985687 140.505809,103.855487 C140.22011,103.733144 139.969265,103.515957 139.721589,103.306066 C139.114808,102.792563 138.538657,102.231356 138.037495,101.616274 C138.037495,101.616274 138.004753,101.571378 138,101.624692" id="Fill-438" fill="#426053"></path><path d="M139,105.625304 C139.465878,106.228619 139.996197,106.77469 140.55768,107.282036 C140.861927,107.557036 141.177266,107.859536 141.533277,107.979637 C141.928903,108.112648 142.295479,107.571067 142.612402,107.023873 C143.136911,106.123109 143.486055,105.131427 143.931861,104.161071 C143.9588,104.103265 144,104.024694 144,104.024694 L143.994718,104 L143.971477,104.006173 C143.771287,104.342346 143.63501,104.723979 143.470737,105.090458 C143.105219,105.901426 142.748151,106.734843 142.225755,107.431322 C142.033488,107.687801 141.810585,107.986372 141.506338,107.855607 C141.220051,107.733821 140.969153,107.516628 140.721424,107.30673 C140.115043,106.793772 139.53877,106.231987 139.036974,105.615763 C139.036974,105.615763 139.003697,105.571426 139,105.625304" id="Fill-439" fill="#426053"></path><path d="M149.845853,136 C149.845853,136 151.412582,135.232343 151.525922,134.77227 C151.902317,133.248444 152.071536,131.872405 151.971902,130.28278 C151.847492,128.295748 151.51327,126.214718 150.841137,124.406806 C149.615483,121.109013 147.114621,117.727142 147.981277,113.765612 C148.110432,113.174986 148.307064,112.546238 148.54007,112 L139.460211,112 C139.693217,112.546238 139.889849,113.174986 140.019004,113.765612 C140.885133,117.727142 138.384798,121.109013 137.159144,124.406806 C136.487011,126.214718 136.152789,128.295748 136.027852,130.28278 C135.928745,131.872405 136.097964,133.248444 136.474359,134.77227 C136.587699,135.232343 137.819679,136 137.819679,136 L149.845853,136" id="Fill-440" fill="#E46E2A"></path><g id="Group-443" transform="translate(136.000000, 112.000000)"><mask id="mask-2" fill="white"><use xlink:href="#path-1"></use></mask><g id="Clip-442"></g><path d="M11.2325161,-2.17617391 C6.54864516,-1.092 3.93703226,5.04782609 5.40387097,11.5257391 C6.87122581,18.0036522 11.8652903,22.3826087 16.5496774,21.2984348 C21.2335484,20.2147826 23.8456774,14.0754783 22.3783226,7.59704348 C20.9109677,1.11913043 15.9169032,-3.26034783 11.2325161,-2.17617391" id="Fill-441" fill="#E77D2C" mask="url(#mask-2)"></path></g></g></g></g></svg>