<svg xmlns="http://www.w3.org/2000/svg" xmlns:xlink="http://www.w3.org/1999/xlink" width="168px" height="138px" viewBox="0 0 168 138"><title>Step_3_illustration</title><desc>Created with Sketch.</desc><defs><linearGradient x1="50%" y1="0%" x2="50%" y2="100%" id="linearGradient-1"><stop stop-color="#EDF5FF" offset="0%"></stop><stop stop-color="#FFFFFF" offset="100%"></stop></linearGradient></defs><g id="Welcome" stroke="none" stroke-width="1" fill="none" fill-rule="evenodd"><g id="03_HOURS" transform="translate(-1266.000000, -6522.000000)"><g id="Step_3_illustration" transform="translate(1266.000000, 6522.000000)"><path d="M97.1978671,4.52049851 C75.3907345,13.1522197 52.0360544,-6.57857229 30.1451996,2.4013785 C10.0420705,10.6484105 9.99244103,38.2584531 11.9379293,47.1120705 C15.8670379,64.9971383 8.52490694,84.2161473 3.52709617,95.2856692 C-5.79214822,115.926623 4.46945557,129.756112 21.2790122,129.958616 C38.0878211,130.161119 123.037868,129.554637 123.037868,129.554637 C123.037868,129.554637 147.456661,129.639955 157.611033,111.111399 C168.538516,91.1725143 166.158273,56.8184377 144.939836,36.4977708 C137.5893,27.877495 142.471504,-13.3613612 97.1978671,4.52049851 Z" id="Fill-171" fill="url(#linearGradient-1)" transform="translate(82.000000, 65.000000) scale(-1, 1) translate(-82.000000, -65.000000) "></path><g id="Group-108" transform="translate(4.000000, 8.000000)"><g id="Group-143"><path d="M0.789436095,130 C0.353449609,130 0,129.691823 0,129.311212 L0,129.268023 C0,128.887862 0.353449609,128.579235 0.789436095,128.579235 L163.210719,128.579235 C163.646344,128.579235 164,128.887862 164,129.268023 L164,129.311212 C164,129.691823 163.646344,130 163.210719,130 L0.789436095,130 Z" id="Fill-57" fill="#121A4C"></path><path d="M89.9937567,14.2076503 C89.2480952,14.2076503 88.637931,13.5841085 88.637931,12.8219245 L88.637931,1.38572577 C88.637931,0.623628849 89.2480952,0 89.9937567,0 L119.09245,0 C119.838112,0 120.448276,0.623628849 120.448276,1.38572577 L120.448276,12.8219245 C120.448276,13.5841085 119.838112,14.2076503 119.09245,14.2076503 L89.9937567,14.2076503 Z" id="Fill-59" fill="#0089FF"></path><path d="M92.1724138,11.7828078 L92.1724138,19.1803279 L100.655172,10.6557377 C100.655172,10.6557377 92.3450356,11.7828078 92.1724138,11.7828078" id="Fill-60" fill="#0089FF"></path><path d="M117.8662,12.0765027 L91.2200066,12.0765027 C90.577408,12.0765027 90.0517241,11.5519373 90.0517241,10.9108114 L90.0517241,2.5864564 C90.0517241,1.94533047 90.577408,1.42076503 91.2200066,1.42076503 L117.8662,1.42076503 C118.508799,1.42076503 119.034483,1.94533047 119.034483,2.5864564 L119.034483,10.9108114 C119.034483,11.5519373 118.508799,12.0765027 117.8662,12.0765027" id="Fill-61" fill="#FFFFFF"></path><path d="M105.740288,4.26229508 L92.7424709,4.26229508 C92.4286385,4.26229508 92.1724138,3.94267652 92.1724138,3.55191257 C92.1724138,3.16125576 92.4286385,2.84153005 92.7424709,2.84153005 L105.740288,2.84153005 C106.05412,2.84153005 106.310345,3.16125576 106.310345,3.55191257 C106.310345,3.94267652 106.05412,4.26229508 105.740288,4.26229508" id="Fill-62" fill="#0089FF"></path><path d="M116.597379,7.10382514 L92.4896881,7.10382514 C92.3151443,7.10382514 92.1724138,6.94561268 92.1724138,6.75221011 L92.1724138,6.74496228 C92.1724138,6.55165508 92.3151443,6.39344262 92.4896881,6.39344262 L116.597379,6.39344262 C116.771063,6.39344262 116.913793,6.55165508 116.913793,6.74496228 L116.913793,6.75221011 C116.913793,6.94561268 116.771063,7.10382514 116.597379,7.10382514" id="Fill-63" fill="#0089FF"></path><path d="M116.597379,7.81420765 L92.4896881,7.81420765 C92.3151443,7.81420765 92.1724138,7.65599519 92.1724138,7.46268799 L92.1724138,7.4553448 C92.1724138,7.26203759 92.3151443,7.10382514 92.4896881,7.10382514 L116.597379,7.10382514 C116.771063,7.10382514 116.913793,7.26203759 116.913793,7.4553448 L116.913793,7.46268799 C116.913793,7.65599519 116.771063,7.81420765 116.597379,7.81420765" id="Fill-64" fill="#0089FF"></path><path d="M111.659384,12.0765027 L110.857857,12.0765027 C110.688655,12.0765027 110.551724,11.9233804 110.551724,11.73451 L110.551724,10.9978278 C110.551724,10.8088601 110.688655,10.6557377 110.857857,10.6557377 L111.659384,10.6557377 C111.827714,10.6557377 111.965517,10.8088601 111.965517,10.9978278 L111.965517,11.73451 C111.965517,11.9233804 111.827714,12.0765027 111.659384,12.0765027" id="Fill-65" fill="#0089FF"></path><path d="M114.486782,12.0765027 L113.685632,12.0765027 C113.516326,12.0765027 113.37931,11.9233804 113.37931,11.73451 L113.37931,10.9978278 C113.37931,10.8088601 113.516326,10.6557377 113.685632,10.6557377 L114.486782,10.6557377 C114.656088,10.6557377 114.793103,10.8088601 114.793103,10.9978278 L114.793103,11.73451 C114.793103,11.9233804 114.656088,12.0765027 114.486782,12.0765027" id="Fill-66" fill="#0089FF"></path><path d="M117.314368,12.0765027 L116.513218,12.0765027 C116.343912,12.0765027 116.206897,11.9233804 116.206897,11.73451 L116.206897,10.9978278 C116.206897,10.8088601 116.343912,10.6557377 116.513218,10.6557377 L117.314368,10.6557377 C117.483674,10.6557377 117.62069,10.8088601 117.62069,10.9978278 L117.62069,11.73451 C117.62069,11.9233804 117.483674,12.0765027 117.314368,12.0765027" id="Fill-67" fill="#0089FF"></path><path d="M41.061625,39.7814208 C35.5110817,37.8951666 29.9948752,36.0336941 24.5636523,34.3192174 C24.7997178,32.9072902 25.1173331,31.5245126 25.5130647,30.1765006 L20.0689655,25.7471016 C20.8020561,23.7144756 21.6845118,21.7576206 22.7017395,19.8907104 L29.4703806,21.3716338 C29.5665237,21.218398 29.6643835,21.0658752 29.7622434,20.9143331 C33.5229811,23.6400416 38.4863652,26.4862708 44.8103448,29.4338549 C42.562143,32.2622555 41.1732196,35.8554092 41.061625,39.7814208" id="Fill-83" fill="#CEE3FF"></path><path d="M45.0735905,29.1256831 C38.7244077,26.3070933 33.7412428,23.585423 29.9655172,20.9789989 C31.1350355,19.2632614 32.4622707,17.6617474 33.9274005,16.1942327 L31.0790159,9.93317192 C32.6311916,8.55993413 34.2919592,7.30390317 36.0475294,6.18042247 L41.3969767,10.5556893 C43.357665,9.46604944 45.439873,8.56547482 47.6194689,7.87928213 L48.0391855,1.02596462 C50.0386567,0.531053472 52.0975949,0.18557037 54.2030726,0 L56.88426,6.33300444 C57.1910754,6.32482128 57.4987527,6.32004776 57.8081536,6.32004776 C59.8007301,6.32004776 61.7519382,6.49283193 63.6488503,6.82203394 L67.2410037,0.944985359 C69.2870143,1.43273624 71.2718342,2.0749444 73.181674,2.85959082 L72.5801089,9.70250889 C74.6243959,10.6953146 76.5506106,11.8874998 78.3354833,13.2537478 L84.2752917,9.70293509 C85.8421187,11.0653472 87.3012156,12.5461596 88.637931,14.132245 L84.9630409,19.801049 L58.3649029,19.801049 L58.3649029,23.1963815 C58.180469,23.1903294 57.9943113,23.1872607 57.8081536,23.1872607 C52.6819232,23.1872607 48.1012381,25.498835 45.0735905,29.1256831" id="Fill-84" fill="#C2DDFF"></path><path d="M58.1815907,80.9836066 C56.1155954,80.9836066 54.0859062,80.8266489 52.1037608,80.5257411 L51.0301348,73.6239398 C48.7808796,73.1348562 46.6154744,72.422043 44.5589878,71.5080464 L39.6351762,76.445709 C37.7723227,75.4736121 35.995048,74.3592994 34.3171831,73.1166457 L36.563845,66.5036117 C34.8228766,65.0389626 33.2323194,63.4017467 31.8181067,61.6171121 L25.1688865,63.69485 C23.9759686,61.9804561 22.9118514,60.1689392 21.9920944,58.2743474 L27.0438421,53.4667602 C26.1889177,51.3813912 25.5354061,49.1915283 25.1083761,46.9211054 L18.2603363,45.6616285 C18.0554656,44.0107981 17.9482759,42.3293566 17.9482759,40.6228539 C17.9482759,40.2064392 17.9569202,39.7918455 17.9690223,39.3785525 L24.6675152,37.4775438 C24.7505008,36.5771618 24.8689281,35.6871858 25.020204,34.8087432 C30.4894729,36.4765701 36.0443207,38.2873933 41.6337458,40.1223237 C41.6285592,40.2884734 41.6259659,40.4554902 41.6259659,40.6228539 C41.6259659,49.7950782 49.0384807,57.2305356 58.1815907,57.2305356 C58.3683083,57.2305356 58.5550259,57.2274138 58.7400146,57.2212569 L58.7400146,64.3079388 L90.7586207,64.3079388 C89.7437761,65.7110189 88.6407593,67.0455926 87.4582147,68.3047226 L81.1858873,65.2704968 C79.5313622,66.8253316 77.721239,68.214537 75.779722,69.4112308 L77.0348791,76.2835483 C75.1988229,77.2625826 73.2789168,78.1037369 71.2881271,78.7914023 L67.1379832,73.1790819 C64.9812224,73.7748272 62.7371538,74.1607176 60.4291171,74.3133394 L58.3570707,80.981005 C58.2982892,80.981005 58.2403722,80.9836066 58.1815907,80.9836066" id="Fill-85" fill="#C2DDFF"></path><g id="Group-107" transform="translate(15.120690, 80.983607)"><path d="M36.8584754,17.0491803 L0.607041817,17.0491803 C0.272249057,17.0491803 0,16.7790034 0,16.4457394 L0,5.36135175 C0,5.02808777 0.272249057,4.75791079 0.607041817,4.75791079 L36.8584754,4.75791079 C37.1941879,4.75791079 37.4655172,5.02808777 37.4655172,5.36135175 L37.4655172,16.4457394 C37.4655172,16.7790034 37.1941879,17.0491803 36.8584754,17.0491803" id="Fill-162" fill="#FFFFFF"></path><path d="M2,0 L35.4655172,0 C36.5700867,-4.1271253e-15 37.4655172,0.8954305 37.4655172,2 L37.4655172,4.75791079 L37.4655172,4.75791079 L0,4.75791079 L0,2 C-1.3527075e-16,0.8954305 0.8954305,2.02906125e-16 2,0 Z" id="Rectangle" fill="#0089FF"></path><path d="M1.6650864,2.77544796 L0.752043748,2.77544796 C0.559322103,2.77544796 0.402855024,2.60455319 0.402855024,2.3936751 L0.402855024,1.57125055 C0.402855024,1.36037247 0.559322103,1.1894777 0.752043748,1.1894777 L1.6650864,1.1894777 C1.85780804,1.1894777 2.01427512,1.36037247 2.01427512,1.57125055 L2.01427512,2.3936751 C2.01427512,2.60455319 1.85780804,2.77544796 1.6650864,2.77544796" id="Fill-163" fill="#FFFFFF"></path><path d="M4.88771972,2.77544796 L3.97413617,2.77544796 C3.78130036,2.77544796 3.62569522,2.60455319 3.62569522,2.3936751 L3.62569522,1.57125055 C3.62569522,1.36037247 3.78130036,1.1894777 3.97413617,1.1894777 L4.88771972,1.1894777 C5.08055554,1.1894777 5.23711531,1.36037247 5.23711531,1.57125055 L5.23711531,2.3936751 C5.23711531,2.60455319 5.08055554,2.77544796 4.88771972,2.77544796" id="Fill-164" fill="#FFFFFF"></path><path d="M7.30484987,2.77544796 L6.39222095,2.77544796 C6.19938513,2.77544796 6.04282536,2.60455319 6.04282536,2.3936751 L6.04282536,1.57125055 C6.04282536,1.36037247 6.19938513,1.1894777 6.39222095,1.1894777 L7.30484987,1.1894777 C7.49768569,1.1894777 7.65424546,1.36037247 7.65424546,1.57125055 L7.65424546,2.3936751 C7.65424546,2.60455319 7.49768569,2.77544796 7.30484987,2.77544796" id="Fill-165" fill="#FFFFFF"></path><path d="M36.0576505,7.53335875 L15.9106476,7.53335875 C15.5796484,7.53335875 15.3084909,7.17645085 15.3084909,6.7403121 C15.3084909,6.30417336 15.5796484,5.94738849 15.9106476,5.94738849 L36.0576505,5.94738849 C36.3886497,5.94738849 36.6598072,6.30417336 36.6598072,6.7403121 C36.6598072,7.17645085 36.3886497,7.53335875 36.0576505,7.53335875" id="Fill-166" fill="#9EC8FF"></path><path d="M21.553961,16.6526878 L1.40877534,16.6526878 C1.07685568,16.6526878 0.805710048,16.2957799 0.805710048,15.8596411 C0.805710048,15.4235024 1.07685568,15.0667175 1.40877534,15.0667175 L21.553961,15.0667175 C21.8858807,15.0667175 22.1570263,15.4235024 22.1570263,15.8596411 C22.1570263,16.2957799 21.8858807,16.6526878 21.553961,16.6526878" id="Fill-167" fill="#9EC8FF"></path><path d="M25.5835573,16.6526878 L23.565661,16.6526878 C23.4552153,16.6526878 23.3655914,16.5306427 23.3655914,16.3815313 L23.3655914,15.337874 C23.3655914,15.1886395 23.4552153,15.0667175 23.565661,15.0667175 L25.5835573,15.0667175 C25.6930976,15.0667175 25.7827215,15.1886395 25.7827215,15.337874 L25.7827215,16.3815313 C25.7827215,16.5306427 25.6930976,16.6526878 25.5835573,16.6526878" id="Fill-168" fill="#9EC8FF"></path><path d="M28.8063975,16.6526878 L26.7885012,16.6526878 C26.6780555,16.6526878 26.5884316,16.5306427 26.5884316,16.3815313 L26.5884316,15.337874 C26.5884316,15.1886395 26.6780555,15.0667175 26.7885012,15.0667175 L28.8063975,15.0667175 C28.9159378,15.0667175 29.0055617,15.1886395 29.0055617,15.337874 L29.0055617,16.3815313 C29.0055617,16.5306427 28.9159378,16.6526878 28.8063975,16.6526878" id="Fill-169" fill="#9EC8FF"></path><path d="M35.852411,9.91231414 L2.82259703,9.91231414 C2.59949767,9.91231414 2.41713014,9.73389929 2.41713014,9.51586691 C2.41713014,9.29774387 2.59949767,9.11932901 2.82259703,9.11932901 L35.852411,9.11932901 C36.0745846,9.11932901 36.2569522,9.29774387 36.2569522,9.51586691 C36.2569522,9.73389929 36.0745846,9.91231414 35.852411,9.91231414" id="Fill-170" fill="#9EC8FF"></path><path d="M35.852411,11.894777 L2.82259703,11.894777 C2.59949767,11.894777 2.41713014,11.7163621 2.41713014,11.4983297 C2.41713014,11.2802067 2.59949767,11.1017918 2.82259703,11.1017918 L35.852411,11.1017918 C36.0745846,11.1017918 36.2569522,11.2802067 36.2569522,11.4983297 C36.2569522,11.7163621 36.0745846,11.894777 35.852411,11.894777" id="Fill-171" fill="#9EC8FF"></path></g><path d="M33.8421962,58.2513661 C33.7304302,58.2513661 33.6201252,58.1892187 33.5485365,58.071433 C32.752295,56.7642873 32.0364081,55.3711874 31.4205994,53.9308306 C31.3278263,53.7126461 31.396493,53.4432813 31.5754647,53.3293296 C31.7544364,53.2154671 31.9750464,53.3000838 32.06855,53.5182683 C32.6668269,54.9169855 33.3615293,56.2699615 34.1351254,57.53948 C34.2549269,57.7371568 34.221324,58.0164187 34.0598842,58.163272 C33.9941395,58.2226553 33.9181678,58.2513661 33.8421962,58.2513661" id="Fill-86" fill="#FFFFFF"></path><path d="M54.2781844,69.6174863 C54.2592953,69.6174863 54.2404063,69.6165691 54.2215172,69.6138172 C49.0716752,68.89283 44.1639564,66.7216128 40.0298301,63.3359083 C39.8417982,63.1818041 39.8065958,62.8937762 39.9508395,62.6928904 C40.0950831,62.4920047 40.3646814,62.4543959 40.5527133,62.6085001 C44.5666366,65.8960549 49.3326875,68.0039794 54.3331344,68.703869 C54.5683889,68.7368913 54.7340974,68.9671302 54.703188,69.2184667 C54.6748545,69.4496229 54.4902569,69.6174863 54.2781844,69.6174863" id="Fill-87" fill="#FFFFFF"></path><polygon id="Fill-88" fill="#0089FF" points="56.1206897 64.6448087 137.413793 64.6448087 137.413793 19.1803279 56.1206897 19.1803279"></polygon><polygon id="Fill-89" fill="#FFFFFF" points="58.9482759 61.0928962 134.586207 61.0928962 134.586207 21.3114754 58.9482759 21.3114754"></polygon><path d="M132.2922,57.5409836 L120.332442,57.5409836 C120.427767,57.5409836 120.505759,57.4634783 120.505759,57.3679806 L120.505759,57.1948911 L132.118883,57.1948911 L132.118883,51.5603567 L132.2922,51.5603567 C132.387524,51.5603567 132.465517,51.4829378 132.465517,51.3873537 L132.465517,57.3679806 C132.465517,57.4634783 132.387524,57.5409836 132.2922,57.5409836 M120.332442,57.5409836 L108.372684,57.5409836 C108.468875,57.5409836 108.546002,57.4634783 108.546002,57.3679806 L108.546002,57.1948911 L120.159125,57.1948911 L120.159125,57.3679806 C120.159125,57.4634783 120.237118,57.5409836 120.332442,57.5409836 M108.372684,57.5409836 L96.4137931,57.5409836 C96.5091176,57.5409836 96.5871104,57.4634783 96.5871104,57.3679806 L96.5871104,57.1948911 L108.199367,57.1948911 L108.199367,57.3679806 C108.199367,57.4634783 108.27736,57.5409836 108.372684,57.5409836 M96.4137931,57.5409836 L84.4540353,57.5409836 C84.5502264,57.5409836 84.6273525,57.4634783 84.6273525,57.3679806 L84.6273525,57.1948911 L96.2404758,57.1948911 L96.2404758,57.3679806 C96.2404758,57.4634783 96.317602,57.5409836 96.4137931,57.5409836 M84.4540353,57.5409836 L72.495144,57.5409836 C72.5904685,57.5409836 72.6684613,57.4634783 72.6684613,57.3679806 L72.6684613,57.1948911 L84.280718,57.1948911 L84.280718,57.3679806 C84.280718,57.4634783 84.3587108,57.5409836 84.4540353,57.5409836 M72.495144,57.5409836 L60.5353862,57.5409836 C60.4400617,57.5409836 60.362069,57.4634783 60.362069,57.3679806 L60.362069,21.4843919 C60.362069,21.3888942 60.4400617,21.3114754 60.5353862,21.3114754 L132.2922,21.3114754 C132.387524,21.3114754 132.465517,21.3888942 132.465517,21.4843919 L132.465517,27.4650189 C132.465517,27.3695212 132.387524,27.2919294 132.2922,27.2919294 L132.118883,27.2919294 L132.118883,21.6573949 L120.505759,21.6573949 L120.505759,21.4843919 C120.505759,21.3888942 120.427767,21.3114754 120.332442,21.3114754 C120.237118,21.3114754 120.159125,21.3888942 120.159125,21.4843919 L120.159125,21.6573949 L108.546002,21.6573949 L108.546002,21.4843919 C108.546002,21.3888942 108.468875,21.3114754 108.372684,21.3114754 C108.27736,21.3114754 108.199367,21.3888942 108.199367,21.4843919 L108.199367,21.6573949 L96.5871104,21.6573949 L96.5871104,21.4843919 C96.5871104,21.3888942 96.5091176,21.3114754 96.4137931,21.3114754 C96.317602,21.3114754 96.2404758,21.3888942 96.2404758,21.4843919 L96.2404758,21.6573949 L84.6273525,21.6573949 L84.6273525,21.4843919 C84.6273525,21.3888942 84.5502264,21.3114754 84.4540353,21.3114754 C84.3587108,21.3114754 84.280718,21.3888942 84.280718,21.4843919 L84.280718,21.6573949 L72.6684613,21.6573949 L72.6684613,21.4843919 C72.6684613,21.3888942 72.5904685,21.3114754 72.495144,21.3114754 C72.398953,21.3114754 72.3218268,21.3888942 72.3218268,21.4843919 L72.3218268,21.6573949 L60.7087035,21.6573949 L60.7087035,27.2919294 L60.5353862,27.2919294 C60.4400617,27.2919294 60.362069,27.3695212 60.362069,27.4650189 C60.362069,27.560603 60.4400617,27.6380218 60.5353862,27.6380218 L60.7087035,27.6380218 L60.7087035,33.2725563 L60.5353862,33.2725563 C60.4400617,33.2725563 60.362069,33.3500617 60.362069,33.4456458 C60.362069,33.541057 60.4400617,33.6186488 60.5353862,33.6186488 L60.7087035,33.6186488 L60.7087035,39.2531833 L60.5353862,39.2531833 C60.4400617,39.2531833 60.362069,39.3306021 60.362069,39.4261863 C60.362069,39.5216839 60.4400617,39.5991893 60.5353862,39.5991893 L60.7087035,39.5991893 L60.7087035,45.2338102 L60.5353862,45.2338102 C60.4400617,45.2338102 60.362069,45.3112291 60.362069,45.4067267 C60.362069,45.5023109 60.4400617,45.5798162 60.5353862,45.5798162 L60.7087035,45.5798162 L60.7087035,51.2142642 L60.5353862,51.2142642 C60.4400617,51.2142642 60.362069,51.291856 60.362069,51.3873537 C60.362069,51.4829378 60.4400617,51.5603567 60.5353862,51.5603567 L60.7087035,51.5603567 L60.7087035,57.1948911 L72.3218268,57.1948911 L72.3218268,57.3679806 C72.3218268,57.4634783 72.398953,57.5409836 72.495144,57.5409836 M132.465517,51.3873537 C132.465517,51.291856 132.387524,51.2142642 132.2922,51.2142642 L132.118883,51.2142642 L132.118883,45.5798162 L132.2922,45.5798162 C132.387524,45.5798162 132.465517,45.5023109 132.465517,45.4067267 L132.465517,51.3873537 M132.465517,45.4067267 C132.465517,45.3112291 132.387524,45.2338102 132.2922,45.2338102 L132.118883,45.2338102 L132.118883,39.5991893 L132.2922,39.5991893 C132.387524,39.5991893 132.465517,39.5216839 132.465517,39.4261863 L132.465517,45.4067267 M132.465517,39.4261863 C132.465517,39.3306021 132.387524,39.2531833 132.2922,39.2531833 L132.118883,39.2531833 L132.118883,33.6186488 L132.2922,33.6186488 C132.387524,33.6186488 132.465517,33.541057 132.465517,33.4456458 L132.465517,39.4261863 M132.465517,33.4456458 C132.465517,33.3500617 132.387524,33.2725563 132.2922,33.2725563 L132.118883,33.2725563 L132.118883,27.6380218 L132.2922,27.6380218 C132.387524,27.6380218 132.465517,27.560603 132.465517,27.4650189 L132.465517,33.4456458" id="Fill-90" fill="#CEE3FF"></path><path d="M132.2922,52.147541 L120.505759,52.147541 L120.505759,51.147541 L132.2922,51.147541 C132.387524,51.147541 132.465517,51.3717349 132.465517,51.647666 C132.465517,51.9238469 132.387524,52.147541 132.2922,52.147541 L132.2922,52.147541 Z M108.546002,52.147541 L120.159125,52.147541 L120.159125,51.147541 L108.546002,51.147541 L108.546002,52.147541 Z M96.5871104,52.147541 L108.199367,52.147541 L108.199367,51.147541 L96.5871104,51.147541 L96.5871104,52.147541 Z M84.6273525,52.147541 L96.2404758,52.147541 L96.2404758,51.147541 L84.6273525,51.147541 L84.6273525,52.147541 Z M72.6684613,52.147541 L84.280718,52.147541 L84.280718,51.147541 L72.6684613,51.147541 L72.6684613,52.147541 Z M72.3218268,52.147541 L60.5353862,52.147541 C60.4400617,52.147541 60.362069,51.9238469 60.362069,51.647666 C60.362069,51.3717349 60.4400617,51.147541 60.5353862,51.147541 L72.3218268,51.147541 L72.3218268,52.147541 L72.3218268,52.147541 Z" id="Fill-91" fill="#CEE3FF"></path><path d="M132.2922,46.4644809 L120.505759,46.4644809 L120.505759,45.4644809 L132.2922,45.4644809 C132.387524,45.4644809 132.465517,45.6882309 132.465517,45.9642309 C132.465517,46.2404809 132.387524,46.4644809 132.2922,46.4644809 L132.2922,46.4644809 Z M108.546002,46.4644809 L120.159125,46.4644809 L120.159125,45.4644809 L108.546002,45.4644809 L108.546002,46.4644809 Z M96.5871104,46.4644809 L108.199367,46.4644809 L108.199367,45.4644809 L96.5871104,45.4644809 L96.5871104,46.4644809 Z M84.6273525,46.4644809 L96.2404758,46.4644809 L96.2404758,45.4644809 L84.6273525,45.4644809 L84.6273525,46.4644809 Z M72.6684613,46.4644809 L84.280718,46.4644809 L84.280718,45.4644809 L72.6684613,45.4644809 L72.6684613,46.4644809 Z M72.3218268,46.4644809 L60.5353862,46.4644809 C60.4400617,46.4644809 60.362069,46.2404809 60.362069,45.9642309 C60.362069,45.6882309 60.4400617,45.4644809 60.5353862,45.4644809 L72.3218268,45.4644809 L72.3218268,46.4644809 L72.3218268,46.4644809 Z" id="Fill-92" fill="#CEE3FF"></path><path d="M132.2922,40.7814208 L120.505759,40.7814208 L120.505759,39.7814208 L132.2922,39.7814208 C132.387524,39.7814208 132.465517,40.0051708 132.465517,40.2814208 C132.465517,40.5574208 132.387524,40.7814208 132.2922,40.7814208 L132.2922,40.7814208 Z M108.546002,40.7814208 L120.159125,40.7814208 L120.159125,39.7814208 L108.546002,39.7814208 L108.546002,40.7814208 Z M96.5871104,40.7814208 L108.199367,40.7814208 L108.199367,39.7814208 L96.5871104,39.7814208 L96.5871104,40.7814208 Z M84.6273525,40.7814208 L96.2404758,40.7814208 L96.2404758,39.7814208 L84.6273525,39.7814208 L84.6273525,40.7814208 Z M72.6684613,40.7814208 L84.280718,40.7814208 L84.280718,39.7814208 L72.6684613,39.7814208 L72.6684613,40.7814208 Z M72.3218268,40.7814208 L60.5353862,40.7814208 C60.4400617,40.7814208 60.362069,40.5574208 60.362069,40.2814208 C60.362069,40.0051708 60.4400617,39.7814208 60.5353862,39.7814208 L72.3218268,39.7814208 L72.3218268,40.7814208 L72.3218268,40.7814208 Z" id="Fill-93" fill="#CEE3FF"></path><path d="M132.2922,34.3879781 L120.505759,34.3879781 L120.505759,33.3879781 L132.2922,33.3879781 C132.387524,33.3879781 132.465517,33.6119222 132.465517,33.8881031 C132.465517,34.1637842 132.387524,34.3879781 132.2922,34.3879781 L132.2922,34.3879781 Z M108.546002,34.3879781 L120.159125,34.3879781 L120.159125,33.3879781 L108.546002,33.3879781 L108.546002,34.3879781 Z M96.5871104,34.3879781 L108.199367,34.3879781 L108.199367,33.3879781 L96.5871104,33.3879781 L96.5871104,34.3879781 Z M84.6273525,34.3879781 L96.2404758,34.3879781 L96.2404758,33.3879781 L84.6273525,33.3879781 L84.6273525,34.3879781 Z M72.6684613,34.3879781 L84.280718,34.3879781 L84.280718,33.3879781 L72.6684613,33.3879781 L72.6684613,34.3879781 Z M72.3218268,34.3879781 L60.5353862,34.3879781 C60.4400617,34.3879781 60.362069,34.1637842 60.362069,33.8881031 C60.362069,33.6119222 60.4400617,33.3879781 60.5353862,33.3879781 L72.3218268,33.3879781 L72.3218268,34.3879781 L72.3218268,34.3879781 Z" id="Fill-94" fill="#CEE3FF"></path><path d="M132.2922,28.704918 L120.505759,28.704918 L120.505759,27.704918 L132.2922,27.704918 C132.387524,27.704918 132.465517,27.929112 132.465517,28.205043 C132.465517,28.481224 132.387524,28.704918 132.2922,28.704918 L132.2922,28.704918 Z M108.546002,28.704918 L120.159125,28.704918 L120.159125,27.704918 L108.546002,27.704918 L108.546002,28.704918 Z M96.5871104,28.704918 L108.199367,28.704918 L108.199367,27.704918 L96.5871104,27.704918 L96.5871104,28.704918 Z M84.6273525,28.704918 L96.2404758,28.704918 L96.2404758,27.704918 L84.6273525,27.704918 L84.6273525,28.704918 Z M72.6684613,28.704918 L84.280718,28.704918 L84.280718,27.704918 L72.6684613,27.704918 L72.6684613,28.704918 Z M72.3218268,28.704918 L60.5353862,28.704918 C60.4400617,28.704918 60.362069,28.481224 60.362069,28.205043 C60.362069,27.929112 60.4400617,27.704918 60.5353862,27.704918 L72.3218268,27.704918 L72.3218268,28.704918 L72.3218268,28.704918 Z" id="Fill-95" fill="#CEE3FF"></path><path d="M120.094828,57.5409836 L120.094828,57.5409836 C119.900431,57.5409836 119.741379,57.4634783 119.741379,57.3679806 L119.741379,21.4843919 C119.741379,21.3888942 119.900431,21.3114754 120.094828,21.3114754 C120.289224,21.3114754 120.448276,21.3888942 120.448276,21.4843919 L120.448276,57.3679806 C120.448276,57.4634783 120.289224,57.5409836 120.094828,57.5409836" id="Fill-96" fill="#CEE3FF"></path><path d="M108.077586,57.5409836 L108.077586,57.5409836 C107.88319,57.5409836 107.724138,57.4634783 107.724138,57.3679806 L107.724138,21.4843919 C107.724138,21.3888942 107.88319,21.3114754 108.077586,21.3114754 C108.27375,21.3114754 108.431034,21.3888942 108.431034,21.4843919 L108.431034,57.3679806 C108.431034,57.4634783 108.27375,57.5409836 108.077586,57.5409836" id="Fill-97" fill="#CEE3FF"></path><path d="M96.0603448,57.5409836 L96.0603448,57.5409836 C95.864181,57.5409836 95.7068966,57.4634783 95.7068966,57.3679806 L95.7068966,21.4843919 C95.7068966,21.3888942 95.864181,21.3114754 96.0603448,21.3114754 C96.2547414,21.3114754 96.4137931,21.3888942 96.4137931,21.4843919 L96.4137931,57.3679806 C96.4137931,57.4634783 96.2547414,57.5409836 96.0603448,57.5409836" id="Fill-98" fill="#CEE3FF"></path><path d="M84.0431034,57.5409836 L84.0431034,57.5409836 C83.8487069,57.5409836 83.6896552,57.4634783 83.6896552,57.3679806 L83.6896552,21.4843919 C83.6896552,21.3888942 83.8487069,21.3114754 84.0431034,21.3114754 C84.2392672,21.3114754 84.3965517,21.3888942 84.3965517,21.4843919 L84.3965517,57.3679806 C84.3965517,57.4634783 84.2392672,57.5409836 84.0431034,57.5409836" id="Fill-99" fill="#CEE3FF"></path><path d="M72.0258621,57.5409836 L72.0258621,57.5409836 C71.8296983,57.5409836 71.6724138,57.4634783 71.6724138,57.3679806 L71.6724138,21.4843919 C71.6724138,21.3888942 71.8296983,21.3114754 72.0258621,21.3114754 C72.2202586,21.3114754 72.3793103,21.3888942 72.3793103,21.4843919 L72.3793103,57.3679806 C72.3793103,57.4634783 72.2202586,57.5409836 72.0258621,57.5409836" id="Fill-100" fill="#CEE3FF"></path><path d="M60.0035464,58.2513661 C59.8763955,58.2513661 59.7535991,58.1806021 59.6917655,58.058294 C59.6064176,57.8857522 59.6752184,57.6758191 59.847656,57.5893298 L71.8190004,51.5729935 L77.9927863,45.6136179 L83.7267694,33.5903806 C83.7468,33.5485338 83.7746687,33.5111424 83.8095046,33.4803033 L90.3272946,27.6546804 C90.4100298,27.5812081 90.5223754,27.5511553 90.6294957,27.5734328 C90.7374869,27.5957977 90.828931,27.6680469 90.8750886,27.7682522 L96.370446,39.6217433 L102.899558,51.2586617 L107.81664,45.5921266 C107.880215,45.5189165 107.970789,45.4754971 108.067458,45.4722647 C108.16674,45.4674597 108.258184,45.5062489 108.326114,45.5750035 L113.920754,51.2134077 L119.767954,33.6306549 C119.784501,33.5792855 119.81324,33.5326337 119.85156,33.4943687 L131.869933,21.4140834 C132.006663,21.2775352 132.227,21.2771857 132.36286,21.4135593 C132.499591,21.5499328 132.499591,21.7712231 132.363731,21.9077714 L120.402837,33.929873 L114.40236,51.9722422 C114.364911,52.0872118 114.269984,52.1741379 114.151542,52.201832 C114.034841,52.229526 113.910303,52.194144 113.824955,52.1081789 L108.096198,46.3341001 L103.100735,52.0910557 C103.026709,52.1766714 102.915234,52.2205276 102.802888,52.2092578 C102.690543,52.1977259 102.590389,52.132029 102.534652,52.0330468 L95.7564639,39.9527615 C95.7521094,39.9448988 95.7486259,39.9368614 95.7442714,39.9287367 L90.4413821,28.4893459 L84.3250754,33.955383 L78.5945758,45.9723301 C78.576287,46.0100709 78.5519019,46.0443172 78.5214205,46.0733217 L72.2640286,52.1134207 C72.2387726,52.1378823 72.210033,52.1583252 72.1786807,52.1740505 L60.1594369,58.2142369 C60.1097958,58.2393974 60.0566711,58.2513661 60.0035464,58.2513661" id="Fill-101" fill="#F39892"></path><path d="M60.0034559,58.2513661 C59.9154948,58.2513661 59.8284046,58.2183429 59.7604743,58.1520345 C59.6228717,58.0172335 59.6193881,57.7960306 59.7543779,57.6578225 L77.377952,39.5374449 C77.5103291,39.4012461 77.7271837,39.3964412 77.8656571,39.5266993 L84.0333855,45.3348475 L95.8140776,33.4944652 C95.9481965,33.3595769 96.1650511,33.3574801 96.3017827,33.4895729 L102.305781,39.286626 L107.827301,33.4996196 C107.892618,33.4317386 107.982321,33.3928621 108.075508,33.3918138 C108.166952,33.3910275 108.259268,33.4278947 108.326327,33.4944652 L120.002511,45.230973 L131.805847,21.5049544 C131.891195,21.3322379 132.101083,21.2621729 132.27265,21.3483127 C132.445089,21.4345399 132.514761,21.6443856 132.428542,21.8171021 L120.410093,45.9776638 C120.359581,46.0782185 120.264653,46.1485456 120.154048,46.1665424 C120.043444,46.1847139 119.931097,46.1481088 119.851845,46.0684338 L108.084217,34.2412433 L102.567923,40.0230953 C102.503476,40.09019 102.415515,40.1289792 102.3232,40.1308138 C102.231755,40.1331726 102.141181,40.0976159 102.074122,40.0332294 L96.0648974,34.2310219 L84.2876889,46.0684338 C84.1553117,46.2021865 83.9401989,46.205681 83.8034673,46.0763839 L77.6374808,40.2708565 L60.2525339,58.1459191 C60.1846036,58.2160715 60.0940297,58.2513661 60.0034559,58.2513661" id="Fill-102" fill="#9EC8FF"></path><path d="M61.1058656,42.6229508 L39.862069,42.6229508 L39.862069,3.70179283 C39.862069,3.22671714 40.2422981,2.84153005 40.7111326,2.84153005 L65.8750743,2.84153005 C66.3439088,2.84153005 66.7241379,3.22671714 66.7241379,3.70179283 L66.7241379,36.9293661 C66.7241379,40.073811 64.2087761,42.6229508 61.1058656,42.6229508" id="Fill-103" fill="#F1A656"></path><path d="M60.5771269,41.2021858 L39.862069,41.2021858 L39.862069,4.36135812 C39.862069,3.91431478 40.2304146,3.55191257 40.6847076,3.55191257 L65.1954798,3.55191257 C65.6488957,3.55191257 66.0172414,3.91431478 66.0172414,4.36135812 L66.0172414,35.8444025 C66.0172414,38.8033872 63.581775,41.2021858 60.5771269,41.2021858" id="Fill-104" fill="#FFFFFF"></path><path d="M54.6525227,33.6625511 L54.6525227,32.9643819 C54.6525227,32.4136258 54.2767111,31.9672131 53.814506,31.9672131 L27.9759477,31.9672131 C27.5128787,31.9672131 27.137931,32.4136258 27.137931,32.9643819 L27.137931,33.6625511 C27.137931,38.6112755 30.5098681,42.6229508 34.6688496,42.6229508 L61.0689655,42.6229508 C56.909984,42.6229508 54.595503,39.0625724 54.6525227,33.6625511" id="Fill-105" fill="#F1A656"></path><path d="M54.0809902,34.0339501 L54.0809902,33.4753737 C54.0809902,33.0347297 53.733432,32.6775956 53.3036925,32.6775956 L29.3290219,32.6775956 C28.8992824,32.6775956 28.5517241,33.0347297 28.5517241,33.4753737 L28.5517241,34.0339501 C28.5517241,37.9928085 31.6797484,41.2021858 35.5396994,41.2021858 L61.0689655,41.2021858 C57.2098705,41.2021858 54.0809902,39.286289 54.0809902,34.0339501" id="Fill-106" fill="#FFFFFF"></path><path d="M44.4523272,8.15880507 C44.060404,8.15880507 43.7418585,8.47669619 43.7418585,8.86738352 L43.7418585,18.8375345 C43.7418585,19.2282218 44.060404,19.546113 44.4523272,19.546113 L62.8416395,19.546113 C63.2326994,19.546113 63.5512449,19.2282218 63.5512449,18.8375345 L63.5512449,8.86738352 C63.5512449,8.47669619 63.2326994,8.15880507 62.8416395,8.15880507 L44.4523272,8.15880507 Z M62.8416395,19.8907104 L44.4523272,19.8907104 C43.8704853,19.8907104 43.3965517,19.4182673 43.3965517,18.8375345 L43.3965517,8.86738352 C43.3965517,8.28665071 43.8704853,7.81420765 44.4523272,7.81420765 L62.8416395,7.81420765 C63.4234814,7.81420765 63.8965517,8.28665071 63.8965517,8.86738352 L63.8965517,18.8375345 C63.8965517,19.4182673 63.4234814,19.8907104 62.8416395,19.8907104 L62.8416395,19.8907104 Z" id="Fill-107" fill="#E05B5E"></path><path d="M64.082426,24.863388 L43.917574,24.863388 C43.6307964,24.863388 43.3965517,24.5438127 43.3965517,24.1529467 C43.3965517,23.7623156 43.6307964,23.442623 43.917574,23.442623 L64.082426,23.442623 C64.3692036,23.442623 64.6034483,23.7623156 64.6034483,24.1529467 C64.6034483,24.5438127 64.3692036,24.863388 64.082426,24.863388" id="Fill-108" fill="#E05B5E"></path><path d="M64.082426,26.9945355 L43.917574,26.9945355 C43.6307964,26.9945355 43.3965517,26.6748428 43.3965517,26.2842117 C43.3965517,25.8934632 43.6307964,25.5737705 43.917574,25.5737705 L64.082426,25.5737705 C64.3692036,25.5737705 64.6034483,25.8934632 64.6034483,26.2842117 C64.6034483,26.6748428 64.3692036,26.9945355 64.082426,26.9945355" id="Fill-109" fill="#E05B5E"></path><path d="M64.082426,29.1256831 L43.917574,29.1256831 C43.6307964,29.1256831 43.3965517,28.8059904 43.3965517,28.4152418 C43.3965517,28.0246107 43.6307964,27.704918 43.917574,27.704918 L64.082426,27.704918 C64.3692036,27.704918 64.6034483,28.0246107 64.6034483,28.4152418 C64.6034483,28.8059904 64.3692036,29.1256831 64.082426,29.1256831" id="Fill-110" fill="#E05B5E"></path><path d="M57.9352793,10.6557377 L57.1336862,10.6557377 C56.9647682,10.6557377 56.8275862,10.502676 56.8275862,10.3137207 L56.8275862,9.57710396 C56.8275862,9.38814873 56.9647682,9.23497268 57.1336862,9.23497268 L57.9352793,9.23497268 C58.1041974,9.23497268 58.2413793,9.38814873 58.2413793,9.57710396 L58.2413793,10.3137207 C58.2413793,10.502676 58.1041974,10.6557377 57.9352793,10.6557377" id="Fill-111" fill="#E05B5E"></path><path d="M60.7628655,10.6557377 L59.9612724,10.6557377 C59.7923544,10.6557377 59.6551724,10.502676 59.6551724,10.3137207 L59.6551724,9.57710396 C59.6551724,9.38814873 59.7923544,9.23497268 59.9612724,9.23497268 L60.7628655,9.23497268 C60.9317836,9.23497268 61.0689655,9.38814873 61.0689655,9.57710396 L61.0689655,10.3137207 C61.0689655,10.502676 60.9317836,10.6557377 60.7628655,10.6557377" id="Fill-112" fill="#E05B5E"></path><path d="M62.1766586,10.6557377 L61.3750655,10.6557377 C61.2061475,10.6557377 61.0689655,10.502676 61.0689655,10.3137207 L61.0689655,9.57710396 C61.0689655,9.38814873 61.2061475,9.23497268 61.3750655,9.23497268 L62.1766586,9.23497268 C62.3455767,9.23497268 62.4827586,9.38814873 62.4827586,9.57710396 L62.4827586,10.3137207 C62.4827586,10.502676 62.3455767,10.6557377 62.1766586,10.6557377" id="Fill-113" fill="#E05B5E"></path><polygon id="Fill-114" fill="#E05B5E" points="45.5172414 17.7595628 48.3448276 17.7595628 48.3448276 13.4972678 45.5172414 13.4972678"></polygon><polygon id="Fill-115" fill="#E05B5E" points="53.2931034 17.7595628 56.1206897 17.7595628 56.1206897 13.4972678 53.2931034 13.4972678"></polygon><polygon id="Fill-116" fill="#E05B5E" points="57.5344828 17.7595628 60.362069 17.7595628 60.362069 11.3661202 57.5344828 11.3661202"></polygon><polygon id="Fill-117" fill="#E05B5E" points="49.0517241 17.7595628 51.8793103 17.7595628 51.8793103 14.9180328 49.0517241 14.9180328"></polygon><path d="M144.724682,95.2066556 L154.621675,95.2066556 C154.621675,100.662505 150.154625,105.152055 144.724682,105.152055 C139.295621,105.152055 134.828571,100.662505 134.828571,95.2066556 C134.828571,89.750806 139.295621,85.2613447 144.724682,85.2613447 L144.724682,95.2066556" id="Fill-118" fill="#008EFF"></path><path d="M156.035468,93.7859349 C156.035468,88.2932874 151.604768,83.8405797 146.138916,83.8405797 L146.138916,93.7859349 L156.035468,93.7859349" id="Fill-119" fill="#E05B5E"></path><path d="M91.4655172,27.704918 C91.4655172,27.3125693 91.1493675,26.9945355 90.7586207,26.9945355 C90.3685843,26.9945355 90.0517241,27.3125693 90.0517241,27.704918 C90.0517241,28.0972668 90.3685843,28.4153005 90.7586207,28.4153005 C91.1493675,28.4153005 91.4655172,28.0972668 91.4655172,27.704918" id="Fill-123" fill="#F39892"></path><path d="M78.7413793,39.7814208 C78.7413793,39.389072 78.4252296,39.0710383 78.0344828,39.0710383 C77.6444464,39.0710383 77.3275862,39.389072 77.3275862,39.7814208 C77.3275862,40.1737695 77.6444464,40.4918033 78.0344828,40.4918033 C78.4252296,40.4918033 78.7413793,40.1737695 78.7413793,39.7814208" id="Fill-124" fill="#9EC8FF"></path><path d="M97.1206897,34.098325 C97.1206897,33.7059959 96.8038295,33.3879781 96.4137931,33.3879781 C96.0230463,33.3879781 95.7068966,33.7059959 95.7068966,34.098325 C95.7068966,34.490654 96.0230463,34.8087432 96.4137931,34.8087432 C96.8038295,34.8087432 97.1206897,34.490654 97.1206897,34.098325" id="Fill-125" fill="#9EC8FF"></path><path d="M109.137931,34.098325 C109.137931,33.7059959 108.82123,33.3879781 108.430679,33.3879781 C108.040839,33.3879781 107.724138,33.7059959 107.724138,34.098325 C107.724138,34.490654 108.040839,34.8087432 108.430679,34.8087432 C108.82123,34.8087432 109.137931,34.490654 109.137931,34.098325" id="Fill-126" fill="#9EC8FF"></path><path d="M121.155172,34.098325 C121.155172,33.7059959 120.839023,33.3879781 120.448276,33.3879781 C120.057529,33.3879781 119.741379,33.7059959 119.741379,34.098325 C119.741379,34.490654 120.057529,34.8087432 120.448276,34.8087432 C120.839023,34.8087432 121.155172,34.490654 121.155172,34.098325" id="Fill-127" fill="#F39892"></path><path d="M37.7413793,42.2677596 C37.7413793,44.8179444 35.6844025,46.8852459 33.1465517,46.8852459 C30.608701,46.8852459 28.5517241,44.8179444 28.5517241,42.2677596 C28.5517241,39.7175747 30.608701,37.6502732 33.1465517,37.6502732 C35.6844025,37.6502732 37.7413793,39.7175747 37.7413793,42.2677596" id="Fill-128" fill="#8DD889"></path><path d="M32.8207572,43.3333333 L32.8117404,43.3331776 C32.7437046,43.3307643 32.680587,43.3021934 32.6363227,43.2540044 L31.4403675,41.9636445 C31.3510192,41.8667994 31.3608557,41.7191963 31.4624996,41.6340286 C31.5641435,41.5487831 31.7198882,41.5582029 31.8092365,41.6550481 L32.8338726,42.7605926 L35.2028312,40.5584562 C35.3003766,40.4682284 35.4561213,40.4697854 35.5503878,40.5620373 C35.645474,40.6542115 35.6438346,40.8020482 35.547109,40.8923539 L32.9928961,43.2666939 C32.9469924,43.3094335 32.8846945,43.3333333 32.8207572,43.3333333" id="Fill-129" fill="#FFFFFF"></path></g><g id="Group-100" transform="translate(74.000000, 13.000000)"><path d="M53.1558868,23.6287574 C54.3790188,25.9710031 55.4309734,28.2852724 56.4209586,30.6964229 C57.3860545,33.1091277 58.2785142,35.5596524 58.975415,38.1490229 C59.1537038,38.7919618 59.3076112,39.4540698 59.4554232,40.1198043 C59.5138369,40.3456878 59.6575854,41.066857 59.6565695,41.5248409 C59.679935,42.0335968 59.6413312,42.4920987 59.5793619,42.9303955 C59.3040556,44.653016 58.7128073,45.9730872 58.0687328,47.2206271 C56.7526468,49.6903208 55.1663339,51.7367421 53.320461,53.6691854 C52.7668007,54.2489184 51.8570709,54.2613524 51.2886802,53.6966437 C50.8244183,53.2355514 50.7314643,52.5330331 51.0143898,51.9745414 L51.0499459,51.9046004 C52.1389805,49.7597437 53.2173481,47.4978006 53.9462495,45.3508715 C54.2967317,44.2867325 54.5745777,43.1982436 54.5730539,42.3967718 C54.5669586,42.2055998 54.5608632,42.0294521 54.5329262,41.907703 C54.5212435,41.843979 54.5095607,41.786472 54.4897509,41.754869 L54.395781,41.4497191 C54.2261273,40.8917455 54.052918,40.3337719 53.8497399,39.7711356 C53.0802029,37.5216264 52.1288216,35.2627918 51.1413761,33.02209 C50.1574862,30.7876052 49.0984204,28.5163367 48.0510374,26.3569737 L48.0297037,26.3134548 C47.3246758,24.8581644 47.9093207,23.0956517 49.3356309,22.3760367 C50.734512,21.670928 52.4254616,22.2351186 53.1558868,23.6287574" id="Fill-66" fill="#FFC28A"></path><path d="M51.4583827,51.3210013 L49.1346154,52.1051909 L51.8698629,55.5362161 C51.8698629,55.5362161 52.9255895,54.5412397 53.3059043,53.1001674 C53.4344614,52.6138968 53.2464954,52.0937125 52.8642327,51.7973587 L52.4766135,51.4973527 C52.1824904,51.2698699 51.8046104,51.2041294 51.4583827,51.3210013" id="Fill-67" fill="#FFC28A"></path><polyline id="Fill-68" fill="#FFC28A" points="45.625 54.2644485 48.7437562 56.9602217 51.9423077 55.6879703 49.0318486 51.9762023 45.625 54.2644485"></polyline><path d="M44.9230769,19.943111 C44.9230769,19.943111 44.130463,22.7840887 38.7431242,22.7840887 C32.819434,22.7840887 35.8935264,20.290944 35.8935264,20.290944 C38.3555535,19.5523103 38.4828942,16.4560404 37.91954,14.2805492 L43.805899,11.3920443 C43.2377797,14.193635 42.8946843,18.0740198 44.9230769,19.943111 Z" id="Fill-72" fill="#FFC28A"></path><path d="M35.0961538,20.1070423 C35.0961538,20.1070423 35.9244326,18.1690328 36.7709934,17.834582 C37.6170464,17.5006326 43.0056827,16.6256452 44.2473391,17.397339 C45.4884876,18.1690328 46.3269231,20.6480803 46.3269231,20.6480803 L35.0961538,20.1070423" id="Fill-73" fill="#3769A4"></path><path d="M51.749749,20.0429196 C55.249081,20.8961036 57.5576923,30.9349348 57.5576923,30.9349348 L51.7153293,35.6001385 C51.7153293,35.6001385 48.5277696,33.5008499 47.3799488,28.7502747 C46.1767572,23.77381 48.1716009,19.1711766 51.749749,20.0429196" id="Fill-78" fill="#0E6DD4"></path><path d="M51.5134327,35.3057254 C51.5134327,35.3057254 51.5127308,35.3057254 51.5113269,35.3043014 L51.6713654,35.1825489 L51.5134327,35.3057254" id="Fill-79" fill="#A4A6A3"></path><polyline id="Fill-82" fill="#FFFFFE" points="56.1538462 64.0802494 56.1538462 64.0802494 73 56.9602217 56.1538462 64.0802494"></polyline><polyline id="Fill-83" fill="#F7F6F3" points="54.0480769 64.7922521 54.0480769 64.7922521 56.1538462 64.0802494 54.0480769 64.7922521"></polyline><polyline id="Fill-84" fill="#FFFEFD" points="52.6442308 64.7014718 52.6442308 64.7014718 54.0480769 64.1710297 52.6442308 64.7014718"></polyline><path d="M52.7935065,65.5042549 C51.2005574,59.1865716 50.0336235,54.592648 50.0336235,54.592648 L46.3269231,54.592648 L50.0336235,54.592648 C49.9920225,54.2712603 49.9377832,53.7993032 49.8772248,53.1939104 L52.6444802,52.1030613 L51.8540615,50.1524091 L49.6865975,51.0059817 C49.6523689,50.5594656 49.6186668,50.0797204 49.5865445,49.5719382 L51.3390518,48.8813959 L50.5481065,46.9307436 L49.4670075,47.3570107 C49.4454171,46.8897265 49.4264597,46.4058276 49.4096087,45.9063527 L50.0330969,45.6602496 L49.358529,43.9961984 C49.3427312,43.1691053 49.3343057,42.3093022 49.3348322,41.4209429 L64.1063414,35.6001385 L73,57.5422502 L52.7935065,65.5042549 M55.7708732,59.8163669 L52.9793945,60.9160426 L53.7703398,62.867214 L56.5618185,61.7670192 L55.7708732,59.8163669 M60.3806836,58.0001888 L57.5886783,59.0998644 L58.3796236,61.0510358 L61.1711023,59.950841 L60.3806836,58.0001888 M54.4654448,56.5947015 L51.6739661,57.6948964 L52.4643848,59.6455486 L55.2563901,58.5458729 L54.4654448,56.5947015 M64.9899674,56.1834914 L62.197962,57.2836862 L62.9889073,59.2348576 L65.7803861,58.1346628 L64.9899674,56.1834914 M59.0747286,54.7785233 L56.2832499,55.8787182 L57.0736686,57.8293704 L59.8656739,56.7296947 L59.0747286,54.7785233 M69.5992511,54.3673132 L66.8077724,55.467508 L67.5981911,57.4186794 L70.3896699,56.3184846 L69.5992511,54.3673132 M53.1594899,53.3735553 L50.3680111,54.4732309 L51.1589564,56.4244024 L53.9504352,55.3247267 L53.1594899,53.3735553 M63.6840124,52.9623451 L60.8925337,54.0620208 L61.683479,56.0131922 L64.4749577,54.9135166 L63.6840124,52.9623451 M57.7687737,51.5573771 L54.9772949,52.6570527 L55.7682402,54.6082242 L58.559719,53.5085485 L57.7687737,51.5573771 M68.2932962,51.1461669 L65.5018175,52.2458426 L66.2927628,54.197014 L69.0837149,53.0973384 L68.2932962,51.1461669 M62.378584,49.7411989 L59.5865787,50.8408746 L60.377524,52.792046 L63.1690027,51.6918511 L62.378584,49.7411989 M56.4633453,48.3357117 L53.6718666,49.4359065 L54.4622853,51.3870779 L57.2542906,50.2868831 L56.4633453,48.3357117 M66.9878678,47.9250207 L64.1958625,49.0246964 L64.9868078,50.9758678 L67.7782865,49.8756729 L66.9878678,47.9250207 M61.0726291,46.5195335 L58.2811503,47.6197283 L59.071569,49.5703805 L61.8635744,48.4707049 L61.0726291,46.5195335 M55.1573903,45.1145654 L52.3659116,46.2142411 L53.1568569,48.1654125 L55.9483356,47.0652177 L55.1573903,45.1145654 M65.6819129,44.7033553 L62.8904341,45.8035501 L63.6813794,47.7542024 L66.4723316,46.6540075 L65.6819129,44.7033553 M59.7666741,43.2983873 L56.9751954,44.3980629 L57.7661407,46.3492343 L60.5576194,45.2490395 L59.7666741,43.2983873 M53.851962,41.8929 L51.0599566,42.9930949 L51.8509019,44.9437471 L54.6423807,43.8435522 L53.851962,41.8929 M64.3759579,41.4822091 L61.5844792,42.5818847 L62.3754245,44.5330561 L65.1669032,43.4328613 L64.3759579,41.4822091 M58.4612457,40.0767218 L55.669767,41.1769167 L56.4601857,43.1275689 L59.2516644,42.027374 L58.4612457,40.0767218 M63.0705295,38.2605436 L60.2790508,39.3607385 L61.0694695,41.3113907 L63.8609482,40.2111959 L63.0705295,38.2605436" id="Fill-85" fill="#86ABCF"></path><path d="M49.8896895,45.5681773 C49.8677716,44.8813337 49.8496892,44.1683632 49.8365385,43.432169 L50.5384615,45.2929754 L49.8896895,45.5681773" id="Fill-86" fill="#5D88B9"></path><polyline id="Fill-87" fill="#5D88B9" points="51.8509019 44.9437471 51.0599566 42.9930949 53.851962 41.8929 54.6423807 43.8435522"></polyline><polyline id="Fill-87-Copy" fill="#5D88B9" points="53.1568569 48.1654125 52.3659116 46.2142411 55.1573903 45.1145654 55.9483356 47.0652177"></polyline><polyline id="Fill-87-Copy-2" fill="#5D88B9" points="54.4628119 51.3870779 53.6718666 49.4359065 56.4633453 48.3362309 57.2542906 50.2868831"></polyline><polyline id="Fill-88" fill="#5D88B9" points="55.669767 41.1769167 58.4612457 40.0767218 59.2516644 42.027374 56.4601857 43.1275689"></polyline><polyline id="Fill-89" fill="#5D88B9" points="61.0694695 41.3113907 60.2790508 39.3607385 63.0705295 38.2605436 63.8609482 40.2111959"></polyline><path d="M49.3223872,47.3097431 L50.5384615,46.8500975 L51.4281564,48.9534939 L49.4568484,49.6981085 C49.4082765,48.9574129 49.362074,48.1596115 49.3223872,47.3097431 Z" id="Fill-90" fill="#5D88B9"></path><polyline id="Fill-92" fill="#5D88B9" points="57.7661407 46.3492343 56.9751954 44.3980629 59.7666741 43.2983873 60.5576194 45.2490395"></polyline><polyline id="Fill-93" fill="#5D88B9" points="62.544101 44.1441718 61.7692308 41.8673624 64.5039759 40.5841579 65.2788462 42.8603615 62.544101 44.1441718"></polyline><path d="M49.8365385,50.9081981 L51.8540615,50.1524091 L52.6442308,52.1030613 L50.008257,53.243254 C49.9512734,52.537693 49.8980208,51.9036407 49.8365385,50.9081981 Z" id="Fill-94" fill="#5D88B9"></path><polyline id="Fill-96" fill="#5D88B9" points="59.096226 49.6511309 58.2811503 47.6197283 61.0673077 46.5195335 61.8635744 48.4707049 59.096226 49.6511309 61.8635744 47.9250207"></polyline><polyline id="Fill-97" fill="#5D88B9" points="63.9480611 46.9921829 63.1730769 44.7159793 65.9082241 43.432169 66.6826923 45.7083726 63.9480611 46.9921829"></polyline><polygon id="Fill-98" fill="#5D88B9" points="50.3680111 54.468212 53.1594899 53.3735553 53.9504352 55.3247267 51.21569 56.6079312"></polygon><polygon id="Fill-99" fill="#5D88B9" points="54.9772949 52.6570527 57.7687737 51.5573771 58.7044428 53.5248456 55.7682402 54.6082242"></polygon><polyline id="Fill-100" fill="#5D88B9" points="60.4383318 52.688205 59.6634615 50.4113956 62.3987226 49.1281912 63.1730769 51.4043947 60.4383318 52.688205"></polyline><polyline id="Fill-101" fill="#5D88B9" points="65.3517933 50.5521967 64.5769231 48.2753873 67.3121841 46.9921829 68.0865385 49.2683864 65.3517933 50.5521967"></polyline><polygon id="Fill-102" fill="#5D88B9" points="51.6739661 57.6948964 54.4654448 56.5947015 55.2563901 58.5458729 52.4643848 59.6455486"></polygon><polyline id="Fill-103" fill="#5D88B9" points="57.6301236 57.6722244 56.8557692 55.3960209 59.5905144 54.1122106 60.3653846 56.38902 57.6301236 57.6722244"></polyline><polyline id="Fill-104" fill="#5D88B9" points="61.8421779 55.5362161 61.0673077 53.2594067 63.8020528 51.9762023 64.5769231 54.2530117 61.8421779 55.5362161"></polyline><polyline id="Fill-105" fill="#5D88B9" points="66.0538303 54.1122106 65.2788462 51.8354012 68.0139933 50.5521967 68.7884615 52.8290061 66.0538303 54.1122106"></polyline><polygon id="Fill-106" fill="#5D88B9" points="52.9793945 60.9160426 55.7708732 59.8163669 56.5618185 61.7670192 53.7703398 62.867214"></polygon><polyline id="Fill-107" fill="#5D88B9" points="58.3325626 60.5202355 57.5576923 58.2434261 60.2929533 56.9602217 61.0673077 59.2364252 58.3325626 60.5202355"></polyline><polyline id="Fill-108" fill="#5D88B9" points="63.2460241 59.09623 62.4711538 56.819808 65.2064149 55.5362161 65.9807692 57.8126381 63.2460241 59.09623"></polyline><polyline id="Fill-109" fill="#5D88B9" points="68.1590836 57.6722244 67.3846154 55.3958024 70.1197626 54.1122106 70.8942308 56.3886326 68.1590836 57.6722244"></polyline><path d="M61.836348,41.4034871 C61.6445969,40.9193417 61.8776483,40.3703659 62.3579111,40.1770646 C62.837584,39.9837633 63.3821573,40.2192935 63.5739084,40.703439 C63.7656596,41.1869897 63.5326082,41.7359654 63.0523453,41.928672 C62.5726724,42.1225681 62.0280992,41.8870378 61.836348,41.4034871" id="Fill-110" fill="#FFFFFE"></path><path d="M61.8197532,53.6643661 C61.6755109,53.2991167 61.8507255,52.8854067 62.2104462,52.7391274 C62.5706095,52.5932969 62.979001,52.7714345 63.1228008,53.1362352 C63.2666006,53.5014846 63.091386,53.9151946 62.7316653,54.0614738 C62.371502,54.2068557 61.9631106,54.0291668 61.8197532,53.6643661" id="Fill-111" fill="#FFFFFE"></path><path d="M51.2906696,53.6645046 C51.1468445,53.2992056 51.3220898,52.8854394 51.6818737,52.7391403 C52.0421001,52.59329 52.4501207,52.7714518 52.5939458,53.1358532 C52.7377708,53.5011522 52.5625256,53.9149184 52.2027417,54.0612175 C51.8429578,54.2070678 51.4344946,54.0293548 51.2906696,53.6645046" id="Fill-112" fill="#FFFFFE"></path><path d="M44.9733619,63.6324593 C44.8295368,63.2675877 45.0047821,62.8533485 45.364566,62.7074897 C45.7243499,62.561182 46.1328131,62.7389054 46.2766381,63.103777 C46.4204632,63.4690974 46.2452179,63.8833366 45.885434,64.0291955 C45.5256501,64.1750543 45.1171869,63.9977797 44.9733619,63.6324593" id="Fill-113" fill="#FFFFFE"></path><path d="M45.0627974,64.0304722 C44.9210586,63.9387775 44.8804129,63.7475284 44.9721263,63.6050086 L51.73088,53.2185089 C51.7850743,53.1346737 51.8762665,53.0817527 51.9757964,53.0780849 L62.197962,53.0828006 L62.3810048,41.3422692 C62.3914268,41.172503 62.540461,41.0457022 62.7051282,41.0530378 C62.8739642,41.0629932 63.0026756,41.2091808 62.9927747,41.3789471 L62.7930568,53.3977066 C62.783677,53.5559455 62.6565289,53.6806504 62.4996782,53.686938 L52.1592232,53.686938 L45.4864507,63.9398254 C45.4280877,64.0304722 45.3296,64.0802494 45.2290279,64.0802494 C45.1722282,64.0802494 45.1143862,64.0645303 45.0627974,64.0304722 Z" id="Fill-114" fill="#FFFFFE"></path><g id="Group-60" transform="translate(38.605769, 86.201539) scale(-1, 1) translate(-38.605769, -86.201539) translate(25.971154, 55.536216)"><path d="M25.2625777,59.1119082 C25.2912308,59.2865458 25.2462521,59.5628474 24.7438235,59.7069234 C24.7438235,59.7069234 23.6003655,60.2551606 20.9586176,60.1326025 C20.7453853,60.1232469 20.5344853,60.1538085 20.3335805,60.2189857 C19.9647553,60.3399846 19.3027358,60.5202355 18.6550428,60.5202355 L16.8822164,60.5202355 C16.8822164,60.5202355 16.7572756,59.5322858 16.9725069,58.5193879 C17.0441396,58.1835224 17.0707936,57.8420436 17.0707936,57.4990055 L17.0707936,57.3106464 C17.0707936,57.0767568 17.2716984,56.8890214 17.5195809,56.8890214 L18.35152,56.8890214 C18.5380982,56.8890214 18.7166802,56.957629 18.8539485,57.0808109 C19.0811741,57.283827 19.5569486,57.5373634 20.3602346,57.201186 C20.3602346,57.201186 20.5897924,57.0383989 20.9382939,56.9710387 C21.2128305,56.9192711 21.563331,56.9273793 21.9321562,57.1266532 L22.6268269,57.7846626 C22.7867511,57.9380942 22.9773275,58.0587813 23.1882275,58.1432934 L25.092325,58.9067091 C25.1826156,58.9431958 25.2482511,59.0202235 25.2625777,59.1119082" id="Fill-85-Copy-2" fill="#121836"></path><path d="M17.1395486,57.5664267 C16.5851445,46.8690178 12.5172528,24.6095058 9.14665821,2.16787891 C9.14665821,-1.65982439 21.8598901,1.11480541 21.8598901,3.48406683 C22.4615385,5.99463572 23.1764169,27.3266063 21.8598901,57.2356884 C20.9748915,57.5557937 17.6310519,57.9762686 17.1395486,57.5664267 Z" id="Fill-606" fill="#153270"></path><path d="M8.41642382,59.1119082 C8.44507691,59.2865458 8.40009823,59.5628474 7.8976697,59.7069234 C7.8976697,59.7069234 6.75421166,60.2551606 4.11246376,60.1326025 C3.89923149,60.1232469 3.68833145,60.1538085 3.48742667,60.2189857 C3.11860148,60.3399846 2.45658193,60.5202355 1.80888891,60.5202355 L0.0360625067,60.5202355 C0.0360625067,60.5202355 -0.0888782755,59.5322858 0.126353045,58.5193879 C0.19798576,58.1835224 0.224639794,57.8420436 0.224639794,57.4990055 L0.224639794,57.3106464 C0.224639794,57.0767568 0.425544572,56.8890214 0.673427083,56.8890214 L1.5053661,56.8890214 C1.69194434,56.8890214 1.87052636,56.957629 2.00779464,57.0808109 C2.23502027,57.283827 2.71079477,57.5373634 3.51408071,57.201186 C3.51408071,57.201186 3.74363857,57.0383989 4.09214006,56.9710387 C4.3666766,56.9192711 4.71717714,56.9273793 5.08600233,57.1266532 L5.78067308,57.7846626 C5.94059728,57.9380942 6.13117362,58.0587813 6.34207366,58.1432934 L8.24617118,58.9067091 C8.33646172,58.9431958 8.40209728,59.0202235 8.41642382,59.1119082" id="Fill-85" fill="#121836"></path><path d="M0.235137826,57.3075935 C0.257257371,57.0024525 1.2032967,7.96107725 1.2032967,3.50168299 L14.7192769,3.98718907 C14.2939025,8.64035794 10.4926526,30.1384791 5.08600233,57.1266532 C4.13486192,57.3006371 0.609695448,57.7907334 0.235137826,57.3075935 Z" id="Fill-611" fill="#153270"></path></g><path d="M29.0428437,63.2006001 C32.7478475,63.5581418 39.7431231,63.3437834 50.0286705,62.557525 C49.6546016,59.330282 51.2403846,36.8614793 51.2403846,20.32258 C51.2403846,20.32258 47.6895759,19.5440585 44.3063997,19.3652702 C41.6594614,19.2260868 37.8282303,19.1332979 35.5015529,19.3658359 C34.5304225,19.4625853 33.5768832,19.6164791 32.7273381,19.7799912 C30.4880987,20.2133833 28.7269224,22.125174 28.3042193,24.5688034 C27.5126213,29.1437485 29.0428437,53.8208455 29.0428437,63.2006001 Z" id="Fill-115" fill="#0E6DD4"></path><path d="M28.5685304,39.8721552 C28.2954823,36.4725523 28.2393285,33.6569878 28.3228573,31.3281219 C28.2400304,33.6564673 28.2954823,36.4725523 28.5685304,39.8721552" id="Fill-116" fill="#B1B3AF"></path><path d="M41.8537742,14.5219765 C40.3404789,15.5420142 39.1762531,14.5053521 37.7656284,13.9044092 C36.931748,13.5491663 35.9304315,14.3933472 35.2518174,13.9044092 C34.4877445,13.3538986 34.1250408,11.2206069 33.8981766,10.1047066 C33.6315387,8.7931672 33.2915858,4.27845097 35.2518174,1.9620465 C36.2123727,0.826958917 36.0794572,0.364957355 37.5648661,0.0858318686 C41.4542108,-0.644717383 46.485509,3.42470766 45.4995863,7.10567036 C44.5136635,10.78612 44.1234986,12.9911065 41.8537742,14.5219765 Z" id="Fill-120" fill="#FFC28A"></path><path d="M36.7542637,5.29243349 C36.6436394,4.52430171 37.4388606,4.05153642 37.2353947,3.69035803 C37.0319289,3.32917964 35.5701901,3.34409376 35.8285948,1.58948298 C35.88827,0.695112662 39.269493,-1.35257173 43.2096674,1.34190158 C44.9733924,2.54801818 45.2109186,3.69703218 45.5621295,5.29243349 C45.9133403,6.8878348 44.7311177,12.0102301 43.5564688,12.8160499 C42.0441049,12.4828956 40.1412,11.9022897 39.5454382,11.8214565 C39.25275,11.7817445 39.6631935,10.9227109 39.2926153,8.92297365 C39.170042,7.93219473 38.8101622,7.72520377 38.0832959,6.84280862 C37.93275,6.66005009 37.2736994,6.84512762 37.0123869,6.92756847 L36.4160574,6.70078 C36.7152778,6.27397018 36.8280132,5.80452135 36.7542637,5.29243349 Z" id="Fill-121" fill="#132529"></path><path d="M39.3978153,7.93531433 C39.1765676,8.7297741 38.5741146,9.42284628 37.934121,9.84158188 C36.9716065,10.4717824 36.2186705,9.89199153 36.2594871,8.96702765 C36.2956666,8.13506343 36.8407851,6.80407461 37.9164091,6.5323285 C38.9758886,6.26478845 39.6509586,7.02688127 39.3978153,7.93531433" id="Fill-122" fill="#E9AC75" transform="translate(37.854483, 8.291870) rotate(-6.000000) translate(-37.854483, -8.291870) "></path><path d="M19.8277147,69.8435142 C22.6987753,74.4623954 21.3342087,80.5685532 16.7806642,83.4802859 C12.2260874,86.392542 6.20630468,85.0089193 3.33576013,80.3905617 C0.464183373,75.7695865 1.82875004,69.6639522 6.38332676,66.751696 C10.9368713,63.8394399 16.9561379,65.2235861 19.8277147,69.8435142 M1.7853977,81.3815559 C5.19578217,86.8694547 12.3478869,88.5122122 17.7576402,85.0528937 C23.1679097,81.5930518 24.7884616,74.3398954 21.377561,68.85252 C17.9671766,63.3646212 10.816104,61.7197697 5.4058346,65.1790882 C-0.00391873227,68.6384066 -1.62498677,75.8941806 1.7853977,81.3815559" id="Fill-135" fill="#132529"></path><path d="M20.1981564,77.608302 C18.4138679,73.9661954 16.0620538,70.5547469 13.2239308,67.5410924 C13.0293081,67.3343853 12.8331998,67.1302815 12.6346154,66.9282604 C12.9812715,66.9652282 13.3294133,67.0245849 13.677555,67.1073719 C18.2048838,68.1867267 21.0756916,72.8498728 20.1981564,77.608302" id="Fill-136" fill="#C3D6E5"></path><path d="M12.0254925,84.0163269 C11.3514953,84.0163269 10.6673909,83.9443576 9.98275453,83.7942502 C5.02273149,82.7080275 1.91340773,77.9416022 3.03744556,73.1499876 C4.00615019,69.0189486 7.80383407,66.2162577 12.0095336,66.2162577 C12.3154123,66.2162577 12.6234189,66.2311656 12.9330214,66.2614955 C13.1463385,66.4609534 13.3569959,66.6624675 13.5660573,66.8665519 C16.6147373,69.8419692 19.1410296,73.2101334 21.0576923,76.8060291 C21.0390736,76.8985611 21.018859,76.9910931 20.9970485,77.0841392 C20.0283439,81.213636 16.23066,84.0163269 12.0254925,84.0163269" id="Fill-137" fill="#ABBED4"></path><path d="M22.0446137,67.9020539 L23.0808835,69.628049 C23.2385661,69.8902844 23.1636669,70.2368282 22.9138386,70.4018244 C22.6640104,70.5668207 22.3338626,70.488719 22.1766728,70.2264836 L21.1399102,68.5004885 C20.9827204,68.2382531 21.0576196,67.8917093 21.3074479,67.7267131 C21.5567834,67.5617168 21.8869312,67.6398185 22.0446137,67.9020539" id="Fill-138" fill="#132529"></path><path d="M28.6015583,62.8326632 C27.3631562,63.7114716 26.1339237,64.6056235 24.9199738,65.5241132 C23.7065333,66.4447193 22.5032812,67.381727 21.3351792,68.377463 C21.0733369,68.6007364 20.979094,68.9880258 21.1293732,69.3213487 C21.307161,69.7160453 21.7595268,69.8864104 22.1395547,69.7017601 C23.5078591,69.0361725 24.8405041,68.3134438 26.1629607,67.5727263 C27.4849078,66.8309506 28.7920817,66.064837 30.0890672,65.282851 C31.1929822,64.6162052 32.2877276,63.9352742 33.3773789,63.2442905 C33.6906727,63.045355 33.7864438,62.616797 33.5908262,62.2940558 L32.7079998,60.8401331 C32.5118728,60.5173919 32.0987325,60.4226858 31.7905329,60.6306158 C30.7212585,61.3538736 29.6565689,62.0855967 28.6015583,62.8326632" id="Fill-139" fill="#132529"></path><path d="M34.3360462,25.6164154 C33.709731,28.7408224 33.0373632,31.8542993 32.3399224,34.9604897 L30.2179215,44.2540779 C29.5312262,47.2832381 28.9427765,50.3555976 28.4044729,53.4716769 L26.7941674,62.8422953 L26.7905855,62.8636348 C26.6529394,63.6630832 25.9048407,64.1976103 25.1188766,64.0581232 C24.4337164,63.9358118 23.9465823,63.3414302 23.9240677,62.6611703 C23.8135415,59.4082062 23.8626643,56.1911549 24.0417577,52.953805 C24.2321084,49.7253033 24.5258216,46.4692163 25.0482626,43.2297846 C25.5466539,40.0450026 26.1074721,36.8971744 26.7071792,33.7519485 C27.3048394,30.608284 27.9552043,27.4771109 28.6633908,24.3605111 C29.024136,22.7715032 30.583272,21.7815611 32.1449664,22.1484955 C33.6810761,22.5091842 34.647157,24.0544722 34.3360462,25.6164154" id="Fill-140" fill="#FFC28A"></path><path d="M26.7335938,61.5726427 C26.4784077,61.2891684 26.0946199,61.1717593 25.7330222,61.262196 L24.9129973,61.4668687 C24.4928984,61.5721138 24.1782025,61.9380919 24.1227272,62.3876314 L23.884688,64.296852 C23.8171091,64.8437036 23.9280596,65.3990171 24.2003926,65.8707691 L25.3260356,67.8249437 C25.622576,68.2358757 26.1193316,68.4304998 26.6004532,68.3231392 L27.7740067,68.0624063 C28.5098101,67.8984566 28.9485689,67.1030362 28.7165815,66.3525696 L28.4094504,65.3572363 C28.4094504,65.3572363 28.3907905,63.409937 26.7335938,61.5726427" id="Fill-141" fill="#FFC28A"></path><path d="M38.2608595,23.9735128 C40.1615002,29.0599505 33.5873412,36.3121413 33.5873412,36.3121413 L25.2692308,33.5373855 C25.2692308,33.5373855 25.9053892,26.5981252 28.7926499,22.6854402 C32.3594197,17.8529293 36.8140953,20.1024465 38.2608595,23.9735128" id="Fill-142" fill="#0E6DD4"></path><path d="M36.1370258,14.1695548 C36.4598605,13.6847596 36.4999578,13.1594036 36.4999578,13.0087438 C36.5037451,12.8350117 36.2514902,12.7474696 36.1370258,12.8806257 C36.0225614,13.0137818 36.0465918,13.5378644 35.5267015,13.5378644 C35.0068112,13.5378644 34.6570388,13.0166515 34.5617623,12.9345131 C34.4982446,12.8797541 34.4424008,12.8797541 34.3942308,12.9345131 C34.6119638,13.5927923 34.8561328,13.9890058 35.1267378,14.1231538 C35.5326453,14.3243758 35.9305102,14.2143228 36.1370258,14.1695548 Z" id="Path-14" fill="#132529"></path></g></g></g></g></g></svg>