<svg xmlns="http://www.w3.org/2000/svg" xmlns:xlink="http://www.w3.org/1999/xlink" width="98px" height="79px" viewBox="0 0 98 79"><title>Hiring-marketing-team</title><desc>Created with Sketch.</desc><g id="Welcome" stroke="none" stroke-width="1" fill="none" fill-rule="evenodd"><g id="Service-page" transform="translate(-814.000000, -1847.000000)" fill-rule="nonzero"><g id="Hiring-marketing-team" transform="translate(814.000000, 1847.000000)"><path d="M97.745918,78.3751493 L65.8861012,78.3751493 L65.8861012,75.8504332 C65.8861012,67.40476 73.0322581,60.5336519 81.8160096,60.5336519 C90.5997611,60.5336519 97.745918,67.40476 97.745918,75.8504332 L97.745918,78.3751493 Z" id="XMLID_885_" fill="#84D9F3"></path><circle id="XMLID_882_" fill="#EBCEA5" cx="82.1346077" cy="55.1174831" r="10.5137395"></circle><polygon id="XMLID_878_" fill="#E4F3FF" points="27.7407976 39.5061728 22.4611708 39.5061728 22.4611708 13.3811231 40.9398646 13.3811231 40.9398646 18.606133 27.7407976 18.606133"></polygon><g id="XMLID_174_" transform="translate(7.901235, 44.603744)"><path d="M15.9299084,34.3807224 L0,34.3807224 L0,31.7630218 C0,23.0062972 7.14615691,15.8821285 15.9299084,15.8821285 L15.9299084,34.3807224 Z" id="XMLID_25_" fill="#72C976"></path><path d="M15.9299084,15.8821285 L15.9299084,34.3807224 L31.8598168,34.3807224 L31.8598168,31.7630218 C31.8598168,23.0062972 24.7136599,15.8821285 15.9299084,15.8821285 Z" id="XMLID_76_" fill="#72C976"></path><ellipse id="XMLID_921_" fill="#EBCEA5" cx="15.9299084" cy="10.5884974" rx="10.6199389" ry="10.5872622"></ellipse></g><path d="M69.0720828,78.3751493 L37.212266,78.3751493 L37.212266,75.826364 C37.212266,67.3939626 44.3584229,60.5336519 53.1421744,60.5336519 C61.9259259,60.5336519 69.0720828,67.3939626 69.0720828,75.826364 L69.0720828,78.3751493 Z" id="XMLID_70_" fill="#FF6B81"></path><circle id="XMLID_68_" fill="#EBCEA5" cx="52.8235763" cy="55.1174831" r="10.5137395"></circle><path d="M69.0720828,33.7714058 L37.212266,33.7714058 L37.212266,31.2226205 C37.212266,22.790219 44.3584229,15.9299084 53.1421744,15.9299084 C61.9259259,15.9299084 69.0720828,22.790219 69.0720828,31.2226205 L69.0720828,33.7714058 Z" id="XMLID_905_" fill="#4C73DC"></path><circle id="XMLID_870_" fill="#EBCEA5" cx="52.8235763" cy="10.5137395" r="10.5137395"></circle><g id="Group-49" transform="translate(0.000000, 15.802469)"><g id="Group" transform="translate(73.086420, 0.000000)"><path d="M11.4533683,7.26978891 C13.5901899,7.26978891 15.3226752,8.9731379 15.3226752,11.0744178 C15.3226752,11.6512674 15.1883155,12.1959717 14.9546231,12.6857463 L20.4166669,17.7777778 C21.8585186,15.9167048 22.7160494,13.5944699 22.7160494,11.0744178 C22.7160494,4.95815147 17.6736101,0 11.4533683,0 C11.2557805,0 11.0592705,0.00529867997 10.8641975,0.0151895492 L11.4533683,7.26978891 Z" id="Path" fill="#69D8AA"></path><path d="M7.13179009,10.9590408 C7.13179009,8.87700504 8.80280524,7.18893892 10.8641975,7.18893892 L10.2958722,0 C4.5599446,0.298583805 0,5.09080137 0,10.9588657 C0,14.5576232 1.71502571,17.7517348 4.36449613,19.7530864 L8.3075998,13.7003761 C7.58506421,13.0130733 7.13179009,12.0406632 7.13179009,10.9590408 L7.13179009,10.9590408 Z" id="Path" fill="#FF6B81"></path><path d="M15.2437188,12.8395062 C14.6223729,14.1905558 13.2802514,15.1284928 11.7199266,15.1284928 C10.686399,15.1284928 9.74958943,14.7150115 9.05231533,14.0451092 L4.9382716,20.4202421 C6.82942648,21.8621728 9.17687376,22.7160494 11.7197458,22.7160494 C15.4006371,22.7160494 18.6700699,20.9257105 20.7407407,18.1539296 L15.2437188,12.8395062 Z" id="Path" fill="#FFE07D"></path></g><g id="Group-52" transform="translate(0.000000, 7.901235)"><path d="M14.6211477,3.95061728 L2.16897574,3.95061728 C0.970944362,3.95061728 0,3.06636821 0,1.97530864 C0,0.884249074 0.970944362,0 2.16897574,0 L14.6211477,0 C15.8191791,0 16.7901235,0.884249074 16.7901235,1.97530864 C16.7901235,3.06636821 15.8191791,3.95061728 14.6211477,3.95061728 Z" id="Path" fill="#FF6B81"></path><path d="M14.6211477,11.8518519 L2.16897574,11.8518519 C0.970944362,11.8518519 0,10.9676028 0,9.87654321 C0,8.78548364 0.970944362,7.90123457 2.16897574,7.90123457 L14.6211477,7.90123457 C15.8191791,7.90123457 16.7901235,8.78548364 16.7901235,9.87654321 C16.7901235,10.9676028 15.8191791,11.8518519 14.6211477,11.8518519 Z" id="Path" fill="#B3E59F"></path><path d="M14.6211477,18.7654321 L2.16897574,18.7654321 C0.970944362,18.7654321 0,17.881183 0,16.7901235 C0,15.6990639 0.970944362,14.8148148 2.16897574,14.8148148 L14.6211477,14.8148148 C15.8191791,14.8148148 16.7901235,15.6990639 16.7901235,16.7901235 C16.7901235,17.8814387 15.8191791,18.7654321 14.6211477,18.7654321 Z" id="Path" fill="#FFE07D"></path></g></g></g></g></g></svg>