<svg xmlns="http://www.w3.org/2000/svg" xmlns:xlink="http://www.w3.org/1999/xlink" width="261px" height="206px" viewBox="0 0 261 206"><title>Audit-illustration</title><desc>Created with Sketch.</desc><defs><linearGradient x1="61.2687141%" y1="23.1253039%" x2="50%" y2="79.7485952%" id="linearGradient-1"><stop stop-color="#E2EEFD" offset="0%"></stop><stop stop-color="#FFFFFF" offset="100%"></stop></linearGradient><path d="M0.721757349,29.2307692 C0.256012156,29.0702388 0,28.9553639 0,28.9553639 C0.23484192,28.8714168 0.485930766,28.767342 0.752281875,28.6387213 C6.37273337,27.1929659 13.3126321,23.6598244 16.8406766,16.6465605 C19.5406202,11.2872016 23.6382917,0.110947615 23.6771858,0 L24.21875,0.194403786 C24.1759172,0.306333238 20.0683991,11.5164606 17.3561472,16.9057656 C13.7055123,24.1531976 6.50713975,27.7756863 0.721757349,29.2307692" id="path-2"></path><path d="M163.375353,154.188482 L7.58814956,154.188482 C3.82293952,154.188482 0.770105865,151.122918 0.770105865,147.340919 L0.770105865,7.62237889 C0.770105865,3.84086738 3.82293952,0.774816491 7.58814956,0.774816491 L163.375353,0.774816491 C167.141048,0.774816491 170.193396,3.84086738 170.193396,7.62237889 L170.193396,77.2559963 L138.651331,77.2559963 C135.883836,77.2559963 133.639947,79.5095998 133.639947,82.2890765 L133.639947,144.117935 C133.639947,146.897412 135.883836,149.150528 138.651331,149.150528 L169.952702,149.150528 C169.162683,152.054284 166.516991,154.188482 163.375353,154.188482 M9.64229752,142.953118 L9.64229752,145.087316 L73.1646276,145.087316 L73.1646276,142.953118 L57.0468693,142.953118 C60.0633077,142.393616 62.9390178,141.42521 65.6118851,140.107846 L107.5397,140.107846 L107.5397,137.973649 L69.3183774,137.973649 C70.6159895,137.111002 71.8500311,136.159654 73.0117675,135.128377 L100.244635,135.128377 L100.244635,132.994667 L75.2042174,132.994667 C80.8207326,127.006827 84.2627528,118.938888 84.2627528,110.063374 C84.2627528,91.5915266 69.3528316,76.6165656 50.9601276,76.6165656 C43.1220463,76.6165656 35.9172424,79.335121 30.2289073,83.8861912 C29.7465489,83.64543 29.2457503,83.4295246 28.7269966,83.2409121 C28.6959393,83.2297025 28.6643968,83.218493 28.6333395,83.2072835 C27.0630057,82.6482689 25.4596736,82.3826517 23.8820608,82.3826517 C23.8815755,82.3826517 23.880605,82.3826517 23.8801197,82.3826517 C21.1519317,82.3826517 18.5023574,83.1760917 16.2414844,84.6182225 C16.2128535,84.6362552 16.1842226,84.6547753 16.1555916,84.672808 C16.1415188,84.6825554 16.1269607,84.6918155 16.1128879,84.7010755 C13.6079241,86.3362052 11.593083,88.7740349 10.4973433,91.8123056 C10.3881575,92.1144757 10.2896477,92.4190825 10.2018138,92.7236894 C9.80486298,94.103924 9.62434253,95.501704 9.6442386,96.8775523 C9.7170291,102.175762 12.739776,107.148409 17.6613845,109.5414 C17.6589581,109.715392 17.6575023,109.888408 17.6575023,110.063374 C17.6575023,112.716135 17.9646783,115.296764 18.5460317,117.771147 L9.64229752,117.771147 L9.64229752,119.976988 L19.1443697,119.976988 C19.4044744,120.819165 19.6961217,121.646233 20.0193115,122.458193 L9.64229752,122.458193 L9.64229752,124.664035 L20.9893662,124.664035 C22.4742925,127.732035 24.4124609,130.538317 26.7160377,132.994667 L9.64229752,132.994667 L9.64229752,135.128377 L28.9084876,135.128377 C30.070224,136.159654 31.3042657,137.111002 32.6013924,137.973649 L9.64229752,137.973649 L9.64229752,140.107846 L36.30837,140.107846 C38.9812373,141.42521 41.8564621,142.393616 44.8733858,142.953118 L9.64229752,142.953118 M17.9520612,105.596132 C15.0156924,103.630565 13.2546475,100.323265 13.2066058,96.8283279 C13.1920477,95.7970509 13.3269527,94.7492032 13.6249085,93.7140272 C13.6909052,93.4854502 13.7646663,93.2568733 13.8461916,93.0307331 C14.6682391,90.7527611 16.1788846,88.9251199 18.0563943,87.6993819 C19.7718238,86.5794033 21.7944292,85.9614169 23.8772081,85.9609296 C23.8781786,85.9609296 23.8791492,85.9609296 23.8801197,85.9609296 C23.8810903,85.9609296 23.8815755,85.9609296 23.8825461,85.9609296 C25.0156516,85.9609296 26.1671973,86.1436937 27.2973912,86.5282294 C22.3219177,91.5739812 18.934733,98.2036888 17.9520612,105.596132" id="path-4"></path><path d="M10,4.61561963 C10,7.16455091 7.93378168,9.23076923 5.38438037,9.23076923 C2.83544909,9.23076923 0.769230769,7.16455091 0.769230769,4.61561963 C0.769230769,2.06668834 2.83544909,0 5.38438037,0 C7.93378168,0 10,2.06668834 10,4.61561963" id="path-6"></path><linearGradient x1="50.002546%" y1="-81.6385763%" x2="50.002546%" y2="453.566882%" id="linearGradient-8"><stop stop-color="#40D4E6" offset="0%"></stop><stop stop-color="#5477FF" offset="100%"></stop></linearGradient><path d="M18.2083333,9.27267315 L18.2083333,19.0011659 C15.4340419,20.2857958 12.3503024,21 9.10391092,21 C5.85803089,21 2.77377993,20.2857958 0,19.0011659 L0,9.27267315 C0,4.15342826 4.07448477,0 9.10391092,0 C14.1338486,0 18.2083333,4.15342826 18.2083333,9.27267315" id="path-9"></path><linearGradient x1="49.9985955%" y1="-99.3872792%" x2="49.9985955%" y2="161.351459%" id="linearGradient-11"><stop stop-color="#40D4E6" offset="0%"></stop><stop stop-color="#5477FF" offset="100%"></stop></linearGradient><path d="M36.7563657,72.2234043 L5.07260441,72.2234043 C2.27130075,72.2234043 0,69.9599816 0,67.1677904 L0,5.05610342 C0,2.26391229 2.27130075,0 5.07260441,0 L37,0 L37,70.4055179 C37,71.0351441 36.9150227,71.644207 36.7563657,72.2234043" id="path-12"></path><linearGradient x1="45.1454691%" y1="159.576992%" x2="-30.4316294%" y2="-121.35715%" id="linearGradient-14"><stop stop-color="#F4F8FF" offset="0%"></stop><stop stop-color="#F9FFFF" offset="100%"></stop></linearGradient><linearGradient x1="50.0082878%" y1="-27.5369874%" x2="50.0082878%" y2="199.163936%" id="linearGradient-15"><stop stop-color="#FFC05C" offset="0%"></stop><stop stop-color="#FF3856" offset="100%"></stop></linearGradient><linearGradient x1="50.0082878%" y1="56.5211995%" x2="50.0082878%" y2="283.222123%" id="linearGradient-16"><stop stop-color="#FFC05C" offset="0%"></stop><stop stop-color="#FF3856" offset="100%"></stop></linearGradient><linearGradient x1="49.9917122%" y1="0.359944395%" x2="49.9917122%" y2="227.060868%" id="linearGradient-17"><stop stop-color="#FFC05C" offset="0%"></stop><stop stop-color="#FF3856" offset="100%"></stop></linearGradient><linearGradient x1="50.0082878%" y1="11.9548219%" x2="50.0082878%" y2="238.655827%" id="linearGradient-18"><stop stop-color="#FFC05C" offset="0%"></stop><stop stop-color="#FF3856" offset="100%"></stop></linearGradient><path d="M21.499757,1.11461314 C10.2706588,1.11461314 1.134866,10.0873682 1.134866,21.1160714 C1.134866,28.9441403 5.82499746,36.0953264 13.0837657,39.3355807 C15.7311383,40.5179776 18.562714,41.1175297 21.499757,41.1175297 C24.437286,41.1175297 27.2688617,40.5179776 29.9157483,39.3355807 C37.1745165,36.0953264 41.864648,28.9441403 41.864648,21.1160714 C41.864648,10.0873682 32.7293412,1.11461314 21.499757,1.11461314 Z M21.499757,42.2321429 C18.39941,42.2321429 15.4098765,41.5991763 12.6137805,40.3504277 C4.95161236,36.9297348 0,29.3799612 0,21.1160714 C0,9.47254095 9.64465995,0 21.499757,0 C33.354854,0 43,9.47254095 43,21.1160714 C43,29.3799612 38.0483876,36.9297348 30.3857335,40.3504277 C27.5901235,41.5991763 24.60059,42.2321429 21.499757,42.2321429 L21.499757,42.2321429 Z" id="path-19"></path><linearGradient x1="0.000154823926%" y1="49.9988296%" x2="100.000155%" y2="49.9988296%" id="linearGradient-21"><stop stop-color="#FF9F54" offset="0%"></stop><stop stop-color="#FFD254" offset="100%"></stop></linearGradient><path d="M39.6228161,67.2183908 L27.3771839,67.2183908 C24.3423798,66.6514512 21.4501144,65.6701717 18.7614059,64.3352956 L48.2385941,64.3352956 C45.5498856,65.6701717 42.657132,66.6514512 39.6228161,67.2183908 L39.6228161,67.2183908 Z M51.9670538,62.1727273 L15.0324581,62.1727273 C13.7276436,61.2986132 12.4862882,60.3346184 11.3176665,59.2896322 L55.6823335,59.2896322 C54.5137118,60.3346184 53.2723564,61.2986132 51.9670538,62.1727273 L51.9670538,62.1727273 Z M57.8877774,57.1275577 L9.11222259,57.1275577 C6.79499322,54.6385547 4.84533784,51.7949675 3.35161088,48.686183 L13.3717852,48.686183 L13.3717852,46.4510188 L2.3758069,46.4510188 C2.05070162,45.628265 1.75732583,44.7902019 1.49567954,43.9368294 L20.57975,43.9368294 L20.57975,41.7016652 L0.893795445,41.7016652 C0.308996459,39.1943898 0,36.5794551 0,33.8914306 C0,33.7141385 0.00146443819,33.5388218 0.00390516852,33.3625174 C0.448118088,33.5803052 0.907951681,33.7768574 1.38242966,33.9506925 C2.99184723,34.5403492 4.63885206,34.820362 6.25705626,34.820362 C12.1143209,34.8208559 17.6098693,31.157478 19.7196366,25.2648622 C21.7503242,19.5949726 20.0657321,13.4791366 15.9286942,9.64439284 C19.9798184,9.64834364 26.5981028,10.1510827 33.6195958,12.7324357 C32.7258003,14.2001573 32.0775424,15.855048 31.7431623,17.650192 C31.6836085,17.9702067 31.6347939,18.2912091 31.5962303,18.6097422 C31.5264255,19.1969296 31.4927434,19.7811539 31.4932315,20.3599459 C31.4937197,21.2059106 31.568406,22.0400229 31.7114328,22.855369 C32.7189663,28.6161269 37.1440104,33.4188163 43.1628514,34.5660294 C44.0581112,34.7364076 44.9504422,34.8188805 45.8291052,34.8188805 C49.4609119,34.8193743 52.8774462,33.4153594 55.4616915,31.0345094 C58.2836639,35.9004116 60.5388987,41.8572279 61.8998499,49.1494141 L61.9003381,49.1489203 C64.2937182,44.5985882 65.649788,39.4057575 65.649788,33.8914306 C65.649788,25.9745243 62.8531992,18.7174015 58.2060486,13.0771428 C56.9061157,10.8069153 55.0052749,8.90065504 52.6758419,7.61467014 C52.4234704,7.47491065 52.1657292,7.34305275 51.9031066,7.2186026 C46.6897067,3.52954456 40.3447841,1.36598856 33.5,1.36598856 C26.1319233,1.36598856 19.3422997,3.87375787 13.9209495,8.09172905 C13.5118831,7.82998866 13.0867079,7.5875084 12.645912,7.36626369 C18.3679601,2.75469421 25.6154648,0 33.5,0 C52.0017122,0 67,15.1740291 67,33.8914306 C67,42.8849294 63.53758,51.060119 57.8877774,57.1275577 L57.8877774,57.1275577 Z M31.4922552,48.686183 L54.9359582,48.686183 L54.9359582,46.4510188 L31.4922552,46.4510188 L31.4922552,48.686183 Z M31.4922552,43.9368294 L47.285733,43.9368294 L47.285733,41.7016652 L31.4922552,41.7016652 L31.4922552,43.9368294 Z M6.25803255,31.1940229 C5.04401329,31.1940229 3.80998004,30.9841368 2.60230667,30.5416473 C1.77148207,30.236942 1.00021129,29.8393929 0.296304661,29.3648033 C1.28480044,21.8740894 4.69205998,15.1562505 9.69702158,10.0434235 C9.74193102,10.0587328 9.78684046,10.074536 9.83223804,10.0908331 C9.84395355,10.0952777 9.8561572,10.0992285 9.8678727,10.1036732 C9.87031343,10.1046609 9.87324231,10.1056486 9.87568304,10.1066363 C9.88837484,10.1110809 9.90155478,10.1160194 9.91473473,10.1209579 C11.001836,10.5190008 11.9859385,11.0765573 12.8514215,11.7570823 C16.4261151,14.5685692 17.9769551,19.4897826 16.3514287,24.0297438 C14.7693473,28.4477242 10.6489064,31.1940229 6.25803255,31.1940229 L6.25803255,31.1940229 Z M45.8247118,31.1930352 C45.1657147,31.1930352 44.4974427,31.131304 43.8262419,31.0033969 C39.3133315,30.1436044 35.996379,26.5429455 35.2402407,22.2242289 C35.1333367,21.6128429 35.0771999,20.9871352 35.0767118,20.353032 C35.0767118,19.918938 35.1020954,19.4808933 35.1548152,19.0408731 C35.1836158,18.8008621 35.2197386,18.5613449 35.264648,18.3208401 C35.5541186,16.765707 36.1579553,15.3508273 36.9970784,14.1310183 C42.8572719,16.8432414 48.7584697,21.1451671 53.485188,27.9281942 C51.5052676,29.9712508 48.7579816,31.1930352 45.8247118,31.1930352 L45.8247118,31.1930352 Z" id="path-22"></path><linearGradient x1="190.505733%" y1="173.910999%" x2="33.4926086%" y2="-130.561086%" id="linearGradient-24"><stop stop-color="#D2DFF8" offset="0%"></stop><stop stop-color="#E8F8F7" offset="100%"></stop></linearGradient><path d="M48.4350021,47 C47.0611133,39.8273717 44.7844395,33.9682194 41.9356406,29.1820954 C44.1753554,27.1715638 45.7951447,24.4523187 46.399301,21.2915241 C47.0660412,17.801389 46.3800823,14.3690586 44.7060865,11.5191459 C49.3974142,17.0669306 52.2205882,24.2050704 52.2205882,31.9921763 C52.2205882,37.4160939 50.8516273,42.5237864 48.4354949,46.9995142 L48.4350021,47 M39.940348,26.1267092 C35.1686961,19.4548922 29.2113997,15.223498 23.2954975,12.5557427 C23.7626591,11.8941472 24.3017676,11.2913278 24.9000104,10.7555422 C24.9054311,10.7506847 24.9103589,10.7458272 24.9157796,10.7409696 C24.9221858,10.7351406 24.9290848,10.7293116 24.935491,10.7239683 C26.8844618,8.99225896 29.4513868,7.97217772 32.1774818,7.97072046 C32.179453,7.97072046 32.1809313,7.97072046 32.1829025,7.97072046 C32.1833953,7.97072046 32.1833953,7.97072046 32.1838881,7.97072046 C32.8328879,7.97072046 33.4912507,8.02852507 34.1520774,8.1480203 C34.1629188,8.14996331 34.1742528,8.15239207 34.1850941,8.15433509 C34.1905148,8.15530659 34.1959354,8.1562781 34.2013561,8.1572496 C35.3480703,8.37000941 36.4179099,8.75375425 37.3896849,9.27593869 C41.4019528,11.4341391 43.7362826,15.9642713 42.8448318,20.6313858 C42.4328622,22.7871575 41.3896332,24.6694503 39.940348,26.1267092 M19.8859075,11.1800903 C12.7976661,8.64105956 6.11646637,8.14656304 2.02683098,8.14267702 C1.74298594,7.88619945 1.44780682,7.64040845 1.14178638,7.40578976 C0.776631566,7.12599605 0.395707581,6.86174644 0,6.61546968 C5.47288717,2.46665358 12.327055,0 19.7651748,0 C26.6750275,0 33.0802668,2.12808376 38.3432269,5.75665843 C37.2620532,5.25633288 36.0995698,4.88133158 34.871053,4.65351344 C34.8602117,4.65108468 34.8493704,4.64914166 34.8385291,4.64719865 C34.8326156,4.64622715 34.8262094,4.64525564 34.8198032,4.64379838 C33.9332802,4.4825284 33.0511923,4.40480792 32.1804386,4.40480792 C32.1804386,4.40480792 32.1799458,4.40480792 32.179453,4.40480792 C32.1784674,4.40480792 32.176989,4.40480792 32.1760035,4.40480792 C28.5707772,4.40529367 25.1754781,5.74160009 22.5834209,8.01298097 C22.5627239,8.03143959 22.5420269,8.0498982 22.5208371,8.06835681 C22.5021112,8.08487241 22.4833853,8.10187377 22.4646594,8.11838937 C21.4721873,9.00780305 20.6009407,10.0361421 19.8859075,11.1800903" id="path-25"></path><linearGradient x1="221.022931%" y1="205.357319%" x2="16.3291498%" y2="-141.59557%" id="linearGradient-27"><stop stop-color="#BACAE8" offset="0%"></stop><stop stop-color="#C9DCE7" offset="100%"></stop></linearGradient></defs><g id="Welcome" stroke="none" stroke-width="1" fill="none" fill-rule="evenodd"><g id="Home-page-v2" transform="translate(-430.000000, -8702.000000)"><g id="Audit-illustration" transform="translate(429.000000, 8702.106043)"><path d="M21.2609097,144.718652 C21.8497965,137.33605 23.3781678,129.84365 26.0686873,123.043743 C28.5990451,116.647155 32.0190811,110.689762 31.7417281,103.400653 C31.4702346,96.2550428 27.6035966,70.7805718 35.2023645,64.6058494 C49,53.3939566 51.1950855,43.8799924 58,31.244449 C64.7980783,18.6252124 85.5825936,9.67529893 98,4.63108303 C110.41643,-0.412045757 142.978131,-2.58084117 154.5,4.63108303 C160.146673,8.1652955 163,11.1402234 169,15.2747224 C175,19.4092214 192.5,19.4092214 208,11.3445268 C222.567189,2.80880075 239,15.2747224 244,31.244449 C245.802438,37.0013376 251,50.7771984 250,63.3939566 C249,76.0107149 239.5,80.6942706 254.240362,103.109306 C268.980723,125.524341 254.914212,118.543085 255.90155,126.591001 C257.468008,139.37874 266.889221,160.346837 258.689729,172.538838 C255.407393,177.419986 250.604498,184.152419 245.589682,184.126329 C239.07091,184.094802 231.999385,183.553419 225.749177,181.325919 C220.363255,179.408247 215.118939,177.027464 209.460547,176.737205 C205.304159,176.523043 201.0589,176.179514 196.910324,176.12081 C194.204179,176.083848 191.417953,176.937234 188.687394,177.25902 C182.993844,177.927596 177.300295,178.598346 171.607722,179.268009 C158.95691,180.755183 146.306097,182.242357 133.656261,183.729531 C109.516784,186.569077 85.3763298,179.131293 61.2368527,181.969751 C53.4162793,182.889451 45.5947293,183.810238 37.7731793,184.72885 C37.1286265,184.804948 29.2650829,186.343217 28.9691746,185.763784 C22.6603704,173.396758 20.1319658,158.842456 21.2609097,144.718652 Z" id="Fill-7" fill="url(#linearGradient-1)"></path><g id="Group-102" transform="translate(0.000000, 19.893957)"><g id="Group-9" transform="translate(204.000000, 27.000000)"><mask id="mask-3" fill="white"><use xlink:href="#path-2"></use></mask><g id="Clip-8"></g><path d="M0.721757349,29.2307692 C0.256012156,29.0702388 0,28.9553639 0,28.9553639 C0.23484192,28.8714168 0.485930766,28.767342 0.752281875,28.6387213 C6.37273337,27.1929659 13.3126321,23.6598244 16.8406766,16.6465605 C19.5406202,11.2872016 23.6382917,0.110947615 23.6771858,0 L24.21875,0.194403786 C24.1759172,0.306333238 20.0683991,11.5164606 17.3561472,16.9057656 C13.7055123,24.1531976 6.50713975,27.7756863 0.721757349,29.2307692" id="Fill-7" mask="url(#mask-3)"></path></g><g id="Group-16" transform="translate(52.000000, 0.000000)"><mask id="mask-5" fill="white"><use xlink:href="#path-4"></use></mask><g id="Clip-15"></g><path d="M163.375353,154.188482 L7.58814956,154.188482 C3.82293952,154.188482 0.770105865,151.122918 0.770105865,147.340919 L0.770105865,7.62237889 C0.770105865,3.84086738 3.82293952,0.774816491 7.58814956,0.774816491 L163.375353,0.774816491 C167.141048,0.774816491 170.193396,3.84086738 170.193396,7.62237889 L170.193396,77.2559963 L138.651331,77.2559963 C135.883836,77.2559963 133.639947,79.5095998 133.639947,82.2890765 L133.639947,144.117935 C133.639947,146.897412 135.883836,149.150528 138.651331,149.150528 L169.952702,149.150528 C169.162683,152.054284 166.516991,154.188482 163.375353,154.188482 M9.64229752,142.953118 L9.64229752,145.087316 L73.1646276,145.087316 L73.1646276,142.953118 L57.0468693,142.953118 C60.0633077,142.393616 62.9390178,141.42521 65.6118851,140.107846 L107.5397,140.107846 L107.5397,137.973649 L69.3183774,137.973649 C70.6159895,137.111002 71.8500311,136.159654 73.0117675,135.128377 L100.244635,135.128377 L100.244635,132.994667 L75.2042174,132.994667 C80.8207326,127.006827 84.2627528,118.938888 84.2627528,110.063374 C84.2627528,91.5915266 69.3528316,76.6165656 50.9601276,76.6165656 C43.1220463,76.6165656 35.9172424,79.335121 30.2289073,83.8861912 C29.7465489,83.64543 29.2457503,83.4295246 28.7269966,83.2409121 C28.6959393,83.2297025 28.6643968,83.218493 28.6333395,83.2072835 C27.0630057,82.6482689 25.4596736,82.3826517 23.8820608,82.3826517 C23.8815755,82.3826517 23.880605,82.3826517 23.8801197,82.3826517 C21.1519317,82.3826517 18.5023574,83.1760917 16.2414844,84.6182225 C16.2128535,84.6362552 16.1842226,84.6547753 16.1555916,84.672808 C16.1415188,84.6825554 16.1269607,84.6918155 16.1128879,84.7010755 C13.6079241,86.3362052 11.593083,88.7740349 10.4973433,91.8123056 C10.3881575,92.1144757 10.2896477,92.4190825 10.2018138,92.7236894 C9.80486298,94.103924 9.62434253,95.501704 9.6442386,96.8775523 C9.7170291,102.175762 12.739776,107.148409 17.6613845,109.5414 C17.6589581,109.715392 17.6575023,109.888408 17.6575023,110.063374 C17.6575023,112.716135 17.9646783,115.296764 18.5460317,117.771147 L9.64229752,117.771147 L9.64229752,119.976988 L19.1443697,119.976988 C19.4044744,120.819165 19.6961217,121.646233 20.0193115,122.458193 L9.64229752,122.458193 L9.64229752,124.664035 L20.9893662,124.664035 C22.4742925,127.732035 24.4124609,130.538317 26.7160377,132.994667 L9.64229752,132.994667 L9.64229752,135.128377 L28.9084876,135.128377 C30.070224,136.159654 31.3042657,137.111002 32.6013924,137.973649 L9.64229752,137.973649 L9.64229752,140.107846 L36.30837,140.107846 C38.9812373,141.42521 41.8564621,142.393616 44.8733858,142.953118 L9.64229752,142.953118 M17.9520612,105.596132 C15.0156924,103.630565 13.2546475,100.323265 13.2066058,96.8283279 C13.1920477,95.7970509 13.3269527,94.7492032 13.6249085,93.7140272 C13.6909052,93.4854502 13.7646663,93.2568733 13.8461916,93.0307331 C14.6682391,90.7527611 16.1788846,88.9251199 18.0563943,87.6993819 C19.7718238,86.5794033 21.7944292,85.9614169 23.8772081,85.9609296 C23.8781786,85.9609296 23.8791492,85.9609296 23.8801197,85.9609296 C23.8810903,85.9609296 23.8815755,85.9609296 23.8825461,85.9609296 C25.0156516,85.9609296 26.1671973,86.1436937 27.2973912,86.5282294 C22.3219177,91.5739812 18.934733,98.2036888 17.9520612,105.596132" id="Fill-14" fill="#FFFFFF" mask="url(#mask-5)"></path></g><path d="M72.1550261,106.42229 C67.7425796,104.823926 64.9813708,100.688833 64.9200106,96.2589109 C64.9050447,95.2033123 65.0437287,94.1307523 65.3500308,93.0711628 C65.4178762,92.837195 65.4937035,92.6032273 65.5775125,92.3717539 C66.4225871,90.0400582 67.9755488,88.169314 69.9056512,86.9146682 C72.6918031,85.1037878 76.2636649,84.5749908 79.6279995,85.7942172 C80.7389683,86.1963024 81.7446768,86.7595212 82.6291616,87.4469573 C86.2823381,90.2869965 87.867227,95.2581875 86.206012,99.8442546 C84.1422142,105.540795 77.8520459,108.485596 72.1550261,106.42229 M89.1291711,101.437043 C91.3246216,95.3773555 89.230492,88.8091106 84.40317,85.0549805 C83.234273,84.1461015 81.9057339,83.4022935 80.4373225,82.8705078 C75.9915601,81.2603241 71.2705014,81.9581692 67.5898351,84.3512047 C65.038526,86.0093282 62.9864075,88.4814397 61.8703951,91.5624358 C61.7591893,91.8688551 61.6588569,92.1777455 61.569398,92.4866358 C61.1651029,93.8862799 60.9812426,95.303716 61.0015068,96.6989121 C61.0820692,102.553497 64.7315979,108.01715 70.562738,110.129466 C78.0901379,112.856103 86.4024039,108.964084 89.1291711,101.437043" id="Fill-17" fill="#D8E6F8"></path><path d="M69.3068894,87.692281 C69.2823655,87.8001369 69.2363786,87.8001369 69.1689288,87.692281 C68.8080598,87.1152321 68.0850836,86.0122636 67,84.3833755 C70.7215298,81.9575968 75.4950026,81.2502033 79.9901229,82.8824187 C81.4748369,83.4214806 82.8181257,84.1754659 84,85.0967808 L81.7471927,88 C80.8611617,87.30964 79.8536951,86.7440258 78.7407843,86.3402304 C75.3705685,85.1158183 72.1719179,85.8736985 69.3808955,87.692281" id="Fill-18" fill="#3788CC"></path><path d="M112.861082,106.889657 C108.24871,106.021061 104.858653,102.383537 104.08585,98.0206041 C103.901754,96.9808839 103.865833,95.8992556 103.998542,94.8046557 C104.027977,94.5621874 104.064896,94.320218 104.110795,94.0772507 C104.569787,91.6400947 105.802082,89.5441904 107.505841,87.995586 C109.964442,85.7599881 113.405886,84.6638915 116.922665,85.3269376 C118.083616,85.5454585 119.166737,85.9395942 120.150577,86.4759182 C124.212658,88.6925578 126.575969,93.3453556 125.673451,98.1388448 C124.551913,104.093288 118.815509,108.010699 112.861082,106.889657 M128.746998,99.1832219 C129.939697,92.8490239 126.817327,86.7016638 121.448946,83.7720663 C120.149482,83.0627745 118.718046,82.5418034 117.183799,82.2531439 C112.536574,81.3777741 107.988698,82.8255202 104.739792,85.7788431 C102.488344,87.8256565 100.860184,90.5951072 100.253208,93.8163299 C100.192906,94.1366233 100.143478,94.4579053 100.104429,94.7767159 C99.9304426,96.2234734 99.976905,97.6519426 100.22108,99.0260409 C101.241275,104.791817 105.721928,109.59869 111.816407,110.746902 C119.684859,112.228754 127.264651,107.052159 128.746998,99.1832219" id="Fill-21" fill="#FFFFFF"></path><path d="M107.339062,88 L105,85.5085181 C108.111019,82.7664654 112.465878,81.4222859 116.91587,82.2350349 C118.385002,82.5030448 119.755687,82.9867474 121,83.645299 L119.334921,86.6021268 C118.401568,86.1087867 117.374028,85.7462392 116.272652,85.5452318 C112.936341,84.9353258 109.671498,85.9435752 107.339062,88" id="Fill-22" fill="#4B59C7"></path><path d="M104.563547,96 L101,95.5881428 C101.038617,95.2838497 101.0875,94.9771977 101.147137,94.6714892 C101.747416,91.5969492 103.357612,88.9536091 105.584218,87 L108,89.5612518 C106.330656,91.025633 105.123254,93.0075484 104.673534,95.312156 C104.628561,95.5419091 104.592388,95.7707187 104.563547,96" id="Fill-23" fill="#6F5BE0"></path><path d="M101.233069,100 C100.975653,98.3831569 100.92667,96.702338 101.110093,95 L104.90881,95.5077353 C104.770201,96.7837618 104.807719,98.0446667 105,99.2567175 L101.233069,100" id="Fill-24" fill="#B487FE"></path><path d="M163.793525,101.261281 C161.588915,105.405103 157.106357,107.555839 152.711106,106.992587 C151.66343,106.858883 150.621241,106.570023 149.615472,106.117026 C149.393464,106.017247 149.172954,105.908987 148.954937,105.793243 C146.765294,104.628323 145.132415,102.827312 144.162068,100.738938 C142.761674,97.725612 142.741718,94.1146099 144.422989,90.9556067 C144.977758,89.9124172 145.676708,88.9959471 146.482421,88.2166731 C149.809043,85.000297 154.95463,84.1317208 159.261078,86.4226466 C164.610214,89.2688427 166.639214,95.9121286 163.793525,101.261281 Z M161.308837,83.701492 C155.6188,80.6740281 148.820609,81.8217459 144.423088,86.072058 C143.358925,87.1011486 142.435134,88.3121342 141.701143,89.6901863 C139.480387,93.8653679 139.506584,98.6376396 141.356637,102.619558 C142.638773,105.379122 144.797251,107.759079 147.690708,109.298267 C147.977878,109.451493 148.269498,109.594835 148.563094,109.726807 C149.891692,110.324886 151.269717,110.705976 152.653673,110.882928 C158.461347,111.627808 164.385668,108.78471 167.298401,103.309572 C171.059302,96.2408768 168.377393,87.4624672 161.308837,83.701492 L161.308837,83.701492 Z" id="Fill-25" fill="#E6F0FD"></path><path d="M141.413351,103 C139.537586,99.1158961 139.431795,94.6018702 141.683414,90.5292503 C142.427605,89.1850495 143.364235,88.0038113 144.443187,87 L147,89.5452066 C146.19066,90.2983062 145.488564,91.1839937 144.931297,92.1921443 C143.242458,95.2450423 143.341735,98.5937406 144.748432,101.505854 L141.413351,103 Z" id="Fill-26" fill="#1A598C"></path><path d="M148.481669,110 C148.177677,109.868915 147.875732,109.726539 147.578393,109.574343 C144.582488,108.045512 142.327533,105.262463 141,102.521467 L144.405834,101 C145.401228,103.055134 147.076254,104.827478 149.322416,105.973855 C149.546059,106.087757 149.772262,106.194294 150,106.292484 L148.481669,110 Z" id="Fill-27" fill="#2273B5"></path><path d="M148,109.778014 L149.672526,106 C150.75362,106.474375 151.87386,106.776868 153,106.916882 L152.438062,111 C150.936543,110.812967 149.441459,110.410166 148,109.778014 Z" id="Fill-28" fill="#3788CC"></path><polygon id="Fill-29" fill="#C4C4C4" points="61 121 90 121 90 118 61 118"></polygon><polygon id="Fill-30" fill="#DDEBF8" points="61 126 83 126 83 123 61 123"></polygon><polygon id="Fill-31" fill="#C4C4C4" points="101 121 116 121 116 118 101 118"></polygon><polygon id="Fill-32" fill="#C4C4C4" points="101 126 124 126 124 123 101 123"></polygon><path d="M144.5,121 L159.5,121 C160.328427,121 161,120.328427 161,119.5 C161,118.671573 160.328427,118 159.5,118 L144.5,118 C143.671573,118 143,118.671573 143,119.5 C143,120.328427 143.671573,121 144.5,121 Z" id="Fill-33" fill="#B8D6FF"></path><path d="M143.5,126 L161.5,126 C162.328427,126 163,125.328427 163,124.5 C163,123.671573 162.328427,123 161.5,123 L143.5,123 C142.671573,123 142,123.671573 142,124.5 C142,125.328427 142.671573,126 143.5,126 Z" id="Fill-34" fill="#B8D6FF"></path><path d="M188,26 L207,26 C207.552285,26 208,25.5522847 208,25 C208,24.4477153 207.552285,24 207,24 L188,24 C187.447715,24 187,24.4477153 187,25 C187,25.5522847 187.447715,26 188,26 Z" id="Fill-35" fill="#B8D6FF"></path><path d="M188.5,33 L209.5,33 C210.328427,33 211,32.3284271 211,31.5 C211,30.6715729 210.328427,30 209.5,30 L188.5,30 C187.671573,30 187,30.6715729 187,31.5 C187,32.3284271 187.671573,33 188.5,33 Z" id="Fill-36" fill="#B8D6FF"></path><path d="M187.5,39 L197.5,39 C198.328427,39 199,38.3284271 199,37.5 C199,36.6715729 198.328427,36 197.5,36 L187.5,36 C186.671573,36 186,36.6715729 186,37.5 C186,38.3284271 186.671573,39 187.5,39 Z" id="Fill-37" fill="#B8D6FF"></path><path d="M188,45 L205,45 C205.552285,45 206,44.5522847 206,44 C206,43.4477153 205.552285,43 205,43 L188,43 C187.447715,43 187,43.4477153 187,44 C187,44.5522847 187.447715,45 188,45 Z" id="Fill-38" fill="#B8D6FF"></path><polygon id="Fill-39" fill="#FFFFFF" points="61 136 153 136 153 134 61 134"></polygon><polygon id="Fill-40" fill="#FFFFFF" points="62 141 160 141 160 138 62 138"></polygon><polygon id="Fill-41" fill="#FFFFFF" points="62 146 125 146 125 143 62 143"></polygon><polygon id="Fill-42" fill="#FFA347" points="61 135 108.916681 135 109 133 61 133"></polygon><polygon id="Fill-43" fill="#FFA347" points="61 141 112 141 112 138 61 138"></polygon><polygon id="Fill-44" fill="#FFA347" points="61 146 94 146 94 143 61 143"></polygon><path d="M75.5,65 L91.5,65 C92.3284271,65 93,64.3284271 93,63.5 C93,62.6715729 92.3284271,62 91.5,62 L75.5,62 C74.6715729,62 74,62.6715729 74,63.5 C74,64.3284271 74.6715729,65 75.5,65 Z" id="Fill-45" fill="#B8D6FF"></path><path d="M70.5,61 L95.5,61 C96.3284271,61 97,60.3284271 97,59.5 C97,58.6715729 96.3284271,58 95.5,58 L70.5,58 C69.6715729,58 69,58.6715729 69,59.5 C69,60.3284271 69.6715729,61 70.5,61 Z" id="Fill-46" fill="#B8D6FF"></path><g id="Group-49" transform="translate(79.000000, 23.000000)"><mask id="mask-7" fill="white"><use xlink:href="#path-6"></use></mask><g id="Clip-48"></g><path d="M10,4.61561963 C10,7.16455091 7.93378168,9.23076923 5.38438037,9.23076923 C2.83544909,9.23076923 0.769230769,7.16455091 0.769230769,4.61561963 C0.769230769,2.06668834 2.83544909,0 5.38438037,0 C7.93378168,0 10,2.06668834 10,4.61561963" id="Fill-47" fill="url(#linearGradient-8)" mask="url(#mask-7)"></path></g><g id="Group-52" transform="translate(74.000000, 33.000000)"><mask id="mask-10" fill="white"><use xlink:href="#path-9"></use></mask><g id="Clip-51"></g><path d="M18.2083333,9.27267315 L18.2083333,19.0011659 C15.4340419,20.2857958 12.3503024,21 9.10391092,21 C5.85803089,21 2.77377993,20.2857958 0,19.0011659 L0,9.27267315 C0,4.15342826 4.07448477,0 9.10391092,0 C14.1338486,0 18.2083333,4.15342826 18.2083333,9.27267315" id="Fill-50" fill="url(#linearGradient-11)" mask="url(#mask-10)"></path></g><path d="M116,24 L157,24 C158.104569,24 159,23.1045695 159,22 C159,20.8954305 158.104569,20 157,20 L116,20 C114.895431,20 114,20.8954305 114,22 C114,23.1045695 114.895431,24 116,24 Z" id="Fill-53" fill="#B8D6FF"></path><path d="M164,24 L177,24 C178.104569,24 179,23.1045695 179,22 C179,20.8954305 178.104569,20 177,20 L164,20 C162.895431,20 162,20.8954305 162,22 C162,23.1045695 162.895431,24 164,24 Z" id="Fill-54" fill="#B8D6FF"></path><path d="M115,17 L132,17 C133.104569,17 134,16.1045695 134,15 C134,13.8954305 133.104569,13 132,13 L115,13 C113.895431,13 113,13.8954305 113,15 C113,16.1045695 113.895431,17 115,17 Z" id="Fill-55" fill="#B8D6FF"></path><polygon id="Fill-56" fill="#BDE1FF" points="113.116 66 113.884 66 113.884 32 113.116 32"></polygon><polygon id="Fill-57" fill="#BDE1FF" points="123.116 66 123.884 66 123.884 32 123.116 32"></polygon><polygon id="Fill-58" fill="#BDE1FF" points="132.851683 66 133.148317 66 133.148317 32 132.851683 32"></polygon><polygon id="Fill-59" fill="#BDE1FF" points="143.116 66 143.884 66 143.884 32 143.116 32"></polygon><polygon id="Fill-60" fill="#BDE1FF" points="152.1155 66 152.8845 66 152.8845 32 152.1155 32"></polygon><polygon id="Fill-61" fill="#BDE1FF" points="160.851877 66 161.148123 66 161.148123 32 160.851877 32"></polygon><polygon id="Fill-62" fill="#BDE1FF" points="169.851877 66 170.148123 66 170.148123 32 169.851877 32"></polygon><polygon id="Fill-63" fill="#BDE1FF" points="179.116 66 179.884 66 179.884 32 179.116 32"></polygon><polyline id="Fill-64" fill="#4AAFFF" points="113 54.8636473 119.42114 48.4825528 122.546954 51.588391 129.378798 44.7991529 134.792064 50.1786591 141.719805 43.293642 146.466644 48.0113587 158.552897 36 167.61117 45.0017808 173.0966 39.5505607 179 45.417144 179 66 113 66 113 54.8636473"></polyline><polygon id="Fill-66" fill="#BDE1FF" points="113 30 117 30 117 29 113 29"></polygon><polygon id="Fill-67" fill="#BDE1FF" points="123 30 127 30 127 29 123 29"></polygon><polygon id="Fill-68" fill="#BDE1FF" points="133 30 137 30 137 29 133 29"></polygon><polygon id="Fill-69" fill="#BDE1FF" points="142 30 145 30 145 29 142 29"></polygon><polygon id="Fill-70" fill="#BDE1FF" points="151 30 154 30 154 29 151 29"></polygon><polygon id="Fill-71" fill="#BDE1FF" points="161 30 165 30 165 29 161 29"></polygon><polygon id="Fill-72" fill="#BDE1FF" points="170 30 174 30 174 29 170 29"></polygon><polygon id="Fill-73" fill="#BDE1FF" points="179 30 181 30 181 29 179 29"></polygon><path d="M233.867146,149 L222,149 C222.160541,148.422594 222.246528,147.815415 222.246528,147.187737 L222.246528,77 L233.867146,77 C236.702219,77 239,79.2569095 239,82.0404637 L239,143.960024 C239,146.743579 236.702219,149 233.867146,149" id="Fill-74" fill="#FDFDFD"></path><g id="Group-77" transform="translate(186.000000, 77.000000)"><mask id="mask-13" fill="white"><use xlink:href="#path-12"></use></mask><g id="Clip-76"></g><path d="M36.7563657,72.2234043 L5.07260441,72.2234043 C2.27130075,72.2234043 0,69.9599816 0,67.1677904 L0,5.05610342 C0,2.26391229 2.27130075,0 5.07260441,0 L37,0 L37,70.4055179 C37,71.0351441 36.9150227,71.644207 36.7563657,72.2234043" id="Fill-75" fill="url(#linearGradient-14)" mask="url(#mask-13)"></path></g><path d="M198,137 C198.552285,137 199,136.552285 199,136 L199,90 C199,89.4477153 198.552285,89 198,89 C197.447715,89 197,89.4477153 197,90 L197,136 C197,136.552285 197.447715,137 198,137 Z" id="Fill-78" fill="#E4EEFB"></path><path d="M208,137 C208.552285,137 209,136.552285 209,136 L209,90 C209,89.4477153 208.552285,89 208,89 C207.447715,89 207,89.4477153 207,90 L207,136 C207,136.552285 207.447715,137 208,137 Z" id="Fill-79" fill="#E4EEFB"></path><path d="M216,137 C216.552285,137 217,136.552285 217,136 L217,90 C217,89.4477153 216.552285,89 216,89 C215.447715,89 215,89.4477153 215,90 L215,136 C215,136.552285 215.447715,137 216,137 Z" id="Fill-80" fill="#E4EEFB"></path><path d="M226,137 C226.552285,137 227,136.552285 227,136 L227,90 C227,89.4477153 226.552285,89 226,89 C225.447715,89 225,89.4477153 225,90 L225,136 C225,136.552285 225.447715,137 226,137 Z" id="Fill-81" fill="#E4EEFB"></path><path d="M198,133 C199.104569,133 200,132.104569 200,131 L200,115 C200,113.895431 199.104569,113 198,113 C196.895431,113 196,113.895431 196,115 L196,131 C196,132.104569 196.895431,133 198,133 Z" id="Fill-82" fill="url(#linearGradient-15)"></path><path d="M208,117 C209.104569,117 210,116.104569 210,115 L210,99 C210,97.8954305 209.104569,97 208,97 C206.895431,97 206,97.8954305 206,99 L206,115 C206,116.104569 206.895431,117 208,117 Z" id="Fill-84" fill="url(#linearGradient-16)"></path><path d="M216,127 C217.104569,127 218,126.104569 218,125 L218,109 C218,107.895431 217.104569,107 216,107 C214.895431,107 214,107.895431 214,109 L214,125 C214,126.104569 214.895431,127 216,127 Z" id="Fill-86" fill="url(#linearGradient-17)"></path><path d="M225.5,126 C226.328427,126 227,125.328427 227,124.5 L227,107.5 C227,106.671573 226.328427,106 225.5,106 C224.671573,106 224,106.671573 224,107.5 L224,124.5 C224,125.328427 224.671573,126 225.5,126 Z" id="Fill-88" fill="url(#linearGradient-18)"></path><g id="Group-92" transform="translate(62.000000, 12.000000)"><mask id="mask-20" fill="white"><use xlink:href="#path-19"></use></mask><g id="Clip-91"></g><path d="M21.499757,1.11461314 C10.2706588,1.11461314 1.134866,10.0873682 1.134866,21.1160714 C1.134866,28.9441403 5.82499746,36.0953264 13.0837657,39.3355807 C15.7311383,40.5179776 18.562714,41.1175297 21.499757,41.1175297 C24.437286,41.1175297 27.2688617,40.5179776 29.9157483,39.3355807 C37.1745165,36.0953264 41.864648,28.9441403 41.864648,21.1160714 C41.864648,10.0873682 32.7293412,1.11461314 21.499757,1.11461314 Z M21.499757,42.2321429 C18.39941,42.2321429 15.4098765,41.5991763 12.6137805,40.3504277 C4.95161236,36.9297348 0,29.3799612 0,21.1160714 C0,9.47254095 9.64465995,0 21.499757,0 C33.354854,0 43,9.47254095 43,21.1160714 C43,29.3799612 38.0483876,36.9297348 30.3857335,40.3504277 C27.5901235,41.5991763 24.60059,42.2321429 21.499757,42.2321429 L21.499757,42.2321429 Z" id="Fill-90" fill="#49AAF1" mask="url(#mask-20)"></path></g><path d="M25.4210915,107.278785 C25.4210915,107.278785 29.3629709,98.3007991 24.789929,99.0436848 C24.789929,99.0436848 23.2331897,100.337931 21.6355595,102.973337 C20.4251899,104.969842 17.909199,110.253713 18.0025264,112.041282 C18.0953727,113.827883 19.3601031,115.160821 20.725377,118.030798 C20.725377,118.030798 23.563203,123.358197 23.6829892,124 L26.6834166,122.433943 C26.6834166,122.433943 24.1409669,117.34063 22.3489848,112.862519 L25.4210915,107.278785" id="Fill-93" fill="#DF5151"></path><g id="Group-96" transform="translate(0.000000, 113.000000)" fill="url(#linearGradient-21)"><path d="M63.5698617,9.01280177 L62.0715442,1.90471405 C61.8480675,0.844530103 60.8210087,0.155090769 59.7551634,0.349784531 L2.71583077,10.7689348 C1.63751964,10.9659057 0.918680957,11.9941488 1.10400848,13.0745219 L2.18658284,19.3854261 C2.37281093,20.4710491 3.40177771,21.2017456 4.48812915,21.019815 L61.9432049,11.3978483 C63.0326034,11.2154074 63.7678378,10.1843778 63.5853969,9.09497933 C63.5807918,9.06748152 63.5756123,9.04008301 63.5698617,9.01280177 Z" id="Fill-94"></path></g><ellipse id="Oval-Copy-6" fill="#E6EEF8" cx="44" cy="184" rx="23" ry="2"></ellipse><polygon id="Fill-97" fill="#2D3038" points="67 121.472756 65.6069647 114 62 114.444444 63.6128734 122"></polygon><path d="M29.6363429,183.896227 C32.4308659,183.958219 34.7638609,183.992786 36.6353279,183.99993 C39.4425283,184.010645 39.1296315,182.789238 38.7688691,182.328068 C38.4081067,181.866899 37.2419324,181.664715 36.6353279,181.377327 C34.6028559,180.63865 34.1227301,179.170906 33.1977232,178.620897 C31.5682299,177.652001 30.7032239,178.105357 29.7919944,178.109663 C29.0326477,178.113514 29.0399211,178.530878 29.0166461,178.609825 L29.0142216,178.620897 C28.9885222,178.7398 29.0207804,180.102069 29.0166461,180.21715 C28.9925584,180.887648 28.9440382,182.664962 29.3018105,183.513601 C29.3926171,183.728995 29.5041279,183.856537 29.6363429,183.896227 Z" id="Fill-103" fill="#121731"></path><path d="M49.6363429,183.896227 C52.4308659,183.958219 54.7638609,183.992786 56.6353279,183.99993 C59.4425283,184.010645 59.1296315,182.789238 58.7688691,182.328068 C58.4081067,181.866899 57.2419324,181.664715 56.6353279,181.377327 C54.6028559,180.63865 54.1227301,179.170906 53.1977232,178.620897 C51.5682299,177.652001 50.7032239,178.105357 49.7919944,178.109663 C49.0326477,178.113514 49.0399211,178.530878 49.0166461,178.609825 L49.0142216,178.620897 C48.9885222,178.7398 49.0207804,180.102069 49.0166461,180.21715 C48.9925584,180.887648 48.9440382,182.664962 49.3018105,183.513601 C49.3926171,183.728995 49.5041279,183.856537 49.6363429,183.896227 Z" id="Fill-103-Copy" fill="#121731"></path><path d="M42.1730292,127.910999 C42.2626037,128.526246 52.9236375,172.441858 54,179.771286 C54,179.771286 50.9472156,180.285893 49.0260138,179.771286 C49.0260138,179.771286 31.8802191,135.796733 31.3048123,134.981194 C30.70667,134.132936 26.9597148,129.446445 30.5079419,124.368793 C34.0556795,119.291637 40.1560457,123.955818 40.1560457,123.955818 C40.1560457,123.955818 42.0829652,127.296247 42.1730292,127.910999 Z" id="Fill-100" fill="#2A4690"></path><path d="M28.8734051,179.788712 C31.2564243,180.591796 33.643176,178.846754 33.643176,178.846754 C33.5799277,178.291263 34.0412497,145.700824 34.7344917,143.246466 C34.9421655,142.511042 35.1568115,141.772185 35.3654813,141.055881 C35.4835117,140.653849 35.598056,140.259171 35.7101102,139.87773 C36.6867248,136.543314 38,123.668477 38,123.668477 C38,123.668477 30.7209594,117.896373 27.1770586,123.330672 C23.6326599,128.76399 25.45242,132.715183 25.5774227,133.394715" id="Fill-101" fill="#2A4690"></path><path d="M33,92.9672435 C33,92.9672435 31.8691792,95.8063641 32.7488142,98 C32.7488142,98 28.6018246,97.7441985 28.4447122,97.2855041 C28.2875999,96.8258895 28.6115229,92.5724995 28.0412633,91.3151155 C27.4710037,90.0581915 33,92.9672435 33,92.9672435" id="Fill-105" fill="#EEA886"></path><path d="M33.2093908,97.3617517 C33.2093908,97.3617517 35.6548324,98.2470625 36.7601933,98.4935298 C37.8650703,98.7395043 40.1774233,99.8550156 39.9891635,104.05482 C39.8013877,108.254131 39.111263,111.895933 38.8605726,113.700567 C38.6098822,115.505201 38.7666847,120.09886 39.1741776,122.32939 C39.1741776,122.32939 33.311506,123.838263 26.4136474,122.32939 C26.4136474,122.32939 27.6366102,118.52344 27.6051529,117.53905 C27.5736956,116.555152 23.5292556,108.451305 23.3409958,107.171646 C23.152736,105.891988 22.3377501,100.24887 24.1879229,99.0022385 C26.0376118,97.7551136 27.5422383,97.9192609 28.3262509,97.3617517 C29.1097795,96.8037495 32.0653132,96.9614886 33.2093908,97.3617517" id="Fill-106" fill="#DF5151"></path><path d="M24.0307515,129.76258 C34.5937771,132.540268 43,129.773709 43,129.773709 C42.2334317,128.211607 41.6694783,126.653552 41.2611862,125.145578 L41.2606759,125.14406 C40.9712989,124.077703 40.7605181,123.038157 40.6099604,122.038067 L40.6099604,122.037562 C39.7515264,116.333462 40.8712673,111.965849 40.8712673,111.965849 C39.6520052,102.019591 24.4681344,99.050687 23.2519344,102.203725 C22.0357345,105.356763 25.6082899,118.906276 25.7894695,120.068241 C25.9706491,121.229194 24.0307515,129.76258 24.0307515,129.76258" id="Fill-107" fill="#DF5151"></path><path d="M30.0100844,81.3243026 C31.7590687,80.7501268 36.486617,80.1389389 37.6973741,87.0850532 C38.9086398,94.0316545 36.2709191,94.15097 33.56096,93.9532471 C30.8515096,93.7560111 26.6128426,89.0671527 26.2882783,87.6416969 C25.963714,86.216728 25.0200358,82.9630654 30.0100844,81.3243026" id="Fill-108" fill="#EEA886"></path><path d="M37,83.561814 C37,83.561814 35.5808768,86.5318833 33.7187152,87.5673966 C33.7187152,87.5673966 32.552614,90.7233398 30.0268947,92 C30.0268947,92 23.324313,87.6564204 27.2136505,82.4954848 C31.1029881,77.33406 36.5609619,81.4443189 37,83.561814" id="Fill-109" fill="#121731"></path><path d="M32.6285527,86.6324728 C32.4825631,86.1800943 31.5113938,85.4442172 31.075842,86.6855144 C30.6402902,87.9268117 32.2041193,90.1131045 32.6329034,89.9954373 C33.061204,89.8771604 33.1815729,88.3493161 32.6285527,86.6324728" id="Fill-110" fill="#EEA886"></path><path d="M27.1355716,83.6805538 C26.9759651,83.4553789 22.1409233,81.4307759 21.1353479,85.6613044 C20.1297725,89.8923256 25.0290927,94.8116823 25.8875904,96.9269466 C26.7466329,99.0422108 25.5002859,104 25.5002859,104 C25.5002859,104 28.4483758,101.479224 29.3401022,98.840194 C30.3195305,95.9429767 30.6485486,88.6363721 27.1355716,83.6805538" id="Fill-111" fill="#121731"></path><path d="M26,84.0157063 C26,84.0157063 27.7058516,85.1734529 27.9255969,87 C27.9255969,87 28.2457973,85.575164 27.5576805,84.7049694 C26.8701915,83.8342363 26,84.0157063 26,84.0157063" id="Fill-112" fill="#242B4C"></path><path d="M48.1172056,124 C48.1172056,124 49.4793238,125.884957 49.919919,126.075658 C50.3605143,126.265648 51.2100513,125.219636 54.3391453,124.89587 C54.6138153,124.867407 55.0967853,125.211809 54.9829351,125.717737 C54.8690848,126.223665 53.5074771,127.599847 52.9244415,127.809761 C52.3419164,128.019675 49.5921529,129.542441 48.2519879,128.79529 C46.9118228,128.047427 46,125.671485 46,125.671485 L48.1172056,124" id="Fill-114" fill="#EEA886"></path><path d="M37.9691189,99 C37.9691189,99 41.4232215,100.392685 41.6274073,105.276256 C41.8320805,110.160819 42.0196975,112.710688 42.2073145,113.464295 C42.3944442,114.218397 42.7531095,117.247699 43.6219956,119.071229 C44.4655413,120.839726 50,126.437241 50,126.437241 L47.321706,129 C47.321706,129 39.6060166,121.122825 39.1372177,119.683039 C38.6684188,118.243253 36.7396182,108.221273 36.5861134,106.531607 C36.4618476,105.169165 34.6967856,99.101142 37.9691189,99" id="Fill-115" fill="#DF5151"></path><g id="Group-118" transform="translate(69.000000, 76.000000)"><mask id="mask-23" fill="white"><use xlink:href="#path-22"></use></mask><g id="Clip-117"></g><path d="M39.6228161,67.2183908 L27.3771839,67.2183908 C24.3423798,66.6514512 21.4501144,65.6701717 18.7614059,64.3352956 L48.2385941,64.3352956 C45.5498856,65.6701717 42.657132,66.6514512 39.6228161,67.2183908 L39.6228161,67.2183908 Z M51.9670538,62.1727273 L15.0324581,62.1727273 C13.7276436,61.2986132 12.4862882,60.3346184 11.3176665,59.2896322 L55.6823335,59.2896322 C54.5137118,60.3346184 53.2723564,61.2986132 51.9670538,62.1727273 L51.9670538,62.1727273 Z M57.8877774,57.1275577 L9.11222259,57.1275577 C6.79499322,54.6385547 4.84533784,51.7949675 3.35161088,48.686183 L13.3717852,48.686183 L13.3717852,46.4510188 L2.3758069,46.4510188 C2.05070162,45.628265 1.75732583,44.7902019 1.49567954,43.9368294 L20.57975,43.9368294 L20.57975,41.7016652 L0.893795445,41.7016652 C0.308996459,39.1943898 0,36.5794551 0,33.8914306 C0,33.7141385 0.00146443819,33.5388218 0.00390516852,33.3625174 C0.448118088,33.5803052 0.907951681,33.7768574 1.38242966,33.9506925 C2.99184723,34.5403492 4.63885206,34.820362 6.25705626,34.820362 C12.1143209,34.8208559 17.6098693,31.157478 19.7196366,25.2648622 C21.7503242,19.5949726 20.0657321,13.4791366 15.9286942,9.64439284 C19.9798184,9.64834364 26.5981028,10.1510827 33.6195958,12.7324357 C32.7258003,14.2001573 32.0775424,15.855048 31.7431623,17.650192 C31.6836085,17.9702067 31.6347939,18.2912091 31.5962303,18.6097422 C31.5264255,19.1969296 31.4927434,19.7811539 31.4932315,20.3599459 C31.4937197,21.2059106 31.568406,22.0400229 31.7114328,22.855369 C32.7189663,28.6161269 37.1440104,33.4188163 43.1628514,34.5660294 C44.0581112,34.7364076 44.9504422,34.8188805 45.8291052,34.8188805 C49.4609119,34.8193743 52.8774462,33.4153594 55.4616915,31.0345094 C58.2836639,35.9004116 60.5388987,41.8572279 61.8998499,49.1494141 L61.9003381,49.1489203 C64.2937182,44.5985882 65.649788,39.4057575 65.649788,33.8914306 C65.649788,25.9745243 62.8531992,18.7174015 58.2060486,13.0771428 C56.9061157,10.8069153 55.0052749,8.90065504 52.6758419,7.61467014 C52.4234704,7.47491065 52.1657292,7.34305275 51.9031066,7.2186026 C46.6897067,3.52954456 40.3447841,1.36598856 33.5,1.36598856 C26.1319233,1.36598856 19.3422997,3.87375787 13.9209495,8.09172905 C13.5118831,7.82998866 13.0867079,7.5875084 12.645912,7.36626369 C18.3679601,2.75469421 25.6154648,0 33.5,0 C52.0017122,0 67,15.1740291 67,33.8914306 C67,42.8849294 63.53758,51.060119 57.8877774,57.1275577 L57.8877774,57.1275577 Z M31.4922552,48.686183 L54.9359582,48.686183 L54.9359582,46.4510188 L31.4922552,46.4510188 L31.4922552,48.686183 Z M31.4922552,43.9368294 L47.285733,43.9368294 L47.285733,41.7016652 L31.4922552,41.7016652 L31.4922552,43.9368294 Z M6.25803255,31.1940229 C5.04401329,31.1940229 3.80998004,30.9841368 2.60230667,30.5416473 C1.77148207,30.236942 1.00021129,29.8393929 0.296304661,29.3648033 C1.28480044,21.8740894 4.69205998,15.1562505 9.69702158,10.0434235 C9.74193102,10.0587328 9.78684046,10.074536 9.83223804,10.0908331 C9.84395355,10.0952777 9.8561572,10.0992285 9.8678727,10.1036732 C9.87031343,10.1046609 9.87324231,10.1056486 9.87568304,10.1066363 C9.88837484,10.1110809 9.90155478,10.1160194 9.91473473,10.1209579 C11.001836,10.5190008 11.9859385,11.0765573 12.8514215,11.7570823 C16.4261151,14.5685692 17.9769551,19.4897826 16.3514287,24.0297438 C14.7693473,28.4477242 10.6489064,31.1940229 6.25803255,31.1940229 L6.25803255,31.1940229 Z M45.8247118,31.1930352 C45.1657147,31.1930352 44.4974427,31.131304 43.8262419,31.0033969 C39.3133315,30.1436044 35.996379,26.5429455 35.2402407,22.2242289 C35.1333367,21.6128429 35.0771999,20.9871352 35.0767118,20.353032 C35.0767118,19.918938 35.1020954,19.4808933 35.1548152,19.0408731 C35.1836158,18.8008621 35.2197386,18.5613449 35.264648,18.3208401 C35.5541186,16.765707 36.1579553,15.3508273 36.9970784,14.1310183 C42.8572719,16.8432414 48.7584697,21.1451671 53.485188,27.9281942 C51.5052676,29.9712508 48.7579816,31.1930352 45.8247118,31.1930352 L45.8247118,31.1930352 Z" id="Fill-116" fill="url(#linearGradient-24)" mask="url(#mask-23)"></path></g><path d="M75.3820267,112 C73.7304717,112 72.0495227,111.721944 70.4069355,111.136409 C69.9226786,110.963789 69.453368,110.768611 69,110.552345 C69.0209247,109.208655 69.1215624,107.883599 69.2984258,106.582573 C70.0168397,107.053846 70.8040061,107.448616 71.6519538,107.751192 C72.8845169,108.190588 74.1439832,108.399007 75.3830231,108.399007 C79.8643915,108.399007 84.0697535,105.671904 85.6844411,101.284804 C87.3434691,96.7765747 85.7606667,91.8897585 82.1122997,89.0979227 L83.7538905,87.0205967 C84.1893231,87.0078464 84.6725835,87 85.1986897,87 C85.2166251,87 85.2345606,87 85.2529942,87 C89.4752952,90.8079405 91.1946062,96.8810294 89.1220667,102.511289 C86.9688178,108.362718 81.3600078,112.00049 75.3820267,112" id="Fill-119" fill="#F8F8F8"></path><path d="M114.215174,111 C113.330442,111 112.431949,110.920834 111.530506,110.757289 C105.470097,109.656083 101.014492,105.046 100,99.5162696 L103.553179,98.9104406 C103.445537,98.3235734 103.389012,97.7229589 103.388521,97.1142857 C103.389012,97.7229589 103.445537,98.3235734 103.553179,98.9104406 C104.314539,103.055961 107.6544,106.51222 112.198478,107.337531 C112.874314,107.460309 113.547202,107.519564 114.21075,107.519564 C117.164278,107.519564 119.930537,106.346778 121.924132,104.385656 C122.613239,105.328056 123.278754,106.322602 123.914286,107.367396 C121.312193,109.652765 117.872063,111.000474 114.215174,111 M127,89.4 C125.387839,87.5582736 123.548168,85.9036331 121.522092,84.4752255 L121.585183,84.3650679 C121.338078,84.2362472 121.085714,84.1147096 120.828571,84 C121.085714,84.1147096 121.338078,84.2362472 121.585183,84.3650679 C123.866012,85.5504004 125.727191,87.3074602 127,89.4" id="Fill-121" fill="#F8F8F8"></path><path d="M120.916614,84.1944297 C120.614024,84.0622026 120.308907,83.9325828 120,83.8055703 C120.339861,83.8994329 120.673405,83.9988826 121,84.1042918 L120.916614,84.1944297" id="Fill-122" fill="#5663C5"></path><path d="M90,121 L69.6420601,121 C69.4025243,119.685815 69.1874628,118.35042 69,117 L90,117 L90,121" id="Fill-125" fill="#DDEBF8"></path><path d="M83,126 L72.0649028,126 C71.6818787,124.692002 71.326556,123.358374 71,122 L83,122 L83,126" id="Fill-126" fill="#DDEBF8"></path><polygon id="Fill-127" fill="#DDEBF8" points="100 121 117 121 117 117 100 117"></polygon><polygon id="Fill-128" fill="#DDEBF8" points="100 126 125 126 125 122 100 122"></polygon><path d="M123.829624,136 L107.799199,136 L107.799199,134 L78,134 L126,134 C125.309207,134.697122 124.584307,135.365007 123.829624,136" id="Fill-129" fill="#F8F8F8"></path><path d="M117.264938,141 L112.231553,141 L112.231553,138 L84,138 L121,138 C119.805836,139.107787 118.559838,140.110071 117.264938,141" id="Fill-130" fill="#F8F8F8"></path><path d="M102.5,144 C100.279957,144 98.1075899,143.656469 96,143 L109,143 C106.89241,143.656469 104.720043,144 102.5,144" id="Fill-131" fill="#F8F8F8"></path><path d="M81.4320207,136 C80.6812602,135.363238 79.6872015,133.699064 79,133 L109,133 L108.917214,136 L81.4320207,136 Z" id="Fill-132" fill="#F8A553"></path><path d="M87.7049124,141 C86.4206333,139.961315 85.1848542,139.292959 84,138 L112,138 L112,141 L87.7049124,141 Z" id="Fill-133" fill="#F8A553"></path><g id="Group-136" transform="translate(83.000000, 78.000000)"><mask id="mask-26" fill="white"><use xlink:href="#path-25"></use></mask><g id="Clip-135"></g><path d="M48.4350021,47 C47.0611133,39.8273717 44.7844395,33.9682194 41.9356406,29.1820954 C44.1753554,27.1715638 45.7951447,24.4523187 46.399301,21.2915241 C47.0660412,17.801389 46.3800823,14.3690586 44.7060865,11.5191459 C49.3974142,17.0669306 52.2205882,24.2050704 52.2205882,31.9921763 C52.2205882,37.4160939 50.8516273,42.5237864 48.4354949,46.9995142 L48.4350021,47 M39.940348,26.1267092 C35.1686961,19.4548922 29.2113997,15.223498 23.2954975,12.5557427 C23.7626591,11.8941472 24.3017676,11.2913278 24.9000104,10.7555422 C24.9054311,10.7506847 24.9103589,10.7458272 24.9157796,10.7409696 C24.9221858,10.7351406 24.9290848,10.7293116 24.935491,10.7239683 C26.8844618,8.99225896 29.4513868,7.97217772 32.1774818,7.97072046 C32.179453,7.97072046 32.1809313,7.97072046 32.1829025,7.97072046 C32.1833953,7.97072046 32.1833953,7.97072046 32.1838881,7.97072046 C32.8328879,7.97072046 33.4912507,8.02852507 34.1520774,8.1480203 C34.1629188,8.14996331 34.1742528,8.15239207 34.1850941,8.15433509 C34.1905148,8.15530659 34.1959354,8.1562781 34.2013561,8.1572496 C35.3480703,8.37000941 36.4179099,8.75375425 37.3896849,9.27593869 C41.4019528,11.4341391 43.7362826,15.9642713 42.8448318,20.6313858 C42.4328622,22.7871575 41.3896332,24.6694503 39.940348,26.1267092 M19.8859075,11.1800903 C12.7976661,8.64105956 6.11646637,8.14656304 2.02683098,8.14267702 C1.74298594,7.88619945 1.44780682,7.64040845 1.14178638,7.40578976 C0.776631566,7.12599605 0.395707581,6.86174644 0,6.61546968 C5.47288717,2.46665358 12.327055,0 19.7651748,0 C26.6750275,0 33.0802668,2.12808376 38.3432269,5.75665843 C37.2620532,5.25633288 36.0995698,4.88133158 34.871053,4.65351344 C34.8602117,4.65108468 34.8493704,4.64914166 34.8385291,4.64719865 C34.8326156,4.64622715 34.8262094,4.64525564 34.8198032,4.64379838 C33.9332802,4.4825284 33.0511923,4.40480792 32.1804386,4.40480792 C32.1804386,4.40480792 32.1799458,4.40480792 32.179453,4.40480792 C32.1784674,4.40480792 32.176989,4.40480792 32.1760035,4.40480792 C28.5707772,4.40529367 25.1754781,5.74160009 22.5834209,8.01298097 C22.5627239,8.03143959 22.5420269,8.0498982 22.5208371,8.06835681 C22.5021112,8.08487241 22.4833853,8.10187377 22.4646594,8.11838937 C21.4721873,9.00780305 20.6009407,10.0361421 19.8859075,11.1800903" id="Fill-134" fill="url(#linearGradient-27)" mask="url(#mask-26)"></path></g><path d="M82.8052516,86 L83.6900073,85.0213434 C83.1495259,84.6597615 82.5857039,84.3182674 82,84 C82.5857039,84.3182674 83.1495259,84.6597615 83.6900073,85.0213434 C84.1429613,85.3245449 84.5798687,85.6421846 85,85.9736347 C84.9730124,85.9736347 84.9467542,85.9736347 84.920496,85.9736347 C84.1502553,85.9736347 83.4427425,85.9836786 82.8052516,86" id="Fill-137" fill="#D6DCE8"></path><path d="M121.873755,103.878721 C123.503197,102.166399 124.817028,100.460192 125.228714,98.2555836 C126.119551,93.4827407 122.977856,88.8499833 118.968351,86.6428912 L121.118841,83.5934499 C123.206325,85.1522739 124.924735,86.569997 126.585759,88.5798765 C128.379429,90.1189629 129.496767,92.8642823 128.780736,98.9306765 C128.379429,102.33065 126.558321,104.943922 124.320149,107 C123.077475,105.413052 122.80056,105.165606 121.873755,103.878721 Z M102,89.03125 L102,89.03125 C102.659935,87.8824247 103.464046,86.8497015 104.380041,85.9564959 C104.397324,85.9399099 104.414607,85.922836 104.43189,85.90625 C104.414607,85.922836 104.397324,85.9399099 104.380041,85.9564959 L106.627732,88.6048919 L104.380041,85.9564959 C103.464046,86.8497015 102.659935,87.8824247 102,89.03125 M107.399021,88.25 C109.26715,86.2844698 111.7276,85.1261027 114.340619,85.125 C111.7276,85.126654 109.26715,86.2844698 107.399021,88.25 M105.085155,85.90625 C107.586118,83.4472267 110.862094,82.0005259 114.340619,82 C110.862569,82.0010518 107.585642,83.4472267 105.085155,85.90625" id="Fill-139" fill="#E6F0FD"></path><path d="M102.499755,142.76 C84.673644,142.76 70.2222222,128.093671 70.2222222,109.999255 C70.2222222,91.9068259 84.673644,77.24 102.499755,77.24 C120.326845,77.24 134.777778,91.9068259 134.777778,109.999255 C134.777778,128.093671 120.326845,142.76 102.499755,142.76 Z M102.5,71 C81.2374933,71 64,88.460862 64,109.998515 C64,131.538643 81.2374933,149 102.5,149 C123.763484,149 141,131.538643 141,109.998515 C141,88.460862 123.763484,71 102.5,71 L102.5,71 Z" id="Fill-142" fill="#3F444F"></path><ellipse id="Oval" fill="#E6EEF8" cx="227.5" cy="175.5" rx="25.5" ry="2.5"></ellipse></g><g id="Group-10" transform="translate(203.000000, 84.840559)"><path d="M35.7950408,104.208861 C35.7950408,104.208861 34.7364651,105.594182 33.7134758,106.197931 C32.6904865,106.801679 31.081983,107.041262 30.4770148,107.666307 C30.0404888,108.117255 28.8860672,110.060006 33.1360278,110.020608 C37.3859884,109.98121 39.4352884,110.294797 39.8907938,109.54996 C40.3458248,108.805656 39.2317344,104.053398 39.2317344,104.053398 C39.2317344,104.053398 38.2253521,104.448444 35.7950408,104.208861" id="Fill-144" fill="#1C1E26"></path><path d="M18.4302446,104.209423 C18.4302446,104.209423 17.2809203,105.599754 16.1687208,106.205686 C15.0565213,106.811618 10.9650503,107.310149 10.307115,107.936386 C9.83222592,108.390033 9.04332225,110.212638 15.5417229,110.042187 C20.158614,109.920893 22.3866223,110.317367 22.8811051,109.569838 C23.3761035,108.822842 22.1654199,104.053398 22.1654199,104.053398 C22.1654199,104.053398 21.1346889,104.476589 18.4302446,104.209423" id="Fill-146" fill="#1C1E26"></path><path d="M41.9783193,55.3442165 C41.7401646,60.1073953 39.8644101,106.053398 39.8644101,106.053398 L35.2771238,105.433405 C35.2771238,105.433405 31.1608782,60.1445351 31.0019474,58.270007 C30.8434996,56.3965107 40.4068847,45.0533981 40.4068847,45.0533981 C40.4068847,45.0533981 42.2169571,50.5810377 41.9783193,55.3442165 Z" id="Fill-147" fill="#20284D"></path><path d="M18.8417497,61.8837673 C18.4936724,64.8386086 18.2614446,76.1827525 18.0874059,78.0292669 C17.9133672,79.8763041 16.9278535,102.820162 16,105.564316 L22.7407407,106.021578 C22.3832591,107.387541 30.483296,64.3477035 32.8314954,59.2823359 C35.1807528,54.2174912 40.5569074,54.097771 42,44.6999955 C42,44.6999955 23.7804273,42.7165087 21.8257986,45.6974897 C21.8257986,45.6974897 19.1892981,58.9289261 18.8417497,61.8837673 Z" id="Fill-148" fill="#20284D"></path><path d="M34.1393782,1.44510004 C34.1393782,1.44510004 29.5693968,-0.151622981 27.4623664,3.10250728 C25.3548362,6.35615207 25.5577909,12.8707237 27.8612775,13.6717554 C30.165264,14.4732725 33.6259927,14.0538232 34.8052298,12.0177464 C35.9839671,9.98166972 37.0492297,7.03824263 36.9982411,5.07110316 C36.9467525,3.1039637 35.3391108,2.01310428 34.1393782,1.44510004" id="Fill-149" fill="#EEA886"></path><path d="M28.1456229,13.5168519 C28.1456229,13.5168519 28.3489355,14.7870504 28.012285,15.4119726 C27.6761855,16.0374449 34.3480369,16.0533981 34.3480369,16.0533981 C34.3480369,16.0533981 34.890204,12.6515327 35.9166851,9.77722053 C36.9431661,6.90290836 28.1456229,13.5168519 28.1456229,13.5168519" id="Fill-150" fill="#EEA886"></path><path d="M36.2693607,9.60223372 C36.2693607,9.60223372 35.8459638,10.2453228 34.1184438,9.99593205 C32.3904173,9.74654135 30.282549,7.62938379 29.5613563,7.39694197 C28.839657,7.16450015 28.8330731,6.7741916 28.8330731,6.7741916 L28.3813147,7.3819301 L27.6150474,7.42648145 C27.6150474,7.42648145 28.3139561,5.53304914 27.2595156,4.76066435 C26.205075,3.98827955 28.3534597,-1.36902011 33.8950968,0.414970849 C33.8950968,0.414970849 38.1508432,1.4948568 37.9958678,3.72436124 C37.8419053,5.95338143 37.2214972,8.49232404 36.2693607,9.60223372" id="Fill-151" fill="#121731"></path><path d="M27,15.7989293 C27,15.7989293 27.0223546,13.9322091 27.6235753,13.7535263 C28.2253842,13.5739844 34.2617104,12.7587439 35,13.1659346 L35,15.3393364 C35,15.3393364 33.5781307,16.5712171 27,15.7989293" id="Fill-152" fill="#E2D2CA"></path><path d="M27.1553262,7.11149071 C27.2658165,6.62425711 28.4453431,5.23378193 28.8965598,6.72258627 C29.3477764,8.21202092 28.2145284,10.2145321 27.5816681,10.0430864 C26.9499648,9.87164067 26.874762,8.34501742 27.1553262,7.11149071" id="Fill-153" fill="#EEA886"></path><path d="M27.5766211,15.3318872 C27.5766211,15.3318872 24.6832764,16.3453797 21.3322216,17.7341818 C21.3322216,17.7341818 17.4771714,19.1370385 17.059061,23.2873082 C16.8379202,25.4902357 14.4315995,37.1820965 13.9805751,38.171644 C13.5295507,39.1606711 8.19388566,55.053294 8.00565882,55.3833166 C7.81794627,55.7128188 12.3605901,57.551368 12.6614444,57.4045755 C12.9617845,57.2577831 17.8273968,42.9090834 18.3159637,41.8466602 C18.3159637,41.8466602 21.1167379,33.2431663 21.1918229,31.9605545 C21.1918229,31.9605545 21.272565,35.61579 21.422735,36.6417754 C21.5734194,37.6677608 18.9320723,57.589888 19.0071573,58.1395788 C19.0822423,58.6892695 31.0094466,59.3873144 35.7835168,58.874582 C40.5570728,58.361329 44.4090373,57.2910977 44.4090373,57.2910977 C44.4090373,57.2910977 40.6527291,41.5686915 40.767928,39.8254013 C41.0194114,36.0275376 42.3215708,28.8737491 42.3215708,28.8737491 L46.2136492,36.0275376 L41.2307809,48.5225925 L42.3724846,52.3204562 C42.3724846,52.3204562 51.6305706,38.6822943 51.931425,37.4361203 C52.2317651,36.1904668 51.4773149,34.6038593 50.988748,33.5773533 C50.5001811,32.5518885 47.2910678,24.7427395 46.539189,23.6433579 C45.7873103,22.5439763 44.5170363,18.1422856 41.4462646,16.9174537 C38.878974,15.8930299 34.570328,15.0533981 34.570328,15.0533981 L27.5766211,15.3318872" id="Fill-154" fill="#313D75"></path><polyline id="Fill-155" fill="#C4C4C4" points="22.0544444 63.0533981 0 57.4086713 3.9450356 42.0533981 26 47.6975859 22.0544444 63.0533981"></polyline><path d="M6.82854224,59.0533981 C6.82854224,59.0533981 6.24938692,60.2974964 6.03769896,60.6523877 C5.82648885,61.0066193 6.55760077,61.2302404 6.87059312,60.8707316 C7.18454118,60.5112228 6.82854224,59.0533981 6.82854224,59.0533981" id="Fill-156" fill="#C98462"></path><path d="M10.4439561,61.9687011 C10.4439561,61.9687011 10.8003628,61.5404933 10.8770202,61.2657266 C10.8770202,61.2657266 10.9830462,60.7548508 11.0776234,60.395632 C11.1079876,60.282038 11.1363608,60.1845018 11.1607518,60.1226495 C11.2618,59.867509 11.5505094,59.3399808 11.6435933,58.6471167 C11.7366772,57.9548473 12,54.846772 12,54.846772 L10.3643122,54.3727697 L9.05068458,54.0533981 C9.05068458,54.0533981 6.2128707,57.3113461 6.0610494,57.9447369 C6.04661393,58.0071838 6.03416956,58.0684413 6.02670294,58.1279147 C5.94357456,58.6792323 6.08245372,59.1288505 6.06752047,59.4244329 C6.06254273,59.5320796 6.07598264,60.6133044 6.29500354,60.8143242 C6.59864614,61.0962277 6.90776426,61.1491589 7.16212716,61.0551911 C7.16212716,61.0551911 7.77687898,61.5755826 8.29008475,61.5440617 C8.29008475,61.5440617 8.84460583,62.0454217 9.47329535,61.7968233 C9.47329535,61.7968233 10.0850605,62.2321679 10.4439561,61.9687011" id="Fill-157" fill="#DE9D7D"></path><path d="M17,45.6179423 C17,45.6179423 13.228538,55.9668436 12.5360762,57.0533981 C12.5360762,57.0533981 9.76973611,56.5268552 8,55.2229898 L12.1412426,44.0533981 L17,45.6179423" id="Fill-158" fill="#313D75"></path></g></g></g></g></svg>