<svg xmlns="http://www.w3.org/2000/svg" xmlns:xlink="http://www.w3.org/1999/xlink" width="273px" height="179px" viewBox="0 0 273 179"><title>building-the-marketing-department-illustration</title><desc>Created with Sketch.</desc><defs><linearGradient x1="55.2426267%" y1="23.4893126%" x2="50%" y2="76.5106874%" id="linearGradient-1"><stop stop-color="#EDF3FB" offset="0%"></stop><stop stop-color="#FFFFFF" offset="100%"></stop></linearGradient></defs><g id="Welcome" stroke="none" strokeWidth="1" fill="none" fillRule="evenodd"><g id="Home-page-v2" transform="translate(-429.000000, -9308.000000)"><g id="building-the-marketing-department-illustration" transform="translate(429.000000, 9308.000000)"><g id="Group-147"><path d="M125.024336,38.7438839 C137.901121,54.6428953 157.855213,49.1496142 178.170775,43.6562469 C198.474023,38.166243 219.138743,32.6763253 233.462863,48.5398054 C253.019987,70.1983232 244.061436,125.883154 217.245908,150.002122 C180.795971,182.784842 45.0065177,183.76885 22.4762726,172.519598 C-16.0238376,153.296521 12.8041719,121.176966 4.25912748,83.5734109 C-5.39518685,41.088372 7.45615741,16.1644005 23.9625068,8.86903138 C61.3140941,-7.63935755 99.2772852,6.95560646 125.024336,38.7438839 Z" id="Fill-3" fill="url(#linearGradient-1)"></path><path d="M211.442542,167.682526 C195.154021,166.618634 139.744272,168.420169 122.892206,169.123248 C106.04014,169.825484 86.4788953,168.195926 76.3180538,165.800062 C66.1572123,163.403355 7.42261327,166.004073 10.0879331,172.446434 C12.753316,178.888796 36.2567857,175.328721 62.9103624,177.917637 C89.5635605,180.507396 149.50754,177.593917 163.029455,177.917637 C176.550739,178.241357 188.949982,177.270197 206.375058,175.975318 C223.800135,174.681282 220.883965,168.298774 211.442542,167.682526" id="Fill-4" fill="#F0F4F9"></path><path d="M189.617229,33.5157834 L191,33.0622413 L191,52.0337891 C190.539076,52.121649 190.076446,52.208136 189.617229,52.2921348 L189.617229,33.5157834 Z M189.617229,6.96855518 L189.617229,1.94492857 L65.4307386,1.94492857 L65.4307386,7.30394982 C64.3048899,7.26714135 63.1722127,7.24852262 62.0412426,7.24852262 C61.0280641,7.24852262 60.0165927,7.26328032 59,7.29313894 L59,2 C59,0.8954305 59.8954305,2.02906125e-16 61,0 L189,0 C190.104569,-2.02906125e-16 191,0.8954305 191,2 L191,7.50480908 L191,7.50480908 L189.617229,6.96855518 Z" id="Fill-9" fill="#CEE3FF"></path><path d="M59,77.4438202 L59,7.08391417 L59,7.08391417 C60.0165927,7.05407429 61.0280641,7.03932584 62.0412426,7.03932584 C63.1722127,7.03932584 64.3048899,7.05793289 65.4307386,7.09471826 L65.4307386,74.8580825 L189.617229,74.8580825 L189.617229,52.0546698 C190.076446,51.9707237 190.539076,51.884291 191,51.7964863 L191,77.4438202 C191,78.5483897 190.104569,79.4438202 189,79.4438202 L61,79.4438202 C59.8954305,79.4438202 59,78.5483897 59,77.4438202 Z" id="Fill-10" fill="#C2DDFF"></path><polyline id="Fill-11" fill="#CEE3FF" points="190 34.1910112 190 7.03932584 191 7.58778978 191 33.7271424 190 34.1910112"></polyline><path d="M64,75.4213483 L188,75.4213483 C189.104569,75.4213483 190,74.5259178 190,73.4213483 L190,4.01123596 C190,2.90666646 189.104569,2.01123596 188,2.01123596 L64,2.01123596 C62.8954305,2.01123596 62,2.90666646 62,4.01123596 L62,73.4213483 C62,74.5259178 62.8954305,75.4213483 64,75.4213483 Z" id="Fill-12" fill="#FFFFFF"></path><g id="Group-13" transform="translate(135.000000, 53.960674)"><g id="Group-42" transform="translate(0.000000, 0.039326)"><path d="M27.480611,3.37118331 C32.7031927,-1.54752981 41.6284296,-1.43574088 41.4401335,6.05411774 C41.2518373,13.5439764 41.8769805,14.247874 44.0258161,18.176957 C51.4823432,31.8099156 35.1382383,31.0080164 28.3219181,31.4551721 C21.5055979,31.9023278 22.0704863,19.1955032 23.2755816,12.1528003 C24.4806769,5.11009745 25.9523995,4.81042858 27.480611,3.37118331" id="Fill-13" fill="#303C60"></path><path d="M22.5073549,111.649499 C21.1663603,112.813686 15.8471354,112.739337 16.4735724,114.749968 C16.6061818,115.13803 18.6174427,115.312658 22.5073549,115.273852 C24.3868763,115.273367 26.006571,115.273367 27.3664388,115.273852 C28.7044534,115.27458 28.8904373,113.194322 28.2944397,111.881701 C27.6984421,110.568352 27.4898429,109.842918 28.0284758,108.665634 C28.5671086,107.488349 23.995062,106.637037 23.995062,106.637037 C24.6193695,109.113118 24.1560332,110.217549 22.5073549,111.649499 Z" id="Fill-25" fill="#303C60"></path><path d="M48.051249,112.422848 C50.54654,114.475015 52.22223,116.431071 51.8288526,116.966932 C50.54654,118.713706 46.6679687,116.665095 44.5966227,115.591281 C42.5252767,114.517468 44.2177734,110.848107 43.6936225,106.703898 C43.3878118,104.286 47.6538812,104.947096 47.6538812,104.947096 L47.8104426,106.703898 C47.7105415,109.293293 47.4048739,111.22233 48.051249,112.422848 Z" id="Fill-26" fill="#303C60"></path><path d="M25.089116,77.3371816 C24.7512928,83.9791266 22.7441813,111.204479 22.7441813,111.515612 C22.7441813,111.826746 27.597154,111.570348 27.9349772,111.007407 C28.2728004,110.444467 40.7333333,61.8953537 40.7333333,61.8953537 L39.0517245,48.2909629 L30.1279368,46.3259259 C28.4590902,60.3371349 25.4269392,70.694486 25.089116,77.3371816 Z" id="Fill-14" fill="#4476BD"></path><path d="M49.3656709,59.8038184 C49.1001188,72.1233341 48.2466309,112.207994 48.2466309,112.498626 C48.2466309,112.789257 44.9331401,112.278291 43.594222,111.609507 C43.7057985,110.397335 35.376952,62.9387452 34.1496104,55.88516 C32.9222688,48.8323212 32.6991158,47.3768195 33.1454218,47.3768195 C33.5917278,47.3768195 43.9675993,44.5777778 43.9675993,44.5777778 C43.9675993,44.5777778 49.5404741,51.7112289 49.3656709,59.8038184 Z" id="Fill-16" fill="#4476BD"></path><path d="M12.0520783,24.7223621 C12.0520783,24.7223621 12.3154324,20.8858606 11.8939077,19.700899 C11.4715921,18.5159373 7.83366725,17.4814815 7.83366725,17.4814815 C7.83366725,17.4814815 7.67549661,22.9638492 8.04482506,23.6362378 C8.41415351,24.3085487 10.5755554,26.2222222 10.5755554,26.2222222 L12.0520783,24.7223621" id="Fill-17" fill="#EEA886"></path><path d="M31.0484848,22.7259259 C23.265371,31.034054 20.7247002,34.52976 20.1335028,34.52976 C18.2860109,31.2956823 12.1501208,24.4557508 12.1501208,24.4557508 L9.53333333,26.1237962 C9.53333333,26.1237962 15.5798048,41.7901289 19.4225879,41.9520893 C23.265371,42.1140497 31.0758277,36.5495013 31.1748533,35.910454 C31.2738788,35.2714067 31.0484848,22.7259259 31.0484848,22.7259259" id="Fill-18" fill="#A2DFF2"></path><path d="M39.0615353,16.6074074 C39.0615353,16.6074074 46.5604733,20.3537252 48.1973086,26.985066 C49.834144,33.6161842 44.9905994,41.8094238 44.3953865,46.1815245 C43.8001737,50.5536252 30.111022,51.3225988 30.111022,46.6427603 C30.111022,42.1557214 26.6811079,32.6321649 26.8745521,30.2058567 C27.3291459,24.5141172 35.6770062,17.5412988 35.6770062,17.5412988 L39.0615353,16.6074074" id="Fill-20" fill="#A2DFF2"></path><path d="M36.5737208,7.86666667 L39.8666667,17.9344325 C39.8666667,17.9344325 36.3507411,20.6246731 30.3333333,27.0962963 C30.5669674,22.7898287 34.2061787,18.0953006 34.2061787,18.0953006 L31.7153508,8.58808337 L36.5737208,7.86666667" id="Fill-21" fill="#EEA886"></path><path d="M38.1333333,12.6236682 L36.6762358,7.86666667 L32.0666667,8.59746061 L34.4299373,18.2282562 C34.4299373,18.2282562 34.1988812,18.6175391 33.8587955,19.2296296 C36.0848766,17.4802644 37.4509958,15.3031696 38.1333333,12.6236682" id="Fill-22" fill="#EEA886"></path><path d="M35.5333333,15.7333333 C32.9333333,16.6074074 28.6,17.9185185 27.7333333,17.0444444 C26.8666667,16.1703704 26,12.237037 26.4043528,8.13091444 C26.8087056,4.02479185 29.9919787,2.96530552 32.4341808,3.61922977 C34.8763828,4.27307993 36.1366533,7.35312463 35.2490639,10.4988062" id="Fill-23" fill="#EEA886"></path><path d="M29.6778566,42.6536762 C30.7137527,49.3290933 26.8666667,63.6099299 26.8666667,63.6099299 C26.8666667,63.6099299 29.1610176,64.1399635 36.037416,63.4633248 C42.9138143,62.7866861 45.9453448,55.8082852 46.9805015,55.6135636 C48.0156583,55.418842 48.5472852,62.1077919 49.0574696,62.6363219 C49.5683934,63.1648519 49.6460301,54.1896149 48.3114173,50.660568 C45.9453448,44.4061706 46.4082077,41.7529949 47.2925273,37.9638179 C48.8652262,31.2252479 29.6778566,42.6536762 29.6778566,42.6536762" id="Fill-24" fill="#A2DFF2"></path><path d="M48.5333333,53.1330557 C48.3855354,52.2980534 48.2026171,51.5459483 47.9801885,50.9498411 C45.638835,44.6805408 46.0968622,42.0210432 46.9719432,38.2228375 C47.0414521,37.9228998 47.0692557,37.6598891 47.0604756,37.4292838 C47.2580273,36.75254 47.4424089,36.0659992 47.6041086,35.3749368 L46.8095117,27.9863716 L41.0797805,20.9777778 C36.7855917,27.4588431 39.6837484,35.5226448 39.0391445,39.968957 C38.3952723,44.4152693 31.2,50.0846942 31.2,50.0846942 L31.4341354,51.6620046 C31.7553398,53.8256254 33.7030533,55.3290818 35.8080765,55.0283905 C38.7735472,54.6041068 42.6638525,53.752525 44.3949909,52.0983461 C46.0697903,50.4969201 47.5536232,51.7358586 48.5333333,53.1330557" id="Fill-27" fill="#96CFE0"></path><path d="M32.8994495,49.8222222 C32.8994495,49.8222222 29.8755382,50.7347145 29.5140063,50.9382415 C29.1524744,51.1425196 28.9525521,52.2202368 28.9525521,52.2202368 C28.9525521,52.2202368 27.2215178,53.8409432 27.8846746,54.4147244 C28.5478314,54.9885055 29.73204,56.4409829 31.2979816,55.7650627 C32.2585837,55.3504983 33.0039385,51.5435656 33.6336589,51.5127737 C34.2640758,51.4827328 32.8994495,49.8222222 32.8994495,49.8222222" id="Fill-28" fill="#EEA886"></path><path d="M42.0333333,20.1056674 C45.5044828,20.2038411 48.6521264,26.446528 49.748908,31.8622726 C50.8456897,37.278987 52,44.9784649 52,44.9784649 C52,44.9784649 46.2471264,49.5119139 40.5629885,50.836812 C35.6035632,51.9931137 33.0722989,52.4444444 33.0722989,52.4444444 L32.0666667,49.6178461 L43.9310345,42.6598933 C43.9310345,42.6598933 39.5685632,34.4538806 39.1344828,28.2619218 C38.7011494,22.0701122 39.3952299,20.0310673 42.0333333,20.1056674" id="Fill-29" fill="#A2DFF2"></path><polyline id="Fill-30" fill="#F5DC95" points="9.53333333 21.9211305 1.07694468 23.6 0 18.2862769 8.45638865 16.6074074 9.53333333 21.9211305"></polyline><path d="M9.5254585,24.4740741 C9.63298098,22.2535968 8.61388426,19.2253281 8.02825867,19.2296296 C7.44195684,19.2340133 8.20813905,21.21408 7.89301027,22.5277991 C7.72192104,23.239689 9.5254585,24.4740741 9.5254585,24.4740741" id="Fill-31" fill="#F09959"></path><path d="M26.8666667,4.55561636 C27.061873,10.6890643 34.4259947,10.2188968 36.4438836,9.84058422 C38.4617725,9.46234524 33.9871587,22.7804201 37.8307566,23.5488215 C40.6529259,24.1131255 40.0173704,19.8185417 43.1527778,20.1057354 C44.5396508,20.2327719 45.9333333,22.318496 45.9333333,22.318496 C45.9333333,22.318496 45.7252646,21.0336317 44.6660053,20.1057354 C43.606746,19.1777656 40.8292169,13.4859277 40.0990847,9.41332653 C39.369709,5.34065176 34.4259947,2.70652162 32.9634603,2.62519177 C31.5009259,2.54378833 27.9191164,4.16302505 27.9191164,4.16302505 L26.8666667,4.55561636" id="Fill-32" fill="#303C60"></path><path d="M36.853547,10.6938458 C36.3285063,11.3250578 35.5057384,11.549338 35.0159044,11.1947454 C34.5260705,10.8402242 34.5551544,10.0410698 35.0801951,9.40985787 C35.6044705,8.7786459 36.4272384,8.55436572 36.9170724,8.90895833 C37.4069063,9.26347953 37.3785878,10.0626339 36.853547,10.6938458" id="Fill-35" fill="#EEA886"></path></g></g><path d="M118.128077,75.1093989 C120.176643,79.2448566 118.480714,84.0068987 114.450833,85.6891041 C110.395087,87.3826227 105.959976,86.4209896 103.911411,82.2855319 C101.862845,78.1509445 103.38375,73.1922243 107.310167,71.2106509 C111.235723,69.2287293 116.078649,70.9748114 118.128077,75.1093989" id="Fill-36" fill="#303C60"></path><path d="M113.17326,92.5168539 C115.444353,93.013175 118.310715,99.1680471 119.71451,103.111588 C121.13006,107.088708 123.530449,112.022434 125.102163,113.554805 C126.673036,115.087994 137,118.641686 137,118.641686 C137,118.641686 111.485683,118.690007 112.007909,118.640867 C112.530974,118.591726 113.17326,92.5168539 113.17326,92.5168539" id="Fill-38" fill="#A8CEFF"></path><path d="M104.493908,90.505618 C104.493908,90.505618 97.0290364,94.6253233 95.2892867,95.5022393 C93.5495369,96.3782981 100.164057,122.098597 101.635685,123.200957 C103.106446,124.303317 116.058688,123.390398 117.53292,122.001733 C119.008019,120.613069 116.401432,116.351068 117.677827,107.817638 C118.953354,99.2833504 113.785299,91.9165699 113.121505,91.9328567 C112.45771,91.9491435 108.124388,90.505618 108.124388,90.505618 L104.493908,90.505618" id="Fill-40" fill="#A8CEFF"></path><path d="M152.853218,102.573034 L135.090653,102.573034 L127,119.668539 L146.566776,119.668539 L153.889953,104.193513 C154.246679,103.439049 153.692725,102.573034 152.853218,102.573034" id="Fill-42" fill="#75A1DE"></path><path d="M127.817663,119.668539 L117.193273,119.668539 C116.534416,119.668539 116,119.144334 116,118.498064 C116,117.851795 116.534416,117.327589 117.193273,117.327589 L127.056526,117.327589 L133.724364,103.250952 C134.002226,102.664042 134.712224,102.409882 135.309713,102.682436 C135.907201,102.954989 136.166312,103.650586 135.88845,104.23666 L128.89928,118.991336 C128.704095,119.404346 128.282188,119.668539 127.817663,119.668539" id="Fill-43" fill="#3E6BAB"></path><path d="M109.329622,116.651685 C114.098785,117.411327 115.270792,118.344708 117.87055,118.701965 C120.816884,119.107358 120.466781,119.662423 118.277975,119.662423 C116.090051,119.662423 110.589817,119.735378 108.702611,119.377369 C106.814523,119.020112 109.329622,116.651685 109.329622,116.651685" id="Fill-44" fill="#EEA886"></path><path d="M94.9870135,95.9813702 C91.3825048,107.35576 86.2723482,120.262473 87.086494,120.262473 C87.9006398,120.262473 108.598731,121.088297 109.412877,120.400682 C110.227023,119.713068 109.993913,117.073352 109.878227,116.729115 C109.761672,116.384879 98.1105152,114.344356 98.1105152,114.344356 C98.1105152,114.344356 99.6448669,111.393024 100.226772,105.625994 C100.807808,99.858964 95.6706873,93.8240991 94.9870135,95.9813702" id="Fill-45" fill="#A8CEFF"></path><path d="M107.054679,80.4494382 L104,90.7373545 C104,90.7373545 109.16129,98.1629716 110.580645,97.503479 C112,96.843143 109.787234,91.4676878 109.787234,90.7373545 C109.787234,90.0070212 112,82.4692398 112,82.4692398 L107.054679,80.4494382" id="Fill-46" fill="#EEA886"></path><path d="M117.326172,86.4831461 C116.970828,87.605461 116,91.0840447 114.013916,90.505618 C111.965055,89.908908 109.5,88.1106465 109,87.7055513 C106.412542,85.609218 107.376757,76.7379127 110.194401,75.7092242 C113.011148,74.6813965 117.09144,76.4658913 117.772983,80.1037471 C118.343327,83.148493 117.772983,85.0719419 117.326172,86.4831461 Z" id="Fill-48" fill="#EEA886"></path><path d="M108.850602,81.9504172 C109.210435,83.023911 108.898034,84.1234606 108.152198,84.4057304 C107.406362,84.6871317 106.509232,84.0452935 106.149398,82.9709311 C105.789565,81.8974373 106.101966,80.7978878 106.847802,80.5156179 C107.593638,80.2342166 108.490768,80.8760548 108.850602,81.9504172" id="Fill-49" fill="#EEA886"></path><path d="M118,75.9236313 C117.106911,83.3816257 108.689336,82.4202893 108.689336,82.4202893 C108.689336,82.4202893 106.953237,79.9639398 106.171992,81.2523104 C105.390748,82.5406809 107.255385,73.6909948 112.085579,73.4124767 C113.673108,73.3208353 118,75.9236313 118,75.9236313" id="Fill-50" fill="#303C60"></path><path d="M109,72.9071709 C109,75.4069651 106.984989,77.4325843 104.499588,77.4325843 C102.015011,77.4325843 100,75.4069651 100,72.9071709 C100,70.4082597 102.015011,68.3820225 104.499588,68.3820225 C106.984989,68.3820225 109,70.4082597 109,72.9071709" id="Fill-51" fill="#303C60"></path><polyline id="Fill-52" fill="#2E5B9A" points="95 171.960674 96.0726785 171.960674 103 139.780899 100.639936 139.780899 95 171.960674"></polyline><polyline id="Fill-53" fill="#2E5B9A" points="128 171.960674 126.943118 171.960674 119 138.775281 121.32531 138.775281 128 171.960674"></polyline><path d="M107.726018,140.786517 C103.394475,140.786517 100.650472,139.996992 98.8993304,138.264082 C96.7292309,136.116188 96.2799761,132.789282 96.2730512,128.454808 C96.2678575,125.043499 96.1882208,122.821751 96.0064415,121.025539 C95.9380578,120.349431 96.4219372,119.744539 97.087596,119.675082 C97.7532547,119.605625 98.3487986,120.0971 98.4171823,120.773207 C98.6076178,122.656461 98.6915826,124.952061 98.6967763,128.450412 C98.7037012,132.843792 99.2525018,135.176319 100.590744,136.5004 C101.964477,137.859648 104.447064,138.419701 108.639243,138.313317 C112.687729,138.21133 115.475013,137.636331 117.713496,137.17387 C120.659188,136.56634 122.786872,136.126738 125.310143,137.351469 C125.914343,137.645123 126.1697,138.379258 125.88145,138.992942 C125.592334,139.606626 124.868679,139.865991 124.265344,139.572337 C122.474385,138.703684 120.954363,139.017559 118.19651,139.586404 C115.863675,140.068208 112.961264,140.666945 108.69897,140.774208 C108.366574,140.782121 108.041968,140.786517 107.726018,140.786517" id="Fill-54" fill="#2E5B9A"></path><path d="M97.0009409,119.668539 L104,119.937547 L102.136935,137.769663 C102.136935,137.769663 96.9196202,134.696731 97.0009409,131.389365 C97.0831752,128.082842 97.0009409,119.668539 97.0009409,119.668539" id="Fill-55" fill="#2E5B9A"></path><path d="M129.918948,122.02811 C135.488357,121.182138 137.381234,121.448925 140.790304,127.797587 C144.198513,134.145388 148.735913,145.575044 151.345176,147.051838 C155.27455,149.274773 156.576602,154.724966 158.189976,154.480555 C159.80335,154.235283 160.842239,154.948723 159.086104,156.409164 C157.330828,157.868745 154.495384,159.112316 153.526155,158.853274 C152.556927,158.594233 151.80442,154.40224 149.272558,153.041628 C146.740696,151.680156 147.501802,150.562234 147.667784,149.358251 C147.833765,148.154269 140.276879,142.611991 134.579329,135.718568 C131.098879,131.505921 129.305763,128.726176 129.040021,126.206333 C128.774278,123.68649 129.918948,122.02811 129.918948,122.02811" id="Fill-56" fill="#EEA886"></path><path d="M144,144.808989 C142.682515,141.55842 141.36065,136.193617 140.1185,131.275172 C138.351634,124.279974 136.499796,122.619765 135.326849,121.873565 C133.908626,121.527723 132.228482,121.686163 129.936023,122.024338 C129.936023,122.024338 128.770084,123.665808 129.040764,126.159955 C129.311444,128.654103 131.137878,131.405502 134.682999,135.575191 C137.738443,139.167343 141.318603,142.38895 144,144.808989" id="Fill-57" fill="#EEA886"></path><path d="M131,126.730515 C131,126.730515 129.627548,138.147764 128.349088,139.308632 C127.435447,140.138451 126.787854,140.193772 126.148226,136.788443 C125.509394,133.383113 127.142318,120.674157 127.142318,120.674157 L131,126.730515" id="Fill-58" fill="#2E5B9A"></path><polyline id="Fill-59" fill="#EEA886" points="130.579564 133.49779 117 135.758427 124.666817 124.867723 130.501227 123.691011 134 124.488139 130.579564 133.49779"></polyline><path d="M147.266448,148.831461 C146.844072,150.561386 146.894725,151.839737 147.629185,152.480573 C148.362828,153.120579 151.135641,157.882022 151.135641,157.882022 L152,157.748377 L149.999229,153.392021 L147.266448,148.831461" id="Fill-60" fill="#303C60"></path><path d="M159.086104,156.409164 C160.902527,154.881372 159.796599,154.020733 158.127838,154.277315 C158.034437,154.29172 157.941036,154.285418 157.848525,154.262911 C157.015034,156.147218 154.273498,157.560673 153.389304,155.570132 C152.512226,153.597596 148.756624,149.671431 147.243531,148.831461 C147.247089,148.862071 147.247978,148.89178 147.24442,148.918789 C147.07274,150.178295 146.285505,151.347771 148.904286,152.77203 C151.523067,154.195389 152.301407,158.580702 153.303909,158.851689 C154.844909,159.270433 157.27057,157.936056 159.086104,156.409164 Z" id="Fill-61" fill="#303C60"></path><path d="M102.295443,122.145813 C97.5292134,130.66425 100.785042,136.077827 106.578142,136.62984 C112.371242,137.181013 121.516202,136.128163 126.846831,131.716261 C132.178303,127.305197 136.553664,122.639939 135.942933,121.944471 C135.33136,121.248164 102.295443,122.145813 102.295443,122.145813" id="Fill-62" fill="#EEA886"></path><path d="M130.042037,129.006336 C131.002257,126.023088 132.110076,123.734158 134.254402,123.692104 C136.509013,123.649192 137.896274,124.862745 137.992462,128.680204 C138.106893,133.22631 138.261954,148.281583 138.058799,154.975868 C137.905396,160.043784 139.332459,161.665861 139.211395,166.948338 C139.121011,170.927146 143.218947,168.917144 141.635993,170.981215 C140.547245,172.399888 137.306709,171.93558 135.316615,171.673816 C133.542944,171.440374 136.234546,165.939046 133.780097,164.46802 C131.673914,163.206404 131.632454,161.156923 132.9625,159.606081 C134.292546,158.05438 133.110098,153.465362 132.223677,150.252106 C131.336427,147.039708 129.960775,143.563829 129.05777,135.967533 C128.799887,133.801331 129.454959,130.828383 130.042037,129.006336" id="Fill-63" fill="#EEA886"></path><path d="M140.211403,169.438645 C139.528959,169.646442 138.687361,169.87585 137.954921,169.899955 C136.469209,169.948995 136.023412,168.319032 135.925087,166.105573 C135.838427,164.172225 134.431042,161.127576 132.986994,159.893258 C132.960329,159.928168 132.933665,159.963078 132.9045,159.995495 C131.567943,161.497455 131.609606,163.482337 133.7261,164.704186 C136.192565,166.128846 133.487786,171.456774 135.27014,171.682858 C137.269977,171.93637 140.526377,172.386044 141.620454,171.012087 C142.654536,169.712937 141.371308,169.60987 140.211403,169.438645" id="Fill-64" fill="#303C60"></path><path d="M133.341189,158.88764 C133.341189,158.88764 130.780787,161.294618 131.015162,162.29553 C131.249537,163.296443 132.038338,165.824877 132.170297,167.774395 C132.302256,169.723028 132.419444,171.960674 132.419444,171.960674 C132.419444,171.960674 133.341189,171.960674 133.414062,171.724852 C133.48792,171.489917 134,163.802661 134,163.802661 L133.341189,158.88764" id="Fill-65" fill="#303C60"></path><path d="M100.069483,121.679775 C100.069483,121.679775 97.2220282,133.605684 100.819528,136.911413 C104.417027,140.217141 119.356832,137.243828 122.875424,137.045384 C125.257919,136.911413 127.564052,139.780899 127.564052,139.780899 C127.564052,139.780899 125.900208,133.126739 127.034608,127.753674 C128.169009,122.38061 130,122.018889 130,122.018889 L127.564052,121.679775 L100.069483,121.679775" id="Fill-66" fill="#75A1DE"></path><path d="M99.6145834,117.657303 C100.826261,120.294498 98.3100243,124.84918 99.1915516,126.161282 C100.073923,127.473384 105.12244,126.34489 108.430701,123.614159 C111.738961,120.882562 118,120.282373 118,120.282373 L99.6145834,117.657303" id="Fill-67" fill="#A8CEFF"></path><path d="M104.57819,140.596658 C114.527234,141.019117 125,140.819754 125,139.142259 C125,137.465714 124.550975,136.28093 116.846216,136.957814 C109.141456,137.634698 103.905073,138.566006 101.586091,137.973614 C99.2671095,137.381222 104.57819,140.596658 104.57819,140.596658" id="Fill-68" fill="#2E5B9A"></path><path d="M69.1037181,122.685393 C68.4941511,122.685393 68,122.145033 68,121.478465 L68,120.875468 C68,120.208899 68.4941511,119.668539 69.1037181,119.668539 L201.896282,119.668539 C202.505849,119.668539 203,120.208899 203,120.875468 L203,121.478465 C203,122.145033 202.505849,122.685393 201.896282,122.685393 L69.1037181,122.685393 Z" id="Fill-69" fill="#2E5B9A"></path><path d="M35,95.5337079 C27.5134405,99.7318232 17.1003341,117.180267 19.2985979,120.02823 C21.4969482,122.875345 33.2985092,115.387985 33.2985092,115.387985 L35,95.5337079" id="Fill-93" fill="#21407E"></path><path d="M49,73.9964992 C46.1241597,73.9167042 47.1913365,71.7400737 43.8843769,72.6089526 C42.1457964,73.066444 43.4292293,73.7943518 41.1706416,73.5576266 C38.9118799,73.3200148 37.8004768,73.0832896 37.5157918,74.5843224 C37.2310198,76.0862418 37.0933786,76.5605788 36.0070487,76.797304 C34.9207188,77.0340292 34.4301379,79.0102856 36.0070487,80.3535016 C37.5840466,81.6967176 36.8173996,82.249963 36.4682035,83.3564538 C36.1190944,84.4629446 37.3092864,84.541853 37.9557041,85.5685488 C38.6021217,86.5961312 37.3605646,86.790299 38.2917542,87.6813433 C39.2228568,88.5715009 40.5289252,88.4925925 40.5289252,88.4925925 L44.4488715,80.8384779 L49,73.9964992" id="Fill-94" fill="#303C60"></path><path d="M105.739009,163.161733 C105.739009,163.161733 109.872177,163.281906 113.086482,161.962691 C116.300786,160.643476 118.482013,158.605912 117.908368,161.003099 C117.334722,163.401183 114.694063,167.514873 112.397764,167.91575 C110.101464,168.316626 109.297673,170.955056 108.035309,170.955056 C106.772087,170.955056 104.935219,167.91575 101.720914,166.397442 C98.7908562,165.013656 105.739009,163.161733 105.739009,163.161733" id="Fill-95" fill="#303C60"></path><path d="M74.1268107,163.64096 C74.1268107,163.64096 75.851997,166.037581 78.8525434,167.70517 C81.9519152,169.426856 85.5283756,170.255498 83.3107657,171.034336 C81.0940077,171.813173 77.8515093,172.418554 74.6899456,171.492879 C72.4714837,170.843705 69.871351,170.708031 69.1846842,169.651834 C68.4980174,168.595638 69.993179,165.943125 69.3712599,161.979382 C68.8728727,158.803064 74.1268107,163.64096 74.1268107,163.64096" id="Fill-96" fill="#303C60"></path><path d="M54.013994,124.696629 C54.013994,124.696629 77.9645243,133.662383 79.8948964,136.169427 C81.8244093,138.675612 107,161.507836 107,163.191223 C107,164.875469 102.712289,167.938202 102.712289,167.938202 C102.712289,167.938202 81.1199567,154.694413 75.7601031,147.958289 C70.3993903,141.221305 57.3180486,137.973914 50.3638984,137.350374 C43.4094046,136.725975 54.013994,124.696629 54.013994,124.696629" id="Fill-97" fill="#3E6BAB"></path><path d="M55.4531639,124.967777 C55.4531639,124.967777 71.7082358,124.357694 75.2023007,124.967777 C78.6963657,125.57786 86.3602988,125.571015 81.347594,139.775765 C77.4180492,150.909565 76.1218364,165.005646 76.1218364,165.005646 L68.3087663,166.932584 C68.3087663,166.932584 68.6189711,141.585478 72.3465418,134.836917 C69.6322499,135.286136 64.6493724,136.162328 57.7430548,138.14574 C44.9318526,141.824206 37.9075038,139.981978 37.9075038,139.981978 L36,133.27021 L55.4531639,124.967777" id="Fill-98" fill="#4476BD"></path><polyline id="Fill-99" fill="#EEA886" points="42.0418889 82.4606742 38 94.230969 43.1062833 97.5449438 46 87.3747936 42.0418889 82.4606742"></polyline><path d="M51.9934394,84.4902505 C52.1205421,88.0945605 50.3912057,91.214337 47.6425259,91.4914592 C44.8939302,91.7694421 42.3854174,89.0842827 42.0397518,85.4946033 C41.6940022,81.9057846 43.6419855,78.7713774 46.3905812,78.4933946 C49.139261,78.2162724 51.7927819,78.8023601 51.9934394,84.4902505" id="Fill-101" fill="#EEA886"></path><path d="M35.7550054,93.5224719 C23.5101453,101.886173 31.1261203,115.401762 33.814912,125.278738 C36.1050884,133.690919 36.0304497,138.775281 36.3736851,138.775281 C36.7170061,138.775281 45.1382577,137.50181 49.9443242,133.103963 C54.7508186,128.706115 58,124.445917 58,124.445917 C58,124.445917 51.8423049,123.336933 49.8298838,115.280561 C48.808309,111.19091 49.2727468,108.970343 46.9438815,102.488713 C44.6149306,96.0079482 35.7550054,93.5224719 35.7550054,93.5224719" id="Fill-102" fill="#21407E"></path><path d="M36,93.7801365 L37.291691,90.505618 C37.291691,90.505618 41.3868793,93.30848 43.0210936,94.6317384 C44.6553078,95.9549967 45.6634035,96.266814 45.6634035,96.266814 C45.6634035,96.266814 46.2541148,100.960669 45.8704517,100.534431 C41.0370218,95.1671558 36,93.7801365 36,93.7801365" id="Fill-103" fill="#223765"></path><polyline id="Fill-104" fill="#2E5B9A" points="30 172.966292 31.1014775 172.966292 39 140.786517 36.5767671 140.786517 30 172.966292"></polyline><polyline id="Fill-105" fill="#2E5B9A" points="63 172.966292 61.9164382 172.966292 53 139.780899 55.3838359 139.780899 63 172.966292"></polyline><path d="M42.2119283,141.792135 C37.9957803,141.792135 35.3247191,141.014757 33.6202113,139.308506 C31.5072081,137.193657 31.0699798,133.917934 31.0636603,129.650144 C31.0503471,120.677398 30.5673653,118.822252 28.1086408,113.34338 C27.8358892,112.735674 28.0944008,112.015431 28.6860788,111.734951 C29.2777567,111.455337 29.9785522,111.720235 30.2512195,112.328806 C32.8500694,118.120187 33.40897,120.248888 33.4229572,129.646681 C33.429361,133.971606 33.963489,136.268248 35.266495,137.571958 C36.6032053,138.910295 39.0193782,139.461731 43.1009619,139.356984 C47.0418305,139.256566 49.7545164,138.690413 51.9341698,138.235067 C54.8006313,137.636884 56.8725996,137.204045 59.3287963,138.409933 C59.9169353,138.69907 60.1655041,139.42191 59.8840737,140.026153 C59.6034858,140.630396 58.8990672,140.885771 58.3117708,140.5975 C56.5684188,139.741345 55.0888026,140.050392 52.4040912,140.610485 C50.1336049,141.084876 47.3080097,141.674403 43.159186,141.780015 C42.8352882,141.788672 42.5192267,141.792135 42.2119283,141.792135" id="Fill-106" fill="#2E5B9A"></path><path d="M95.7168193,119.668539 L78.2079821,119.668539 C77.5410034,119.668539 77,119.145166 77,118.498055 C77,117.85178 77.5410034,117.32757 78.2079821,117.32757 L94.9454365,117.32757 L101.696331,103.250822 C101.977618,102.664744 102.695504,102.409746 103.300358,102.682301 C103.906075,102.954857 104.16838,103.650459 103.887092,104.237373 L96.8117688,118.99133 C96.6141774,119.404344 96.1862066,119.668539 95.7168193,119.668539" id="Fill-107" fill="#3E6BAB"></path><path d="M78.9703124,113.794634 C78.9703124,113.794634 84.1416316,111.412177 84.7042617,111.638795 C85.2660508,111.866261 91,115.360587 91,115.939439 C91,116.51829 85.9405341,113.781902 85.9405341,113.781902 C85.9405341,113.781902 86.5031642,115.294384 86.1659225,116.02007 C85.8286809,116.744908 81.9390482,116.744908 78.4303894,116.51829 C74.9225715,116.291672 78.9703124,113.794634 78.9703124,113.794634" id="Fill-109" fill="#EEA886"></path><path d="M36.8646184,99.1109501 C32.0279241,109.284131 48.619335,119.596527 58.4623423,120.513243 C68.3058616,121.430835 80,118.124704 80,118.124704 L78.6817858,114.822075 C78.6817858,114.822075 58.961472,112.181374 58.4623423,111.81101 C57.9632127,111.441522 38.6360594,95.3854241 36.8646184,99.1109501" id="Fill-110" fill="#21407E"></path><path d="M42.7703476,82.2960135 C43.2838053,83.6344903 42.9073348,85.0175184 41.9295668,85.3865195 C40.9517988,85.7555207 39.7430481,84.969093 39.2295904,83.6306162 C38.7162304,82.2921395 39.0927009,80.9091114 40.0703712,80.5401102 C41.0481393,80.1720775 42.2569877,80.9575368 42.7703476,82.2960135" id="Fill-111" fill="#EEA886"></path><path d="M52.1538656,75.5228837 C53.5154111,74.9793423 55.0491061,74.3975701 54.574391,76.6091355 C54.3683334,77.572384 54.574391,77.3006132 54.9360787,78.1898936 C55.2977664,79.0783428 54.0249039,79.7764694 53.6119192,80.2701446 C53.198065,80.7638198 54.2135728,81.3007124 53.3867338,81.8932889 C52.5599818,82.4858654 51.4702236,81.6738777 50.7001592,81.8932889 C48.4011817,82.5490293 48.6853152,80.8203348 47.3937597,80.4612983 C46.1022042,80.1014307 45.4691637,80.1571146 45.2239812,80.9474936 C44.9787987,81.7378727 46.1281135,84.3375631 45.146514,84.0907255 C44.1649144,83.8438879 43.9439023,85.9424232 43.6798529,87.1284073 C43.4158035,88.3135603 42.742334,86.3097708 42.785893,84.9542416 C42.8526662,82.8748217 42.312656,82.0013323 41.5113786,81.4195602 C40.7101012,80.837788 40.3689323,75.5478168 44.2435989,75.3500143 C48.1182654,75.1522118 48.1428706,74.7948374 49.7961138,74.460734 C51.4492701,74.1266305 51.5332582,75.7705525 52.1538656,75.5228837" id="Fill-112" fill="#303C60"></path><path d="M139,23.3157405 C139,15.4994647 132.610375,9.15141499 124.689325,9.0517396 C116.731811,8.95155174 110.12862,15.2558707 110.00187,23.0840187 C109.940231,26.9051649 111.406545,30.3889351 113.838249,32.9832284 C114.958169,34.1783081 115.579769,35.7443306 115.579769,37.3700559 L115.579769,43.7646549 C115.579769,47.9016534 119.020269,51.2865169 123.225614,51.2865169 L125.774519,51.2865169 C129.979864,51.2865169 133.420365,47.9016534 133.420365,43.7646549 L133.420365,37.3707392 C133.420365,35.7314335 134.0628,34.1627632 135.188797,32.9547009 C137.555389,30.416096 139,27.0320012 139,23.3157405" id="Fill-125" fill="#F5DC95"></path><path d="M125.599132,48.2696629 L123.401605,48.2696629 C119.776469,48.2696629 116.810764,45.3683228 116.810764,41.8223633 L116.810764,36.3412694 C116.810764,34.9477853 116.274867,33.6055305 115.308338,32.5811176 C113.212596,30.3574149 111.94854,27.371402 112.001608,24.096055 C112.110353,17.4386478 117.714656,12.0674157 124.502109,12.0674157 C124.556046,12.0674157 124.609984,12.0674157 124.663922,12.0684369 C131.492263,12.1538756 137,17.5950584 137,24.2947595 C137,27.4800725 135.755083,30.3808169 133.715019,32.5566944 C132.74414,33.5922551 132.189973,34.9367226 132.189973,36.3418651 L132.189973,41.8223633 C132.189973,45.3683228 129.224269,48.2696629 125.599132,48.2696629" id="Fill-126" fill="#FAEECA"></path><path d="M126.572727,39.2191011 L121.733794,39.2191011 C121.505924,39.2191011 121.315886,39.0482736 121.29565,38.8250705 C121.286852,38.7323727 120.383291,29.5254619 116.206852,26.9472667 C116,26.8201432 115.938511,26.5525423 116.066963,26.3496304 C116.196294,26.1467185 116.467274,26.0850645 116.673149,26.2122747 C120.748411,28.7273417 121.906236,36.4849933 122.128827,38.3519562 L126.10731,38.3519562 C126.091473,37.7115697 126.128425,36.4751078 126.503222,34.8752255 C127.003832,32.7366728 128.231161,29.5107204 131.235699,26.2865023 C131.400223,26.110125 131.678242,26.0985053 131.857722,26.2604879 C132.036323,26.4224706 132.04864,26.6967485 131.884116,26.8730391 C126.391487,32.7659823 127.002952,38.6774824 127.009111,38.736535 C127.023188,38.859236 126.983596,38.9821104 126.900015,39.0742012 C126.817313,39.1663787 126.697659,39.2191011 126.572727,39.2191011" id="Fill-127" fill="#94BDF2"></path><path d="M118.267963,23.0519009 C117.979812,23.0519009 117.730955,23.1061555 117.532743,23.2270401 C117.10401,23.4877312 116.882221,24.1141252 116.873489,25.0888248 C116.864757,26.1228008 117.086546,26.7880249 117.532743,27.065934 C118.61025,27.7365388 121.126764,26.4901179 123.541115,25.1816405 C121.589551,24.1124214 119.541064,23.0519009 118.267963,23.0519009 Z M125.395756,25.1843308 C127.792644,26.4930772 130.301299,27.7459549 131.408495,27.0757985 C131.872155,26.7953785 132.113153,26.1235182 132.126251,25.0789603 C132.139349,24.0926924 131.931531,23.4587656 131.508911,23.1946667 C130.438388,22.5254968 127.838922,23.8533444 125.395756,25.1843308 Z M130.627869,28.1573034 C129.006368,28.1573034 126.795469,26.9742841 124.467563,25.6919027 C121.46032,27.3367586 118.652163,28.8114972 117.080434,27.8328519 C116.341721,27.3729881 115.988082,26.4728102 116.000306,25.0807538 C116.011658,23.7703932 116.377521,22.8870745 117.088292,22.4553694 C118.662641,21.4976188 121.47691,23.0253565 124.469309,24.6748756 C127.520211,23.0036547 130.393856,21.4473997 131.962966,22.4287353 C132.667625,22.8692288 133.016025,23.7648332 132.999434,25.0905286 C132.982844,26.4699406 132.596024,27.3978287 131.852072,27.848366 C131.498433,28.0624251 131.08629,28.1573034 130.627869,28.1573034 L130.627869,28.1573034 Z" id="Fill-128" fill="#94BDF2"></path><path d="M126.315068,53.2977528 L123.684932,53.2977528 C122.757808,53.2977528 122,52.454405 122,51.4236466 L122,51.1493871 C122,50.1186287 122.757808,49.2752809 123.684932,49.2752809 L126.315068,49.2752809 C127.24137,49.2752809 128,50.1186287 128,51.1493871 L128,51.4236466 C128,52.454405 127.24137,53.2977528 126.315068,53.2977528" id="Fill-129" fill="#94BDF2"></path><path d="M116,39.2191011 L116,43.620763 C116,47.8369858 119.47119,51.2865169 123.714405,51.2865169 L126.285595,51.2865169 C130.52881,51.2865169 134,47.8369858 134,43.620763 L134,39.2191011 L116,39.2191011" id="Fill-130" fill="#94BDF2"></path><path d="M133.977287,40.2247191 L116.022713,40.2247191 C115.460221,40.2247191 115,39.7960026 115,39.2720159 L115,39.1661864 C115,38.6421996 115.460221,38.2134831 116.022713,38.2134831 L133.977287,38.2134831 C134.539779,38.2134831 135,38.6421996 135,39.1661864 L135,39.2720159 C135,39.7960026 134.539779,40.2247191 133.977287,40.2247191" id="Fill-131" fill="#9EC8FF"></path><path d="M134.097004,42.2090994 L116.169672,44.2400632 C115.608023,44.3036832 115.090963,43.9342312 115.022364,43.4191374 L115.007787,43.3150963 C114.938331,42.8000024 115.341347,42.3265093 115.902996,42.2628894 L133.831185,40.2318469 C134.392834,40.1682269 134.909037,40.5376789 134.978493,41.0527728 L134.992213,41.1568138 C135.061669,41.6719077 134.658653,42.1454794 134.097004,42.2090994" id="Fill-132" fill="#9EC8FF"></path><path d="M134.097004,45.225906 L116.169672,47.2569006 C115.608023,47.3206001 115.090963,46.9511425 115.022364,46.4360409 L115.007787,46.3319982 C114.938331,45.816818 115.341347,45.3433177 115.902996,45.2796968 L133.831185,43.2487022 C134.392834,43.1850812 134.909037,43.5544602 134.978493,44.0696405 L134.992213,44.1736831 C135.061669,44.6887848 134.658653,45.162285 134.097004,45.225906" id="Fill-133" fill="#9EC8FF"></path><path d="M133.16432,48.4256879 L118.104649,50.2737595 C117.584873,50.3375098 117.10661,49.9671222 117.042611,49.450676 L117.007152,49.1686969 C116.943153,48.6521648 117.315904,48.1773882 117.83568,48.1136379 L132.896216,46.2655664 C133.415992,46.201816 133.89339,46.5722036 133.958254,47.0886498 L133.992848,47.3706289 C134.056847,47.8871611 133.684096,48.3619376 133.16432,48.4256879" id="Fill-134" fill="#9EC8FF"></path><path d="M213.499577,91.008427 L223,91.008427 C223,96.2492641 218.711097,100.561798 213.499577,100.561798 C208.288056,100.561798 204,96.2492641 204,91.008427 C204,85.7675899 208.288056,81.4550562 213.499577,81.4550562 L213.499577,91.008427" id="Fill-135" fill="#9EC8FF"></path><path d="M225,89.5 C225,83.9461059 220.522986,79.4438202 215,79.4438202 L215,89.5 L225,89.5" id="Fill-136" fill="#F39892"></path><path d="M254,51.2865169 C254,56.8403709 258.477014,61.3426966 264,61.3426966 C258.514433,61.3426966 254,56.8031875 254,51.2865169" id="Fill-137" fill="#F39892"></path><path d="M264,41.2303371 C258.477014,41.2303371 254,45.7326227 254,51.2865169 C254,45.7698954 258.514433,41.2303371 264,41.2303371" id="Fill-138" fill="#F39892"></path><path d="M263,61.3426966 C268.522986,61.3426966 273,56.8403709 273,51.2865169 C273,56.8031875 268.485567,61.3426966 263,61.3426966" id="Fill-139" fill="#F39892"></path><polygon id="Fill-140" fill="#9EC8FF" points="74 52.2921348 76 52.2921348 76 46.258427 74 46.258427"></polygon><polygon id="Fill-141" fill="#9EC8FF" points="101 52.2921348 103 52.2921348 103 48.2696629 101 48.2696629"></polygon><polygon id="Fill-142" fill="#9EC8FF" points="83 52.2921348 85 52.2921348 85 38.2134831 83 38.2134831"></polygon><polygon id="Fill-143" fill="#9EC8FF" points="87 52.2921348 89 52.2921348 89 46.258427 87 46.258427"></polygon><polygon id="Fill-144" fill="#9EC8FF" points="92 52.2921348 94 52.2921348 94 44.247191 92 44.247191"></polygon><polygon id="Fill-145" fill="#9EC8FF" points="78 52.2921348 80 52.2921348 80 42.2359551 78 42.2359551"></polygon><polygon id="Fill-146" fill="#9EC8FF" points="96 52.2921348 98 52.2921348 98 40.2247191 96 40.2247191"></polygon></g><g id="Group-155" transform="translate(20.000000, 30.168539)"><path d="M24,19.8920546 L12.9912587,13.0730337 L11,25.9875543 C16.1716379,26.8132585 21.3006297,24.3587857 24,19.8920546" id="Fill-148" fill="#A2DFF2"></path><path d="M24.1013895,20.1123596 C24.1313233,20.0628289 24.1704012,19.9946041 24.1688484,19.9972248 C26.5110182,16.0242029 26.6056504,11.0897448 24.4567133,7.03932584 C20.5322785,9.12136018 22.8692724,7.85653786 13,13.2606199 C24.1080319,20.1391777 22.3829127,19.0784182 24.1013895,20.1123596" id="Fill-150" fill="#9CD499"></path><path d="M1,8.55065507 L12.8673621,13.0730337 L24,6.84734824 C18.7926034,-3.11228942 4.77565439,-1.91783812 1,8.55065507" id="Fill-151" fill="#9EC8FF"></path><path d="M10.9952884,26.1460674 L13,13.4803322 L0.816805326,9.0505618 C-2.08029741,16.7148446 3.06179269,24.9119317 10.9952884,26.1460674" id="Fill-152" fill="#F39892"></path></g><path d="M168,20.1123596 L152,20.1123596 L152,11.0617978 L164.033043,11.0617978 C165.582609,12.56533 166.451304,13.4083241 168,14.9119407 L168,20.1123596" id="Fill-168" fill="#FFB8B3"></path><polyline id="Fill-169" fill="#F39892" points="164 10.0561798 164 15.0842697 168 15.0842697 168 14.1180725 164.250612 10.0834968 164 10.0561798"></polyline><polyline id="Fill-170" fill="#FFB8B3" points="164 10.0561798 164 14.0786517 168 14.0786517 164 10.0561798"></polyline><path d="M161.706215,13.2382424 L154.293785,13.2382424 C154.132881,13.2382424 154,13.1638731 154,13.0730337 C154,12.9821435 154.132881,12.907825 154.293785,12.907825 L161.706215,12.907825 C161.868023,12.907825 162,12.9821435 162,13.0730337 C162,13.1638731 161.868023,13.2382424 161.706215,13.2382424" id="Fill-171" fill="#FFFFFF"></path><path d="M161.706215,15.2494783 L154.293785,15.2494783 C154.132881,15.2494783 154,15.175109 154,15.0842697 C154,14.9933795 154.132881,14.919061 154.293785,14.919061 L161.706215,14.919061 C161.868023,14.919061 162,14.9933795 162,15.0842697 C162,15.175109 161.868023,15.2494783 161.706215,15.2494783" id="Fill-172" fill="#FFFFFF"></path><path d="M161.706215,16.2550963 L154.293785,16.2550963 C154.132881,16.2550963 154,16.180727 154,16.0898876 C154,15.9989975 154.132881,15.924679 154.293785,15.924679 L161.706215,15.924679 C161.868023,15.924679 162,15.9989975 162,16.0898876 C162,16.180727 161.868023,16.2550963 161.706215,16.2550963" id="Fill-173" fill="#FFFFFF"></path><path d="M160,11.5646067 C160,11.8423401 159.776364,12.0674157 159.5,12.0674157 C159.224545,12.0674157 159,11.8423401 159,11.5646067 C159,11.2868733 159.224545,11.0617978 159.5,11.0617978 C159.776364,11.0617978 160,11.2868733 160,11.5646067" id="Fill-174" fill="#3E6BAB"></path><polyline id="Fill-175" fill="#FAE8B6" points="97.7325705 22.1235955 88 20.3181059 90.2674295 9.0505618 100 10.8561328 97.7325705 22.1235955"></polyline><path d="M98.679399,16.0868053 L93.2183235,15.4208995 C93.072982,15.4031774 92.9769847,15.3136049 93.004797,15.2218808 C93.0326093,15.1301566 93.1752594,15.06963 93.320601,15.087352 L98.7816765,15.7532578 C98.927018,15.7709799 99.0230153,15.8605524 98.995203,15.9522765 C98.9664935,16.0440007 98.8247406,16.1045273 98.679399,16.0868053" id="Fill-176" fill="#9EC8FF"></path><path d="M97.679399,17.0924256 L92.2183235,16.4264978 C92.072982,16.4087767 91.9769847,16.3192655 92.004797,16.2274895 C92.0326093,16.1358268 92.1743622,16.0752467 92.3197038,16.0929678 L97.7816765,16.7588955 C97.927018,16.7766166 98.0230153,16.8661279 97.995203,16.9578472 C97.9664935,17.0495666 97.8247406,17.1101466 97.679399,17.0924256" id="Fill-177" fill="#9EC8FF"></path><path d="M97.6799837,18.0980414 L92.2183772,17.432115 C92.0721242,17.414394 91.9770149,17.3248829 92.0048299,17.2331637 C92.0326449,17.1414446 92.1744116,17.0808646 92.3197673,17.0985857 L97.7822711,17.764512 C97.9276268,17.7822331 98.0236333,17.8717442 97.9949211,17.96352 C97.9671061,18.0552391 97.8253394,18.1157624 97.6799837,18.0980414" id="Fill-178" fill="#9EC8FF"></path><path d="M94.9906638,10.6543066 C94.9386847,10.9269878 94.6767901,11.1052561 94.4058991,11.0525699 C94.1340086,10.9998837 93.9570798,10.7362517 94.0090588,10.4635705 C94.0620375,10.1909899 94.3239321,10.0127216 94.5948231,10.0654078 C94.8657141,10.118094 95.0436425,10.381726 94.9906638,10.6543066" id="Fill-179" fill="#3E6BAB"></path><path d="M175.322231,32.1797753 L160,30.5882225 L161.011479,21.1179775 L173.160442,22.3799797 C174.269361,23.7306612 174.891081,24.4879645 176,25.8387311 L175.322231,32.1797753" id="Fill-180" fill="#9EC8FF"></path><polyline id="Fill-181" fill="#FFFFFF" points="173.526582 23.2565725 161.871468 22.1235955 161 29.7656 175.488927 31.1741573 176 26.6994144 173.165306 26.4238341 173.526582 23.2565725"></polyline><path d="M171.658091,26.1448364 L164.276578,25.5847348 C164.10772,25.5718881 163.983661,25.4617297 164.001753,25.3398416 C164.018983,25.2180157 164.172334,25.1288338 164.341192,25.1416805 L171.722705,25.7018441 C171.892425,25.7146287 172.015622,25.8248492 171.998392,25.9466752 C171.9803,26.0685012 171.827811,26.157683 171.658091,26.1448364" id="Fill-182" fill="#9EC8FF"></path><path d="M170.658091,27.1504551 L163.276578,26.5903257 C163.10772,26.5774798 162.983661,26.467266 163.001753,26.3455095 C163.019845,26.2236289 163.172334,26.1344525 163.341192,26.1472984 L170.723567,26.7074279 C170.892425,26.7202737 171.015622,26.8304255 170.998392,26.952244 C170.9803,27.0740626 170.827811,27.163301 170.658091,27.1504551" id="Fill-183" fill="#9EC8FF"></path><path d="M170.658808,29.1616904 L163.277295,28.6015609 C163.107575,28.5887771 162.984378,28.4785633 163.001608,28.3567447 C163.0197,28.2349262 163.172189,28.1456877 163.341909,28.1585336 L170.723422,28.7186631 C170.89228,28.7315089 171.016339,28.8416607 170.998247,28.9635413 C170.980155,29.0853598 170.827666,29.1745362 170.658808,29.1616904" id="Fill-184" fill="#9EC8FF"></path><path d="M167,23.6320225 C167,23.9097559 166.776364,24.1348315 166.5,24.1348315 C166.224545,24.1348315 166,23.9097559 166,23.6320225 C166,23.3543805 166.224545,23.1292135 166.5,23.1292135 C166.776364,23.1292135 167,23.3543805 167,23.6320225" id="Fill-185" fill="#3E6BAB"></path><path d="M207,56.3146477 C207,59.0915162 204.537327,61.3426966 201.5,61.3426966 C198.462673,61.3426966 196,59.0915162 196,56.3146477 C196,53.5376973 198.462673,51.2865169 201.5,51.2865169 C204.537327,51.2865169 207,53.5376973 207,56.3146477" id="Fill-186" fill="#9CD499"></path><path d="M200.687609,58.3258427 L200.678169,58.325695 C200.606939,58.3234051 200.540859,58.2962955 200.494517,58.2506451 L199.063923,56.8519554 C198.970381,56.7599898 198.980679,56.6200101 199.087094,56.5391985 C199.194367,56.4583131 199.356564,56.4672511 199.450964,56.5591429 L200.70134,57.78247 L203.562528,55.3722326 C203.663794,55.2866196 203.826849,55.288097 203.926398,55.3756305 C204.025948,55.4630902 204.024231,55.6033654 203.922966,55.6889784 L200.867828,58.2626117 C200.819769,58.3032391 200.754547,58.3258427 200.687609,58.3258427" id="Fill-187" fill="#FFFFFF"></path></g></g></g></svg>