<svg xmlns="http://www.w3.org/2000/svg" xmlns:xlink="http://www.w3.org/1999/xlink" width="260px" height="207px" viewBox="0 0 260 207"><title>Choosing-inbound-outbound-illustration</title><desc>Created with Sketch.</desc><defs><linearGradient x1="68.2355964%" y1="21.9473472%" x2="28.9932595%" y2="105.49442%" id="linearGradient-1"><stop stop-color="#EDF3FB" offset="0%"></stop><stop stop-color="#FFFFFF" offset="100%"></stop></linearGradient></defs><g id="Welcome" stroke="none" strokeWidth="1" fill="none" fillRule="evenodd"><g id="Home-page-v2" transform="translate(-1208.000000, -8701.000000)"><g id="Choosing-inbound-outbound-illustration" transform="translate(1209.000000, 8701.000000)"><path d="M6.29523102,128.295012 C19.2477694,114.210699 11.0155521,107.178179 2.09877842,75.4662515 C-6.81799524,43.7543239 23.0000723,18.8246174 61.1666806,15.701935 C76.0055447,14.501896 90.3123278,29.4002334 120.69961,10.592635 C151.086892,-8.21496336 197.398043,1.57280879 207.226791,12.6812351 C217.05554,23.7896614 220.506565,18.3684238 226.025534,60.6096261 C226.739569,66.0747228 228.663679,75.024285 241.260523,83.4334356 C253.857367,91.8425862 268.102242,108.155442 251.408869,137.449449 C244.011976,148.931635 243.698509,159.306186 247.553689,169.888151 C251.408869,180.470116 255.167603,189.623075 218.054383,194 C171.716588,192.81373 83.8687731,194 58.2634674,194 C32.6581617,194 20.9038223,193.956099 7.63940532,194 C3.7708121,178.747056 -6.65730738,142.379325 6.29523102,128.295012 Z" id="Path-6" fill="url(#linearGradient-1)"></path><g id="Group-101" transform="translate(0.000000, 29.000000)"><rect id="Rectangle" fill="#BBD6F9" x="11" y="9" width="224" height="127" rx="5"></rect><rect id="Rectangle-Copy-126" fill="#FFFFFF" x="20" y="15" width="207" height="114" rx="5"></rect><path d="M123,15 L222,15 C224.761424,15 227,17.2385763 227,20 L227,124 C227,126.761424 224.761424,129 222,129 L123,129 L123,129 L123,15 Z" id="Rectangle-Copy-129" fill="#E6F0FC"></path><g id="Group-98" transform="translate(152.000000, 52.000000)"><path d="M26.9598929,60.071873 L24.7854548,60.835976 C23.7753611,61.1910534 22.6491647,60.959076 21.8613248,60.2423821 C17.7811434,56.5330331 13.5964696,48.4927864 11.9411765,43.6279646 L21.1812946,40.3802817 C22.4667176,44.4610559 25.8336965,51.9368081 28.4028839,55.4167954 C29.6169867,57.0604179 28.9021256,59.3891828 26.9598929,60.071873" id="Fill-127" fill="#2C72B7"></path><path d="M18.7647059,40.5462935 L11.0050051,43.3327793 C6.72067894,44.8716441 2.0080842,42.6202072 0.480429009,38.3037823 C-1.04722618,33.9873573 1.18928727,29.2408436 5.47361348,27.7019788 L13.2316733,24.915493 L18.7647059,40.5462935" id="Fill-128" fill="#3CC4C9"></path><path d="M12.2349465,26.4501701 C10.7600008,27.2556655 10.7079056,30.9308196 12.0786609,34.7746528 C13.4510441,38.618486 15.8181202,41.4318641 17.4688872,41.1187424 C17.4705152,41.1229716 53.7352941,41.2394366 53.7352941,41.2394366 L40.2458904,3.43661972 L12.2349465,26.4501701" id="Fill-129" fill="#3CC4C9"></path><path d="M39.0373964,24.1234967 C43.2517088,35.8945208 50.0018633,44.2527542 54.1139506,42.7920299 C58.2276866,41.331634 58.1468958,30.6053685 53.9325835,18.8345087 C49.7182711,7.06348457 42.9697654,-1.29474885 38.8560293,0.165647045 C34.7422932,1.62620716 34.8247328,12.3524726 39.0373964,24.1234967" id="Fill-130" fill="#2C72B7"></path><path d="M39.7020367,25.0329212 C40.6256089,27.4595027 41.6681384,29.7323599 42.7800598,31.7887324 L51.1764706,27.4873963 L46.9336562,16.3239437 L37.5294118,17.9750852 C38.054807,20.2265574 38.7801168,22.6063397 39.7020367,25.0329212" id="Fill-131" fill="#3CC4C9"></path><path d="M46.9585548,22.596078 C48.1379479,25.6563664 50.0293018,27.8295834 51.180416,27.4498935 C52.3315303,27.0702036 52.3099053,24.2812981 51.1288488,21.2207021 C49.9494557,18.1604138 48.0597653,15.9871968 46.908651,16.3670405 C45.7558733,16.7465766 45.7791617,19.535482 46.9585548,22.596078" id="Fill-132" fill="#B3C9FF"></path><path d="M39.2852293,2.12652464 C36.2476258,3.23320996 35.8194963,12.9434919 40.0633506,25.1077137 C44.307205,37.2716029 50.6493824,44.5154738 53.6869859,43.4087819 C56.7245894,42.3017638 57.151091,32.5916483 52.9072367,20.4275928 C48.6650102,8.26353728 42.3228327,1.01967295 39.2852293,2.12652464 Z M54.3495286,45.3110428 C51.9598169,46.1823163 48.9384922,44.496002 45.8422854,40.5630434 C42.9642131,36.9050924 40.2505556,31.6569883 38.2026964,25.785833 C36.1532094,19.9146777 35.0071897,14.0959286 34.9713765,9.4016663 C34.9339356,4.35453574 36.2313471,1.09520439 38.6210587,0.224097308 C41.0123982,-0.647009777 44.033723,1.03930447 47.1283019,4.97209676 C50.0080021,8.63004777 52.7216596,13.8781519 54.7695187,19.7493071 C56.8173779,25.6204624 57.9650255,31.4390452 57.9992107,36.1334738 C58.0366517,41.1807708 56.740868,44.4401021 54.3495286,45.3110428 L54.3495286,45.3110428 Z" id="Fill-133" fill="#B3C9FF"></path></g><path d="M147.500285,34.5645161 C145.258658,34.5645161 143.435484,32.7412138 143.435484,30.4994299 C143.435484,28.2587862 145.258658,26.4354839 147.500285,26.4354839 C149.741342,26.4354839 151.564516,28.2587862 151.564516,30.4994299 C151.564516,32.7412138 149.741342,34.5645161 147.500285,34.5645161 Z M158,32.8039941 L158,28.1954306 L155.898562,28.1954306 C155.704123,27.4872617 155.423394,26.8164859 155.066155,26.1923077 L156.554362,24.7046351 L153.295494,21.4451019 L151.807287,22.9333498 C151.183126,22.5766765 150.511793,22.2959402 149.804794,22.1014957 L149.804794,20 L145.195781,20 L145.195781,22.1014957 C144.487632,22.2959402 143.816874,22.5766765 143.192713,22.9333498 L141.705081,21.4451019 L138.445638,24.7046351 L139.933845,26.1923077 C139.577181,26.8164859 139.295877,27.4872617 139.101438,28.1954306 L137,28.1954306 L137,32.8039941 L139.101438,32.8039941 C139.295877,33.5121631 139.577181,34.1835141 139.933845,34.807117 L138.445638,36.2953649 L141.705081,39.5548981 L143.192713,38.0666502 C143.816874,38.4233235 144.487632,38.7046351 145.195781,38.8990796 L145.195781,41 L149.804794,41 L149.804794,38.8990796 C150.511793,38.7046351 151.183126,38.4233235 151.807287,38.0666502 L153.295494,39.5548981 L156.554362,36.2953649 L155.066155,34.807117 C155.423394,34.1835141 155.704123,33.5121631 155.898562,32.8039941 L158,32.8039941 L158,32.8039941 Z" id="Fill-79" fill="#B1CBEC" transform="translate(147.500000, 30.500000) rotate(-180.000000) translate(-147.500000, -30.500000) "></path><path d="M153.5,47.5003217 C153.5,45.8454155 154.846414,44.5 156.500322,44.5 C158.15423,44.5 159.5,45.8454155 159.5,47.5003217 C159.5,49.1545845 158.15423,50.5 156.500322,50.5 C154.846414,50.5 153.5,49.1545845 153.5,47.5003217 Z M158.145866,55 L158.145866,53.4998115 C158.650934,53.3597186 159.130874,53.1593165 159.576891,52.9042593 L160.638538,53.9672069 L162.966622,51.6396532 L161.904347,50.5767056 C162.158765,50.1306697 162.359787,49.6519663 162.498618,49.1468777 L164,49.1468777 L164,45.8537505 L162.498618,45.8537505 C162.359787,45.3486619 162.158765,44.8687021 161.904347,44.4232944 L162.966622,43.3603468 L160.638538,41.0327931 L159.575634,42.0951125 C159.130874,41.8406835 158.650934,41.6402814 158.145866,41.5008167 L158.145866,40 L154.854134,40 L154.854134,41.5008167 C154.348438,41.6402814 153.868498,41.8406835 153.423109,42.0951125 L152.360834,41.0327931 L150.032122,43.3603468 L151.095025,44.4226662 C150.841235,44.8687021 150.639585,45.3486619 150.500754,45.8537505 L149,45.8537505 L149,49.1468777 L150.500754,49.1468777 C150.639585,49.6519663 150.841235,50.1306697 151.095025,50.5767056 L150.032122,51.6396532 L152.360834,53.9672069 L153.423109,52.9042593 C153.868498,53.1593165 154.348438,53.3597186 154.854134,53.4998115 L154.854134,55 L158.145866,55 L158.145866,55 Z" id="Fill-80" fill="#B1CBEC" transform="translate(156.500000, 47.500000) rotate(-180.000000) translate(-156.500000, -47.500000) "></path><g id="noun_youtube_3451621" transform="translate(201.000000, 106.000000)" fill="#E84D4D" fillRule="nonzero"><path d="M16.968,0.541854256 C12.6714588,-0.180618085 8.28654116,-0.180618085 3.99,0.541854256 C1.533,1.06247991 0,2.66685693 0,4.75998457 L0,12.1974939 C0,14.3224966 1.533,15.9056236 4.032,16.4474993 C6.16928059,16.8116281 8.33264127,16.9964238 10.5,17 C12.6740156,16.9995127 14.8443164,16.8182778 16.989,16.4581243 C19.425,15.9906237 21,14.3331216 21,12.208119 L21,4.77060959 C21,2.65623192 19.425,0.998729832 16.968,0.541854256 Z M13.923,8.97811489 L8.673,12.1656189 C8.59087618,12.2162591 8.49614869,12.2420663 8.4,12.239994 C8.30884399,12.2392503 8.21906033,12.2174457 8.1375,12.1762439 C7.96942162,12.0730328 7.86915822,11.8863517 7.875,11.6874933 L7.875,5.31248527 C7.8766075,5.12117223 7.97591113,4.94431697 8.1375,4.84498468 C8.30475571,4.75431641 8.50574429,4.75431641 8.673,4.84498468 L13.923,8.0324887 C14.0772115,8.13200575 14.1705625,8.30428459 14.1705625,8.48936427 C14.1705625,8.67444395 14.0772115,8.8467228 13.923,8.94623985 L13.923,8.97811489 Z" id="Shape"></path></g><path d="M212.600186,43.7007381 C213.964203,43.879604 215.235239,44.1193879 216.341237,44.4205221 C216.294747,44.4645905 216.251511,44.510387 216.204556,44.5540234 C214.066946,46.5405581 211.364482,47.6867687 208.573222,48 C209.036727,47.6483168 209.508136,47.2478128 210.015342,46.7760216 C211.027429,45.8363276 211.890748,44.8028803 212.600186,43.7007381 Z M201.399814,43.7011701 C202.109252,44.8024482 202.972571,45.8358956 203.984193,46.7760216 C204.491864,47.2478128 204.963273,47.6483168 205.426778,48 C203.977685,47.8375518 202.553696,47.449577 201.219433,46.8360756 C199.983264,46.2679388 198.823338,45.509703 197.795444,44.5544554 C197.748489,44.5108191 197.704788,44.4650225 197.658763,44.4209541 C198.764761,44.11982 200.035797,43.880036 201.399814,43.7011701 Z M206.5351,43.3516472 L206.5351,47.7079388 C205.926081,47.2905851 205.318921,46.7950315 204.641562,46.1651125 C203.785216,45.3692889 203.043236,44.5013141 202.415621,43.5814941 C203.732682,43.4445365 205.120409,43.3659046 206.5351,43.3516472 Z M207.4649,43.3516472 C208.880056,43.3659046 210.267318,43.4441044 211.584379,43.5814941 C210.956299,44.5013141 210.214784,45.3692889 209.358438,46.1655446 C208.777446,46.7051048 208.248712,47.146265 207.72598,47.5241227 L207.4649,47.7079388 L207.4649,43.3516472 Z M220,36.4324752 C219.900976,39.0307831 218.90888,41.6040324 217.02278,43.7171557 C215.855881,43.3710891 214.527662,43.0937174 213.084612,42.889793 C214.125988,41.0252097 214.736466,38.9893837 214.87031,36.8845338 L214.891678,36.4324752 L220,36.4324752 Z M199.108322,36.4324752 C199.178522,38.6976778 199.799628,40.8920252 200.915388,42.889793 C199.471874,43.0937174 198.143654,43.3710891 196.97722,43.7171557 C195.176852,41.7000835 194.191061,39.2637642 194.019039,36.7865938 L194,36.4324752 L199.108322,36.4324752 Z M206.5351,36.4324752 L206.5351,42.4879928 C204.919572,42.5031143 203.358903,42.5977318 201.893538,42.7653645 C200.820055,40.9386319 200.193175,38.9288715 200.058484,36.8492891 L200.038122,36.4324752 L206.5351,36.4324752 Z M207.4649,36.4324752 L213.961878,36.4324752 C213.888424,38.6605221 213.251511,40.8168497 212.106462,42.7653645 C210.885712,42.6256706 209.598133,42.5366817 208.267937,42.5021482 L207.4649,42.4879928 L207.4649,36.4324752 L213.961878,36.4324752 Z M201.894003,29.2354995 C203.114753,29.3751935 204.402009,29.4641824 205.732097,29.4987159 L206.5351,29.5128713 L206.5351,35.5683888 L200.038587,35.5683888 C200.112041,33.3407741 200.748954,31.1840144 201.894003,29.2354995 Z M196.97722,28.2841404 C198.144119,28.629775 199.472338,28.9071467 200.915388,29.1110711 C199.874012,30.9756544 199.263534,33.0114803 199.12969,35.1163303 L199.108322,35.5683888 L194,35.5683888 C194.099024,32.969649 195.090656,30.3968317 196.97722,28.2841404 Z M217.02278,28.2837084 C218.823148,30.3007806 219.808939,32.7370999 219.980961,35.2142703 L220,35.5683888 L214.891678,35.5683888 C214.821013,33.3031863 214.199907,31.1088389 213.084612,29.1106391 C214.528126,28.9071467 215.856346,28.629775 217.02278,28.2837084 Z M212.106462,29.2354995 C213.179945,31.0622322 213.806825,33.0719926 213.941516,35.1515749 L213.961878,35.5683888 L207.4649,35.5683888 L207.4649,29.5128713 C209.080428,29.4973177 210.641097,29.4031323 212.106462,29.2354995 Z M206.5351,24.2933573 L206.5351,28.6492169 C205.119944,28.6349595 203.732218,28.5563276 202.415621,28.4193699 C203.043236,27.49955 203.785216,26.6315752 204.641562,25.8357516 C205.319386,25.2058326 205.926081,24.710279 206.5351,24.2933573 Z M207.464435,24.2929253 C208.073454,24.710279 208.680149,25.2054005 209.357973,25.8353195 C210.214784,26.6315752 210.956764,27.4991179 211.583914,28.4189379 C210.266853,28.5558956 208.879591,28.6345275 207.464435,28.6487849 L207.464435,28.6487849 Z M208.573222,24.000432 C211.364482,24.3136634 214.066946,25.459874 216.204556,27.4464086 C216.251511,27.490045 216.294747,27.5358416 216.340772,27.57991 C215.234775,27.8810441 213.963738,28.1208281 212.599721,28.299694 C211.890748,27.1984158 211.026964,26.1649685 210.015342,25.2248425 C209.508136,24.7530513 209.036727,24.3525473 208.573222,24.000432 Z M205.426778,24 C204.963273,24.3521152 204.491864,24.7526193 203.984193,25.2244104 C202.972571,26.1645365 202.109252,27.1979838 201.399814,28.2992619 C200.035797,28.120396 198.764761,27.8806121 197.658763,27.5794779 C197.705253,27.5354095 197.748489,27.489613 197.795444,27.4459766 C199.933519,25.4594419 202.635983,24.3132313 205.426778,24 Z" id="Combined-Shape" fill="#B1CBEC" fillRule="nonzero"></path><g id="004-pie-chart" transform="translate(219.000000, 56.000000)" fillRule="nonzero"><path d="M10.0000119,0 C9.75989054,0 9.56521739,0.17845039 9.56521739,0.398561622 L9.56521739,9.16665577 C9.56521739,9.386767 9.75989054,9.56521739 10.0000119,9.56521739 L19.5652055,9.56521739 C19.8053268,9.56521739 20,9.386767 20,9.16665577 C19.9937229,4.10641399 15.5202349,0.00571668963 10.0000119,0 Z" id="Path" fill="#FFC107"></path><path d="M14.6964413,17.6464986 L9.0338689,10.2820548 L9.0338689,1.28499278 C9.0338689,1.0555671 8.8500094,0.869565217 8.62322625,0.869565217 C3.86813292,0.869565217 0,5.15582588 0,10.4240877 C0.0058899715,15.6984639 4.23088587,19.9726905 9.44447306,19.9786491 C11.3374637,20.1274584 13.2092427,19.4937824 14.6323831,18.2222633 C14.8043471,18.0795683 14.8327576,17.824322 14.6964413,17.6464986 Z" id="Path" fill="#2196F3"></path><path d="M19.565121,10.4347826 L10.8694578,10.4347826 C10.6293348,10.4347826 10.4347826,10.628548 10.4347826,10.8674497 C10.4347826,10.9662789 10.4688181,11.0621073 10.5312231,11.138997 L16.1834267,18.1008041 C16.2592421,18.194402 16.3707642,18.2523532 16.4912536,18.2608696 L16.5217021,18.2608696 C16.631716,18.2609506 16.7376945,18.2195047 16.8182383,18.1449265 C18.8436516,16.2604383 19.9952717,13.6263155 20,10.867328 C20,10.6284669 19.8052848,10.4347826 19.565121,10.4347826 Z" id="Path" fill="#4CAF50"></path></g><g id="Group-99" transform="translate(49.000000, 58.000000)"><path d="M28.175589,0 L28.175589,29.3893014 C28.175589,33.8096605 24.5083099,37.4061671 20.0001633,37.4061671 C15.4920168,37.4061671 11.8240843,33.8096605 11.8240843,29.3893014 L11.8240843,0 L0,0 L0,29.3893014 C0,40.220142 8.95422435,49 20.0001633,49 C31.0457757,49 40,40.220142 40,29.3893014 L40,0 L28.175589,0" id="Fill-148" fill="#2C72B7"></path><polygon id="Fill-149" fill="#EC5665" points="0 10.3157895 11.3043478 10.3157895 11.3043478 0 0 0"></polygon><polygon id="Fill-150" fill="#3CC4C9" points="28.6956522 10.3157895 40 10.3157895 40 0 28.6956522 0"></polygon></g><path d="M33.4993871,16.3333333 C30.2765577,16.3333333 27.6666667,13.7196373 27.6666667,10.4969366 C27.6666667,7.28036271 30.2765577,4.66666667 33.4993871,4.66666667 C36.7234423,4.66666667 39.3333333,7.28036271 39.3333333,10.4969366 C39.3333333,13.7196373 36.7234423,16.3333333 33.4993871,16.3333333 Z M44,12.2494883 L44,8.74928358 L42.5348266,8.74928358 C42.2953389,7.50886017 41.811451,6.35563483 41.128604,5.34610211 L42.1626996,4.31323469 L39.6867653,1.83852857 L38.6538979,2.87139599 C37.6443652,2.1873209 36.4911398,1.70343295 35.2507164,1.46394526 L35.2507164,0 L31.7505117,0 L31.7505117,1.46394526 C30.5088602,1.70220481 29.3556348,2.1873209 28.3461021,2.87016785 L27.3132347,1.83852857 L24.8385286,4.31323469 L25.871396,5.34610211 C25.188549,6.35563483 24.7046611,7.50886017 24.4651734,8.74928358 L23,8.74928358 L23,12.2494883 L24.4651734,12.2494883 C24.7046611,13.4911398 25.188549,14.6443652 25.871396,15.6526697 L24.8385286,16.6867653 L27.3132347,19.1614714 L28.3473303,18.1273759 C29.3556348,18.8102228 30.5100883,19.2941108 31.7505117,19.5323703 L31.7505117,21 L35.2507164,21 L35.2507164,19.5323703 C36.4911398,19.2941108 37.6443652,18.8102228 38.6526697,18.1273759 L39.6867653,19.1614714 L42.1626996,16.6867653 L41.1273759,15.6526697 C41.811451,14.6443652 42.2953389,13.4911398 42.5335985,12.2494883 L44,12.2494883 L44,12.2494883 Z" id="Fill-57" fill="#A5BFE0"></path><g id="Group-47" transform="translate(58.000000, 21.000000)"><path d="M20.9452508,10.4717852 C20.9452508,14.2902017 18.8973694,17.6346462 15.8372083,19.459494 C14.2679803,20.3968931 12.4366591,20.9391304 10.4726254,20.9391304 C8.50859166,20.9391304 6.67227288,20.3968931 5.10304492,19.454499 C2.0434391,17.6296511 0,14.2902017 0,10.4717852 C0,4.69088026 4.68824899,0 10.4726254,0 C16.2570018,0 20.9452508,4.69088026 20.9452508,10.4717852" id="Fill-83" stroke="#F2B83C" strokeWidth="2"></path><path d="M13.9635005,6.97971014 C13.9635005,8.90705758 12.4005362,10.4695652 10.4726254,10.4695652 C8.54471459,10.4695652 6.98175025,8.90705758 6.98175025,6.97971014 C6.98175025,5.05236271 8.54471459,3.48985507 10.4726254,3.48985507 C12.4005362,3.48985507 13.9635005,5.05236271 13.9635005,6.97971014" id="Fill-84" fill="#F2B83C"></path><path d="M16.2907506,19.4591802 C14.5896465,20.3967781 12.6044231,20.9391304 10.4753341,20.9391304 C8.34624523,20.9391304 6.35560428,20.3967781 4.65450017,19.4541841 L4.65450017,16.9958656 C4.65450017,14.0359652 7.25972968,11.6328502 10.4753341,11.6328502 C12.0801266,11.6328502 13.5356361,12.2351556 14.5896465,13.2021748 C15.6436568,14.1741901 16.2907506,15.5159154 16.2907506,16.9958656 L16.2907506,19.4591802 Z" id="Fill-85" fill="#F2B83C"></path></g><g id="Group-47" transform="translate(0.000000, 54.000000)"><path d="M20.9452508,10.4717852 C20.9452508,14.2902017 18.8973694,17.6346462 15.8372083,19.459494 C14.2679803,20.3968931 12.4366591,20.9391304 10.4726254,20.9391304 C8.50859166,20.9391304 6.67227288,20.3968931 5.10304492,19.454499 C2.0434391,17.6296511 0,14.2902017 0,10.4717852 C0,4.69088026 4.68824899,0 10.4726254,0 C16.2570018,0 20.9452508,4.69088026 20.9452508,10.4717852" id="Fill-83" stroke="#2196F3" strokeWidth="2"></path><path d="M13.9635005,6.97971014 C13.9635005,8.90705758 12.4005362,10.4695652 10.4726254,10.4695652 C8.54471459,10.4695652 6.98175025,8.90705758 6.98175025,6.97971014 C6.98175025,5.05236271 8.54471459,3.48985507 10.4726254,3.48985507 C12.4005362,3.48985507 13.9635005,5.05236271 13.9635005,6.97971014" id="Fill-84" fill="#2196F3"></path><path d="M16.2907506,19.4591802 C14.5896465,20.3967781 12.6044231,20.9391304 10.4753341,20.9391304 C8.34624523,20.9391304 6.35560428,20.3967781 4.65450017,19.4541841 L4.65450017,16.9958656 C4.65450017,14.0359652 7.25972968,11.6328502 10.4753341,11.6328502 C12.0801266,11.6328502 13.5356361,12.2351556 14.5896465,13.2021748 C15.6436568,14.1741901 16.2907506,15.5159154 16.2907506,16.9958656 L16.2907506,19.4591802 Z" id="Fill-85" fill="#2196F3"></path></g><path d="M31.6506555,117 C29.9992654,117 28.659132,115.653855 28.659132,113.992902 C28.659132,112.331949 29.9992654,110.985805 31.6506555,110.985805 C32.2462703,110.985805 32.7986551,111.165419 33.2645796,111.466709 L35.0802441,109.557578 C34.4596519,108.786973 34.0725023,107.819371 34.0725023,106.75134 C34.0725023,105.996186 34.2761641,105.296075 34.6037523,104.672251 L31.062726,102.170199 C30.5247514,102.690696 29.7965642,103.014195 28.9915235,103.014195 C27.3391727,103.014195 26,101.668051 26,100.007098 C26,98.3461446 27.3391727,97 28.9915235,97 C30.6438743,97 31.983047,98.3461446 31.983047,100.007098 C31.983047,100.444546 31.8860194,100.857853 31.7179024,101.233499 L35.2541252,103.731688 C36.0706939,102.835546 37.2331035,102.264835 38.5367315,102.264835 C41.0018083,102.264835 43,104.27343 43,106.75134 C43,109.22925 41.0018083,111.23881 38.5367315,111.23881 C37.5462816,111.23881 36.63941,110.902757 35.8987342,110.354256 L34.0888336,112.258558 C34.4346745,112.749119 34.642179,113.345903 34.642179,113.992902 C34.642179,115.653855 33.3030063,117 31.6506555,117" id="Fill-56" fill="#B1CBEC"></path><rect id="Rectangle" fill="#95B4DC" x="101" y="135" width="44" height="17"></rect><rect id="Rectangle" fill="#A8C6ED" x="59" y="152" width="127" height="6" rx="2.5"></rect><ellipse id="Oval" fill="#E6EEF8" cx="145.5" cy="175.5" rx="30.5" ry="2.5"></ellipse><g id="Group-100-Copy" transform="translate(109.000000, 72.000000)"><path d="M49.548086,48.5013044 C49.548086,48.5013044 49.1762645,49.1996865 49.1300651,49.7685968 C49.0933283,50.2176023 48.7632532,50.8911105 48.6196456,51.2629431 C48.4765945,51.6347757 48.0162706,53.3179084 48.0001286,53.7554336 C47.992336,53.9346532 48.3413361,55.0622691 48.2923536,55.4245349 C48.2439278,55.7836117 48.0619134,56.4992142 48.3452324,56.5476864 C48.6285515,56.5942452 48.949164,56.0081145 48.949164,56.0081145 C48.949164,56.0081145 48.9218896,56.3397662 49.1612358,56.4673246 C49.6271259,56.7135122 49.8731514,56.496663 49.8731514,56.496663 C49.8731514,56.496663 50.0451467,56.8633933 50.2605582,56.9105899 C50.7353542,57.0202901 50.9680209,56.8021653 50.9680209,56.8021653 C50.9680209,56.8021653 51.1778663,57.0056209 51.5062715,56.9998808 C51.9259622,56.9903139 52.1018538,56.5757492 52.1018538,56.5757492 C52.1018538,56.5757492 52.6339815,56.698843 52.7881649,56.4131123 C52.942905,56.1286571 52.9161873,55.8269816 52.9790852,55.5680381 C53.043653,55.3103702 52.9946706,52.9843433 52.3055763,51.3095019 C51.6159254,49.6352983 52.4814679,48 52.4814679,48 L49.548086,48.5013044" id="Fill-421" fill="#EEA886"></path><path d="M48.0014965,55.5588796 C48.0014965,55.5588796 47.9453547,53.1431798 48.5208079,52.6285884 C49.0955927,52.1147354 49.1617598,52.9866613 49.1617598,52.9866613 C49.1617598,52.9866613 49.082894,52.1243333 49.7131522,52.0091593 C50.3420738,51.8932471 50.3681396,52.915785 50.3681396,52.915785 C50.3681396,52.915785 50.4717345,52.2527965 51.1320687,52.3871661 C51.7937396,52.5244889 51.636008,53.3735277 51.636008,53.3735277 C51.636008,53.3735277 52.2676029,52.5414697 52.6766358,53.3403044 C53.3677143,54.687692 52.7361194,56.2713338 52.7361194,56.2713338 C52.7361194,56.2713338 52.5202409,56.6707512 51.8919877,56.4920839 C51.8919877,56.4920839 51.458894,57.4289797 50.517851,56.75787 C50.517851,56.75787 49.5447269,57.3492439 49.1938408,56.4108715 C49.1938408,56.4108715 48.1010813,56.928416 48.0014965,55.5588796" id="Fill-422" fill="#DB9C7C"></path><path d="M42.2691959,21.5528657 C42.2691959,21.5528657 45.776633,32.6674657 46.9618487,36.7672059 C47.3337547,38.0548113 48.2328407,50.3343875 48.3924974,50.8284756 C48.5509018,51.3231589 53,52 53,52 C53,52 52.4609241,36.638624 52.4108357,35.7998649 C52.3601213,34.961701 47.5009246,17.8061306 46.088433,17.1941757 C45.0309426,16.7358049 44.4705791,17.1150026 43.1376027,18.0573416 C41.2642982,19.3776877 42.2691959,21.5528657 42.2691959,21.5528657" id="Fill-423" fill="#22407A"></path><path d="M44.7941272,100.129711 C44.7941272,100.129711 43.7360494,101.284678 42.7130427,101.787307 C41.6900359,102.290477 40.0827087,102.490448 39.4769888,103.010372 C39.0406803,103.387074 37.8857111,105.005216 42.1364497,104.973329 C46.385405,104.93928 48.4343906,105.201404 48.8909095,104.580954 C49.3456453,103.959963 48.2316914,100 48.2316914,100 C48.2316914,100 47.2247342,100.330222 44.7941272,100.129711" id="Fill-425" fill="#131730"></path><path d="M21.4299381,100.130164 C21.4299381,100.130164 20.2807811,101.289169 19.1677977,101.793555 C18.0567522,102.298484 13.9646164,102.714467 13.3076784,103.237294 C12.8322543,103.614228 12.0422492,105.132268 18.5412197,104.990715 C23.1572264,104.889838 25.386423,105.219587 25.8812259,104.596968 C26.3760287,103.973807 25.1648599,100 25.1648599,100 C25.1648599,100 24.1339129,100.353613 21.4299381,100.130164" id="Fill-427" fill="#131730"></path><path d="M45.5058594,54.5200714 C47.8352865,86.1733571 49,102 49,102 L44,102 C44,102 34.1693012,58.2119779 34.0024792,56.4130391 C33.8350204,54.6165102 42.2066868,44 42.2066868,44 C42.2066868,44 43.306411,47.5066905 45.5058594,54.5200714 Z" id="Fill-428" fill="#2B478B"></path><path d="M19,101.408788 L24.5796909,102 C24.5796909,102 32.9140728,61.6613951 35.1743847,56.850722 C37.4353346,52.0400489 42.610511,51.9251202 44,43 C44,43 24.7336697,51.8064788 22.8529473,54.6373539 C22.8529473,56.014164 19.444024,98.7503064 19,101.408788 Z" id="Fill-429" fill="#2B478B"></path><path d="M36.1403517,0.42196829 C36.1403517,0.42196829 31.5704464,-1.29793819 29.4622518,2.20685046 C27.3547023,5.70968983 27.5579095,12.7251149 29.8615701,13.5899414 C32.166521,14.451519 35.6262051,14.0005877 36.8054522,11.8063587 C37.9846994,9.61407897 39.0504085,6.44391512 38.9981552,4.32765694 C38.9471922,2.20814997 37.339597,1.03338952 36.1403517,0.42196829" id="Fill-430" fill="#EEA886"></path><path d="M31.1278728,12.8265554 C31.1278728,12.8265554 31.306035,13.9144156 31.0107086,14.4498113 C30.7171941,14.9857759 36.554872,15 36.554872,15 C36.554872,15 37.0283605,12.0840566 37.9270223,9.61987106 C38.8256841,7.15739242 31.1278728,12.8265554 31.1278728,12.8265554" id="Fill-431" fill="#EEA886"></path><path d="M38.2700548,10.5027677 C38.2700548,10.5027677 37.8474825,11.2116593 36.1184888,10.9365862 C34.3907642,10.6615132 32.2829782,8.33303227 31.5615595,8.07788269 C30.8401409,7.82209042 30.833796,7.39212804 30.833796,7.39212804 L30.3820369,8.05988725 L29.6149348,8.1100174 C29.6149348,8.1100174 30.3141462,6.02768837 29.2589842,5.1780467 C28.2057257,4.32776235 30.3547537,-1.56317219 35.8951473,0.397044955 C35.8951473,0.397044955 40.1506923,1.58538643 39.995876,4.0366219 C39.8410597,6.48914276 39.2217945,9.28229152 38.2700548,10.5027677" id="Fill-432" fill="#131730"></path><path d="M31,15.830469 C31,15.830469 31.0176861,14.5855493 31.4686809,14.4645826 C31.9185704,14.3470722 36.4473102,13.8030678 37,14.0754156 L37,15.5249418 C37,15.5249418 35.9333088,16.3447502 31,15.830469" id="Fill-433" fill="#E2D2CA"></path><path d="M31.154977,6.05777902 C31.2651074,5.57189361 32.4453873,4.18039079 32.8967774,5.66846238 C33.3474429,7.15729436 32.2142583,9.16014596 31.5817326,8.98981993 C30.9506559,8.81721275 30.874579,7.29112195 31.154977,6.05777902" id="Fill-434" fill="#EEA886"></path><path d="M37,1 C37,1 43.6122334,1.4462392 37.2034759,10 L37,1" id="Fill-436" fill="#131730"></path><path d="M0.529050042,2.81350501 C0.682251908,2.30170303 1.19698897,2.15256868 1.19698897,2.15256868 C1.41274385,1.80571833 1.96564885,1.62551433 1.96564885,1.62551433 L1.99745547,1.55546637 C1.65765479,1.16681322 0.670589483,0.440913059 0.613337574,0.303076764 C0.54336302,0.135865522 0.561386768,0.116658825 0.752756573,0.00537296448 C0.912319763,-0.0867061994 2.52279474,1.03010673 3.06085666,1.40859163 C3.192324,1.49671648 3.29887617,1.57919229 3.3211408,1.5995288 C3.47010178,1.73284587 3.77120441,1.83000916 4.02406701,2.11528509 L4.10570399,2.21301329 C4.37181934,2.57624582 5,5.48606037 5,5.48606037 L3.87828668,6.02158827 L2.79739186,7 C2.79739186,7 1.53678965,5.88544669 1.21289228,5.53690163 C0.888464801,5.18609696 0.741094148,4.77880201 0.651505513,4.60650664 C0.630301103,4.56357403 0.591072943,4.50538903 0.54442324,4.43816559 C0.398112807,4.22632703 0.175466497,3.94444051 0.175466497,3.94444051 C0.0652035623,3.78005378 0,3.36936941 0,3.36936941 C0.0227947413,3.02760319 0.529050042,2.81350501 0.529050042,2.81350501" id="Fill-437" fill="#EFAA88"></path><path d="M22.669531,16.373416 C26.1136092,15.9214919 30.9756569,14.7163609 30.9756569,14.7163609 L37.6314698,14.4484865 C37.6314698,14.4484865 43.7398349,15.7805693 46.1448044,16.8563188 C46.3728565,16.9571513 46.3734696,22.2557186 47,23.644292 L45.0063827,27.813049 C45.0063827,27.813049 43.8538609,36.0715979 43.614774,39.7446962 C43.5050392,41.4296928 45.9909305,55.5541439 45.9909305,55.5541439 C45.9909305,55.5541439 43.3278697,56.3310403 38.7852176,56.8279139 C34.2431786,57.3223578 22.8939049,56.6469013 22.8227919,56.1166193 C22.7510658,55.5845151 25.0199397,36.3224643 25.1204788,35.3262875 C25.2749657,33.7943619 24.5889701,25.6603352 24.5889701,25.6603352 C23.5400527,24.8542823 14.3315269,20.619316 11.8192748,18.4113265 C11.1486052,17.8203021 8.31082701,15.0838529 7.50406181,14.1380924 C4.64789231,10.7911812 2.30667933,7.921706 2.02161412,7.30334746 C1.69731412,6.9504336 5.12484013,5.10507677 5.43565317,5.00120711 C5.70723142,4.91130823 9.56817915,9.86789536 11.0541965,11.4636006 C11.7175095,12.1742877 14.4719138,14.1599597 14.4719138,14.1599597 C14.4719138,14.1599597 20.5171354,16.4955084 22.669531,16.373416" id="Fill-438" fill="#22407A"></path></g></g></g></g></g></svg>