<svg xmlns="http://www.w3.org/2000/svg" xmlns:xlink="http://www.w3.org/1999/xlink" width="619px" height="390px" viewBox="0 0 619 390"><title>Decor_I_don't_bite</title><desc>Created with Sketch.</desc><g id="Welcome" stroke="none" stroke-width="1" fill="none" fill-rule="evenodd"><g id="About" transform="translate(-662.000000, -7658.000000)"><g id="Decor_I_don't_bite" transform="translate(662.000000, 7654.329383)"><path d="M508,363.788651 L502.809017,374.170617 L513.190983,374.170617 L508,363.788651 Z" id="Triangle" stroke="#ADC1FE" transform="translate(508.000000, 368.670617) rotate(-34.000000) translate(-508.000000, -368.670617) "></path><path d="M381.329383,4.11803399 L376.1384,14.5 L386.520366,14.5 L381.329383,4.11803399 Z" id="Triangle-Copy" stroke="#F5D7A0" transform="translate(381.329383, 9.000000) rotate(-34.000000) translate(-381.329383, -9.000000) "></path><path d="M27.3319859,384.249595 C27.7080707,384.575553 27.7674855,385.137083 27.4679433,385.534528 L21.8680849,392.964661 C21.593645,393.3288 21.0759748,393.401515 20.7118361,393.127075 C20.6968298,393.115766 20.6822139,393.103947 20.6680141,393.09164 C20.2919293,392.765681 20.2325145,392.204152 20.5320567,391.806706 L26.1319151,384.376573 C26.406355,384.012434 26.9240252,383.939719 27.2881639,384.214159 C27.3031702,384.225469 27.3177861,384.237288 27.3319859,384.249595 Z" id="Rectangle" fill="#FCB2B4"></path><rect id="Rectangle-Copy-2" fill="#FCB2B4" transform="translate(615.000000, 266.670617) rotate(33.000000) translate(-615.000000, -266.670617) " x="614" y="260.670617" width="2" height="12" rx="1"></rect><path d="M99,272.672224 C105,272.595558 108,275.261689 108,280.670617" id="Path-13" stroke="#8EECDE" stroke-width="2" stroke-linecap="round"></path><circle id="Oval" fill="#9DB2FF" cx="495" cy="146.670617" r="5"></circle><circle id="Oval-Copy-2" fill="#8EECDE" cx="5" cy="132.670617" r="5"></circle><circle id="Oval-Copy" stroke="#9DB2FF" stroke-width="2" cx="194" cy="72.6706171" r="4"></circle></g></g></g></svg>