<svg xmlns="http://www.w3.org/2000/svg" xmlns:xlink="http://www.w3.org/1999/xlink" width="232px" height="179px" viewBox="0 0 232 179"><title>Marketing_Automation_illustration</title><desc>Created with Sketch.</desc><defs><linearGradient x1="52.8938518%" y1="91.6919911%" x2="50%" y2="30.6782844%" id="linearGradient-1"><stop stop-color="#FFFFFF" offset="0%"></stop><stop stop-color="#EDF3FB" offset="100%"></stop></linearGradient><path d="M23.103605,16.5970737 C21.843808,16.5970737 20.0853112,16.2305128 19.7149106,15.7167446 C19.6337269,15.6074322 17.8041944,14.3663721 17.6795194,14.0777874 C17.6795194,14.0777874 17.3439118,13.3235319 17.4091487,12.3448216 C16.845212,12.5736489 16.4827848,12.7602087 16.4827848,12.7602087 C16.4827848,12.7602087 15.2708282,11.7545346 15.694868,7.87321588 C15.689794,7.58098742 15.6709478,7.09491163 15.6376045,6.47110224 C15.6405039,6.47037349 15.6434033,6.47037349 15.6470276,6.47037349 C15.7724274,6.47037349 15.9869843,7.02568045 16.2406834,7.67645357 C16.2406834,7.75807349 16.237784,7.83459217 16.2298106,7.90017961 C16.1638488,8.44455533 16.45669,8.95978109 17.064118,9.60545296 L17.1561745,9.72788284 C17.1996658,9.90278268 17.2417073,10.1505574 17.2380831,10.4231097 C17.1155827,11.0410891 18.0709408,13.0910609 18.4551136,13.1493608 C18.7138867,13.1879845 19.1727195,13.3337344 19.2408558,13.3548681 C19.2676754,13.3636131 19.3140661,13.3679856 19.3764036,13.3679856 C20.1766429,13.3679856 23.6269499,12.7004512 23.2174072,12.6115438 C23.3072891,12.6188313 23.4015202,12.6253901 23.4856033,12.634135 C23.6291245,12.5080614 23.7516249,12.4373727 23.840782,12.3426353 C24.0415666,12.8644198 24.259023,13.2630457 24.4888018,13.4809417 C25.4847518,14.4261296 25.12015,15.8843569 25.12015,15.8843569 C25.12015,15.8843569 24.7207552,16.3748052 23.8560039,16.5387738 C23.6450713,16.5781262 23.3870231,16.5970737 23.103605,16.5970737 M2.60472207,15.5826547 C2.36914438,15.5826547 2.12704301,15.5775535 1.87769309,15.5666222 C-0.370805318,15.5666222 0.0387374281,13.8373001 0.409138036,13.4619942 C0.892615933,12.9679022 2.19517932,11.9053857 2.79390907,11.2342076 C2.56775449,11.2378514 2.43583099,11.2407664 2.43583099,11.2407664 C2.43583099,11.2407664 2.38654089,10.619872 2.39813856,9.85468522 L2.36696982,9.84812648 C2.11109621,9.7227816 2.37711778,7.63054237 2.52353837,6.29984615 C2.57065391,5.86113907 2.69460402,4.59530154 2.80115762,2.9803931 C4.33060044,2.93812564 7.37426414,2.83464324 9.28135611,2.73844834 C9.59666779,3.06347052 8.84499376,4.29505683 8.66957899,4.39416674 C7.97589331,4.78259011 6.40223437,5.98065396 6.40223437,5.98065396 C6.40223437,5.98065396 6.61461671,5.98138271 6.92775382,5.98138271 C7.20392335,5.98138271 7.55910202,5.98065396 7.91645525,5.97992521 L7.84252009,6.0404114 C7.64970882,6.201465 6.50588855,7.79451096 6.35366912,8.59467769 C6.19565086,8.97144107 6.12751454,9.27241453 6.21522193,9.40358941 L6.24566581,9.49978431 C6.11664172,9.71622286 5.91875647,9.96399762 5.68752791,10.2190599 C4.9481764,10.829023 3.70360137,11.5271649 3.42670698,11.678016 C2.99179433,11.9112157 2.26766476,12.2806916 2.49091992,12.3025541 L2.5199141,12.3032829 C2.33942535,12.439559 2.24881855,12.5503289 2.24881855,12.5503289 C2.24881855,12.5503289 2.37929234,12.5496001 2.60544692,12.5488714 C2.00526746,12.6465238 4.5379088,12.9934084 6.06590192,12.9934084 C6.43340311,12.9934084 6.74291594,12.9737322 6.93645207,12.924906 C6.94297576,12.9234485 6.96109712,12.9234485 6.98936644,12.9234485 C7.05677791,12.9234485 7.18072801,12.9263635 7.33947113,12.9300073 C7.49821425,12.9329223 7.69175038,12.936566 7.89760903,12.936566 C8.60071782,12.936566 9.4437235,12.8972135 9.52345749,12.68369 C9.52708176,12.674945 9.79310333,12.5984263 10.3106494,12.2464404 C10.2990517,12.3302466 10.292528,12.3717853 10.292528,12.3717853 C10.2918032,12.366684 10.2903535,12.3644978 10.287454,12.3644978 C10.2323651,12.3644978 9.78295537,13.169037 8.61159063,13.9735763 C7.44022589,14.7781155 5.54690615,15.5826547 2.60472207,15.5826547 M15.2063161,1.35018092 C15.2026919,1.31957345 15.1990676,1.28969473 15.1954433,1.25981601 C15.2092155,1.28605099 15.2360352,1.30718472 15.2788016,1.31957345 L15.3273668,1.33123344 C15.2874998,1.33706344 15.246908,1.34362218 15.2063161,1.35018092 M15.1860202,1.17673859 C15.1468781,0.842242664 15.1048365,0.504831739 15.0598955,0.168149564 C15.1041117,0.187825795 15.1896445,0.206044527 15.3324408,0.219890764 L15.475962,0.233008251 L15.470888,0.242481992 C15.3280917,0.31754317 15.2164641,0.432685559 15.3933286,0.559487937 C15.3933286,0.559487937 15.4346453,0.501187993 15.6028115,0.43122806 C15.3331657,0.590824156 15.3853552,0.758436495 15.5382995,0.875036382 L15.6332554,0.936980073 C15.4563909,0.86702014 15.4331956,0.79414521 15.4331956,0.79414521 C15.3715829,0.853173903 15.2077658,1.04046247 15.1860202,1.17673859 M21.8387341,1.00329626 C21.7568255,0.999652512 21.7053608,0.996737515 21.7053608,0.996737515 L21.7024614,0.998923763 C21.6408488,0.989450022 21.5618397,0.982891278 21.4610849,0.982891278 L21.4038214,0.829125177 C21.5139993,0.823295182 21.6618696,0.808720196 21.8061156,0.791958962 C21.8169884,0.862647644 21.8278612,0.932607577 21.8387341,1.00329626" id="path-2"></path><path d="M0.184202253,7.06048549 L0.00627605631,0.35461382 C0.459093519,0.232726656 0.887434362,0.114994736 1.27623605,0.00626584449 L1.47016619,6.97807314 C1.04182535,7.00785239 0.611601687,7.03555402 0.184202253,7.06048549" id="path-4"></path><path d="M0.389204328,0.71888894 C0.222151399,0.71888894 0.0737427701,0.601882904 0.04018303,0.436485482 C0.00513174582,0.252309313 0.132658758,0.0695776637 0.319847531,0.0363537274 C0.336254515,0.0334646894 0.353407272,0.0320201705 0.369814256,0.031297911 C0.463035756,0.0876341508 0.574155785,0.154804283 0.694225077,0.226307972 C0.698699709,0.227752491 0.703174341,0.22919701 0.707648973,0.230641529 C0.719581325,0.255920611 0.729276361,0.283366471 0.734496765,0.31225685 C0.771785366,0.497155278 0.642766809,0.679164669 0.451849176,0.713110864 C0.43096756,0.716722162 0.410085944,0.71888894 0.389204328,0.71888894" id="path-6"></path><path d="M0.168686525,1.48098505 C0.116134184,1.47482177 0.0645038148,1.46865849 0.0128734453,1.46172479 L1.29072509,0.199793024 C1.36356079,0.126604063 1.44377226,0.0780682252 1.483417,0.0780682252 C1.4898708,0.0780682252 1.49540263,0.0796090454 1.49909051,0.0819202757 C1.52490569,0.105032579 1.47696321,0.189777692 1.38661006,0.274522805 L0.168686525,1.48098505" id="path-8"></path><path d="M1.15681765,1.22555175 C0.79590234,0.865238954 0.427768724,0.495444246 0.0524168015,0.116167622 C0.427768724,0.419588921 0.79590234,0.789383629 1.15681765,1.22555175" id="path-10"></path><path d="M1.23537451,0.731408105 C0.900398586,0.626680479 0.540812185,0.522675114 0.203101763,0.428059121 C0.616010862,0.217159352 0.892195094,0.0734297142 0.953721284,0.0409280374 C1.07267192,0.347888318 1.16974657,0.589845246 1.23537451,0.731408105" id="path-12"></path><path d="M0.61546375,1.50316644 C0.512394235,0.967827709 0.424048936,0.510369188 0.37847398,0.270413951 C0.36304861,0.187622378 0.304852898,0.141315227 0.213001833,0.124476263 L0.353232466,0.0451928077 C0.361646304,0.109040546 0.469623892,0.713138379 0.61546375,1.50316644" id="path-14"></path><path d="M0.482361507,0.643292447 C0.371212795,0.547954196 0.28516218,0.465616614 0.229229279,0.400613261 C0.229946368,0.350777356 0.228512191,0.300941452 0.227078014,0.250383288 C0.30810901,0.196213827 0.402047599,0.141322106 0.506025427,0.0878749039 C0.507459604,0.27494011 0.499571631,0.460560798 0.482361507,0.643292447" id="path-16"></path></defs><g id="Welcome" stroke="none" strokeWidth="1" fill="none" fillRule="evenodd"><g id="Home-page-v2" transform="translate(-1210.000000, -9308.000000)"><g id="Marketing_Automation_illustration" transform="translate(1210.000000, 9308.000000)"><path d="M124.612745,5.86735001 C130.048546,9.26855449 133.497864,13.4533647 136.248669,19.6908243 C138.308482,24.3610724 140.367355,29.369244 144.237848,32.2871029 C149.066329,35.9257954 155.013558,34.849253 160.499186,35.360846 C172.870287,36.512715 185.325059,41.3890651 194.643576,50.7295614 C199.150534,55.247064 202.773774,60.7657825 205.200236,66.9509319 C207.596614,73.0597086 208.741686,79.9499986 212.326382,85.4205917 C215.78322,90.6955449 221.256626,93.8603076 224.530141,99.3309007 C228.776684,106.424154 225.178827,114.183838 226.129293,121.928876 C227.637253,134.235356 236.706636,154.414331 228.813349,166.147493 C225.65359,170.844942 221.030056,177.324004 216.202516,177.298896 C209.927183,177.268556 203.11974,176.747547 197.102942,174.603878 C191.918154,172.758377 186.869684,170.467193 181.422602,170.187857 C177.421431,169.981755 173.334709,169.651155 169.341059,169.59466 C166.735973,169.559089 164.053797,170.380358 161.425209,170.690034 C155.944282,171.333449 150.463354,171.978956 144.983367,172.623416 C132.804992,174.054622 120.626616,175.485827 108.44918,176.917032 C85.2111776,179.649713 61.9722345,172.491845 38.7342316,175.22348 C31.2057128,176.108567 23.6762539,176.994701 16.146795,177.878742 C15.5263127,177.951976 7.9564284,179.432353 7.67157061,178.874727 C1.59836489,166.973126 -0.83561802,152.966567 0.251166161,139.374303 C0.818061369,132.269542 2.28935656,125.059114 4.87940018,118.515117 C7.31526334,112.359261 10.6075801,106.626071 10.3405847,99.611283 C10.07923,92.7345937 6.42590535,85.8422113 8.39358639,79.317046 C12.0412703,67.2218984 28.4943931,66.9289617 37.2403734,62.2764989 C49.6857445,55.6561292 52.6358559,42.3306474 59.186645,30.1706352 C65.7308532,18.026316 75.7375407,8.00997283 87.6912266,3.15559301 C99.6439723,-1.69774061 113.521153,-1.07315769 124.612745,5.86735001 Z M35.7050021,34.1325344 C38.3557371,36.0007945 37.5027778,40.4018209 36.1567893,42.8592199 C33.885668,47.0012375 29.0425464,50.7834028 24.5912236,50.5063483 C19.9515,50.2186787 17.740367,46.0533078 20.1164679,41.5365767 C22.6828444,36.6610546 27.9618188,33.8767101 32.8339973,33.5571952 C33.8209931,33.492443 34.8670399,33.540211 35.7050021,34.1325344 Z M151.283495,22.8029955 C154.116321,23.7590015 153.516347,27.9837274 151.524671,29.5328987 C150.359318,30.4394742 149.038782,30.0776854 148.050357,29.057525 C146.05275,27.0014287 147.529457,22.9281492 150.102327,22.6610145 C150.475952,22.6221011 150.871322,22.6641696 151.283495,22.8029955 Z" id="Combined-Shape" fill="url(#linearGradient-1)"></path><ellipse id="Oval" fill="#EEF0FB" cx="84" cy="169.5" rx="40" ry="8.5"></ellipse><ellipse id="Oval-Copy-9" fill="#EEF0FB" cx="150" cy="165.5" rx="38" ry="8.5"></ellipse><ellipse id="Oval-Copy-10" fill="#EEF0FB" cx="119" cy="155.5" rx="38" ry="8.5"></ellipse><polygon id="Fill-15" fill="#3A537B" points="71 118 72 118 72 114 71 114"></polygon><polygon id="Fill-16" fill="#3A537B" points="73 118 74 118 74 114 73 114"></polygon><polygon id="Fill-17" fill="#3A537B" points="75 118 77 118 77 114 75 114"></polygon><polyline id="Fill-18" fill="#CCD7E4" points="159 102.010695 188.999506 102 189 105.989305 159.000987 106 159 102.010695"></polyline><polyline id="Fill-32" fill="#CCD7E4" points="186.010695 132 186 102.000987 189.988711 102 190 131.998519 186.010695 132"></polyline><path d="M184,103.501024 C183.999488,101.567959 185.566423,100.000512 187.498976,100 C189.432553,99.9994881 190.999487,101.565911 191,103.498976 C191.001024,105.432041 189.434089,106.999488 187.501536,107 C185.568471,107.000512 184.000512,105.434089 184,103.501024" id="Fill-46" fill="#F2B83C"></path><path d="M185.678316,103.500543 L186.355546,103.466356 L185.697851,103.499457 L186.356631,103.499457 L186.355546,103.466356 L185.697851,103.499457 L186.356631,103.499457 C186.357717,102.868895 186.868353,102.357717 187.498915,102.356631 L187.516822,102.356631 L187.5,101.714131 L187.5,102.356631 L187.516822,102.356631 L187.5,101.714131 L187.5,102.356631 C188.131105,102.357717 188.641741,102.868895 188.643369,103.499457 C188.643369,104.131105 188.131647,104.643369 187.499457,104.643369 C186.868895,104.642283 186.357717,104.131647 186.356631,103.500543 L186.356631,103.48372 L186.355546,103.466356 L185.678316,103.500543 L185,103.500543 C185.000543,104.881593 186.119492,105.999457 187.5,106 C188.881593,105.998915 189.999457,104.879965 190,103.499457 C189.998372,102.118949 188.880508,101.000543 187.5,101 L187.481007,101.000543 L187.498915,101.678316 L187.498915,101 C186.118407,101.000543 185.000543,102.118949 185,103.499457 L185.000543,103.534187 L185.678316,103.500543 L185,103.500543 L185.678316,103.500543" id="Fill-47" fill="#E9843C"></path><polyline id="Fill-48" fill="#23517A" points="184.5005 71 184.5005 70.3909348 184.4995 70.3909348 184.4995 70.0014164 184.5005 70 184.5005 71"></polyline><polyline id="Fill-49" fill="#2A5E82" points="184.5005 70 184.4995 68.7668593 184.5005 68.7668593 184.4985 66.0891987 184.4995 66.0891987 184.4985 65 184.5015 69.9988666 184.5005 70"></polyline><polyline id="Fill-52" fill="#202D44" points="186 119 186 118.000999 189.999402 118 190 118.999001 186 119"></polyline><polyline id="Fill-54" fill="#CCD7E4" points="163.000975 121 197 120.986936 196.999025 117 163 117.013064 163.000975 121"></polyline><polygon id="Fill-54-Copy" fill="#CCD7E4" transform="translate(199.000000, 105.750433) rotate(-270.000000) translate(-199.000000, -105.750433) " points="214.250433 108.250433 214.249567 103.250433 183.749567 103.250433 183.750433 108.250433"></polygon><polyline id="Fill-86" fill="#CCD7E4" points="201.910883 91 212 76 186 76.0078888 196.360873 91"></polyline><polyline id="Fill-88" fill="#CCD7E4" points="179 85.9307047 179 42 175 42 175 86 179 85.9307047"></polyline><polygon id="Fill-89" fill="#3A537B" points="175 41 179 41 179 39 175 39"></polygon><polygon id="Fill-90" fill="#3A537B" points="175 44 179 44 179 43 175 43"></polygon><polygon id="Fill-91" fill="#3A537B" points="175 46 179 46 179 45 175 45"></polygon><polygon id="Fill-116" fill="#3A537B" points="177 44 178 44 178 41 177 41"></polygon><polygon id="Fill-117" fill="#3A537B" points="176 44 177 44 177 41 176 41"></polygon><polygon id="Fill-118" fill="#3A537B" points="172 44 174 44 174 41 172 41"></polygon><path d="M172.5,46 C174.433065,46 176,44.4326677 176,42.500256 C176,40.5668203 174.433065,39 172.5,39 C170.566935,39 169,40.5668203 169,42.500256 C169,44.4326677 170.566935,46 172.5,46" id="Fill-129" fill="#F2B83C"></path><path d="M173,44.3216844 L173,45 C174.10484,44.9994573 174.999566,43.8810506 175,42.5005427 C174.999566,41.1189494 174.10484,40.0005427 173,40 C171.89516,40.0005427 171,41.1189494 171,42.5005427 C171.000434,43.8810506 171.89516,44.9994573 173,45 L173,43.6433688 C172.494682,43.6422835 172.086173,43.1311048 172.085305,42.5005427 C172.086173,41.8688952 172.494682,41.3577165 173,41.3566312 C173.504884,41.3577165 173.913827,41.8688952 173.914695,42.5005427 C173.913827,43.1311048 173.504884,43.6422835 173,43.6433688 L173,44.3216844" id="Fill-130" fill="#E9843C"></path><polygon id="Fill-131" fill="#7B98FF" points="150 88 180 88 180 84 150 84"></polygon><polygon id="Fill-132" fill="#3A537B" points="177 88 178 88 178 84 177 84"></polygon><polygon id="Fill-133" fill="#3A537B" points="176 88 177 88 177 84 176 84"></polygon><polygon id="Fill-138" fill="#3A537B" points="163 88 164 88 164 84 163 84"></polygon><polygon id="Fill-139" fill="#3A537B" points="160 88 161 88 161 84 160 84"></polygon><polygon id="Fill-140" fill="#3A537B" points="158 88 159 88 159 84 158 84"></polygon><polygon id="Fill-141" fill="#3A537B" points="156 88 157 88 157 84 156 84"></polygon><polygon id="Fill-142" fill="#3A537B" points="153 88 154 88 154 84 153 84"></polygon><polygon id="Fill-143" fill="#3A537B" points="150 88 152 88 152 84 150 84"></polygon><polygon id="Fill-144" fill="#3A537B" points="149 88 150 88 150 84 149 84"></polygon><path d="M177.5,89 C179.433065,89 181,87.4329505 181,85.5002561 C181,83.5665374 179.433065,82 177.5,82 C175.566935,82 174,83.5665374 174,85.5002561 C174,87.4329505 175.566935,89 177.5,89" id="Fill-145" fill="#F2B83C"></path><path d="M177.5,87.3216844 L177.5,88 C178.881051,87.9994573 179.999457,86.8810506 180,85.5005427 C179.999457,84.1189494 178.881051,83.0005427 177.5,83 C176.118949,83.0005427 175,84.1189494 175,85.5005427 C175.000543,86.8810506 176.118949,87.9994573 177.5,88 L177.5,86.6433688 C176.868353,86.6422835 176.357717,86.1311048 176.356631,85.5005427 C176.357717,84.8688952 176.868353,84.3577165 177.5,84.3566312 C178.131105,84.3577165 178.642283,84.8688952 178.643369,85.5005427 C178.642283,86.1311048 178.131105,86.6422835 177.5,86.6433688 L177.5,87.3216844" id="Fill-146" fill="#E9843C"></path><polygon id="Fill-152" fill="#CCD7E4" points="39 131 75 131 75 127 39 127"></polygon><path d="M79,129.5 C79,131.433065 77.4330651,133 75.5,133 C73.5669349,133 72,131.433065 72,129.5 C72,127.567447 73.5669349,126 75.5,126 C77.4330651,126 79,127.567447 79,129.5" id="Fill-182" fill="#F2B83C"></path><path d="M77.4573475,128.999566 L76.914695,128.999566 C76.9138268,129.504884 76.5048839,129.913827 76,129.914695 C75.4951161,129.913827 75.0866073,129.504884 75.085305,128.999566 C75.0866073,128.495116 75.4951161,128.086173 76,128.085305 C76.505318,128.086173 76.9138268,128.495116 76.914695,128.999566 L78,128.999566 C77.9995659,127.89516 77.1048405,127.000434 76,127 C74.8955937,127.000434 74.0004341,127.89516 74,128.999566 C74.0004341,130.104406 74.8951595,130.999566 76,131 C77.1048405,130.999566 78,130.104406 78,128.999566 L77.4573475,128.999566" id="Fill-183" fill="#E9843C"></path><path d="M32.6646594,132.096448 L29,132.096448 L29,133 L32.8135833,133 C35.6087344,133 37.8892496,130.774891 38,128 C37.4679269,130.338466 35.2788396,132.096448 32.6646594,132.096448" id="Fill-185" fill="#A7BFD0"></path><path d="M35.9560553,129 C35.9794183,128.862634 36,128.724138 36,128.580554 C36,127.157716 34.800143,126 33.3254927,126 L29,126 L29,127.060486 L33.5012715,127.060486 C34.683328,127.060486 35.6712492,127.888072 35.9560553,129" id="Fill-186" fill="#A7BFD0"></path><polyline id="Fill-187" fill="#7B98FF" points="29 115.988003 29 120.011997 17 127 17 109 29 115.988003"></polyline><path d="M30.0488272,131 L31.9511728,131 C32.5303973,131 33,130.524778 33,129.938623 L33,121 L29,121 L29,129.938623 C29,130.524778 29.4696027,131 30.0488272,131" id="Fill-188" fill="#E9843C"></path><path d="M16.5002324,128 L16.5002324,128 C17.3284276,128 18,127.316473 18,126.472478 L18,108.527522 C18,107.684001 17.3284276,107 16.5002324,107 C15.6715724,107 15,107.684001 15,108.527522 L15,126.472478 C15,127.316473 15.6715724,128 16.5002324,128" id="Fill-189" fill="#F2B83C"></path><path d="M27,123 L33.3814362,123 C34.2755733,123 35,122.316195 35,121.473354 L35,116.526128 C35,115.683287 34.2755733,115 33.3814362,115 L27,115 L27,123" id="Fill-190" fill="#F2B83C"></path><polygon id="Fill-191" fill="#CCD7E4" points="59 100 90 100 90 96 59 96"></polygon><polygon id="Fill-196" fill="#3A537B" points="71 100 72 100 72 96 71 96"></polygon><polygon id="Fill-197" fill="#3A537B" points="74 100 75 100 75 96 74 96"></polygon><polygon id="Fill-198" fill="#3A537B" points="76 100 77 100 77 96 76 96"></polygon><polygon id="Fill-199" fill="#3A537B" points="78 100 79 100 79 96 78 96"></polygon><polygon id="Fill-200" fill="#3A537B" points="80 100 81 100 81 96 80 96"></polygon><polygon id="Fill-201" fill="#3A537B" points="82 100 84 100 84 96 82 96"></polygon><polygon id="Fill-202" fill="#3A537B" points="85 100 86 100 86 96 85 96"></polygon><polygon id="Fill-203" fill="#3A537B" points="87 100 88 100 88 96 87 96"></polygon><polygon id="Fill-204" fill="#3A537B" points="89 100 91 100 91 96 89 96"></polygon><polygon id="Fill-205" fill="#CCD7E4" points="55 96 59 96 59 65 55 65"></polygon><polygon id="Fill-219" fill="#CCD7E4" points="60 65 87 65 87 61 60 61"></polygon><path d="M61,63.5 C61,65.4330651 59.4330651,67 57.5,67 C55.5669349,67 54,65.4330651 54,63.5 C54,61.5669349 55.5669349,60 57.5,60 C59.4330651,60 61,61.5669349 61,63.5" id="Fill-232" fill="#F2B83C"></path><path d="M59.3216844,63.5 L58.6433688,63.5 C58.6422835,64.1311048 58.1311048,64.6422835 57.5,64.6433688 C56.8688952,64.6422835 56.3577165,64.1311048 56.3566312,63.5 C56.3577165,62.8688952 56.8688952,62.3577165 57.5,62.3566312 C58.1311048,62.3577165 58.6422835,62.8688952 58.6433688,63.5 L60,63.5 C59.9994573,62.1189494 58.8810506,61.0005427 57.5,61 C56.1189494,61.0005427 55.0005427,62.1189494 55,63.5 C55.0005427,64.8810506 56.1189494,65.9994573 57.5,66 C58.8810506,65.9994573 59.9994573,64.8810506 60,63.5 L59.3216844,63.5" id="Fill-233" fill="#E9843C"></path><path d="M61,97.5 C61,99.432553 59.4330651,101 57.5,101 C55.5669349,101 54,99.432553 54,97.5 C54,95.5669349 55.5669349,94 57.5,94 C59.4330651,94 61,95.5669349 61,97.5" id="Fill-234" fill="#F2B83C"></path><path d="M59.3216844,97.5 L58.6433688,97.5 C58.6422835,98.1311048 58.1311048,98.6417408 57.5,98.6433688 C56.8688952,98.6417408 56.3577165,98.1311048 56.3566312,97.5 C56.3577165,96.8683525 56.8688952,96.3577165 57.5,96.3566312 C58.1311048,96.3577165 58.6422835,96.8683525 58.6433688,97.5 L60,97.5 C59.9994573,96.1189494 58.8810506,95 57.5,95 C56.1189494,95 55.0005427,96.1189494 55,97.5 C55.0005427,98.8810506 56.1189494,99.9994573 57.5,100 C58.8810506,99.9994573 59.9994573,98.8810506 60,97.5 L59.3216844,97.5" id="Fill-235" fill="#E9843C"></path><path d="M91.3353406,66.0963628 L95,66.0963628 L95,67 L91.1859454,67 C88.3907944,67 86.1102791,64.7751535 86,62 C86.5320731,64.3382145 88.7206891,66.0963628 91.3353406,66.0963628" id="Fill-237" fill="#A7BFD0"></path><path d="M89.0439554,63 C89.0205924,62.863148 88.9994545,62.7245994 89,62.5803959 C88.9994545,61.1575872 90.1998659,60 91.6745139,60 L96,60 L96,61.0603205 L91.4981792,61.0603205 C90.3161244,61.0603205 89.328761,61.8876532 89.0439554,63" id="Fill-238" fill="#A7BFD0"></path><polyline id="Fill-243" fill="#2B478B" points="128 149 107 149 109.277742 133 125.722258 133 128 149"></polyline><path d="M160.009943,137 L74.9895614,137 C72.233725,137 70,134.770222 70,132.019256 L70,78.9812388 C70,76.2297775 72.233725,74 74.9895614,74 L160.009943,74 C162.765779,74 165,76.2302725 165,78.9812388 L165,132.019256 C165,134.770222 162.765779,137 160.009943,137" id="Fill-244" fill="#7B98FF"></path><polygon id="Fill-245" fill="#C1D2FE" points="75 130 160 130 160 80 75 80"></polygon><path d="M149,153 L85,153 C85,150.23877 87.2723659,148 90.0750321,148 L143.924968,148 C146.728123,148 149,150.23877 149,153" id="Fill-246" fill="#7A97FD"></path><path d="M70,129 L70,132.663822 C70,135.058679 72.0586961,137 74.5983497,137 L160.401155,137 C162.940808,137 165,135.058679 165,132.663822 L165,129 L70,129" id="Fill-247" fill="#7B98FF"></path><path d="M119,133.499746 C119,134.328714 118.328714,135 117.499746,135 C116.671286,135 116,134.328714 116,133.499746 C116,132.671286 116.671286,132 117.499746,132 C118.328714,132 119,132.671286 119,133.499746" id="Fill-248" fill="#2B478B"></path><path d="M155,124 L101,124 L101,119.295672 L106.264608,119.295672 L106.264608,119.487363 L149.735392,119.487363 L149.735392,118.024486 L108.253908,118.024486 L108.253908,115.869942 L149.735392,115.869942 L149.735392,114.407065 L108.253908,114.407065 L108.253908,112.25252 L149.735392,112.25252 L149.735392,110.789644 L108.253908,110.789644 L108.253908,108.634605 L126.485386,108.634605 L126.485386,107.172222 L108.253908,107.172222 L108.253908,105.017184 L126.485386,105.017184 L126.485386,103.554801 L108.253908,103.554801 L108.253908,101.400256 L126.485386,101.400256 L126.485386,99.9373794 L107.57916,99.9373794 L105.605609,97.9562459 L105.605609,92 L155,92 L155,124 L155,124 Z M129.08,108.657534 L149.816,108.657534 L149.816,96.3835616 L129.08,96.3835616 L129.08,108.657534 Z M106.184,97.6986301 L126.488,97.6986301 L126.488,96.3835616 L106.184,96.3835616 L106.184,97.6986301 Z" id="Fill-249" fill="#FFFFFF"></path><path d="M107,92 L156,92 L156,85 L107,85 L107,92 Z M152.561145,87 C151.849283,87 151.27193,87.6722166 151.27193,88.5003009 C151.27193,89.3283852 151.849283,90 152.561145,90 C153.273007,90 153.850877,89.3283852 153.850877,88.5003009 C153.850877,87.6722166 153.273007,87 152.561145,87 L152.561145,87 Z M147.833333,87 C147.120811,87 146.54386,87.6722166 146.54386,88.5003009 C146.54386,89.3283852 147.120811,90 147.833333,90 C148.545338,90 149.122807,89.3283852 149.122807,88.5003009 C149.122807,87.6722166 148.545338,87 147.833333,87 L147.833333,87 Z M143.105522,87 C142.39366,87 141.815789,87.6722166 141.815789,88.5003009 C141.815789,89.3283852 142.39366,90 143.105522,90 C143.817901,90 144.394737,89.3283852 144.394737,88.5003009 C144.394737,87.6722166 143.817901,87 143.105522,87 L143.105522,87 Z" id="Fill-250" fill="#7C96F0"></path><path d="M142.500301,90 C141.672217,90 141,89.3283852 141,88.5003009 C141,87.6722166 141.672217,87 142.500301,87 C143.328987,87 144,87.6722166 144,88.5003009 C144,89.3283852 143.328987,90 142.500301,90" id="Fill-251" fill="#6AABD1"></path><path d="M147.5,90 C146.671148,90 146,89.3283852 146,88.5003009 C146,87.6722166 146.671148,87 147.5,87 C148.32825,87 149,87.6722166 149,88.5003009 C149,89.3283852 148.32825,90 147.5,90" id="Fill-252" fill="#6AABD1"></path><path d="M152.499699,90 C151.671615,90 151,89.3283852 151,88.5003009 C151,87.6722166 151.671615,87 152.499699,87 C153.327783,87 154,87.6722166 154,88.5003009 C154,89.3283852 153.327783,90 152.499699,90" id="Fill-253" fill="#6AABD1"></path><polygon id="Fill-254" fill="#DBE5ED" points="129 108 150 108 150 95 129 95"></polygon><polygon id="Fill-255" fill="#DBE5ED" points="106 98 126 98 126 96 106 96"></polygon><polyline id="Fill-256" fill="#DBE5ED" points="126 101 108.642405 101 108.642405 99.9260385 108 99 126 99 126 101"></polyline><polygon id="Fill-257" fill="#DBE5ED" points="109 105 127 105 127 103 109 103"></polygon><polygon id="Fill-258" fill="#DBE5ED" points="109 108 127 108 127 106 109 106"></polygon><polygon id="Fill-259" fill="#DBE5ED" points="110 113 151 113 151 111 110 111"></polygon><polygon id="Fill-260" fill="#DBE5ED" points="110 116 151 116 151 114 110 114"></polygon><polyline id="Fill-261" fill="#DBE5ED" points="151 120 107 120 107 119.737926 109.013518 119.737926 109.013518 118 151 118 151 120"></polyline><g id="Group-68" transform="translate(29.000000, 57.000000)"><path d="M9.89782192,14.6386108 L4.10266597,14.6386108 C1.83690538,14.6386108 0,12.7283835 0,10.3721829 L0,4.34570772 C0,1.98950711 1.83690538,0.079787234 4.10266597,0.079787234 L9.89782192,0.079787234 C12.1635825,0.079787234 14,1.98950711 14,4.34570772 L14,10.3721829 C14,12.7283835 12.1635825,14.6386108 9.89782192,14.6386108" id="Fill-264" fill="#CCD7E4"></path><path d="M9.75757576,10.2268461 C9.75757576,11.201421 8.99777305,11.9915519 8.06060606,11.9915519 C7.12343907,11.9915519 6.36363636,11.201421 6.36363636,10.2268461 C6.36363636,9.25227114 7.12343907,8.46214018 8.06060606,8.46214018 C8.99777305,8.46214018 9.75757576,9.25227114 9.75757576,10.2268461" id="Fill-265" fill="#FFFFFF"></path><path d="M5.09090909,7.57978723 C5.09090909,8.55460231 4.33094302,9.34449312 3.39368539,9.34449312 C2.45642777,9.34449312 1.6969697,8.55460231 1.6969697,7.57978723 C1.6969697,6.60497216 2.45642777,5.81508135 3.39368539,5.81508135 C4.33094302,5.81508135 5.09090909,6.60497216 5.09090909,7.57978723" id="Fill-266" fill="#FFFFFF"></path><path d="M9.75757576,2.94692626 C9.75757576,3.55656671 9.28272127,4.05037547 8.6969697,4.05037547 C8.11121812,4.05037547 7.63636364,3.55656671 7.63636364,2.94692626 C7.63636364,2.33779385 8.11121812,1.84449312 8.6969697,1.84449312 C9.28272127,1.84449312 9.75757576,2.33779385 9.75757576,2.94692626" id="Fill-267" fill="#FFFFFF"></path><polyline id="Fill-268" fill="#FFFFFF" points="8.17159063 3.16802253 3.39393939 7.62760074 8.2067618 10.6680225 8.45014627 10.2506236 4.17755298 7.55144373 8.48484848 3.53172102 8.17159063 3.16802253"></polyline></g><path d="M219,100.50067 C219,101.880557 217.880407,103 216.499665,103 C215.118923,103 214,101.880557 214,100.50067 C214,99.119443 215.118923,98 216.499665,98 C217.880407,98 219,99.119443 219,100.50067" id="Fill-271" fill="#7C98FD"></path><path d="M216.499748,104.526316 C214.276173,104.526316 212.473684,102.723714 212.473684,100.500505 C212.473684,98.276791 214.276173,96.4736842 216.499748,96.4736842 C218.723827,96.4736842 220.526316,98.276791 220.526316,100.500505 C220.526316,102.723714 218.723827,104.526316 216.499748,104.526316 Z M225,100.500261 C225,99.8062981 224.91495,99.1326847 224.758417,98.4867254 L222.614438,98.9072772 C222.466253,98.3369755 222.239281,97.799024 221.948651,97.3033363 L223.763911,96.0834229 C223.056383,94.9219484 222.078052,93.9436174 220.917099,93.2360885 L219.696664,95.0518707 C219.200976,94.7607194 218.663024,94.5337467 218.092723,94.3855621 L218.513275,92.2421043 C217.867837,92.0850496 217.193702,92 216.500261,92 C215.806298,92 215.132685,92.0850496 214.487247,92.2421043 L214.907799,94.3855621 C214.337497,94.5337467 213.799546,94.7607194 213.303858,95.0518707 L212.083945,93.2360885 C210.92247,93.9436174 209.944139,94.9219484 209.23661,96.0834229 L211.052392,97.3033363 C210.760719,97.799024 210.534268,98.3369755 210.386084,98.9072772 L208.242104,98.4867254 C208.08505,99.1326847 208,99.8062981 208,100.500261 C208,101.193702 208.08505,101.867315 208.242104,102.512753 L210.386084,102.092723 C210.534268,102.662503 210.760719,103.200976 211.052392,103.696664 L209.23661,104.916577 C209.944139,106.07753 210.92247,107.055861 212.083945,107.76339 L213.303858,105.947608 C213.799546,106.239281 214.337497,106.465732 214.907799,106.614438 L214.487247,108.757896 C215.132685,108.91495 215.806298,109 216.500261,109 C217.193702,109 217.867837,108.91495 218.513275,108.757896 L218.092723,106.614438 C218.663024,106.465732 219.200976,106.239281 219.696664,105.947608 L220.917099,107.76339 C222.078052,107.055861 223.056383,106.07753 223.763911,104.916577 L221.948651,103.696664 C222.239281,103.200976 222.466253,102.662503 222.614438,102.092723 L224.758417,102.512753 C224.91495,101.867315 225,101.193702 225,100.500261 Z" id="Fill-272" fill="#CCD7E4"></path><polygon id="Fill-273" fill="#FFFFFF" points="123 88 162 88 162 60 123 60"></polygon><polygon id="Fill-274" fill="#7C96F0" points="123 65 162 65 162 61 123 61"></polygon><path d="M153,63 C153,63.5524554 152.551897,64 152,64 C151.448103,64 151,63.5524554 151,63 C151,62.4475446 151.448103,62 152,62 C152.551897,62 153,62.4475446 153,63" id="Fill-275" fill="#FFFFFF"></path><path d="M157,63 C157,63.5524554 156.551897,64 156,64 C155.446987,64 155,63.5524554 155,63 C155,62.4475446 155.446987,62 156,62 C156.551897,62 157,62.4475446 157,63" id="Fill-276" fill="#FFFFFF"></path><path d="M160,63 C160,63.5524554 159.553013,64 159,64 C158.448103,64 158,63.5524554 158,63 C158,62.4475446 158.448103,62 159,62 C159.553013,62 160,62.4475446 160,63" id="Fill-277" fill="#FFFFFF"></path><polygon id="Fill-278" fill="#DBE5ED" points="143 76 158 76 158 67 143 67"></polygon><polygon id="Fill-279" fill="#DBE5ED" points="127 69 142 69 142 68 127 68"></polygon><polygon id="Fill-280" fill="#DBE5ED" points="127 71 142 71 142 70 127 70"></polygon><polygon id="Fill-281" fill="#DBE5ED" points="127 74 142 74 142 72 127 72"></polygon><polygon id="Fill-282" fill="#DBE5ED" points="127 77 142 77 142 75 127 75"></polygon><polygon id="Fill-283" fill="#DBE5ED" points="126 80 157 80 157 79 126 79"></polygon><polygon id="Fill-284" fill="#DBE5ED" points="126 82 157 82 157 81 126 81"></polygon><polygon id="Fill-285" fill="#DBE5ED" points="126 85 157 85 157 83 126 83"></polygon><path d="M61,153.500499 C61,159.851103 55.8514905,165 49.4997507,165 C43.1485095,165 38,159.851103 38,153.500499 C38,147.148897 43.1485095,142 49.4997507,142 C55.8514905,142 61,147.148897 61,153.500499" id="Fill-290" fill="#FFFFFE"></path><polyline id="Fill-297" fill="#6785EF" points="94.9997538 87 81 100.599686 94.9997538 115 109 100.599686 94.9997538 87"></polyline><path d="M88.7761874,77 L111,77 C108.361581,77 106.223325,79.174775 106.223325,81.8577586 L106.223325,115 L84,115 L84,81.8577586 C84,79.174775 86.1382563,77 88.7761874,77" id="Fill-298" fill="#EEF4F8"></path><path d="M96.9441291,107.066 L96.9164171,107 L97,107 L96.9441291,107.066 M92.0558709,107.066 L92,107 L92.0831359,107 L92.0558709,107.066" id="Fill-299" fill="#67A4CD"></path><polyline id="Fill-300" fill="#DBE5ED" points="99.5070786 105 94.6323884 105 93.9997623 104.139831 93.3676116 105 88.4929214 105 87 104 101 104 99.5070786 105"></polyline><polygon id="Fill-301" fill="#DBE5ED" points="86 102 104 102 104 101 86 101"></polygon><polygon id="Fill-302" fill="#DBE5ED" points="86 100 104 100 104 99 86 99"></polygon><path d="M104,98 L98.5581395,98 C98.7794983,97.6918886 98.9765918,97.3565375 99.1459536,97 L104,97 L104,98 M91.4418605,98 L86,98 L86,97 L90.8540999,97 C91.0234463,97.3565375 91.2205218,97.6918886 91.4418605,98" id="Fill-303" fill="#DBE5ED"></path><path d="M104,95 L99.8139535,95 C99.8566132,94.6745312 99.8786786,94.3405929 99.8791689,94 L104,94 L104,95 M90.1860465,95 L86,95 L86,94 L90.1208387,94 C90.121329,94.3405929 90.1433918,94.6745312 90.1860465,95" id="Fill-304" fill="#DBE5ED"></path><path d="M104,92 L99.7562857,92 C99.6584045,91.3022975 99.5374648,90.6336155 99.3953488,90 L104,90 L104,92 M90.2437512,92 L86,92 L86,90 L90.6046512,90 C90.4625497,90.6336155 90.3416223,91.3022975 90.2437512,92" id="Fill-305" fill="#DBE5ED"></path><path d="M104,90 L97.5891611,90 C96.8945681,89.438862 96.082909,89.0823245 95.2093023,89 L104,89 L104,90 M92.410971,90 L86,90 L86,89 L94.7906977,89 C93.9171395,89.0823245 93.1050376,89.438862 92.410971,90" id="Fill-306" fill="#DBE5ED"></path><polygon id="Fill-307" fill="#DBE5ED" points="86 87 104 87 104 86 86 86"></polygon><polygon id="Fill-308" fill="#DBE5ED" points="86 85 104 85 104 83 86 83"></polygon><polygon id="Fill-309" fill="#DBE5ED" points="86 82 104 82 104 81 86 81"></polygon><path d="M111.046411,77 L88,77 C90.7356322,77 92.9535892,79.1024349 92.9535892,81.6961737 L92.9535892,85 L116,85 L116,81.6961737 C116,79.1024349 113.782043,77 111.046411,77" id="Fill-310" fill="#FFFFFF"></path><polyline id="Fill-311" fill="#D4EBF0" points="84 102 81 100 84 101.58209 84 102"></polyline><polyline id="Fill-313" fill="#DBE5ED" points="91.1177518 107 90.4759549 107 89 106 91.9257867 106 92 106.039927 91.1177518 107"></polyline><polyline id="Fill-314" fill="#DBE5ED" points="89 105 87.2416722 105 86 104 87.4305463 104 89 105"></polyline><polyline id="Fill-315" fill="#D4EBF0" points="106 102 106 101.582332 109 100 106 102"></polyline><polyline id="Fill-317" fill="#DBE5ED" points="98.5234514 107 97.8822482 107 97 106.039927 97.0742133 106 100 106 98.5234514 107"></polyline><polyline id="Fill-318" fill="#DBE5ED" points="102.757828 105 101 105 102.569454 104 104 104 102.757828 105"></polyline><polyline id="Fill-319" fill="#7C98FD" points="95 109.999524 81 101 81 119 95 109.999524"></polyline><polyline id="Fill-320" fill="#7C98FD" points="95 109.999524 109 101 109 119 95 109.999524"></polyline><path d="M99.4078488,98 L91.5921512,98 C91.3691591,97.6918886 91.1706114,97.3565375 91,97 L100,97 C99.8293886,97.3565375 99.6308409,97.6918886 99.4078488,98" id="Fill-322" fill="#DBE5ED"></path><path d="M99.9361712,95 L90.0638288,95 C90.0220761,94.6745312 90.0004799,94.3405929 90,94 L100,94 C99.9995201,94.3405929 99.9779239,94.6745312 99.9361712,95" id="Fill-323" fill="#DBE5ED"></path><path d="M100,92 L90,92 C90.1060737,91.3022975 90.237136,90.6336155 90.3911469,90 L99.6088531,90 C99.762864,90.6336155 99.8939263,91.3022975 100,92" id="Fill-324" fill="#5796C4"></path><path d="M98,90 L92,90 C92.7516507,89.438862 93.6311295,89.0823245 94.5771635,89 L95.4228365,89 C96.3688705,89.0823245 97.2478211,89.438862 98,90" id="Fill-325" fill="#5796C4"></path><path d="M100,92.499736 C100,95.5378413 97.7616739,98 94.99976,98 C92.2383261,98 90,95.5378413 90,92.499736 C90,89.4621587 92.2383261,87 94.99976,87 C97.7616739,87 100,89.4621587 100,92.499736" id="Fill-326" fill="#DF504C"></path><path d="M93.5,93.6595206 C93.5,94.2193076 93.7269841,94.5 94.1809524,94.5 C94.4185185,94.5 94.5994709,94.4158455 94.7232804,94.247004 C94.8470899,94.0781625 94.9222222,93.8038615 94.9486772,93.4241012 L95,92.5436751 C94.8656085,92.5143808 94.7137566,92.5 94.5455026,92.5 C94.2153439,92.5 93.9582011,92.6033289 93.7751323,92.8105193 C93.5915344,93.0182423 93.5,93.3010652 93.5,93.6595206 Z M98,93.1207785 C98,93.5323412 97.9341028,93.9084144 97.8028815,94.2495707 C97.6716601,94.590727 97.486002,94.8580424 97.245907,95.0520893 C97.005812,95.2461362 96.7267518,95.3434459 96.4098723,95.3434459 C96.1984283,95.3434459 96.0110511,95.2925014 95.8483137,95.1911849 C95.6855763,95.0904408 95.5681074,94.9564969 95.497053,94.7910704 L95.4282908,94.7910704 C95.1200065,95.1591299 94.7269155,95.3434459 94.2495907,95.3434459 C93.7436149,95.3434459 93.3447937,95.1911849 93.0537001,94.8872353 C92.7620334,94.5832856 92.6164866,94.1671437 92.6164866,93.6388094 C92.6164866,93.0372066 92.8078749,92.5518031 93.1906516,92.1831712 C93.5734283,91.8151116 94.0736739,91.6313681 94.6913883,91.6313681 C94.9366405,91.6313681 95.2076785,91.6548369 95.5033563,91.7017745 C95.7990341,91.7492845 96.0425671,91.8048082 96.2345285,91.8712078 L96.1353962,93.9645106 C96.1353962,94.3611906 96.2442698,94.5598168 96.461444,94.5598168 C96.6442371,94.5598168 96.7897839,94.4258729 96.8986575,94.1597023 C97.0069581,93.8929594 97.0613949,93.5432169 97.0613949,93.1121923 C97.0613949,92.6531196 96.9657007,92.2472811 96.7743124,91.8946766 C96.582351,91.5414997 96.3136051,91.2730395 95.9663556,91.0870063 C95.6191061,90.9015455 95.2225769,90.8088151 94.7767682,90.8088151 C94.199165,90.8088151 93.6977734,90.9273039 93.2720203,91.1642816 C92.8462672,91.4012593 92.5196464,91.742988 92.2927308,92.1900401 C92.0652423,92.6365197 91.9517845,93.1528334 91.9517845,93.7378363 C91.9517845,94.5254722 92.1626555,95.129937 92.5838245,95.5506583 C93.0055665,95.9725243 93.6164047,96.1825987 94.4163392,96.1825987 C94.7194663,96.1825987 95.0529633,96.1488266 95.4156843,96.0818546 C95.7784054,96.0148827 96.1353962,95.9170006 96.4866568,95.7882084 L96.4866568,96.6107613 C95.8758186,96.8706354 95.1967911,97 94.4512934,97 C93.3648494,97 92.5185003,96.7143675 91.9111002,96.1436749 C91.3042731,95.5729823 91,94.7796222 91,93.7630223 C91,93.0583858 91.1552881,92.4184316 91.4652914,91.8431597 C91.7752947,91.2678878 92.2170923,90.8168288 92.7895383,90.4899828 C93.3625573,90.1631368 94.0221022,90 94.7681729,90 C95.3967747,90 95.9583333,90.1282198 96.4528487,90.3852318 C96.9473641,90.6422438 97.3284217,91.0074413 97.5971676,91.4813967 C97.8659136,91.955352 98,92.501431 98,93.1207785 L98,93.1207785 Z" id="Fill-327" fill="#FFFFFE"></path><polyline id="Fill-328" fill="#3375AE" points="101 119 80 119 86.0059103 115 94.0275813 115 94.1731308 115.154269 94.3191787 115 101 115 101 119"></polyline><polyline id="Fill-329" fill="#6FA8CF" points="105.920423 119 101 119 101 115 102.236891 115 106 117.715427 105.920423 117.715427 105.920423 119"></polyline><polyline id="Fill-330" fill="#689FC9" points="109 119 106 119 106 117 106.128402 117 109 119"></polyline><polyline id="Fill-331" fill="#D4EBF0" points="94.4995 115.6545 94.2075 115.3455 94.7925 115.3455 94.4995 115.6545"></polyline><path d="M102,115 L88,115 L90.7214388,113.181818 L99.2790647,113.181818 L102,115 M98.0625,112.272727 L91.9375,112.272727 L94.7241381,110.454545 L95.2758619,110.454545 L98.0625,112.272727 M95.9487981,109.545455 L94.0512019,109.545455 L93.6875,109.291862 L94.9997559,108.184764 L94.1717849,107.727273 L95.8282151,107.727273 L94.9997559,108.184764 L96.3125,109.291862 L95.9487981,109.545455 M97.625,106.818182 L92.8125,106.818182 L94.5309545,105 L95.9070626,105 L97.625,106.818182" id="Fill-332" fill="#67A4CD"></path><polyline id="Fill-333" fill="#5796C4" points="95.278621 111 94.721379 111 94.9997427 110.563218 94 109 96 109 94.9997427 110.563218 95.278621 111"></polyline><polyline id="Fill-334" fill="#5796C4" points="94.7196946 107 93.2803054 107 92 106.039927 92.0258776 106 95.9736982 106 96 106.039927 94.7196946 107"></polyline><polyline id="Fill-335" fill="#5796C4" points="99 112 91 112 92.1698935 111 97.8301065 111 99 112"></polyline><polyline id="Fill-336" fill="#326CA7" points="101 114.913 94 114.913 94.4073715 114.087 101 114.087 101 114.913"></polyline><polyline id="Fill-337" fill="#5E99C6" points="103 114.913 101 114.913 101 114.087 102.076237 114.087 103 114.913"></polyline><polyline id="Fill-338" fill="#326CA7" points="94 114.913 86 114.913 86.6179084 114.087 93.6122538 114.087 94 114.913"></polyline><polyline id="Fill-339" fill="#B2D7E4" points="95.6363636 114.913 95.3636364 114.913 95 114.087 96 114.087 95.6363636 114.913"></polyline><polyline id="Fill-340" fill="#5796C4" points="102 114.913 87 114.913 87.615156 114.087 101.384349 114.087 102 114.913"></polyline><polyline id="Fill-341" fill="#5796C4" points="96 105 94 105 94.9996242 104 96 105"></polyline><polyline id="Fill-342" fill="#5796C4" points="93.3746032 108 91 106.290111 91.2509448 106 93.974452 106 95 106.584807 93.3746032 108"></polyline><polyline id="Fill-343" fill="#4F8ABC" points="94 107 91 107 91.9897869 106 94 107"></polyline><polyline id="Fill-344" fill="#5796C4" points="96.6257557 108 95 106.584807 96.0259976 106 98.7490931 106 99 106.290111 96.6257557 108"></polyline><polyline id="Fill-345" fill="#4F8ABC" points="98 107 95 107 97.0102131 106 98 107"></polyline><polyline id="Fill-346" fill="#D4EBF0" points="81 119 91.7429838 107 93.676514 108.344433 94.0433284 108.599313 95 109.264578 94.7336288 109.450461 92.0403742 111.322678 90.816839 112.173825 87.5445593 114.449217 86.9325455 114.874533 81 119"></polyline><polyline id="Fill-347" fill="#D4EBF0" points="109 119 102.455671 114.449217 101.843679 114.0239 97.9600141 111.322678 95.2668542 109.450461 95 109.264578 96.3239318 108.344433 98.2573941 107 109 119"></polyline><polyline id="Fill-348" fill="#7C98FD" points="94.9997538 105 81 119 109 119 94.9997538 105"></polyline><path d="M105.000211,64 L95.0002643,64 C92.7910566,64 91,62.2088961 91,60.0001057 L91,49.9998943 C91,47.7906282 92.7910566,46 95.0002643,46 L105.000211,46 C107.209419,46 109,47.7906282 109,49.9998943 L109,60.0001057 C109,62.2088961 107.209419,64 105.000211,64" id="Fill-349" fill="#DF504C"></path><polyline id="Fill-350" fill="#FFFFFE" points="105 55.5004927 97 51 97 60 105 55.5004927"></polyline><polyline id="Fill-385" fill="#CCD7E4" points="175 141.540625 186.541052 130 189 132.458857 177.458948 144 175 141.540625"></polyline><path d="M184,131.5 C184,129.566935 185.566935,128 187.5,128 C189.432553,128 191,129.566935 191,131.5 C191,133.433065 189.432553,135 187.5,135 C185.566935,135 184,133.433065 184,131.5" id="Fill-393" fill="#F2B83C"></path><path d="M185.678316,131.5 L186.356631,131.5 C186.357717,130.868895 186.868353,130.357717 187.5,130.356631 C188.131105,130.357717 188.641741,130.868895 188.643369,131.5 C188.641741,132.131647 188.131105,132.642283 187.5,132.643369 C186.868353,132.642283 186.357717,132.131105 186.356631,131.5 L185,131.5 C185,132.881051 186.118949,133.999457 187.5,134 C188.881051,133.999457 189.999457,132.881051 190,131.5 C189.999457,130.118949 188.881051,129.000543 187.5,129 C186.118949,129.000543 185.000543,130.118949 185,131.5 L185.678316,131.5" id="Fill-394" fill="#E9843C"></path><path d="M166,144.739692 L169.03159,141.708493 C171.309387,139.430591 175.014781,139.430591 177.292049,141.707963 C179.569317,143.985865 179.569317,147.691429 177.292049,149.968271 L174.260459,153 L171.844405,150.583835 L174.875465,147.552106 C175.819956,146.607042 175.820486,145.069193 174.875465,144.124658 C173.930444,143.179594 172.393195,143.179594 171.448704,144.124658 L168.416584,147.156387 L166,144.739692" id="Fill-395" fill="#FFFFFE"></path><path d="M177.137071,149.735754 L175,152.355822 L175.525426,153 L177.749551,150.273204 C179.379072,148.275395 179.414437,145.057843 177.864585,143 C178.91466,145.048313 178.660886,147.867067 177.137071,149.735754" id="Fill-396" fill="#A7BFD0"></path><path d="M169.267706,140.052219 L173.138634,140.050189 C176.047091,140.048665 178.412281,142.489659 178.410708,145.490739 C178.409133,148.492314 176.041383,150.935789 173.132925,150.937314 L169.261998,150.939344 L169.263668,147.754614 L173.134595,147.752585 C174.341509,147.751952 175.324123,146.737912 175.324776,145.492357 C175.325429,144.247297 174.343878,143.234286 173.136964,143.234919 L169.266036,143.236949 L169.267706,140.052219" id="Fill-184" fill="#DBEEF2" transform="translate(173.836353, 145.494766) rotate(-47.000000) translate(-173.836353, -145.494766) "></path><path d="M175,144.901203 C174.921629,144.803657 174.839368,144.707076 174.739876,144.621119 C173.750516,143.761549 172.098618,143.798733 171.056455,144.704178 L168,147.359669 L168.737018,148 L171.918533,145.236339 C172.752819,144.510534 174.026203,144.404295 175,144.901203" id="Fill-397" fill="#A7BFD0"></path><path d="M164.985496,135 L162,137.985923 L172.396224,148.381357 C173.220597,149.206214 174.557348,149.206214 175.381721,148.381357 C176.206093,147.557007 176.206093,146.220799 175.381721,145.396449 L164.985496,135" id="Fill-398" fill="#3A537B"></path><path d="M168,130.499748 C168,136.298771 163.298771,141 157.499748,141 C151.700724,141 147,136.298771 147,130.499748 C147,124.701229 151.700724,120 157.499748,120 C163.298771,120 168,124.701229 168,130.499748" id="Fill-399" fill="#3A537B"></path><path d="M164,129.999761 C164,133.866114 160.866221,137 157,137 C153.134257,137 150,133.866114 150,129.999761 C150,126.133886 153.134257,123 157,123 C160.866221,123 164,126.133886 164,129.999761" id="Fill-400" fill="#A5D1E6"></path><path d="M158.862547,126.049969 C158.553337,125.922926 158.193107,126.046711 158.054994,126.324066 C157.915334,126.600489 158.050871,126.927637 158.357504,127.053284 C159.828829,127.657321 160.779651,128.990111 160.779651,130.448549 C160.779651,130.752894 161.052271,131 161.389825,131 C161.726864,131 162,130.752894 162,130.448549 C162,128.558723 160.768313,126.832239 158.862547,126.049969" id="Fill-401" fill="#FFFFFE"></path><path d="M157.236203,125.007547 C157.0961,125.002516 156.95531,125 156.813147,125 C156.363306,125 156,125.222222 156,125.496855 C156,125.77065 156.363306,125.993291 156.813147,125.993291 C156.920971,125.993291 157.030169,125.994969 157.13662,125.999161 L157.187442,126 C157.613932,126 157.972431,125.796646 157.998528,125.533333 C158.025313,125.259539 157.683296,125.024319 157.236203,125.007547" id="Fill-402" fill="#FFFFFE"></path><path d="M169,48 L186,48 C187.104569,48 188,47.1045695 188,46 L188,34 C188,32.8954305 187.104569,32 186,32 L169,32 C167.895431,32 167,32.8954305 167,34 L167,46 C167,47.1045695 167.895431,48 169,48 Z" id="Fill-405" fill="#7A94FC"></path><polygon id="Fill-406" fill="#FFFFFF" points="169 46 186 46 186 34 169 34"></polygon><polyline id="Fill-407" fill="#A5D1E6" points="180 39 175 46 185 46 180 39"></polyline><polyline id="Fill-408" fill="#78B3D5" points="175.500254 38 169 46 182 46 175.500254 38"></polyline><path d="M182,36.4997464 C182,37.3279797 181.328881,38 180.5,38 C179.671627,38 179,37.3279797 179,36.4997464 C179,35.6715131 179.671627,35 180.5,35 C181.328881,35 182,35.6715131 182,36.4997464" id="Fill-409" fill="#F2B83C"></path><g id="Group-75" transform="translate(105.000000, 18.000000)"><path d="M13,6.76515707 C13,10.4554038 10.0897154,13.4469753 6.50026022,13.4469753 C2.91028464,13.4469753 0,10.4554038 0,6.76515707 C0,3.07491033 2.91028464,0.0833388915 6.50026022,0.0833388915 C10.0897154,0.0833388915 13,3.07491033 13,6.76515707" id="Fill-410" fill="#7C98FD"></path><path d="M5.37931034,9.06923231 C5.37931034,9.70521704 4.87786062,10.2212699 4.25862069,10.2212699 C3.63994167,10.2212699 3.13793103,9.70521704 3.13793103,9.06923231 C3.13793103,8.43267098 3.63994167,7.91719469 4.25862069,7.91719469 C4.87786062,7.91719469 5.37931034,8.43267098 5.37931034,9.06923231" id="Fill-411" fill="#FFFFFF"></path><path d="M10.3103448,10.2212699 L9.27802527,10.2212699 C9.27802527,6.99482881 6.72458106,4.3696336 3.5862069,4.3696336 L3.5862069,3.30904422 C7.29366064,3.30904422 10.3103448,6.4098754 10.3103448,10.2212699" id="Fill-412" fill="#FFFFFF"></path><path d="M8.06896552,10.2212699 L7.02881295,10.2212699 C7.02881295,8.27003767 5.48456265,6.68224427 3.5862069,6.68224427 L3.5862069,5.61311946 C6.05824442,5.61311946 8.06896552,7.68037666 8.06896552,10.2212699" id="Fill-413" fill="#FFFFFF"></path></g><g id="Group-49" transform="translate(66.000000, 75.000000)"><path d="M42.910831,20.469425 C42.5253768,21.5744131 41.8546863,22.8564617 41.1531595,23.1745147 C40.3560401,23.5368327 40.0230076,24.0467012 40.0230076,24.0467012 L39.3800698,23.6499547 L38.6122449,23.1745147 C38.6122449,23.1745147 38.6307467,23.084345 38.6677503,22.9367947 C38.7047539,22.7892443 38.763343,22.5843133 38.8404338,22.3580694 C38.8404338,22.3580694 39.0763319,22.0350981 38.931401,21.6301544 C38.7880121,21.2268501 38.8157648,20.6022203 39.0624555,20.2202289 C39.3091462,19.8398769 39.5465861,18.9021125 39.6961423,18.9283436 C40.0553857,18.995561 39.5188334,20.2841674 39.6730151,20.5235268 C39.8117786,20.739934 39.986004,20.6661588 40.0183821,20.6497643 L40.0230076,20.6464854 C41.031356,20.1743243 42.254017,17.6348189 42.7951948,17.9774636 C42.9971728,18.1053406 43.0758055,19.9989034 42.910831,20.469425" id="Fill-655" fill="#FF9490"></path><path d="M21.0842328,15.3311048 C21.0842328,15.3311048 27.5758095,26.5693018 29.9297266,28.6366477 L38.5649101,22.2475131 C38.5649101,22.2475131 39.8174246,22.6278923 40.3673469,23.8772681 C40.3673469,23.8772681 35.1236111,34.4814997 29.9608837,34.9299143 C24.7981562,35.3798751 17.5510204,22.2212267 17.5510204,22.2212267 L21.0842328,15.3311048" id="Fill-658" fill="#1B2251"></path><path d="M13.4382875,94.6430314 C13.0291649,94.1430695 13.1804631,92.2964607 13.2422174,91.6943393 C13.2545683,91.5736054 13.2638314,91.5024034 13.2638314,91.5024034 C13.2638314,91.5024034 16.1662865,89.1744071 16.5646021,90.9575532 C16.576953,91.0132765 16.5908477,91.067452 16.6078302,91.1216274 C17.1095844,92.7886833 18.9175245,93.1513722 20.2174539,93.3634304 C21.0634886,93.5011908 21.1494197,94.3350053 21.2652091,94.6430314" id="Fill-660-Copy" fill="#1B2251"></path><path d="M20.0199202,92.8999122 C19.6107975,92.3999502 19.7620957,90.5533414 19.8238501,89.95122 C19.8362009,89.8304862 19.8454641,89.7592841 19.8454641,89.7592841 C19.8454641,89.7592841 22.7479191,87.4312878 23.1462348,89.2144339 C23.1585856,89.2701573 23.1724804,89.3243327 23.1894628,89.3785081 C23.691217,91.045564 25.4991572,91.4082529 26.7990865,91.6203111 C27.6451213,91.7580715 27.7310523,92.5918861 27.8468418,92.8999122" id="Fill-660-Copy-2" fill="#1B2251"></path><path d="M25.3701023,57.2049439 C24.6662573,66.353878 23.8222594,77.5899078 23.7390917,79.7178961 C23.5943184,83.4139585 23.7390917,89.0911856 23.7390917,89.0911856 C23.7390917,89.0911856 21.2652091,90.4243119 19.1731462,89.8295946 C19.1731462,89.8295946 18.7953558,80.8339856 18.0961312,71.9036697 C17.4793919,67.1160224 16.2038876,47.0642202 16.2038876,42.706422 C19.4814201,42.5824855 22.8556344,43.3035222 26.3265306,44.8695322 C26.3265306,44.8695322 25.8860499,50.4718192 25.3701023,57.2049439 Z" id="Fill-661" fill="#5F81F6"></path><path d="M15.5381054,77.0443065 C12.1714644,85.7969038 10.4881438,90.1732024 10.4881438,90.1732024 C10.4881438,90.1732024 8.7877538,91.1235555 6.09582132,89.718439 C6.09582132,89.718439 9.50292799,74.9929261 12.1555603,65.0931674 C14.8081927,55.1934087 17.8288375,41.734699 17.8288375,41.734699 L28.5447582,43.7605029 C27.7836261,44.9969281 23.4480751,56.0915293 15.5381054,77.0443065 Z" id="Fill-663" fill="#6B8CFD" transform="translate(17.320290, 66.111033) rotate(-15.000000) translate(-17.320290, -66.111033) "></path><path d="M14.0408163,14.3683513 C14.0408163,14.3683513 16.8561726,12.2755186 16.7088751,7.92284794 L19.0686722,9.80805236 L20.622449,10.8944954 C20.622449,10.8944954 20.4028599,13.1384876 20.3138675,14.3262238 C21.6258782,15.0378772 22.377551,15.990259 22.377551,15.990259 C19.3237854,16.9456499 14.0408163,14.3683513 14.0408163,14.3683513 Z" id="Fill-664" fill="#FF9490"></path><path d="M15.9052954,8.6082463 C15.4016841,5.52056526 14.3718636,3.54796286 17.772854,2.89290998 C21.1754587,2.23785711 22.0341805,3.32316062 22.4732263,4.31616122 C22.9138862,5.30916183 23.1511646,10.5808487 21.7694617,10.8741337 C21.7694617,10.8741337 16.4089067,11.6959273 15.9052954,8.6082463 Z" id="Fill-666" fill="#FF9490"></path><path d="M26.7729886,44.9810083 C25.6034902,44.9653748 22.1925824,45.6204174 19.3067871,45.3218181 C16.8733011,45.0857526 14.720185,44.358796 12.4075213,43.3113532 C12.1008184,43.1722153 11.3929234,42.7923218 11.4084134,42.4452587 C11.4192565,42.0669286 11.4564326,41.5166303 11.5029027,40.8240673 C11.6670972,38.4149489 11.952114,34.2705147 11.6748422,29.4897981 C11.6237251,28.6002534 11.598941,27.7169621 11.594294,26.8477409 C11.5710589,20.3676656 12.8443406,14.669264 15.4017469,12.7400923 C15.8861157,13.0620256 17.1139311,14.4044502 20.3138675,14.3262238 C20.6862273,14.3600869 21.2824984,14.7985568 22.1026808,15.6416337 C23.4744898,17.0742241 26.3763775,26.5795873 26.548317,30.6098971 C26.6257672,32.435887 27.1478477,34.4018359 27.1633377,36.1496584 L27.1633377,36.2121923 C27.1788278,36.3857239 27.1788278,36.5748889 27.1788278,36.7468571 C27.2407879,41.2336644 27.1788278,44.7918433 27.0998285,44.8543772 C27.0068883,44.9341079 26.898458,44.9810083 26.7729886,44.9810083 Z" id="Fill-667" fill="#242E6C"></path><path d="M19.853678,47.4944577 C19.853678,47.4944577 19.2462837,48.3020134 19.2223538,48.6261865 C19.0671431,50.8202537 20.0753291,51.1280092 17.4727759,52.3367908 C17.4727759,52.3367908 16.3603861,52.7554908 16.3382012,51.8953997 C16.3160102,51.0337422 17.1074098,51.02267 16.9580238,49.8174635 C16.7858992,48.4273234 16.8031592,48.4148574 17.716131,47.6930611 L18.3180768,46.6959386 L19.853678,47.4944577" id="Fill-671" fill="#FF9490" transform="translate(18.095710, 49.567312) rotate(-30.000000) translate(-18.095710, -49.567312) "></path><path d="M11.7298323,46.93346 C11.7298323,46.93346 14.6110127,37.974672 14.9839183,37.1552496 C15.3568299,36.3373937 22.034588,27.181449 22.780841,25.8888936 C24.4913078,22.8587124 25.1269563,19.1532633 20.8180379,18.7172862 C17.3752619,20.2519735 11.2134469,32.9285001 10.3120339,35.0210363 C8.82109134,38.4757436 8.32850876,46.2343241 8.32850876,46.2343241 C8.32850876,46.2343241 8.90916912,46.6595009 9.68073943,46.8112693 C10.6648902,47.0061463 11.7298323,46.93346 11.7298323,46.93346 Z" id="Fill-672" fill="#1B2251" transform="translate(16.206668, 32.832007) rotate(-30.000000) translate(-16.206668, -32.832007) "></path><path d="M16.691375,7.53204945 C16.6022342,6.79347188 16.6038549,5.83017815 17.2229788,6.00932249 C17.8421027,6.19003828 17.8728968,6.66932799 18.1257328,6.38961137 C18.3801895,6.10832332 18.3850517,4.9265992 20.226216,4.84488423 C22.0673803,4.76316927 22.8145429,5.38388872 23.6702953,5.01931426 C24.5260478,4.65473979 24.5714286,3.39758648 24.5714286,3.39758648 C24.5714286,3.39758648 24.3283171,3.84701879 23.9604084,3.98844853 C23.9604084,3.98844853 25.3882832,2.09486135 23.7351251,0.796850548 C22.081967,-0.502731695 20.396394,0.347418237 19.4385348,0.403990136 C17.3315686,0.528134026 15.9685236,0.650706475 15.2797077,1.99428908 C14.5908918,3.33630025 14.8761426,7.06690272 16.2278425,8.35862776 C16.2278425,8.35862776 16.7805159,8.26905558 16.691375,7.53204945 Z" id="Fill-673" fill="#1B2251"></path></g><g id="Group-63" transform="translate(125.000000, 69.000000)"><path d="M5.20580684,16.8555262 C5.20280655,16.8545308 5.19980625,16.8535354 5.19680595,16.8525401 C5.11630434,16.8032507 5.04180304,16.7569482 4.97930195,16.7181139 C4.98280277,16.7176148 4.98630344,16.7176138 4.98980411,16.7176129 C5.08332211,16.7175866 5.16732299,16.7718561 5.20580684,16.8555262" id="Fill-770" fill="#96ACCE" transform="translate(5.092554, 16.786570) rotate(4.000000) translate(-5.092554, -16.786570) "></path><g id="Group-856" transform="translate(35.373637, 88.559042) rotate(4.000000) translate(-35.373637, -88.559042) translate(22.373637, 80.059042)"><mask id="mask-3" fill="white"><use xlink:href="#path-2"></use></mask><g id="Clip-855"></g><path d="M23.103605,16.5970737 C21.843808,16.5970737 20.0853112,16.2305128 19.7149106,15.7167446 C19.6337269,15.6074322 17.8041944,14.3663721 17.6795194,14.0777874 C17.6795194,14.0777874 17.3439118,13.3235319 17.4091487,12.3448216 C16.845212,12.5736489 16.4827848,12.7602087 16.4827848,12.7602087 C16.4827848,12.7602087 15.2708282,11.7545346 15.694868,7.87321588 C15.689794,7.58098742 15.6709478,7.09491163 15.6376045,6.47110224 C15.6405039,6.47037349 15.6434033,6.47037349 15.6470276,6.47037349 C15.7724274,6.47037349 15.9869843,7.02568045 16.2406834,7.67645357 C16.2406834,7.75807349 16.237784,7.83459217 16.2298106,7.90017961 C16.1638488,8.44455533 16.45669,8.95978109 17.064118,9.60545296 L17.1561745,9.72788284 C17.1996658,9.90278268 17.2417073,10.1505574 17.2380831,10.4231097 C17.1155827,11.0410891 18.0709408,13.0910609 18.4551136,13.1493608 C18.7138867,13.1879845 19.1727195,13.3337344 19.2408558,13.3548681 C19.2676754,13.3636131 19.3140661,13.3679856 19.3764036,13.3679856 C20.1766429,13.3679856 23.6269499,12.7004512 23.2174072,12.6115438 C23.3072891,12.6188313 23.4015202,12.6253901 23.4856033,12.634135 C23.6291245,12.5080614 23.7516249,12.4373727 23.840782,12.3426353 C24.0415666,12.8644198 24.259023,13.2630457 24.4888018,13.4809417 C25.4847518,14.4261296 25.12015,15.8843569 25.12015,15.8843569 C25.12015,15.8843569 24.7207552,16.3748052 23.8560039,16.5387738 C23.6450713,16.5781262 23.3870231,16.5970737 23.103605,16.5970737 M2.60472207,15.5826547 C2.36914438,15.5826547 2.12704301,15.5775535 1.87769309,15.5666222 C-0.370805318,15.5666222 0.0387374281,13.8373001 0.409138036,13.4619942 C0.892615933,12.9679022 2.19517932,11.9053857 2.79390907,11.2342076 C2.56775449,11.2378514 2.43583099,11.2407664 2.43583099,11.2407664 C2.43583099,11.2407664 2.38654089,10.619872 2.39813856,9.85468522 L2.36696982,9.84812648 C2.11109621,9.7227816 2.37711778,7.63054237 2.52353837,6.29984615 C2.57065391,5.86113907 2.69460402,4.59530154 2.80115762,2.9803931 C4.33060044,2.93812564 7.37426414,2.83464324 9.28135611,2.73844834 C9.59666779,3.06347052 8.84499376,4.29505683 8.66957899,4.39416674 C7.97589331,4.78259011 6.40223437,5.98065396 6.40223437,5.98065396 C6.40223437,5.98065396 6.61461671,5.98138271 6.92775382,5.98138271 C7.20392335,5.98138271 7.55910202,5.98065396 7.91645525,5.97992521 L7.84252009,6.0404114 C7.64970882,6.201465 6.50588855,7.79451096 6.35366912,8.59467769 C6.19565086,8.97144107 6.12751454,9.27241453 6.21522193,9.40358941 L6.24566581,9.49978431 C6.11664172,9.71622286 5.91875647,9.96399762 5.68752791,10.2190599 C4.9481764,10.829023 3.70360137,11.5271649 3.42670698,11.678016 C2.99179433,11.9112157 2.26766476,12.2806916 2.49091992,12.3025541 L2.5199141,12.3032829 C2.33942535,12.439559 2.24881855,12.5503289 2.24881855,12.5503289 C2.24881855,12.5503289 2.37929234,12.5496001 2.60544692,12.5488714 C2.00526746,12.6465238 4.5379088,12.9934084 6.06590192,12.9934084 C6.43340311,12.9934084 6.74291594,12.9737322 6.93645207,12.924906 C6.94297576,12.9234485 6.96109712,12.9234485 6.98936644,12.9234485 C7.05677791,12.9234485 7.18072801,12.9263635 7.33947113,12.9300073 C7.49821425,12.9329223 7.69175038,12.936566 7.89760903,12.936566 C8.60071782,12.936566 9.4437235,12.8972135 9.52345749,12.68369 C9.52708176,12.674945 9.79310333,12.5984263 10.3106494,12.2464404 C10.2990517,12.3302466 10.292528,12.3717853 10.292528,12.3717853 C10.2918032,12.366684 10.2903535,12.3644978 10.287454,12.3644978 C10.2323651,12.3644978 9.78295537,13.169037 8.61159063,13.9735763 C7.44022589,14.7781155 5.54690615,15.5826547 2.60472207,15.5826547 M15.2063161,1.35018092 C15.2026919,1.31957345 15.1990676,1.28969473 15.1954433,1.25981601 C15.2092155,1.28605099 15.2360352,1.30718472 15.2788016,1.31957345 L15.3273668,1.33123344 C15.2874998,1.33706344 15.246908,1.34362218 15.2063161,1.35018092 M15.1860202,1.17673859 C15.1468781,0.842242664 15.1048365,0.504831739 15.0598955,0.168149564 C15.1041117,0.187825795 15.1896445,0.206044527 15.3324408,0.219890764 L15.475962,0.233008251 L15.470888,0.242481992 C15.3280917,0.31754317 15.2164641,0.432685559 15.3933286,0.559487937 C15.3933286,0.559487937 15.4346453,0.501187993 15.6028115,0.43122806 C15.3331657,0.590824156 15.3853552,0.758436495 15.5382995,0.875036382 L15.6332554,0.936980073 C15.4563909,0.86702014 15.4331956,0.79414521 15.4331956,0.79414521 C15.3715829,0.853173903 15.2077658,1.04046247 15.1860202,1.17673859 M21.8387341,1.00329626 C21.7568255,0.999652512 21.7053608,0.996737515 21.7053608,0.996737515 L21.7024614,0.998923763 C21.6408488,0.989450022 21.5618397,0.982891278 21.4610849,0.982891278 L21.4038214,0.829125177 C21.5139993,0.823295182 21.6618696,0.808720196 21.8061156,0.791958962 C21.8169884,0.862647644 21.8278612,0.932607577 21.8387341,1.00329626" id="Fill-854" mask="url(#mask-3)"></path></g><g id="Group-860" transform="translate(20.326498, 22.048533) rotate(4.000000) translate(-20.326498, -22.048533) translate(19.326498, 18.048533)"><mask id="mask-5" fill="white"><use xlink:href="#path-4"></use></mask><g id="Clip-859"></g><path d="M0.184202253,7.06048549 L0.00627605631,0.35461382 C0.459093519,0.232726656 0.887434362,0.114994736 1.27623605,0.00626584449 L1.47016619,6.97807314 C1.04182535,7.00785239 0.611601687,7.03555402 0.184202253,7.06048549" id="Fill-858" mask="url(#mask-5)"></path></g><g id="Group-866" transform="translate(5.342338, 17.535573) rotate(4.000000) translate(-5.342338, -17.535573) translate(4.842338, 17.035573)"><mask id="mask-7" fill="white"><use xlink:href="#path-6"></use></mask><g id="Clip-865"></g><path d="M0.389204328,0.71888894 C0.222151399,0.71888894 0.0737427701,0.601882904 0.04018303,0.436485482 C0.00513174582,0.252309313 0.132658758,0.0695776637 0.319847531,0.0363537274 C0.336254515,0.0334646894 0.353407272,0.0320201705 0.369814256,0.031297911 C0.463035756,0.0876341508 0.574155785,0.154804283 0.694225077,0.226307972 C0.698699709,0.227752491 0.703174341,0.22919701 0.707648973,0.230641529 C0.719581325,0.255920611 0.729276361,0.283366471 0.734496765,0.31225685 C0.771785366,0.497155278 0.642766809,0.679164669 0.451849176,0.713110864 C0.43096756,0.716722162 0.410085944,0.71888894 0.389204328,0.71888894" id="Fill-864" mask="url(#mask-7)"></path></g><g id="Group-869" transform="translate(4.324497, 19.031172) rotate(4.000000) translate(-4.324497, -19.031172) translate(3.324497, 18.031172)"><mask id="mask-9" fill="white"><use xlink:href="#path-8"></use></mask><g id="Clip-868"></g><path d="M0.168686525,1.48098505 C0.116134184,1.47482177 0.0645038148,1.46865849 0.0128734453,1.46172479 L1.29072509,0.199793024 C1.36356079,0.126604063 1.44377226,0.0780682252 1.483417,0.0780682252 C1.4898708,0.0780682252 1.49540263,0.0796090454 1.49909051,0.0819202757 C1.52490569,0.105032579 1.47696321,0.189777692 1.38661006,0.274522805 L0.168686525,1.48098505" id="Fill-867" mask="url(#mask-9)"></path></g><g id="Group-873" transform="translate(35.330530, 3.607812) rotate(4.000000) translate(-35.330530, -3.607812) translate(34.330530, 2.607812)"><mask id="mask-11" fill="white"><use xlink:href="#path-10"></use></mask><g id="Clip-872"></g><path d="M1.15681765,1.22555175 C0.79590234,0.865238954 0.427768724,0.495444246 0.0524168015,0.116167622 C0.427768724,0.419588921 0.79590234,0.789383629 1.15681765,1.22555175" id="Fill-871" mask="url(#mask-11)"></path></g><path d="M4.87675899,17.6355594 C4.7001347,17.5613835 5.2652316,15.5425863 5.2652316,15.5425863 C8.65870918,16.6717522 14.5922386,17.6539383 14.7983306,17.6327773 C15.326071,17.5867842 11.1841462,19.9607241 9.54516843,19.4554324 C8.93115642,19.4556046 6.41512962,18.151628 4.87675899,17.6355594 Z" id="Fill-874" fill="#FFC098" transform="translate(9.843507, 17.534313) rotate(4.000000) translate(-9.843507, -17.534313) "></path><path d="M3.2822639,13.7353273 L1.73560393,13.2735335 L0.407482009,13.051817 C0.407482009,13.051817 0.101887697,13.400339 0.812799674,13.661467 C1.03620915,13.7445896 1.6954348,13.8840932 1.96709539,14.0433246 C2.56420088,14.379822 3.01611792,14.8110699 2.99368136,14.875336 C2.9712448,14.9396021 2.94384171,14.8040264 2.71899051,14.9780889 C2.49413931,15.1521514 2.70767555,15.8297114 3.02590091,16.2626162 C3.52356054,16.9396184 4.3713583,17.9099802 5.91209039,17.382185 C7.45902786,16.8583119 7.5901797,16.4093887 7.06271331,16.1128948 C6.53593543,15.8203246 5.36178493,14.9275894 5.36178493,14.9275894 C4.72680602,14.3956957 3.2822639,13.7353273 3.2822639,13.7353273 Z" id="Fill-876" fill="#FFC098" transform="translate(3.842393, 15.292616) rotate(4.000000) translate(-3.842393, -15.292616) "></path><path d="M32.6633913,85.2330973 C32.7256528,84.6034705 27.1342878,84.277822 27.1342878,84.277822 C27.3508584,86.8496065 28.0496296,88.4546513 25.4839066,91.5454966 C24.9218552,92.2188925 23.3073162,93.4627673 22.7390905,94.0150572 C22.3362096,94.4048209 21.6859673,95.7356635 24.0932646,95.7349887 C25.935776,95.7344718 30.8731032,94.617748 31.5843671,94.3150627 C32.295631,94.0123775 32.8471723,94.0122228 32.8475799,92.5641963 C32.7252489,91.5509883 32.1970639,90.4619197 32.6633913,85.2330973 Z" id="Fill-877" fill="#121519" transform="translate(27.596246, 90.006405) rotate(4.000000) translate(-27.596246, -90.006405) "></path><path d="M45.5037506,87.4431509 C45.566012,86.8135241 40.637151,86.7682762 40.637151,86.7682762 C40.8537216,89.3400607 41.5524928,90.9451054 38.9867698,94.0359508 C38.4247184,94.7093466 36.8101794,95.9532215 36.2419537,96.5055114 C35.8390728,96.8952751 35.1888305,98.2261177 37.5961278,98.2254429 C39.4386392,98.224926 44.3759664,97.1082021 45.0872303,96.8055169 C45.7984942,96.5028316 46.3500355,96.502677 46.3504431,95.0546505 C46.2281121,94.0414424 45.2902157,92.4951283 45.5037506,87.4431509 Z" id="Fill-877-Copy" fill="#121519" transform="translate(41.099109, 92.496860) rotate(4.000000) translate(-41.099109, -92.496860) "></path><path d="M25.9804998,44.0132803 C25.9355032,46.6752652 25.9791367,48.8548965 25.9787904,50.0851279 C25.9784124,51.4277958 26.124365,66.650765 27.1229691,70.0111702 C27.7887053,72.2509537 27.973697,78.1766984 27.6779444,87.7884044 C27.3570815,90.4027663 27.1966501,91.7099473 27.1966501,91.7099473 C27.1966501,91.7099473 34.2103708,90.992291 34.3819038,92.3349108 C34.3819038,92.3349108 34.8723316,89.830302 35.0363656,86.8915729 C35.3665953,81.0652217 34.9923472,78.0408772 34.3497513,70.0427287 C33.889321,64.2677068 34.2280929,56.4408584 34.2286602,54.4257612 C34.2290839,52.9210094 38.8879471,74.0409856 38.8879471,74.0409856 C38.8879471,74.0409856 41.2196616,93.239241 41.2196616,93.239241 C41.2196616,93.239241 45.3947356,91.0718411 47.7300261,92.4153143 C47.8087437,91.0711642 47.4533165,88.4581824 47.3964361,87.6447552 C47.1783391,84.5258233 46.5923162,78.1668535 45.3143742,72.4898952 C44.2059527,67.5743916 42.4590203,56.1265276 42.1263301,50.0805999 C41.7958173,44.030291 40.6064636,38.822836 39.924963,37.6132388 C39.2369337,36.4051037 26.1268445,37.2318089 26.1268445,37.2318089 C25.6084712,38.8805372 25.9907749,43.5868946 25.9804998,44.0132803 Z" id="Fill-879" fill="#2B478B" transform="translate(36.797830, 65.097524) rotate(4.000000) translate(-36.797830, -65.097524) "></path><path d="M31.9533523,14.1147165 C31.4468653,15.2177235 33.36361,16.9925918 34.1052374,16.9608046 C34.8448629,16.9320896 39.078981,16.5122564 38.3762715,14.4048125 C37.673562,12.2973686 37.5537514,10.8446369 37.4274401,9.84785777 C37.3013589,8.8590759 32.1980187,10.383715 32.1980187,10.383715 C32.5451456,11.6421319 32.4654325,13.0184344 31.9533523,14.1147165 Z" id="Fill-883" fill="#F9B589"></path><g id="Group-886" transform="translate(37.848516, 14.564445) rotate(4.000000) translate(-37.848516, -14.564445) translate(36.848516, 14.064445)"><mask id="mask-13" fill="white"><use xlink:href="#path-12"></use></mask><g id="Clip-885"></g><path d="M1.23537451,0.731408105 C0.900398586,0.626680479 0.540812185,0.522675114 0.203101763,0.428059121 C0.616010862,0.217159352 0.892195094,0.0734297142 0.953721284,0.0409280374 C1.07267192,0.347888318 1.16974657,0.589845246 1.23537451,0.731408105" id="Fill-884" mask="url(#mask-13)"></path></g><g id="Group-890" transform="translate(37.349029, 9.568024) rotate(4.000000) translate(-37.349029, -9.568024) translate(36.849029, 8.568024)"><mask id="mask-15" fill="white"><use xlink:href="#path-14"></use></mask><g id="Clip-889"></g><path d="M0.61546375,1.50316644 C0.512394235,0.967827709 0.424048936,0.510369188 0.37847398,0.270413951 C0.36304861,0.187622378 0.304852898,0.141315227 0.213001833,0.124476263 L0.353232466,0.0451928077 C0.361646304,0.109040546 0.469623892,0.713138379 0.61546375,1.50316644" id="Fill-888" mask="url(#mask-15)"></path></g><g id="Group-893" transform="translate(32.348064, 13.550846) rotate(4.000000) translate(-32.348064, -13.550846) translate(31.848064, 13.050846)"><mask id="mask-17" fill="white"><use xlink:href="#path-16"></use></mask><g id="Clip-892"></g><path d="M0.482361507,0.643292447 C0.371212795,0.547954196 0.28516218,0.465616614 0.229229279,0.400613261 C0.229946368,0.350777356 0.228512191,0.300941452 0.227078014,0.250383288 C0.30810901,0.196213827 0.402047599,0.141322106 0.506025427,0.0878749039 C0.507459604,0.27494011 0.499571631,0.460560798 0.482361507,0.643292447" id="Fill-891" mask="url(#mask-17)"></path></g><path d="M24.8467593,17.0680133 L30.9567487,14.6273853 C31.2487701,14.965221 32.1232554,16.2182933 33.9247059,16.0923237 C35.7261563,15.966354 36.6014307,14.7430392 36.0627953,15.1926832 L33.8117752,39.4048055 L28.1794371,39.533194 C28.1794371,39.533194 27.8228119,37.5072295 27.6980988,33.9270674 C27.6592178,32.8102931 27.9127879,27.8783546 28.2560276,24.9133738 L24.8467593,17.0680133 Z" id="Fill-897" fill="#FFFFFE" transform="translate(30.533500, 27.080290) rotate(4.000000) translate(-30.533500, -27.080290) "></path><path d="M32.9344641,14.1871443 L34.086996,16.803346 L34.0869398,16.9385977 L35.0272756,18.4747776 L35.680059,17.3832985 C36.1151066,16.9960431 36.115187,16.8025055 35.6803001,16.8026857 C35.2454133,16.802866 35.0281455,16.3798295 35.028497,15.5335764 L35.0288685,14.6389299 L35.6813868,14.1860059 L36.8857646,13.2241503 L33.4047674,12.780301 L32.9344641,14.1871443 Z" id="Path-6" fill="#F9B589" transform="translate(34.910114, 15.627539) rotate(11.000000) translate(-34.910114, -15.627539) "></path><path d="M34.295139,18.1020145 C34.9895096,17.7192077 37.3397028,16.0051374 37.5808478,15.4241896 L37.7775619,15.0449973 C40.9604293,16.265022 43.5632692,16.6914494 43.3958663,17.2195063 C43.3958663,17.2195063 43.2676318,21.5841552 43.1373272,23.6621478 C42.9782238,26.1812009 41.0700899,31.3011353 41.2946748,33.6941678 C41.4205758,35.0451184 42.7855065,38.7213443 42.7855065,38.7213443 C42.7855065,38.7213443 36.1257791,40.2063279 34.0669533,39.994017 C33.4792048,39.9336548 33.4713993,36.2327093 33.4252093,33.0709161 C33.3237368,27.5021307 33.4819682,18.5481594 34.295139,18.1020145 Z" id="Fill-898" fill="#FFFFFE" transform="translate(38.400712, 27.529894) rotate(4.000000) translate(-38.400712, -27.529894) "></path><path d="M45.3299788,48.4012081 C45.4049109,46.6315681 44.1058497,37.5737084 43.7743349,35.3389269 C43.1449446,31.1068521 42.8625102,24.8873262 42.8598425,23.8235491 C42.8476377,18.9567691 44.7719094,15.6792677 44.130857,15.456934 C42.6008975,14.9261776 41.8080717,15.2013405 37.5323737,13.4249113 C37.5323737,13.4249113 39.2248331,19.3938764 36.3546662,30.2483943 C36.1367684,31.0073987 37.9343971,48.5420058 37.9343971,48.5420058 C37.9343971,48.5420058 45.2854408,49.4628421 45.3299788,48.4012081 Z" id="Fill-901" fill="#22407A" transform="translate(40.834719, 31.168723) rotate(4.000000) translate(-40.834719, -31.168723) "></path><path d="M25.677372,22.0696004 C24.7390149,20.1265063 25.9292505,18.0476098 25.4425452,15.0385583 C25.4425309,15.0893799 28.3696417,14.8338758 30.7208923,13.0481873 L28.8534456,16.9424288 C29.2370874,22.1662891 30.610521,27.7514101 30.6101625,29.0246543 C30.6098041,30.2978985 31.0308702,48.6755547 30.7435463,48.7822919 C29.9108512,49.0730727 26.5663807,48.7834632 26.5663807,48.7834632 C26.5663807,48.7834632 26.2916291,39.799205 26.5697345,36.8708511 C26.6368345,28.371312 26.3393804,23.4375618 25.677372,22.0696004 Z" id="Fill-902" fill="#22407A" transform="translate(28.074352, 30.980010) rotate(4.000000) translate(-28.074352, -30.980010) "></path><path d="M34.95513,16.486784 C36.4480587,16.3823883 38.2983612,18.8015066 38.78758,19.3585952 C38.6922704,16.5004507 39.1803196,14.2867684 38.9309095,14.1206998 C38.2424445,13.1421177 37.7837266,13.0979307 37.7837266,13.0979307 C37.8363932,13.6646983 36.697856,15.7879253 34.95513,16.486784 Z" id="Fill-903" fill="#D9DFDE" transform="translate(36.978921, 16.228263) rotate(4.000000) translate(-36.978921, -16.228263) "></path><path d="M33.8218269,16.1203679 C32.7039596,15.8972157 30.7069147,18.6586486 30.7069147,18.6586486 L30.3082394,14.9946105 C30.3082394,14.9946105 31.5642853,13.8866631 31.779839,13.2899234 C31.9635018,13.1968687 31.9921317,13.2229883 32.070189,13.2202101 C32.1088995,13.7737957 33.5727352,16.0097363 33.8218269,16.1203679 Z" id="Fill-904" fill="#D9DFDE" transform="translate(32.065033, 15.938744) rotate(4.000000) translate(-32.065033, -15.938744) "></path><path d="M51.0519571,28.9873817 C47.9338104,24.5839445 43.2022697,19.4865506 43.2022697,19.4865506 C41.6436168,17.2203337 41.1092718,16.574265 40.4897782,17.2964726 C39.5626144,18.3834255 38.4288066,20.0591179 39.191034,21.8933414 C39.8813374,23.5454495 43.1098031,28.5753852 45.0796463,30.3215067 C45.0796463,30.3215067 46.97809,32.1112249 48.1446093,31.5691338 L49.1248753,29.6770249 L51.0519571,28.9873817 Z" id="Fill-905" fill="#22407A" transform="translate(44.996185, 24.343219) rotate(31.000000) translate(-44.996185, -24.343219) "></path><path d="M36.8620448,30.2762564 C36.8620448,30.2762564 40.9294789,18.8553701 41.7305131,18.2577839 L40.3342963,16.6238748 L41.8659615,16.0313348 C41.8659615,16.0313348 40.4327814,14.4726739 39.6760983,13.8603349 C38.9194152,13.247996 37.8103964,13.2220202 37.8103964,13.2220202 C39.4076722,15.0451342 37.1041577,27.0679337 36.8620448,30.2762564 Z" id="Fill-906" fill="#233862" transform="translate(39.364003, 21.749138) rotate(2.000000) translate(-39.364003, -21.749138) "></path><path d="M27.3465793,14.0947117 C26.7722108,14.1924555 26.0662871,14.1870713 24.7000584,14.7123194 C24.1123027,14.9382827 18.2939049,16.7458972 16.0554715,17.3276334 C13.1511242,17.0952825 6.95356114,16.1282655 6.95356114,16.1282655 C5.8531376,15.8968525 6.48015707,19.8039805 6.95239546,20.268735 C7.42170876,20.7342121 16.5382292,21.510036 16.5382292,21.510036 C17.8331904,21.6251728 26.5360323,20.5444283 27.3450164,19.6461902" id="Fill-907" fill="#22407A" transform="translate(16.844022, 17.806611) rotate(4.000000) translate(-16.844022, -17.806611) "></path><path d="M31.1926382,29.7196521 C30.066673,26.3964817 27.734918,19.5108844 27.734918,19.5108844 L29.2399455,17.4043372 L28.0374059,16.5132968 C28.0374059,16.5132968 28.8371151,15.627501 29.4707615,14.8913841 C30.1044078,14.1552672 31.0830379,13.1091391 31.0830379,13.1091391 L30.258387,15.6202813 C29.8070566,17.3226121 31.0424818,28.1783171 31.1926382,29.7196521 Z" id="Fill-908" fill="#233862" transform="translate(29.463778, 21.414396) rotate(6.000000) translate(-29.463778, -21.414396) "></path><path d="M31.43525,3.33523971 C31.9010474,2.1841681 34.4004607,1.18696688 34.9876362,1.19131423 C38.6109654,1.21055688 38.7133549,3.65319531 38.6829918,6.1685795 C39.520811,5.65345756 39.8454104,6.5110049 39.7579003,7.51045079 C39.6937492,8.27417194 39.2620379,9.25041437 38.0530047,9.52310448 C37.7210836,11.685394 36.0748388,13.3594929 34.5267918,13.4515569 C34.0781599,13.4782375 33.6804535,13.4053222 33.3227303,13.181889 C32.7750919,12.9252429 32.3996059,12.3972073 32.1045552,11.730179 C31.8150113,11.1355978 31.4015902,9.46002878 31.3699449,9.34901067 C30.9799091,7.67578904 30.7355233,5.1376446 31.43525,3.33523971 Z" id="Fill-910" fill="#FFC098"></path><path d="M36.3403495,0.754267444 C35.5823095,0.700255163 35.7581731,2.58838783 35.8994819,2.66012256 C36.3127632,2.40420002 36.7312194,2.79978 36.8341082,2.8510082 C37.0420969,2.94119279 37.451779,3.54202546 37.504734,3.98894295 C37.5370902,4.26201554 37.9732049,4.50367788 38.1223279,4.79585758 C38.359847,5.26123362 38.2022977,6.07496289 38.1767011,6.4479514 L38.7112814,5.97531949 C38.8764029,5.26128183 38.9294073,4.63158955 38.8702948,4.08624264 C38.7816259,3.26822227 38.6138334,3.13100025 38.37897,2.57051234 C38.1441065,2.01002443 37.0983894,0.808279726 36.3403495,0.754267444 Z" id="Fill-911" fill="#131730"></path><path d="M31.448086,2.0330659 C32.009329,1.08911149 33.0103533,0.616959524 33.6920545,0.426994877 C34.0778301,0.319493626 36.186094,0.119702442 37.2301169,0.810460697 C37.9360705,1.35659973 38.5360739,2.65724104 38.6341463,3.60054097 C38.7002532,4.23638264 38.1488582,3.66187445 37.9203512,3.17437942 C37.8002226,2.91809788 37.5539014,2.56547997 36.900292,2.36458299 C36.2466826,2.16368601 35.9205447,2.99086721 34.7733572,2.97363939 C33.6261696,2.95641157 32.9545225,2.34147715 32.4158627,2.82325985 C32.1075134,3.11428909 32.1096621,3.52545139 32.0027653,3.81074494 C31.8958685,4.0960385 31.7461276,4.4068942 31.5767125,4.57766354 C31.4680913,4.68715298 31.3044789,5.5718452 31.3044789,5.5718452 C30.8471682,5.15274678 30.8868429,2.9770203 31.448086,2.0330659 Z" id="Fill-916" fill="#131730"></path><path d="M45.568194,35.8925896 C43.9499361,36.3456504 42.9802282,36.281438 42.9830277,32.3464526 C42.9858377,28.413871 47.145062,30.5291213 47.145062,30.5291213 C47.816858,30.9542198 47.1914876,35.4395251 45.568194,35.8925896 Z" id="Fill-924" fill="#1B2E55" transform="translate(45.197237, 33.022066) rotate(15.000000) translate(-45.197237, -33.022066) "></path><path d="M40.9106401,34.8055584 C41.1161373,34.0394951 41.1226147,33.3879954 41.4057751,32.959768 C41.6889355,32.5315407 41.6405069,32.2736578 42.0830788,32.3555094 C42.6722207,32.4631725 41.6040928,34.0939933 42.083051,33.9668426 C42.083051,33.9668426 42.3943342,33.1345651 42.962509,32.5908877 C43.2919791,32.2760112 43.3834302,32.1089789 43.9452193,31.7007177 C44.8029129,31.0783955 45.3126044,30.9269689 45.3869879,31.0123681 C45.6523404,31.3267223 44.7745422,31.7083752 44.3293218,32.2138263 C44.0627628,32.5206298 43.9898912,32.6633817 43.7204759,32.9797518 C43.7204759,32.9797518 44.6446041,32.2073158 45.2228583,31.8594099 C45.6974705,31.5754962 46.5638973,31.3815114 46.6704628,31.494889 C46.9436706,31.7842231 46.3460804,32.0408618 45.511929,32.5226222 C45.1073623,32.7572512 44.5120582,33.4068984 44.5120582,33.4068984 C44.5120582,33.4068984 44.9816222,33.0015479 45.5720152,32.6116961 C46.0580536,32.2924599 47.0331388,32.0676035 47.155445,32.2148413 C47.3936177,32.4945952 46.7709996,32.7365055 46.1620073,33.0954399 C45.5751705,33.4337751 45.0541664,33.9362551 45.0541664,33.9362551 C45.0541664,33.9362551 45.7031493,33.4507484 46.4022854,33.2655351 C46.9448663,33.12148 47.2265323,33.0744791 47.2665925,33.1414667 C47.483341,33.4874502 46.4317928,33.8086912 45.6777457,34.3795327 C45.0730787,34.8378245 45.263654,35.9602463 43.6273843,36.5381306 C41.9954025,37.1108647 41.438919,36.3680717 41.438919,36.3680717 C40.9569487,36.0713029 40.7587872,35.3716437 40.9106401,34.8055584 Z" id="Fill-926" fill="#FFC098" transform="translate(44.077985, 33.872747) rotate(169.000000) translate(-44.077985, -33.872747) "></path><path d="M32.6073689,12.626524 C32.5605883,12.5788754 32.7611925,12.3495849 32.9268293,12.4559435 C33.092466,12.5623022 33.1799483,12.9659392 33.365417,13.0335788 C33.7427006,13.1252933 33.8099316,12.5238523 34.1669746,12.5432377 C34.5240176,12.5626231 34.6635817,12.7617843 34.8773613,12.94453 C35.091141,13.1272757 35.51162,12.9641455 35.7323291,12.7947976 C35.9530383,12.6254497 36.0174499,11.689196 36.7808622,12.2654867 C36.538882,12.5884853 36.0385761,13.1689416 35.6355551,13.3803205 C35.2325342,13.5916993 34.6743895,13.6449322 34.3353197,13.6581231 C33.99625,13.6713139 33.0307751,13.5489806 32.6073689,12.626524 Z" id="Path-7" fill="#131730"></path></g></g></g></g></svg>