<svg xmlns="http://www.w3.org/2000/svg" xmlns:xlink="http://www.w3.org/1999/xlink" width="239px" height="179px" viewBox="0 0 239 179"><title>OKR-&amp;-KPI-in-place_illustration</title><desc>Created with Sketch.</desc><defs><linearGradient x1="68.2355964%" y1="21.9533972%" x2="28.9932595%" y2="105.482451%" id="linearGradient-1"><stop stop-color="#EDF3FB" offset="0%"></stop><stop stop-color="#FFFFFF" offset="100%"></stop></linearGradient><path d="M97.8484,29.0388762 L64.0392,29.0388762 L63.4984,24.9922129 C63.5864,24.9281366 63.6692,24.8529702 63.7456,24.7667136 L72.0404,15.3906291 C72.3404,15.0517641 72.7508,14.8813048 73.162,14.8813048 C73.5496,14.8813048 73.938,15.0328698 74.2348,15.3384644 L80.8328,22.138354 C81.1328,22.4476453 81.5196,22.5963351 81.9036,22.5963351 C82.4204,22.5963351 82.9316,22.3268861 83.218,21.8183834 L95.0212,0.823955214 C95.324,0.285878778 95.8216,0.0439497547 96.3156,0.0439497547 C97.0864,0.0439497547 97.8484,0.632137126 97.8484,1.60190695 L97.8484,29.0388762 L97.8484,29.0388762 Z M51.9976,29.0388762 L46.984,29.0388762 L47.7296,7.44106314 L51.9976,29.0388762 L51.9976,29.0388762 Z M35.6264,29.0388762 L0.1696,29.0388762 L4.3976,22.848122 C4.6928,22.4156071 5.1628,22.1855897 5.6392,22.1855897 C5.9564,22.1855897 6.2768,22.2878653 6.5504,22.4998099 L8.7744,24.2237083 C9.0488,24.4364744 9.3688,24.5379285 9.6848,24.5379285 C10.2052,24.5379285 10.716,24.2635506 10.9988,23.7599767 L17.4144,12.3498811 C17.7028,11.8368601 18.214,11.5719293 18.728,11.5719293 C19.1676,11.5719293 19.6096,11.7658012 19.9156,12.1642242 L23.9212,17.3798689 C24.2264,17.7770597 24.6688,17.9721637 25.1096,17.9721637 C25.6024,17.9721637 26.0932,17.7285917 26.3888,17.2513056 L29.316,12.5265016 C29.6144,12.045108 30.1044,11.8060542 30.5936,11.8060542 C31.1048,11.8060542 31.6156,12.0672883 31.906,12.5840059 L34.3224,16.8824562 C34.6132,17.3991739 35.124,17.660408 35.6352,17.660408 C35.6604,17.660408 35.6856,17.6595865 35.7108,17.6583542 L35.6264,29.0388762 L35.6264,29.0388762 Z" id="path-2"></path></defs><g id="Welcome" stroke="none" strokeWidth="1" fill="none" fillRule="evenodd"><g id="Home-page-v2" transform="translate(-819.000000, -9308.000000)"><g id="OKR-&amp;-KPI-in-place_illustration" transform="translate(819.000000, 9308.000000)"><path d="M5.80911279,118.375294 C17.7614552,105.379975 10.1649303,98.8912065 1.93671059,69.6312321 C-6.29150912,40.3712577 21.2240049,17.3691057 56.4433848,14.4878679 C70.1363907,13.3806153 83.3384029,27.1270195 111.379177,9.77361684 C139.419951,-7.57978578 182.154951,1.45119986 191.224722,11.7007272 C200.294494,21.9502546 203.479031,16.9481848 208.571825,55.9233148 C209.230722,60.9658525 211.006252,69.2234382 222.630367,76.9823968 C234.254481,84.7413553 247.399366,99.7929077 231.995057,126.821914 C225.169353,137.416302 224.880092,146.988698 228.437574,156.752469 C231.995057,166.516241 235.463541,174.961497 201.216206,179 C158.45662,177.905452 77.39242,179 53.764358,179 C30.136296,179 19.2896275,178.959493 7.04948985,179 C3.4796297,164.926408 -6.14322959,131.370614 5.80911279,118.375294 Z" id="Path-6" fill="url(#linearGradient-1)"></path><g id="Group-105" transform="translate(0.000000, 19.106742)"><path d="M23.7872863,55.1458403 L23.8268514,40.3990741 C31.87279,40.3774195 38.4759086,47.0163745 38.4542569,55.1062694 C38.4324986,63.1961642 31.7936597,69.8708457 23.7477211,69.8926065 C15.8298837,69.9139155 9.28529946,63.4849324 9.12374631,55.5263238 L23.7872863,55.1458403" id="Fill-2" fill="#DAE1EA" transform="translate(23.789002, 55.145840) rotate(-22.000000) translate(-23.789002, -55.145840) "></path><path d="M16.5451264,55.3090238 L2.27580191,55.6823692 C2.28615314,51.8242618 3.74844923,47.7761367 6.34688637,45.0039691 C8.94564469,42.2318007 12.6490713,40.6146093 16.3632432,40.4991984 L16.5451264,55.3090238" id="Fill-3" fill="#DAE1EA" transform="translate(9.410464, 48.090784) rotate(-22.000000) translate(-9.410464, -48.090784) "></path><path d="M214.564125,30.3641074 C210.376453,30.5183666 207.398004,34.5587217 208.369047,38.7697903 C209.087571,41.8841793 211.89555,44.0907019 214.993886,43.9738763 C219.179168,43.8163263 222.153236,39.779262 221.184981,35.5714843 C220.468449,32.4575067 217.661665,30.24975 214.564125,30.3641074 Z M216.390307,21.6922762 C217.736544,21.8666918 219.036977,22.2262184 220.26253,22.7486427 L223.109144,20.2850215 L227.998213,24.1283363 L226.458007,27.6182949 C227.272122,28.6989315 227.954799,29.8980392 228.476167,31.1921704 L232.174733,31.528661 L233,37.8170859 L229.522488,39.1597574 C229.354407,40.5501463 229.005899,41.8940519 228.499268,43.1593881 L230.884656,46.0997728 L227.164184,51.148777 L223.784652,49.5580568 C222.738331,50.3988719 221.577301,51.1027049 220.323868,51.6415835 L219.998461,55.4610396 L213.909329,56.3146067 L212.609693,52.7230428 C211.263456,52.5490385 209.963023,52.1886892 208.737072,51.6662649 L205.89006,54.1302975 L201.00099,50.2869826 L202.541595,46.7966127 C201.727878,45.7159761 201.045998,44.5168684 200.524231,43.2227372 L196.826462,42.8862466 L196,36.5978217 L199.477512,35.2555616 C199.645991,33.8651727 199.994499,32.5212671 200.500732,31.2555195 L198.114946,28.3155462 L201.835816,23.2661306 L205.215348,24.8572622 C206.261669,24.0164471 207.4223,23.3122027 208.676132,22.7733241 L209.001539,18.9542794 L215.089875,18.1011236 L216.390307,21.6922762 L216.390307,21.6922762 Z" id="Fill-4" fill="#DAE1EA"></path><path d="M239,158.38634 C239,158.820767 187.061001,159.170722 123.0057,159.170722 C58.9279438,159.170722 7,158.820767 7,158.38634 C7,157.948896 58.9279438,157.598941 123.0057,157.598941 C187.061001,157.598941 239,157.948896 239,158.38634" id="Fill-5" fill="#CCE2FF"></path><path d="M32,127.713483 L206,127.713483 C208.761424,127.713483 211,125.474907 211,122.713483 L211,6.03370787 L211,6.03370787 L27,6.03370787 L27,122.713483 C27,125.474907 29.2385763,127.713483 32,127.713483 Z" id="Fill-15" fill="#FFFFFF"></path><path d="M27,7.03932584 L211,7.03932584 L211,4 C211,1.790861 209.209139,-4.05812251e-16 207,0 L31,0 C28.790861,4.05812251e-16 27,1.790861 27,4 L27,7.03932584 L27,7.03932584 Z" id="Fill-17" fill="#739AF0"></path><path d="M33,4.52554708 C33,5.35868214 32.3287454,6.03370787 31.5002647,6.03370787 C30.671784,6.03370787 30,5.35868214 30,4.52554708 C30,3.69241201 30.671784,3.01685393 31.5002647,3.01685393 C32.3287454,3.01685393 33,3.69241201 33,4.52554708" id="Fill-18" fill="#FFFFFE"></path><path d="M38,4.52554708 C38,5.35868214 37.328216,6.03370787 36.4997353,6.03370787 C35.6712546,6.03370787 35,5.35868214 35,4.52554708 C35,3.69241201 35.6712546,3.01685393 36.4997353,3.01685393 C37.328216,3.01685393 38,3.69241201 38,4.52554708" id="Fill-19" fill="#FFFFFE"></path><path d="M42,4.52554708 C42,5.35868214 41.328216,6.03370787 40.4997353,6.03370787 C39.6712546,6.03370787 39,5.35868214 39,4.52554708 C39,3.69241201 39.6712546,3.01685393 40.4997353,3.01685393 C41.328216,3.01685393 42,3.69241201 42,4.52554708" id="Fill-20" fill="#FFFFFE"></path><path d="M204.938384,119.567266 C204.937589,119.109746 204.916123,104.488992 204.877166,78.5418589 L204.938384,78.6026232 C167.216533,78.612552 105.606521,78.6276438 36.1136907,78.6451185 L36.1037527,78.6451185 L36.2071078,78.5418589 C36.2063128,92.5954803 36.2059153,106.325423 36.2051202,119.567266 L36.1037527,119.465595 C132.377893,119.523579 203.933852,119.566471 204.938384,119.567266 C203.934647,119.567663 132.377893,119.610555 36.1037527,119.668539 L36.0019876,119.668539 L36.0019876,119.567266 C36,106.325423 36,92.5954803 36,78.5418589 L36,78.4382022 L36.1136907,78.4382022 C105.606521,78.4556769 167.216533,78.4711659 204.938384,78.4806975 L205,78.4806975 L205,78.5418589 C204.961043,104.488992 204.939179,119.110144 204.938384,119.567266" id="Fill-21" fill="#DFDFDA"></path><path d="M116.906774,74.2685143 C116.904383,73.57191 116.901595,72.5416751 116.897611,71.1954963 C116.892431,68.5011287 116.884862,64.5453967 116.876097,59.4854685 C116.865738,49.3736513 116.850599,34.8522843 116.832273,17.2004183 L116.915937,17.2848309 C94.1408596,17.2904584 65.7813742,17.2972918 35.1107559,17.3049291 L35.2075677,17.2004183 C35.2043805,37.9940383 35.2011933,57.7320997 35.1984044,75.3260827 L35.1039831,75.2312191 C59.2575332,75.2505134 79.6987688,75.266592 94.1050034,75.278249 C101.3133,75.289102 107.010854,75.2979452 110.909621,75.3039747 C112.859004,75.3087983 114.357795,75.312416 115.372526,75.3152297 C115.8777,75.3176415 116.26176,75.3196513 116.522714,75.3208572 C116.781675,75.3224651 116.915937,75.3260827 116.915937,75.3260827 C116.915937,75.3260827 116.788847,75.3301024 116.533869,75.3321122 C116.274907,75.3333181 115.894433,75.3353279 115.393641,75.3373377 C114.383292,75.3397495 112.890877,75.3437692 110.950258,75.3489947 C107.056272,75.3546222 101.365889,75.3634654 94.1667557,75.3743185 C79.7453819,75.3859754 59.283031,75.402456 35.1039831,75.4213483 L35.0095617,75.4213483 L35.0095617,75.3260827 C35.0063744,57.7320997 35.0035856,37.9940383 35,17.2004183 L35,17.0955056 L35.1107559,17.0955056 C65.7813742,17.102741 94.1408596,17.1099763 116.915937,17.1156038 L117,17.1156038 L117,17.2004183 C116.981673,34.8739904 116.966534,49.4138477 116.955777,59.5381258 C116.946614,64.5900148 116.939443,68.5393153 116.934662,71.2292613 C116.93028,72.5682048 116.927092,73.5936161 116.9251,74.2866027 C116.921913,74.9763737 116.915937,75.3260827 116.915937,75.3260827 C116.915937,75.3260827 116.909961,74.9639128 116.906774,74.2685143 Z" id="Fill-22" fill="#B3BBD1"></path><path d="M109,63.3539326 L105.100703,55.529806 C104.475147,54.2748731 103.228363,53.5974561 101.987088,53.5974561 C101.031443,53.5974561 100.078946,53.9990506 99.4160142,54.8480109 C99.3636879,54.915275 99.3133287,54.9845291 99.2649366,55.0557733 L96.715502,58.8285323 C96.6368157,58.8579852 96.5585229,58.8874381 96.4802301,58.917289 C95.3664261,59.3387841 94.3041617,59.7606772 93.217898,59.7606772 C91.8609535,59.7606772 90.4666331,59.1031608 88.8862197,56.9662325 L87.0516497,54.658557 C86.3348179,53.756263 85.2796352,53.2838224 84.213043,53.2838224 C83.465917,53.2838224 82.7128896,53.5154656 82.0660886,53.9938764 L79.94274,55.5652291 C78.9449983,56.303542 77.8449645,56.8738937 76.6855225,57.2615577 C76.6343765,57.2277267 76.5836238,57.1919055 76.533658,57.1552884 L72.2613879,53.9938764 C71.6149803,53.5154656 70.8619528,53.2838224 70.1148269,53.2838224 C69.0482347,53.2838224 67.993052,53.756263 67.2762202,54.658557 L65.4416502,56.9662325 C64.698852,57.9003675 63.6531116,58.3417632 62.6164202,58.3417632 C61.1796092,58.3417632 59.7601092,57.4935989 59.1904207,55.9345846 L59,55.4131884 C59.1770441,55.4390592 59.354875,55.4517956 59.5319191,55.4517956 C61.0537112,55.4517956 62.523177,54.5065163 63.0661122,52.8993425 L65.8917356,44.5378992 C66.4661452,42.8371925 67.9419059,41.9870381 69.4176666,41.9870381 C70.8938208,41.9870381 72.3695815,42.8371925 72.9439911,44.5378992 L74.3111648,48.5840927 C74.8812467,50.270869 76.3609417,51.1349538 77.8433907,51.1349538 C79.2133184,51.1349538 80.5848198,50.3978349 81.2446041,48.8921542 L82.4300125,46.1852723 C83.0752398,44.7122286 84.4557901,43.9420748 85.8446025,43.9420748 C87.0016839,43.9420748 88.1646667,44.4766053 88.9137599,45.5846717 C89.6667873,46.6991062 90.8262293,47.2280646 91.9778026,47.2280646 C93.4736283,47.2280646 94.9556839,46.336119 95.5163235,44.6764075 L96.8382525,40.7647422 C97.4181702,39.048115 98.8872426,38.2134831 100.354348,38.2134831 C101.959154,38.2134831 103.561993,39.2116981 103.997915,41.1464361 L109,63.3539326" id="Fill-24" fill="#C7D3E4"></path><path d="M45,64.3595506 L49.8150374,49.8478799 C50.942967,46.4474036 55.5909186,46.3883762 56.8001874,49.7595451 L59.1061323,56.1885834 C60.1046406,58.9715418 63.6675358,59.5704846 65.4726239,57.2585075 L67.3410203,54.8652128 C68.5827446,53.2743612 70.8189703,52.9709684 72.4181061,54.1758713 L76.7691497,57.4545777 C77.4042362,57.9329889 78.1707475,58.190976 78.9576938,58.190976 L84.4951671,58.190976 C85.2817127,58.190976 86.0486247,58.4489631 86.6833105,58.9273744 L90.8035593,62.0318878 C92.4936507,63.3053121 94.8713183,62.8851027 96.0525391,61.1043726 L99.9195547,55.2771666 C99.968839,55.2032791 100.020127,55.1314555 100.073418,55.0616958 C101.625673,53.0374259 104.735393,53.4654781 105.862922,55.7687868 L110,64.2225078 C110,64.2225078 45,64.0854651 45,64.3595506" id="Fill-25" fill="#D1DBE9"></path><path d="M45,65.3651685 L48.8776138,60.4274276 C49.2285978,59.9807258 49.553198,59.5488063 49.8638069,59.0642249 C50.5110086,58.053949 51.5843481,57.549042 52.6756765,57.549042 C53.7666052,57.549042 54.8759225,58.053949 55.5934809,59.0642249 C55.6626384,59.1612336 58.5916359,61.912584 58.5916359,61.912584 C60.0787208,63.3552414 61.1032903,63.9446845 62.0059348,63.9446845 C62.7406827,63.9446845 63.39508,63.5534163 64.1518143,62.913621 L68.2624846,59.4393251 C68.8960947,58.9039296 69.6608241,58.6152134 70.445941,58.6152134 L73.2650062,58.6152134 C75.8078413,58.6152134 78.2847171,57.6802346 80.3370541,55.9456274 L82.4945264,54.1218645 C83.151722,53.5666054 83.9168512,53.2977528 84.675984,53.2977528 C85.7597171,53.2977528 86.8318573,53.8460827 87.5602091,54.8933143 L89.424262,57.5716773 C91.0300738,60.0518655 92.446802,60.8150003 93.8255535,60.8150003 C94.9292743,60.8150003 96.0086101,60.3253375 97.1403137,59.8361367 C98.272417,59.3464739 99.4568881,58.8572731 100.772079,58.8572731 C102.033702,58.8572731 103.415652,59.3081324 104.985486,60.6422325 L110,65.3596252 C109.787731,65.2612307 102.661716,65.2279706 93.1955412,65.2279706 C74.9235855,65.2279706 47.9441882,65.3513102 45.2234625,65.3637827 C45.076353,65.3647066 45,65.3651685 45,65.3651685" id="Fill-27" fill="#DFE8F0"></path><path d="M110.506,63.8617697 L110.494,63.8517135 C110.502,63.855736 110.506,63.8587528 110.506,63.8617697" id="Fill-28" fill="#E67C86"></path><path d="M65,31.6764635 C65,31.8212725 62.3134887,31.9389298 59,31.9389298 C55.6855762,31.9389298 53,31.8212725 53,31.6764635 C53,31.5316545 55.6855762,31.4150028 59,31.4150028 C62.3134887,31.4150028 65,31.5316545 65,31.6764635" id="Fill-29" fill="#3A4ACE"></path><polygon id="Fill-30" fill="#3A4ACE" points="49 33.1853933 52 33.1853933 52 30.1685393 49 30.1685393"></polygon><path d="M84,31.6764635 C84,31.8212725 81.3134887,31.9389298 78,31.9389298 C74.6855762,31.9389298 72,31.8212725 72,31.6764635 C72,31.5316545 74.6855762,31.4150028 78,31.4150028 C81.3134887,31.4150028 84,31.5316545 84,31.6764635" id="Fill-31" fill="#3A4ACE"></path><path d="M105,31.6764635 C105,31.8212725 102.313489,31.9389298 99,31.9389298 C95.6855762,31.9389298 93,31.8212725 93,31.6764635 C93,31.5316545 95.6855762,31.4150028 99,31.4150028 C102.313489,31.4150028 105,31.5316545 105,31.6764635" id="Fill-31-Copy-3" fill="#3A4ACE"></path><polygon id="Fill-32" fill="#739AF0" points="68 33.1853933 71 33.1853933 71 30.1685393 68 30.1685393"></polygon><polygon id="Fill-34" fill="#A6C7F9" points="88 33.1853933 91 33.1853933 91 30.1685393 88 30.1685393"></polygon><path d="M102,113.634831 L106.198618,107.408243 C106.687199,106.683213 107.656814,106.524573 108.336458,107.057915 L110.545003,108.791792 C111.266355,109.358183 112.302305,109.139641 112.753945,108.325376 L119.124961,96.8492355 C119.656839,95.8916167 120.950188,95.7941197 121.608779,96.662504 L125.586543,101.908338 C126.228451,102.754414 127.480886,102.688314 128.036995,101.779031 L130.943853,97.0268784 C131.550011,96.0362097 132.951007,96.0671939 133.515854,97.0847156 L135.915462,101.408047 C136.479912,102.424742 137.879716,102.456966 138.486669,101.467536 L146.692842,88.0902041 C147.277153,87.138369 148.608238,87.1234966 149.211616,88.0621118 L162.770333,109.155753 C163.31373,110.001416 164.476791,110.091063 165.134191,109.33794 L173.371348,99.9075842 C173.9497,99.2457614 174.943148,99.2218002 175.550498,99.8551176 L182.102647,106.694367 C182.801357,107.424355 183.975937,107.264477 184.471271,106.372544 L196.192447,85.2565942 C196.96226,83.870567 199,84.4386109 199,86.039049 L199,113.634831 L102,113.634831" id="Fill-35" fill="#739AF0"></path><path d="M198.972856,117.657303 C198.970461,117.657303 198.968066,117.601382 198.965671,117.486043 C198.963675,117.36255 198.961679,117.19129 198.958885,116.962943 C198.955692,116.482367 198.951301,115.768202 198.944914,114.791904 L198.972856,114.832097 C193.343686,114.896174 173.760145,114.943358 150.502595,114.943358 C127.237859,114.943358 107.656314,114.896174 102.027543,114.832097 L102.055086,114.791904 C102.049099,115.768202 102.044708,116.482367 102.041913,116.962943 C102.03872,117.19129 102.036325,117.36255 102.034728,117.486043 C102.032333,117.601382 102.029938,117.657303 102.027543,117.657303 C102.025547,117.657303 102.023152,117.601382 102.020757,117.486043 C102.018761,117.36255 102.016765,117.19129 102.013572,116.962943 C102.010778,116.482367 102.006387,115.768202 102,114.791904 L102,114.752293 L102.027543,114.75171 C107.656314,114.687633 127.237859,114.640449 150.502595,114.640449 C173.760145,114.640449 193.343686,114.687633 198.972856,114.75171 L199,114.752293 L199,114.791904 C198.993613,115.768202 198.989621,116.482367 198.986428,116.962943 C198.983634,117.19129 198.981239,117.36255 198.979642,117.486043 C198.977247,117.601382 198.975251,117.657303 198.972856,117.657303" id="Fill-36" fill="#1A282B"></path><path d="M112.4995,116.651685 C112.3555,116.651685 112.2395,116.42638 112.2395,116.149119 C112.2395,115.870887 112.3555,115.646067 112.4995,115.646067 C112.6435,115.646067 112.7605,115.870887 112.7605,116.149119 C112.7605,116.42638 112.6435,116.651685 112.4995,116.651685" id="Fill-37" fill="#1A282B"></path><path d="M123.5005,116.651685 C123.3575,116.651685 123.2395,116.42638 123.2395,116.149119 C123.2395,115.870887 123.3575,115.646067 123.5005,115.646067 C123.6445,115.646067 123.7605,115.870887 123.7605,116.149119 C123.7605,116.42638 123.6445,116.651685 123.5005,116.651685" id="Fill-38" fill="#1A282B"></path><path d="M133.5,116.651685 C133.356,116.651685 133.24,116.42638 133.24,116.149119 C133.24,115.870887 133.356,115.646067 133.5,115.646067 C133.643,115.646067 133.76,115.870887 133.76,116.149119 C133.76,116.42638 133.643,116.651685 133.5,116.651685" id="Fill-39" fill="#1A282B"></path><path d="M144.5005,116.651685 C144.3555,116.651685 144.2395,116.42638 144.2395,116.149119 C144.2395,115.870887 144.3555,115.646067 144.5005,115.646067 C144.6435,115.646067 144.7605,115.870887 144.7605,116.149119 C144.7605,116.42638 144.6435,116.651685 144.5005,116.651685" id="Fill-40" fill="#1A282B"></path><path d="M155.5,116.651685 C155.357,116.651685 155.239,116.42638 155.239,116.149119 C155.239,115.870887 155.357,115.646067 155.5,115.646067 C155.644,115.646067 155.761,115.870887 155.761,116.149119 C155.761,116.42638 155.644,116.651685 155.5,116.651685" id="Fill-41" fill="#1A282B"></path><path d="M167.5,116.651685 C167.356,116.651685 167.24,116.42638 167.24,116.149119 C167.24,115.870887 167.356,115.646067 167.5,115.646067 C167.644,115.646067 167.76,115.870887 167.76,116.149119 C167.76,116.42638 167.644,116.651685 167.5,116.651685" id="Fill-42" fill="#1A282B"></path><path d="M177.5005,116.651685 C177.3565,116.651685 177.2395,116.42638 177.2395,116.149119 C177.2395,115.870887 177.3565,115.646067 177.5005,115.646067 C177.6445,115.646067 177.7605,115.870887 177.7605,116.149119 C177.7605,116.42638 177.6445,116.651685 177.5005,116.651685" id="Fill-43" fill="#1A282B"></path><path d="M188.499,116.651685 C188.356,116.651685 188.24,116.42638 188.24,116.149119 C188.24,115.870887 188.356,115.646067 188.499,115.646067 C188.643,115.646067 188.76,115.870887 188.76,116.149119 C188.76,116.42638 188.643,116.651685 188.499,116.651685" id="Fill-44" fill="#1A282B"></path><path d="M205.923499,61.2445247 C205.923499,61.2445247 205.918718,61.0060503 205.915929,60.5481794 C205.913937,60.0879239 205.911148,59.4094642 205.907163,58.5203522 C205.90278,56.7389485 205.896804,54.1181149 205.888038,50.7444972 C205.878874,44.0032236 205.864928,34.2579675 205.847397,22.2269344 L205.923499,22.3028488 C184.602511,22.310003 155.776484,22.3199394 124.109173,22.3306708 L124.103993,22.3306708 L124.207588,22.2269344 C124.205596,35.9642518 124.203603,49.1642069 124.20201,61.2445247 L124.103993,61.1467502 C147.941536,61.1658281 168.383961,61.1821239 182.870487,61.1936501 C190.11893,61.2051764 195.877202,61.2143179 199.826153,61.2206772 C201.80043,61.2258442 203.321678,61.2298188 204.353242,61.2329984 C204.866435,61.2353832 205.256907,61.2373704 205.522667,61.2385628 C205.786834,61.2409476 205.923499,61.2445247 205.923499,61.2445247 C205.923499,61.2445247 205.794404,61.2488967 205.535019,61.2504865 C205.271649,61.2520764 204.884763,61.2540636 204.376352,61.2568458 C203.349171,61.2592306 201.835094,61.2636026 199.869583,61.2687696 C195.925812,61.2751289 190.17511,61.2842704 182.93623,61.2957967 C168.433368,61.3073229 147.968232,61.3236187 124.103993,61.3422992 L124.005578,61.3426966 L124.005578,61.2445247 C124.003984,49.1642069 124.001992,35.9642518 124,22.2269344 L124,22.1235955 L124.109173,22.1235955 C155.776484,22.1339294 184.602511,22.1438658 205.923499,22.1510201 L206,22.1510201 L206,22.2269344 C205.982867,34.2774429 205.968922,44.0385973 205.958961,50.7909997 C205.950992,54.1570657 205.944218,56.7723349 205.939835,58.549764 C205.936648,59.4325167 205.933859,60.1070018 205.931867,60.5636803 C205.929077,61.0167816 205.923499,61.2445247 205.923499,61.2445247" id="Fill-45" fill="#E2E5ED"></path><path d="M188.064759,40.2247191 L131.935637,40.2247191 C131.419013,40.2247191 131,39.5495428 131,38.7162921 C131,37.8830414 131.419013,37.2078652 131.935637,37.2078652 L188.064759,37.2078652 C188.581384,37.2078652 189,37.8830414 189,38.7162921 C189,39.5495428 188.581384,40.2247191 188.064759,40.2247191" id="Fill-46" fill="#D7E0EC"></path><path d="M188.064759,32.1797753 L131.935637,32.1797753 C131.419013,32.1797753 131,31.5041024 131,30.6716682 C131,29.8379544 131.419013,29.1629213 131.935637,29.1629213 L188.064759,29.1629213 C188.581384,29.1629213 189,29.8379544 189,30.6716682 C189,31.5041024 188.581384,32.1797753 188.064759,32.1797753" id="Fill-47" fill="#D7E0EC"></path><path d="M157.038422,40.2247191 L130.961986,40.2247191 C130.430813,40.2247191 130,39.5495428 130,38.7162921 C130,37.8830414 130.430813,37.2078652 130.961986,37.2078652 L157.038422,37.2078652 C157.569595,37.2078652 158,37.8830414 158,38.7162921 C158,39.5495428 157.569595,40.2247191 157.038422,40.2247191" id="Fill-48" fill="#344A79"></path><path d="M188.064759,47.2640449 L131.935637,47.2640449 C131.419013,47.2640449 131,46.5888687 131,45.755618 C131,44.9223673 131.419013,44.247191 131.935637,44.247191 L188.064759,44.247191 C188.581384,44.247191 189,44.9223673 189,45.755618 C189,46.5888687 188.581384,47.2640449 188.064759,47.2640449" id="Fill-52" fill="#D7E0EC"></path><path d="M165.242953,47.2640449 L131.012768,47.2640449 C130.301443,47.2640449 130,46.5888687 130,45.755618 C130,44.9223673 130.301443,44.247191 130.673695,44.247191 L164.90388,44.247191 C165.574338,44.247191 166,44.9223673 166,45.755618 C166,46.9914145 165.276132,47.2640449 165.242953,47.2640449" id="Fill-53" fill="#344A79"></path><path d="M188.064759,53.2977528 L131.935637,53.2977528 C131.419013,53.2977528 131,52.6227197 131,51.7896458 C131,50.9565718 131.419013,50.2808989 131.935637,50.2808989 L188.064759,50.2808989 C188.581384,50.2808989 189,50.9565718 189,51.7896458 C189,52.6227197 188.581384,53.2977528 188.064759,53.2977528" id="Fill-57" fill="#D7E0EC"></path><path d="M152.053199,53.2977528 L130.947203,53.2977528 C130.424193,53.2977528 130,52.6227197 130,51.7896458 C130,50.9565718 130.424193,50.2808989 130.947203,50.2808989 L152.053199,50.2808989 C152.576209,50.2808989 153,50.9565718 153,51.7896458 C153,52.6227197 152.576209,53.2977528 152.053199,53.2977528" id="Fill-58" fill="#344A79"></path><path d="M168.065104,32.1797753 L130.934896,32.1797753 C130.418681,32.1797753 130,31.5041024 130,30.6716682 C130,29.8379544 130.418681,29.1629213 130.934896,29.1629213 L168.065104,29.1629213 C168.581319,29.1629213 169,29.8379544 169,30.6716682 C169,31.5041024 168.581319,32.1797753 168.065104,32.1797753" id="Fill-62" fill="#739AF0"></path><path d="M186,65.8674747 C186,66.0122837 172.119906,66.129941 155.001403,66.129941 C137.877288,66.129941 124,66.0122837 124,65.8674747 C124,65.7226657 137.877288,65.606014 155.001403,65.606014 C172.119906,65.606014 186,65.7226657 186,65.8674747" id="Fill-66" fill="#DFDFDA"></path><path d="M186,68.8843287 C186,69.0291376 172.119906,69.1467949 155.001403,69.1467949 C137.877288,69.1467949 124,69.0291376 124,68.8843287 C124,68.7395197 137.877288,68.622868 155.001403,68.622868 C172.119906,68.622868 186,68.7395197 186,68.8843287" id="Fill-67" fill="#DFDFDA"></path><path d="M186,72.9078062 C186,73.0516096 172.119906,73.1692669 155.001403,73.1692669 C137.877288,73.1692669 124,73.0516096 124,72.9078062 C124,72.7619916 137.877288,72.6453399 155.001403,72.6453399 C172.119906,72.6453399 186,72.7619916 186,72.9078062" id="Fill-68" fill="#DFDFDA"></path><path d="M46.4997302,111.623596 L46.4997302,111.623596 C45.6713438,111.623596 45,111.124995 45,110.50976 L45,89.608618 C45,88.9933834 45.6713438,88.494382 46.4997302,88.494382 C47.3281166,88.494382 48,88.9933834 48,89.608618 L48,110.50976 C48,111.124995 47.3281166,111.623596 46.4997302,111.623596" id="Fill-69" fill="#DAE0EF"></path><path d="M46.4997302,111.623596 L46.4997302,111.623596 C45.6713438,111.623596 45,111.11188 45,110.481476 L45,96.6750065 C45,96.0446023 45.6713438,95.5337079 46.4997302,95.5337079 C47.3281166,95.5337079 48,96.0446023 48,96.6750065 L48,110.481476 C48,111.11188 47.3281166,111.623596 46.4997302,111.623596" id="Fill-70" fill="#648DE6"></path><path d="M51.5002698,111.623596 L51.5002698,111.623596 C50.6718834,111.623596 50,111.124995 50,110.50976 L50,89.608618 C50,88.9933834 50.6718834,88.494382 51.5002698,88.494382 C52.3281166,88.494382 53,88.9933834 53,89.608618 L53,110.50976 C53,111.124995 52.3281166,111.623596 51.5002698,111.623596" id="Fill-73" fill="#DAE0EF"></path><path d="M51.5002698,111.623596 L51.5002698,111.623596 C50.6718834,111.623596 50,111.120049 50,110.499709 L50,92.6343144 C50,92.0143784 50.6718834,91.511236 51.5002698,91.511236 C52.3281166,91.511236 53,92.0143784 53,92.6343144 L53,110.499709 C53,111.120049 52.3281166,111.623596 51.5002698,111.623596" id="Fill-74" fill="#648DE6"></path><path d="M54.5002698,111.623596 L54.5002698,111.623596 C53.6718834,111.623596 53,111.124995 53,110.50976 L53,89.608618 C53,88.9933834 53.6718834,88.494382 54.5002698,88.494382 C55.3286562,88.494382 56,88.9933834 56,89.608618 L56,110.50976 C56,111.124995 55.3286562,111.623596 54.5002698,111.623596" id="Fill-77" fill="#DAE0EF"></path><path d="M54.5002698,111.623596 L54.5002698,111.623596 C53.6718834,111.623596 53,111.102131 53,110.459716 L53,99.7140229 C53,99.0711897 53.6718834,98.5505618 54.5002698,98.5505618 C55.3286562,98.5505618 56,99.0711897 56,99.7140229 L56,110.459716 C56,111.102131 55.3286562,111.623596 54.5002698,111.623596" id="Fill-78" fill="#648DE6"></path><path d="M61.4997302,111.623596 L61.4997302,111.623596 C60.6713438,111.623596 60,111.124995 60,110.50976 L60,89.608618 C60,88.9933834 60.6713438,88.494382 61.4997302,88.494382 C62.3281166,88.494382 63,88.9933834 63,89.608618 L63,110.50976 C63,111.124995 62.3281166,111.623596 61.4997302,111.623596" id="Fill-81" fill="#DAE0EF"></path><path d="M61.4997302,111.623596 L61.4997302,111.623596 C60.6713438,111.623596 60,111.120049 60,110.499709 L60,92.6343144 C60,92.0143784 60.6713438,91.511236 61.4997302,91.511236 C62.3281166,91.511236 63,92.0143784 63,92.6343144 L63,110.499709 C63,111.120049 62.3281166,111.623596 61.4997302,111.623596" id="Fill-82" fill="#648DE6"></path><path d="M64.5002698,111.623596 L64.5002698,111.623596 C63.6713438,111.623596 63,111.124995 63,110.50976 L63,89.608618 C63,88.9933834 63.6713438,88.494382 64.5002698,88.494382 C65.3286562,88.494382 66,88.9933834 66,89.608618 L66,110.50976 C66,111.124995 65.3286562,111.623596 64.5002698,111.623596" id="Fill-85" fill="#DAE0EF"></path><path d="M64.5002698,111.623596 L64.5002698,111.623596 C63.6713438,111.623596 63,111.107783 63,110.472331 L63,95.67894 C63,95.0434886 63.6713438,94.5280899 64.5002698,94.5280899 C65.3286562,94.5280899 66,95.0434886 66,95.67894 L66,110.472331 C66,111.107783 65.3286562,111.623596 64.5002698,111.623596" id="Fill-86" fill="#648DE6"></path><path d="M69.4997302,111.623596 L69.4997302,111.623596 C68.6713438,111.623596 68,111.124995 68,110.50976 L68,89.608618 C68,88.9933834 68.6713438,88.494382 69.4997302,88.494382 C70.3281166,88.494382 71,88.9933834 71,89.608618 L71,110.50976 C71,111.124995 70.3281166,111.623596 69.4997302,111.623596" id="Fill-89" fill="#DAE0EF"></path><path d="M69.4997302,111.623596 L69.4997302,111.623596 C68.6713438,111.623596 68,111.102951 68,110.563054 L68,99.8170172 C68,99.0716249 68.6713438,98.5505618 69.4997302,98.5505618 C70.3281166,98.5505618 71,99.0716249 71,99.7140601 L71,110.460516 C71,111.102951 70.3281166,111.623596 69.4997302,111.623596" id="Fill-90" fill="#648DE6"></path><path d="M73.4997302,111.623596 L73.4997302,111.623596 C72.6713438,111.623596 72,111.124995 72,110.50976 L72,89.608618 C72,88.9933834 72.6713438,88.494382 73.4997302,88.494382 C74.3281166,88.494382 75,88.9933834 75,89.608618 L75,110.50976 C75,111.124995 74.3281166,111.623596 73.4997302,111.623596" id="Fill-93" fill="#DAE0EF"></path><path d="M73.4997302,111.623596 L73.4997302,111.623596 C72.6713438,111.623596 72,111.121573 72,110.503111 L72,91.6257 C72,91.0072374 72.6713438,90.505618 73.4997302,90.505618 C74.3281166,90.505618 75,91.0072374 75,91.6257 L75,110.503111 C75,111.121573 74.3281166,111.623596 73.4997302,111.623596" id="Fill-94" fill="#648DE6"></path><path d="M78.5002698,111.623596 L78.5002698,111.623596 C77.6713438,111.623596 77,111.124995 77,110.50976 L77,89.608618 C77,88.9933834 77.6713438,88.494382 78.5002698,88.494382 C79.3286562,88.494382 80,88.9933834 80,89.608618 L80,110.50976 C80,111.124995 79.3286562,111.623596 78.5002698,111.623596" id="Fill-97" fill="#DAE0EF"></path><path d="M78.5002698,111.623596 L78.5002698,111.623596 C77.6713438,111.623596 77,111.044017 77,110.33001 L77,100.848835 C77,100.134828 77.6713438,99.5561798 78.5002698,99.5561798 C79.3286562,99.5561798 80,100.134828 80,100.848835 L80,110.33001 C80,111.044017 79.3286562,111.623596 78.5002698,111.623596" id="Fill-98" fill="#648DE6"></path><path d="M83.4997302,111.623596 L83.4997302,111.623596 C82.6713438,111.623596 82,111.124995 82,110.50976 L82,89.608618 C82,88.9933834 82.6713438,88.494382 83.4997302,88.494382 C84.3281166,88.494382 85,88.9933834 85,89.608618 L85,110.50976 C85,111.124995 84.3281166,111.623596 83.4997302,111.623596" id="Fill-101" fill="#DAE0EF"></path><path d="M83.4997302,111.623596 L83.4997302,111.623596 C82.6713438,111.623596 82,111.229769 82,110.821381 L82,108.559096 C82,107.995266 82.6713438,107.601124 83.4997302,107.601124 C84.3281166,107.601124 85,107.995266 85,108.481217 L85,110.743818 C85,111.229769 84.3281166,111.623596 83.4997302,111.623596" id="Fill-102" fill="#648DE6"></path><path d="M86.5002698,111.623596 L86.5002698,111.623596 C85.6718834,111.623596 85,111.124995 85,110.50976 L85,89.608618 C85,88.9933834 85.6718834,88.494382 86.5002698,88.494382 C87.3281166,88.494382 88,88.9933834 88,89.608618 L88,110.50976 C88,111.124995 87.3281166,111.623596 86.5002698,111.623596" id="Fill-105" fill="#DAE0EF"></path><path d="M86.5002698,111.623596 L86.5002698,111.623596 C85.6718834,111.623596 85,111.102951 85,110.563054 L85,99.8170172 C85,99.0716249 85.6718834,98.5505618 86.5002698,98.5505618 C87.3281166,98.5505618 88,99.0716249 88,99.7140601 L88,110.460516 C88,111.102951 87.3281166,111.623596 86.5002698,111.623596" id="Fill-106" fill="#648DE6"></path><path d="M96.5005,114.640449 C96.3565,114.640449 96.2395,107.661622 96.2395,99.0541841 C96.2395,90.4438999 96.3565,83.4662921 96.5005,83.4662921 C96.6435,83.4662921 96.7605,90.4438999 96.7605,99.0541841 C96.7605,107.661622 96.6435,114.640449 96.5005,114.640449" id="Fill-110" fill="#DFDFDA"></path><g id="Group-114" transform="translate(102.000000, 84.471910)"><mask id="mask-3" fill="white"><use xlink:href="#path-2"></use></mask><g id="Clip-113"></g><polygon id="Fill-112" fill="#648DE6" mask="url(#mask-3)" points="0.1696 29.0388762 97.8484 29.0388762 97.8484 0.0439497547 0.1696 0.0439497547"></polygon></g><path d="M150.501,78.9510674 L150.499,78.9309551 C150.5,78.9379944 150.5,78.9450337 150.501,78.9510674" id="Fill-186" fill="#A6A6A2"></path><polyline id="Fill-202" fill="#AAAAA7" points="132 56.2135421 131 55.4100534 132 56.2135421"></polyline><g id="Group-103" transform="translate(110.000000, 58.325843)"><path d="M17.6,13.2473949 C17.6,13.2473949 25.2114974,21.2969557 25.5763923,24.3316641 C25.9412872,27.3675667 21.9554226,32.1148967 21.9554226,32.1148967 L17.6,13.2473949" id="Fill-258" fill="#F2564B"></path><path d="M14.4,95.2875201 C14.4,95.2875201 14.1365144,99.4881814 13.3177005,99.5491455 C13.208998,99.5561798 9.16337196,99.5561798 9.16337196,99.5561798 L4,99.5268701 C4,99.5268701 4.03308339,98.292347 5.54310384,98.0309048 C7.05194274,97.770635 9.57927744,96.7178318 10.4937969,94.7376708 C11.4555783,92.6555121 14.4,95.2875201 14.4,95.2875201" id="Fill-259" fill="#163560"></path><path d="M25.6,95.2875201 C25.6,95.2875201 25.3380828,99.4881814 24.5204765,99.5491455 C24.4119342,99.5561798 20.3722745,99.5561798 20.3722745,99.5561798 L15.2,99.538594 C15.2,99.538594 15.2495519,98.292347 16.7561656,98.0309048 C18.2639592,97.770635 20.7863868,96.7178318 21.6995576,94.7376708 C22.6599206,92.6555121 25.6,95.2875201 25.6,95.2875201" id="Fill-260" fill="#163560"></path><path d="M10.5625,45.5831191 C13.1638673,42.058597 20.5705071,95.7475435 20.5705071,95.7475435 C20.5705071,95.7475435 21.9391401,95.9432539 23.3849294,95.9432539 C24.3001211,95.9432539 26,95.596366 26,95.596366 C26,95.596366 23.2104376,43.7565468 23.2104376,43.7565468 L10.5625,45.5831191 Z" id="Fill-261" fill="#21407E"></path><path d="M9.53936066,95.590296 C9.53936066,95.590296 11.3870581,95.9201709 12.0355176,95.9413017 C12.7298752,95.9647803 14.9129828,95.7687336 14.9129828,95.7687336 C14.9129828,95.7687336 17.4568481,45.0616159 17.4568481,45.0616159 L6.00402103,44.157983 C6.00402103,44.157983 9.53936066,95.590296 9.53936066,95.590296 Z" id="Fill-262" fill="#2A4690"></path><path d="M16.4,14.2398392 L13.782868,16.0574484 L10,15.3105638 C10.0522697,14.987864 10.3014625,13.6457523 10.5287749,12.4313522 C10.5433618,12.3595145 10.5567331,12.2876767 10.5701045,12.2181195 C10.7645964,11.1850242 10.9323457,10.2967447 10.9323457,10.2967447 L14.4660209,8.64447635 L15.7824881,8.02872418 C15.7788414,8.05038953 15.6803799,9.17584767 15.6670085,9.34004825 C15.4202469,12.2580294 16.4,14.2398392 16.4,14.2398392" id="Fill-263" fill="#EEA886"></path><path d="M10.4523782,13.2647982 C10.5322372,13.233184 15.4236054,11.8933955 15.9544334,12.0569173 C16.4864357,12.2193489 16.8,13.1743161 16.8,13.1743161 L8.8,14.8531397 C8.8,14.8531397 9.42947739,13.6637913 10.4523782,13.2647982" id="Fill-264" fill="#F2564B"></path><path d="M23.7903838,45.8809486 C22.9413082,49.6263809 8.81129463,50.0705768 5.16844748,46.670501 C4.75353092,46.2832831 4.73428841,44.4809174 4.88943113,42.0494678 C5.19610859,37.3016876 6.17747645,30.1573424 6.21475881,26.5084239 C6.23400132,24.7455939 6.48415391,22.9432281 6.81849248,21.3059824 C7.52805993,17.8175325 8.61045096,15.0790994 8.61045096,15.0790994 C8.61045096,15.0790994 15.5124978,12.9220746 16.8029484,13.2895247 C23.0254942,15.0570059 24.6394595,42.1366791 23.7903838,45.8809486" id="Fill-265" fill="#FB7369"></path><path d="M6.50932881,26.3354818 C6.52833903,24.5870756 6.77547188,22.7994572 7.10577443,21.1756077 L11.2072291,20.4732466 C11.2072291,20.4732466 15.2171971,36.3726708 5.2,41.7493657 C5.50297536,37.0404328 6.47249652,29.9545441 6.50932881,26.3354818 Z" id="Fill-266" fill="#F85F55"></path><path d="M7.535911,35.5192576 C7.535911,35.5192576 7.80745706,36.1431452 7.23663258,36.5609171 C6.6658081,36.9797972 6.29488774,37.6579841 6.42661647,38.1533264 C6.55718968,38.6486687 7.80976809,39.4565089 8.24308626,39.3268555 C8.67755995,39.196094 9.56152903,38.5433946 9.46677679,38.2818716 C9.37086904,38.0214567 10.0607116,35.9891126 9.00225971,35.2067598 C7.94380784,34.424407 7.535911,35.5192576 7.535911,35.5192576" id="Fill-267" fill="#EEA886"></path><path d="M11.9278158,14.0502673 C11.9278158,14.0502673 7.94591105,14.7853412 4.77410573,19.3976385 C1.60111779,24.0111025 -0.486218673,27.4402807 0.0979990104,29.1029479 C0.682216694,30.7656152 6.00995083,36.530695 6.9276693,36.530695 C7.84657039,36.530695 9.32840189,35.8726288 9.41236839,34.3896463 C9.41236839,34.3896463 5.6610759,28.8439219 6.40021771,28.0131717 C6.71597909,27.6584693 11.2690926,24.0111025 11.9195374,25.6586015 C12.9957279,28.384209 11.9278158,14.0502673 11.9278158,14.0502673" id="Fill-268" fill="#FB7369"></path><path d="M15.1027003,8.82089262 C14.3543035,10.2978321 11.5636515,11.5741399 10.4,12.0430863 C10.4140764,11.9669429 10.4269798,11.8907995 10.4398832,11.8170734 C10.6275689,10.7220594 10.7894479,9.78054069 10.7894479,9.78054069 L14.1994628,8.0292434 C14.9525517,8.01715715 15.4112087,8.21416299 15.1027003,8.82089262" id="Fill-269" fill="#EEA886"></path><path d="M9.8583801,10.0570925 C9.8583801,10.0570925 15.1224895,11.582625 16.0952851,8.52246598 C17.0668572,5.46230696 18.401851,3.59801989 15.0808856,2.49422553 C11.7611439,1.39043118 10.734508,2.37827597 10.1422651,3.32747091 C9.55002223,4.27552909 8.51359716,9.58192668 9.8583801,10.0570925" id="Fill-270" fill="#EEA886"></path><path d="M10.4737876,2.87377645 C10.4737876,2.87377645 10.7945831,6.67054101 11.5532527,6.50572774 C12.3119224,6.34091447 12.999174,6.21851638 12.8891201,7.36372624 C12.7778954,8.50772425 11.7253584,9.82865414 14.0634189,10.0310351 C16.4014795,10.234628 19.7616367,3.99353721 19.1200457,2.81197148 C17.2666907,-0.596997151 7.79502818,-1.28533493 10.4737876,2.87377645" id="Fill-271" fill="#163560"></path></g><g id="Group-104" transform="translate(22.000000, 63.353933)"><g id="Group-48"><path d="M19.8320904,0.709621584 C19.0780566,0.264923471 18.1736616,0.21641095 17.5410307,0.255682991 C17.7047573,0.0812689263 18.0244142,0.0177406246 18.0244142,0.0177406246 C17.6323612,-0.0434775571 16.7569246,0.360793454 16.7569246,0.360793454 C11.30271,-1.81880483 10.4462078,6.509178 10.5598141,8.44390356 C10.6745341,10.3786291 8.72763453,11.011602 5.88970538,12.5351262 C0.475587027,15.4447224 -5.68434189e-14,19.3395848 -5.68434189e-14,19.3395848 C0.042323904,19.3649962 0.085761595,19.3950277 0.132540647,19.4285245 C0.400963301,18.9561049 0.954515415,18.0701739 1.42119215,17.9361869 C1.40337156,17.9789241 0.869867607,19.1559303 0.670499743,19.8304854 C2.26767023,21.0906558 5.25596061,23.883591 7.3387422,25.8622088 C7.32983191,25.4752637 7.34431114,24.9266102 7.48019315,24.6366901 L7.73747793,26.2433786 C8.85237867,27.3060339 9.62089166,28.0533577 9.62089166,28.0533577 C9.48278208,26.4894064 16.4394954,18.2376576 20.069327,15.7669842 C20.9525601,14.417874 21.266648,12.0349852 21.2900375,11.8467104 C21.1374487,13.7363886 20.8267022,14.7967337 20.5471416,15.3927447 C23.6211936,12.4600473 21.831338,1.88778282 19.8320904,0.709621584" id="Fill-274" fill="#163560"></path><path d="M19.8217563,15.6058224 C19.8396303,15.6137169 18.0645276,16.5452673 16.7284529,16.1764816 C15.4716937,15.8302516 14.650611,14.1859412 14.6684849,14.18143 C15.2002337,14.0754183 15.353279,13.3367191 15.3421078,10.16426 L15.5834056,10.2127548 L19.6273776,11.0213766 C19.6273776,11.0213766 19.5357738,12.3059237 19.5335396,13.5171647 C19.5301882,14.5332989 19.5916298,15.4975551 19.8217563,15.6058224" id="Fill-275" fill="#EEA886"></path><path d="M37.9840359,94.7309036 C37.3827436,94.7309036 36.4005952,94.753846 35.0375907,94.799731 C34.5318964,94.8328886 34.2150152,94.7619595 34.0869472,94.5869437 C33.9588791,94.4119279 33.7396481,93.4878846 33.4292539,91.814814 C34.7315669,91.5668349 35.4567002,90.925355 36.7059057,91.1388726 C37.9551112,91.3523902 37.1365334,91.8272518 39.2420551,92.4445203 C40.4658372,93.0251729 42.0224074,93.4319368 42.0224074,94.7309036 L37.9840359,94.7309036 Z" id="Fill-287" fill="#163560"></path><path d="M37.9845672,91.8835936 L33.62212,92.6706797 C32.4906229,92.5313461 17.6250388,58.9634653 15.7928184,53.3901192 C15.5014839,52.5015817 15.2397382,51.6667218 15.005305,50.875261 C14.9301953,50.6217194 14.8562237,50.3727462 14.7868042,50.1283413 C13.4371064,45.4218333 13.0467637,42.3325093 12.6860098,39.0307586 L25.9109998,39.1369719" id="Fill-279" fill="#B8D3E8"></path><path d="M23.924277,31.2026692 C23.8925309,37.5810306 24.8120745,40.3185694 24.8120745,40.3185694 C24.8120745,40.3185694 19.3659682,43.2349191 12.8919436,41.0880335 C12.8164097,41.0626539 7.5323183,39.7913653 7.5323183,39.7913653 C7.64069308,39.5341082 8.60402443,35.2345689 8.70911512,34.9980769 C10.0763888,31.9040698 11.1141594,30.5485671 11.2761742,29.5979847 C11.5772153,27.8225645 11.5837835,25.9848489 11.4338103,24.2532662 C11.0386255,19.6664757 9.86401805,15.8595318 9.86401805,15.8595318 C11.6275712,15.4361535 13.3254428,14.7128342 15.1612458,13.9872076 C15.583798,14.5420985 16.8284659,15.1016039 17.9483386,15.0750707 C19.2378889,15.0450766 19.6407366,14.4705741 19.5936647,13.8233937 C20.9675066,14.6297736 22.0600119,15.3957768 22.0600119,15.3957768 C23.2280512,17.5334335 25.5958759,19.6099483 25.767743,22.8885345 C25.810436,23.6949145 23.9253717,31.0238582 23.924277,31.2026692" id="Fill-280" fill="#E7F1FD"></path><path d="M20.4334659,12.1968814 C20.4334659,12.1968814 15.1273745,12.2882131 15.1240541,8.8361074 C15.1207336,5.38400175 14.4333989,3.07065164 17.8202657,2.86717857 C21.2082393,2.6625494 21.8679036,3.97934389 22.1368606,5.1308165 C22.4069245,6.28228912 21.8136694,12.08474 20.4334659,12.1968814" id="Fill-282" fill="#EEA886"></path><path d="M21.9934453,3.58696867 C21.1468491,2.53491025 20.5073257,2.7636186 20.1480943,3.07911884 C18.9628595,1.26352638 15.216099,3.88956742 15.216099,3.88956742 C14.8500033,6.40301357 13.0824476,7.84211689 13.0824476,7.84211689 C13.0824476,7.84211689 14.0812024,8.4754631 16.3864611,7.86791989 C18.1997788,7.38939164 19.5154352,4.74341193 19.9947917,3.6374018 C20.3208457,3.93413622 21.0084191,4.62143414 21.214348,5.29348484 C21.4877757,6.18603385 21.611333,8.02156498 22.1330193,7.95940323 C22.1330193,7.95940323 23.2644838,5.1668156 21.9934453,3.58696867" id="Fill-283" fill="#163560"></path><path d="M17.758701,94.7266201 C17.758701,94.7266201 17.7571642,94.7280479 17.7525539,94.7309036 L13.1698301,94.7309036 C13.1652197,94.7280479 13.1636829,94.7266201 13.1636829,94.7266201 C12.9131853,93.6343208 13.3219728,91.5753724 13.3219728,91.5753724 C15.8300229,93.804234 17.3990909,91.5196865 17.3990909,91.5196865 C17.8063417,92.4720573 17.758701,94.7266201 17.758701,94.7266201" id="Fill-285" fill="#163560"></path><path d="M41.858932,17.8658827 C41.858932,17.8658827 38.3348388,19.8819724 37.0772739,20.4627437 C36.6293434,20.6689347 35.8185892,21.0549701 34.9899177,21.451315 C34.4893554,21.6895801 33.9831939,21.9324273 33.5453418,22.1443458 C32.8051367,22.4994526 31.9249532,22.3047166 31.3930358,21.668961 C29.4848518,19.3905505 24.546418,14.4499852 19.4467292,13.8314122 L19.4299318,13.8233937 C19.4299318,13.8233937 19.4299318,13.8256847 19.4321714,13.8291212 C19.4299318,13.8291212 19.4276921,13.8291212 19.4254525,13.8279757 L19.4534481,13.8841055 C19.7401236,14.6137925 22.5363298,21.7583105 22.6225564,23.2657958 C22.7132624,24.8534664 22.9876198,49.2401337 22.9876198,49.2401337 C22.9876198,49.2401337 22.8050881,50.3615836 24.9058822,49.8942173 C27.0066763,49.4268511 27.5553911,48.9606303 27.5553911,48.9606303 C27.5553911,48.9606303 25.545303,33.9167062 26.092898,28.6851824 C26.2004014,27.657664 26.1040963,26.5041399 25.8790112,25.3128141 C28.9854093,27.2372634 32.6472412,28.0929561 32.6472412,28.0929561 C32.6472412,28.0929561 34.0123094,27.4835471 36.1355,26.1387236 C37.0257619,25.5728439 38.0593615,24.671331 39.0761638,23.7171249 C40.3046132,22.5658919 42.4188452,19.7823134 42.4188452,19.7823134 L41.858932,17.8658827" id="Fill-288" fill="#E37970"></path><path d="M17.7604137,92.6706797 C14.7666478,92.5017486 13.2697648,92.4172831 13.2697648,92.4172831 C11.8466932,85.2257867 10.281906,73.0366634 9.54346578,67.9094985 C8.93897521,63.7020965 8.40088702,60.096078 7.98644462,56.9910222 C7.57085735,53.8654258 7.28120562,51.2499212 7.17702258,49.038382 C7.16099442,48.6903328 7.14954574,48.3514127 7.14267653,48.0227629 C7.13589765,47.692972 7.13466245,47.3711691 7.13695219,47.0596364 L18.6325768,45.9424554 C18.4883234,53.5561755 17.3068191,65.1981377 17.325137,67.7234918 C17.3583382,72.0678312 18.3282685,88.5351699 17.7604137,92.6706797 Z" id="Fill-290" fill="#B8D3E8"></path><path d="M14.4309801,49.0460867 C14.4309801,49.0460867 13.6469689,51.9752314 10.933425,51.6014931 C8.21988112,51.2266085 4.36081586,49.5436401 4.36081586,49.5436401 C4.36081586,49.5436401 5.52075329,45.7558147 6.96235813,40.7791349 C8.70780892,34.7546124 10.8691073,26.9875067 11.8871021,22.0887846 C12.1732052,20.715354 12.3683763,19.5689177 12.4415655,18.7480693 L14.7392618,14.2299641 C14.7392618,14.2299641 18.0494083,22.0211449 18.2301634,23.9849902 C18.4109184,25.9488355 14.4309801,49.0460867 14.4309801,49.0460867" id="Fill-292" fill="#E37970"></path><path d="M24.3200999,26.1425017 C23.0284243,26.3186622 22.5323857,27.0347433 22.3732583,28.0013383 C22.2865612,28.5218125 22.0286651,29.0377111 21.8102764,29.4014712 C20.5229905,29.4735368 17.4567697,29.6474095 14.8811003,29.8167066 L14.6681988,33.3387729 C16.7840448,33.0642371 19.384955,32.5048703 22.377648,31.4364682 C22.607011,31.3952878 22.8945377,31.2465809 23.2544949,30.9400159 C25.1091525,29.3568591 26.1615883,26.7053002 26.1648951,26.3255256 C26.1681729,25.945751 25.6128731,25.9651973 24.3200999,26.1425017" id="Fill-293" fill="#EEA886"></path><path d="M15.1538732,14.2299641 C15.1538732,14.2299641 9.63182252,14.6342434 8.30484391,17.6863806 C6.97675578,20.7373725 6.5551405,30.8890214 8.24382064,33.8781689 C8.24382064,33.8781689 10.5704713,34.5618934 14.6834393,33.7682232 C14.7344769,33.7579158 14.784405,33.7487537 14.8354427,33.7384462 C14.8354427,33.7384462 16.1479976,30.4217523 14.9708034,29.7678047 C14.9708034,29.7678047 11.5024629,29.9544833 11.8641645,28.7714222 C12.225866,27.5883612 15.1538732,14.2299641 15.1538732,14.2299641" id="Fill-295" fill="#E37970"></path><path d="M45.1442855,15.4886037 C42.3458494,15.0864 41.6391841,17.9333944 41.6391841,17.9333944 L42.1618655,19.8894609 C43.0242898,20.0227493 43.7790417,19.771372 44.4752533,18.6582965 C45.1704196,17.5440519 45.361721,17.9719779 45.8039094,17.1430173 C46.4039477,16.0194191 45.4652119,15.6008466 45.1442855,15.4886037" id="Fill-296" fill="#EEA886"></path><path d="M37.0029334,20.5691859 C36.5487689,20.7819851 35.7267312,21.1803926 34.8865269,21.58944 C35.3361497,22.4205393 35.8981783,23.9302317 36.0480526,26.4270761 C36.9507045,25.8430604 38.1201781,24.8712772 39.1182046,23.8510231 C40.7202699,22.2136511 42.4188452,19.8669484 42.4188452,19.8669484 L41.8511395,17.8890977 C41.8511395,17.8890977 38.2780003,19.9698014 37.0029334,20.5691859" id="Fill-297" fill="#EEA886"></path></g></g><g id="Group-100" transform="translate(179.000000, 60.337079)"><path d="M16.5787011,39.977436 C16.5787011,39.977436 14.194774,40.5818195 12.6797783,40.1319307 C11.1647826,39.6808061 8.5567363,40.4211449 8.13604328,40.9662024 C7.71660232,41.5124959 7.87060602,41.7287885 8.61933943,41.9166541 C9.3693249,42.1057557 12.0249496,43.2230618 13.7703248,42.5766557 C15.5157,41.9290137 17.7906977,41.9055305 17.7906977,41.9055305 L16.5787011,39.977436" id="Fill-298" fill="#EEA886"></path><path d="M37.1627907,19.0530198 C37.1627907,19.0530198 34.4671177,38.1231146 30.003315,39.8304163 C27.8016597,40.6734043 18.0674949,42.5839262 15.1890857,42.7758565 C15.1890857,42.7758565 14.4833462,42.2063378 14.6547401,39.8881208 C14.6547401,39.8881208 24.8526766,36.1611604 26.3019631,34.1352294 C28.4569893,31.1182857 24.9623182,21.812802 27.6680733,18.9802619 C30.3738283,16.1477218 34.9308894,14.9296543 37.1627907,19.0530198" id="Fill-299" fill="#1C468A"></path><path d="M36.4181575,93.2585419 L36.4181575,89.0793001 L42.8607518,89.0793001 C43.0348092,89.0793001 43.1767709,88.9343188 43.1767709,88.7565592 L43.1767709,88.0871241 C43.1767709,87.9093645 43.0348092,87.7643832 42.8607518,87.7643832 L36.4181575,87.7643832 L36.4181575,63.9786348 C36.4181575,63.3104604 35.8836407,62.7645745 35.2306167,62.7645745 L33.9554299,62.7645745 C33.3024058,62.7645745 32.767889,63.3104604 32.767889,63.9786348 L32.767889,87.7643832 L26.3252948,87.7643832 C26.1524718,87.7643832 26.0092756,87.9093645 26.0092756,88.0871241 L26.0092756,88.7565592 C26.0092756,88.9343188 26.1524718,89.0793001 26.3252948,89.0793001 L32.767889,89.0793001 L32.767889,93.2585419 C28.106606,93.6178433 24.3723949,95.3311433 23.3255814,97.5449438 L45.8604651,97.5449438 C44.8136516,95.3311433 41.0794405,93.6178433 36.4181575,93.2585419" id="Fill-300" fill="#BACAE1"></path><path d="M14.2325581,92.9896631 C14.2325581,92.9896631 13.9533616,97.4711488 13.0818154,97.5361885 C12.9661124,97.5449438 8.65994515,97.5449438 8.65994515,97.5449438 L3.1627907,97.512424 C3.1627907,97.512424 3.19926232,96.19537 4.80652917,95.9164497 C6.41253838,95.6387802 9.10137759,94.5155946 10.0747927,92.4043058 C11.0985136,90.181699 14.2325581,92.9896631 14.2325581,92.9896631" id="Fill-302" fill="#163560"></path><path d="M36.1069439,59.6592594 C35.323495,60.9983467 34.4170044,62.2514491 33.4828923,63.4400629 C30.597691,67.109592 27.4551068,70.1342348 26.907697,72.9944948 C26.7997216,73.5647766 26.6264589,74.1793152 26.400464,74.8254659 C26.1719581,75.480468 25.8894645,76.1696111 25.5630275,76.8815149 C24.3388886,79.5609539 22.5070746,82.5628361 20.6777716,85.2928544 C17.5176099,90.0093752 14.5445218,93.9469746 14.5445218,93.9469746 L9.09302326,93.7130453 C9.31148497,93.1629953 11.6894533,86.64838 14.8697033,78.6871963 C16.1616407,75.4564428 17.5351873,72.0183141 18.8597684,68.7041048 C19.0367977,68.2615358 19.2125715,67.8202313 19.3870898,67.3839847 C19.792625,66.3686051 20.1918826,65.3696637 20.581096,64.3972764 C23.5679949,56.9229187 25.9459632,50.9709982 25.9459632,50.9709982 C25.9459632,50.9709982 37.8835147,46.4163312 39.1227199,49.367634 C40.1447189,51.8004989 39.3123045,54.184049 36.1069439,59.6592594" id="Fill-301" fill="#2A4690"></path><path d="M26.5854543,79.0599642 C26.5854543,79.0599642 30.3904476,81.5238572 30.0212876,82.3235752 C29.9721503,82.4302043 27.8693245,86.2244218 27.8693245,86.2244218 L25.1566919,91.053195 C25.1566919,91.053195 24.015194,90.3702613 24.5557046,88.8165235 C25.0949553,87.2627857 25.4212776,84.3368335 24.0391327,82.4340124 C22.5851717,80.4321787 26.5854543,79.0599642 26.5854543,79.0599642" id="Fill-303" fill="#163560"></path><path d="M21.8662371,48.7724719 C21.8662371,48.7724719 6.90195305,58.0851945 5.2317313,64.343785 C3.56150955,70.6011228 25.137715,83.9526156 25.137715,83.9526156 C25.137715,83.9526156 27.5038624,81.8655836 27.9214179,80.3360121 C27.9214179,80.3360121 18.1696802,68.6631645 16.0530629,66.0462319 C14.7540015,64.4389918 35.2643748,60.4829011 37.7697074,56.5894465 C40.2762939,52.6947391 39.378487,49.4188756 39.378487,49.4188756 L21.8662371,48.7724719" id="Fill-304" fill="#2C4893"></path><path d="M19.2981716,60.7657027 C18.6870038,60.7657027 18.1860465,61.2698469 18.1860465,61.8849029 L18.1860465,68.0417641 C18.1860465,68.65682 18.6870038,69.1609643 19.2981716,69.1609643 L49.8878749,69.1609643 C50.4990427,69.1609643 51,68.65682 51,68.0417641 L51,61.8849029 C51,61.2698469 50.4990427,60.7657027 49.8878749,60.7657027 L19.2981716,60.7657027 Z" id="Fill-305" fill="#AFC1DA"></path><path d="M28.758688,16.1409576 C27.295096,17.0590597 26.4883721,18.225024 26.4883721,18.225024 C30.0586874,19.1595659 35.9767442,15.8096315 35.9767442,15.8096315 C35.9767442,15.8096315 33.6789547,14.245317 32.827274,10.8093895 C32.7848149,10.6361388 32.7448533,10.4590944 32.7111357,10.2769915 C32.5987439,9.69780309 32.5300599,9.07182439 32.5175719,8.39526156 L28.1505231,12.3572641 C28.1505231,12.3572641 28.2117142,13.3841221 28.5526363,15.1507731 C28.6125786,15.4580717 28.6800137,15.7893978 28.758688,16.1409576" id="Fill-306" fill="#EEA886"></path><path d="M39.4405438,33.0698519 C38.9372822,39.9778627 39.7838445,50.4790926 39.2129071,52.2989044 C38.7194893,53.8691349 32.9141389,52.9397893 30.6697644,52.415543 C29.8391981,52.2211454 28.8339054,51.9439722 27.7941595,51.6166318 C24.8964062,50.7023362 21.739024,49.3967372 21.4006452,48.4272579 C21.38711,48.3883784 21.3760358,48.3520072 21.368653,48.3156361 C21.3378913,48.173914 21.3452741,48.0422253 21.3748053,47.9092825 C21.4880084,47.4151365 21.9235943,46.8796026 21.9740435,45.6567793 C22.0318755,44.2897256 22.0232622,42.6818698 22.0737114,40.9511046 C22.0761724,40.7567071 22.0786333,40.544751 22.0995513,40.3503535 L22.1007817,40.2788653 C22.1020122,40.2424942 22.1020122,40.206123 22.1032427,40.1684977 C22.151231,38.2395724 22.2508989,36.2115671 22.3653325,34.199866 C22.4379301,32.9356549 22.5228324,31.6852397 22.6200395,30.4862459 C22.8722855,27.3909353 23.2131253,24.6392694 23.6634767,22.8997249 C24.4005274,20.0640291 26.0247458,18.214117 27.5037689,16.8583509 L28.573046,15.9239885 C29.7666005,16.1898742 31.1767174,16.0130352 32.4527132,15.3972339 C33.8345293,14.7287572 34.3119511,14.2496613 34.5518925,14.4302629 C37.7412668,16.9386183 40.0360906,24.6242193 39.4405438,33.0698519" id="Fill-307" fill="#21407E"></path><path d="M27.8628599,51.9706668 C24.9251878,51.0406948 21.7243104,49.7127101 21.3800227,48.7266081 C21.3675485,48.687062 21.3563217,48.6500672 21.3488372,48.6130724 C21.3500846,48.4752988 21.3525795,48.3375252 21.3550743,48.1997516 C21.4698369,47.6971329 21.9101758,47.1524168 21.9625674,45.9086271 C22.0199487,44.518134 22.0112168,42.88271 22.0623609,41.1222692 C22.0661032,40.9245386 22.068598,40.7089484 22.0898042,40.5112177 L22.0898042,40.4385038 C22.0910516,40.4015091 22.092299,40.3645143 22.092299,40.3262438 L33.1893395,35.1801437 C33.1893395,35.1801437 33.8292655,44.3255061 27.8628599,51.9706668" id="Fill-308" fill="#18356D"></path><path d="M27.6744186,12.4350463 C27.6744186,12.4350463 27.7393753,13.4482559 28.1012771,15.1914257 C30.9288829,14.3316948 32.2107839,11.9271936 32.638968,10.907745 C32.7609276,10.6207521 32.8139535,10.4423174 32.8139535,10.4423174 C32.8139535,10.4423174 32.7039248,10.4198571 32.5156828,10.3824233 C32.1179886,10.3025644 31.3689978,10.152829 30.5683068,9.994359 L27.6744186,12.4350463" id="Fill-309" fill="#EEA886"></path><path d="M26.740702,11.9476184 C26.740702,11.9476184 32.8289078,12.5948871 33.1979687,9.01284343 C33.5683292,5.4295739 34.6027394,3.10038741 30.7301986,2.53525321 C26.8589574,1.97011901 25.9622953,3.26710812 25.5308579,4.43537903 C25.0981209,5.60242405 25.166995,11.6865043 26.740702,11.9476184" id="Fill-310" fill="#EEA886"></path><path d="M33.216456,9.59458464 C33.216456,9.59458464 32.8419264,4.61300335 27.4648416,4.09673738 C23.7800757,3.74357037 25.8343138,0.513697478 26.226498,0 C26.226498,0 29.0487109,0.39297857 31.9415422,0.87970693 C38.0134614,1.90196491 33.8129291,8.81890145 33.216456,9.59458464" id="Fill-311" fill="#163560"></path><polyline id="Fill-312" fill="#4A75CB" points="5.13953488 45.0082089 4.59908623 45.1745027 0 31.7484682 0.540448654 31.5821744 5.13953488 45.0082089"></polyline><polyline id="Fill-313" fill="#4A75CB" points="19.3530939 43.9751796 4.34883721 44.2909223 4.36783635 45.1745027 19.372093 44.85876 19.3530939 43.9751796"></polyline><path d="M17.5559535,42.7758565 C17.5559535,42.7758565 15.2531198,43.7249285 13.6957628,43.4122127 C12.1371529,43.1008624 9.62633757,44.2260931 9.26926054,44.876105 C8.91343641,45.5261168 9.09009558,45.7446082 9.85687152,45.8620473 C10.6236475,45.9781209 13.3888019,46.8862257 15.0526555,45.9658308 C16.7165092,45.0454358 18.9767442,44.7463757 18.9767442,44.7463757 L17.5559535,42.7758565" id="Fill-314" fill="#EEA886"></path><path d="M35.5813953,20.1927295 C35.5813953,20.1927295 35.0114672,39.287931 30.7433388,41.4569069 C28.6371377,42.5283288 19.1282035,45.4713169 16.2734968,45.9740514 C16.2734968,45.9740514 15.5059936,45.4887384 15.4186047,43.185368 C15.4186047,43.185368 25.1897058,38.4006792 26.411885,36.2441471 C28.2293225,33.0361035 23.7028266,24.2419824 26.0901922,21.1546448 C28.4775578,18.0673072 32.8926011,16.369956 35.5813953,20.1927295" id="Fill-315" fill="#21407E"></path></g></g></g></g></g></svg>