<svg xmlns="http://www.w3.org/2000/svg" xmlns:xlink="http://www.w3.org/1999/xlink" width="244px" height="207px" viewBox="0 0 244 207"><title>Strategy-illustration</title><desc>Created with Sketch.</desc><defs><linearGradient x1="82.0693056%" y1="17.7150443%" x2="42.8973263%" y2="85.6389411%" id="linearGradient-1"><stop stop-color="#E0EEFF" offset="0%"></stop><stop stop-color="#FFFFFF" offset="100%"></stop></linearGradient><path d="M3.33873555,1.33810562 C3.33873555,1.33810562 -1.68602406,3.52345731 0.888561873,9.31242018 C3.4631478,15.101383 11.7804133,22.8200002 14.3549992,23.3989627 C16.9295851,23.9779252 18.315796,22.4344668 18.1179601,19.7330833 C17.9201243,17.0310373 10.3942024,2.75172808 7.42394465,1.2076072 C4.45300709,-0.335851261 3.33873555,1.33810562 3.33873555,1.33810562" id="path-2"></path><linearGradient x1="70.6880247%" y1="-5.96824384%" x2="17.3475121%" y2="151.156779%" id="linearGradient-4"><stop stop-color="#DBF0F5" offset="0%"></stop><stop stop-color="#41BEE2" offset="100%"></stop></linearGradient><polyline id="path-5" points="8.24435544 2.01213489 9.40117064 10.1949924 7.1508152 14.0302953 0.582129657 10.1949924 2.17219225 0.221229491 8.24435544 2.01213489"></polyline><path d="M0.382906032,6.75372214 C0.681790807,10.0832205 4.79690823,15.8755802 7.97560554,15.5631878 C11.1543028,15.2501236 12.192703,8.94920249 11.8938182,5.61970414 C11.5949334,2.29020579 8.77605232,-0.155188483 5.59735501,0.157875729 C2.4186577,0.47093994 0.0840212566,3.42422379 0.382906032,6.75372214" id="path-7"></path><path d="M19.7414474,0.579683104 L17.523129,4.42654885 L11.9073427,0.188077948 L10.4006515,1.94929359 C10.4006515,1.94929359 0.256516764,5.6671916 0.0558544566,6.64586864 C-0.145497412,7.62387397 0.784031076,35.8006374 0.784031076,35.8006374 L0.784031076,37.9534582 L28.177539,37.9534582 L29.382892,6.4497302 L20.7454485,2.34022704 L19.7414474,0.579683104" id="path-9"></path><path d="M0.292709886,4.06060388 C0.292709886,4.06060388 1.26949846,3.66392443 1.60859763,2.91814025 C1.94704344,2.171686 2.35082627,0.503220052 2.35082627,0.503220052 C2.35082627,0.503220052 3.02183755,0.438223587 3.17995316,1.3079701 C3.33806876,2.1777166 2.7591827,2.332502 2.99504937,2.73990252 C3.23026267,3.14797311 4.74542835,2.73588212 4.79900471,3.05684405 C4.85258107,3.3771359 4.67747784,3.5660947 4.46251902,3.89509742 C4.24690682,4.22343008 4.39326177,4.63351087 4.00058623,5.05900319 C3.60791069,5.48449551 3.52819952,5.8543723 2.94473986,5.82488937 C2.35997345,5.7960765 2.163309,5.15750298 1.67132118,5.21780898 C1.17933336,5.27744491 0.692572498,5.52201924 0.692572498,5.52201924 L0.292709886,4.06060388" id="path-11"></path><path d="M1.69769837,5.46387203 C1.69769837,5.46387203 12.1669458,0.832106803 16.5901174,0.113526767 L17.375456,2.70244443 C17.375456,2.70244443 5.06085626,11.7972703 1.92337039,9.42969813 C-0.20503915,7.83398112 0.577720373,6.29090501 1.69769837,5.46387203" id="path-13"></path><linearGradient x1="68.5441393%" y1="-5.86480386%" x2="29.3940337%" y2="111.833056%" id="linearGradient-15"><stop stop-color="#DBF0F5" offset="0%"></stop><stop stop-color="#41BEE2" offset="100%"></stop></linearGradient><path d="M0.388193443,3.75663215 C0.388193443,3.75663215 1.40388697,3.3651369 1.75672829,2.62719152 C2.10956962,1.88990858 2.52903609,0.240461554 2.52903609,0.240461554 C2.52903609,0.240461554 3.22724041,0.176205987 3.39176372,1.03603821 C3.55628704,1.89587043 2.95462119,2.04889142 3.19936662,2.45164796 C3.44411205,2.85440451 5.02068051,2.44767339 5.07642808,2.76431423 C5.13217565,3.08161749 4.95065613,3.26842233 4.72630615,3.59301231 C4.50195618,3.91760229 4.65424222,4.32300854 4.24565333,4.74365065 C3.83774428,5.16429277 3.75412292,5.53061574 3.14701829,5.50213131 C2.53855397,5.47298446 2.33391959,4.84169007 1.82199374,4.90064621 C1.31006789,4.96026478 0.803580822,5.20205119 0.803580822,5.20205119 L0.388193443,3.75663215" id="path-16"></path><linearGradient x1="79.0976587%" y1="32.8758373%" x2="-34.8494807%" y2="111.915812%" id="linearGradient-18"><stop stop-color="#F4BD93" offset="0%"></stop><stop stop-color="#D8616D" offset="100%"></stop></linearGradient><path d="M1.19313396,6.11222798 C1.19313396,6.11222798 12.2318326,1.27385005 16.8962726,0.523980962 L17.7243279,3.22735176 C17.7243279,3.22735176 4.73922327,12.7265768 1.4310809,10.2537311 C-0.813098699,8.58706094 0.0129171198,6.97537235 1.19313396,6.11222798" id="path-19"></path><linearGradient x1="68.5410949%" y1="-4.81030305%" x2="29.3919792%" y2="110.668156%" id="linearGradient-21"><stop stop-color="#DBF0F5" offset="0%"></stop><stop stop-color="#41BEE2" offset="100%"></stop></linearGradient><path d="M3.08332856,0.81403954 C3.08332856,0.81403954 -1.78193619,3.08252226 0.710590544,9.09169791 C3.20311728,15.1008736 11.2559466,23.1131078 13.7484733,23.7140941 C16.2403419,24.3150804 17.5830286,22.7129086 17.3908401,19.9087642 C17.1993098,17.1039321 9.91391807,2.28074874 7.03767254,0.678576947 C4.161427,-0.923594842 3.08332856,0.81403954 3.08332856,0.81403954" id="path-22"></path><linearGradient x1="67.9949198%" y1="-5.96824384%" x2="21.5974026%" y2="151.156779%" id="linearGradient-24"><stop stop-color="#DBF0F5" offset="0%"></stop><stop stop-color="#41BEE2" offset="100%"></stop></linearGradient></defs><g id="Welcome" stroke="none" strokeWidth="1" fill="none" fillRule="evenodd"><g id="Home-page-v2" transform="translate(-819.000000, -8701.000000)"><g id="Strategy-illustration" transform="translate(819.000000, 8701.000000)"><path d="M5.93064235,139.317919 C18.1330337,125.02416 10.3775857,117.88706 1.97722755,85.7035473 C-6.42313065,53.5200346 21.6680217,28.2196008 57.6242088,25.0504813 C71.6036792,23.8325965 85.0818841,29.8374415 113.709285,10.7501571 C142.336686,-8.33712731 185.965724,1.59619788 195.22524,12.8698166 C204.484755,24.1434352 207.735914,27.7566231 212.935252,70.6259904 C213.607934,76.172358 215.420608,85.2550083 227.287906,93.7892106 C239.155203,102.323413 252.575085,118.878856 236.84851,148.608491 C229.880008,160.261427 229.584696,170.790258 233.216603,181.529586 C236.84851,192.268914 240.389557,201.557986 205.425751,206 C161.771612,204.796089 79.0115083,206 54.8891353,206 C30.7667624,206 19.6931762,205.955446 7.19696872,206 C3.5524253,190.520231 -6.27174904,153.611678 5.93064235,139.317919 Z" id="Path-6" fill="url(#linearGradient-1)"></path><path d="M97,206 C97,206.552204 75.5094185,207 49,207 C22.4899263,207 1,206.552204 1,206 C1,205.448183 22.4899263,205 49,205 C75.5094185,205 97,205.448183 97,206" id="Fill-13" fill="#CCE2FF"></path><path d="M226,192 C226,192.552204 213.687836,193 198.5,193 C183.312164,193 171,192.552204 171,192 C171,191.448183 183.312164,191 198.5,191 C213.687836,191 226,191.448183 226,192" id="Fill-14" fill="#CCE2FF"></path><path d="M59.0783165,170.5 C52.12655,170.5 46.5,164.822045 46.5,157.829606 L46.5,63.170394 C46.5,56.1779553 52.12655,50.5 59.0783165,50.5 L207.922563,50.5 C214.87362,50.5 220.5,56.1781259 220.5,63.170394 L220.5,157.829606 C220.5,164.821874 214.87362,170.5 207.922563,170.5 L59.0783165,170.5 Z" id="Fill-16" stroke="#BBD6FA" strokeWidth="5" fill="#FFFFFF"></path><path d="M141.816665,122 C139.708375,122 138,119.703134 138,116.870535 L138,69.128595 C138,66.2959964 139.708375,64 141.816665,64 L198.183335,64 C200.290978,64 202,66.2959964 202,69.128595 L202,116.870535 C202,119.703134 200.290978,122 198.183335,122 L141.816665,122 Z" id="Fill-17" fill="#DFEBF8"></path><g id="Group-16" transform="translate(149.000000, 72.000000)"><path d="M58.353885,116.941814 C58.3422018,116.525944 58.0343147,116.253179 57.7594154,116.417414 C56.4309648,117.210737 55.6495637,116.99848 54.2840018,116.1677 C53.2359484,115.529008 49.8402555,118.177899 49.0059363,118.950093 L48.9928786,118.962578 C48.5612868,119.368844 48.7784572,120.314877 49.2980168,120.314877 L57.5745457,120.314877 C57.9903308,120.314877 58.3339548,119.860589 58.3559468,119.279523 C58.3848112,118.493884 58.3717535,117.609319 58.353885,116.941814 Z" id="Fill-58" fill="#162E40"></path><path d="M45.5403257,116.941814 C45.5286425,116.525944 45.2207553,116.253179 44.9458561,116.417414 C43.6174055,117.210737 42.8360044,116.99848 41.4704424,116.1677 C40.4223891,115.529008 37.0266962,118.177899 36.192377,118.950093 L36.1793193,118.962578 C35.7477275,119.368844 35.9648979,120.314877 36.4844575,120.314877 L44.7609864,120.314877 C45.1767715,120.314877 45.5203955,119.860589 45.5423874,119.279523 C45.5712519,118.493884 45.5581942,117.609319 45.5403257,116.941814 Z" id="Fill-58-Copy-3" fill="#162E40"></path><path d="M59.0174258,81.4640042 C58.0643252,84.5699167 58.3728814,115.396529 58.3728814,117.367728 L52.6945174,116.765544 L49.1016143,80.3511321 L46.6271186,65.1138183 L60.4860772,64.0604909 C60.6413368,64.9933598 59.9720121,78.3580917 59.0174258,81.4640042 Z" id="Fill-59" fill="#2B478B"></path><path d="M54.2140887,76.6631125 C50.3929908,80.7680856 43.6013145,88.8971355 43.6013145,88.8971355 L46.0385083,117.143803 C42.5314221,117.652567 40.5751555,117.294387 40.1697084,116.069263 C39.5615378,114.231577 34.8787294,88.4539339 34.8812754,87.4071208 C34.8839836,86.3603077 44.6849879,65.1218944 44.6849879,65.1218944 L59.4405984,65.1633798 C59.4405984,65.1633798 58.5888451,71.9648992 54.2140887,76.6631125 Z" id="Fill-60" fill="#3D61A8"></path><polyline id="Fill-61" fill="#E5A000" points="59.440678 37.1277026 35.1210552 25.8499646 32.7457627 27.9538276 52.9331347 42.8324208 59.440678 37.1277026"></polyline><path d="M54.5475582,28.4052264 L51.5890242,27.3740056 L47.4873496,23.3907122 C47.4873496,23.3907122 45.1659244,22.979728 45.6176192,19.8444634 C46.0700472,16.7093069 48.9859674,16.9692911 50.0432543,18.2829831 C51.0996018,19.5981072 54.9734593,17.0692881 57.3274141,19.8356747 C57.3274141,19.8356747 62.8390943,29.0628616 56.0600303,32.2183857 C56.0600303,32.2183857 54.7639137,29.6159965 54.5475582,28.4052264" id="Fill-37" fill="#131730"></path><path d="M54.7924257,28.7053876 C55.106201,28.4876472 55.3369225,28.1160441 55.3946143,27.6679993 C55.4958211,26.8820095 55.0279301,26.160761 54.3491364,26.0566371 C53.6703426,25.9525133 53.0377331,26.5049502 52.9365263,27.29094 C52.927272,27.3628106 52.9247161,27.4325901 52.9243601,27.5019273 L51.9661425,27.6816285 L52.0590798,25.6616908 C52.1372493,25.054613 51.1300417,24.383182 50.581342,24.2506736 C49.6051536,24.0151656 48.1543188,24.187134 48.0478187,23.7271576 L47.8275477,25.6597305 C47.3922994,29.0399455 47.9645619,31.8909257 50.4990054,32.2796976 C50.9298188,32.3457824 51.3739684,32.3304868 51.8174667,32.2425807 L51.410572,35.4025962 L56.1066747,34.7702061 L56.2372881,32.4909554 L54.7924257,28.7053876" id="Fill-38" fill="#E8985C"></path><path d="M43.8770782,35.8009458 L34.5570353,46.2988492 L21.6424041,43.562637 L19.9322034,46.8846238 L36.6465921,53.3323949 L45.2506089,45.9106938 C45.6705857,46.1430204 44.5235671,54.58965 43.9411074,58.7800283 C43.3600247,62.9696982 42.3947666,67.5999387 42.3947666,67.5999387 C42.3947666,67.5999387 54.0749414,69.6037555 61.8810022,66.8604602 C61.8810022,66.8604602 63.844566,49.9062861 61.4720412,38.870065 C60.9501684,36.4419689 58.9452955,34.6641039 56.534904,34.4686095 C52.5513206,34.1463272 47.6610004,34.3814871 43.8770782,35.8009458 Z" id="Fill-65" fill="#FFC107"></path><path d="M42.9308996,21.8527568 C42.9308996,9.78344067 33.3207098,0 21.4657755,0 C9.61084125,0 0,9.78344067 0,21.8527568 C0,33.9214097 9.61084125,43.7048504 21.4657755,43.7048504 C33.3207098,43.7048504 42.9308996,33.9214097 42.9308996,21.8527568" id="Fill-66" fill="#F37D76"></path><path d="M40.3024772,21.8527615 C40.3024772,11.7144852 32.0651645,3.49638803 21.9038573,3.49638803 C11.74255,3.49638803 3.50456323,11.7144852 3.50456323,21.8527615 C3.50456323,31.9903651 11.74255,40.2084623 21.9038573,40.2084623 C32.0651645,40.2084623 40.3024772,31.9903651 40.3024772,21.8527615" id="Fill-67" fill="#FFFFFE"></path><path d="M20.9975011,31.2263621 C15.8246382,31.2263621 11.6315245,27.0430298 11.6315245,21.8828992 C11.6315245,16.7221031 15.8246382,12.5387709 20.9975011,12.5387709 C26.1696971,12.5387709 30.3628108,16.7221031 30.3628108,21.8828992 C30.3628108,27.0430298 26.1696971,31.2263621 20.9975011,31.2263621 Z M20.9974936,18.1450482 C18.9280083,18.1450482 17.2509104,19.8182339 17.2509104,21.8828916 C17.2509104,23.9468991 18.9280083,25.6200847 20.9974936,25.6200847 C23.066327,25.6200847 24.7434249,23.9468991 24.7434249,21.8828916 C24.7434249,19.8182339 23.066327,18.1450482 20.9974936,18.1450482 Z M21.4654498,7.86687307 C13.9646232,7.86687307 7.88526728,13.9327173 7.88526728,21.4160466 C7.88526728,28.8987059 13.9646232,34.9638803 21.4654498,34.9638803 C28.965605,34.9638803 35.0456323,28.8987059 35.0456323,21.4160466 C35.0456323,13.9327173 28.965605,7.86687307 21.4654498,7.86687307 L21.4654498,7.86687307 Z" id="Fill-68" fill="#F37D76"></path><path d="M21,43.2219645 C21,43.2219645 17.9765472,41.3413743 17.7748501,41.8824313 C17.5718172,42.4240842 18.7853392,43.5067941 18.7853392,43.5067941 C18.7853392,43.5067941 13.6287058,41.2513967 13.5271894,41.8824313 C13.4263408,42.5140617 17.6726658,45.7300141 19.341008,46.0166313 L21,43.2219645" id="Fill-69" fill="#E8985C"></path></g><path d="M61.3035298,148 C60.0311919,148 59,146.310353 59,144.225578 L59,79.7744217 C59,77.6896474 60.0311919,76 61.3035298,76 L129.697087,76 C130.969425,76 132,77.6896474 132,79.7744217 L132,144.225578 C132,146.310353 130.969425,148 129.697087,148 L61.3035298,148 Z" id="Fill-60" fill="#DFEBF8"></path><path d="M73,132 L78,132 C78.5522847,132 79,131.552285 79,131 L79,123 C79,122.447715 78.5522847,122 78,122 L73,122 C72.4477153,122 72,122.447715 72,123 L72,131 C72,131.552285 72.4477153,132 73,132 Z" id="Fill-62" fill="#FFFFFF"></path><path d="M88,132 L92,132 C92.5522847,132 93,131.552285 93,131 L93,115 C93,114.447715 92.5522847,114 92,114 L88,114 C87.4477153,114 87,114.447715 87,115 L87,131 C87,131.552285 87.4477153,132 88,132 Z" id="Fill-63" fill="#FFFFFF"></path><path d="M99,133 L104,133 C104.552285,133 105,132.552285 105,132 L105,104 C105,103.447715 104.552285,103 104,103 L99,103 C98.4477153,103 98,103.447715 98,104 L98,132 C98,132.552285 98.4477153,133 99,133 Z" id="Fill-64" fill="#FFFFFF"></path><path d="M114,135 L119,135 C119.552285,135 120,134.552285 120,134 L120,92 C120,91.4477153 119.552285,91 119,91 L114,91 C113.447715,91 113,91.4477153 113,92 L113,134 C113,134.552285 113.447715,135 114,135 Z" id="Fill-65" fill="#FFFFFF"></path><path d="M49,65 C49.1085473,59.4589785 53.7459797,55 59.4515541,55 L76,55 L59.4515541,55 C53.7459797,55 49.1085473,59.4589785 49,65" id="Fill-84" fill="#D0CDDD"></path><g id="Group-17" transform="translate(80.000000, 19.000000)"><path d="M16.9686124,21.4733201 C12.8452513,23.1125806 8.16767497,21.0956084 6.52677969,16.9675497 C4.88755752,12.8440921 6.90406431,8.16640633 11.0274254,6.5271458 C15.0491456,4.92845896 19.5941285,6.80405074 21.337083,10.7158559 C21.3897858,10.8179176 21.4299402,10.9195609 21.4721861,11.0262237 C23.1134996,15.1542824 21.0969928,19.8323865 16.9686124,21.4733201 Z M26.8750523,8.51400151 C23.9115695,1.54620312 15.9074471,-1.82057616 8.82771391,0.994066378 C1.6463397,3.8492826 -1.86131969,11.9857704 0.993411449,19.1673126 C3.85023397,26.3538743 11.9865314,29.8616158 19.1679056,27.0063995 C26.3542992,24.1495102 29.8623768,16.0130224 27.0055543,8.82646071 C26.9628902,8.71979793 26.9206443,8.61355343 26.8750523,8.51400151 L26.8750523,8.51400151 Z" id="Fill-84" fill="#FFC107"></path><path d="M27.0967742,8.61161173 L21.5535338,10.8387097 C19.8089203,6.88205695 15.2596114,4.98496212 11.2340633,6.60197738 L9.03225806,1.00546302 C16.1187299,-1.84144846 24.1304707,1.56392983 27.0967742,8.61161173" id="Fill-85" fill="#FA4E57"></path></g><path d="M234.500459,136.806406 C232.67424,136.806406 231.192902,135.32609 231.192902,133.5 C231.192902,131.672993 232.67424,130.192677 234.500459,130.192677 C236.326677,130.192677 237.807098,131.672993 237.807098,133.5 C237.807098,135.32609 236.326677,136.806406 234.500459,136.806406 Z M234.500459,127 C230.910393,127 228,129.910188 228,133.5 C228,137.089812 230.910393,140 234.500459,140 C238.089607,140 241,137.089812 241,133.5 C241,129.910188 238.089607,127 234.500459,127 L234.500459,127 Z" id="Fill-123" fill="#AAC6EB"></path><path d="M83.0004177,169.789474 C81.8760572,169.789474 80.9647071,168.764098 80.9647071,167.5 C80.9647071,166.235902 81.8760572,165.210526 83.0004177,165.210526 C84.1239428,165.210526 85.0352929,166.235902 85.0352929,167.5 C85.0352929,168.764098 84.1239428,169.789474 83.0004177,169.789474 Z M83.0004177,163 C80.7909575,163 79,165.014098 79,167.5 C79,169.984962 80.7909575,172 83.0004177,172 C85.2090425,172 87,169.984962 87,167.5 C87,165.014098 85.2090425,163 83.0004177,163 L83.0004177,163 Z" id="Fill-124" fill="#AAC6EB"></path><g id="Group-21" transform="translate(22.000000, 83.000000)"><g id="Group-57" transform="translate(37.888395, 36.127302) rotate(-46.000000) translate(-37.888395, -36.127302) translate(28.388395, 24.127302)"><mask id="mask-3" fill="white"><use xlink:href="#path-2"></use></mask><g id="Clip-56"></g><path d="M3.33873555,1.33810562 C3.33873555,1.33810562 -1.68602406,3.52345731 0.888561873,9.31242018 C3.4631478,15.101383 11.7804133,22.8200002 14.3549992,23.3989627 C16.9295851,23.9779252 18.315796,22.4344668 18.1179601,19.7330833 C17.9201243,17.0310373 10.3942024,2.75172808 7.42394465,1.2076072 C4.45300709,-0.335851261 3.33873555,1.33810562 3.33873555,1.33810562" id="Fill-55" fill="url(#linearGradient-4)" mask="url(#mask-3)"></path></g><path d="M38.5233267,120.116792 C39.7252871,120.38788 44.5183106,121.623092 43.5636158,122.954633 C43.2411433,123.164657 33.9101861,122.597713 33.2842396,122.231643 C32.8669419,121.987597 32.9690382,120.98479 33.5905283,119.223224 L33.5905283,117.803648 L36.3786637,117.698276 C36.3786637,117.698276 37.3213662,119.845704 38.5233267,120.116792 Z" id="Fill-58" fill="#131730"></path><path d="M5.49053977,120.116792 C6.6925002,120.38788 11.4855237,121.623092 10.5308289,122.954633 C10.2083565,123.164657 0.877399201,122.597713 0.251452709,122.231643 C-0.165844952,121.987597 -0.0637487121,120.98479 0.557741429,119.223224 L0.557741429,117.803648 L3.34587685,117.698276 C3.34587685,117.698276 4.28857934,119.845704 5.49053977,120.116792 Z" id="Fill-58-Copy-2" fill="#131730"></path><g id="Group-64" transform="translate(14.918033, 14.844828)"><mask id="mask-6" fill="white"><use xlink:href="#path-5"></use></mask><g id="Clip-63"></g><polyline id="Fill-62" fill="#EEA98A" mask="url(#mask-6)" points="8.24435544 2.01213489 9.40117064 10.1949924 7.1508152 14.0302953 0.582129657 10.1949924 2.17219225 0.221229491 8.24435544 2.01213489"></polyline></g><path d="M31.8257442,57.2586207 C31.8257442,57.2586207 34.5487993,76.3834524 35.6376007,85.4295204 C36.7271031,94.474923 38.3606557,117.993369 38.3606557,117.993369 C38.3606557,117.993369 36.9998293,119.286235 33.732023,118.511048 C33.732023,118.511048 26.6516592,90.3401479 25.5621567,86.4628814 C24.4733553,82.5862803 13.852459,58.8096604 13.852459,58.8096604 L31.8257442,57.2586207" id="Fill-60" fill="#2B478B"></path><path d="M5.26518804,63.509768 C5.26518804,63.509768 5.52817632,80.1178862 6.31781897,87.2726788 C6.31781897,87.2726788 0.26298828,116.401026 0,118.956121 C0,118.956121 2.36892794,120.489573 4.73853368,119.46793 C4.73853368,119.46793 14.215601,93.4045124 16.0592302,87.2726788 C17.9021816,81.1401874 22.3770492,59.4212212 22.3770492,59.4212212 C22.3770492,59.4212212 13.1622923,55.3326743 6.84447333,58.39892 C6.84447333,58.39892 5.00152196,59.4212212 5.26518804,63.509768" id="Fill-61" fill="#2B478B"></path><g id="Group-67" transform="translate(14.918033, 7.422414)"><mask id="mask-8" fill="white"><use xlink:href="#path-7"></use></mask><g id="Clip-66"></g><path d="M0.382906032,6.75372214 C0.681790807,10.0832205 4.79690823,15.8755802 7.97560554,15.5631878 C11.1543028,15.2501236 12.192703,8.94920249 11.8938182,5.61970414 C11.5949334,2.29020579 8.77605232,-0.155188483 5.59735501,0.157875729 C2.4186577,0.47093994 0.0840212566,3.42422379 0.382906032,6.75372214" id="Fill-65" fill="#EEA98A" mask="url(#mask-8)"></path></g><path d="M16.938682,6.80740005 C19.0220386,5.81534194 22.7905545,6.67788541 24.2435924,7.48193587 C25.6966303,8.28598633 27.783218,10.1298296 27.7026535,11.2740092 C27.6220889,12.4181889 26.2601008,11.8927256 21.7710152,11.2740092 C18.6773659,10.8476214 18.0219193,12.8449356 18.1881553,13.8376645 C18.3557429,14.8297226 19.4383045,16.4838236 19.4383045,16.8976842 C19.4383045,17.310874 18.7720088,17.310874 18.521979,16.980188 C18.2719491,16.649502 17.9381255,14.8297226 16.7724459,15.0779048 C15.6054148,15.3260871 17.0224757,17.8072385 18.0219193,18.1379245 C18.0219193,18.1379245 18.3557429,18.634289 18.1050373,19.0474788 C17.8550075,19.4613394 13.9389998,16.4838236 13.8558818,13.6719861 C13.7727638,10.8601486 15.2310458,10.7360575 15.2310458,10.7360575 C15.2310458,10.7360575 14.8560011,7.80012893 16.938682,6.80740005 Z" id="Fill-68" fill="#131730"></path><g id="Group-71" transform="translate(4.262295, 23.327586)"><mask id="mask-10" fill="white"><use xlink:href="#path-9"></use></mask><g id="Clip-70"></g><path d="M19.7414474,0.579683104 L17.523129,4.42654885 L11.9073427,0.188077948 L10.4006515,1.94929359 C10.4006515,1.94929359 0.256516764,5.6671916 0.0558544566,6.64586864 C-0.145497412,7.62387397 0.784031076,35.8006374 0.784031076,35.8006374 L0.784031076,37.9534582 L28.177539,37.9534582 L29.382892,6.4497302 L20.7454485,2.34022704 L19.7414474,0.579683104" id="Fill-69" fill="#22407A" mask="url(#mask-10)"></path></g><g id="Group-74" transform="translate(29.836066, 39.232759)"><mask id="mask-12" fill="white"><use xlink:href="#path-11"></use></mask><g id="Clip-73"></g><path d="M0.292709886,4.06060388 C0.292709886,4.06060388 1.26949846,3.66392443 1.60859763,2.91814025 C1.94704344,2.171686 2.35082627,0.503220052 2.35082627,0.503220052 C2.35082627,0.503220052 3.02183755,0.438223587 3.17995316,1.3079701 C3.33806876,2.1777166 2.7591827,2.332502 2.99504937,2.73990252 C3.23026267,3.14797311 4.74542835,2.73588212 4.79900471,3.05684405 C4.85258107,3.3771359 4.67747784,3.5660947 4.46251902,3.89509742 C4.24690682,4.22343008 4.39326177,4.63351087 4.00058623,5.05900319 C3.60791069,5.48449551 3.52819952,5.8543723 2.94473986,5.82488937 C2.35997345,5.7960765 2.163309,5.15750298 1.67132118,5.21780898 C1.17933336,5.27744491 0.692572498,5.52201924 0.692572498,5.52201924 L0.292709886,4.06060388" id="Fill-72" fill="#EEA98A" mask="url(#mask-12)"></path></g><g id="Group-78" transform="translate(12.786885, 42.413793)"><mask id="mask-14" fill="white"><use xlink:href="#path-13"></use></mask><g id="Clip-77"></g><path d="M1.69769837,5.46387203 C1.69769837,5.46387203 12.1669458,0.832106803 16.5901174,0.113526767 L17.375456,2.70244443 C17.375456,2.70244443 5.06085626,11.7972703 1.92337039,9.42969813 C-0.20503915,7.83398112 0.577720373,6.29090501 1.69769837,5.46387203" id="Fill-76" fill="url(#linearGradient-15)" mask="url(#mask-14)"></path></g><g id="Group-81" transform="translate(52.028950, 20.201387) rotate(-55.000000) translate(-52.028950, -20.201387) translate(49.028950, 17.201387)"><mask id="mask-17" fill="white"><use xlink:href="#path-16"></use></mask><g id="Clip-80"></g><path d="M0.388193443,3.75663215 C0.388193443,3.75663215 1.40388697,3.3651369 1.75672829,2.62719152 C2.10956962,1.88990858 2.52903609,0.240461554 2.52903609,0.240461554 C2.52903609,0.240461554 3.22724041,0.176205987 3.39176372,1.03603821 C3.55628704,1.89587043 2.95462119,2.04889142 3.19936662,2.45164796 C3.44411205,2.85440451 5.02068051,2.44767339 5.07642808,2.76431423 C5.13217565,3.08161749 4.95065613,3.26842233 4.72630615,3.59301231 C4.50195618,3.91760229 4.65424222,4.32300854 4.24565333,4.74365065 C3.83774428,5.16429277 3.75412292,5.53061574 3.14701829,5.50213131 C2.53855397,5.47298446 2.33391959,4.84169007 1.82199374,4.90064621 C1.31006789,4.96026478 0.803580822,5.20205119 0.803580822,5.20205119 L0.388193443,3.75663215" id="Fill-79" fill="url(#linearGradient-18)" mask="url(#mask-17)"></path></g><g id="Group-18" transform="translate(53.702797, 12.308430) scale(-1, -1) rotate(-196.000000) translate(-53.702797, -12.308430) translate(44.202797, 2.808430)"><path d="M0.475652578,10.0132436 L1.7931988,9.55815525 L2.7103143,12.0793582 L2.70759491,12.0767085 L1.39140839,12.5311345 C1.01953131,12.6596456 0.611622261,12.4695286 0.479731669,12.1071802 L0.0412294438,10.9022227 C-0.0906611479,10.5398743 0.104455346,10.1417548 0.475652578,10.0132436" id="Fill-41" fill="#DF542A"></path><path d="M3.66346178,11.9448852 L6.38625466,11.0048991 L9.07913422,18.41085 C9.14575936,18.5956676 8.99211362,18.7851222 8.79223819,18.7645869 L6.20949408,18.4936536 C6.10547727,18.4823923 6.01641713,18.4141622 5.98106501,18.3174476 L3.66346178,11.9448852" id="Fill-42" fill="#EB8B2D"></path><path d="M12.8393758,0.0529683761 L12.8393758,0.0529683761 C13.331586,-0.116613326 13.8720655,0.134447084 14.0454269,0.614045335 L18.0171013,11.5341795 C18.1918223,12.0137778 17.9341598,12.539746 17.4426294,12.7093277 C16.9504191,12.8795719 16.4099396,12.6285115 16.2358984,12.1495756 L12.264224,1.228779 C12.089503,0.749180754 12.3471655,0.223212506 12.8393758,0.0529683761" id="Fill-43" fill="#EB8B2D"></path><path d="M12.8393758,0.0529683761 C12.9930215,0.00063652276 13.1507464,-0.0119496192 13.3009928,0.0112353791 C13.075963,0.254346647 12.990982,0.606096193 13.1106353,0.936648026 L17.0816299,11.8567822 C17.201963,12.1866716 17.4956575,12.4085852 17.8274236,12.4589298 C17.7261262,12.5688929 17.5955953,12.6563335 17.4426294,12.7093277 C16.9504191,12.8795719 16.4099396,12.6285115 16.2358984,12.1495756 L12.264224,1.228779 C12.089503,0.749180754 12.3471655,0.223212506 12.8393758,0.0529683761" id="Fill-44" fill="#E3672A"></path><path d="M12.2757814,1.25991315 L16.1828703,12.0025165 C14.2011121,10.7756989 7.45633606,12.395999 7.45633606,12.395999 L5.24206979,6.30761849 C5.24206979,6.30761849 11.528628,3.42870413 12.2757814,1.25991315" id="Fill-45" fill="#F6F6F4"></path><path d="M2.06037922,7.40658741 L5.24206979,6.30761849 L7.45633606,12.395999 L7.44953758,12.3893748 L4.27124626,13.4870188 C3.37316651,13.7970354 2.38806616,13.3386348 2.06921725,12.4642292 L1.01069328,9.5521934 C0.692524221,8.67712532 1.16229947,7.71660396 2.06037922,7.40658741" id="Fill-46" fill="#EB8B2D"></path><polyline id="Fill-47" fill="#DF542A" points="4.22909565 13.5009298 4.71926636 14.8496343 4.76209681 14.8357233 7.44273909 13.9103106 6.95256839 12.5622686 4.27124626 13.4870188 4.22909565 13.5009298"></polyline><path d="M2.06037922,7.40658741 L5.24206979,6.30761849 L5.93755471,8.21938721 L2.7551843,9.3176937 C1.8577844,9.62837268 1.3873293,10.588894 1.70549835,11.4632997 L1.01069328,9.5521934 C0.692524221,8.67712532 1.16229947,7.71660396 2.06037922,7.40658741" id="Fill-48" fill="#E3672A"></path><path d="M5.95047183,8.25714563 L5.24206979,6.30761849 C5.24206979,6.30761849 11.528628,3.42870413 12.2757814,1.25991315 L12.9848633,3.20877786 C12.2377099,5.37756884 5.95047183,8.25714563 5.95047183,8.25714563" id="Fill-49" fill="#E3E0D8"></path><path d="M17.780514,6.22812707 C17.780514,6.99853144 17.372605,7.67023396 16.7539429,8.05775465 L15.3038263,4.06529794 C15.3840484,4.05536151 15.4649503,4.05072451 15.5451725,4.05072451 C16.7784175,4.05072451 17.780514,5.02184473 17.780514,6.22812707" id="Fill-50" fill="#EB8B2D"></path><path d="M16.0251454,4.10371879 C16.560866,4.50051348 16.9123476,5.12187143 16.9123476,5.83133238 C16.9123476,6.34007749 16.7321878,6.80377745 16.4323746,7.17341257 L16.7539429,8.05775465 C17.372605,7.67023396 17.780514,6.99853144 17.780514,6.22812707 C17.780514,5.18281486 17.0279218,4.31702078 16.0251454,4.10371879" id="Fill-51" fill="#E3672A"></path></g><g id="Group-85" transform="translate(50.058094, 31.936959) rotate(-55.000000) translate(-50.058094, -31.936959) translate(41.058094, 26.436959)"><mask id="mask-20" fill="white"><use xlink:href="#path-19"></use></mask><g id="Clip-84"></g><path d="M1.19313396,6.11222798 C1.19313396,6.11222798 12.2318326,1.27385005 16.8962726,0.523980962 L17.7243279,3.22735176 C17.7243279,3.22735176 4.73922327,12.7265768 1.4310809,10.2537311 C-0.813098699,8.58706094 0.0129171198,6.97537235 1.19313396,6.11222798" id="Fill-83" fill="url(#linearGradient-21)" mask="url(#mask-20)"></path></g><path d="M19.1956568,15.0565775 C19.1956568,15.0565775 19.4602535,16.6006272 20.885451,16.9611883 C22.3106486,17.3217493 23.5778131,16.0350413 25.2668824,16.2916759 C26.9566767,16.5497245 27.5373396,17.012798 27.6960976,17.9912617 C27.8548556,18.9697255 25.8482702,22.3674832 23.4726993,22.2649707 C21.0964035,22.1617513 19.1434623,20.0507017 19.0383486,19.432799 C18.931785,18.8148963 18.6157188,16.1891634 18.193089,15.3139192 C17.7704592,14.4386749 19.1956568,15.0565775 19.1956568,15.0565775" id="Fill-86" fill="#131730"></path><g id="Group-89" transform="translate(2.131148, 28.629310)"><mask id="mask-23" fill="white"><use xlink:href="#path-22"></use></mask><g id="Clip-88"></g><path d="M3.08332856,0.81403954 C3.08332856,0.81403954 -1.78193619,3.08252226 0.710590544,9.09169791 C3.20311728,15.1008736 11.2559466,23.1131078 13.7484733,23.7140941 C16.2403419,24.3150804 17.5830286,22.7129086 17.3908401,19.9087642 C17.1993098,17.1039321 9.91391807,2.28074874 7.03767254,0.678576947 C4.161427,-0.923594842 3.08332856,0.81403954 3.08332856,0.81403954" id="Fill-87" fill="url(#linearGradient-24)" mask="url(#mask-23)"></path></g></g><g id="Group-19" transform="translate(159.000000, 7.000000)"><path d="M3.25744713,14.8137485 C4.00885454,17.1229696 3.77580935,19.6559036 2.66666667,21.7951944 L10.117579,26.25 C11.3230978,24.121008 13.3366519,22.6608662 15.644235,22.1236119 C18.4816147,21.463344 21.0527348,19.5935386 22.6034655,16.7293264 C25.5856817,11.2228983 23.6369229,4.18252035 18.23169,1.24049488 C13.3567983,-1.41259188 7.26985381,0.319896086 4.33664241,5.19752486 C2.52945314,8.20363178 2.25448159,11.7292562 3.25744713,14.8137485" id="Fill-86" fill="#F8C54D"></path><path d="M10.0013253,27.8564598 C10.5175298,28.0823608 11.1241488,27.8725956 11.4080087,27.3445658 C11.7155235,26.7725799 11.5268093,26.0453565 10.9864242,25.7198587 L2.78655385,20.7811943 C2.24616878,20.4556965 1.55859711,20.6554465 1.25108226,21.226876 C0.967748069,21.7549058 1.10757533,22.4142475 1.55439178,22.7686785 C1.03818737,22.5427774 0.431568329,22.7525427 0.147182801,23.2805725 C-0.159806384,23.852002 0.028907858,24.5797817 0.569292929,24.9052795 L2.90588013,26.3124317 L2.81073451,26.4893689 C2.25615644,27.5209466 2.59678828,28.8323968 3.57084814,29.4194057 C4.54543366,30.0064146 5.7844294,29.6458632 6.33900746,28.6148419 L6.43362741,28.4373482 L8.76968895,29.8439439 C9.30954835,30.1694417 9.99712002,29.9691354 10.3046349,29.3977059 C10.5884947,28.8702325 10.4486675,28.2103343 10.0013253,27.8564598" id="Fill-87" fill="#455493"></path><path d="M11.5555556,27.8659703 L0.897230275,21.5625 C0.847927677,21.9951939 1.018806,22.4360408 1.36672547,22.7068384 L1.29557286,22.6841264 L10.4243971,28.0831907 L10.3694919,28.031943 C10.7706358,28.2037394 11.222763,28.1315267 11.5555556,27.8659703" id="Fill-88" fill="#2A366A"></path><path d="M4.64814537,27.3435029 C4.23540405,28.0060277 3.44783167,28.3506966 2.66666667,28.2853704 C2.83432614,28.4959743 3.05057483,28.6787902 3.31434483,28.8157802 C4.30428326,29.3301023 5.56279722,29.0141964 6.1261117,28.1108421 L6.22222222,27.9553267 L4.74532379,27.1875 L4.64814537,27.3435029" id="Fill-90" fill="#2A366A"></path><path d="M10.8156224,27.6616975 C11.3566009,27.9081239 11.9923333,27.6792994 12.2898164,27.1032928 C12.6120897,26.4793362 12.4143185,25.6860372 11.8479989,25.3309646 L10.3236735,24.375 C10.8894423,24.7294656 11.0877643,25.5233715 10.765491,26.1473281 C10.4685588,26.7233347 9.83227549,26.9521593 9.29074608,26.7051259 C9.76010829,27.0923674 9.90609537,27.811617 9.60861227,28.3870167 C9.28633893,29.0109733 8.56631966,29.2294795 8,28.8744069 L9.52487629,29.8297646 C10.0906451,30.1848372 10.8112152,29.966331 11.1334886,29.3429814 C11.4309717,28.7675817 11.2844337,28.0477251 10.8156224,27.6616975" id="Fill-91" fill="#2A366A"></path></g></g></g></g></svg>