<svg xmlns="http://www.w3.org/2000/svg" xmlns:xlink="http://www.w3.org/1999/xlink" id="Layer_1" x="0px" y="0px" viewBox="0 0 1434.3 1080" style="enable-background:new 0 0 1434.3 1080;" xml:space="preserve"><style type="text/css">	.st0{fill:#EEF5FC;}	.st1{fill:#DFECF7;}	.st2{fill:#26367D;}	.st3{fill:#342B6E;}	.st4{fill:#518ADA;}	.st5{fill:url(#SVGID_1_);}	.st6{fill:#EDF3F5;}	.st7{fill:#07A0EB;}	.st8{fill:#FFFFFF;}	.st9{fill:url(#SVGID_00000143605360891626697530000000978542935998202258_);}	.st10{fill:url(#SVGID_00000178175094649180532870000011085291518947271828_);}	.st11{fill:#C9FB9D;}	.st12{fill:#0071B8;}	.st13{fill:#FF885A;}	.st14{fill:#FFA900;}	.st15{fill:#A0B2BE;}	.st16{fill:#B9DB99;}	.st17{fill:#E8EAEC;}	.st18{fill:#6AC9FF;}	.st19{fill:#FFD348;}	.st20{fill:url(#SVGID_00000107562030837155971810000010805126816417060489_);}	.st21{fill:#002643;}	.st22{fill:url(#SVGID_00000029014751573551360590000000293361187759971249_);}	.st23{fill:#CBE2FF;}	.st24{fill:#FBAB88;}	.st25{fill:#F18667;}	.st26{fill:#181818;}	.st27{fill:#0A347F;}	.st28{fill:#86B2DF;}	.st29{fill:#C3D4DE;}	.st30{fill:#98C0F0;}	.st31{fill:#92ABDB;}	.st32{fill-rule:evenodd;clip-rule:evenodd;fill:#FDBF90;}	.st33{fill-rule:evenodd;clip-rule:evenodd;fill:#4A75C9;}	.st34{fill-rule:evenodd;clip-rule:evenodd;fill:#1B4688;}	.st35{fill-rule:evenodd;clip-rule:evenodd;fill:#202B79;}	.st36{fill-rule:evenodd;clip-rule:evenodd;fill:#131731;}	.st37{fill-rule:evenodd;clip-rule:evenodd;fill:#0A347F;}	.st38{fill-rule:evenodd;clip-rule:evenodd;fill:#294593;}	.st39{fill-rule:evenodd;clip-rule:evenodd;fill:#FD8383;}	.st40{fill-rule:evenodd;clip-rule:evenodd;fill:#0E61A9;}	.st41{fill-rule:evenodd;clip-rule:evenodd;fill:#116DBE;}	.st42{fill-rule:evenodd;clip-rule:evenodd;fill:#F7B387;}	.st43{fill-rule:evenodd;clip-rule:evenodd;fill:#EE8061;}	.st44{fill-rule:evenodd;clip-rule:evenodd;fill:#FDBE95;}	.st45{fill-rule:evenodd;clip-rule:evenodd;fill:#FDB07D;}	.st46{fill-rule:evenodd;clip-rule:evenodd;fill:#131730;}	.st47{fill:#002B6D;}	.st48{fill:#508CCA;}	.st49{fill:url(#SVGID_00000055686385297168769560000014839598783091709332_);}	.st50{fill:url(#SVGID_00000026133275203453912770000011260650706265651588_);}	.st51{fill:url(#SVGID_00000134942890188959343110000014783328552266557061_);}	.st52{fill:#FDBE95;}	.st53{fill:url(#SVGID_00000152960469491406833350000004199200918682369692_);}	.st54{fill:url(#SVGID_00000014596546183213963740000007509551051844272561_);}	.st55{fill:#FD7536;}	.st56{fill:#375A64;}	.st57{fill:#1A2E35;}</style><g>	<g>		<path class="st0" d="M1381.9,950.6c5.2-18-0.1-40.3-8.7-57.8c-11.4-23.1-27.8-44.5-30.6-70.6c-5.2-49.5,40.7-91.4,38.8-141.3   c-2.3-59.4-70.2-97.6-70.5-157.1c-0.2-55.7,60.2-98.6,51.8-153.5c-7.5-49.2-62.4-67.1-95.7-101.2c-32.7-33.5-38.6-91.3-73.1-122.7   c-27.3-24.8-57.6-42.9-94.1-43.9c-24-0.7-44,7.3-66.7,13.6c-58.4,16.1-118.2-28-174-40.5c-43.4-9.8-90.1-9-133.2,1.8   c-31.2,7.8-61.3,19.9-92.3,28.7c-31.5,9-56.9,9.1-88.6,1.6c-74.1-17.5-188,33-240.2,81.2c-57.8,53.5-60.4,122.6-87.7,200   c-26.4,75-33.2,157.4-63.5,230.5c-16.7,40.3-40.3,77.1-55.4,118.2c-24.8,67.4-25.1,145.2-0.9,212.9   C134.9,972.6,953.6,1008.2,1381.9,950.6z"></path>	</g></g><g>	<g>		<path class="st1" d="M1183.8,914.8H314.9C206.8,927.2,140,944.1,140,962.8c0,37.9,272.8,68.5,609.4,68.5s609.4-30.7,609.4-68.5   C1358.8,944.1,1292,927.2,1183.8,914.8z"></path>	</g></g><g>	<g>		<path class="st2" d="M1027.6,976.6c6.7,0,11.5-6.8,9-13c-7.3-18-28-30.4-47.7-36.3c-34.6-10.4-71.4-10.2-107.6-11.8   c-36.1-1.6-73.4-5.5-105.1-22.8c-10.3-5.6-19.9-13-28.1-21.7V653.5h-52.7v217.4c-8.2,8.7-17.8,16.1-28.1,21.7   c-31.7,17.3-69,21.2-105.1,22.8c-36.1,1.6-72.9,1.4-107.6,11.8c-19.7,5.9-40.4,18.3-47.7,36.3c-2.5,6.2,2.3,13.1,9,13   c4.8,0,9.5,0,14.3,0l-0.8-0.1c0.6-5.9,5.2-10.7,10.6-13.1c5.3-2.5,11.3-6.5,17.2-7c28.8-2.5,500.2-2.5,529,0   c5.9,0.5,11.9,4.6,17.2,7c5.3,2.5,10,7.3,10.6,13.1l-0.8,0.1L1027.6,976.6z"></path>	</g></g><g>	<g>		<path class="st3" d="M723.8,891.5h-0.3c-8.3,0-15.1-6.7-15.1-15.1v-63.3c0-8.3,6.7-15.1,15.1-15.1h0.3c8.3,0,15.1,6.7,15.1,15.1   v63.3C738.9,884.8,732.1,891.5,723.8,891.5z"></path>	</g></g><g>	<g>		<g>			<path class="st4" d="M1270.3,865.2c-369.8-55.2-743.1-55.2-1112.9,0c-9.8,1.5-18.7-6.1-18.7-16.1V176c0-9.9,8.9-17.5,18.7-16.1    c369.8,55.2,743.1,55.2,1112.9,0c9.8-1.5,18.7,6.1,18.7,16.1v673.2C1289,859.1,1280.2,866.7,1270.3,865.2z"></path>		</g>	</g></g><g>	<g>		<g>			<radialGradient id="SVGID_1_" cx="684.4042" cy="475.2691" r="638.4841" gradientUnits="userSpaceOnUse">				<stop offset="0" style="stop-color:#FFFFFF"></stop>				<stop offset="0.2715" style="stop-color:#FBFCFD"></stop>				<stop offset="0.522" style="stop-color:#F0F4F7"></stop>				<stop offset="0.7633" style="stop-color:#DEE7ED"></stop>				<stop offset="0.9991" style="stop-color:#C3D4DE"></stop>				<stop offset="1" style="stop-color:#C3D4DE"></stop>			</radialGradient>			<path class="st5" d="M1258.3,861.1c-368.1-56.8-739.9-56.8-1108,0c0-228.3,0-456.6,0-684.9c368.1,56.8,739.9,56.8,1108,0    C1258.3,404.5,1258.3,632.8,1258.3,861.1z"></path>		</g>	</g></g><g>	<g>		<rect x="954.7" y="206.2" class="st6" width="261.9" height="154.3"></rect>	</g></g><g>	<g>		<rect x="478.6" y="209.4" class="st7" width="465.2" height="463.5"></rect>	</g></g><g>	<g>		<rect x="158.7" y="306" class="st8" width="310.7" height="254.8"></rect>	</g></g><g>	<g>					<radialGradient id="SVGID_00000183937975458669336790000013412206058628687035_" cx="1111.7709" cy="532.7082" r="144.9789" gradientUnits="userSpaceOnUse">			<stop offset="0" style="stop-color:#FFFFFF"></stop>			<stop offset="0.4632" style="stop-color:#FBFCFD"></stop>			<stop offset="0.8899" style="stop-color:#F0F4F6"></stop>			<stop offset="1" style="stop-color:#ECF1F4"></stop>		</radialGradient>					<rect x="955.8" y="399.6" style="fill:url(#SVGID_00000183937975458669336790000013412206058628687035_);" width="311.9" height="266.2"></rect>	</g></g><g>	<g>					<linearGradient id="SVGID_00000081644941781259657060000011079777041785126796_" gradientUnits="userSpaceOnUse" x1="868.981" y1="510.9636" x2="1478.9014" y2="516.0676">			<stop offset="0" style="stop-color:#FFFFFF"></stop>			<stop offset="1" style="stop-color:#E4F6DA"></stop>		</linearGradient>					<rect x="971.7" y="377.4" style="fill:url(#SVGID_00000081644941781259657060000011079777041785126796_);" width="412.3" height="272.3"></rect>	</g></g><g>	<g>		<path class="st11" d="M1057.3,409.5c-26.1,0-47.2,21.1-47.2,47.2c0,26.1,21.1,47.2,47.2,47.2c26.1,0,47.2-21.1,47.2-47.2   C1104.5,430.7,1083.3,409.5,1057.3,409.5z M1057.3,485.3c-15.8,0-28.6-12.8-28.6-28.6c0-15.8,12.8-28.6,28.6-28.6   c15.8,0,28.6,12.8,28.6,28.6C1085.8,472.5,1073,485.3,1057.3,485.3z"></path>	</g></g><g>	<g>		<path class="st12" d="M1057.3,485.3c-15.5,0-28.1-12.3-28.6-27.7h-18.6c0.5,25.7,21.4,46.3,47.2,46.3c25.8,0,46.7-20.7,47.2-46.3   h-18.6C1085.4,473,1072.8,485.3,1057.3,485.3z"></path>	</g></g><g>	<g>		<path class="st12" d="M1080.3,415.5l-8.1,16.8c8.2,5,13.7,14.1,13.7,24.4c0,0.3,0,0.6,0,0.9h18.6c0-0.3,0-0.6,0-0.9   C1104.5,439,1094.7,423.6,1080.3,415.5z"></path>	</g></g><g>	<g>		<path class="st11" d="M1169,409.5c-26.1,0-47.2,21.1-47.2,47.2c0,26.1,21.1,47.2,47.2,47.2c26.1,0,47.2-21.1,47.2-47.2   C1216.2,430.7,1195,409.5,1169,409.5z M1169,485.3c-15.8,0-28.6-12.8-28.6-28.6c0-15.8,12.8-28.6,28.6-28.6   c15.8,0,28.6,12.8,28.6,28.6C1197.6,472.5,1184.8,485.3,1169,485.3z"></path>	</g></g><g>	<g>		<path class="st13" d="M1169,428.2c8.4,0,16,3.6,21.2,9.4l13.8-12.5c-8.6-9.5-21.1-15.5-34.9-15.5c-9.4,0-18.1,2.7-25.4,7.4   l11.5,14.8C1159.2,429.5,1163.9,428.2,1169,428.2z"></path>	</g></g><g>	<g>		<path class="st12" d="M1216.1,455c-0.4-11.5-5-22-12.2-30l-13.8,12.5c4.2,4.7,6.9,10.7,7.3,17.4H1216.1z"></path>	</g></g><g>	<g>		<path class="st12" d="M1155.1,431.8l-11.5-14.8c-12.6,8.1-21.2,22.1-21.8,38c0,0.6,0,1.2,0,1.7c0,12.3,4.7,23.5,12.4,31.9   l13.8-12.5c-4.7-5.1-7.5-11.9-7.5-19.3c0-0.6,0-1.2,0.1-1.7C1141.1,445,1146.8,436.4,1155.1,431.8z"></path>	</g></g><g>	<g>		<path class="st12" d="M1216.2,456.7c0-0.6,0-1.2,0-1.7h-18.6c0,0.6,0.1,1.1,0.1,1.7c0,7.6-3,14.5-7.8,19.6l11.5,14.8   C1210.5,482.5,1216.2,470.3,1216.2,456.7z"></path>	</g></g><g>	<g>		<path class="st11" d="M1280.7,409.5c-26.1,0-47.2,21.1-47.2,47.2c0,26.1,21.1,47.2,47.2,47.2c26.1,0,47.2-21.1,47.2-47.2   C1327.9,430.7,1306.8,409.5,1280.7,409.5z M1280.7,485.3c-15.8,0-28.6-12.8-28.6-28.6c0-15.8,12.8-28.6,28.6-28.6   c15.8,0,28.6,12.8,28.6,28.6C1309.3,472.5,1296.5,485.3,1280.7,485.3z"></path>	</g></g><g>	<g>		<path class="st12" d="M1309.3,456.7c0,10.3-5.4,19.3-13.6,24.3l13,13.7c11.6-8.6,19.2-22.4,19.2-38c0-13.9-6-26.3-15.5-35   l-13.4,13C1305.3,440,1309.3,447.9,1309.3,456.7z"></path>	</g></g><g>	<g>		<g>			<rect x="996.6" y="590.6" class="st14" width="52.9" height="7.8"></rect>		</g>	</g>	<g>		<g>			<rect x="996.6" y="607.9" class="st15" width="27.3" height="3.2"></rect>		</g>	</g>	<g>		<g>			<rect x="1028.3" y="607.9" class="st15" width="17.4" height="3.2"></rect>		</g>	</g>	<g>		<g>			<polygon class="st15" points="1035.9,616.3 1035.9,618.4 1034.1,618.4 1034.1,616.3 1006,616.3 1006,619.5 1047.9,619.5     1047.9,616.3    "></polygon>		</g>	</g>	<g>		<g>			<rect x="996.6" y="616.3" class="st15" width="7.1" height="3.2"></rect>		</g>	</g>	<g>		<g>			<rect x="1049.5" y="616.3" class="st15" width="6.7" height="3.2"></rect>		</g>	</g>	<g>		<g>			<rect x="996.6" y="624.8" class="st15" width="55.1" height="3.2"></rect>		</g>	</g>	<g>		<g>			<rect x="996.6" y="633.2" class="st15" width="40.2" height="3.2"></rect>		</g>	</g>	<g>		<g>			<rect x="1039.5" y="633.2" class="st15" width="16.7" height="3.2"></rect>		</g>	</g></g><g>	<g>		<g>			<g>				<rect x="1039.6" y="518.8" class="st16" width="33.1" height="7.9"></rect>			</g>		</g>		<g>			<g>				<rect x="1039.6" y="533" class="st16" width="33.3" height="2.2"></rect>			</g>		</g>		<g>			<g>				<rect x="1039.6" y="542.1" class="st16" width="33.3" height="2.2"></rect>			</g>		</g>	</g>	<g>		<g>			<g>				<rect x="1152.4" y="518.8" class="st16" width="33.1" height="7.9"></rect>			</g>		</g>		<g>			<g>				<rect x="1152.3" y="533" class="st16" width="33.3" height="2.2"></rect>			</g>		</g>		<g>			<g>				<rect x="1152.3" y="542.1" class="st16" width="33.3" height="2.2"></rect>			</g>		</g>	</g>	<g>		<g>			<g>				<rect x="1265.2" y="518.8" class="st16" width="33.1" height="7.9"></rect>			</g>		</g>		<g>			<g>				<rect x="1265.1" y="533" class="st16" width="33.3" height="2.2"></rect>			</g>		</g>		<g>			<g>				<rect x="1265.1" y="542.1" class="st16" width="33.3" height="2.2"></rect>			</g>		</g>	</g></g><g>	<g>		<rect x="487.7" y="141.7" class="st8" width="448.9" height="502.6"></rect>	</g></g><g>	<g>		<g>			<rect x="570.8" y="158" class="st17" width="114.3" height="13"></rect>		</g>	</g>	<g>		<g>			<rect x="851.6" y="158" class="st17" width="50.1" height="13"></rect>		</g>	</g>	<g>		<g>			<rect x="851.6" y="188.3" class="st17" width="50.1" height="4.3"></rect>		</g>	</g></g><g>	<g>		<g>			<g>				<path class="st18" d="M557.1,427.2c-18.3,0-33.2,14.9-33.2,33.2s14.9,33.2,33.2,33.2c18.3,0,33.2-14.9,33.2-33.2     S575.5,427.2,557.1,427.2z M557.1,480.6c-11.1,0-20.1-9-20.1-20.1c0-11.1,9-20.1,20.1-20.1c11.1,0,20.1,9,20.1,20.1     C577.2,471.6,568.2,480.6,557.1,480.6z"></path>			</g>		</g>		<g>			<g>				<path class="st18" d="M557.1,447.2c-7.3,0-13.3,5.9-13.3,13.3c0,7.3,5.9,13.3,13.3,13.3c7.3,0,13.3-5.9,13.3-13.3     C570.4,453.1,564.4,447.2,557.1,447.2z M557.1,472.2c-6.5,0-11.7-5.2-11.7-11.7c0-6.5,5.2-11.7,11.7-11.7     c6.5,0,11.7,5.2,11.7,11.7C568.8,466.9,563.6,472.2,557.1,472.2z"></path>			</g>		</g>	</g>	<g>		<g>			<g>				<path class="st18" d="M630.8,427.2c-18.3,0-33.2,14.9-33.2,33.2s14.9,33.2,33.2,33.2c18.3,0,33.2-14.9,33.2-33.2     S649.1,427.2,630.8,427.2z M630.8,480.6c-11.1,0-20.1-9-20.1-20.1c0-11.1,9-20.1,20.1-20.1c11.1,0,20.1,9,20.1,20.1     C650.9,471.6,641.9,480.6,630.8,480.6z"></path>			</g>		</g>		<g>			<g>				<path class="st18" d="M630.8,447.2c-7.3,0-13.3,5.9-13.3,13.3c0,7.3,5.9,13.3,13.3,13.3c7.3,0,13.3-5.9,13.3-13.3     C644,453.1,638.1,447.2,630.8,447.2z M630.8,472.2c-6.5,0-11.7-5.2-11.7-11.7c0-6.5,5.2-11.7,11.7-11.7     c6.5,0,11.7,5.2,11.7,11.7C642.5,466.9,637.2,472.2,630.8,472.2z"></path>			</g>		</g>	</g></g><g>	<g>		<polygon class="st19" points="534.3,562.8 533.5,560.8 647.1,514.5 671.8,525.4 702.2,481.5 722.6,494.4 744.8,462.6 746.6,463.8    723.2,497.3 702.8,484.5 672.6,528.1 647.1,516.9   "></polygon>	</g></g><g>	<g>		<g>			<rect x="568.3" y="537.9" class="st13" width="19.9" height="79.7"></rect>		</g>	</g>	<g>		<g>			<rect x="600.6" y="550.3" class="st13" width="19.9" height="67.4"></rect>		</g>	</g>	<g>		<g>			<rect x="632.9" y="535.8" class="st13" width="19.9" height="81.8"></rect>		</g>	</g>	<g>		<g>			<rect x="665.2" y="558.5" class="st13" width="19.9" height="59.1"></rect>		</g>	</g>	<g>		<g>			<rect x="697.5" y="502.8" class="st13" width="19.9" height="114.8"></rect>		</g>	</g>	<g>		<g>			<rect x="729.8" y="491.8" class="st13" width="19.9" height="125.8"></rect>		</g>	</g></g><g>	<g>		<g>			<rect x="575.9" y="212" class="st17" width="26" height="197.5"></rect>		</g>	</g>	<g>		<g>			<rect x="613.6" y="212" class="st17" width="26" height="197.5"></rect>		</g>	</g>	<g>		<g>			<rect x="651.3" y="212" class="st17" width="26" height="197.5"></rect>		</g>	</g>	<g>		<g>			<rect x="689.1" y="212" class="st17" width="26" height="197.5"></rect>		</g>	</g>	<g>		<g>			<rect x="726.8" y="212" class="st17" width="26" height="197.5"></rect>		</g>	</g>	<g>		<g>			<rect x="764.5" y="212" class="st17" width="26" height="197.5"></rect>		</g>	</g>	<g>		<g>			<rect x="802.2" y="212" class="st17" width="26" height="197.5"></rect>		</g>	</g>	<g>		<g>			<rect x="840" y="212" class="st17" width="26" height="197.5"></rect>		</g>	</g>	<g>		<g>			<rect x="877.7" y="212" class="st17" width="26" height="197.5"></rect>		</g>	</g></g><g>	<g>		<rect x="583.9" y="225.3" class="st8" width="3.3" height="183.1"></rect>	</g></g><g>	<g>		<rect x="621.9" y="225.3" class="st8" width="3.3" height="183.1"></rect>	</g></g><g>	<g>		<rect x="660" y="225.3" class="st8" width="3.3" height="183.1"></rect>	</g></g><g>	<g>		<rect x="698" y="225.3" class="st8" width="3.3" height="183.1"></rect>	</g></g><g>	<g>		<rect x="736" y="225.3" class="st8" width="3.3" height="183.1"></rect>	</g></g><g>	<g>		<rect x="774" y="225.3" class="st8" width="3.3" height="183.1"></rect>	</g></g><g>	<g>		<rect x="812.1" y="225.3" class="st8" width="3.3" height="183.1"></rect>	</g></g><g>	<g>		<rect x="850.1" y="225.3" class="st8" width="3.3" height="183.1"></rect>	</g></g><g>	<g>		<rect x="888.1" y="225.3" class="st8" width="3.3" height="183.1"></rect>	</g></g><g>	<g>		<rect x="579.5" y="317.1" class="st18" width="12" height="91.3"></rect>	</g></g><g>	<g>		<rect x="617.6" y="317.1" class="st18" width="12" height="91.3"></rect>	</g></g><g>	<g>		<rect x="655.6" y="346.7" class="st18" width="12" height="61.7"></rect>	</g></g><g>	<g>		<rect x="693.6" y="285" class="st18" width="12" height="123.3"></rect>	</g></g><g>	<g>		<rect x="693.6" y="285" class="st13" width="12" height="25.8"></rect>	</g></g><g>	<g>		<rect x="731.7" y="266" class="st18" width="12" height="142.3"></rect>	</g></g><g>	<g>		<rect x="769.7" y="317.1" class="st18" width="12" height="91.3"></rect>	</g></g><g>	<g>		<rect x="807.7" y="279.6" class="st18" width="12" height="128.8"></rect>	</g></g><g>	<g>		<rect x="807.7" y="279.6" class="st13" width="12" height="8.8"></rect>	</g></g><g>	<g>		<rect x="845.8" y="293.7" class="st18" width="12" height="114.6"></rect>	</g></g><g>	<g>		<rect x="883.8" y="317.1" class="st18" width="12" height="91.3"></rect>	</g></g><g>	<g>		<g>			<rect x="538.9" y="400.5" class="st17" width="24.4" height="7.1"></rect>		</g>	</g>	<g>		<g>			<rect x="538.9" y="371.3" class="st17" width="24.4" height="7.1"></rect>		</g>	</g>	<g>		<g>			<rect x="538.9" y="342.1" class="st17" width="24.4" height="7.1"></rect>		</g>	</g>	<g>		<g>			<rect x="538.9" y="312.9" class="st17" width="24.4" height="7.1"></rect>		</g>	</g>	<g>		<g>			<rect x="538.9" y="283.7" class="st17" width="24.4" height="7.1"></rect>		</g>	</g>	<g>		<g>			<rect x="538.9" y="254.5" class="st17" width="24.4" height="7.1"></rect>		</g>	</g>	<g>		<g>			<rect x="538.9" y="225.3" class="st17" width="24.4" height="7.1"></rect>		</g>	</g></g><g>	<g>		<g>			<rect x="575.9" y="202.7" class="st15" width="26" height="2.8"></rect>		</g>	</g>	<g>		<g>			<rect x="613.6" y="202.7" class="st15" width="26" height="2.8"></rect>		</g>	</g>	<g>		<g>			<rect x="651.3" y="202.7" class="st15" width="26" height="2.8"></rect>		</g>	</g>	<g>		<g>			<rect x="689.1" y="202.7" class="st15" width="26" height="2.8"></rect>		</g>	</g>	<g>		<g>			<rect x="726.8" y="202.7" class="st15" width="26" height="2.8"></rect>		</g>	</g>	<g>		<g>			<rect x="764.5" y="202.7" class="st15" width="26" height="2.8"></rect>		</g>	</g>	<g>		<g>			<rect x="802.2" y="202.7" class="st15" width="26" height="2.8"></rect>		</g>	</g>	<g>		<g>			<rect x="840" y="202.7" class="st15" width="26" height="2.8"></rect>		</g>	</g>	<g>		<g>			<rect x="877.7" y="202.7" class="st15" width="26" height="2.8"></rect>		</g>	</g></g><g>	<g>					<linearGradient id="SVGID_00000150103128613195860690000005649705981656225929_" gradientUnits="userSpaceOnUse" x1="-215.9186" y1="526.2617" x2="817.2564" y2="266.6786">			<stop offset="0" style="stop-color:#FFFFFF"></stop>			<stop offset="0.2143" style="stop-color:#FBFDFF"></stop>			<stop offset="0.412" style="stop-color:#F0F9FE"></stop>			<stop offset="0.6032" style="stop-color:#DDF0FC"></stop>			<stop offset="0.7903" style="stop-color:#C3E5FA"></stop>			<stop offset="0.973" style="stop-color:#A2D6F7"></stop>			<stop offset="1" style="stop-color:#9CD4F6"></stop>		</linearGradient>					<rect x="24.4" y="285.3" style="fill:url(#SVGID_00000150103128613195860690000005649705981656225929_);" width="423.2" height="254.8"></rect>	</g></g><g>	<g>		<path class="st13" d="M378.8,311.8c-17.6,0.1-33.6,7.4-45,19l42.1,45.2l29.6-58.5C397.3,313.9,388.3,311.8,378.8,311.8z"></path>	</g></g><g>	<g>		<path class="st18" d="M333.7,330.9c-11.2,11.5-18.1,27.2-18.1,44.5c0,11.8,3.3,22.8,9,32.3l50.5-30.1l0.7-1.5L333.7,330.9z"></path>	</g></g><g>	<g>		<polygon class="st14" points="375.9,376.1 375.1,377.5 376.5,376.7   "></polygon>	</g></g><g>	<g>		<path class="st3" d="M420,423.4l-43.5-46.7l-1.3,0.8l-26.8,53c9.2,5.1,19.7,8,30.9,7.9C394.8,438.4,409,432.7,420,423.4z"></path>	</g></g><g>	<g>		<path class="st13" d="M324.7,407.6c5.7,9.5,13.9,17.5,23.6,22.9l26.8-53L324.7,407.6z"></path>	</g></g><g>	<g>		<path class="st18" d="M433.4,342.8l-56.9,34l43.5,46.7c13.7-11.7,22.4-29.1,22.3-48.5C442.3,363.2,439,352.2,433.4,342.8z"></path>	</g></g><g>	<g>		<circle class="st8" cx="379" cy="375.1" r="44.2"></circle>	</g></g><g>	<g>		<rect x="73.1" y="488.9" class="st14" width="48.2" height="3"></rect>	</g></g><g>	<g>		<rect x="73.1" y="496.8" class="st18" width="58" height="3"></rect>	</g></g><g>	<g>		<rect x="95.3" y="504.6" class="st18" width="35.8" height="3"></rect>	</g></g><g>	<g>		<rect x="73.1" y="504.6" class="st18" width="16.9" height="3"></rect>	</g></g><g>	<g>		<rect x="73.1" y="512.5" class="st18" width="58" height="3"></rect>	</g></g><g>	<g>		<rect x="73.1" y="520.4" class="st18" width="58" height="3"></rect>	</g></g><g>	<g>		<g>			<rect x="72" y="326.8" class="st21" width="2.2" height="141.7"></rect>		</g>	</g>	<g>		<g>			<rect x="112.3" y="326.8" class="st21" width="2.2" height="141.7"></rect>		</g>	</g>	<g>		<g>			<rect x="152.6" y="326.8" class="st21" width="2.2" height="141.7"></rect>		</g>	</g>	<g>		<g>			<rect x="192.9" y="326.8" class="st21" width="2.2" height="141.7"></rect>		</g>	</g>	<g>		<g>			<rect x="233.2" y="326.8" class="st21" width="2.2" height="141.7"></rect>		</g>	</g>	<g>		<g>			<rect x="273.5" y="326.8" class="st21" width="2.2" height="141.7"></rect>		</g>	</g></g><g>	<g>		<rect x="66.6" y="383.1" class="st18" width="13.1" height="85.4"></rect>	</g></g><g>	<g>		<rect x="107.2" y="412.4" class="st18" width="13.1" height="56.1"></rect>	</g></g><g>	<g>		<rect x="147.2" y="387.7" class="st18" width="13.1" height="80.7"></rect>	</g></g><g>	<g>		<rect x="187.5" y="357" class="st18" width="13.1" height="111.5"></rect>	</g></g><g>	<g>		<rect x="227.7" y="404.1" class="st18" width="13.1" height="64.4"></rect>	</g></g><g>	<g>		<rect x="45.5" y="471.1" class="st17" width="237" height="1.8"></rect>	</g></g><g>	<g>		<polygon class="st18" points="288.5,357.7 274.6,333.6 260.7,357.7 268,357.7 268,468.5 281.1,468.5 281.1,357.7   "></polygon>	</g></g><g>	<g>		<g>			<path class="st17" d="M62.4,461.5c0,0.9-0.7,1.7-1.7,1.7H47.2c-0.9,0-1.7-0.7-1.7-1.7l0,0c0-0.9,0.7-1.7,1.7-1.7h13.6    C61.7,459.9,62.4,460.6,62.4,461.5L62.4,461.5z"></path>		</g>	</g>	<g>		<g>			<path class="st17" d="M62.4,437.9c0,0.9-0.7,1.7-1.7,1.7H47.2c-0.9,0-1.7-0.7-1.7-1.7l0,0c0-0.9,0.7-1.7,1.7-1.7h13.6    C61.7,436.3,62.4,437,62.4,437.9L62.4,437.9z"></path>		</g>	</g>	<g>		<g>			<path class="st17" d="M62.4,414.3c0,0.9-0.7,1.7-1.7,1.7H47.2c-0.9,0-1.7-0.7-1.7-1.7l0,0c0-0.9,0.7-1.7,1.7-1.7h13.6    C61.7,412.6,62.4,413.4,62.4,414.3L62.4,414.3z"></path>		</g>	</g>	<g>		<g>			<path class="st17" d="M62.4,390.7c0,0.9-0.7,1.7-1.7,1.7H47.2c-0.9,0-1.7-0.7-1.7-1.7l0,0c0-0.9,0.7-1.7,1.7-1.7h13.6    C61.7,389,62.4,389.8,62.4,390.7L62.4,390.7z"></path>		</g>	</g>	<g>		<g>			<path class="st17" d="M62.4,367.1c0,0.9-0.7,1.7-1.7,1.7H47.2c-0.9,0-1.7-0.7-1.7-1.7l0,0c0-0.9,0.7-1.7,1.7-1.7h13.6    C61.7,365.4,62.4,366.2,62.4,367.1L62.4,367.1z"></path>		</g>	</g>	<g>		<g>			<path class="st17" d="M62.4,343.5c0,0.9-0.7,1.7-1.7,1.7H47.2c-0.9,0-1.7-0.7-1.7-1.7l0,0c0-0.9,0.7-1.7,1.7-1.7h13.6    C61.7,341.8,62.4,342.6,62.4,343.5L62.4,343.5z"></path>		</g>	</g>	<g>		<g>			<path class="st17" d="M62.4,319.9c0,0.9-0.7,1.7-1.7,1.7H47.2c-0.9,0-1.7-0.7-1.7-1.7l0,0c0-0.9,0.7-1.7,1.7-1.7h13.6    C61.7,318.2,62.4,319,62.4,319.9L62.4,319.9z"></path>		</g>	</g></g><g>	<g>		<g>							<linearGradient id="SVGID_00000173858076553964787980000018424665467050168206_" gradientUnits="userSpaceOnUse" x1="1075.9657" y1="88.0547" x2="1139.2875" y2="469.0768">				<stop offset="0" style="stop-color:#FFFFFF"></stop>				<stop offset="0.3164" style="stop-color:#FEFBFE"></stop>				<stop offset="0.6081" style="stop-color:#FCF0FC"></stop>				<stop offset="0.8893" style="stop-color:#F9DEF8"></stop>				<stop offset="1" style="stop-color:#F7D4F6"></stop>			</linearGradient>							<rect x="971.7" y="169.3" style="fill:url(#SVGID_00000173858076553964787980000018424665467050168206_);" width="264.5" height="174.7"></rect>		</g>	</g>	<g>		<g>			<g>				<g>					<g>						<rect x="997.3" y="250.3" class="st23" width="22.7" height="64"></rect>					</g>				</g>				<g>					<g>						<rect x="1025.9" y="269.8" class="st23" width="22.7" height="44.5"></rect>					</g>				</g>				<g>					<g>						<rect x="1054.5" y="225.3" class="st23" width="22.7" height="89.1"></rect>					</g>				</g>				<g>					<g>						<rect x="1083.1" y="250.3" class="st23" width="22.7" height="64"></rect>					</g>				</g>				<g>					<g>						<rect x="1111.8" y="225.3" class="st23" width="22.7" height="89.1"></rect>					</g>				</g>				<g>					<g>						<rect x="1140.4" y="232.3" class="st23" width="22.7" height="82"></rect>					</g>				</g>				<g>					<g>						<rect x="1169" y="214.6" class="st23" width="22.7" height="99.7"></rect>					</g>				</g>			</g>			<g>				<g>					<g>						<rect x="997.3" y="307.9" class="st18" width="22.7" height="6.4"></rect>					</g>				</g>				<g>					<g>						<rect x="1025.9" y="288.7" class="st18" width="22.7" height="25.6"></rect>					</g>				</g>				<g>					<g>						<rect x="1054.5" y="301.5" class="st18" width="22.7" height="12.8"></rect>					</g>				</g>				<g>					<g>						<rect x="1083.1" y="288.7" class="st18" width="22.7" height="25.6"></rect>					</g>				</g>				<g>					<g>						<rect x="1111.8" y="273.3" class="st18" width="22.7" height="41"></rect>					</g>				</g>				<g>					<g>						<rect x="1140.4" y="288.7" class="st18" width="22.7" height="25.6"></rect>					</g>				</g>				<g>					<g>						<rect x="1169" y="250.3" class="st18" width="22.7" height="64"></rect>					</g>				</g>			</g>		</g>		<g>			<g>				<g>					<rect x="1183.7" y="177.1" class="st14" width="35.9" height="5.3"></rect>				</g>			</g>			<g>				<g>					<rect x="1183.7" y="188.8" class="st15" width="18.5" height="2.2"></rect>				</g>			</g>			<g>				<g>					<rect x="1205.2" y="188.8" class="st15" width="11.8" height="2.2"></rect>				</g>			</g>			<g>				<g>					<polygon class="st15" points="1210.4,194.5 1210.4,196 1209.1,196 1209.1,194.5 1190,194.5 1190,196.7 1218.5,196.7       1218.5,194.5      "></polygon>				</g>			</g>			<g>				<g>					<rect x="1183.7" y="194.5" class="st15" width="4.8" height="2.2"></rect>				</g>			</g>			<g>				<g>					<rect x="1219.6" y="194.5" class="st15" width="4.5" height="2.2"></rect>				</g>			</g>		</g>		<g>			<g>				<g>					<path class="st14" d="M1015.8,210.9h-13.9c-1.2,0-2.2-1-2.2-2.2v0c0-1.2,1-2.2,2.2-2.2h13.9c1.2,0,2.2,1,2.2,2.2v0      C1018,209.9,1017,210.9,1015.8,210.9z"></path>				</g>			</g>			<g>				<g>					<path class="st14" d="M1044.2,210.9h-13.9c-1.2,0-2.2-1-2.2-2.2v0c0-1.2,1-2.2,2.2-2.2h13.9c1.2,0,2.2,1,2.2,2.2v0      C1046.5,209.9,1045.5,210.9,1044.2,210.9z"></path>				</g>			</g>			<g>				<g>					<path class="st14" d="M1072.9,210.9h-13.9c-1.2,0-2.2-1-2.2-2.2v0c0-1.2,1-2.2,2.2-2.2h13.9c1.2,0,2.2,1,2.2,2.2v0      C1075.1,209.9,1074.1,210.9,1072.9,210.9z"></path>				</g>			</g>			<g>				<g>					<path class="st14" d="M1101.5,210.9h-13.9c-1.2,0-2.2-1-2.2-2.2v0c0-1.2,1-2.2,2.2-2.2h13.9c1.2,0,2.2,1,2.2,2.2v0      C1103.7,209.9,1102.7,210.9,1101.5,210.9z"></path>				</g>			</g>			<g>				<g>					<path class="st14" d="M1130.1,210.9h-13.9c-1.2,0-2.2-1-2.2-2.2v0c0-1.2,1-2.2,2.2-2.2h13.9c1.2,0,2.2,1,2.2,2.2v0      C1132.3,209.9,1131.3,210.9,1130.1,210.9z"></path>				</g>			</g>			<g>				<g>					<path class="st14" d="M1158.7,210.9h-13.9c-1.2,0-2.2-1-2.2-2.2v0c0-1.2,1-2.2,2.2-2.2h13.9c1.2,0,2.2,1,2.2,2.2v0      C1160.9,209.9,1159.9,210.9,1158.7,210.9z"></path>				</g>			</g>			<g>				<g>					<path class="st14" d="M1186.8,210.9h-13.9c-1.2,0-2.2-1-2.2-2.2v0c0-1.2,1-2.2,2.2-2.2h13.9c1.2,0,2.2,1,2.2,2.2v0      C1189,209.9,1188,210.9,1186.8,210.9z"></path>				</g>			</g>		</g>	</g></g><g>	<g>		<g>			<g>				<g>					<path class="st24" d="M383.5,520.5c0.9,5.4-0.4,11.1-3.6,15.4c-1.9,10.1-9.9,18.7-19.6,20.9c-9.1-3.8-15.5-14-15.1-24.3      s7.5-19.9,16.9-22.8c5.2-1.6,11.5-1.1,15.3,3L383.5,520.5z"></path>				</g>			</g>		</g>		<g>			<g>				<g>					<path class="st25" d="M368.2,508.9c-2-0.1-4.1,0.2-6.1,0.8c-9.4,2.9-16.5,12.5-16.9,22.8s5.9,20.5,15.1,24.3      c0.9-0.2,1.8-0.5,2.7-0.8C359.4,539.8,358.9,522.1,368.2,508.9z"></path>				</g>			</g>		</g>		<g>			<g>				<g>					<path class="st24" d="M324.8,563.9c-1-1.1-0.1-2.9,0.8-4.2c7.3-10.1,12.5-21.1,14.2-33.5c7.6,3.1,15.1,4.3,23.3,5.5      c-3.2,13.5-5.4,27.3-6.5,41.1c-10-2.7-20.1-5.4-30.1-8.2C325.9,564.6,325.2,564.4,324.8,563.9z"></path>				</g>			</g>		</g>		<path class="st26" d="M390,519.2c4.4-1.5,7.9-5.5,8.7-10.2c-2.9,1.7-6.5,2.2-9.8,1.5c0.9,0,1.9-0.4,2.5-1.1   c-3.9-0.2-7.5-2.1-10.7-4.4c-3.2-2.3-6.1-5-9.4-7.1c-3.3-2.1-7.3-3.5-11.2-2.8c-0.5,0.1-0.9,0.2-1.4,0.4c-2.3-0.2-4.5-0.1-6.7,0.5   c-7.5,2-12.7,9.3-14.3,16.8c-1.6,7.6-2.3,16.4-0.2,23.9c7.7,3.5,18.8,3.1,26.9,0.6c1.1-0.3,2.2-0.8,3.3-1.2   c0.5-1.5,0.6-3.1,0.8-4.6c0.3-1.8,0.7-3.7,2-5c1.2-1.3,3.4-2,4.9-0.9c1,0.7,1.5,1.9,1.6,3.1c0,0.5,0,1.1-0.1,1.6   c1.6-1.4,3-2.9,4.3-4.5c5.5,0.4,11.1-2.4,14-7.1C393.5,519.1,391.7,519.4,390,519.2z"></path>		<g>			<g>				<path class="st25" d="M373.6,531.6c0.3-0.4,0.7-0.6,1.1-1c0.8-0.7,1.1-1.9,0.7-2.8c-0.4-1-1.6-1.5-2.5-1.2     c-0.9,0.4-1.4,1.5-1.4,2.5c0,1.1,0.3,2.1,0.7,3.1c-0.4-0.3-1.1-0.3-1.5,0c-0.4,0.3-0.6,0.9-0.4,1.4c0.1,0.3,0.4,0.6,0.7,0.9     s0.4,0.7,0.3,1c-0.1,0.2-0.3,0.4-0.4,0.6c-0.1,0.2-0.1,0.5,0.2,0.6c0.1,0,0.3-0.1,0.4-0.1c1-0.7,1.6-1.9,1.7-3     C373.3,532.9,373.2,532.2,373.6,531.6z"></path>			</g>		</g>		<g>			<g>				<path class="st12" d="M369.5,505.8c0.9,0.5,0.8,1.9,1.5,2.7c0.8,0.9,2.3,0.7,3.5,0.7c2.2,0,4.4,1.1,6,2.7     c1.6,1.5,2.9,3.4,4.1,5.3c0.8-1.3,1.5-2.5,2.3-3.8c-8.1-4.6-16.1-9.1-24.2-13.7c0.4,2,0.9,3.9,1.3,5.9c0.1,0.4,0.2,0.7,0.4,1     c0.6,0.7,1.8,0.3,2.6-0.2C367.7,505.9,368.7,505.3,369.5,505.8z"></path>			</g>		</g>	</g>	<g>		<g>			<path class="st21" d="M284.3,935.5c-1.9-1-4.9-1.4-7-1.5c-2.1-0.2-3.9-0.8-5.8-1.8c-1.9-1-3.3-3.2-2.9-5.3    c-5.5-0.4-9.6-2.1-14.5-4.7c0.1,4-2.5,7.6-3.5,11.4c-0.2,0.9-0.2,2-0.1,3.1c-0.5,2.6-0.3,5.3,0.6,7.8c4.6,2.5,10,3.5,15.2,2.8    c0.1-0.9,0.3-1.7,0.6-2.5c2.8-0.7,4.8-1.1,7.4-0.7c2.8,0.4,3.7,0.9,5.5,0.7c1.5-0.2,2.3-0.9,3.7-1.6c1.4-0.6,3.1-2.3,3.4-3.8    C287.3,937.3,286.2,936.5,284.3,935.5z"></path>		</g>	</g>	<g>		<g>			<path class="st17" d="M267.7,930.4c-4.1-1.9-8.2-3.7-12.6-4.6c-0.5,0.9-1.1,1.8-1.3,2.8c-0.3,1-0.2,2.1,0.4,2.9    c0.6,0.8,1.6,1.2,2.5,1.4C260.5,933.8,264.7,932.8,267.7,930.4z"></path>		</g>	</g>	<g>		<g>			<g>				<path class="st27" d="M260.1,881.4c-1.9,5.1-4.4,23.5-7,30.1c-2,5.1-4,7.8-0.9,12.4c3.1,4.5,12.9,9.3,17.9,7     c13.5-36.3,29.5-71.5,42-108.2c12.5-36.6,21.5-75,20.2-113.6c-21-6.4-42-12.7-63-19.1c-19,47.2-5.8,60.9-3.5,95.2     C268.1,819.7,272.2,849.3,260.1,881.4z"></path>			</g>		</g>	</g>	<g>		<g>			<g>				<path class="st21" d="M284.6,694.7c15.9,4.8,31.9,9.6,47.8,14.4c1.3,38.7-7.7,77-20.2,113.6c-8.2,23.9-17.8,47.2-27.3,70.6     c1.5-8.6,2.2-17.3,3.5-25.5C300.1,807.9,254.8,751.8,284.6,694.7z"></path>			</g>		</g>	</g>	<g>		<g>			<path class="st21" d="M349.2,956.3c-1-2.3-3.6-3.6-6.1-3.9c-2.5-0.3-5,0.1-7.6,0.1c-10,0.2-19.7-4.8-29.6-3.1    c0,4.2-0.6,8.5,0,12.7c0.1,0.8,0.3,1.5,0.5,2.3c0.1,2.2,0.5,4.3,0.9,6.4c0.2,1.1,0.4,2.3,1.1,3.2c0.9,1.2,2.3,1.7,3.7,2.1    c5.4,1.4,11.4,0.3,15.9-2.9c0.5-0.4,1.1-0.8,1.4-1.4c0.2-0.4,0.3-0.9,0.3-1.4c1.5-0.6,3-1.2,4.5-1.7c3.6-1.1,5.1-1.5,8.4-3.3    C345.8,963.6,350.7,959.7,349.2,956.3z"></path>		</g>	</g>	<g>		<g>			<path class="st17" d="M330,954.8c0.8-0.3,1.7,0.3,1.9,1.2c0.2,0.8-0.2,1.7-0.8,2.3c-0.6,0.6-1.4,0.9-2.3,1.2    c-3.6,1.2-7.4,1.4-11.1,1.4c-2.2,0-4.5-0.1-6.7-0.9s-4-2.4-4.6-4.6c-0.6-2.2,0.6-4.8,2.7-5.5L330,954.8z"></path>		</g>	</g>	<g>		<g>			<g>				<path class="st27" d="M273.2,698.7l1.1-14.1c19.5,8.6,41.9,17.9,63.1,20.8c0.6,46.1,5.6,85.4,4.8,127.7     c-0.7,39.3-7,81.8-12.2,123.2c-9.4,2.4-15.9,3.1-24.6-2.9c-0.9-34.9-3.4-62.1-1.5-77.5c1.8-15.4-6-53.2-10.8-68.2     C278.1,761,264.2,754.1,273.2,698.7z"></path>			</g>		</g>	</g>	<g>		<g>			<path class="st28" d="M310.6,560.1c-7.2-1.2-14.2,4.4-16.8,11.2c-2.6,6.8-1.8,14.4-0.3,21.5c4.1,19.8,12.9,38.4,24.6,54.9    c4.6,6.5,9.7,12.8,16,17.7c15.8,12.6,36.8,15.7,56.8,18.3c1.9-4.3,3.8-8.6,5.7-13c-22.7-11.8-41.6-30.8-53.2-53.6    c-8.1-15.9-12.6-33.3-17.1-50.5L310.6,560.1z"></path>		</g>	</g>	<g>		<g>			<polygon class="st21" points="421.8,704.2 381.7,704.8 397.2,637.7 437.3,637.1    "></polygon>		</g>	</g>	<g>		<g>			<polygon class="st8" points="419.8,693.8 386,694.2 399,637.6 432.9,637.2    "></polygon>		</g>	</g>	<g>		<g>			<path class="st29" d="M399,637.6L387,689.9c10.7-12.9,23-22.6,39-23.1l6.8-29.6L399,637.6z"></path>		</g>	</g>	<g>		<g>			<g>				<path class="st30" d="M313.5,559.2c4.5-2.9,8.1-7.1,10.2-12c16.3,0.7,31.9,10.4,39.7,24.7c-6.7-2.4-13.5-4.9-20.2-7.3     c-8.5-3.1-17.2-6.2-26.2-6L313.5,559.2z"></path>			</g>		</g>		<g>			<g>				<g>					<g>						<path class="st30" d="M345.3,734.5c0.5-6.6-2.5-21.1-1.6-43.4c0.3-18,1.2-11.2,1.5-16.8c0.8-13.6,5.1-18.1,11.7-30.1       c5-9.1,12.6-24.4,17.8-33.3c5.2-8.9,7.8-20.6,2.4-29.4c-3.4-5.4-9.2-8.8-14.9-11.6c-8.4-4.2-17.2-7.7-26.2-10.6       c-10.1-3.2-21.9-5.3-30.5,0.9c-5.7,4.1-12.5,11.8-16,17.9c-19.4,33.4-16.6,45.4-26,102.7c-0.8,4.7-15.7,37.4-17.8,47.8       c5,1.9,10.1,3.4,15.3,4.7c2.2-13.8,5.7-27.1,10.7-39.3c0.2,15.5-4,26.3-2.9,41C293.2,739.4,319.3,738,345.3,734.5z"></path>					</g>				</g>			</g>		</g>		<g>			<g>				<path class="st30" d="M318.3,560.2c11.2,0.7,22.4,2.8,33.1,6.3c-9.4-6.1-20.6-9.5-31.9-9.7c-0.9,0-1.8,0-2.5,0.5     c-0.7,0.5-1.2,1.5-0.7,2.2C316.8,560,317.6,560.1,318.3,560.2z"></path>			</g>		</g>		<g>			<g>				<path class="st30" d="M312.4,558.2c-6.8,2.2-12.6,7.1-16,13.3C301.7,567.1,307.1,562.7,312.4,558.2z"></path>			</g>		</g>		<g>			<g>				<path class="st30" d="M366.5,578.5c-2.9,4.2-5.9,8.3-8.8,12.5C358.8,585.9,362.1,581.2,366.5,578.5z"></path>			</g>		</g>		<g>			<g>				<g>					<g>						<path class="st30" d="M331.9,736.1c4.5-0.5,8.9-1,13.4-1.6c0.5-6.6-2.5-21.1-1.6-43.4c0.3-18,1.2-11.2,1.5-16.8       c0.8-13.6,5.1-18.1,11.7-30.1c5-9.1,12.6-24.4,17.8-33.3c4.8-8.3,7.4-19,3.4-27.5C324,613.1,325.5,677.2,331.9,736.1z"></path>					</g>				</g>			</g>		</g>	</g>	<g>		<g>			<path class="st24" d="M402.1,585.6c3.1-1.8,6.4-3.2,9.9-4.1c-1.7-3.4-2.6-7.3-2.4-11.2c0.1-2.2,0.4-4.8-1.2-6.3    c-0.9-0.9-2.2-1.2-3.4-1.5c-2.8-0.7-5.6-1.3-8.4-2c-2.8-0.7-3.6,0.2-5.1-2.2c-0.6-0.9-3.1-3.8-3.9-4.6c-0.7-0.9-2.7-4.6-4.5-2.8    c-0.8,0.8,1.1,4.5,1.6,5.5c1.2,2.7,2.4,5.3,3.6,8c1,2.1,1.6,3.6-0.1,5.2c-0.6,0.6-2,0.6-2.7,1.1c-0.7,0.5-0.4,2.9-0.1,3.7    c0.2,0.5,0.6,0.8,1.1,1.1C391.7,578.8,396.9,582.2,402.1,585.6z"></path>		</g>	</g>	<g>		<g>			<g>				<path class="st31" d="M414.9,581.8c-1.1-2-2.2-4-3.3-6c-4.7-0.1-9.4,1.7-12.9,5c-0.6,0.5-1.1,1.2-1.1,1.9c0,0.4,0.2,0.8,0.4,1.1     c1.4,2.7,2.9,5.4,4.3,8.1c4-4.3,7.7-6.6,13.4-7.8L414.9,581.8z"></path>			</g>		</g>	</g>	<g>		<g>			<g>				<path class="st30" d="M433.4,663.2c3.7-1.4,6.1-5,7.3-8.7c2.3-7,1.2-14.7-1.2-21.7c-2.4-7-6.1-13.4-9-20.2     c-4-9.2-6.8-18.9-11.4-27.8c-1-1.9-2.1-4-4.1-4.9c-2.5-1.1-5.5,0.3-8.6,0.7c-2.1,0.3-4,2.5-6.1,3.5c-1.4,0.6-2.1,2.2-1.7,3.7     c3.5,13.1,6.3,25.7,8.1,39.2c0.9,7.1,1.7,14.4,4.4,21.1c2.7,6.7,7.7,12.8,14.5,15C428.2,663.9,430.9,664.1,433.4,663.2z"></path>			</g>		</g>	</g>	<g>		<g>			<g>				<path class="st28" d="M400.3,584.1c-1.4,0.6-2.1,2.2-1.7,3.7c3.5,13.1,6.3,25.7,8.1,39.2c0.9,7.1,1.7,14.4,4.4,21.1     c2.7,6.7,7.7,12.8,14.5,15c0.1,0,0.2,0.1,0.4,0.1c-2.1-28.2-10.3-56.1-21.8-81.6C402.9,582.3,401.7,583.5,400.3,584.1z"></path>			</g>		</g>	</g>	<g>		<g>			<path class="st30" d="M355.4,604.1c1.3-9.6,6.7-18.6,14.6-24.3c1.6-1.2,3.6-2.3,5.6-2c1.6,0.3,2.9,1.4,4.1,2.5    c15.2,14.2,26.7,32,42,46.2c4.2,3.9,8.7,7.5,12.2,12c3.5,4.5,6,10.1,5.5,15.7c-0.5,5.7-4.7,11.2-10.4,12c-4.3,0.6-8.6-1.6-12.2-4    c-6.5-4.3-12.2-9.7-18.1-14.7c-9.7-8.2-20.1-15.4-31.1-21.7c-3.4-2-7-3.9-9.4-7.1C355.2,614.6,354.7,609.1,355.4,604.1z"></path>		</g>	</g>	<g>		<g>			<g>				<path class="st28" d="M424.3,660.6c-17.9-26.1-48.9-35.8-68.6-58c-0.1,0.5-0.2,1-0.3,1.5c-0.7,5-0.2,10.5,2.8,14.6     c2.4,3.2,6,5.1,9.4,7.1c11,6.3,21.4,13.5,31.1,21.7c6,5,11.7,10.4,18.1,14.7c3.3,2.2,7.1,4.2,11,4.1     C426.6,664.4,425.4,662.6,424.3,660.6z"></path>			</g>		</g>	</g></g><path id="Fill-306" class="st32" d="M1051.3,620c-6.7,4.3-10.4,9.8-10.4,9.8c16.4,4.4,43.5-11.4,43.5-11.4s-10.5-7.4-14.4-23.6 c-0.2-0.8-0.4-1.7-0.5-2.5c-0.5-2.7-0.8-5.7-0.9-8.9l-20,18.7c0,0,0.3,4.8,1.8,13.2C1050.6,616.7,1050.9,618.3,1051.3,620"></path><g>	<polyline id="Fill-312" class="st33" points="1031.8,737.2 1029.2,738 1007,670.4 1009.6,669.6 1031.8,737.2  "></polyline>	<polyline id="Fill-313" class="st33" points="1100.2,732.1 1027.4,733.6 1027.5,738 1100.3,736.5 1100.2,732.1  "></polyline>	<g>		<path id="Fill-298" class="st32" d="M1087.1,712.7c0,0-11.6,3.2-19,0.8c-7.4-2.4-20.1,1.5-22.1,4.4c-2,2.9-1.3,4.1,2.4,5.1   c3.6,1,16.6,6.9,25.1,3.5c8.5-3.4,19.6-3.6,19.6-3.6L1087.1,712.7"></path>		<path id="Fill-299" class="st34" d="M1187.7,610c0,0-13.1,95.8-34.7,104.3c-10.7,4.2-57.9,13.8-71.8,14.8c0,0-3.4-2.9-2.6-14.5   c0,0,49.4-18.7,56.5-28.9c10.4-15.1-6.5-61.9,6.6-76.1S1176.8,589.3,1187.7,610"></path>		<path id="Fill-300" class="st35" d="M1186.4,978.6v-20.9h31.7c0.9,0,1.6-0.7,1.6-1.6v-3.4c0-0.9-0.7-1.6-1.6-1.6h-31.7V831.9   c0-3.3-2.6-6.1-5.8-6.1h-6.3c-3.2,0-5.8,2.7-5.8,6.1v119.1h-31.7c-0.8,0-1.6,0.7-1.6,1.6v3.4c0,0.9,0.7,1.6,1.6,1.6h31.7v20.9   c-22.9,1.8-41.2,10.4-46.4,21.5h110.7C1227.7,989,1209.3,980.4,1186.4,978.6"></path>		<path id="Fill-302" class="st36" d="M1078.4,975.9c0,0-1.4,22.3-5.6,22.6c-0.6,0-21.5,0-21.5,0l-26.8-0.2c0,0,0.2-6.5,8-7.9   c7.8-1.4,20.9-7,25.7-17.4C1063.1,962,1078.4,975.9,1078.4,975.9"></path>		<path id="Fill-303" class="st36" d="M1139.5,912.2c0,0,19.3,12.2,17.4,16.2c-0.2,0.5-10.9,19.4-10.9,19.4l-13.7,24   c0,0-5.8-3.4-3-11.1c2.7-7.7,4.4-22.2-2.6-31.7C1119.3,919,1139.5,912.2,1139.5,912.2"></path>		<path id="Fill-304" class="st37" d="M1114.7,755.9c0,0-72.9,46.9-81,78.4c-8.1,31.5,97,98.7,97,98.7s11.5-10.5,13.6-18.2   c0,0-47.5-58.8-57.8-72c-6.3-8.1,93.6-28,105.8-47.6c12.2-19.6,7.8-36.1,7.8-36.1L1114.7,755.9"></path>		<path id="Fill-305" class="st38" d="M1102.8,816.9c-3,0-5.4,1.7-5.4,3.8v21c0,2.1,2.4,3.8,5.4,3.8h149.4c3,0,5.4-1.7,5.4-3.8v-21   c0-2.1-2.4-3.8-5.4-3.8H1102.8z"></path>		<path id="Fill-309" class="st39" d="M1145.4,575c0,0,0.3,5.2,1.9,14.2c12.8-4.4,18.6-16.8,20.6-22.1c0.6-1.5,0.8-2.4,0.8-2.4   s-0.5-0.1-1.4-0.3c-1.8-0.4-5.2-1.2-8.8-2L1145.4,575"></path>		<path id="Fill-310" class="st32" d="M1139.1,574.1c0,0,28.8,3.3,30.6-15c1.8-18.3,6.7-30.3-11.7-33.2c-18.3-2.9-22.6,3.7-24.6,9.7   C1131.3,541.6,1131.7,572.7,1139.1,574.1"></path>		<path id="Fill-311" class="st36" d="M1170.8,560.9c0,0-1.8-24.7-28-27.3c-17.9-1.8-7.9-17.8-6-20.3c0,0,13.7,2,27.8,4.4   C1194.1,522.7,1173.7,557,1170.8,560.9"></path>		<path id="Fill-314" class="st32" d="M1091.9,727.6c0,0-11.2,4.3-18.8,2.9c-7.6-1.4-19.8,3.7-21.5,6.7c-1.7,3-0.9,4,2.9,4.5   c3.7,0.5,17.2,4.7,25.3,0.5s19.1-5.5,19.1-5.5L1091.9,727.6"></path>		<path id="Fill-301" class="st37" d="M1184,810.8c-3.8,6.7-8.2,13-12.8,18.9c-14.1,18.3-29.4,33.5-32.1,47.7   c-0.5,2.9-1.4,5.9-2.5,9.2c-1.1,3.3-2.5,6.7-4.1,10.3c-6,13.4-14.9,28.4-23.8,42c-15.4,23.6-29.9,43.2-29.9,43.2l-26.6-1.2   c1.1-2.7,12.7-35.3,28.2-75.1c6.3-16.1,13-33.3,19.5-49.9c0.9-2.2,1.7-4.4,2.6-6.6c2-5.1,3.9-10.1,5.8-14.9   c14.6-37.4,26.2-67.1,26.2-67.1s58.3-22.8,64.3-8C1203.7,771.5,1199.7,783.5,1184,810.8"></path>		<path id="Fill-307" class="st40" d="M1201.8,677.1c-2.5,34.7,1.7,87.6-1.1,96.7c-2.5,7.9-31.3,3.2-42.4,0.6c-4.1-1-9.1-2.4-14.3-4   c-14.4-4.6-30.1-11.2-31.8-16c-0.1-0.2-0.1-0.4-0.2-0.6c-0.2-0.7-0.1-1.4,0-2c0.6-2.5,2.7-5.2,3-11.3c0.3-6.9,0.2-15,0.5-23.7   c0-1,0-2,0.1-3l0-0.4c0-0.2,0-0.4,0-0.6c0.2-9.7,0.7-19.9,1.3-30c0.4-6.4,0.8-12.6,1.3-18.7c1.3-15.6,2.9-29.4,5.2-38.2   c3.7-14.3,11.7-23.6,19.1-30.4l5.3-4.7c5.9,1.3,12.9,0.4,19.3-2.6c6.9-3.4,9.2-5.8,10.4-4.9C1193.3,596,1204.7,634.7,1201.8,677.1   "></path>		<path id="Fill-315" class="st41" d="M1181.8,613.7c0,0-2.8,96.5-23.4,107.5c-10.2,5.4-56.2,20.3-70,22.8c0,0-3.7-2.5-4.1-14.1   c0,0,47.3-24.2,53.2-35.1c8.8-16.2-13.1-60.7-1.6-76.3C1147.4,603,1168.8,594.4,1181.8,613.7"></path>	</g></g><g>	<g>		<g>			<path class="st42" d="M851.6,548.4c-0.9-8-5.1,12.6-25.2,9.5c0,0-3.9-11.4-3.4-19.6c0.1-1,0.1-2,0.1-2.9    c0.5-9.2,0.5-14.4,0.5-14.4s0,0,0,0c1-0.3,33.5-11.3,33.4-10.3C854.9,535.6,851.6,548.4,851.6,548.4z"></path>		</g>		<g>			<path class="st43" d="M853.5,516.4c-3.4,5.5-14.6,15.9-30.3,18.9c0.5-9.2,0.5-14.4,0.5-14.4s0,0,0,0    C824.5,520.8,854.5,514.8,853.5,516.4z"></path>		</g>		<g>			<path class="st44" d="M819.8,523.2c0,0,32.4,7,38.7-15s15-35.4-7.1-43.1c-22.1-7.7-28.9-0.6-32.8,6.2    C815,478.8,810.8,519.9,819.8,523.2z"></path>		</g>		<g>			<path class="st45" d="M864.7,483.8c-5.2-1.5-5.4,9.4-5.3,14.8C859.5,509.1,872.9,486,864.7,483.8z"></path>		</g>		<path id="Fill-911_00000022540531088541916900000006937039961613887125_" class="st46" d="M848.1,450.6c-5.6-1-5.4,15.3-4.4,16   c3.3-1.7,5.8,0.4,6.6,0.9c1.5,0.9,4.1,5.9,4.2,9.5c0,2.2,3.1,4.4,4,6.8c1.4,3.8-0.3,10.1-0.8,13l4.3-3.3   c1.8-5.5,2.6-10.4,2.6-14.7c-0.1-6.5-1.2-7.7-2.6-12.3C860.7,461.9,853.7,451.6,848.1,450.6z"></path>		<path id="Fill-916_00000132790399582487956010000006425300418074734746_" class="st46" d="M823.5,457.2c2.6-8.6,7.7-8.4,12.5-9.4   c2.7-0.6,17.1-0.7,23.6,5.5c8.2,8.2,6.8,21.5,6.8,29.1c0,5.1-4.1-1.7-5.3-5.7c-0.6-2.1-0.6-9.2-4.9-11.2s-7.1,4.3-14.8,3.3   c-7.7-0.9-11.8-6.3-15.8-2.9c-2.3,2.1-5.1,5.5-6.1,7.7c-0.9,2.2,0.5-4.5-0.7-3.3c-0.8,0.8,0.3-6.6,0.3-6.6   C820.5,457.6,821.7,463.1,823.5,457.2z"></path>		<path id="Path-7_00000082332358572070848490000016371198987118040238_" class="st46" d="M814.8,515.1c-0.1-0.4-0.1-3.1,0.6-0.7   c0.1,0.3,1.3,2.3,1.4,2.5c0.5,1.6,1.2,1.6,1.8,2.1c1.6,1.1,3-2.6,4.6-2c1.6,0.6,1.9,2.1,2.5,3.5c0.6,1.4,4.1,1.7,5.4,0.9   c1.7-0.9,1.2-3.1,3.6-2.7c1.1,0.2,2.3,3.6,2.6,4.6c-2.6,1.2-4.7,0.5-7.5,1c-3.2-0.1-6.8-0.3-8.7-0.9S817.1,522.9,814.8,515.1z"></path>	</g>	<g>		<g>			<g>				<g>					<path class="st21" d="M761.8,977.6c3,6.4-1.5,12.2-1.6,18c-6.4,0.3-11.2,0.2-17.6,0.5c0-1.4,0-2.8,0-4.1      c-12,5.2-25.6,6.2-38.2,2.9c-0.4-3.1,2-5.9,4.8-7.2c2.8-1.3,5.9-1.4,8.9-1.8c4.6-0.6,9.2-1.9,13.1-4.4c3.9-2.6,7-6.5,8-11.1      c5.8,0.6,11.6,1.1,17.4,1.7c1.5,0.1,3.2,0.4,4.2,1.6C761.7,974.7,761.2,976.4,761.8,977.6z"></path>				</g>			</g>		</g>		<g>			<g>				<g>					<path class="st8" d="M755.3,980.5c-4.6,1.3-9.5,1.7-14.2,1.1c-0.7-0.1-1.6-0.3-1.9-1c-0.3-0.5-0.2-1.1-0.1-1.7      c0.4-2,0.8-3.9,1.1-5.9c6.6,1,13.1,2.5,19.5,4.4C759,979.2,757.1,980,755.3,980.5z"></path>				</g>			</g>		</g>	</g>	<g>		<g>			<g>				<path class="st27" d="M827.8,680.5c0.4,20.8-5,40.9-9,59.8c-17.1,81.5-35.4,158.5-54.3,241.1c-6.9-2.4-21.3-4.9-28.2-7.3     c5.4-100.1,17.1-195.3,33.9-293.6H827.8z"></path>			</g>		</g>	</g>	<g>		<g>			<g>				<path class="st47" d="M827.8,680.5c0.4,20.8-5,40.9-9,59.8c-17.1,81.5-35.4,158.5-54.3,241.1c-3.7-1.3-9.4-2.6-15.1-3.9     c15.3-101.7,43.4-199.5,76.4-297.1H827.8z"></path>			</g>		</g>	</g>	<g>		<g>			<g>				<g>					<path class="st21" d="M849.7,1008.2c-2.1-1.5-2.2-4.6-2.1-7.2c0.2-3.7,0.4-7.3,0.6-11c0.1-1.1,0.2-2.4,0.9-3.2      c1-1.1,2.6-1.2,4.1-1.2c7.1,0,14.1,0.1,21.2,0.1c3.7,9.4,7.4,18.9,11.2,28.3c0.7,1.9,1.4,4.2,0.1,5.7c-1,1.2-4.5,2.4-5.9,2.5      c-6.4,0.3-5.8,0.3-12.2,0.2c-2.1,0-9.4-3.1-10.5-4.9c-1.6-2.6,0.4-4.8-1.7-7C853.9,1009,851.4,1009.3,849.7,1008.2z"></path>				</g>			</g>		</g>		<g>			<g>				<g>					<path class="st8" d="M869.8,995.9c-1.9,0.1-3.8,0.3-5.7,0.4c-2.7,0.2-5.4,0.4-8-0.3c-2.6-0.7-5-2.5-5.9-5      c6.3-2.3,13-3.1,19.6-2.5c1.3,0.1,2.6,0.3,3.7,1c1.1,0.7,1.9,1.9,1.8,3.2c-0.1,1.2-1.1,2.1-2.1,2.6      C872.1,995.8,871,995.8,869.8,995.9z"></path>				</g>			</g>		</g>	</g>	<g>		<g>			<g>				<path class="st27" d="M863.2,680.5l0.7,7.2c6.6,61.5,12.1,101.8,12.5,152.4c0.4,50.7-1.8,101.5,3.8,151.8     c-11.7-1.2-23.5-0.7-35.1,1.6c-8.1-95.6-25.3-177.8-40.4-266c-2.2-13.1-1.1-30.1,0.6-47H863.2z"></path>			</g>		</g>	</g>	<g>		<g>			<g>				<path class="st47" d="M850.7,761.3c-13.7-37.3-31.5-3.8-43.2-80.8h55.6l0.7,7.2c6.6,61.5,12.1,101.8,12.5,152.4     c0.4,50.7-1.8,101.5,3.8,151.8c-3-0.3-6-0.5-9.1-0.6C871.7,924.3,874.3,824.2,850.7,761.3z"></path>			</g>		</g>	</g>	<g>		<g>			<g>				<g>					<path class="st8" d="M820.3,700.2c0.1-2-0.1-4.2,0.1-6.3c12.5,0.5,25,1.3,37.5,2.5c1.1,3.5,2.2,7,3.3,10.5      c-13.6-2.2-27.3-3.7-41-4.4C820.2,701.8,820.3,701,820.3,700.2z"></path>				</g>			</g>		</g>		<g>			<g>				<g>					<path class="st8" d="M817.8,693.8c-0.2,2.1,0,4.4-0.1,6.4c0,0.8-0.1,1.5-0.1,2.3c-1.4-0.1-2.7-0.1-4.1-0.2c0-2.9,0-5.8-0.1-8.7      C814.8,693.7,816.3,693.8,817.8,693.8z"></path>				</g>			</g>		</g>		<g>			<g>				<g>					<path class="st8" d="M785.7,702.4c-5.3,0.2-10.6,0.5-16,0.9c0.6-3.2,1.1-6.3,1.7-9.5c4.8-0.2,9.6-0.3,14.5-0.3      C785.8,696.4,785.8,699.4,785.7,702.4z"></path>				</g>			</g>		</g>		<g>			<g>				<g>					<path class="st8" d="M788.3,702.3c0.1-2.9,0.1-5.9,0.2-8.8c1.7,0,3.4,0,5.1,0c-0.7,2.9-0.7,5.8-0.6,8.8      C791.4,702.2,789.8,702.2,788.3,702.3z"></path>				</g>			</g>		</g>		<g>			<g>				<g>					<path class="st48" d="M796.2,693.4c4.9,0,9.7,0.1,14.6,0.2c0,2.9,0.1,5.8,0.1,8.6c-5.2-0.1-10.3-0.2-15.5-0.1      C795.3,699.1,795.4,696.2,796.2,693.4z"></path>				</g>			</g>		</g>	</g>	<g>		<g>			<g>				<path class="st3" d="M827.9,558.2c-0.3,0.8-0.1,1.6,0,2.4c1,4.3,1.9,8.6,2.9,12.8c7.5-5.6,7.7-17.2,14.2-23.9     c-5,2.3-9.9,4.5-14.9,6.8C829.3,556.7,828.3,557.2,827.9,558.2z"></path>			</g>		</g>	</g>	<g>		<g>			<g>				<path class="st17" d="M789.8,546.2c26.4-10.7,50.8-11.7,79.4-8.7c7.1,0.8,14.9,2.3,19.3,7.5c5.2,6.1,4.1,14.8,2.5,22.4     c-9,42.7-26.2,84.6-24.6,128c-32.4-5-65.4-6.4-98.1-4.3c7.7-36,9.2-68.6,2.7-104.8c-1.5-8.4-0.4-20.3,5.1-27.1     C779.2,555.6,785.3,548,789.8,546.2z"></path>			</g>		</g>	</g>	<g>		<g>			<g>				<path class="st3" d="M804.8,557.5c1.5,2.3,1.3,7.2,3.8,8.5c-5.5,31.9-6.1,58.8-0.6,90.6c-6.3,4.9-11.1,7.2-15.3,10.2     c-0.5-8.4-3.5-9.1-3.5-13.2c0-3.8,1.1-9,2.1-17.3C794.5,610.5,797.2,582.5,804.8,557.5z"></path>			</g>		</g>	</g>	<g>		<g>			<g>									<linearGradient id="SVGID_00000089542574884454075580000006801251681819828649_" gradientUnits="userSpaceOnUse" x1="734.6015" y1="635.5149" x2="806.3192" y2="635.5149" gradientTransform="matrix(-1 0 0 1 1626.7371 0)">					<stop offset="0" style="stop-color:#1F77CF"></stop>					<stop offset="1" style="stop-color:#3BBEFD"></stop>				</linearGradient>				<path style="fill:url(#SVGID_00000089542574884454075580000006801251681819828649_);" d="M860.8,532.9c1.2,0.1,2.6,3.8,3.8,4     c2.4,0.2,2.1,0.5,4.6,0.8c7.1,0.8,14.9,2.4,19.3,8.1c5.2,6.5,3.4,15.8,2.5,24.1c-6.3,57.7-33.1,80.2-19.3,168.4     c-10.8-1.8-25.1-4.9-37.9-6.9c-8.1-1.2-13.9-8.4-13.4-16.5c2.4-42.2,3.9-101.6,9.1-139.7C831.8,557.6,846.1,541.7,860.8,532.9z"></path>			</g>		</g>	</g>	<g>		<g>			<g>									<linearGradient id="SVGID_00000083774367688734847270000006882611331302023862_" gradientUnits="userSpaceOnUse" x1="734.8687" y1="612.1442" x2="803.7211" y2="612.1442" gradientTransform="matrix(-1 0 0 1 1626.7371 0)">					<stop offset="0" style="stop-color:#1F77CF"></stop>					<stop offset="1" style="stop-color:#3BBEFD"></stop>				</linearGradient>				<path style="fill:url(#SVGID_00000083774367688734847270000006882611331302023862_);" d="M891.9,562.8c-0.2,2.3-0.5,4.6-0.8,6.9     c-1.3,12.2-3.6,22.9-6.2,32.9c-11.6,26.8-34.8,47-61.9,58.8c0.8-17,1.7-34.2,2.9-50.2C854.3,602.1,880.1,588.6,891.9,562.8z"></path>			</g>		</g>	</g>	<g>		<g>			<g>									<linearGradient id="SVGID_00000170976055061755914270000005954994041853836934_" gradientUnits="userSpaceOnUse" x1="835.955" y1="634.9402" x2="872.9681" y2="634.9402" gradientTransform="matrix(-1 0 0 1 1626.7371 0)">					<stop offset="0" style="stop-color:#1F77CF"></stop>					<stop offset="1" style="stop-color:#3BBEFD"></stop>				</linearGradient>				<path style="fill:url(#SVGID_00000170976055061755914270000005954994041853836934_);" d="M786.2,548.4     c-14.1,12-13.4,21.6-20.7,38.7c-4.8,11.1-10,27.1-11.4,39.1c-1.2,10.2,1.2,22.9,3.1,33c4,21.9,4,41,10.1,62.4     c6-7.3,12.4-12.1,13.2-21.5c0.3-3.8-0.3-7.6-0.9-11.3c-2.3-13-5.4-26.1-4.4-39.3c0.9-13.1,5.7-25.5,8.8-38.2     c4.6-18.4,5.7-37.5,6.8-56.4L786.2,548.4z"></path>			</g>		</g>	</g>	<g>		<g>			<g>				<path class="st52" d="M818.9,519.6c-1.9-0.9-4.1-1.2-6.2-1.5c-2.9-0.4-5.8-0.7-8.6-0.1c-3.1,0.7-5.1,2.7-7.8,3.6     c-1.1,0.4-1.7,1.6-1.4,2.7c0.4,1.3,0.8,2.4,1.3,3.9c0.3,0.8-0.1,2.4,0.8,2.6c0.9,0.3,1.8-0.5,2.2-1.3c0.3-0.9,0.2-1.8,0.1-2.8     c2,2,4.4,3.7,7.1,4.8c0.6,2.9,0.6,5.9,0.1,8.8c4.6-0.4,9.3-1.1,13.8-2c1.1-0.2,2.4-0.5,3-1.5c0.3-0.6,0.3-1.3,0.3-1.9     c0-3.5-0.9-6.4-0.9-9.9C821.7,522.9,821,520.6,818.9,519.6z"></path>			</g>		</g>	</g>	<g>		<g>			<g>				<path class="st25" d="M823,529.7c0.2,1.7,0.5,3.4,0.5,5.2c0,0.7,0,1.3-0.3,1.9c-0.6,1-1.8,1.3-3,1.5c-4.6,0.9-9.2,1.5-13.8,2     c0.3-2,0.4-4,0.2-6.1C812.1,533.4,817.6,531.9,823,529.7z"></path>			</g>		</g>	</g>	<g>		<g>			<g>									<linearGradient id="SVGID_00000090978530795681448310000012506505159560616610_" gradientUnits="userSpaceOnUse" x1="822.2339" y1="634.7161" x2="864.4042" y2="634.7161" gradientTransform="matrix(-1 0 0 1 1626.7371 0)">					<stop offset="0" style="stop-color:#1F77CF"></stop>					<stop offset="1" style="stop-color:#3BBEFD"></stop>				</linearGradient>				<path style="fill:url(#SVGID_00000090978530795681448310000012506505159560616610_);" d="M769,727.8c-2.3,0.4-4.5,0.7-6.6,0.8     c7.7-38.6,15.2-99.9,8.7-138.7c-1.5-9-1.8-22.2,3.7-29.5c3-4,9.6-12.5,14.2-14.5c4.6-2,11-3.9,15.5-5.3     c-3.9,6-8.6,13.7-9.5,20.2c-7.6,41.8-7.5,107.4-12.7,152.9C781.5,721,776,726.7,769,727.8z"></path>			</g>		</g>	</g>	<g>		<g>			<g>									<linearGradient id="SVGID_00000096030803775409598540000003595977819477816723_" gradientUnits="userSpaceOnUse" x1="870.42" y1="583.3166" x2="704.4319" y2="593.9825" gradientTransform="matrix(-1 0 0 1 1626.7371 0)">					<stop offset="0" style="stop-color:#1F77CF"></stop>					<stop offset="1" style="stop-color:#3BBEFD"></stop>				</linearGradient>				<path style="fill:url(#SVGID_00000096030803775409598540000003595977819477816723_);" d="M803.1,537.9c0.8,25.6,2.9,55,3.7,80.7     c0.2,4.6,0.3,9.2,1.9,13.5c1.6,4.3,4.9,8.2,9.4,9.3c3.2,0.8,6.5,0,9.3-1.8c4.2-1.1,8.2-3.1,12-5.2c13-7.3,25.7-15.5,36.3-26     c10.6-10.5,19-23.7,22-38.3c1.3-6.4,1.5-13.3-1.3-19.1c-2.8-5.8-9.5-10.2-15.8-8.8c-3.2,0.7-6,2.7-8.6,4.7     c-11.1,8.3-22.2,28.4-33.3,36.7c-0.8,0.6-1.7,1.2-2.5,1.7c-2.5-17.3-6.9-34.6-8.6-51.6C821.9,535.4,808.8,536.1,803.1,537.9z"></path>			</g>		</g>	</g></g><g>	<g>		<circle class="st55" cx="378" cy="373.7" r="35.8"></circle>	</g>	<g>		<path class="st8" d="M365.1,346.8c14.8-7.1,32.6-0.8,39.7,14c7.1,14.8,0.8,32.6-14,39.7c-14.8,7.1-32.6,0.8-39.7-14   S350.3,353.9,365.1,346.8z M388.6,395.9c12.3-5.9,17.5-20.7,11.6-32.9c-5.9-12.3-20.7-17.5-32.9-11.6   c-12.3,5.9-17.5,20.7-11.6,32.9C361.6,396.6,376.4,401.8,388.6,395.9z"></path>	</g>	<g>		<path class="st8" d="M373.8,364.4c5.5-2.6,12-0.3,14.6,5.2c2.6,5.5,0.3,12-5.2,14.6c-5.5,2.6-12,0.3-14.6-5.2   C366,373.6,368.3,367,373.8,364.4z M381,379.6c2.9-1.4,4.2-4.9,2.8-7.8c-1.4-2.9-4.9-4.2-7.8-2.8c-2.9,1.4-4.2,4.9-2.8,7.8   C374.6,379.8,378.1,381,381,379.6z"></path>	</g>	<g>		<polygon class="st56" points="378.5,374.3 391,368.3 387,365.5 409.9,337.9 408.2,336.7 385,364.2 381.2,361.4   "></polygon>	</g>	<g>		<path class="st57" d="M409.9,337.9l0.5,0.2c2.3,0.8,4.8,0.3,6.5-1.3l10.1-9l-7.9,0.3l-0.7-8.2l-9.1,9.2c-2.1,2.1-2.5,5.3-1.1,7.8   l0,0L409.9,337.9z"></path>	</g></g></svg>