<svg xmlns="http://www.w3.org/2000/svg" xmlns:xlink="http://www.w3.org/1999/xlink" width="33px" height="17px" viewBox="0 0 33 17"><title>Brand_icon</title><desc>Created with Sketch.</desc><g id="Welcome" stroke="none" strokeWidth="1" fill="none" fillRule="evenodd"><g id="40_HOURS" transform="translate(-1010.000000, -6071.000000)" fill="#E76B6B" fillRule="nonzero"><path d="M1043,6077.65217 L1039.35714,6082.46153 L1041.67857,6087.52592 C1039.42857,6088.14531 1037.25,6088.14531 1033.78571,6087.59879 C1033.10714,6087.48949 1032.57143,6087.34375 1032,6087.19801 C1033.38462,6086.18906 1034.86052,6084.77652 1035.16366,6084.47921 L1035.21429,6084.42899 C1035.27551,6084.3353 1035.33673,6084.10777 1035.35298,6084.02173 L1035.35714,6083.99178 L1036.64286,6077.76148 C1039.17857,6078.12582 1042.46429,6077.76148 1043,6077.65217 Z M1010,6077.65217 C1010.48491,6077.79323 1013.44746,6078.10474 1015.91002,6077.82877 L1016.16287,6077.7981 L1017.52443,6083.89037 C1017.52443,6084.03629 1017.77524,6084.36462 1017.77524,6084.43758 C1017.88274,6084.51054 1019.49511,6086.11569 1021,6087.21011 C1020.46254,6087.35604 1019.88925,6087.50196 1019.20847,6087.6114 C1015.91828,6088.13482 1013.74271,6088.1242 1011.58424,6087.61147 L1011.2899,6087.53844 L1013.65472,6082.46762 L1010,6077.65217 Z M1031.17265,6083.56522 C1032.15043,6083.68841 1032.97778,6083.81159 1033.46667,6083.89372 C1032.76467,6084.62373 1031.76554,6085.5484 1030.86545,6086.26398 L1030.53333,6086.52174 L1031.17265,6083.56522 Z M1021.08943,6083.56522 L1021.73333,6086.52174 C1020.73171,6085.77275 1019.55122,6084.66899 1018.8,6083.88058 C1019.30081,6083.80174 1020.12358,6083.68348 1021.08943,6083.56522 Z M1015.13333,6072.89356 C1021.20952,6070.26323 1030.69431,6070.48869 1036.4,6072.85599 C1035.659,6076.42573 1034.918,6079.9579 1034.177,6083.49006 C1034.13995,6083.49006 1034.1029,6083.52764 1034.06585,6083.56522 C1033.2137,6083.33976 1032.17631,6083.26461 1031.32416,6083.15188 C1027.28571,6082.70096 1021.83937,6082.28763 1017.61568,6083.52764 L1017.61568,6083.52764 L1017.54158,6083.52764 C1016.72648,6079.99547 1015.94843,6076.42573 1015.13333,6072.89356 Z M1025.98897,6072.25477 L1024.46992,6075.07299 L1021.35772,6075.67421 L1023.54367,6078.00393 L1023.13612,6081.19791 L1025.98897,6079.80759 L1028.84181,6081.19791 L1028.43426,6078.00393 L1030.62021,6075.67421 L1027.50801,6075.07299 L1025.98897,6072.25477 Z" id="Brand_icon"></path></g></g></svg>