<svg xmlns="http://www.w3.org/2000/svg" xmlns:xlink="http://www.w3.org/1999/xlink" width="28px" height="30px" viewBox="0 0 28 30"><title>Calender_icon</title><desc>Created with Sketch.</desc><g id="Welcome" stroke="none" stroke-width="1" fill="none" fill-rule="evenodd"><g id="40_HOURS" transform="translate(-1013.000000, -5964.000000)" fill="#E76B6B" fill-rule="nonzero"><path d="M1027,5981.91667 C1030.28,5981.91667 1032.94667,5984.58333 1032.94667,5987.86333 C1032.94667,5991.14333 1030.28,5993.81 1027,5993.81 C1023.72,5993.81 1021.05333,5991.14333 1021.05333,5987.86333 C1021.05333,5984.58333 1023.72,5981.91667 1027,5981.91667 Z M1040.16033,5992.476 C1040.52867,5992.476 1040.82733,5992.77467 1040.82733,5993.14267 C1040.82733,5993.47721 1040.5805,5993.75446 1040.25914,5993.8021 L1040.16067,5993.80933 L1032.46,5993.80933 C1032.092,5993.80933 1031.79333,5993.51067 1031.79333,5993.14267 C1031.79333,5992.80812 1032.04017,5992.53088 1032.36153,5992.48323 L1032.46,5992.476 L1040.16033,5992.476 Z M1013.83967,5992.476 L1021.54,5992.476 C1021.90833,5992.476 1022.20667,5992.77467 1022.20667,5993.14267 C1022.20667,5993.47721 1021.95983,5993.75446 1021.63847,5993.8021 L1021.54,5993.80933 L1013.83967,5993.80933 C1013.47167,5993.80933 1013.173,5993.51067 1013.173,5993.14267 C1013.173,5992.80812 1013.41983,5992.53088 1013.74119,5992.48323 L1013.83967,5992.476 L1021.54,5992.476 Z M1035.49,5964.19 C1035.85667,5964.19 1036.15667,5964.49 1036.15667,5964.85667 L1036.15667,5966.15667 L1036.37667,5966.15667 C1038.83,5966.15667 1040.82667,5968.15333 1040.82667,5970.60667 L1040.82667,5990.53333 C1040.82667,5990.9 1040.53,5991.2 1040.16,5991.2 L1034.1,5991.2 C1033.73333,5991.2 1033.43333,5990.9 1033.43333,5990.53333 C1033.43333,5990.16333 1033.73333,5989.86667 1034.1,5989.86667 L1039.49333,5989.86667 L1039.49333,5972.46667 L1014.50667,5972.46667 L1014.50667,5989.86667 L1019.9,5989.86667 C1020.26667,5989.86667 1020.56667,5990.16333 1020.56667,5990.53333 C1020.56667,5990.9 1020.26667,5991.2 1019.9,5991.2 L1013.84,5991.2 C1013.47,5991.2 1013.17333,5990.9 1013.17333,5990.53333 L1013.17333,5970.60667 C1013.17333,5968.15333 1015.17,5966.15667 1017.62333,5966.15667 L1017.84333,5966.15667 L1017.84333,5964.85667 C1017.84333,5964.49 1018.14333,5964.19 1018.51,5964.19 C1018.87667,5964.19 1019.17667,5964.49 1019.17667,5964.85667 L1019.17667,5966.15667 L1021.24,5966.15667 L1021.24,5964.85667 C1021.24,5964.49 1021.53667,5964.19 1021.90667,5964.19 C1022.27333,5964.19 1022.57333,5964.49 1022.57333,5964.85667 L1022.57333,5966.15667 L1024.63667,5966.15667 L1024.63667,5964.85667 C1024.63667,5964.49 1024.93333,5964.19 1025.30333,5964.19 C1025.67,5964.19 1025.97,5964.49 1025.97,5964.85667 L1025.97,5966.15667 L1028.03,5966.15667 L1028.03,5964.85667 C1028.03,5964.49 1028.33,5964.19 1028.69667,5964.19 C1029.06667,5964.19 1029.36333,5964.49 1029.36333,5964.85667 L1029.36333,5966.15667 L1031.42667,5966.15667 L1031.42667,5964.85667 C1031.42667,5964.49 1031.72667,5964.19 1032.09333,5964.19 C1032.46333,5964.19 1032.76,5964.49 1032.76,5964.85667 L1032.76,5966.15667 L1034.82333,5966.15667 L1034.82333,5964.85667 C1034.82333,5964.49 1035.12333,5964.19 1035.49,5964.19 Z M1029.12667,5985.73667 C1028.86667,5985.47667 1028.44667,5985.47667 1028.18667,5985.73667 L1028.18667,5985.73667 L1027,5986.92 L1025.81333,5985.73667 C1025.55333,5985.47667 1025.13333,5985.47667 1024.87,5985.73667 C1024.61,5985.99667 1024.61,5986.41667 1024.87,5986.67667 L1024.87,5986.67667 L1026.05667,5987.86333 L1024.87,5989.05 C1024.61,5989.31 1024.61,5989.73 1024.87,5989.99 C1025.00333,5990.12333 1025.17333,5990.18667 1025.34333,5990.18667 C1025.51333,5990.18667 1025.68333,5990.12333 1025.81333,5989.99 L1025.81333,5989.99 L1027,5988.80667 L1028.18667,5989.99 C1028.31667,5990.12 1028.48667,5990.18667 1028.65667,5990.18667 C1028.82667,5990.18667 1028.99667,5990.12 1029.13,5989.99 C1029.39,5989.73 1029.39,5989.31 1029.13,5989.05 L1029.13,5989.05 L1027.94333,5987.86333 L1029.13,5986.67667 C1029.39,5986.41667 1029.39,5985.99667 1029.12667,5985.73667 Z M1019.899,5981.8 C1020.267,5981.8 1020.56567,5982.09867 1020.56567,5982.46667 C1020.56567,5982.80121 1020.31883,5983.07846 1019.99747,5983.1261 L1019.899,5983.13333 L1017.507,5983.13333 C1017.139,5983.13333 1016.84033,5982.83467 1016.84033,5982.46667 C1016.84033,5982.13212 1017.08717,5981.85488 1017.40853,5981.80723 L1017.507,5981.8 L1019.899,5981.8 Z M1036.493,5981.8 C1036.861,5981.8 1037.15967,5982.09867 1037.15967,5982.46667 C1037.15967,5982.80121 1036.91283,5983.07846 1036.59147,5983.1261 L1036.493,5983.13333 L1034.101,5983.13333 C1033.73267,5983.13333 1033.43433,5982.83467 1033.43433,5982.46667 C1033.43433,5982.13212 1033.68117,5981.85488 1034.00253,5981.80723 L1034.101,5981.8 L1036.493,5981.8 Z M1019.899,5978.17133 C1020.267,5978.17133 1020.56567,5978.47 1020.56567,5978.838 C1020.56567,5979.17255 1020.31883,5979.44979 1019.99747,5979.49743 L1019.899,5979.50467 L1017.507,5979.50467 C1017.139,5979.50467 1016.84033,5979.206 1016.84033,5978.838 C1016.84033,5978.50345 1017.08717,5978.22621 1017.40853,5978.17857 L1017.507,5978.17133 L1019.899,5978.17133 Z M1025.43033,5978.17133 C1025.79833,5978.17133 1026.097,5978.47 1026.097,5978.838 C1026.097,5979.17255 1025.85017,5979.44979 1025.52881,5979.49743 L1025.43033,5979.50467 L1023.03833,5979.50467 C1022.67033,5979.50467 1022.37167,5979.206 1022.37167,5978.838 C1022.37167,5978.50345 1022.6185,5978.22621 1022.93986,5978.17857 L1023.03833,5978.17133 L1025.43033,5978.17133 Z M1030.96167,5978.17133 C1031.32967,5978.17133 1031.62833,5978.47 1031.62833,5978.838 C1031.62833,5979.17255 1031.3815,5979.44979 1031.06014,5979.49743 L1030.96167,5979.50467 L1028.56967,5979.50467 C1028.20133,5979.50467 1027.903,5979.206 1027.903,5978.838 C1027.903,5978.50345 1028.14983,5978.22621 1028.47119,5978.17857 L1028.56967,5978.17133 L1030.96167,5978.17133 Z M1036.493,5978.17133 C1036.861,5978.17133 1037.15967,5978.47 1037.15967,5978.838 C1037.15967,5979.17255 1036.91283,5979.44979 1036.59147,5979.49743 L1036.493,5979.50467 L1034.101,5979.50467 C1033.73267,5979.50467 1033.43433,5979.206 1033.43433,5978.838 C1033.43433,5978.50345 1033.68117,5978.22621 1034.00253,5978.17857 L1034.101,5978.17133 L1036.493,5978.17133 Z M1019.899,5974.542 C1020.267,5974.542 1020.56567,5974.84067 1020.56567,5975.20867 C1020.56567,5975.54321 1020.31883,5975.82046 1019.99747,5975.8681 L1019.899,5975.87533 L1017.507,5975.87533 C1017.139,5975.87533 1016.84033,5975.57667 1016.84033,5975.20867 C1016.84033,5974.87412 1017.08717,5974.59688 1017.40853,5974.54923 L1017.507,5974.542 L1019.899,5974.542 Z M1025.43033,5974.542 C1025.79833,5974.542 1026.097,5974.84067 1026.097,5975.20867 C1026.097,5975.54321 1025.85017,5975.82046 1025.52881,5975.8681 L1025.43033,5975.87533 L1023.03833,5975.87533 C1022.67033,5975.87533 1022.37167,5975.57667 1022.37167,5975.20867 C1022.37167,5974.87412 1022.6185,5974.59688 1022.93986,5974.54923 L1023.03833,5974.542 L1025.43033,5974.542 Z M1030.96167,5974.542 C1031.32967,5974.542 1031.62833,5974.84067 1031.62833,5975.20867 C1031.62833,5975.54321 1031.3815,5975.82046 1031.06014,5975.8681 L1030.96167,5975.87533 L1028.56967,5975.87533 C1028.20133,5975.87533 1027.903,5975.57667 1027.903,5975.20867 C1027.903,5974.87412 1028.14983,5974.59688 1028.47119,5974.54923 L1028.56967,5974.542 L1030.96167,5974.542 Z M1036.493,5974.542 C1036.861,5974.542 1037.15967,5974.84067 1037.15967,5975.20867 C1037.15967,5975.54321 1036.91283,5975.82046 1036.59147,5975.8681 L1036.493,5975.87533 L1034.101,5975.87533 C1033.73267,5975.87533 1033.43433,5975.57667 1033.43433,5975.20867 C1033.43433,5974.87412 1033.68117,5974.59688 1034.00253,5974.54923 L1034.101,5974.542 L1036.493,5974.542 Z" id="Calender_icon"></path></g></g></svg>