<svg xmlns="http://www.w3.org/2000/svg" xmlns:xlink="http://www.w3.org/1999/xlink" width="28px" height="21px" viewBox="0 0 28 21"><title>Car_laptop_icon</title><desc>Created with Sketch.</desc><g id="Welcome" stroke="none" stroke-width="1" fill="none" fill-rule="evenodd"><g id="40_HOURS" transform="translate(-1013.000000, -6170.000000)" fill="#E76B6B" fill-rule="nonzero"><path d="M1013,6188.57692 L1023.64,6188.57692 C1023.73224,6189.22797 1024.19751,6189.71911 1024.768,6189.78171 L1024.89176,6189.78846 L1029.10824,6189.78846 C1029.69239,6189.78846 1030.19046,6189.34072 1030.33462,6188.71389 L1030.36,6188.57692 L1041,6188.57692 C1041,6189.84353 1040.0924,6190.90783 1038.97303,6190.99433 L1038.82588,6191 L1015.17412,6191 C1014.03765,6191 1013.0827,6189.98847 1013.00509,6188.74092 L1013,6188.57692 L1023.64,6188.57692 Z M1013.98824,6170 L1040.01176,6170 C1040.53176,6170 1040.93815,6170.36214 1040.99355,6170.85362 L1041,6170.96923 L1041,6186.8 C1041,6187.31 1040.63076,6187.70857 1040.12964,6187.76291 L1040.01176,6187.76923 L1013.98824,6187.76923 C1013.46824,6187.76923 1013.06185,6187.40709 1013.00645,6186.91561 L1013,6186.8 L1013,6170.96923 C1013,6170.45923 1013.36924,6170.06066 1013.87036,6170.00632 L1013.98824,6170 L1040.01176,6170 Z M1027,6185.34615 C1026.47294,6185.34615 1026.07765,6185.73385 1026.07765,6186.25077 C1026.07765,6186.76769 1026.50588,6187.15538 1027,6187.15538 C1027.49412,6187.15538 1027.92235,6186.76769 1027.92235,6186.25077 C1027.92235,6185.73385 1027.49412,6185.34615 1027,6185.34615 Z M1038.36471,6171.61538 L1015.63529,6171.61538 C1015.11529,6171.61538 1014.70891,6171.97753 1014.65351,6172.46901 L1014.64706,6172.58462 L1014.64706,6183.95692 C1014.64706,6184.46692 1015.0163,6184.86549 1015.51742,6184.91983 L1015.63529,6184.92615 L1038.36471,6184.92615 C1038.88471,6184.92615 1039.29109,6184.56401 1039.34649,6184.07253 L1039.35294,6183.95692 L1039.35294,6172.58462 C1039.35294,6172.03538 1038.92471,6171.61538 1038.36471,6171.61538 Z M1024.07857,6174.16143 C1025.00916,6174.00033 1026.13916,6174.03255 1027.06975,6174.06477 C1027.66798,6174.06477 1028.46563,6174.06477 1028.99739,6174.38697 C1029.86151,6174.90249 1030.65915,6175.90131 1031.39033,6176.57793 C1031.75592,6176.86791 1032.0218,6177.22233 1032.42062,6177.38343 C1033.18503,6177.70563 1034.11562,6177.70563 1034.91327,6178.02783 C1035.94356,6178.44669 1036.17621,6179.09109 1036.01003,6180.12213 C1035.91033,6180.70209 1035.47827,6181.50759 1034.8468,6181.73313 C1034.74709,6181.76535 1034.64739,6181.76535 1034.51444,6181.79757 C1034.48121,6182.86083 1033.55062,6183.73077 1032.42062,6183.73077 C1031.25739,6183.73077 1030.3268,6182.82861 1030.3268,6181.70091 L1030.3268,6181.70091 L1024.37769,6181.70091 C1024.17828,6182.63529 1023.3474,6183.34413 1022.31711,6183.34413 C1021.28681,6183.34413 1020.4227,6182.63529 1020.25652,6181.70091 L1020.25652,6181.70091 L1019.69152,6181.70091 C1019.06005,6181.41093 1018.86064,6180.57321 1018.79417,6179.96103 C1018.66123,6178.80111 1018.96034,6177.73785 1020.05711,6177.15789 C1020.28976,6177.06123 1020.62211,6177.02901 1020.85475,6176.90013 C1021.28681,6176.67459 1021.55269,6176.06241 1021.88505,6175.70799 C1022.48328,6174.99915 1023.11475,6174.32253 1024.07857,6174.16143 Z M1032.42062,6180.83097 C1031.92209,6180.83097 1031.49004,6181.24983 1031.49004,6181.73313 C1031.49004,6182.21643 1031.92209,6182.63529 1032.42062,6182.63529 C1032.91915,6182.63529 1033.31798,6182.24865 1033.35121,6181.73313 C1033.35121,6181.24983 1032.91915,6180.83097 1032.42062,6180.83097 Z M1022.31711,6180.44433 C1021.81858,6180.44433 1021.38652,6180.86319 1021.38652,6181.34649 C1021.38652,6181.82979 1021.81858,6182.24865 1022.31711,6182.24865 C1022.81563,6182.24865 1023.21446,6181.86201 1023.24769,6181.34649 C1023.24769,6180.86319 1022.81563,6180.44433 1022.31711,6180.44433 Z M1025.34151,6174.83805 L1024.07857,6174.83805 C1023.21446,6174.83805 1022.01799,6176.80347 1022.01799,6176.80347 L1022.01799,6176.80347 L1025.34151,6176.80347 L1025.34151,6176.80347 L1025.34151,6174.83805 L1025.34151,6174.83805 Z M1026.43828,6174.83805 L1026.43828,6176.80347 L1030.29357,6176.80347 L1029.0971,6175.28913 C1029.0971,6175.28913 1028.93092,6174.83805 1026.43828,6174.83805 L1026.43828,6174.83805 Z" id="Car_laptop_icon"></path></g></g></svg>