<svg xmlns="http://www.w3.org/2000/svg" xmlns:xlink="http://www.w3.org/1999/xlink" width="28px" height="26px" viewBox="0 0 28 26"><title>Dislike_icon</title><desc>Created with Sketch.</desc><g id="Welcome" stroke="none" stroke-width="1" fill="none" fill-rule="evenodd"><g id="40_HOURS" transform="translate(-1013.000000, -6021.000000)" fill="#E76B6B" fill-rule="nonzero"><path d="M1016.29532,6037.14376 L1014.1266,6037.14376 C1013.5044,6037.14376 1013,6036.65588 1013,6036.05407 L1013,6022.24225 C1013,6021.64043 1013.5044,6021.15256 1014.1266,6021.15256 L1016.29532,6021.15256 C1016.91752,6021.15256 1017.42192,6021.64043 1017.42192,6022.24225 L1017.42192,6036.05407 C1017.42192,6036.65588 1016.91752,6037.14376 1016.29532,6037.14376 Z M1039.62166,6032.18022 C1039.46099,6032.02418 1039.35298,6031.82473 1039.31184,6031.60813 L1037.667,6022.89061 C1037.46274,6021.79667 1036.47859,6021.00074 1035.3293,6021 L1024.36744,6021 C1021.59599,6021 1020.90876,6021.47946 1019.64696,6022.72716 L1019.64696,6035.95054 C1021.17915,6036.28835 1024.18155,6037.15465 1026.19254,6039.09975 C1028.97525,6041.79128 1029.00905,6045.13118 1029.00905,6046.45516 C1029.23537,6046.78813 1029.61672,6046.99192 1030.02862,6047 C1030.72148,6046.97276 1031.38055,6046.01383 1031.78613,6044.43923 C1032.34943,6042.25985 1031.78613,6038.87091 1031.78613,6038.83822 C1031.73098,6038.51959 1031.82486,6038.19372 1032.04241,6037.94858 C1032.25996,6037.70344 1032.57875,6037.5643 1032.91273,6037.56873 L1038.54575,6037.56873 C1039.56071,6037.45328 1040.42714,6036.80589 1040.79896,6035.88516 C1041.29466,6034.73009 1040.86656,6033.41157 1039.59349,6032.18022 L1039.62166,6032.18022 Z" id="Dislike_icon"></path></g></g></svg>