<svg xmlns="http://www.w3.org/2000/svg" xmlns:xlink="http://www.w3.org/1999/xlink" width="470px" height="358px" viewBox="0 0 470 358"><title>Full_time_CMO</title><desc>Created with Sketch.</desc><defs><linearGradient x1="50%" y1="0%" x2="50%" y2="100%" id="linearGradient-1"><stop stop-color="#EDF3FC" offset="0%"></stop><stop stop-color="#F4F8FB" offset="100%"></stop></linearGradient></defs><g id="Welcome" stroke="none" strokeWidth="1" fill="none" fillRule="evenodd"><g id="40_HOURS" transform="translate(-1010.000000, -5513.000000)"><g id="Full_time_CMO" transform="translate(1010.000000, 5513.000000)"><g id="4590"><path d="M218.532942,356.466474 C211.154469,353.488168 203.97147,349.897674 196.82153,346.19503 C198.731008,346.358618 154.014227,344.909664 124.987235,330.572644 C119.041768,329.511011 113.114986,328.630674 107.283067,327.865017 C88.8494592,325.443247 69.2257521,301.021103 56.2769513,283.648779 C41.8247156,264.26281 33.4178407,234.302676 28.3642295,209.277153 C25.4299441,194.747374 23.876203,151.282232 23.7970459,136.330835 C23.5319653,83.298953 41.3374647,29.9761551 83.6729573,8.27297695 C95.251275,2.33744696 107.166644,0 119.189093,0 C147.055821,0 175.506818,12.5557667 201.72566,21.9637377 C212.621252,25.8746609 223.67423,29.1101529 234.921246,30.8489032 C248.935148,33.1689418 259.373503,34.3289611 266.236311,34.3289611 C273.099118,34.3289611 285.488576,30.7721512 303.404685,23.6585312 C310.649016,20.2758732 317.841577,16.3435775 325.143154,14.2616307 L336.51881,11.3347626 C338.165258,10.9645825 339.814581,10.6188563 341.468216,10.3026432 C350.590875,8.55799033 360.145449,7.54104912 369.727331,7.54104912 C403.937664,7.54104912 438.585659,20.4863903 455.952776,59.4750393 C462.571627,74.3345235 465.996757,91.0423785 467.62452,107.814319 C471.632482,149.121864 464.80522,191.836768 448.382421,228.188622 C437.946052,251.290726 423.665576,271.753506 406.757682,288.178034 C391.878563,302.631079 375.219325,317.147367 356.611802,322.248094 C333.266159,328.648247 308.700951,332.837437 284.264384,332.837437 C261.906179,332.837437 239.656491,364.993264 218.532942,356.466474 Z" id="Fill-4" fill="url(#linearGradient-1)"></path><path d="M323.617711,355.715495 C320.236668,355.715495 316.858613,355.71262 313.482948,355.707445 C266.216467,355.636149 218.229318,355.170422 170.555295,354.321189 C141.292959,353.800265 107.244695,354.890411 78.9014191,349.968656 C73.9033554,349.101025 67.8655223,346.174421 73.2549935,343.587625 C77.1541286,341.715518 90.6711302,342.205394 95.7265606,341.88341 C106.084217,341.223343 116.473545,340.700119 126.874824,340.258541 C146.352572,339.432307 167.643941,338.632522 190.52305,338.357686 C190.590575,338.456581 190.649735,338.549151 190.698138,338.633097 C190.767456,338.752116 190.974214,338.806163 191.289133,338.806163 C191.86997,338.806163 192.817714,338.621597 193.93696,338.320887 C198.086476,338.281214 202.286188,338.258791 206.536096,338.257641 C207.33146,338.257641 208.135189,338.257066 208.932346,338.257066 C277.983788,338.257066 352.985817,339.154021 418.99444,342.016228 C438.884511,342.878685 458.304295,344.200544 466.471265,345.922583 C472.139801,347.117374 470.322594,348.366211 465.837842,349.462107 C464.75445,349.727168 463.517483,349.986481 462.134112,350.238893 C452.845506,351.936208 436.963925,353.342588 416.730252,354.241843 C389.832495,355.437209 356.733768,355.715495 323.617711,355.715495" id="Fill-5" fill="#E2ECF7"></path><polygon id="Fill-159" fill="#222C74" points="212.957482 345.913194 226.044255 345.913194 226.044255 244.873257 212.957482 244.873257"></polygon><polygon id="Fill-160" fill="#222C74" points="243.889854 345.913194 256.976627 345.913194 256.976627 244.873257 243.889854 244.873257"></polygon><polygon id="Fill-161" fill="#222C74" points="316.461957 347.101899 329.54873 347.101899 329.54873 246.061963 316.461957 246.061963"></polygon><polygon id="Fill-162" fill="#222C74" points="347.394329 347.101899 360.481101 347.101899 360.481101 246.061963 347.394329 246.061963"></polygon><polygon id="Fill-163" fill="#2B4690" points="189.16335 257.949014 384.275233 257.949014 384.275233 240.118437 189.16335 240.118437"></polygon><polyline id="Fill-164" fill="#799EDB" points="365.239928 240.118437 350.963045 240.118437 343.825209 224.66527 358.102092 224.66527 365.239928 240.118437"></polyline><polyline id="Fill-165" fill="#8FBFED" points="364.050221 240.118437 349.773944 240.118437 342.635502 224.66527 356.912385 224.66527 364.050221 240.118437"></polyline><path d="M366.555599,238.929732 L338.940418,238.929732 C338.353315,238.929732 337.876676,239.461682 337.876676,240.118437 C337.876676,240.774509 338.353315,241.307142 338.940418,241.307142 L366.555599,241.307142 C367.143312,241.307142 367.619341,240.774509 367.619341,240.118437 C367.619341,239.461682 367.143312,238.929732 366.555599,238.929732" id="Fill-166" fill="#7DB1FF"></path><path d="M325.326853,229.420091 C322.720037,229.420091 320.899575,227.318267 321.268215,224.734875 L327.392678,181.802874 C327.761318,179.218888 330.182019,177.117065 332.788835,177.117065 L388.496666,177.117065 C391.102884,177.117065 392.923945,179.218888 392.555902,181.802281 L386.430842,224.734875 C386.062799,227.318267 383.6415,229.420091 381.035283,229.420091 L325.326853,229.420091" id="Fill-167" fill="#799EDB"></path><path d="M321.758312,229.420091 C319.1515,229.420091 317.330443,227.318267 317.699083,224.734875 L323.823534,181.802874 C324.192174,179.218888 326.613469,177.117065 329.22028,177.117065 L384.927411,177.117065 C387.534223,177.117065 389.355281,179.218888 388.986641,181.802281 L382.86219,224.734875 C382.49355,227.318267 380.072853,229.420091 377.46664,229.420091 L321.758312,229.420091" id="Fill-168" fill="#7DB1FF"></path><path d="M322.39815,227.04268 C320.893065,227.04268 319.845401,225.802438 320.058627,224.272726 L325.734115,183.453741 C325.946745,181.923422 327.339261,180.68318 328.844347,180.68318 L384.287715,180.68318 C385.792205,180.68318 386.839868,181.923422 386.627238,183.453741 L380.95175,224.272726 C380.73912,225.802438 379.346604,227.04268 377.841518,227.04268 L322.39815,227.04268" id="Fill-169" fill="#F7F6F0"></path><path d="M327.768938,192.570232 L323.600197,222.28786 L379.331138,222.28786 L383.085527,195.526258 C383.085527,195.526258 373.618485,213.39436 363.874007,212.771561 C357.921751,212.390861 358.727636,201.413496 353.996217,200.752566 C347.530524,199.848327 339.488493,218.098945 334.229225,218.098945 C328.282374,218.098945 327.768938,192.570232 327.768938,192.570232" id="Fill-170" fill="#7DB1FF"></path><path d="M326.62205,208.023398 C326.445993,208.023398 326.271145,207.951196 326.144698,207.808627 C325.90693,207.541845 325.92871,207.131271 326.192494,206.891412 L342.179249,192.355488 C342.328081,192.220261 342.530154,192.163356 342.726782,192.200069 C342.92341,192.237394 343.091602,192.365278 343.181749,192.545172 L349.140481,204.452441 L369.863246,187.111027 C370.019338,186.980696 370.226251,186.932357 370.422879,186.980084 C370.618902,187.027811 370.781649,187.166097 370.862116,187.353945 L374.127349,194.992709 L384.364704,184.443823 C384.613363,184.187444 385.019929,184.184384 385.272822,184.435257 C385.525716,184.686741 385.529346,185.097928 385.281292,185.353695 L374.374797,196.591563 C374.22536,196.745758 374.009372,196.814289 373.799434,196.775129 C373.588891,196.735356 373.412228,196.592787 373.327527,196.394536 L370.022968,188.663378 L349.339529,205.971138 C349.188882,206.097186 348.990439,206.146749 348.799256,206.106365 C348.608073,206.066592 348.445326,205.940544 348.3576,205.764321 L342.414597,193.888258 L327.051002,207.857578 C326.928185,207.968941 326.775117,208.023398 326.62205,208.023398" id="Fill-171" fill="#FA5E5E"></path><path d="M334.993773,241.307142 L287.222781,241.307142 C286.287902,241.307142 285.529585,240.50872 285.529585,239.524399 C285.529585,238.539448 286.287902,237.741027 287.222781,237.741027 L334.993773,237.741027 C335.928652,237.741027 336.686969,238.539448 336.686969,239.524399 C336.686969,240.50872 335.928652,241.307142 334.993773,241.307142" id="Fill-172" fill="#5198D8"></path><path d="M334.995283,241.307142 L309.826295,241.307142 C308.891652,241.307142 308.134011,240.50872 308.134011,239.524399 C308.134011,238.539448 308.891652,237.741027 309.826295,237.741027 L334.995283,237.741027 C335.929328,237.741027 336.686969,238.539448 336.686969,239.524399 C336.686969,240.50872 335.929328,241.307142 334.995283,241.307142" id="Fill-173" fill="#54A7F2"></path><polygon id="Fill-174" fill="#7E95D9" points="104.694181 343.535784 111.832421 343.535784 111.832421 285.289232 104.694181 285.289232"></polygon><path d="M78.5206359,348.290604 C78.5206359,343.69498 82.3321723,339.969668 87.0334264,339.969668 L130.683481,339.969668 C135.384735,339.969668 139.195673,343.69498 139.195673,348.290604 L78.5206359,348.290604" id="Fill-175" fill="#657EC4"></path><path d="M30.653911,203.555484 L73.1097414,286.477937 L97.5559416,281.80781 L69.4401317,196.945909 C67.6980607,191.689995 62.4561913,188.399284 56.9367226,189.097078 L37.0037689,191.61812 C31.3036499,192.339273 28.046525,198.463087 30.653911,203.555484" id="Fill-176" fill="#4F66AC"></path><path d="M139.771174,293.608795 L77.7060763,292.202471 C74.8050952,292.136894 72.5077381,289.737975 72.5734794,286.844845 C72.6392206,283.951716 75.0441542,281.658912 77.9445376,281.724489 L140.009635,283.130813 C142.910616,283.19639 145.208571,285.595309 145.14283,288.489035 C145.076491,291.382165 142.672155,293.674372 139.771174,293.608795" id="Fill-177" fill="#4F66AC"></path><path d="M263.524855,235.518519 C263.524855,235.518519 276.85984,241.755903 277.404152,239.704675 C277.961653,237.605211 285.528073,209.096639 286.718007,204.61312 C284.730317,197.473935 271.99053,220.850945 263.158997,226.167799 C262.470784,228.359506 263.524855,235.518519 263.524855,235.518519" id="Fill-178" fill="#12151A" transform="translate(274.821891, 221.693986) rotate(-5.000000) translate(-274.821891, -221.693986) "></path><path d="M204.980903,336.608593 C204.980903,336.608593 203.761786,353.233671 205.865243,353.043811 C208.018498,352.850435 237.255121,350.218175 241.85321,349.803881 C247.832405,345.583592 220.476055,341.935228 212.325607,334.026142 C210.042161,334.130448 204.980903,336.608593 204.980903,336.608593" id="Fill-182" fill="#12151A"></path><path d="M191.175058,237.741027 C167.014343,256.556676 129.660663,275.300844 108.567386,273.264531 C106.514249,260.951288 115.362306,243.869654 119.979023,239.806025 C122.159022,240.53178 124.681311,241.187959 127.092895,240.312254 C131.680887,238.646617 171.147677,210.561696 181.452858,209.359102 C187.883947,208.608756 204.114076,213.98759 220.546953,216.241629 C236.659682,218.451883 255.164076,221.533911 268.808372,220.91252 C271.734587,220.779365 270.161838,240.118437 268.808372,240.118437 C254.350325,240.118437 194.572817,235.09532 191.175058,237.741027 Z" id="Fill-186" fill="#5D7FFF"></path><path d="M219.500869,337.141633 C220.15339,338.481215 205.288071,347.087128 204.629536,345.913194 C202.359846,341.862639 168.438188,280.694038 166.090917,279.294439 C164.299342,278.225534 157.101164,280.320131 147.676598,282.414728 C135.875292,285.037476 120.582849,287.660824 108.04663,284.071801 C96.9904602,280.906498 74.587043,260.303225 77.6084853,253.566304 C80.1951141,247.79926 106.007878,245.642245 110.499146,245.213723 C135.706298,242.811238 182.083392,253.647927 189.276758,261.248494 C196.741958,269.136543 204.748484,306.861801 219.500869,337.141633 Z" id="Fill-187" fill="#688BFF"></path><path d="M168.89483,253.117522 C168.512764,252.998651 168.133899,252.88097 167.748631,252.762099 C168.09121,252.535056 168.428453,252.310391 168.769965,252.08216 C168.928981,252.380525 168.984477,252.747835 168.896964,253.109201 C168.895897,253.111578 168.89483,253.115145 168.89483,253.117522" id="Fill-188" fill="#6E9FB7"></path><path d="M53.9272507,187.81175 C50.9549285,187.747763 48.4173547,186.835647 46.9657268,185.308411 C46.5402284,184.860503 44.8074016,182.530412 44.2807702,180.558287 C44.0082046,180.581829 43.5901061,180.538366 43.0233916,180.211791 C42.8359256,180.103738 42.7736425,179.867107 42.8840254,179.684201 C42.9944084,179.501295 43.2355241,179.439722 43.4229901,179.547776 C43.9483881,179.850808 44.2228037,179.797083 44.3708032,179.768108 C44.4750195,179.747584 44.6347355,179.715591 44.7926016,179.819418 C44.8888012,179.882198 44.955401,179.980593 44.9782176,180.09589 C45.3519162,181.938231 47.1938926,184.418027 47.5416913,184.783839 C50.2550145,187.638502 57.1746052,187.832877 61.2526065,185.169572 C61.4339059,185.051256 61.6781049,185.098945 61.7983545,185.275814 C61.9192207,185.452684 61.8705042,185.691729 61.6892049,185.810045 C59.9033449,186.976297 57.5156206,187.680757 55.01073,187.797866 C54.6512146,187.814768 54.2892327,187.819597 53.9272507,187.81175 L53.9272507,187.81175 Z" id="Fill-191" fill="#EB9078"></path><path d="M43.5982795,175.928059 C43.6626505,175.925862 43.7270214,175.915316 43.7872394,175.894663 C44.0018093,175.820842 44.0820999,175.650788 43.9658169,175.514569 C43.7297901,175.237737 42.9075031,174.660785 42.0139235,174.748668 C41.7730516,174.772397 41.6076252,174.915646 41.6450018,175.068563 C41.6823785,175.221919 41.9094072,175.327378 42.1488949,175.302771 C42.4714418,175.272012 43.0085586,175.569496 43.1892125,175.781294 C43.2722718,175.879284 43.4349296,175.932892 43.5982795,175.928059" id="Fill-192" fill="#EB9078"></path><path d="M32.8005208,173.062061 C28.2116666,175.70731 26.9182483,181.579491 23.3872104,185.399018 C17.6107794,191.646181 12.1585155,198.688686 7.48893472,205.805112 C3.79405193,211.437487 33.1329945,184.370216 37.6722169,180.479935 C38.5469162,179.730285 39.0577393,178.134637 39.8045218,177.117065 C41.7408445,174.478614 37.2935361,170.748039 34.8561764,172.026536 C34.5014915,172.212583 33.7311483,172.525586 32.8005208,173.062061 Z" id="Fill-193" fill="#F7B690"></path><path d="M60.2660458,164.839483 C64.2791129,161.952577 69.5025176,161.920439 74.0349862,160.507608 C81.449354,158.196749 78.7218645,170.719967 70.613476,171.375817 C67.865941,171.598053 65.5539407,171.962088 64.2881094,172.538505 C59.28662,174.817226 55.9914787,167.913756 60.2660458,164.839483 Z" id="Fill-195" fill="#F7B690"></path><path d="M52.4943528,194.56195 C53.6834648,193.022562 56.1265501,192.859956 59.6359749,191.276163 C61.5958832,190.391662 63.8883707,189.063909 66.4807553,186.805552 C73.2507375,180.907714 80.7602074,176.76645 86.510783,173.82623 C91.9396606,171.049788 99.6681665,184.314074 97.5559416,186.805552 C97.1315867,187.305888 93.6913975,195.217346 92.9537005,195.775274 C97.5213346,203.444682 106.617206,219.686103 110.25496,223.739779 C118.926482,233.40213 125.20586,237.905149 125.709595,239.012605 C129.744249,247.886659 102.029877,283.660635 95.4180575,278.914049 C88.6659805,274.066075 62.699506,235.444594 49.6776007,217.508112 C49.6776007,217.508112 39.7389826,220.823283 35.6911982,220.416536 C30.8675187,219.931798 26.254181,201.67703 27.5576846,203.867947 C32.5311715,201.60624 42.3337094,199.406324 52.4943528,194.56195 Z" id="Fill-197" fill="#CBDDFA"></path><path d="M34.5209011,168.103178 C34.6452341,166.357883 35.5970652,164.81702 35.8028987,163.143124 C36.003973,161.512556 36.2502593,160.200534 36.5548452,159.760548 C36.7481859,159.481057 37.7553422,160.181006 38.0188805,161.184245 C38.2288782,161.985494 37.6542102,162.868515 37.7505831,163.803407 C37.892168,165.175843 38.0902678,165.908744 38.5269203,165.926442 C39.1218148,165.951461 41.8452416,162.758671 42.457388,161.959863 C43.5472346,160.536167 48.4045478,155.155046 49.1838595,155.76895 C50.6591977,156.932073 45.1379824,162.12585 45.1504751,163.215743 C45.1629679,164.306247 52.8567378,156.364547 54.2244002,157.951179 C55.4695143,159.395623 47.2659198,164.527155 47.9542127,165.2686 C48.3706388,165.717739 55.037026,160.928553 55.8377539,162.044077 C56.7669791,163.337181 49.1321037,167.650988 49.2927252,168.164202 C49.4533467,168.676806 55.0209638,166.504952 55.2446442,167.539313 C55.6164532,169.262639 48.9917086,171.065906 48.3623103,171.551049 C47.4753227,172.233301 44.6061467,177.370324 39.1087271,177.10731 C36.8528874,176.999297 34.6731941,174.351453 34.9968167,172.638502 C35.0723683,172.236962 34.3781265,170.109656 34.5209011,168.103178 Z" id="Fill-200" fill="#F7B690"></path><path d="M59.7064724,158.600709 C58.1414082,157.744961 56.3115951,157.697386 54.7646885,156.94987 C53.2581971,156.221384 52.00064,155.70639 51.4605991,155.720662 C51.1173627,155.729582 51.1806213,156.961169 51.9010663,157.734256 C52.4762508,158.351537 53.5411036,158.35451 54.2920064,158.949787 C55.3943457,159.823376 55.9179862,160.393676 55.7000955,160.770705 C55.4037174,161.283916 51.2099077,161.816751 50.1977704,161.891681 C48.3943151,162.02489 41.182251,163.147055 41.294125,164.140175 C41.5044012,166.019371 48.9091696,164.235919 49.8381336,164.846063 C50.7676833,165.456207 39.8444492,167.554841 40.4764493,169.577356 C41.0516338,171.417898 49.8346193,167.345513 50.1034682,168.332091 C50.2668862,168.929152 42.5979547,171.897807 43.1280381,173.185294 C43.7418807,174.676757 51.5197576,170.632917 51.8741228,171.049789 C52.2290737,171.467256 47.3927209,174.952095 48.1617812,175.709126 C49.441596,176.969852 54.5262974,172.393177 55.2777859,172.130922 C56.3367814,171.76103 62.2772308,172.174929 64.9856353,167.409739 C66.0967606,165.454423 64.9879782,162.165235 63.3450123,161.495028 C62.9596035,161.338032 61.5046561,159.583719 59.7064724,158.600709 Z" id="Fill-201" fill="#F7B690"></path><path d="M58.4792142,180.340183 C59.8172704,179.325291 60.8898725,173.506577 60.6382005,170.900805 C60.2193464,166.557656 61.1187742,159.215722 56.5928726,156.560529 C52.4510704,154.130083 37.9655487,157.001786 36.9564638,164.799098 C33.3689392,168.822189 38.3760138,174.347319 40.0765975,177.902089 C42.4560964,182.873 47.4571787,183.809643 49.3848664,182.56412 C53.639921,179.815381 55.2332445,182.801222 58.4792142,180.340183" id="Fill-202" fill="#222F55"></path><path d="M44.0191444,177.8072 C49.3295503,186.951558 50.8633285,194.282332 51.4955057,196.374603 C52.0308312,198.147857 56.5482275,200.246148 63.7704266,196.135641 C69.5216543,192.861803 69.7887301,189.033596 68.0894237,187.952549 C65.4902773,186.299077 61.0039909,179.652083 58.8439054,172.101608 C56.6844068,164.551133 49.9417702,179.779088 44.0191444,177.8072" id="Fill-203" fill="#F7B690"></path><path d="M40.6805915,173.956949 C42.5066585,173.063956 43.3642301,176.877179 43.7530595,176.778757 C44.6470094,176.553709 43.1304554,170.744456 42.0921854,167.338722 C43.7918232,167.140679 52.5440634,165.436312 56.505114,161.663898 C57.8332169,162.358848 64.1039859,176.848972 62.9023122,182.005284 C62.47293,183.847081 60.745263,186.272204 58.8965342,186.953951 C52.7044853,189.238044 48.6569619,186.429438 47.2334407,184.884705 C45.7622103,183.286561 44.9147769,180.525965 44.4519983,179.800409 C42.6658877,180.577576 39.5826851,174.493465 40.6805915,173.956949" id="Fill-204" fill="#F7B690"></path><path d="M244.070537,95.8855029 C252.222132,84.0975438 252.624902,63.7352679 239.469334,55.1381295 C234.550123,51.9226856 228.247065,50.9785919 222.622103,52.6145405 C224.09432,52.1863352 216.079186,43.1291612 215.298893,42.5526154 C203.286713,33.6726092 186.643272,30.4049158 172.002863,30.9676486 C165.250746,31.2270942 158.408456,32.7044927 152.332031,35.7535791 C147.01546,38.4219051 139.156625,41.8949929 137.228135,48.0358061 C137.411486,47.4520535 122.382735,48.5078529 121.012714,48.8345622 C115.446064,50.1636204 108.677114,53.0247288 104.13242,56.5632786 C94.3216506,64.2025103 89.7126331,76.0078858 90.5049489,88.5039151 C90.9215459,95.0645257 94.8464546,100.947695 99.0527016,105.652549 C98.9162406,105.504208 89.7192457,116.517434 97.8431877,129.869274 C103.132707,138.564305 113.854219,146.468387 123.262818,150.290405 C147.110441,159.977575 181.717448,159.122966 193.150721,155.853471 C204.583995,152.584577 215.41191,145.442616 220.794607,134.700847 C224.11536,128.073574 225.224482,120.538841 228.633003,113.95721 C232.37396,106.734173 239.495785,102.500765 244.070537,95.8855029" id="Fill-205" fill="#4E8BD7"></path><path d="M170.324128,161.834515 C169.399382,160.81201 167.9492,160.666208 166.629214,160.581365 C164.318804,160.433677 161.923533,160.299187 159.768894,161.211711 C157.434652,162.199651 154.268082,166.287156 156.764488,168.834306 C160.162971,172.302149 175.296596,167.336685 170.324128,161.834515" id="Fill-206" fill="#4E8BD7"></path><path d="M161.265146,171.682983 C160.767099,171.299568 159.986058,171.244794 159.275204,171.213299 C158.03149,171.157841 156.741734,171.10786 155.581683,171.449511 C154.324494,171.820602 152.619792,173.352894 153.963452,174.308009 C155.793929,175.608882 163.942359,173.746579 161.265146,171.682983" id="Fill-207" fill="#4E8BD7"></path><path d="M169.008381,160.581208 C166.698533,160.433517 164.303242,160.299653 162.148004,161.211564 C159.814325,162.200148 156.647729,166.287722 159.143574,168.834286 C162.542666,172.302188 177.676414,167.33664 172.703324,161.834378 C171.779152,160.811856 170.328958,160.666051 169.008381,160.581208 Z" id="Fill-208" fill="#FFFFFF"></path><path d="M162.454669,172.872287 C161.957175,172.488911 161.176121,172.434143 160.465256,172.401967 C159.221521,172.346515 157.931182,172.296539 156.771112,172.638838 C155.514464,173.009206 153.809172,174.542024 155.153416,175.497039 C156.983361,176.797093 165.132487,174.935668 162.454669,172.872287" id="Fill-209" fill="#FFFFFF"></path><path d="M247.63985,95.8854132 C255.791455,84.0980694 256.193625,63.7352182 243.038642,55.1380904 C238.118823,51.9232511 231.816358,50.9791585 226.190789,52.6145046 C227.663608,52.1862998 219.648464,43.1297377 218.868171,42.5531926 C206.855975,33.6731974 190.211912,30.4049075 175.572086,30.9676395 C168.819359,31.2276854 161.97706,32.7044816 155.901229,35.7541647 C150.58405,38.4218868 142.725205,41.8949703 140.797314,48.0363764 C140.980665,47.4526245 125.951895,48.5078221 124.581271,48.8351316 C119.015215,50.1635875 112.245656,53.0246924 107.700956,56.5638383 C97.8907756,64.2030605 93.2817522,76.0078208 94.074069,88.5038346 C94.4900654,95.064437 98.4149791,100.9482 102.621231,105.652447 C102.485371,105.504707 93.2877637,116.517319 101.411716,129.869742 C106.701843,138.564162 117.422767,146.468835 126.83198,150.290848 C150.679633,159.977406 185.286082,159.122798 196.71937,155.853908 C208.152657,152.584417 218.980586,145.443065 224.36329,134.70131 C227.684649,128.073444 228.793772,120.538721 232.202297,113.957098 C235.942657,106.73467 243.065092,102.500667 247.63985,95.8854132" id="Fill-210" fill="#FFFFFF"></path><polygon id="Fill-211" fill="#F79A45" points="157.041272 142.644616 201.060416 142.644616 201.060416 135.512385 157.041272 135.512385"></polygon><polygon id="Fill-212" fill="#F8AD43" points="172.507458 142.644616 198.681003 142.644616 198.681003 135.512385 172.507458 135.512385"></polygon><polygon id="Fill-213" fill="#F8D24A" points="189.16335 142.644616 192.73247 142.644616 192.73247 135.512385 189.16335 135.512385"></polygon><path d="M198.055774,143.833321 L201.060416,143.833321 L201.060416,142.644616 L198.055774,142.644616 L198.055774,143.833321 Z M157.041272,143.833321 L172.365306,143.833321 L172.365306,142.644616 L157.041272,142.644616 L157.041272,143.833321 Z" id="Fill-214" fill="#F37B2C"></path><path d="M194.091724,143.833321 L198.681003,143.833321 L198.681003,142.644616 L194.091724,142.644616 L194.091724,143.833321 Z M172.507458,143.833321 L189.898922,143.833321 L189.898922,142.644616 L172.507458,142.644616 L172.507458,143.833321 Z" id="Fill-215" fill="#F48A2A"></path><polygon id="Fill-216" fill="#F4A82F" points="189.16335 143.833321 192.73247 143.833321 192.73247 142.644616 189.16335 142.644616"></polygon><polygon id="Fill-217" fill="#F79A45" points="153.472152 135.512385 197.491296 135.512385 197.491296 128.380154 153.472152 128.380154"></polygon><polygon id="Fill-218" fill="#F8AD43" points="168.938338 135.512385 195.111883 135.512385 195.111883 128.380154 168.938338 128.380154"></polygon><polygon id="Fill-219" fill="#F8D24A" points="186.783937 135.512385 190.353057 135.512385 190.353057 128.380154 186.783937 128.380154"></polygon><polyline id="Fill-220" fill="#F4A82F" points="192.73247 136.106738 189.16335 136.106738 192.73247 136.106738"></polyline><path d="M194.486695,135.512385 L197.491296,135.512385 L197.491296,134.32368 L194.486695,134.32368 L194.486695,135.512385 Z M153.472152,135.512385 L168.796575,135.512385 L168.796575,134.32368 L153.472152,134.32368 L153.472152,135.512385 Z" id="Fill-221" fill="#F37B2C"></path><path d="M190.521996,135.512385 L195.111883,135.512385 L195.111883,134.32368 L190.521996,134.32368 L190.521996,135.512385 Z M168.938338,135.512385 L186.329802,135.512385 L186.329802,134.32368 L168.938338,134.32368 L168.938338,135.512385 Z" id="Fill-222" fill="#F48A2A"></path><polygon id="Fill-223" fill="#F4A82F" points="186.783937 135.512385 190.353057 135.512385 190.353057 134.32368 186.783937 134.32368"></polygon><polygon id="Fill-224" fill="#F79A45" points="157.041272 128.380154 201.060416 128.380154 201.060416 121.247924 157.041272 121.247924"></polygon><polygon id="Fill-225" fill="#F8AD43" points="172.507458 128.380154 198.681003 128.380154 198.681003 121.247924 172.507458 121.247924"></polygon><polygon id="Fill-226" fill="#F8D24A" points="189.16335 128.380154 192.73247 128.380154 192.73247 121.247924 189.16335 121.247924"></polygon><polyline id="Fill-227" fill="#F4A82F" points="190.353057 128.974507 186.783937 128.974507 190.353057 128.974507"></polyline><path d="M198.055774,128.380154 L201.060416,128.380154 L201.060416,127.191449 L198.055774,127.191449 L198.055774,128.380154 Z M157.041272,128.380154 L172.365306,128.380154 L172.365306,127.191449 L157.041272,127.191449 L157.041272,128.380154 Z" id="Fill-228" fill="#F37B2C"></path><path d="M194.091724,128.380154 L198.681003,128.380154 L198.681003,127.191449 L194.091724,127.191449 L194.091724,128.380154 Z M172.507458,128.380154 L189.898922,128.380154 L189.898922,127.191449 L172.507458,127.191449 L172.507458,128.380154 Z" id="Fill-229" fill="#F48A2A"></path><polygon id="Fill-230" fill="#F4A82F" points="189.16335 128.380154 192.73247 128.380154 192.73247 127.191449 189.16335 127.191449"></polygon><polygon id="Fill-231" fill="#F79A45" points="149.903032 121.247924 193.922177 121.247924 193.922177 114.115693 149.903032 114.115693"></polygon><polygon id="Fill-232" fill="#F8AD43" points="165.369218 121.247924 191.542763 121.247924 191.542763 114.115693 165.369218 114.115693"></polygon><polygon id="Fill-233" fill="#F8D24A" points="183.214817 121.247924 186.783937 121.247924 186.783937 114.115693 183.214817 114.115693"></polygon><polyline id="Fill-234" fill="#F4A82F" points="192.73247 120.653571 189.16335 120.653571 192.73247 120.653571"></polyline><path d="M190.917534,121.247924 L193.922177,121.247924 L193.922177,120.059218 L190.917534,120.059218 L190.917534,121.247924 Z M149.903032,121.247924 L165.227066,121.247924 L165.227066,120.059218 L149.903032,120.059218 L149.903032,121.247924 Z" id="Fill-235" fill="#F37B2C"></path><path d="M186.953484,121.247924 L191.542763,121.247924 L191.542763,120.059218 L186.953484,120.059218 L186.953484,121.247924 Z M165.369218,121.247924 L182.760682,121.247924 L182.760682,120.059218 L165.369218,120.059218 L165.369218,121.247924 Z" id="Fill-236" fill="#F48A2A"></path><polygon id="Fill-237" fill="#F4A82F" points="183.214817 121.247924 186.783937 121.247924 186.783937 120.059218 183.214817 120.059218"></polygon><path d="M131.818407,87.7910484 C136.185107,91.2703409 136.902064,97.6275079 133.420385,101.989873 C129.938705,106.352833 123.576088,107.069175 119.209388,103.590478 C114.843283,100.111781 114.125731,93.7546141 117.608006,89.3916539 C121.089685,85.0286938 127.452302,84.3123513 131.818407,87.7910484" id="Fill-238" fill="#F79A45"></path><path d="M130.111232,88.5909861 C133.707037,91.4561074 134.297491,96.6911513 131.430509,100.283875 C128.562931,103.876599 123.323397,104.467143 119.727593,101.602022 C116.131191,98.7369004 115.540737,93.5018565 118.408316,89.9091326 C121.275298,86.3158128 126.514831,85.7258648 130.111232,88.5909861" id="Fill-239" fill="#F8AD43"></path><path d="M125.351794,103.417347 C124.790337,103.407213 124.228881,103.344029 123.675384,103.226006 L118.970661,89.74513 C119.340475,89.3159546 119.745189,88.9326772 120.17868,88.5947015 L125.351794,103.417347 M126.372457,103.376217 L121.012599,88.0200834 C121.452825,87.7548291 121.913868,87.5324924 122.388994,87.3512851 L127.88294,103.092485 C127.388222,103.230775 126.883094,103.326147 126.372457,103.376217 M128.941564,102.721725 L123.461088,87.0192702 C124.135203,86.8571373 124.827074,86.7754747 125.520782,86.7754747 C126.133669,86.7754747 126.747782,86.839255 127.352097,86.9686037 L132.057433,100.44948 C131.183716,101.46281 130.112234,102.224001 128.941564,102.721725" id="Fill-240" fill="#F8C147"></path><path d="M131.307477,100.368509 L129.92572,99.3148309 C129.221679,100.132017 128.261122,100.801103 127.502595,101.039936 L126.872019,99.998551 C127.62871,99.7351315 128.507231,99.1907311 129.174539,98.3916917 C130.019388,97.3778191 130.030408,96.2650179 129.250453,95.6708604 C128.498047,95.0971912 127.568714,95.2991462 126.277564,96.0425747 C124.516237,97.0816185 123.136929,97.5013336 121.946794,96.5939996 C120.811146,95.7282274 120.651971,94.228492 121.542124,92.7591963 L120.160367,91.7055181 L120.898692,90.8204283 L122.225962,91.8325448 C122.967347,90.9966268 123.673837,90.5780824 124.251763,90.3415901 L124.857238,91.3864877 C124.442772,91.5615154 123.653634,91.9174245 122.892046,92.8306122 C121.975568,93.9299499 122.259021,94.8238202 122.806336,95.2411939 C123.517724,95.7832528 124.313596,95.5262724 125.841671,94.6599147 C127.642791,93.6273101 128.973122,93.4276966 130.190807,94.3555188 C131.271356,95.1797293 131.628887,96.7368316 130.635271,98.3840818 L132.057433,99.468785 L131.307477,100.368509" id="Fill-241" fill="#FFE900"></path><path d="M157.992251,52.1299955 C162.358355,55.6087791 163.075908,61.9661043 159.593633,66.3291731 C156.111954,70.6916464 149.749337,71.4080066 145.383232,67.929223 C141.016532,64.4504394 140.299575,58.0937096 143.781254,53.7300454 C147.262934,49.3675721 153.625551,48.6512118 157.992251,52.1299955" id="Fill-242" fill="#F79A45"></path><path d="M157.474046,52.9296406 C161.070448,55.7947539 161.660902,61.0297833 158.793323,64.6230931 C155.926341,68.215807 150.686212,68.8057534 147.090407,65.94064 C143.494602,63.0761226 142.904148,57.8404973 145.77113,54.2477834 C148.638708,50.6550695 153.878242,50.0645272 157.474046,52.9296406" id="Fill-243" fill="#F8AD43"></path><path d="M151.525951,67.7561926 C150.964495,67.7460589 150.403039,67.6834686 149.849542,67.5648451 L145.144206,54.0834863 C145.51402,53.6548916 145.919346,53.2710043 146.352225,52.9336127 L151.525951,67.7561926 M152.546614,67.7156579 L147.186756,52.3589739 C147.62637,52.0937102 148.087413,51.8713656 148.562539,51.6895556 L154.056485,67.431319 C153.562379,67.5702099 153.05664,67.6649896 152.546614,67.7156579 M155.115109,67.061142 L149.635245,51.3575288 C150.30936,51.1959862 151.001232,51.1143207 151.694939,51.1143207 C152.307827,51.1143207 152.921939,51.1781033 153.526255,51.3068605 L158.230978,64.7882193 C157.357262,65.8015863 156.286392,66.5633999 155.115109,67.061142" id="Fill-244" fill="#F8C147"></path><path d="M157.481022,64.7068065 L156.099265,63.653186 C155.395224,64.4709126 154.434668,65.1393763 153.675528,65.3787823 L153.045565,64.337454 C153.802255,64.0734635 154.680776,63.5296782 155.347472,62.7300973 C156.192933,61.7168655 156.203341,60.6035398 155.423998,60.0094148 C154.671593,59.435777 153.742259,59.6377209 152.450497,60.3811088 C150.68917,61.4200957 149.309863,61.8397879 148.12034,60.9325035 C146.984691,60.0667786 146.825517,58.5677107 147.715669,57.09791 L146.333912,56.0448748 L147.072237,55.1598335 L148.398895,56.1713092 C149.140893,55.3354369 149.847382,54.9169154 150.425308,54.6804361 L151.030783,55.7258619 C150.616317,55.9002946 149.827179,56.2561842 149.065591,57.1699074 C148.148501,58.2691849 148.432566,59.162421 148.979882,59.5797718 C149.691269,60.1223864 150.487141,59.86542 152.015216,58.9985244 C153.815724,57.9659763 155.146667,57.7663737 156.36374,58.6947305 C157.444902,59.5183106 157.80182,61.0753277 156.808204,62.7224878 L158.230978,63.8071317 L157.481022,64.7068065" id="Fill-245" fill="#FFE900"></path><path d="M179.546531,85.6516602 C186.481363,91.3817562 187.619891,101.852043 182.090403,109.037702 C176.560325,116.223361 166.45552,117.403679 159.520099,111.673583 C152.585267,105.944097 151.44615,95.4731997 156.976228,88.287541 C162.506306,81.101272 172.611111,79.9215643 179.546531,85.6516602" id="Fill-246" fill="#F79A45"></path><path d="M178.06296,87.3804196 C183.970472,92.0876752 184.940526,100.688301 180.229881,106.590798 C175.519237,112.493296 166.911305,113.462527 161.003794,108.75588 C155.096282,104.049234 154.125618,95.4486081 158.836263,89.5461105 C163.547517,83.6430036 172.155449,82.6737732 178.06296,87.3804196" id="Fill-247" fill="#F8AD43"></path><path d="M169.282653,111.738283 C168.414748,111.721829 167.547432,111.618236 166.691892,111.423845 L159.420685,89.2761112 C159.992419,88.5716737 160.618323,87.94158 161.2878,87.3870488 L169.282653,111.738283 M170.859484,111.671251 L162.576703,86.4425175 C163.256778,86.0074238 163.969237,85.6411894 164.703483,85.3438144 L173.194113,111.205079 C172.429839,111.432376 171.649078,111.588986 170.859484,111.671251 M174.829826,110.595704 L166.360981,84.7984238 C167.402585,84.5327363 168.471862,84.3980645 169.544084,84.3980645 C170.49089,84.3980645 171.44005,84.502877 172.374491,84.7149395 L179.645697,106.862673 C178.295558,108.526876 176.639826,109.777923 174.829826,110.595704" id="Fill-248" fill="#F8C147"></path><path d="M178.445514,105.864005 L176.235324,104.107719 C175.108896,105.470616 173.571637,106.585217 172.358044,106.983462 L171.348647,105.247817 C172.559802,104.808291 173.966009,103.901919 175.032703,102.568769 C176.385271,100.879869 176.402338,99.0252368 175.155221,98.0344805 C173.950771,97.0783279 172.464104,97.4158649 170.397766,98.6543102 C167.579256,100.386312 165.372723,101.085063 163.468522,99.5734309 C161.652095,98.1303993 161.396698,95.6316538 162.821191,93.1820818 L160.610392,91.4264035 L161.791679,89.9511966 L163.914705,91.6370606 C165.101478,90.2444167 166.232174,89.5474877 167.156845,89.152885 L168.125403,90.8946005 C167.462224,91.1859994 166.199868,91.7791175 164.980789,93.3016768 C163.514237,95.1332403 163.968344,96.6230171 164.844252,97.3181249 C165.982262,98.2220685 167.2562,97.7940764 169.701062,96.3498306 C172.582355,94.629363 174.710866,94.2960755 176.658954,95.842918 C178.387608,97.2161353 178.959966,99.8107996 177.369677,102.557234 L179.645697,104.364514 L178.445514,105.864005" id="Fill-249" fill="#FFE900"></path><path d="M212.0466,65.5951529 C217.18339,69.687839 218.02755,77.1667782 213.930822,82.2992439 C209.834688,87.4317097 202.350041,88.2751589 197.212658,84.1818796 C192.075274,80.0891934 191.231708,72.6108474 195.328436,67.4777885 C199.42457,62.3447296 206.90981,61.5018735 212.0466,65.5951529" id="Fill-250" fill="#F79A45"></path><path d="M211.529077,67.5830832 C215.895511,71.062393 216.612315,77.4193781 213.130695,81.782147 C209.648462,86.144916 203.286137,86.8611183 198.919702,83.3824212 C194.553268,79.9031114 193.836464,73.546739 197.318084,69.18397 C200.800316,64.8205884 207.162642,64.1043861 211.529077,67.5830832" id="Fill-251" fill="#F8AD43"></path><path d="M205.032624,84.3980645 C204.369105,84.3864204 203.706199,84.3098146 203.051869,84.1657958 L197.491296,67.7960636 C197.928129,67.2751445 198.407235,66.8093814 198.918812,66.3993874 L205.032624,84.3980645 M206.238967,84.3490368 L199.904595,65.7013557 C200.42475,65.3796115 200.969412,65.1093464 201.531228,64.8893346 L208.024281,84.0040044 C207.439796,84.1719243 206.842445,84.2877522 206.238967,84.3490368 M209.275349,83.5541754 L202.798225,64.4866947 C203.595306,64.2899711 204.413217,64.1900772 205.233579,64.1900772 C205.95714,64.1900772 206.683151,64.2679087 207.396909,64.4241844 L212.957482,80.7945294 C211.925137,82.0251244 210.659365,82.9492963 209.275349,83.5541754" id="Fill-252" fill="#F8C147"></path><path d="M212.057427,81.1992549 L210.399758,79.9120325 C209.55444,80.9109171 208.401847,81.7286819 207.491218,82.0206542 L206.734848,80.7473641 C207.64299,80.4257099 208.697304,79.7605946 209.497837,78.7835171 C210.511721,77.5447548 210.524783,76.1842365 209.589273,75.4579401 C208.686108,74.7570854 207.570836,75.0042321 206.021397,75.9128597 C203.907792,77.1825153 202.252611,77.6949812 200.824465,76.5864556 C199.462253,75.5282073 199.271295,73.6958084 200.339294,71.8997546 L198.681003,70.6125322 L199.567374,69.5300539 L201.159109,70.7663931 C202.049212,69.7450957 202.89764,69.2338413 203.590564,68.9448977 L204.317077,70.2218223 C203.820088,70.4356527 202.873382,70.8705824 201.95902,71.9875886 C200.858676,73.3305401 201.19954,74.4233162 201.856388,74.9327534 C202.709792,75.5960515 203.665206,75.2816664 205.498905,74.2222067 C207.659784,72.9604258 209.256495,72.7163079 210.716986,73.8508809 C212.013886,74.8576402 212.442454,76.7603063 211.250674,78.7744308 L212.957482,80.1004213 L212.057427,81.1992549" id="Fill-253" fill="#FFE900"></path><path d="M350.570146,325.719161 L350.561179,325.705207 L306.944304,326.644976 C306.944304,326.644976 309.372479,340.692975 306.944304,348.290604 L350.561179,348.290604 C350.561179,348.290604 352.905665,346.307928 355.166461,344.160231 C355.873633,340.092955 356.333922,333.846433 353.784996,329.286521 C353.013863,327.908112 351.967751,326.683197 350.570146,325.719161" id="Fill-254" fill="#FFFFFF"></path><polyline id="Fill-255" fill="#D6DCEB" points="306.944304 326.893912 350.660069 325.930734 358.101688 318.572976 327.014269 318.572976 306.944304 326.893912"></polyline><path d="M349.773742,325.769623 L349.782841,325.783537 C350.018817,326.245124 355.627037,337.38795 349.773742,348.290604 C349.773742,348.290604 352.152913,346.313583 354.447157,344.172012 C356.363476,342.367405 358.204574,340.452695 358.526083,339.488988 C359.215206,337.38795 360.282254,324.089034 357.307986,318.572976 L349.773742,325.769623" id="Fill-256" fill="#D6DCEB"></path><path d="M306.842087,331.648439 L306.725304,330.460027 L300.995771,332.327922 C300.995771,332.327922 318.152195,333.954996 346.204622,331.393975 C346.204622,331.393975 314.310858,333.104961 306.842087,331.648439" id="Fill-257" fill="#D6DCEB"></path><path d="M307.697272,337.069695 L307.60379,335.214848 L302.185478,337.884047 C302.185478,337.884047 321.806372,340.367401 347.394329,337.069695 C347.394329,337.069695 323.66387,339.796633 307.697272,337.069695" id="Fill-258" fill="#D6DCEB"></path><path d="M307.91283,338.780963 L304.564891,340.759902 C304.564891,340.759902 321.869823,341.656462 328.359023,340.759902 L307.890197,340.218713 L307.91283,338.780963" id="Fill-259" fill="#D6DCEB"></path><path d="M353.342862,330.460027 C358.04343,327.606612 359.291395,324.374484 359.291395,324.374484 L359.150217,323.327796 C357.744991,327.304947 354.653374,329.622285 353.342862,330.460027" id="Fill-260" fill="#CDCBD6"></path><path d="M354.532568,335.214848 C354.532568,335.214848 357.703688,334.873455 359.252745,333.540275 L359.291395,332.837437 C359.291395,332.837437 359.277285,332.9233 359.196304,333.068803 C358.934345,333.541817 358.193865,334.507383 354.532568,335.214848" id="Fill-261" fill="#CDCBD6"></path><path d="M446.909569,330.668481 L446.900602,330.655134 L403.283623,331.594321 C403.283623,331.594321 405.712367,345.642698 403.283623,353.240531 L446.900602,353.240531 C446.900602,353.240531 449.245061,351.258409 451.505832,349.110048 C452.212995,345.042662 452.673279,338.796579 450.123785,334.236545 C449.353258,332.857492 448.307158,331.632544 446.909569,330.668481" id="Fill-262" fill="#FFFFFF"></path><polyline id="Fill-263" fill="#D6DCEB" points="403.283623 331.843839 446.999388 330.880662 454.441007 323.522903 423.353588 323.522903 403.283623 331.843839"></polyline><path d="M447.302767,330.720155 L447.311867,330.733464 C447.548457,331.195052 453.156249,342.338482 447.302767,353.240531 C447.302767,353.240531 449.682014,351.264115 451.976331,349.121939 C453.892711,347.317332 455.734474,345.403227 456.054781,344.438915 C456.744532,342.338482 457.811007,329.039566 454.837252,323.522903 L447.302767,330.720155" id="Fill-264" fill="#D6DCEB"></path><path d="M404.371035,336.598367 L404.25485,335.409954 L398.524796,337.277849 C398.524796,337.277849 415.680994,338.904923 443.733647,336.343902 C443.733647,336.343902 411.840303,338.05557 404.371035,336.598367" id="Fill-265" fill="#D6DCEB"></path><path d="M404.037123,342.019622 L403.943643,340.164775 L398.524796,342.833974 C398.524796,342.833974 418.146034,345.317328 443.733647,342.019622 C443.733647,342.019622 420.003508,344.74656 404.037123,342.019622" id="Fill-266" fill="#D6DCEB"></path><path d="M404.252828,343.73089 L400.904209,345.709829 C400.904209,345.709829 418.208979,346.606389 424.698342,345.709829 L404.230194,345.16864 L404.252828,343.73089" id="Fill-267" fill="#D6DCEB"></path><path d="M388.923736,325.915983 L388.912929,325.900313 L337.849759,326.988151 C337.849759,326.988151 340.69264,343.254499 337.849759,352.051826 L388.912929,352.051826 C388.912929,352.051826 391.657945,349.756819 394.305095,347.268954 C395.133043,342.559608 395.671599,335.327442 392.687025,330.046755 C391.785229,328.450254 390.560419,327.032147 388.923736,325.915983" id="Fill-270" fill="#FFFFFF"></path><polyline id="Fill-271" fill="#D6DCEB" points="339.039466 327.089018 389.871341 325.988183 398.524796 317.579377 362.376901 317.579377 339.039466 327.089018"></polyline><path d="M389.007143,325.927924 L389.017682,325.943577 C389.283481,326.478795 395.592416,339.405286 389.007143,352.051826 C389.007143,352.051826 391.683874,349.759242 394.265174,347.274003 C396.420844,345.181298 398.492207,342.960357 398.853437,341.841759 C399.628588,339.405286 400.82937,323.978505 397.483457,317.579377 L389.007143,325.927924" id="Fill-272" fill="#D6DCEB"></path><path d="M338.824412,333.032104 L338.686396,331.843839 L331.901226,333.711697 C331.901226,333.711697 352.217388,335.338976 385.438024,332.777475 C385.438024,332.777475 347.669527,334.489045 338.824412,333.032104" id="Fill-273" fill="#D6DCEB"></path><path d="M339.473621,338.453481 L339.365083,336.598659 L333.090933,339.267642 C333.090933,339.267642 355.809927,341.751401 385.438024,338.453481 C385.438024,338.453481 357.960806,341.18025 339.473621,338.453481" id="Fill-274" fill="#D6DCEB"></path><path d="M339.321122,341.35348 L335.470346,343.33221 C335.470346,343.33221 355.371214,344.229241 362.833598,343.33221 L339.295266,342.791629 L339.321122,341.35348" id="Fill-275" fill="#D6DCEB"></path><path d="M387.734422,298.576367 L387.723615,298.560095 L336.660053,299.647933 C336.660053,299.647933 339.502921,315.914883 336.660053,324.711608 L387.723615,324.711608 C387.723615,324.711608 390.468619,322.416601 393.115159,319.929338 C393.943103,315.21939 394.482257,307.987224 391.497696,302.70714 C390.595302,301.110036 389.370497,299.691929 387.734422,298.576367" id="Fill-278" fill="#FFFFFF"></path><polyline id="Fill-279" fill="#D6DCEB" points="336.660053 299.7488 387.492015 298.647895 396.145383 290.239159 359.997254 290.239159 336.660053 299.7488"></polyline><path d="M387.817437,298.587706 L387.827975,298.603961 C388.093782,299.139179 394.402884,312.065068 387.817437,324.711608 C387.817437,324.711608 390.494238,322.419024 393.075021,319.934387 C395.231334,317.84108 397.302752,315.620139 397.663991,314.502142 C398.439163,312.065068 399.639391,296.638287 396.293389,290.239159 L387.817437,298.587706" id="Fill-280" fill="#D6DCEB"></path><path d="M337.634627,304.503594 L337.496613,303.314916 L330.71152,305.18309 C330.71152,305.18309 351.028057,306.809548 384.248317,304.249003 C384.248317,304.249003 346.479642,305.960325 337.634627,304.503594" id="Fill-281" fill="#D6DCEB"></path><path d="M345.933493,312.204073 L345.825559,310.349593 L339.550878,313.018827 C339.550878,313.018827 362.270214,315.502303 391.897969,312.204073 C391.897969,312.204073 364.421068,314.931614 345.933493,312.204073" id="Fill-282" fill="#D6DCEB"></path><path d="M338.130828,314.013262 L334.28064,315.99228 C334.28064,315.99228 354.180919,316.888662 361.643892,315.99228 L338.104972,315.45123 L338.130828,314.013262" id="Fill-283" fill="#D6DCEB"></path><path d="M108.04663,284.071801 C101.795058,283.39843 96.0524898,280.374481 90.8189265,274.999956 C85.5853632,269.625431 74.7442622,257.623689 58.2956236,238.994732 L51.7522373,229.420091 L37.1546146,200.466835 L50.1734237,195.621508 L70.9547576,213.227791 L94.5813434,240.102987 L116.919157,273.416717 L108.04663,284.071801 Z" id="Path-3" fill="#E86A6A"></path><path d="M114.704395,254.923928 C114.009864,245.134428 112.483935,237.964379 110.126608,233.413782 C107.769281,228.863184 101.087923,221.504024 90.082533,211.336302 C85.8082414,207.314236 81.9831316,203.292433 78.6072038,199.270893 C75.231276,195.249353 72.0814764,190.962365 69.1578049,186.409929 C71.2152038,183.852776 72.865024,181.921127 74.1072657,180.614983 C75.3495074,179.308838 77.1740251,177.556158 79.5808188,175.356942 C91.2791384,184.224614 97.7040024,189.300189 98.855411,190.583667 C100.582524,192.508886 116.743273,211.629476 118.665897,214.612759 C120.588521,217.596042 136.342686,237.078102 136.382298,249.404618 C128.54287,251.090794 121.316902,252.930564 114.704395,254.923928 Z" id="Path-3-Copy" fill="#E86A6A" transform="translate(102.770051, 215.140435) scale(1, -1) rotate(-98.000000) translate(-102.770051, -215.140435) "></path><path d="M30.8566688,173.550949 C30.9431781,173.441092 31.0501334,173.408958 31.1775345,173.454545 C31.3686362,173.522926 39.2613628,178.5418 39.4537551,179.786629 C39.5265033,180.206039 39.4986939,180.607585 39.3703269,180.991267 L25.3643158,203.112548 L44.5623252,197.745367 L50.2162429,221.999258 L35.8371448,224.248832 C20.1551301,224.587842 8.63664614,222.17911 1.28169299,217.022635 C-0.141531618,216.137134 0.20734768,213.183904 2.32833088,208.162946 L30.8566688,173.550949 Z" id="Path-4" fill="#E86A6A"></path><path d="M97.9913799,143.858312 C98.0778765,143.758055 98.1847797,143.728697 98.3120894,143.770238 C98.503054,143.832549 106.389346,148.408276 106.581188,149.543869 C106.653746,149.926473 106.625812,150.292817 106.497387,150.642903 L93.095868,170.309441 L104.426208,164.04987 L111.852719,188.621754 L99.8567903,189.370979 C86.2468272,190.177974 75.767451,188.230737 68.4186618,183.52927 C66.285555,182.318316 66.1882033,180.496217 69.4677887,175.446098 C71.6541789,172.079352 81.1620427,161.55009 97.9913799,143.858312 Z" id="Path-4-Copy" fill="#E86A6A" transform="translate(89.375189, 166.650150) scale(-1, 1) rotate(57.000000) translate(-89.375189, -166.650150) "></path><path d="M51.020212,194.705885 C51.8181403,196.035988 53.1156812,197.010766 54.9128348,197.63022 C56.7099885,198.249674 58.7135777,198.559402 60.9236024,198.559402 C59.1398371,199.633334 58.3212134,201.490512 58.4677313,204.130936 C58.6142491,206.771359 56.9888815,205.305213 53.5916285,199.732497 L50.2162429,196.096991 L50.2162429,195.176303 L51.020212,194.705885 Z" id="Path-6" fill="#CFD8EE"></path><path d="M64.6397674,188.031288 C65.2839897,188.844053 66.4798864,189.52573 68.2274573,190.076317 C69.9750283,190.626905 71.9234271,190.90192 74.0726538,190.901362 C72.3377126,191.857138 71.5411811,193.509413 71.6830596,195.858187 C71.824938,198.20696 70.2446224,196.903148 66.9421129,191.946749 L64.5622575,190.541186 L64.8098519,189.720337 L64.6397674,188.031288 Z" id="Path-6-Copy" fill="#CFD8EE" transform="translate(69.317456, 192.511124) scale(-1, 1) rotate(71.000000) translate(-69.317456, -192.511124) "></path><polygon id="Path-5" fill="#D04C4C" points="50.1363248 195.621508 50.0077316 205.645192 55.9679259 203.387179 55.9679259 215.133983 79.0416758 222.47391 69.9171376 211.0754 53.3981389 199.201424"></polygon><polygon id="Path-5-Copy" fill="#D04C4C" transform="translate(77.140475, 201.733125) scale(-1, 1) rotate(86.000000) translate(-77.140475, -201.733125) " points="62.8193964 190.166532 62.1134326 200.262284 66.6964029 196.42084 69.2663118 206.874155 92.1675173 213.299717 82.574958 203.426073"></polygon><path d="M67.2068456,193.16114 C66.5560933,194.91286 66.5560933,196.246438 67.2068456,197.161872 C68.1829741,198.535024 66.8272364,198.785285 67.6333353,200.923504 C67.2697612,200.992264 63.869759,200.513311 60.9236024,198.559402 C59.7102278,198.551895 58.5082744,198.451545 57.3177422,198.258352 L60.3786653,193.847686 L67.2068456,193.16114 Z" id="Path-7" fill="#F7B690"></path></g><polygon id="Fill-107" fill="#2B4690" points="272.684211 121.640884 320.28 121.640884 320.28 91.9723757 272.684211 91.9723757"></polygon><polygon id="Fill-109" fill="#D8E4F7" points="277.642105 115.707182 316.313684 115.707182 316.313684 95.9281768 277.642105 95.9281768"></polygon><polyline id="Fill-110" fill="#ECF4FF" points="277.642105 95.9281768 277.642105 115.707182 316.313684 95.9281768 277.642105 95.9281768"></polyline><polygon id="Fill-111" fill="#F2B900" points="331.187368 145.375691 378.783158 145.375691 378.783158 115.707182 331.187368 115.707182"></polygon><polygon id="Fill-113" fill="#D8E4F7" points="336.145263 139.441989 374.816842 139.441989 374.816842 119.662983 336.145263 119.662983"></polygon><polyline id="Fill-114" fill="#ECF4FF" points="336.145263 119.662983 336.145263 139.441989 374.816842 119.662983 336.145263 119.662983"></polyline><path d="M407.538947,59.3370166 C407.538947,72.9916366 396.440388,84.0607735 382.749474,84.0607735 C369.058559,84.0607735 357.96,72.9916366 357.96,59.3370166 C357.96,45.6823965 369.058559,34.6132597 382.749474,34.6132597 C396.440388,34.6132597 407.538947,45.6823965 407.538947,59.3370166" id="Fill-198" fill="#ED7B7B"></path><path d="M404.564211,59.8320812 C404.564211,71.5742583 395.019242,81.0939227 383.244672,81.0939227 C371.471284,81.0939227 361.926316,71.5742583 361.926316,59.8320812 C361.926316,48.0887251 371.471284,38.5690608 383.244672,38.5690608 C395.019242,38.5690608 404.564211,48.0887251 404.564211,59.8320812" id="Fill-200" fill="#FFFFFE"></path><path d="M400.301207,59.3376244 L400.004519,59.3376244 C400.004519,64.3592461 398.017897,68.9031392 394.805361,72.193754 C391.591638,75.4855845 387.156748,77.5192745 382.253091,77.5192745 C377.350621,77.5192745 372.914544,75.4855845 369.702008,72.193754 C366.488285,68.9031392 364.502849,64.3592461 364.502849,59.3376244 C364.502849,54.314787 366.488285,49.7721096 369.702008,46.4802791 C372.914544,43.1896642 377.350621,41.1547587 382.253091,41.1547587 C387.156748,41.1547587 391.591638,43.1896642 394.805361,46.4802791 C398.017897,49.7721096 400.004519,54.314787 400.004519,59.3376244 L400.597895,59.3376244 C400.597895,48.9600923 392.385575,40.5469613 382.253091,40.5469613 C372.121794,40.5469613 363.909474,48.9600923 363.909474,59.3376244 C363.909474,69.7151564 372.121794,78.1270718 382.253091,78.1270718 C392.385575,78.1270718 400.597895,69.7151564 400.597895,59.3376244 L400.301207,59.3376244" id="Fill-202" fill="#2B4690"></path><path d="M382.749474,43.7935982 L382.749474,58.1007355 L382.891157,58.3391131 L383.178036,58.3480663 L394.490441,52.7154144 C394.634466,52.6437892 394.6895,52.4747984 394.615731,52.3371437 C394.540791,52.2006081 394.36398,52.1468892 394.219955,52.2185144 L383.334941,57.638529 L383.334941,43.7935982 C383.334941,43.6391563 383.203797,43.5138122 383.042207,43.5138122 C382.880618,43.5138122 382.749474,43.6391563 382.749474,43.7935982" id="Fill-203" fill="#2B4690"></path><path d="M384.732632,59.8314917 C384.732632,60.6501692 384.06726,61.3149171 383.245263,61.3149171 C382.42441,61.3149171 381.757895,60.6501692 381.757895,59.8314917 C381.757895,59.011674 382.42441,58.3480663 383.245263,58.3480663 C384.06726,58.3480663 384.732632,59.011674 384.732632,59.8314917" id="Fill-204" fill="#2B4690"></path><path d="M383.741053,43.5138122 C383.741053,44.0596191 383.298034,44.5027624 382.749474,44.5027624 C382.202216,44.5027624 381.757895,44.0596191 381.757895,43.5138122 C381.757895,42.9680052 382.202216,42.5248619 382.749474,42.5248619 C383.298034,42.5248619 383.741053,42.9680052 383.741053,43.5138122" id="Fill-205" fill="#2B4690"></path><path d="M383.68602,41.0414365 C383.68602,41.2847182 383.488696,41.4815193 383.244767,41.4815193 C383.001831,41.4815193 382.804506,41.2847182 382.804506,41.0414365 C382.804506,40.7981547 383.001831,40.6013536 383.244767,40.6013536 C383.488696,40.6013536 383.68602,40.7981547 383.68602,41.0414365" id="Fill-206" fill="#2B4690"></path><path d="M396.447269,46.2975836 C396.275726,46.468672 395.996101,46.468672 395.823566,46.2975836 C395.652023,46.1255062 395.652023,45.8466222 395.823566,45.6755338 C395.996101,45.5034565 396.275726,45.5034565 396.447269,45.6755338 C396.619804,45.8466222 396.619804,46.1255062 396.447269,46.2975836" id="Fill-207" fill="#2B4690"></path><path d="M400.102105,60.2710801 C399.858177,60.2710801 399.660853,60.074279 399.660853,59.8319862 C399.660853,59.5887044 399.858177,59.3919033 400.102105,59.3919033 C400.346034,59.3919033 400.543358,59.5887044 400.543358,59.8319862 C400.543358,60.074279 400.346034,60.2710801 400.102105,60.2710801" id="Fill-208" fill="#2B4690"></path><path d="M395.823566,72.999241 C395.652023,72.8271637 395.652023,72.5482797 395.823566,72.3771913 C395.996101,72.205114 396.275726,72.205114 396.447269,72.3771913 C396.619804,72.5482797 396.619804,72.8271637 396.447269,72.999241 C396.275726,73.1703294 395.996101,73.1703294 395.823566,72.999241" id="Fill-209" fill="#2B4690"></path><path d="M382.804506,76.6431519 C382.804506,76.4008591 383.001831,76.204058 383.244767,76.204058 C383.488696,76.204058 383.68602,76.4008591 383.68602,76.6431519 C383.68602,76.8864337 383.488696,77.0832348 383.244767,77.0832348 C383.001831,77.0832348 382.804506,76.8864337 382.804506,76.6431519" id="Fill-210" fill="#2B4690"></path><path d="M370.043381,72.3771913 C370.214924,72.205114 370.494549,72.205114 370.666093,72.3771913 C370.838627,72.5482797 370.838627,72.8271637 370.666093,72.999241 C370.494549,73.1703294 370.214924,73.1703294 370.043381,72.999241 C369.870846,72.8271637 369.870846,72.5482797 370.043381,72.3771913" id="Fill-211" fill="#2B4690"></path><path d="M364.405759,59.3919033 C364.648696,59.3919033 364.84602,59.5887044 364.84602,59.8319862 C364.84602,60.074279 364.648696,60.2710801 364.405759,60.2710801 C364.161831,60.2710801 363.964506,60.074279 363.964506,59.8319862 C363.964506,59.5887044 364.161831,59.3919033 364.405759,59.3919033" id="Fill-212" fill="#2B4690"></path><path d="M370.666093,45.6755338 C370.838627,45.8466222 370.838627,46.1255062 370.666093,46.2975836 C370.494549,46.468672 370.214924,46.468672 370.043381,46.2975836 C369.870846,46.1255062 369.870846,45.8466222 370.043381,45.6755338 C370.214924,45.5034565 370.494549,45.5034565 370.666093,45.6755338" id="Fill-213" fill="#2B4690"></path><path d="M395.64,53.4033149 C395.64,53.9491219 395.195679,54.3922652 394.648421,54.3922652 C394.101163,54.3922652 393.656842,53.9491219 393.656842,53.4033149 C393.656842,52.8575079 394.101163,52.4143646 394.648421,52.4143646 C395.195679,52.4143646 395.64,52.8575079 395.64,53.4033149" id="Fill-214" fill="#2B4690"></path></g></g></g></svg>