<svg xmlns="http://www.w3.org/2000/svg" xmlns:xlink="http://www.w3.org/1999/xlink" width="28px" height="23px" viewBox="0 0 28 23"><title>Hand_on_love_icon</title><desc>Created with Sketch.</desc><g id="Welcome" stroke="none" stroke-width="1" fill="none" fill-rule="evenodd"><g id="40_HOURS" transform="translate(-440.000000, -6118.000000)" fill="#5D7FFF" fill-rule="nonzero"><path d="M441.98047,6133.9311 L442.098339,6134.01723 L447.991777,6138.3813 L446.135344,6140.7643 C445.925799,6140.99399 445.599841,6141.06488 445.323036,6140.93665 L445.221861,6140.87915 L440.241906,6137.20415 C440.003221,6136.99743 439.931616,6136.67443 440.070053,6136.4026 L440.124037,6136.31411 L441.98047,6133.9311 Z M467.557992,6128.33247 C467.852664,6128.61958 468,6129.02153 468,6129.4522 C467.974216,6129.82903 467.813068,6130.16189 467.536295,6130.41233 L467.410656,6130.5145 L458.393696,6137.3477 C457.604881,6137.93075 456.64031,6138.24471 455.639043,6138.19923 L455.388042,6138.18032 L449.229399,6137.57739 L442.92342,6132.92622 L449.023129,6128.64829 C449.633099,6128.23485 450.338544,6128.00746 451.075018,6127.98705 L451.32157,6127.98794 L458.6589,6128.24634 C459.012507,6128.24634 459.336646,6128.38989 459.572383,6128.64829 C459.808121,6128.90669 459.92599,6129.22251 459.896522,6129.56704 C459.869322,6130.09709 459.515716,6130.55374 458.997941,6130.71119 L458.865171,6130.74419 L458.570499,6130.80161 C457.231846,6131.07231 455.849895,6131.25864 454.461758,6131.34251 L453.767346,6131.37583 L452.382388,6131.43325 C451.969848,6131.43325 451.645709,6131.80649 451.645709,6132.20845 C451.645709,6132.5769 451.942836,6132.87298 452.332816,6132.91977 L452.441323,6132.92622 L453.826281,6132.8688 C455.291221,6132.81958 456.734512,6132.66489 458.174711,6132.40473 L458.894638,6132.26587 L459.18931,6132.20845 C460.398804,6131.96179 461.312957,6130.98266 461.44482,6129.79543 L461.458283,6129.62446 L461.458283,6129.30864 L466.025698,6127.93052 C466.556108,6127.75825 467.174919,6127.93052 467.557992,6128.33247 Z M462.96111,6123.33677 C463.874593,6123.6813 464.552339,6124.45649 464.64074,6125.43267 C464.660385,6125.49009 464.666933,6125.54751 464.669116,6125.60493 L464.670207,6125.69106 L464.670207,6126.92563 L461.016276,6128.01665 L460.839472,6128.07407 C460.751071,6127.93052 460.662669,6127.81567 460.574268,6127.72954 C460.142082,6127.25581 459.536572,6126.95096 458.893922,6126.92555 L458.717835,6126.92563 L456.684598,6126.8395 L456.684598,6125.43267 C456.773,6124.45649 457.450745,6123.6813 458.364228,6123.33677 C459.012507,6123.82485 459.808121,6124.11196 460.662669,6124.11196 C461.517218,6124.11196 462.312832,6123.82485 462.96111,6123.33677 Z M446.430016,6119.05884 C447.314032,6117.79556 449.082063,6117.652 450.142882,6118.6856 L450.142882,6118.6856 L450.702759,6119.23111 L451.203701,6118.74302 C451.999315,6117.96782 453.295871,6117.79556 454.238822,6118.39849 C455.535378,6119.25982 455.682714,6120.98247 454.621895,6122.01607 L454.621895,6122.01607 L450.909029,6125.63364 C450.761693,6125.74849 450.555423,6125.74849 450.437554,6125.63364 L450.437554,6125.63364 L446.783622,6122.01607 C445.988008,6121.24087 445.811205,6119.97759 446.430016,6119.05884 Z M460.662669,6118.02525 C461.99716,6118.02525 463.078979,6119.0793 463.078979,6120.37954 C463.078979,6121.67978 461.99716,6122.73384 460.662669,6122.73384 C459.328178,6122.73384 458.24636,6121.67978 458.24636,6120.37954 C458.24636,6119.0793 459.328178,6118.02525 460.662669,6118.02525 Z" id="Hand_on_love_icon"></path></g></g></svg>