<svg xmlns="http://www.w3.org/2000/svg" xmlns:xlink="http://www.w3.org/1999/xlink" id="Layer_1" x="0px" y="0px" viewBox="0 0 736.2 695" style="enable-background:new 0 0 736.2 695;" xml:space="preserve"><style type="text/css">	.st0{fill:url(#SVGID_1_);}	.st1{fill:url(#SVGID_00000087394466016191713810000011511827811341323910_);}	.st2{fill:url(#SVGID_00000126289452083960502430000008135105937827458474_);}	.st3{fill:url(#SVGID_00000064316904416696073320000016551862711775669939_);}	.st4{fill:#F1F1F1;}	.st5{fill:url(#SVGID_00000103227357226055727280000005179272804791298459_);}	.st6{fill:url(#SVGID_00000035490782420683208660000011992251431764148915_);}	.st7{fill:url(#SVGID_00000167381638463906154260000012517104309411805356_);}	.st8{fill:url(#SVGID_00000099643278545428788720000000864886215014235818_);}	.st9{fillRule:evenodd;clip-rule:evenodd;fill:#EAEFF8;}	.st10{fillRule:evenodd;clip-rule:evenodd;fill:#D2DFEE;}	.st11{fillRule:evenodd;clip-rule:evenodd;fill:#020D5B;}	.st12{fillRule:evenodd;clip-rule:evenodd;fill:#518CDC;}	.st13{fillRule:evenodd;clip-rule:evenodd;fill:#EFF9FC;}	.st14{fillRule:evenodd;clip-rule:evenodd;fill:#25367D;}	.st15{fillRule:evenodd;clip-rule:evenodd;fill:#A6C3EA;}	.st16{fillRule:evenodd;clip-rule:evenodd;fill:url(#SVGID_00000169551448743880441350000012377474280476324532_);}	.st17{fillRule:evenodd;clip-rule:evenodd;fill:#FFE2DC;}	.st18{fillRule:evenodd;clip-rule:evenodd;fill:#71AFED;}	.st19{fillRule:evenodd;clip-rule:evenodd;fill:#A4D0FC;}	.st20{fillRule:evenodd;clip-rule:evenodd;fill:#61A0E0;}	.st21{fillRule:evenodd;clip-rule:evenodd;fill:#87BEF5;}	.st22{fillRule:evenodd;clip-rule:evenodd;fill:#FEFEFE;}	.st23{fillRule:evenodd;clip-rule:evenodd;fill:url(#SVGID_00000023998714556062835130000010034666294369613985_);}	.st24{fillRule:evenodd;clip-rule:evenodd;fill:url(#SVGID_00000046328881467565581530000008911512941633704093_);}	.st25{fillRule:evenodd;clip-rule:evenodd;fill:url(#SVGID_00000088103741738786346700000013334398417869241494_);}	.st26{fillRule:evenodd;clip-rule:evenodd;fill:url(#SVGID_00000085234713644587962900000013915235965584040084_);}	.st27{fillRule:evenodd;clip-rule:evenodd;fill:#FBFFF8;}	.st28{fillRule:evenodd;clip-rule:evenodd;fill:#E0FFCC;}	.st29{fillRule:evenodd;clip-rule:evenodd;fill:#CCFFAB;}	.st30{fillRule:evenodd;clip-rule:evenodd;fill:#A2DD7C;}	.st31{fillRule:evenodd;clip-rule:evenodd;fill:#D9FFC0;}	.st32{fillRule:evenodd;clip-rule:evenodd;fill:#F2FCEB;}	.st33{fillRule:evenodd;clip-rule:evenodd;fill:url(#SVGID_00000109009178234065883700000006244165343969697922_);}	.st34{fillRule:evenodd;clip-rule:evenodd;fill:url(#SVGID_00000119809554524129715750000008030468962629259936_);}	.st35{fillRule:evenodd;clip-rule:evenodd;fill:url(#SVGID_00000117662773174755006750000009191674198035788201_);}	.st36{fillRule:evenodd;clip-rule:evenodd;fill:url(#SVGID_00000077320754918695471060000012031305767910780044_);}	.st37{fillRule:evenodd;clip-rule:evenodd;fill:url(#SVGID_00000083779563729669255540000007629933144573354419_);}	.st38{fillRule:evenodd;clip-rule:evenodd;fill:url(#SVGID_00000018206260228808112010000000009971439895791019_);}	.st39{fillRule:evenodd;clip-rule:evenodd;fill:url(#SVGID_00000080170721602306153220000008997458507889488795_);}	.st40{fillRule:evenodd;clip-rule:evenodd;fill:#FFB27D;}	.st41{fillRule:evenodd;clip-rule:evenodd;fill:#09347F;}	.st42{fillRule:evenodd;clip-rule:evenodd;fill:#284191;}	.st43{fillRule:evenodd;clip-rule:evenodd;fill:url(#SVGID_00000003063901965237743600000009222748466383102594_);}	.st44{fillRule:evenodd;clip-rule:evenodd;fill:#075691;}	.st45{fillRule:evenodd;clip-rule:evenodd;fill:#FFFBFA;}	.st46{fillRule:evenodd;clip-rule:evenodd;fill:#212121;}	.st47{fillRule:evenodd;clip-rule:evenodd;fill:#F08261;}	.st48{fillRule:evenodd;clip-rule:evenodd;fill:#1E77D1;}	.st49{opacity:0.35;}	.st50{fillRule:evenodd;clip-rule:evenodd;fill:#FFFFFF;}	.st51{fillRule:evenodd;clip-rule:evenodd;fill:url(#SVGID_00000176028684507502941520000009574374225764165807_);}	.st52{fillRule:evenodd;clip-rule:evenodd;fill:#BBDBFA;}	.st53{fillRule:evenodd;clip-rule:evenodd;fill:#4567C6;}	.st54{fillRule:evenodd;clip-rule:evenodd;fill:#4F8ECC;}	.st55{fillRule:evenodd;clip-rule:evenodd;fill:#F58B67;}	.st56{fill:#284191;}	.st57{fillRule:evenodd;clip-rule:evenodd;fill:#125AA3;}	.st58{fill:#FC9774;}	.st59{fillRule:evenodd;clip-rule:evenodd;fill:#FC9774;}	.st60{fillRule:evenodd;clip-rule:evenodd;fill:#ED5D1F;}	.st61{fillRule:evenodd;clip-rule:evenodd;fill:#F57A44;}	.st62{fillRule:evenodd;clip-rule:evenodd;fill:#FBBFA8;}	.st63{fillRule:evenodd;clip-rule:evenodd;fill:#F0F7FE;}	.st64{fillRule:evenodd;clip-rule:evenodd;fill:#3C76C5;}	.st65{fillRule:evenodd;clip-rule:evenodd;fill:#00A2ED;}	.st66{fillRule:evenodd;clip-rule:evenodd;fill:#0F112B;}	.st67{fillRule:evenodd;clip-rule:evenodd;fill:#131730;}	.st68{fillRule:evenodd;clip-rule:evenodd;fill:#FFC098;}	.st69{fillRule:evenodd;clip-rule:evenodd;fill:#FAB488;}	.st70{fillRule:evenodd;clip-rule:evenodd;fill:#116DC0;}	.st71{fillRule:evenodd;clip-rule:evenodd;fill:#0F61AB;}	.st72{fillRule:evenodd;clip-rule:evenodd;fill:#C8D3E3;}	.st73{filter:url(#Adobe_OpacityMaskFilter);}			.st74{mask:url(#mask-4_00000114069269611334150730000015318587990550916275_);fillRule:evenodd;clip-rule:evenodd;fill:url(#Fill-193_00000073715232247109147210000016959420404458499243_);}	.st75{fillRule:evenodd;clip-rule:evenodd;fill:#E26229;}	.st76{fillRule:evenodd;clip-rule:evenodd;fill:#EEEFEB;}	.st77{fillRule:evenodd;clip-rule:evenodd;fill:#DEDED7;}	.st78{filter:url(#Adobe_OpacityMaskFilter_00000104688205228073196860000013376175394988908465_);}			.st79{mask:url(#mask-7_00000141438815608268228110000000887762000982044858_);fillRule:evenodd;clip-rule:evenodd;fill:url(#Fill-200_00000070082383986562587160000003426323555420574623_);}	.st80{fillRule:evenodd;clip-rule:evenodd;fill:#5C1A1B;}	.st81{filter:url(#Adobe_OpacityMaskFilter_00000160883574252254186500000016924980618021491349_);}			.st82{mask:url(#mask-10_00000121988165155631685680000017419792362227295649_);fillRule:evenodd;clip-rule:evenodd;fill:url(#Fill-207_00000029739736724838793960000009700168101643845817_);}	.st83{fillRule:evenodd;clip-rule:evenodd;fill:url(#Fill-290_00000158751597258063651260000005814925564166710966_);}	.st84{fillRule:evenodd;clip-rule:evenodd;fill:#FFFFFE;}	.st85{fillRule:evenodd;clip-rule:evenodd;fill:#22407A;}	.st86{fillRule:evenodd;clip-rule:evenodd;fill:#2B478B;}	.st87{fillRule:evenodd;clip-rule:evenodd;fill:#FCFCFC;}	.st88{filter:url(#Adobe_OpacityMaskFilter_00000162311015812858167690000001471741924156545672_);}	.st89{mask:url(#mask-16_00000143613827844762587080000002783720800558103215_);fill:none;}	.st90{fillRule:evenodd;clip-rule:evenodd;fill:#F9B589;}	.st91{filter:url(#Adobe_OpacityMaskFilter_00000131351797997839677270000003525575087163454083_);}	.st92{mask:url(#mask-18_00000172398814349593987470000007567347083002353310_);fill:none;}	.st93{fillRule:evenodd;clip-rule:evenodd;fill:#E6F4FF;}	.st94{fillRule:evenodd;clip-rule:evenodd;fill:#DECBC4;}	.st95{fillRule:evenodd;clip-rule:evenodd;fill:#5D676C;}	.st96{fillRule:evenodd;clip-rule:evenodd;fill:url(#SVGID_00000106145575896708765340000000445567772975886234_);}	.st97{fillRule:evenodd;clip-rule:evenodd;fill:url(#SVGID_00000183248238113021878440000015733994973595968947_);}	.st98{fillRule:evenodd;clip-rule:evenodd;fill:url(#SVGID_00000042008426314681487990000013299937109004575419_);}	.st99{fillRule:evenodd;clip-rule:evenodd;fill:#F3FAFF;}	.st100{fill:#4F8ECC;}	.st101{fillRule:evenodd;clip-rule:evenodd;fill:#274887;}	.st102{fillRule:evenodd;clip-rule:evenodd;fill:#0F1429;}	.st103{fillRule:evenodd;clip-rule:evenodd;fill:#F4FAFB;}	.st104{fillRule:evenodd;clip-rule:evenodd;fill:#6EB0D5;}	.st105{fillRule:evenodd;clip-rule:evenodd;fill:#2B2B68;}	.st106{fillRule:evenodd;clip-rule:evenodd;fill:#3973AC;}	.st107{filter:url(#Adobe_OpacityMaskFilter_00000103946001370937067790000007832063727833756800_);}			.st108{mask:url(#mask-4_00000011012973920352312660000017146321368419607213_);fillRule:evenodd;clip-rule:evenodd;fill:url(#Fill-193_00000178900216080079811430000001527637915396634016_);}	.st109{filter:url(#Adobe_OpacityMaskFilter_00000140704932560291762150000012419701362494622131_);}			.st110{mask:url(#mask-7_00000143581695114578899860000014296355793665718442_);fillRule:evenodd;clip-rule:evenodd;fill:url(#Fill-200_00000025404625931867992940000015327366998116425141_);}	.st111{filter:url(#Adobe_OpacityMaskFilter_00000010998857682950264710000001285421738972605117_);}			.st112{mask:url(#mask-10_00000025436045667135526530000014931042472298205850_);fillRule:evenodd;clip-rule:evenodd;fill:url(#Fill-207_00000083082948955644300980000001762617109347156357_);}	.st113{fillRule:evenodd;clip-rule:evenodd;fill:url(#Fill-290_00000135666285349936465290000002522719321243131817_);}	.st114{filter:url(#Adobe_OpacityMaskFilter_00000134943688595114419250000017856966301330230419_);}	.st115{mask:url(#mask-14_00000180348482956050498580000001527790276543704255_);}	.st116{filter:url(#Adobe_OpacityMaskFilter_00000047058069256914864070000010429418504011072148_);}	.st117{mask:url(#mask-16_00000137836359841112666190000017687938322137332141_);fill:none;}	.st118{filter:url(#Adobe_OpacityMaskFilter_00000019644562169585460790000008119967839699658389_);}	.st119{mask:url(#mask-18_00000054988840059906461680000004445468906286223025_);fill:none;}	.st120{fillRule:evenodd;clip-rule:evenodd;fill:url(#SVGID_00000063617673056381824020000007671831639132746368_);}	.st121{fillRule:evenodd;clip-rule:evenodd;fill:#E7F8DC;}</style><g>	<g>		<rect x="295.3" y="583.2" class="st11" width="179.2" height="65.7"></rect>	</g>	<g>		<g>			<path class="st12" d="M665.4,589.8c0,9.9-8,17.9-17.9,17.9H122.4c-9.9,0-17.9-8-17.9-17.9V244c0-9.9,8-17.9,17.9-17.9h525.1    c9.9,0,17.9,8,17.9,17.9V589.8z"></path>		</g>		<g>			<path class="st13" d="M648.4,520.8c0,9.5-7.7,17.2-17.3,17.2H138.6c-9.5,0-17.2-7.7-17.2-17.2V257.3c0-9.5,7.7-17.2,17.2-17.2    h492.6c9.5,0,17.3,7.7,17.3,17.2V520.8z"></path>		</g>	</g>	<g>		<rect x="267.1" y="637" class="st14" width="234.1" height="11.9"></rect>	</g>	<g>		<rect x="183.8" y="648.9" class="st15" width="405.7" height="20"></rect>	</g></g><g>	<g>		<linearGradient id="SVGID_1_" gradientUnits="userSpaceOnUse" x1="149.9774" y1="476.0668" x2="619.8447" y2="476.0668">			<stop offset="0" style="stop-color:#FF676E"></stop>			<stop offset="1" style="stop-color:#FF9964"></stop>		</linearGradient>		<path style="fillRule:evenodd;clip-rule:evenodd;fill:url(#SVGID_1_);" d="M150,538h193.8h8.7h32.4h32.4h8.7h193.8   c-2.1-7.8-7.4-21.7-14.4-25.5c-1.4-26.9-23.7-48.3-50.9-48.3c-21.2,0-39.4,12.9-47,31.3c-2.2-0.4-4.5-0.5-6.8-0.5   c-13.7,0-25.9,6.6-33.6,16.8c-0.5,0-1.1,0-1.6,0c-7.9,0-15.1,3.1-20.4,8.2c-2.7-1.4-5.7-2.1-9-2.1c-5.2,0-9.9,1.9-13.4,5.1   c-19.4-3.1-27.2-39-23.6-108c-5.1-0.3-9.8-0.5-14.1-0.8c-4.3,0.2-9,0.5-14.1,0.8c3.6,68.9-4.3,104.9-23.6,108   c-3.6-3.2-8.3-5.1-13.4-5.1c-3.2,0-6.3,0.8-9,2.1c-5.3-5.1-12.5-8.2-20.4-8.2c-0.5,0-1.1,0-1.6,0c-7.7-10.2-19.9-16.8-33.6-16.8   c-2.3,0-4.6,0.2-6.8,0.5c-7.7-18.4-25.9-31.3-47-31.3c-27.3,0-49.5,21.4-50.9,48.3C157.4,516.2,152.1,530.2,150,538z"></path>	</g>	<g>		<path class="st17" d="M150,538h193.8h8.7h32.4h32.4h8.7h193.8c-2.1-7.8-7.4-14.3-14.4-18.1c-1.4-26.9-23.7-48.3-50.9-48.3   c-21.2,0-39.4,12.9-47,31.3c-2.2-0.4-4.5-0.5-6.8-0.5c-13.7,0-25.9,6.6-33.6,16.8c-0.5,0-1.1,0-1.6,0c-7.9,0-15.1,3.1-20.4,8.2   c-2.7-1.4-5.7-2.1-9-2.1c-5.2,0-9.9,1.9-13.4,5.1c-19.4-3.1-27.2-39-23.6-108c-5.1-0.3-9.8-0.5-14.1-0.8c-4.3,0.2-9,0.5-14.1,0.8   c3.6,68.9-4.3,104.9-23.6,108c-3.6-3.2-8.3-5.1-13.4-5.1c-3.2,0-6.3,0.8-9,2.1c-5.3-5.1-12.5-8.2-20.4-8.2c-0.5,0-1.1,0-1.6,0   c-7.7-10.2-19.9-16.8-33.6-16.8c-2.3,0-4.6,0.2-6.8,0.5c-7.7-18.4-25.9-31.3-47-31.3c-27.3,0-49.5,21.4-50.9,48.3   C157.4,523.6,152.1,530.2,150,538z"></path>	</g></g><g>	<g>		<path class="st18" d="M455.3,221.9L455,337.5l-147.7-0.3l0.3-115.6c0.1-49.5,14.9-94.8,31.3-129.7c18.5-39.4,38.9-65.6,42.5-70   l0.3-0.4l0.2-0.3c0,0,22.5,27.4,42.5,70.6C440.7,126.9,455.4,172.3,455.3,221.9z"></path>	</g>	<g>		<path class="st19" d="M408.4,221.8l-0.3,115.6l-54.4-0.1l0.3-115.6c0.1-45,4.7-86.5,10.1-119.9c7.3-44.8,16-75.1,17.4-79.9   l0.2-0.6l0.1,0.3c0.9,3.1,9.8,34,17.1,80.4C404.1,135.3,408.5,176.8,408.4,221.8z"></path>	</g>	<g>		<path class="st20" d="M424.4,91.8c-7.7,4.7-16.4,8.1-25.6,10c-5.6,1.2-11.3,1.8-17.3,1.7c-6,0-11.8-0.7-17.5-1.9   c-9-1.9-17.5-5.3-25.1-9.9c18.5-39.4,38.9-65.6,42.5-70l0.2-0.6l0.1,0.3l0.2-0.3C381.9,21.2,404.4,48.6,424.4,91.8z"></path>	</g>	<g>		<path class="st21" d="M398.8,101.9c-5.6,1.2-11.3,1.8-17.3,1.7c-6,0-11.8-0.7-17.5-1.9c7.3-44.8,16-75.1,17.4-79.9l0.2-0.6   l0.1,0.3C382.6,24.6,391.6,55.5,398.8,101.9z"></path>	</g>	<g>		<path class="st13" d="M418.9,173.7c0,20.2-16.4,36.5-36.6,36.4c-20.2,0-36.5-16.4-36.4-36.6c0-20.2,16.4-36.5,36.6-36.4   C402.6,137.2,418.9,153.6,418.9,173.7z"></path>	</g>	<g>		<path class="st20" d="M382.4,143.8c-16.5,0-29.9,13.3-29.9,29.8c0,16.5,13.3,29.9,29.8,29.9c16.5,0,29.9-13.3,29.9-29.8   C412.3,157.2,398.9,143.8,382.4,143.8L382.4,143.8z M382.3,216.8c-23.8-0.1-43.1-19.5-43-43.2c0.1-23.8,19.5-43.1,43.2-43   c23.8,0.1,43.1,19.5,43,43.2C425.5,197.5,406.1,216.8,382.3,216.8z"></path>	</g>	<g>		<path class="st22" d="M405.4,166.4c0,8.1-6.6,14.6-14.6,14.6c-8.1,0-14.6-6.6-14.6-14.6c0-8.1,6.6-14.6,14.6-14.6   C398.9,151.7,405.4,158.3,405.4,166.4z"></path>	</g>	<g>		<path class="st21" d="M478.1,340c0.1-50.9-9.9-92.2-22.3-92.2c-12.4,0-22.6,41.2-22.8,92.1L478.1,340z"></path>	</g>	<g>		<path class="st19" d="M465.8,340c0.1-50.9-4.4-92.2-10.1-92.2c-5.7,0-10.4,41.2-10.5,92.1L465.8,340z"></path>	</g>	<g>					<linearGradient id="SVGID_00000101097414309316596510000010853902077023037577_" gradientUnits="userSpaceOnUse" x1="435.9506" y1="369.843" x2="475.0234" y2="369.843">			<stop offset="0" style="stop-color:#FF676E"></stop>			<stop offset="1" style="stop-color:#FF9964"></stop>		</linearGradient>					<polygon style="fillRule:evenodd;clip-rule:evenodd;fill:url(#SVGID_00000101097414309316596510000010853902077023037577_);" points="   436,343.8 447.3,386.7 451.1,374.3 458.1,395.9 463.2,374.3 467.6,386.7 475,343.8   "></polygon>	</g>	<g>		<polygon class="st17" points="441.1,343.8 449.4,375.4 452.3,366.3 457.4,382.2 461.2,366.3 464.4,375.4 469.9,343.8   "></polygon>	</g>	<g>		<path class="st21" d="M410.8,375.4c0.1-67.1-13.1-121.4-29.4-121.4c-16.4,0-29.8,54.2-30,121.3L410.8,375.4z"></path>	</g>	<g>		<path class="st19" d="M394.6,375.3c0.1-67.1-5.8-121.4-13.3-121.4c-7.5,0-13.7,54.2-13.8,121.3L394.6,375.3z"></path>	</g>	<g>					<linearGradient id="SVGID_00000034080955186494073020000007943819108372333955_" gradientUnits="userSpaceOnUse" x1="355.3454" y1="414.6042" x2="406.8023" y2="414.6042">			<stop offset="0" style="stop-color:#FF676E"></stop>			<stop offset="1" style="stop-color:#FF9964"></stop>		</linearGradient>					<polygon style="fillRule:evenodd;clip-rule:evenodd;fill:url(#SVGID_00000034080955186494073020000007943819108372333955_);" points="   355.3,380.3 370.3,436.8 375.3,420.5 384.5,449 391.2,420.5 397.1,436.8 406.8,380.4   "></polygon>	</g>	<g>		<polygon class="st17" points="362.1,380.3 373.1,421.9 376.8,409.9 383.6,430.9 388.6,409.9 392.9,422 400,380.4   "></polygon>	</g>	<g>		<path class="st21" d="M329.9,339.7c0.1-50.9-9.9-92.2-22.4-92.2c-12.4,0-22.6,41.2-22.8,92.1L329.9,339.7z"></path>	</g>	<g>		<path class="st19" d="M317.7,339.7c0.1-50.9-4.4-92.2-10.1-92.2c-5.7,0-10.4,41.2-10.5,92.1L317.7,339.7z"></path>	</g>	<g>					<linearGradient id="SVGID_00000146470592344048709850000011154510047524094132_" gradientUnits="userSpaceOnUse" x1="287.8107" y1="369.4967" x2="326.8878" y2="369.4967">			<stop offset="0" style="stop-color:#FF676E"></stop>			<stop offset="1" style="stop-color:#FF9964"></stop>		</linearGradient>					<polygon style="fillRule:evenodd;clip-rule:evenodd;fill:url(#SVGID_00000146470592344048709850000011154510047524094132_);" points="   287.8,343.4 299.2,386.3 303,374 309.9,395.6 315.1,374 319.5,386.4 326.9,343.5   "></polygon>	</g>	<g>		<polygon class="st17" points="293,343.4 301.3,375 304.1,365.9 309.3,381.8 313,365.9 316.3,375.1 321.7,343.5   "></polygon>	</g></g><g>	<g>		<path class="st40" d="M154.3,669.7c0.2-1.6-0.4-3.7-0.2-6.2c1.7-19.7,5.4-64.2,5.4-64.2s4.2-35.2,4.5-57.5   c-4.5-0.4-8.9-1.2-13.3-2.3c-9.5-2.4-15.9-6.3-24.9-10.7c-4.9,18.2-14.1,51.6-14.1,51.6s0,7.1-9.4,7.1c-8.3,0-42.8,28.9-49.7,33.2   c0.9,2.1,3.1,4.2,4.1,6.2c11-9,67.5-29.6,67.5-29.6l15.3-38.9c0,0,4.6,47.7,0.9,51.4c-3.7,3.7,6.6,57.1,6.6,59.8   C147.1,670.1,151.5,669.7,154.3,669.7z"></path>	</g>	<g>		<path class="st41" d="M138.5,548.4c0,0,3.3,52.7,1.7,55.8c-1.7,3.1-2.9,8.3-1.7,21.3c1.2,13,5,35.8,5,35.8l12.2,0.4l5-62.2   l4.2-57.7l0.1-1.2l-16.5-12.4L138.5,548.4z"></path>	</g>	<g>		<path class="st41" d="M60,612.4l5.4,9.7c0,0,48.7-16,58.9-23.5c3.9-2.9,20.3-42.4,20.3-42.4l12.9-15.3l0.1-8.5l-27.7-12.2   c0,0-10,11.3-12,15.9c-4.9,11.4-8.3,49-8.3,49s0.4-1.5-8.9,1C91.4,588.7,60,612.4,60,612.4z"></path>	</g>	<g>		<path class="st42" d="M61.9,624c0,0-3.3-2.1-3.6-3.3c-0.4-1.2,0.5-4.3-0.8-4.9c-1.3-0.7-9.9,2.1-11.2,3.1   c-1.6,1.2-2.2,3.1-1.8,4.3c0.4,1.2,11.8,21.9,14.3,24.6c2.4,2.6,5.4-3.2,3.6-6.8C60.5,637.3,62.6,629.7,61.9,624z"></path>	</g>	<g>		<path class="st42" d="M154.9,664.1c0,0-3.4,1.8-4.7,1.5c-1.2-0.3-3.4-2.6-4.7-1.7c-1.3,0.8-3.1,9.7-2.9,11.3   c0.3,2,1.6,3.4,2.9,3.7c1.3,0.3,24.9,0.6,28.4-0.2c3.5-0.8-0.1-6.3-4.1-6.5C165.8,671.8,160.2,666.2,154.9,664.1z"></path>	</g>	<g>					<linearGradient id="SVGID_00000057125275138024875530000002456896878866099633_" gradientUnits="userSpaceOnUse" x1="199.3091" y1="551.6885" x2="129.8455" y2="456.1337">			<stop offset="0" style="stop-color:#1E77D1"></stop>			<stop offset="1" style="stop-color:#39C0FF"></stop>		</linearGradient>		<path style="fillRule:evenodd;clip-rule:evenodd;fill:url(#SVGID_00000057125275138024875530000002456896878866099633_);" d="   M223.9,496.2c-16.9,16.9-25.8,27-40.8,32c-3.2-2.9-5.4-7-6.5-12.3c-3.7,8.3-7.6,16.6-11.7,24.7c-8.5,2.7-20.9,2-37.3-2.3l-2-7.6   c-1.2-0.9-4.9-0.8-7.3,0.8c-7.8-14.7-11.4-28.2-11.7-40.2c10.9-20.4,21.4-35.7,31.4-45.8c3.8-2.4,10.6-3.4,20.4-2.9   c11,12.1,17.6,15.4,20,9.8c3.4,3.2,7.7,7.9,12.8,14.3c3.6,6.7,3.1,20.3-1.6,40.7c9.8-6.4,19.8-12.5,30.9-16.9   C222,491.6,223.2,493.6,223.9,496.2L223.9,496.2z M125.6,523.6c10-11.3,15.2-28.4,15.6-51.4c-6.4,8.5-13,16.8-19.7,24.8   C123.8,499.6,125.1,508.5,125.6,523.6z"></path>	</g>	<g>		<path class="st44" d="M176.6,515.8c5.3-12.7,9-23.4,11.1-32.2c-3.8,18.9-5,31.9-3.8,39.2c2.4,1,5.9,0.7,10.8-0.3   c-3.7,2.3-7.5,4.3-11.7,5.6C179.9,525.3,177.7,521.2,176.6,515.8z"></path>	</g>	<g>		<path class="st44" d="M125.7,530.5c0.1-2.2,0.1-4.5-0.1-7c10-11.3,15.2-28.4,15.6-51.4c4.2,22.9-0.8,42.9-15,60.1L125.7,530.5z"></path>	</g>	<g>		<path class="st45" d="M163.7,460.6c-3.2-6-5-11.6-5.5-16.7c1.5-1.6,3.5-3,4.7-3.3c3.7,6.8,6.2,10.8,8.9,13.5c0,0,0,0,0,0   c0.1-0.1,0.2-0.3,0.2-0.4c1.6-2.6,3.7-5.6,5.1-8.8c1.2,1.5,1.3,3.2,1.7,5.1c0.4,3.9-0.3,8.3-2.1,13.2c-0.6-1.6-1.3-3.1-2-4.5   c-0.9-1.8-2-3.3-3.1-4.6c-1.4,0.7-2.9,1.6-4.4,2.8C166.2,458,165,459.2,163.7,460.6z"></path>	</g>	<g>		<path class="st40" d="M163,440.7c1.1-0.8,2.1-1.9,3.1-3.5c-0.1-1,0-2.2,0-3.6c-4.6-5.6-4.5-8.7,0.2-9.4c0.7,0.7,1.3,2.5,1.9,5.3   c1,0.3,0.8-2.6,1.6-3.4c0-4.5,1.4-5.4,1.8-8.1c4.1-3.4,11.5-2.6,19.9,1.1c-1.4,8.3-4.1,28.1-13.7,24.9l-0.4,1   c-1.4,3.2-3.5,6.2-5.1,8.8l-0.3,0.4C169.2,451.5,166.7,447.5,163,440.7z"></path>	</g>	<g>		<path class="st46" d="M190.8,419.6c-8.4-3.7-15.2-5-19.3-1.7c-0.4,2.7-1.5,4.1-1.6,8.5c-0.8,0.8-0.8,3.3-1.8,3   c-0.5-2.8-1.2-4.6-1.9-5.3c-4.7,0.7-4.8,3.8-0.2,9.4c-0.1,1.4-0.1,2.7,0,3.6c-8.4-8.6-9-24,2-28.2c5-11.3,19.1,4.1,29.3,0.9   C199.4,415.6,193.4,420.3,190.8,419.6z"></path>	</g>	<g>		<path class="st47" d="M171.2,441.3c1.5,0.9,4.6,2.2,6.4,2.6l-0.4,1c-0.3,0.6-0.6,1.2-0.9,1.8c0,0,0,0-0.1,0   C173.8,445,172,443.2,171.2,441.3z"></path>	</g>	<g>		<path class="st46" d="M166,412.8c1.2-1,1.5-2,1-3.1c-1.9-1-3.6-0.9-5.2,0.1C162.8,409.9,164.2,410.8,166,412.8z"></path>	</g>	<g>		<path class="st46" d="M169.1,409.7c-1.1,0.7-1.9,0.7-2.4,0c0-1.8,0.7-3.3,2-4.4C168.2,406.1,168.4,407.6,169.1,409.7z"></path>	</g>	<g>		<path class="st46" d="M184.7,417.3c0.8-2.5,2.2-3.8,4.2-3.8c2.8,2.4,4,5.2,3.4,8.5C191.7,420.4,189.1,418.9,184.7,417.3z"></path>	</g>	<g>		<path class="st46" d="M181.3,406.7c0.1,1.2-0.8,2.5,0.7,3.2c-0.2,5,5.2-0.4,5.6-2.1C186.7,408.1,184.6,407.8,181.3,406.7z"></path>	</g>	<g>		<g>			<path class="st48" d="M360.5,408c-14.4-27.6-48.5-38.3-76.1-23.9c-24.9,13-36,42-27.4,67.9l-0.4,0.2c-1.6,0.8-2.2,2.8-1.4,4.3    l5.3,10.1c0.8,1.6,2.8,2.2,4.3,1.4l0.4-0.2c16.3,21.9,46.4,29.3,71.4,16.3C364.3,469.7,375,435.6,360.5,408L360.5,408z     M353.6,411.7c12.4,23.8,3.2,53.1-20.5,65.5c-23.8,12.4-53.1,3.2-65.5-20.5c-12.4-23.8-3.2-53.1,20.5-65.5    C311.8,378.7,341.1,387.9,353.6,411.7z"></path>		</g>		<g>							<rect x="230.8" y="462.6" transform="matrix(0.8863 -0.4632 0.4632 0.8863 -189.0222 166.8326)" class="st20" width="28.8" height="11.4"></rect>		</g>		<g>			<path class="st48" d="M247,473.8l-5.3-10.1c-0.8-1.6-2.8-2.2-4.3-1.4l-23.3,12.2l0,0l-50.2,26.3l0,0L150,508l-50.2,26.3    c-1.6,0.8-2.2,2.8-1.4,4.3l5.3,10.1c0.8,1.6,2.8,2.2,4.3,1.4l23.3-12.2l0,0l50.2-26.3l13.9-7.3h0l50.2-26.3    C247.2,477.3,247.9,475.4,247,473.8z"></path>		</g>		<g class="st49">			<path class="st50" d="M288.1,391.2c-23.8,12.4-32.9,41.7-20.5,65.5c12.4,23.8,41.7,32.9,65.5,20.5c23.8-12.4,32.9-41.7,20.5-65.5    C341.1,387.9,311.8,378.7,288.1,391.2z"></path>		</g>		<g class="st49">			<path class="st22" d="M288.4,477.4l70.7-42.8c0-1.5,0-2.9-0.2-4.3l-74.3,45C285.8,476,287.1,476.7,288.4,477.4L288.4,477.4z     M270,460.8c-4.2-6.4-6.9-13.7-7.7-21.6l75.1-45.5c6.5,4.3,11.8,10.1,15.6,16.8L270,460.8L270,460.8z M281.6,473.1    c-2.3-1.7-4.5-3.7-6.5-5.8l81.2-49.2c1,2.7,1.7,5.5,2.1,8.4L281.6,473.1z"></path>		</g>	</g>	<g>		<path class="st40" d="M119.2,537.3L119.2,537.3c-0.1-3.3-0.7-6.3-1.7-8.7c1.6-2.5,4.8-4.1,6.3-3.8l3.9,4.7   c4.2,2.4,7.4,4.6,9.6,6.7c-2.6,0.7-4.5,0.4-5.9-0.9c1.4,2.5,2.1,4.1,1.9,4.7c-5.5,4.4-9.2,5.9-11.2,4.7   C120,541.5,119.1,539,119.2,537.3z"></path>	</g>	<g>					<linearGradient id="SVGID_00000116230636231967892260000005605040109218301370_" gradientUnits="userSpaceOnUse" x1="123.9957" y1="542.5081" x2="114.5807" y2="496.5276">			<stop offset="0" style="stop-color:#1E77D1"></stop>			<stop offset="1" style="stop-color:#35B6F9"></stop>		</linearGradient>		<path style="fillRule:evenodd;clip-rule:evenodd;fill:url(#SVGID_00000116230636231967892260000005605040109218301370_);" d="   M107.7,500.7c1.5,9.5,5,19.8,10.8,30.7c1.9-1.3,6.5-4.3,7.9-3.5c-0.9-2-0.5-1.7-0.7-4.2c-0.3-11-1.1-18.6-2.4-23   C119.1,500.9,114,500.9,107.7,500.7z"></path>	</g>	<g>		<path class="st40" d="M223.9,496.2c0.5-0.5,2.6-2.6,4.8-4.6c3.1-0.1,7.4-3,8.1-5.4c0.4-3.3,1.7-4.5-0.8-6.6   c-1-0.1-3.2,1.2-5.4,3.8c0.1,2.3-2.4,3.1-3.9,3.9c-2,1.4-0.6,0.3-2.9,1.8c-1,0.9-2.4,1.3-3,1.8C222.1,492,223.2,493.5,223.9,496.2   z"></path>	</g></g><g>	<g>		<path class="st40" d="M526.9,383c-2,3.1-2.7,3.4-3.1,3.6c-0.9-1-1.3-2.1-1-3.6c0-0.2-1.4,0.4-1-0.7c-0.2,0.2,1.6-1.4,1.9-1.4   c0.7-0.4,1.8-0.6,2-1c0.2-0.4,0.1-1.4,0.3-1.8c0.2-0.4,0.8-0.8,1.3-0.6c0.5,0.2,0.4,2.6,0.4,2.6S527.7,381.9,526.9,383z"></path>	</g>	<g>		<polygon class="st55" points="523.4,381.3 523.4,381.3 523.4,381.3   "></polygon>	</g>	<g>		<path class="st40" d="M591.5,406.8c0.1,0.7,0.2,1.3,0.3,1.8c1.4-0.2,3.9,1.5,4.8,0.5c0.5-0.5-2.4-4.3-2.6-4.6   c0-0.5,0.5-1.3,0.5-1.7c0-0.5-0.3-1.1-0.9-1.2c-0.6-0.1-1.5,2.1-1.5,2.1S591.3,405.4,591.5,406.8z"></path>	</g></g><g>	<g>					<rect x="120.2" y="322.4" transform="matrix(0.9585 -0.2849 0.2849 0.9585 -87.4324 50.4596)" class="st62" width="18.9" height="6.5"></rect>	</g>	<g>		<path class="st61" d="M136.6,316.5c0.9-0.8,1.4-2,1-3.4l-0.1-0.4c-3.4-12.3,6.3-19,3.2-32.8c-0.2-1-0.5-2-0.9-3   c-4.7-9.8-16.6-13.8-27.6-10.5c-12.5,3.7-20.8,15.9-16.2,28.4c4.7,12.9,16,13.2,19.7,25c0.4,1.3,2.2,2.4,3.3,1.9L136.6,316.5z"></path>	</g>	<g>		<path class="st62" d="M135.9,315.2l-3.5,5.5l-9.3,0.5l-4.6-0.8l-0.1,0c-0.4,0.1-1.3-0.6-1.4-1c-1.3-4.3-3.6-7.3-6.9-10.3   c-2.4-2.1-4.9-4-7.2-6.2c-2.6-2.5-4.4-5.3-5.7-8.7c-1.5-4.1-1.6-8.4-0.1-12.6c2.4-6.9,8.5-11.9,15.4-13.9   c9.7-2.9,21.1,0.2,25.8,9.7c0.3,0.9,0.6,1.8,0.8,2.7c0.8,3.7,0.8,7.1-0.1,10.8c-0.7,3.2-2,6.3-2.9,9.5c-1.2,4.3-1.4,8.2-0.2,12.6   l0.1,0.4C136.4,314.1,136.3,314.7,135.9,315.2z"></path>	</g>	<g>		<path class="st17" d="M130.3,318.7l-1.2,2.1l-5.9,0.3l-4.6-0.8l-0.1,0c-0.4,0.1-1.3-0.6-1.4-1c-1.3-4.3-3.6-7.3-6.9-10.3   c-2.4-2.1-4.9-4-7.2-6.2c-2.6-2.5-4.4-5.3-5.7-8.7c-1.5-4.1-1.6-8.4-0.1-12.6c2.4-6.9,8.5-11.9,15.4-13.9c2-0.6,4.2-1,6.3-1   c5.4,1.6,10.3,5.3,13,11.2c0.4,1,0.7,2,0.9,3c0.9,4,1,7.7,0.2,11.7c-0.7,3.5-1.8,6.8-2.6,10.2c-1.1,4.7-1.2,8.9,0.1,13.6l0.1,0.5   C130.8,317.6,130.7,318.2,130.3,318.7z"></path>	</g>	<g>		<path class="st61" d="M121.3,333.2c0.5,1.3,2,2.1,3.4,1.7l2.1-0.6l1.2,1.1c0.7,0.6,1,0.6,1.9,0.3l4.9-1.5c0.9-0.3,1.2-0.4,1.4-1.3   l0.4-1.6l2.1-0.6c1.4-0.4,2.2-1.8,2-3.2l-0.3-1c-0.2-0.3-0.5-0.4-0.9-0.3l-18,5.4c-0.3,0.1-0.6,0.4-0.5,0.8c0,0,0,0.1,0,0.1   L121.3,333.2L121.3,333.2z M138,321.4l-17.5,5.2c-0.5,0.2-0.8,0.7-0.7,1.2l0.4,1.5c0.2,0.5,0.7,0.8,1.2,0.7l17.5-5.2   c0.5-0.2,0.8-0.7,0.7-1.2l-0.4-1.5C139.1,321.6,138.5,321.3,138,321.4L138,321.4z M136.5,316.5l-17.5,5.2   c-0.5,0.2-0.9,0.7-0.7,1.3l0.5,1.6c0.2,0.5,0.8,0.9,1.3,0.7l17.5-5.2c0.6-0.2,0.9-0.8,0.7-1.3l-0.5-1.6   C137.6,316.7,137,316.3,136.5,316.5z"></path>	</g>	<g>		<path class="st50" d="M130.5,318.3l-4.8-23l2.7-0.8c1.2-0.3,2.1-1.1,2.6-2.1l0,0c0.5-1,0.7-2.2,0.4-3.3c-0.3-1.2-1.1-2.1-2.1-2.6   c-1-0.5-2.2-0.7-3.3-0.4c-1.1,0.3-2,1.1-2.5,2.1c-0.5,1-0.7,2.2-0.5,3.3l0.5,2.5l-8.2,2.4l-0.9-2.3c-0.4-1.1-1.2-2-2.2-2.5   c-1-0.5-2.1-0.7-3.2-0.3c-1.2,0.3-2.1,1.1-2.6,2.1l0,0c-0.5,1-0.7,2.2-0.4,3.3c0.3,1.2,1.1,2.1,2.1,2.6c1,0.5,2.2,0.7,3.3,0.4   l2.7-0.8l8.5,21.9l1.9-0.6l-8.5-21.9l7.9-2.3l4.8,23L130.5,318.3L130.5,318.3z M125.3,293.3l-0.5-2.3c-0.1-0.7,0-1.4,0.3-2   c0.3-0.5,0.7-0.9,1.4-1.1c0.6-0.2,1.3-0.1,1.8,0.2c0.5,0.3,1,0.8,1.2,1.4c0.2,0.6,0.1,1.3-0.2,1.8l0,0c-0.3,0.5-0.8,1-1.4,1.2   L125.3,293.3L125.3,293.3z M113.3,296.9l-2.5,0.8c-0.6,0.2-1.3,0.1-1.8-0.2c-0.5-0.3-1-0.8-1.2-1.4c-0.2-0.6-0.1-1.3,0.2-1.8l0,0   c0.3-0.5,0.8-1,1.4-1.2c0.6-0.2,1.2-0.1,1.7,0.2c0.6,0.3,1,0.9,1.3,1.5L113.3,296.9z"></path>	</g>	<g>		<path class="st50" d="M106.2,276.7c0.5-0.4,0.6-1.2,0.2-1.7c-0.4-0.5-1.2-0.6-1.7-0.2c-0.4,0.4-0.8,0.7-1.2,1.1   c-0.4,0.4-0.7,0.8-1.1,1.2c-0.4,0.5-0.4,1.3,0.2,1.7c0.5,0.4,1.3,0.4,1.7-0.2c0.3-0.3,0.6-0.7,0.9-1   C105.6,277.2,105.9,276.9,106.2,276.7L106.2,276.7z M102.2,282c0.3-0.6,0-1.4-0.6-1.6c-0.6-0.3-1.4,0-1.6,0.6   c-0.8,1.8-1.3,3.8-1.5,5.8c-0.1,1.9,0.1,3.9,0.6,5.9c0.2,0.7,0.9,1,1.5,0.8c0.7-0.2,1-0.9,0.8-1.5c-0.5-1.7-0.7-3.4-0.6-5   C101,285.2,101.4,283.5,102.2,282z"></path>	</g>	<g>		<path class="st61" d="M105.2,246L105.2,246c0.6-0.2,1.1,0.2,1.3,0.7l3.8,12.8c0.2,0.6-0.2,1.1-0.7,1.3l0,0   c-0.6,0.2-1.1-0.2-1.3-0.7l-3.8-12.8C104.4,246.8,104.7,246.2,105.2,246L105.2,246z M87.3,323.6L87.3,323.6c0.4,0.4,1.1,0.4,1.5,0   l9.5-9.3c0.4-0.4,0.4-1.1,0-1.5l0,0c-0.4-0.4-1.1-0.4-1.5,0l-9.5,9.3C86.9,322.5,86.9,323.2,87.3,323.6L87.3,323.6z M74.1,304.4   L74.1,304.4c0.2,0.5,0.8,0.8,1.4,0.6l12.5-4.6c0.5-0.2,0.8-0.8,0.6-1.4l0,0c-0.2-0.5-0.8-0.8-1.4-0.6l-12.5,4.6   C74.2,303.3,73.9,303.9,74.1,304.4L74.1,304.4z M71.8,281.6L71.8,281.6c0,0.6,0.4,1.1,1,1.1l13.3,0.9c0.6,0,1.1-0.4,1.1-1l0,0   c0-0.6-0.4-1.1-1-1.1L73,280.6C72.4,280.6,71.9,281,71.8,281.6L71.8,281.6z M82.4,259.8L82.4,259.8c-0.3,0.5-0.3,1.1,0.2,1.5   l10.7,8c0.5,0.3,1.1,0.3,1.5-0.2l0,0c0.3-0.5,0.3-1.1-0.2-1.5l-10.7-8C83.4,259.2,82.7,259.3,82.4,259.8L82.4,259.8z M162.6,301.2   L162.6,301.2c-0.1,0.6-0.7,0.9-1.2,0.8l-13.1-2.6c-0.6-0.1-0.9-0.7-0.8-1.2l0,0c0.1-0.6,0.7-0.9,1.2-0.8l13.1,2.6   C162.4,300.1,162.7,300.7,162.6,301.2L162.6,301.2z M163.2,277.9L163.2,277.9c0.1,0.6-0.2,1.1-0.8,1.3l-13,3   c-0.6,0.1-1.1-0.2-1.3-0.8l0,0c-0.1-0.6,0.2-1.1,0.8-1.3l13-3C162.5,277,163.1,277.4,163.2,277.9L163.2,277.9z M152.6,257.6   L152.6,257.6c0.3,0.5,0.3,1.1-0.2,1.5l-10.7,8c-0.5,0.3-1.1,0.3-1.5-0.2l0,0c-0.3-0.5-0.3-1.1,0.2-1.5l10.7-8   C151.6,257,152.3,257.1,152.6,257.6L152.6,257.6z M131.9,245.1L131.9,245.1c0.5,0.2,0.8,0.8,0.6,1.4l-4.6,12.5   c-0.2,0.5-0.8,0.8-1.4,0.6l0,0c-0.5-0.2-0.8-0.8-0.6-1.4l4.6-12.5C130.7,245.1,131.3,244.9,131.9,245.1z"></path>	</g></g><g>	<g>		<path class="st9" d="M277.8,116.8c-1.1-2.1-1.7-4.6-1.7-7.1c0-2.6,0.6-5,1.7-7.1c0.6-1.1,1.3-2.1,2.1-3.1c0.6-0.7,1.4-1.4,2.1-2   c0.7-0.5,1.4-1,2.1-1.4c0.7-0.4,1.4-0.7,2.1-0.9c0.7-0.2,1.4-0.4,2.1-0.6c0.7-0.1,1.4-0.2,2.1-0.3c0.3,0,0.6,0,1,0   c0.4,0,0.8,0,1.2,0c0.7,0.1,1.4,0.2,2.1,0.3c0.7,0.2,1.4,0.4,2.1,0.6c0.7,0.3,1.4,0.6,2.1,1c0.7,0.4,1.5,0.9,2.1,1.4   c0.8,0.6,1.5,1.3,2.1,2.1c0.8,1,1.5,2.1,2.1,3.2c1,2,1.6,4.3,1.6,6.7c0,2.4-0.6,4.7-1.6,6.7c-0.6,1.2-1.3,2.3-2.1,3.2   c-0.6,0.7-1.3,1.4-2.1,2.1c-0.7,0.5-1.4,1-2.1,1.4c-0.7,0.4-1.4,0.7-2.1,1c-0.7,0.3-1.4,0.5-2.1,0.6c-0.7,0.1-1.4,0.2-2.1,0.3   c-0.4,0-0.8,0-1.2,0c-0.3,0-0.6,0-1,0c-0.7,0-1.4-0.1-2.1-0.3c-0.7-0.1-1.4-0.3-2.1-0.6c-0.7-0.3-1.4-0.6-2.1-0.9   c-0.7-0.4-1.4-0.9-2.1-1.4c-0.8-0.6-1.5-1.3-2.1-2C279.1,118.9,278.4,117.9,277.8,116.8z"></path>	</g>	<g>		<path class="st9" d="M254.6,168c-0.1-0.8-0.2-1.7-0.2-2.5c0-0.9,0.1-1.7,0.2-2.5c0.3-2,1.1-3.9,2.1-5.6c0.6-1,1.3-1.9,2.1-2.7   c0.7-0.7,1.4-1.3,2.1-1.8c0.7-0.5,1.4-0.9,2.1-1.3c0.7-0.3,1.4-0.6,2.1-0.8c0.7-0.2,1.4-0.4,2.1-0.5c0.7-0.1,1.4-0.2,2.1-0.2   l0.4,0c0.6,0,1.2,0,1.7,0.1c0.7,0.1,1.4,0.2,2.1,0.4c0.7,0.2,1.4,0.4,2.1,0.7c0.7,0.3,1.4,0.7,2.1,1.1c0.8,0.5,1.5,1,2.1,1.6   c0.8,0.7,1.5,1.5,2.1,2.3c0.9,1.2,1.6,2.5,2.1,3.8c0.6,1.7,1,3.5,1,5.4c0,1.9-0.3,3.7-1,5.4c-0.5,1.4-1.2,2.7-2.1,3.8   c-0.6,0.8-1.3,1.6-2.1,2.3c-0.7,0.6-1.4,1.1-2.1,1.6c-0.7,0.4-1.4,0.8-2.1,1.1c-0.7,0.3-1.4,0.5-2.1,0.7c-0.7,0.2-1.4,0.3-2.1,0.4   c-0.6,0.1-1.1,0.1-1.7,0.1l-0.4,0c-0.7,0-1.4-0.1-2.1-0.2c-0.7-0.1-1.4-0.3-2.1-0.5c-0.7-0.2-1.4-0.5-2.1-0.8   c-0.7-0.4-1.4-0.8-2.1-1.2c-0.8-0.5-1.5-1.1-2.1-1.8c-0.8-0.8-1.5-1.7-2.1-2.7C255.7,171.9,254.9,170,254.6,168z"></path>	</g>	<g>		<path class="st9" d="M140.4,115.9c-0.9-1.9-1.3-4-1.3-6.3s0.5-4.4,1.3-6.3c0.6-1.2,1.3-2.4,2.1-3.4c0.6-0.8,1.3-1.5,2.1-2.1   c0.7-0.5,1.4-1,2.1-1.5c0.7-0.4,1.4-0.7,2.1-1c0.7-0.3,1.4-0.5,2.1-0.7c0.7-0.2,1.4-0.3,2.1-0.3c0.5,0,0.9-0.1,1.4-0.1h0.7h2.1   h2.1h2.1h2.1h2.1h2.1h2.1h2.1h2.1h2.1h2.1h2.1h2.1h2.1h2.1h2.1h2.1h2.1h2.1h2.1h2.1h2.1h2.1h2.1h2.1h2.1h2.1h2.1h2.1h2.1h2.1h2.1   h2.1h2.1h2.1h2.1h2.1h2.1h2.1h2.1h2.1h2.1h2.1h0.7c0.5,0,0.9,0,1.4,0.1c0.7,0.1,1.4,0.2,2.1,0.3c0.7,0.2,1.4,0.4,2.1,0.7   c0.7,0.3,1.4,0.6,2.1,1c0.7,0.4,1.5,0.9,2.1,1.5c0.8,0.6,1.5,1.4,2.1,2.1c0.9,1.1,1.6,2.2,2.1,3.5c0.8,1.9,1.3,4,1.3,6.2   c0,2.2-0.5,4.3-1.3,6.2c-0.6,1.3-1.3,2.4-2.1,3.5c-0.6,0.8-1.3,1.5-2.1,2.2c-0.7,0.5-1.4,1-2.1,1.5c-0.7,0.4-1.4,0.7-2.1,1   c-0.7,0.3-1.4,0.5-2.1,0.7c-0.7,0.2-1.4,0.3-2.1,0.3c-0.5,0-0.9,0.1-1.4,0.1h-0.7H244h-2.1h-2.1h-2.1h-2.1h-2.1h-2.1h-2.1h-2.1   H225h-2.1h-2.1h-2.1h-2.1h-2.1h-2.1h-2.1h-2.1h-2.1h-2.1h-2.1h-2.1h-2.1h-2.1h-2.1h-2.1H189h-2.1h-2.1h-2.1h-2.1h-2.1h-2.1h-2.1   h-2.1H170h-2.1h-2.1h-2.1h-2.1h-2.1h-2.1h-2.1h-0.7c-0.5,0-0.9,0-1.4-0.1c-0.7-0.1-1.4-0.2-2.1-0.3c-0.7-0.2-1.4-0.4-2.1-0.7   c-0.7-0.3-1.4-0.6-2.1-1c-0.7-0.4-1.5-0.9-2.1-1.5c-0.8-0.6-1.5-1.4-2.1-2.1C141.7,118.3,140.9,117.1,140.4,115.9z"></path>	</g>	<g>		<path class="st9" d="M9.3,168.6c-0.2-1-0.3-2.1-0.3-3.1c0-1.1,0.1-2.1,0.3-3.2c0.4-1.9,1.1-3.6,2.1-5.2c0.6-0.9,1.3-1.8,2.1-2.6   c0.7-0.6,1.4-1.2,2.1-1.8c0.7-0.5,1.4-0.9,2.1-1.2c0.7-0.3,1.4-0.6,2.1-0.8c0.7-0.2,1.4-0.4,2.1-0.5c0.7-0.1,1.4-0.2,2.1-0.2   l0.3,0h1.8h2.1h2.1h2.1h2.1h2.1h2.1H41h2.1h2.1h2.1h2.1h2.1h2.1h2.1h2.1H60h2.1h2.1h2.1h2.1h2.1h2.1h2.1H77h2.1h2.1h2.1h2.1h2.1   h2.1h2.1h2.1H96h2.1h2.1h2.1h2.1h2.1h2.1h2.1h2.1h2.1h2.1h2.1h2.1h2.1h2.1h2.1h2.1h2.1h2.1h2.1h2.1h2.1h2.1h2.1h2.1h2.1h2.1h2.1   h2.1h2.1h2.1h2.1h2.1h2.1h2.1h2.1h2.1h2.1h2.1h1.2c0.3,0,0.6,0,0.9,0.1l0.5,0.1h1.6h2.1h2.1h2.1h2.1h2.1h2.1h2.1h2.1h2.1h2.1h2.1   h2.1h0.2c0.5,0,0.9-0.1,1.4-0.1c0.2,0,0.3,0,0.5,0c0.2,0,0.5,0.1,0.7,0.1h1.4h2.1h2.1h2.1h2.1h0.9c0.4,0,0.8,0,1.2,0   c0.7,0.1,1.4,0.2,2.1,0.3c0.7,0.2,1.4,0.4,2.1,0.6c0.7,0.3,1.4,0.6,2.1,1c0.7,0.4,1.5,0.9,2.1,1.5c0.8,0.6,1.5,1.3,2.1,2.1   c0.8,1,1.6,2.1,2.1,3.4c0.9,1.9,1.4,4.1,1.4,6.3c0,2.3-0.5,4.4-1.4,6.4c-0.6,1.2-1.3,2.3-2.1,3.4c-0.6,0.8-1.3,1.5-2.1,2.1   c-0.7,0.5-1.4,1-2.1,1.5c-0.7,0.4-1.4,0.7-2.1,1c-0.7,0.3-1.4,0.5-2.1,0.6c-0.7,0.2-1.4,0.3-2.1,0.3c-0.4,0-0.8,0-1.2,0h-0.9h-2.1   h-2.1h-2.1h-2.1h-1.5c-0.2,0-0.4,0-0.6,0.1c-0.2,0-0.3,0-0.5,0c-0.4,0-0.9-0.1-1.3-0.1h-0.3h-2.1h-2.1h-2.1h-2.1h-2.1h-2.1h-2.1   H189h-2.1h-2.1h-2.1h-2.1h-1.7l-0.4,0c-0.3,0-0.6,0.1-0.9,0.1h-1.2h-2.1h-2.1H170h-2.1h-2.1h-2.1h-2.1h-2.1h-2.1h-2.1h-2.1H151   h-2.1h-2.1h-2.1h-2.1h-2.1h-2.1h-2.1H134h-2.1h-2.1h-2.1h-2.1h-2.1h-2.1h-2.1h-2.1H115h-2.1h-2.1h-2.1h-2.1h-2.1h-2.1h-2.1h-2.1   H96h-2.1h-2.1h-2.1h-2.1h-2.1h-2.1h-2.1h-2.1H77h-2.1h-2.1h-2.1h-2.1h-2.1h-2.1h-2.1H60h-2.1h-2.1h-2.1h-2.1h-2.1h-2.1h-2.1h-2.1   H41h-2.1h-2.1h-2.1h-2.1h-2.1h-2.1h-2.1h-1.8l-0.3,0c-0.7,0-1.4-0.1-2.1-0.2c-0.7-0.1-1.4-0.3-2.1-0.5c-0.7-0.2-1.4-0.5-2.1-0.8   c-0.7-0.4-1.4-0.8-2.1-1.2c-0.8-0.5-1.5-1.1-2.1-1.7c-0.8-0.8-1.5-1.7-2.1-2.6C10.4,172.2,9.7,170.5,9.3,168.6z"></path>	</g></g><g>	<g>		<path class="st21" d="M79.5,421.6c-14.5,0-26.2-11.7-26.2-26.2c0-14.5,11.7-26.2,26.2-26.2c14.5,0,26.2,11.7,26.2,26.2   C105.7,409.9,94,421.6,79.5,421.6L79.5,421.6z M127.1,399.4c0.1-1.3,0.2-2.6,0.2-3.9c0-1.3-0.1-2.6-0.2-3.9   c-16.5-5.2-19.4-11.9-11.3-27.1c-1.6-1.9-3.4-3.6-5.2-5.2c-15.2,8.1-21.9,5.2-27.1-11.3c-1.3-0.1-2.6-0.2-3.9-0.2   c-1.3,0-2.6,0.1-3.9,0.2c-5.2,16.5-11.9,19.4-27.1,11.3c-1.9,1.6-3.6,3.4-5.2,5.2c8.1,15.2,5.2,21.9-11.3,27.1   c-0.1,1.3-0.2,2.6-0.2,3.9c0,1.3,0.1,2.6,0.2,3.9c16.5,5.2,19.4,11.9,11.3,27.1c1.6,1.9,3.4,3.6,5.2,5.2   c15.2-8.1,21.9-5.2,27.1,11.3c1.3,0.1,2.6,0.2,3.9,0.2c1.3,0,2.6-0.1,3.9-0.2c5.2-16.5,11.9-19.4,27.1-11.3   c1.9-1.6,3.6-3.4,5.2-5.2C107.7,411.3,110.5,404.6,127.1,399.4z"></path>	</g>	<g>		<path class="st18" d="M113.1,424.1c-1.5,1.7-3.1,3.4-4.9,4.9c-14-7.5-20.3-4.8-25.1,10.4c-1.2,0.1-2.4,0.2-3.6,0.2   c-1.2,0-2.4-0.1-3.6-0.2c-4.8-15.3-11-18-25.1-10.4c-1.7-1.5-3.4-3.1-4.9-4.9c7.5-14,4.8-20.3-10.4-25.1c-0.1-1.2-0.2-2.4-0.2-3.6   c0-1.2,0.1-2.4,0.2-3.6c15.3-4.8,18-11,10.4-25.1c1.5-1.7,3.1-3.4,4.9-4.9c14,7.5,20.3,4.9,25.1-10.4c1.2-0.1,2.4-0.2,3.6-0.2   c1.2,0,2.4,0.1,3.6,0.2c4.8,15.3,11,18,25.1,10.4c1.7,1.5,3.4,3.1,4.9,4.9c-7.5,14-4.8,20.3,10.4,25.1c0.1,1.2,0.2,2.4,0.2,3.6   c0,1.2-0.1,2.4-0.2,3.6C108.2,403.9,105.6,410.1,113.1,424.1L113.1,424.1z M127.1,399.4c0.1-1.3,0.2-2.6,0.2-3.9   c0-1.3-0.1-2.6-0.2-3.9c-16.5-5.2-19.4-11.9-11.3-27.1c-1.6-1.9-3.4-3.6-5.2-5.2c-15.2,8.1-21.9,5.2-27.1-11.3   c-1.3-0.1-2.6-0.2-3.9-0.2c-1.3,0-2.6,0.1-3.9,0.2c-5.2,16.5-11.9,19.4-27.1,11.3c-1.9,1.6-3.6,3.4-5.2,5.2   c8.1,15.2,5.2,21.9-11.3,27.1c-0.1,1.3-0.2,2.6-0.2,3.9c0,1.3,0.1,2.6,0.2,3.9c16.5,5.2,19.4,11.9,11.3,27.1   c1.6,1.9,3.4,3.6,5.2,5.2c15.2-8.1,21.9-5.2,27.1,11.3c1.3,0.1,2.6,0.2,3.9,0.2c1.3,0,2.6-0.1,3.9-0.2   c5.2-16.5,11.9-19.4,27.1-11.3c1.9-1.6,3.6-3.4,5.2-5.2C107.7,411.3,110.5,404.6,127.1,399.4z"></path>	</g>	<g>		<path class="st18" d="M79.5,414.5c-10.6,0-19.1-8.6-19.1-19.1c0-10.6,8.6-19.1,19.1-19.1c10.5,0,19.1,8.6,19.1,19.1   C98.6,406,90.1,414.5,79.5,414.5L79.5,414.5z M79.5,372.3c-12.8,0-23.2,10.4-23.2,23.2s10.4,23.2,23.2,23.2   c12.8,0,23.2-10.4,23.2-23.2S92.3,372.3,79.5,372.3z"></path>	</g></g><g>	<g>		<g>			<path class="st21" d="M605.5,342.2c-14.5,0-26.2-11.7-26.2-26.2c0-14.5,11.7-26.2,26.2-26.2c14.5,0,26.2,11.7,26.2,26.2    C631.7,330.5,619.9,342.2,605.5,342.2L605.5,342.2z M653,320c0.1-1.3,0.2-2.6,0.2-3.9c0-1.3-0.1-2.6-0.2-3.9    c-16.5-5.2-19.4-11.9-11.3-27.1c-1.6-1.9-3.4-3.6-5.2-5.2c-15.2,8.1-21.9,5.2-27.1-11.3c-1.3-0.1-2.6-0.2-3.9-0.2    c-1.3,0-2.6,0.1-3.9,0.2c-5.2,16.5-11.9,19.4-27.1,11.3c-1.9,1.6-3.6,3.4-5.2,5.2c8.1,15.2,5.2,21.9-11.3,27.1    c-0.1,1.3-0.2,2.6-0.2,3.9c0,1.3,0.1,2.6,0.2,3.9c16.5,5.2,19.4,11.9,11.3,27.1c1.6,1.9,3.4,3.6,5.2,5.2    c15.2-8.1,21.9-5.2,27.1,11.3c1.3,0.1,2.6,0.2,3.9,0.2c1.3,0,2.6-0.1,3.9-0.2c5.2-16.5,11.9-19.4,27.1-11.3    c1.9-1.6,3.6-3.4,5.2-5.2C633.6,331.9,636.5,325.2,653,320z"></path>		</g>		<g>			<path class="st18" d="M639,344.8c-1.5,1.7-3.1,3.4-4.9,4.9c-14-7.5-20.3-4.8-25.1,10.4c-1.2,0.1-2.4,0.2-3.6,0.2    c-1.2,0-2.4-0.1-3.6-0.2c-4.8-15.3-11-18-25.1-10.4c-1.7-1.5-3.4-3.1-4.9-4.9c7.5-14,4.8-20.3-10.4-25.1    c-0.1-1.2-0.2-2.4-0.2-3.6c0-1.2,0.1-2.4,0.2-3.6c15.3-4.8,18-11,10.4-25.1c1.5-1.7,3.1-3.4,4.9-4.9c14,7.5,20.3,4.8,25.1-10.4    c1.2-0.1,2.4-0.2,3.6-0.2c1.2,0,2.4,0.1,3.6,0.2c4.8,15.3,11,18,25.1,10.4c1.7,1.5,3.4,3.1,4.9,4.9c-7.5,14-4.9,20.3,10.4,25.1    c0.1,1.2,0.2,2.4,0.2,3.6c0,1.2-0.1,2.4-0.2,3.6C634.2,324.5,631.5,330.7,639,344.8L639,344.8z M653,320c0.1-1.3,0.2-2.6,0.2-3.9    c0-1.3-0.1-2.6-0.2-3.9c-16.5-5.2-19.4-11.9-11.3-27.1c-1.6-1.9-3.4-3.6-5.2-5.2c-15.2,8.1-21.9,5.2-27.1-11.3    c-1.3-0.1-2.6-0.2-3.9-0.2c-1.3,0-2.6,0.1-3.9,0.2c-5.2,16.5-11.9,19.4-27.1,11.3c-1.9,1.6-3.6,3.4-5.2,5.2    c8.1,15.2,5.2,21.9-11.3,27.1c-0.1,1.3-0.2,2.6-0.2,3.9c0,1.3,0.1,2.6,0.2,3.9c16.5,5.2,19.4,11.9,11.3,27.1    c1.6,1.9,3.4,3.6,5.2,5.2c15.2-8.1,21.9-5.2,27.1,11.3c1.3,0.1,2.6,0.2,3.9,0.2c1.3,0,2.6-0.1,3.9-0.2    c5.2-16.5,11.9-19.4,27.1-11.3c1.9-1.6,3.6-3.4,5.2-5.2C633.6,331.9,636.5,325.2,653,320z"></path>		</g>		<g>			<path class="st18" d="M605.5,335.2c-10.5,0-19.1-8.6-19.1-19.1c0-10.5,8.6-19.1,19.1-19.1c10.6,0,19.1,8.6,19.1,19.1    C624.6,326.6,616,335.2,605.5,335.2L605.5,335.2z M605.5,292.9c-12.8,0-23.2,10.4-23.2,23.2c0,12.8,10.4,23.2,23.2,23.2    s23.2-10.4,23.2-23.2C628.6,303.3,618.3,292.9,605.5,292.9z"></path>		</g>	</g>	<g>		<g>			<path class="st21" d="M685.4,365.5c-9.4,0-17-7.6-17-17c0-9.4,7.6-17,17-17c9.4,0,17,7.6,17,17    C702.4,357.9,694.8,365.5,685.4,365.5L685.4,365.5z M716.3,351.1c0.1-0.8,0.1-1.7,0.1-2.5c0-0.9,0-1.7-0.1-2.6    c-10.7-3.4-12.6-7.7-7.3-17.6c-1-1.2-2.2-2.4-3.4-3.4c-9.8,5.3-14.2,3.4-17.6-7.3c-0.8-0.1-1.7-0.1-2.6-0.1c-0.9,0-1.7,0-2.6,0.1    c-3.4,10.7-7.7,12.6-17.6,7.3c-1.2,1-2.4,2.2-3.4,3.4c5.3,9.9,3.4,14.2-7.3,17.6c-0.1,0.8-0.1,1.7-0.1,2.6c0,0.9,0,1.7,0.1,2.5    c10.7,3.4,12.6,7.7,7.3,17.6c1,1.2,2.2,2.4,3.4,3.4c9.8-5.3,14.2-3.4,17.6,7.3c0.8,0.1,1.7,0.1,2.6,0.1c0.9,0,1.7,0,2.6-0.1    c3.4-10.7,7.7-12.6,17.6-7.3c1.2-1,2.4-2.2,3.4-3.4C703.7,358.8,705.6,354.4,716.3,351.1z"></path>		</g>		<g>			<path class="st18" d="M707.2,367.2c-1,1.1-2,2.2-3.2,3.2c-9.1-4.9-13.2-3.2-16.3,6.8c-0.8,0.1-1.6,0.1-2.4,0.1    c-0.8,0-1.6,0-2.4-0.1c-3.1-9.9-7.2-11.7-16.3-6.8c-1.1-1-2.2-2-3.2-3.2c4.9-9.1,3.2-13.2-6.8-16.3c-0.1-0.8-0.1-1.6-0.1-2.4    c0-0.8,0-1.6,0.1-2.4c9.9-3.1,11.7-7.2,6.8-16.3c1-1.1,2-2.2,3.2-3.2c9.1,4.9,13.2,3.1,16.3-6.8c0.8-0.1,1.6-0.1,2.4-0.1    c0.8,0,1.6,0,2.4,0.1c3.1,9.9,7.2,11.7,16.3,6.8c1.1,1,2.2,2,3.2,3.2c-4.9,9.1-3.2,13.2,6.8,16.3c0.1,0.8,0.1,1.6,0.1,2.4    c0,0.8,0,1.6-0.1,2.4C704.1,354,702.3,358,707.2,367.2L707.2,367.2z M716.3,351.1c0.1-0.8,0.1-1.7,0.1-2.5c0-0.9,0-1.7-0.1-2.6    c-10.7-3.4-12.6-7.7-7.3-17.6c-1-1.2-2.2-2.4-3.4-3.4c-9.8,5.3-14.2,3.4-17.6-7.3c-0.8-0.1-1.7-0.1-2.6-0.1c-0.9,0-1.7,0-2.6,0.1    c-3.4,10.7-7.7,12.6-17.6,7.3c-1.2,1-2.4,2.2-3.4,3.4c5.3,9.9,3.4,14.2-7.3,17.6c-0.1,0.8-0.1,1.7-0.1,2.6c0,0.9,0,1.7,0.1,2.5    c10.7,3.4,12.6,7.7,7.3,17.6c1,1.2,2.2,2.4,3.4,3.4c9.8-5.3,14.2-3.4,17.6,7.3c0.8,0.1,1.7,0.1,2.6,0.1c0.9,0,1.7,0,2.6-0.1    c3.4-10.7,7.7-12.6,17.6-7.3c1.2-1,2.4-2.2,3.4-3.4C703.7,358.8,705.6,354.4,716.3,351.1z"></path>		</g>		<g>			<path class="st18" d="M685.4,360.9c-6.9,0-12.4-5.6-12.4-12.4c0-6.9,5.6-12.4,12.4-12.4c6.9,0,12.4,5.6,12.4,12.4    C697.8,355.4,692.3,360.9,685.4,360.9L685.4,360.9z M685.4,333.5c-8.3,0-15.1,6.7-15.1,15.1c0,8.3,6.7,15.1,15.1,15.1    c8.3,0,15.1-6.7,15.1-15.1C700.5,340.2,693.7,333.5,685.4,333.5z"></path>		</g>	</g></g><g>	<path class="st18" d="M179.7,406.1c0.6,0.5,1.3-0.4,0.8-0.8c-0.3-0.3-0.6-0.5-0.9-0.7c-0.6-0.5-1.3,0.4-0.7,0.9  C179.2,405.6,179.4,405.9,179.7,406.1L179.7,406.1z M132.5,328.9c0.4-0.7-0.6-1.2-1-0.6l-0.6,1c-0.4,0.7,0.6,1.2,1,0.6L132.5,328.9  L132.5,328.9z M130.3,332.8c0.3-0.7-0.7-1.1-1-0.5c-0.2,0.3-0.3,0.7-0.5,1c-0.3,0.7,0.7,1.1,1,0.5  C130,333.5,130.1,333.1,130.3,332.8L130.3,332.8z M128.6,336.9c0.2-0.7-0.8-1.1-1.1-0.4c-0.1,0.4-0.2,0.7-0.4,1.1  c-0.2,0.7,0.8,1.1,1.1,0.3C128.4,337.6,128.5,337.3,128.6,336.9L128.6,336.9z M127.4,341.2c0.1-0.8-1-0.9-1.1-0.2  c-0.1,0.4-0.1,0.7-0.2,1.1c-0.1,0.8,1,0.9,1.1,0.2C127.3,341.9,127.4,341.5,127.4,341.2L127.4,341.2z M126.8,345.6  c0-0.8-1.1-0.8-1.1-0.1c0,0.4-0.1,0.8-0.1,1.1c0,0.8,1.1,0.8,1.1,0.1C126.7,346.3,126.8,345.9,126.8,345.6L126.8,345.6z M126.7,350  c0-0.7-1.1-0.7-1.1,0c0,0.4,0,0.8,0.1,1.1c0.1,0.8,1.2,0.6,1.1-0.1C126.7,350.8,126.7,350.4,126.7,350L126.7,350z M127.1,354.4  c-0.1-0.7-1.2-0.6-1.1,0.2c0.1,0.4,0.1,0.8,0.2,1.1c0.2,0.8,1.3,0.4,1.1-0.2C127.3,355.2,127.2,354.8,127.1,354.4L127.1,354.4z   M128.1,358.8c-0.2-0.7-1.3-0.5-1.1,0.3c0.1,0.4,0.2,0.7,0.3,1.1c0.2,0.6,1.3,0.5,1.1-0.3L128.1,358.8L128.1,358.8z M129.5,363  c-0.3-0.7-1.3-0.3-1,0.4c0.1,0.4,0.3,0.7,0.4,1.1c0.3,0.7,1.3,0.3,1-0.4C129.7,363.7,129.6,363.4,129.5,363L129.5,363z   M131.3,367.1c-0.4-0.7-1.3-0.1-1,0.5c0.2,0.3,0.4,0.7,0.5,1c0.3,0.6,1.3,0.1,1-0.5C131.6,367.7,131.5,367.4,131.3,367.1  L131.3,367.1z M133.5,370.9c-0.5-0.6-1.3,0-0.9,0.6c0.2,0.3,0.4,0.6,0.6,0.9c0.4,0.6,1.3,0,0.9-0.6  C133.9,371.5,133.7,371.2,133.5,370.9L133.5,370.9z M136.1,374.5c-0.5-0.6-1.3,0.2-0.9,0.7c0.2,0.3,0.5,0.6,0.7,0.9  c0.5,0.6,1.3-0.2,0.9-0.7C136.6,375.1,136.4,374.8,136.1,374.5L136.1,374.5z M139.1,377.8c-0.5-0.5-1.3,0.2-0.8,0.8  c0.3,0.3,0.5,0.5,0.8,0.8c0.3,0.2,0.6,0.2,0.8,0l0,0.2c0.2,0.8,1.3,0.4,1.1-0.2c-0.1-0.4-0.1-0.7-0.2-1.1c-0.1-0.7-1.2-0.6-1.1,0.1  L139.1,377.8L139.1,377.8z M142.5,380.7c-0.5-0.4-1.3,0.4-0.7,0.9c0.3,0.2,0.6,0.5,0.9,0.7c0.6,0.4,1.2-0.5,0.6-0.9  C143.1,381.2,142.8,380.9,142.5,380.7L142.5,380.7z M146.2,383.1c-0.6-0.3-1.2,0.6-0.5,1c0.3,0.2,0.7,0.3,1,0.5  c0.7,0.3,1.1-0.7,0.5-1C146.8,383.4,146.5,383.3,146.2,383.1L146.2,383.1z M150.3,384.6c-0.7-0.2-1,0.9-0.3,1.1  c0.4,0.1,0.8,0.2,1.2,0.2c0.7,0.1,0.9-1,0.2-1.1C151,384.8,150.6,384.7,150.3,384.6L150.3,384.6z M154.5,384.9  c-0.7,0.1-0.6,1.2,0.2,1.1c0.4-0.1,0.8-0.1,1.2-0.2c0.7-0.2,0.5-1.3-0.3-1.1C155.2,384.8,154.9,384.9,154.5,384.9L154.5,384.9z   M158.4,383.4c-0.6,0.4,0,1.4,0.7,0.9c0.3-0.2,0.6-0.5,0.9-0.8c0.5-0.5-0.3-1.3-0.8-0.8C159,382.9,158.7,383.1,158.4,383.4  L158.4,383.4z M161.3,380.2c-0.4,0.7,0.6,1.2,0.9,0.6c0.2-0.3,0.4-0.6,0.6-1c0.4-0.7-0.6-1.2-1-0.6  C161.7,379.5,161.5,379.8,161.3,380.2L161.3,380.2z M163.2,376.2c-0.2,0.7,0.8,1.1,1.1,0.3c0.1-0.4,0.2-0.7,0.3-1.1  c0.1-0.8-1-0.9-1.1-0.2C163.4,375.6,163.3,375.9,163.2,376.2L163.2,376.2z M163.6,372c0.1,0.8,1.2,0.6,1.1-0.1  c0-0.4-0.1-0.8-0.2-1.2c-0.2-0.7-1.3-0.4-1.1,0.3C163.5,371.3,163.6,371.7,163.6,372L163.6,372z M162.2,368c0.5,0.6,1.3,0,0.9-0.6  c-0.2-0.3-0.4-0.7-0.7-1c-0.5-0.5-1.3,0.1-0.9,0.7C161.8,367.5,162,367.8,162.2,368L162.2,368z M159.3,365c0.6,0.4,1.2-0.5,0.6-0.9  c-0.3-0.2-0.6-0.4-1-0.6c-0.7-0.4-1.2,0.6-0.6,1C158.7,364.6,159,364.8,159.3,365L159.3,365z M155.4,363.1c0.7,0.2,1.1-0.8,0.3-1.1  c-0.4-0.1-0.8-0.2-1.1-0.3c-0.8-0.1-0.9,1-0.2,1.1C154.7,362.9,155,363,155.4,363.1L155.4,363.1z M151.1,362.5c0.7,0,0.7-1.1,0-1.1  c-0.4,0-0.8,0-1.2,0.1c-0.7,0.1-0.6,1.2,0.1,1.1C150.4,362.5,150.8,362.5,151.1,362.5L151.1,362.5z M146.9,363.4  c0.6-0.2,0.3-1.3-0.5-1c-0.4,0.2-0.7,0.3-1.1,0.5c-0.6,0.3-0.1,1.3,0.6,1C146.3,363.7,146.6,363.5,146.9,363.4L146.9,363.4z   M143.5,365.9c0.5-0.6-0.4-1.3-0.9-0.7c-0.3,0.3-0.5,0.6-0.7,0.9c-0.4,0.6,0.5,1.2,0.9,0.6C143.1,366.4,143.3,366.1,143.5,365.9  L143.5,365.9z M141.5,369.6c0.2-0.7-0.8-1.1-1.1-0.3c-0.1,0.4-0.2,0.7-0.3,1.1c-0.1,0.8,0.9,0.9,1.1,0.2  C141.3,370.3,141.4,370,141.5,369.6L141.5,369.6z M140.8,373.9c0-0.8-1.1-0.8-1.1-0.1c0,0.4,0,0.8,0,1.1c0,0.7,1.1,0.8,1.1,0  C140.7,374.6,140.8,374.3,140.8,373.9L140.8,373.9z M141.9,382.6c0.1,0.3,0.3,0.7,0.4,1c0.3,0.6-0.6,1.2-1,0.5  c-0.2-0.4-0.3-0.7-0.4-1.1C140.6,382.3,141.6,381.9,141.9,382.6L141.9,382.6z M144,386.4c-0.4-0.6-1.4,0-0.9,0.7  c0.2,0.3,0.5,0.6,0.7,0.9c0.5,0.6,1.3-0.2,0.9-0.7C144.4,387,144.2,386.7,144,386.4L144,386.4z M147,389.5  c-0.6-0.5-1.3,0.4-0.7,0.9c0.3,0.2,0.6,0.5,0.9,0.7c0.5,0.4,1.3-0.4,0.7-0.9C147.6,390,147.3,389.7,147,389.5L147,389.5z   M150.7,391.9c-0.6-0.4-1.2,0.6-0.5,1c0.3,0.2,0.7,0.4,1,0.5c0.6,0.3,1.2-0.6,0.5-1C151.3,392.3,151,392.1,150.7,391.9L150.7,391.9  z M154.7,393.9c-0.6-0.3-1.1,0.7-0.4,1l1.1,0.4c0.8,0.3,1.1-0.8,0.4-1C155.4,394.1,155,394,154.7,393.9L154.7,393.9z M158.9,395.5  c-0.7-0.2-1.1,0.8-0.4,1.1l1.1,0.4c0.7,0.2,1.1-0.8,0.4-1.1L158.9,395.5L158.9,395.5z M163.1,396.9c-0.7-0.2-1.1,0.8-0.4,1.1  l1.1,0.4c0.7,0.2,1.1-0.8,0.4-1.1L163.1,396.9L163.1,396.9z M167.4,398.4c-0.7-0.2-1.1,0.8-0.4,1.1l1.1,0.4  c0.7,0.3,1.1-0.8,0.4-1.1L167.4,398.4L167.4,398.4z M171.6,400c-0.7-0.3-1.1,0.7-0.4,1l1,0.4c0.7,0.3,1.1-0.7,0.5-1L171.6,400  L171.6,400z M175.8,402c-0.6-0.4-1.2,0.6-0.6,1c0.3,0.2,0.7,0.4,1,0.6c0.7,0.4,1.2-0.6,0.6-1C176.4,402.3,176.1,402.1,175.8,402z"></path></g><g>	<g>		<path class="st93" d="M663.2,511c0,0-5.7,5.6-8.3,5.1c-2.6-0.5-19.2-33.9-21.3-38.9c-2.1-5-13.1-16.5-13.1-16.5l0,0l0,0l0,0   c-0.3,1.1-4.3,16-4.4,23.2c-0.2,7.4-2.1,21.2-2.1,21.2l-2.3,0.3l-38.1,5.4l-3.4,0.5c0,0-1.9-2.6-1.6-8.3c0.2-3.7,0.6-10.6,0.4-17   l0-0.1l0-0.2l0-0.1c-0.1-3.5,2-6.5,1.4-9c-1.8-7.1-0.6-13.4-0.6-13.7l-0.2-13.9c-0.4,0.8-25.2-1.6-27.3-0.8   c-2.1,0.8-37,1.5-39.2-0.5c-2.3-2.2-1.6-5.7-1.6-5.7l39.8-2.7l22.4-5.2c0.3-0.2,5,0,7.7-1.3c4.2-2,10-4.7,13.7-6.4   c2.2-1,3.7-1.7,3.7-1.7s15.6-1.5,16.8-1.4c0.4,0,2.2,0.7,4.7,1.6c5.3,2,13.3,5.3,14.9,6.5c2.4,1.7,18.4,36.7,19.8,39.2   C646.5,472.9,663.2,511,663.2,511z"></path>	</g>	<g>		<path class="st90" d="M609.2,429.5c-0.7-3.7-8.3,6.2-17.6,5.3c0,0-2.1-5.1-2.1-8.9c0-0.5,0-0.9,0-1.3c-0.1-4.2-0.2-6.6-0.2-6.6   s0,0,0,0c0.4-0.2,15-6.2,15-5.7C604.1,423.8,609.2,429.5,609.2,429.5z"></path>	</g>	<g>		<path class="st47" d="M602.9,415.1c-1.4,2.6-6.2,7.7-13.4,9.6c-0.1-4.2-0.2-6.6-0.2-6.6s0,0,0,0   C589.7,417.9,603.3,414.3,602.9,415.1z"></path>	</g>	<g>		<path class="st68" d="M587.6,419.2c0,0,15.1,2.3,17.3-8c2.2-10.3,5.9-16.7-4.5-19.6c-10.4-2.9-13.3,0.6-14.9,3.8   C583.9,398.7,583.4,417.9,587.6,419.2z"></path>	</g>	<g>		<path class="st40" d="M607.1,399.7c-2.4-0.5-2.2,4.5-2,6.9C605.4,411.5,610.9,400.5,607.1,399.7z"></path>	</g>	<g>		<path class="st40" d="M477.9,449.8c0,0,5.2-1.2,6.4-2.8c1.2-1.6-2.7-5.7-2.7-5.7l-3.8-0.6L477.9,449.8z"></path>	</g>	<g>		<path class="st40" d="M480,442c0,0-3.8-3.4-4.4-4c-0.6-0.5-2.9-0.7-5.4-0.4c-2.4,0.4-5.8,0.5-6.1,0.9c-0.3,0.4-0.6,0.5-0.6,1.7   c0,1.1,0.6,2.1,0.6,2.1s-0.7,1.4,0.2,2.5c0,0-0.6,1.3,0.6,2.4c0,0-0.5,1.3,0.4,2c0,0,2.2,0.3,2.9,0.6c0.8,0.3,5.3,0.6,9.7,0.1   C477.9,449.8,481.9,448,480,442z"></path>	</g>	<g>		<path class="st47" d="M472.8,442.5c0,0,1.1,2.3,1.7,2.8c0.6,0.5-4.1,3.7-4.1,3.7S470,443.9,472.8,442.5z"></path>	</g>	<g>		<path class="st40" d="M475.5,438c0,0-4,1.8-5.7,3.7c-0.4,0.4-0.7,0.9-0.4,1.5c0.3,0.5,1.3,0.8,3.1,0.2c1.8-0.7,4.4-0.7,4.4-0.7   S478.4,441.3,475.5,438z"></path>	</g>	<g>		<polygon class="st94" points="482.1,441 480.7,441.1 481.8,449 484.8,449   "></polygon>	</g>	<g>		<path class="st42" d="M543.5,663c0,0-5.4,5.6-10.7,6.7c-5.3,1-11.3,3.3-11.5,6.6c-0.1,3.3,17.3,5.3,23.5,2.1   c9.2-4.7,10.1-3.2,11.1-5.7c1.1-2.5-0.9-9.3-0.8-10.1C555.2,661.6,543.5,663,543.5,663z"></path>	</g>	<g>		<path class="st40" d="M544.2,660.2l-0.7,2.8c0.1,0.1,11.9,1.9,11.6-0.3c-0.2-1.8-0.6-3.7-0.6-3.7L544.2,660.2z"></path>	</g>	<g>		<path class="st42" d="M653.3,652.8c0,0-2.6,7.2-7,10.2c-4.4,3-6.3,7.5-5.1,10.6c1.2,3,14.9,1.4,19.2-7.5c3-6.1,6.4-8.4,6.4-11   c0-2.7-3.1-6.4-3.4-7.1C663.3,647,653.3,652.8,653.3,652.8z"></path>	</g>	<g>		<path class="st40" d="M652.2,650.2l1.1,2.6c0.1,0,11.2-3,10.2-4.9c-0.8-1.5-2.3-3.2-2.3-3.2L652.2,650.2z"></path>	</g>	<g>		<path class="st40" d="M654.7,512.2c0,0,0.6,3.6,0.8,7.2c0.1,3.6-0.4,5,0.6,6.7c0.8,1.3,2.8,1.8,3,1.2c0.2-0.6-1.5-6.1,0.8-6.9   c2.3-0.8,1.7,7,2.9,6.1c1.2-1,5.4-5.7,4.1-8.3c-1.3-2.6-4.1-3.9-5.4-8.1c-1.2-3.8-2.9-4.9-2.9-4.9L654.7,512.2z"></path>	</g>	<g>		<path class="st41" d="M568.9,517.7c0,0-26.8,47.7-31.7,59.2c-4.6,10.7-1,21.7-0.6,30c0.4,9.5,5.5,50.1,4.9,52.8   c-0.6,2.8,14.8,1.2,14.8,1.2s-3.1-64.5,1.4-73.8c3-6.2,31.9-47.8,33.9-45.3c2,2.6,24,40.8,26.9,48.3c2.7,7,32.3,61.2,32.3,61.2   s8.4-0.7,14-5.9c0,0-26.7-59.6-29.1-69.7c-1.2-5.2-12.5-41.4-20.9-64.8C610.3,498.6,568.9,517.7,568.9,517.7z"></path>	</g>	<g>		<path class="st42" d="M570.2,511.4c0,0-1,1.2-1.3,6.3c0,0,41.4-4.8,45.8-6.7c0,0,0.2-5.6-0.8-5.7   C612.9,505.1,570.2,511.4,570.2,511.4z"></path>	</g>	<g>		<path class="st95" d="M604.5,506.2c0,0,0.9,5.7,1,7.2l1.9-0.4c0,0-0.5-6-0.8-7L604.5,506.2z"></path>	</g>	<g>		<path class="st53" d="M573.6,510.7c0,0-0.7,5.2-0.7,7.1l2-0.3c0,0,0.4-6.5,0.6-7.2L573.6,510.7z"></path>	</g>	<g>					<linearGradient id="SVGID_00000041989618872515176290000007027249071794811029_" gradientUnits="userSpaceOnUse" x1="593.6735" y1="482.1738" x2="663.2264" y2="482.1738">			<stop offset="0" style="stop-color:#1E77D1"></stop>			<stop offset="1" style="stop-color:#39C0FF"></stop>		</linearGradient>		<path style="fillRule:evenodd;clip-rule:evenodd;fill:url(#SVGID_00000041989618872515176290000007027249071794811029_);" d="   M633.6,477.3c2.4,4.9,17.4,37.6,20,38c2.6,0.5,9.6-5.6,9.6-5.6s-16.7-36.9-18.1-39.4c-1.4-2.5-17.5-37.5-19.8-39.2   c-1.4-1-7.3-3.5-12.3-5.5c-0.9-0.4-1.8-0.7-2.6-1c-1.1,1.2-18.1,20.5-16.5,37.6c0.5,5.1,1.1,13.5,2.5,22.3   c1.5,9.2,3.8,19.5,5.4,27.3c2.8,14.1,8.9,27.6,8.9,27.6l16-8c2.5-1.3,3.7-4.2,2.8-6.8c-3.6-10.1-10.8-30.4-10.8-39.2   c0,0,0.6-19.9,1.9-24.7C620.5,460.8,630.8,471.7,633.6,477.3z"></path>	</g>	<g>					<linearGradient id="SVGID_00000183960376835644912310000003286173802015667383_" gradientUnits="userSpaceOnUse" x1="481.4407" y1="483.1635" x2="585.2354" y2="483.1635">			<stop offset="0" style="stop-color:#1E77D1"></stop>			<stop offset="1" style="stop-color:#39C0FF"></stop>		</linearGradient>		<path style="fillRule:evenodd;clip-rule:evenodd;fill:url(#SVGID_00000183960376835644912310000003286173802015667383_);" d="   M530.5,436.7l-49.1,4c0,0,0.7,6.4,1.3,8.6c0.4,1.4,46.5,1.3,48.7,1.4c2.5,0,35.5,1.2,35.8,0.4l0.7,12.3   c-0.3,11.1,1.1,18.7,0.5,27.3c-1.3,16.6-7.8,35.1-9.8,41.8c-0.3,1.1,0,2.3,0.8,3.1l5,4.6c0,0,6.9-21.3,7.7-29   c0.8-7.4,3.3-17.4,4.4-27.1v0c1.4-12.3,2.8-24.5,3.8-31.7c2.7-18.7,4.9-26,4.9-26l-0.1-0.1c-1.2,0.6-2.6,1.2-4.2,1.9   c-3.2,1.5-16.2,3.7-19.3,4.2C561.7,432.4,534.4,435.6,530.5,436.7z"></path>	</g>	<g>					<linearGradient id="SVGID_00000010292353789503630110000012817716750982650010_" gradientUnits="userSpaceOnUse" x1="593.6735" y1="454.6874" x2="612.929" y2="454.6874">			<stop offset="0" style="stop-color:#1E77D1"></stop>			<stop offset="1" style="stop-color:#39C0FF"></stop>		</linearGradient>		<path style="fillRule:evenodd;clip-rule:evenodd;fill:url(#SVGID_00000010292353789503630110000012817716750982650010_);" d="   M606.8,440.9l-6.1,3.5l2.6,2.7l-7,37.6c-1.4-8.8-2.1-17.2-2.5-22.3c-1.6-17.1,15.5-36.4,16.5-37.6c0.8,0.3,1.7,0.7,2.6,1   L606.8,440.9z"></path>	</g>	<g>		<path class="st54" d="M585.3,426.1c0,0-2.3,7.5-5,26.1c-1,7.2-2.5,19.4-3.8,31.7l-1.4-35.2l2.9-3.2l-2.6-3.2l5.6-14.2   c1.5-0.7,2.9-1.4,4.2-1.9L585.3,426.1z"></path>	</g>	<g>		<path class="st54" d="M591.1,508c0,0-6.1,0.7-8.1,1.2l0.3,6.8l8-0.9L591.1,508z"></path>	</g>	<g>		<path class="st54" d="M587.9,437.4c0,0,3.4,2.5,7.4,0.4c0,0-1.5-5.8-2.4-6C592,431.6,587.4,436.3,587.9,437.4z"></path>	</g>	<g>		<path class="st99" d="M610.6,424.8l-5.1-3.1c0,0-0.1,2.8-12.7,10.1l3.6,10.1L610.6,424.8z"></path>	</g>	<g>		<path class="st99" d="M589.5,423.1c0,0,0.2,3,3.3,8.7l-7,9.1l-0.5-14.7L589.5,423.1z"></path>	</g>	<g>		<path class="st54" d="M592.6,437.1c-0.3-0.9-0.9-1-1.7-0.1c-8.3,13.8-10.7,31.9-7.3,54.1c0.9,1.9,3.5,3.2,5,3.8   c1.8-2.2,2.4-4.8,2.5-5.9C582.7,462.1,589,444.9,592.6,437.1z"></path>		<path class="st100" d="M588.8,495.6l-0.3-0.1c-2.8-1.2-4.5-2.6-5.2-4l0-0.1c-3.4-22.3-1-40.6,7.3-54.4c0.5-0.6,1-0.9,1.4-0.9   c0.4,0,0.8,0.2,1.1,1l0.1,0.2l-0.1,0.2c-7,15-7.4,32.4-1.4,51.6l0,0.1l0,0.1c-0.1,0.6-0.6,3.6-2.6,6.1L588.8,495.6z M584.1,491   c0.4,0.8,1.5,2.1,4.4,3.4c1.6-2.2,2.1-4.6,2.2-5.3c-6.1-19.4-5.6-36.9,1.4-52c-0.1-0.2-0.2-0.3-0.2-0.3c0,0-0.2,0-0.7,0.5   C583.1,450.9,580.7,469,584.1,491z"></path>	</g>	<path id="Fill-911" class="st67" d="M598.5,385c-2.6-0.3-2,7.2-1.6,7.5c1.5-0.9,2.7,0,3,0.2c0.7,0.4,2.1,2.6,2.2,4.2  c0.1,1,1.6,1.9,2,3c0.8,1.7,0.1,4.7,0,6l1.9-1.6c0.6-2.6,0.9-4.8,0.7-6.8c-0.2-3-0.8-3.5-1.5-5.6  C604.6,389.8,601.1,385.3,598.5,385z"></path>	<path id="Fill-916" class="st67" d="M587.4,388.7c1-4,3.3-4.1,5.5-4.7c1.2-0.3,7.8-0.8,11,1.9c4,3.5,3.8,9.7,4,13.2  c0.1,2.3-1.9-0.7-2.6-2.5c-0.3-1-0.6-4.2-2.6-5s-3.1,2.2-6.7,2s-5.6-2.6-7.3-0.9c-1,1-2.9,2.3-3.3,3.3c-0.4,1,0.8-1.7,0.3-1.1  c-0.4,0.4-0.1-3-0.1-3C586,389,586.7,391.5,587.4,388.7z"></path>	<path id="Path-7" class="st67" d="M585.1,415.6c-0.1-0.2-0.1-1.4,0.3-0.3c0.1,0.1,0.7,1,0.7,1.1c0.3,0.7,0.6,0.7,0.9,0.9  c0.7,0.5,1.3-1.3,2-1c0.7,0.2,0.9,0.9,1.3,1.5c0.3,0.6,1.9,0.7,2.5,0.3c0.7-0.5,0.4-1.4,1.6-1.3c0.5,0,1.2,1.6,1.3,2.1  c-1.1,0.6-2.2,0.3-3.4,0.7c-1.5,0-3.1,0.1-4-0.2C587.3,419,586.3,419.1,585.1,415.6z"></path></g></svg>