<svg xmlns="http://www.w3.org/2000/svg" xmlns:xlink="http://www.w3.org/1999/xlink" width="30px" height="17px" viewBox="0 0 30 17"><title>Let's_start_icon</title><desc>Created with Sketch.</desc><g id="Welcome" stroke="none" stroke-width="1" fill="none" fill-rule="evenodd"><g id="40_HOURS" transform="translate(-440.000000, -5971.000000)" fill="#5D7FFF" fill-rule="nonzero"><path d="M445.629515,5973.68832 C445.820181,5973.14876 446.156179,5972.96566 446.719843,5973.06885 C446.826509,5973.08835 446.938508,5973.08238 447.128507,5973.09244 C447.023841,5973.23056 446.954175,5973.33061 446.875842,5973.42436 C446.160512,5974.28073 446.148846,5975.56561 446.851175,5976.35874 C447.676504,5977.29094 449.00483,5977.53759 450.090824,5976.97003 C451.121485,5976.43173 452.14948,5975.8884 453.197807,5975.38219 C453.39914,5975.28497 453.715804,5975.27805 453.933137,5975.35136 C455.521795,5975.88714 456.830454,5976.86841 458.13378,5977.83427 L458.13378,5977.83427 L464.714078,5982.29232 C465.553073,5982.87844 465.437741,5983.97927 464.527079,5984.34894 C464.253414,5984.45999 464.046748,5984.44961 463.793416,5984.27217 C462.538756,5983.39283 461.271097,5982.52954 459.994437,5981.67851 C459.851104,5981.58287 459.516439,5981.51303 459.453773,5981.5813 C459.245774,5981.80687 459.453107,5981.96198 459.663105,5982.10324 C460.680766,5982.78783 461.698094,5983.47337 462.696089,5984.18314 C462.840088,5984.28538 462.959421,5984.52417 462.950087,5984.69312 C462.924421,5985.15592 462.642422,5985.47934 462.190092,5985.68226 C461.79476,5985.85939 461.552762,5985.64262 461.266097,5985.44378 C460.108103,5984.63995 458.938443,5983.85154 457.768449,5983.06343 C457.577783,5982.93507 457.348118,5982.65758 457.129119,5982.93633 C456.919454,5983.20312 457.241119,5983.33777 457.435784,5983.47274 C458.369112,5984.12021 459.303107,5984.76643 460.237102,5985.41295 C460.693433,5985.72914 460.752766,5986.13341 460.406768,5986.57198 C460.04477,5987.031 459.552439,5987.13231 459.102108,5986.82902 C458.275446,5986.27184 457.453451,5985.70837 456.629122,5985.14774 C456.566122,5985.10495 456.498789,5985.05209 456.43879,5985.02818 C456.049792,5984.87371 455.872459,5985.24747 456.151791,5985.44064 C456.688788,5985.8122 457.133786,5986.17935 457.662783,5986.4927 C458.000781,5986.69279 458.049447,5986.92655 457.963448,5987.24273 C457.761782,5987.98396 457.031453,5988.22401 456.368123,5987.77002 C455.912459,5987.45856 455.468795,5987.1279 454.989464,5986.85293 C454.739466,5986.70978 454.725466,5986.54933 454.778132,5986.33571 C454.866798,5985.97548 454.949464,5985.61336 455.057797,5985.25848 C455.382129,5984.19509 454.637466,5982.96276 453.214141,5982.72334 C453.070141,5982.69911 452.878476,5982.5588 452.834476,5982.43295 C452.530144,5981.56431 451.207818,5980.746 450.058824,5981.28147 C449.808492,5981.39819 449.639493,5981.34911 449.423495,5981.22484 C448.874164,5980.90897 448.287167,5980.83441 447.665171,5981.03136 C447.065841,5981.22107 447.101507,5981.22107 446.639843,5980.91935 C446.04718,5980.67207 445.219517,5980.61764 444.580521,5981.12039 C444.399189,5981.26322 444.21719,5981.49226 444.047524,5981.67316 C443.997524,5981.72665 443.880525,5981.79429 443.843858,5981.77415 C443.765192,5981.73137 443.671193,5981.63793 443.667193,5981.56116 C443.648859,5981.21163 443.659193,5980.86084 443.659193,5980.4424 L443.659193,5980.4424 L443.799525,5979.14369 C443.834858,5978.74161 444.130523,5977.70465 444.172523,5977.59076 C444.652854,5976.28827 445.167184,5974.99647 445.629515,5973.68832 Z M447.029508,5982.30553 C447.058507,5982.35367 447.091174,5982.39992 447.141507,5982.477 C447.437839,5981.96386 447.87717,5981.69865 448.465166,5981.76283 C449.08783,5981.83078 449.415161,5982.23349 449.55516,5982.74567 C449.801826,5982.52608 450.017158,5982.2187 450.31649,5982.10072 C450.608488,5981.98589 451.056486,5981.94845 451.307818,5982.08625 C451.624149,5982.25929 451.914148,5982.61417 452.02248,5982.94671 C452.126813,5983.2673 451.985481,5983.65931 451.959481,5983.94026 C452.294812,5983.84398 452.673477,5983.65899 453.061475,5983.64012 C453.772137,5983.60582 454.328468,5984.24669 454.198135,5984.91555 C454.057803,5985.6423 453.878137,5986.36339 453.682138,5987.07882 C453.562139,5987.51802 453.033142,5987.86881 452.549144,5987.89335 C452.101813,5987.91632 451.588483,5987.60674 451.395484,5987.18327 C451.321817,5987.02156 451.278484,5986.84727 451.212485,5986.65347 C450.738821,5987.06309 450.21449,5987.29118 449.60116,5986.96839 C449.07983,5986.69405 448.864498,5986.258 448.996164,5985.62186 C448.837498,5985.73165 448.742165,5985.79741 448.646832,5985.86379 C448.062169,5986.26996 447.324839,5986.17683 446.907508,5985.6099 C446.754842,5985.40257 446.63851,5985.31448 446.348178,5985.35884 C445.720181,5985.4548 445.180184,5985.08041 445.014852,5984.48044 C444.892853,5984.03684 444.791186,5983.58789 444.685187,5983.14051 C444.514188,5982.41816 444.779853,5981.89685 445.435516,5981.65869 C446.088846,5981.42147 446.62951,5981.64107 447.029508,5982.30553 Z M443.879191,5971.79341 C444.361855,5971.99917 444.825186,5972.24582 445.33385,5972.49279 C443.871858,5975.45927 442.764197,5978.48269 442.785531,5981.83991 C442.3392,5981.75968 441.931535,5981.68764 441.524204,5981.61276 C441.232539,5981.55927 440.940207,5981.5061 440.650209,5981.44413 C440.161212,5981.33936 439.892213,5980.91306 440.040879,5980.46443 C440.945207,5977.73611 441.851869,5975.00874 442.761531,5972.28232 C442.925863,5971.78964 443.382194,5971.58136 443.879191,5971.79341 Z M469.065721,5973.26076 C469.263386,5974.71647 469.427385,5976.16117 469.605718,5977.61908 C469.722384,5978.57455 469.82205,5979.50297 469.962716,5980.45499 C470.102715,5981.40152 469.868113,5981.67659 468.922591,5981.70065 L468.775389,5981.70242 L467.924394,5981.70242 C468.042726,5978.55631 467.451396,5975.77199 465.406074,5973.22081 C466.316736,5972.99743 467.179064,5972.83226 468.04606,5972.63059 C468.592723,5972.50318 468.993388,5972.72844 469.065721,5973.26076 Z M455.05413,5971.42154 C457.05512,5972.36789 459.116775,5973.20161 461.16743,5974.0517 C461.512762,5974.19484 461.932093,5974.24424 462.313424,5974.23165 C463.03442,5974.20806 463.756416,5974.13255 464.469413,5974.02747 C464.753744,5973.98531 464.89041,5974.04855 465.051743,5974.25493 C465.927738,5975.37527 466.480068,5976.63497 466.739733,5977.98749 C466.926399,5978.95995 466.953399,5979.9601 467.047732,5980.9483 C467.076065,5981.24718 466.969732,5981.37145 466.619734,5981.49541 C465.808739,5981.78265 465.157075,5981.71532 464.545412,5981.11882 C464.351013,5980.9293 464.100295,5980.79152 463.858792,5980.64525 L463.680417,5980.53301 L459.185775,5977.47027 C458.317779,5976.89138 457.495117,5976.24454 456.589122,5975.72637 C455.668127,5975.1994 454.673799,5974.78474 453.698805,5974.34617 C453.580139,5974.293 453.361473,5974.36253 453.22414,5974.43489 C452.112813,5975.02007 451.005486,5975.61217 449.906159,5976.21654 C449.099163,5976.66014 448.245834,5976.65322 447.667171,5976.16966 C446.748509,5975.40232 446.933175,5974.04383 448.045169,5973.46463 C449.310828,5972.80552 450.628488,5972.22443 451.840481,5971.48761 C452.948809,5970.81371 453.915803,5970.88324 455.05413,5971.42154 Z" id="Let's_start_icon"></path></g></g></svg>