<svg xmlns="http://www.w3.org/2000/svg" xmlns:xlink="http://www.w3.org/1999/xlink" width="470px" height="360px" viewBox="0 0 470 360"><title>Najm-consultant_illustration</title><desc>Created with Sketch.</desc><defs><linearGradient x1="52.8938518%" y1="88.4744932%" x2="50%" y2="32.1694%" id="linearGradient-1"><stop stop-color="#FFFFFF" offset="0%"></stop><stop stop-color="#EDF3FB" offset="100%"></stop></linearGradient></defs><g id="Welcome" stroke="none" strokeWidth="1" fill="none" fillRule="evenodd"><g id="40_HOURS" transform="translate(-440.000000, -5511.000000)"><g id="Najm-consultant_illustration" transform="translate(440.000000, 5511.000000)"><path d="M257.595079,11.8610104 C269.954632,19.1654447 283.250374,36.0702519 289.504966,49.465834 C294.188429,59.4956694 303.026232,67.0955441 309.849386,71.5534015 C316.672539,76.0112589 339.77945,76.0112589 352.252296,77.1099573 C380.38086,79.5837137 391.622629,75.8262893 412.810434,95.8859601 C423.058047,105.587759 431.296324,117.439771 436.813447,130.723011 C442.262167,143.842234 444.865753,158.639836 453.016389,170.388494 C460.876312,181.716995 475.223088,196.086759 468.0497,217.448166 C460.876312,238.809572 449.758523,239.528481 454.847094,283.476975 C466.799814,309.402785 460.088663,330.663723 434.713641,347.259791 C187.613613,347.259791 52.9427328,347.625111 30.7009997,348.35575 C29.2728197,348.402142 -2.33343627,312.66775 0.137619309,283.476975 C1.42658688,268.218773 7.44055501,250.958238 13.3296191,236.904335 C18.8681182,223.684006 24.5784132,212.618725 23.9713373,197.55375 C23.3770869,182.785357 12.1887185,163.955672 17.3742008,150.077575 C23.9713373,132.421417 50.5141297,130.675828 70.4001418,120.684189 C98.6975758,106.466268 89.9229886,91.4285161 104.817725,65.3136468 C119.697498,39.2324799 142.45002,17.721359 169.629494,7.2960821 C196.80683,-3.12694798 232.375777,-3.04443938 257.595079,11.8610104 Z M71.3884043,64.8077236 C77.5692836,68.7839521 75.5803868,78.1506813 72.4418639,83.3807773 C67.146153,92.1962566 55.8531532,100.24586 45.4737345,99.6562034 C34.6550101,99.0439546 29.4991776,90.1787725 35.0396759,80.5657882 C41.0238511,70.1891874 53.3331553,64.2632514 64.6939088,63.583226 C66.9953465,63.4454135 69.4344771,63.5470784 71.3884043,64.8077236 Z M323.401398,35.4004281 C330.006869,37.5221457 328.607874,46.898317 323.963762,50.3364799 C321.246438,52.3484937 318.167265,51.5455555 315.862495,49.2814564 C311.204554,44.7182463 314.647881,35.6781887 320.647198,35.0853215 C321.518401,34.998959 322.440309,35.0923239 323.401398,35.4004281 Z" id="Combined-Shape" fill="url(#linearGradient-1)"></path><g id="Group-27" transform="translate(108.760331, 70.835580)"><polyline id="Fill-7" fill="#5154AC" points="13.0964102 38.8766194 10.8878037 38.276452 11.9455382 33.4770889 14.1541448 34.0772564 13.0964102 38.8766194"></polyline><path d="M5.80236178,66.905542 L3.43267627,66.3148257 C2.54956365,66.094825 2.00918284,65.1862506 2.22505481,64.286962 L8.53931,37.9954472 C8.75518198,37.0961585 9.6460043,36.5447282 10.5291169,36.7654432 L12.8988024,37.3561594 C13.781915,37.5761601 14.3229967,38.4847345 14.1064239,39.3840232 L7.79286958,65.6755379 C7.57629672,66.5748266 6.6854744,67.126257 5.80236178,66.905542" id="Fill-6" fill="#7B97FF"></path><path d="M33.2802246,21.1284786 C31.1369412,29.8163743 22.2979904,35.1349857 13.5385755,33.0092019 C4.77985827,30.8827261 -0.583233918,22.1159439 1.56074713,13.4287403 C3.70472817,4.74084464 12.5429813,-0.578458734 21.3023962,1.54801704 C30.0611134,3.67449281 35.4242056,12.440583 33.2802246,21.1284786" id="Fill-8" fill="#FFFFFE"></path><path d="M34.0370379,21.720017 L32.6639894,21.3862081 C31.8162628,24.8175668 29.8514318,27.6710716 27.2403772,29.6781324 C24.6300296,31.684492 21.3791145,32.8317847 17.9783096,32.8317847 C16.7876743,32.8317847 15.5779493,32.6915288 14.3675173,32.3976929 C10.9080289,31.5568592 8.03113176,29.6080045 6.00761744,27.018882 C3.98481016,24.4290582 2.82811225,21.2052781 2.82811225,17.8314242 C2.82811225,16.6504702 2.96951786,15.4512829 3.26576262,14.2499918 C4.11348927,10.818633 6.07832025,7.96512827 8.68937488,5.95806742 C11.3004295,3.95240913 14.5506375,2.80441521 17.9521495,2.80511649 C19.1420778,2.80511649 20.3518028,2.94537231 21.5622348,3.23920826 C25.0217231,4.07934065 27.8986203,6.02819533 29.9221346,8.61801913 C31.9449419,11.2078429 33.1016398,14.4316231 33.1016398,17.8054769 C33.1016398,18.9857297 32.9602342,20.1856182 32.6639894,21.3862081 L34.0370379,21.720017 L35.4107935,22.0531245 C35.7614794,20.6330343 35.9297521,19.2080351 35.9297521,17.8054769 C35.929045,13.793459 34.5552895,9.97008528 32.1584644,6.90058656 C29.7623463,3.83038656 26.3304321,1.50775011 22.2346185,0.514037596 C20.8028867,0.166904431 19.3662057,0 17.9521495,0 C13.907242,0 10.052525,1.36258533 6.95715613,3.74062284 C3.8624943,6.11725778 1.52081736,9.52056536 0.518958598,13.5830753 C0.168272679,15.0031655 0,16.4281647 0,17.8314242 C0.000707028062,21.8434421 1.37446255,25.6668159 3.77199471,28.7363146 C6.16740579,31.8065146 9.59932,34.1284497 13.6951336,35.1221623 C15.1268654,35.4699967 16.5635464,35.6369011 17.9783096,35.6369011 C22.0225101,35.6369011 25.8772271,34.2736145 28.9725959,31.8962783 C32.0672578,29.5196434 34.4089347,26.1156345 35.4107935,22.0531245 L34.0370379,21.720017" id="Fill-9" fill="#7B97FF"></path><path d="M9.00084115,26.3934257 L10.250973,16.3438581 L22.1576826,20.532899 C22.3487326,20.5996758 22.5591645,20.5804 22.734986,20.4798906 C22.9101152,20.3786927 23.0326364,20.2072759 23.0693235,20.0090107 L25.0303554,9.4527653 C25.0995764,9.07895278 24.8517651,8.72028551 24.4752027,8.65075501 C24.0993325,8.58191292 23.7386909,8.82905601 23.6687777,9.20286853 L21.8551867,18.9660531 L9.90071456,14.7598017 C9.70274241,14.6902712 9.48469616,14.7136775 9.30541369,14.8231364 C9.12682343,14.9332837 9.00845546,15.1170921 8.98284368,15.3243068 L7.62680368,26.2247626 C7.57973338,26.6020173 7.84900319,26.9455393 8.22833444,26.9923519 C8.60766569,27.0391645 8.95377085,26.7706804 9.00084115,26.3934257" id="Fill-20" fill="#FF6A5F"></path><path d="M21.7132375,11.1539886 L23.6098953,9.99289778 L24.947065,11.6392375 C25.1541863,11.8948697 25.5606129,11.9553845 25.8543604,11.775537 C26.1487592,11.5956895 26.2191023,11.2427812 26.0113297,10.9877145 L24.2989969,8.87874827 C24.1999955,8.75715328 24.0462829,8.67288512 23.8775897,8.647435 C23.7082453,8.62198488 23.5317363,8.65648393 23.3910501,8.74244876 L20.9629114,10.2298666 C20.6685126,10.4097141 20.5988209,10.7626224 20.8059421,11.0176891 C21.0130634,11.2733214 21.4194901,11.3338361 21.7132375,11.1539886" id="Fill-21" fill="#FF6A5F"></path></g><g id="Group-26" transform="translate(69.246742, 222.618807) rotate(-29.000000) translate(-69.246742, -222.618807) translate(32.831453, 174.101287)"><path d="M68.3259202,94.4605869 C68.1136313,94.5890554 67.8856449,94.7095401 67.6486886,94.8205892 C65.8061103,95.6719657 63.9224197,95.6255137 63.2309856,94.7581694 C63.050839,94.8118795 62.8819048,94.8590572 62.7189507,94.8989768 C61.8466225,95.1188976 61.2501205,95.1573656 61.1028637,94.9628482 L58.1584759,91.0006451 L57.6808258,90.3597539 L70.3591101,84.4922966 L71.883255,89.9728966 C71.9609946,90.2508822 71.37421,90.7988696 70.38004,91.4484706 C70.6050363,92.3775089 69.7633555,93.5997748 68.3259202,94.4605869" id="Fill-23" fill="#3C6BC8"></path><path d="M60.7249757,94.781818 C60.5096942,94.781818 60.3637651,94.7515206 60.3016369,94.6876795 L58.5844418,92.9055401 C58.9875528,92.8308785 59.4571266,92.7259195 59.9787146,92.5933682 C60.4439539,93.1084248 61.2111652,93.9508022 61.8635115,94.6400692 C61.3896032,94.7320436 61.0002182,94.781818 60.7249757,94.781818" id="Fill-24" fill="#3C488C"></path><path d="M58.0852581,89.3308433 C58.0852581,89.3308433 46.9023882,95.1890202 38.1043027,95.7611472 C37.3060709,95.8130277 36.549771,95.4239237 36.1586602,94.7682114 C36.0389636,94.5693361 35.9108805,94.3466821 35.7736487,94.0980879 C34.7794803,92.3240618 33.3797155,89.379121 32.9619208,86.2756563 C32.7934306,85.0053038 33.9644756,83.9309444 35.3085852,84.1038795 C38.3635184,84.4994686 44.1005716,84.7199608 51.3608981,82.5892561 C52.3855625,82.2895019 53.439198,81.9407495 54.5195175,81.540837 L58.0852581,89.3308433" id="Fill-25" fill="#3C6BC8"></path><path d="M38.2503633,96.5614972 C37.4916217,96.5614972 36.787298,96.1615845 36.4118142,95.5132412 C36.2897625,95.304196 36.1591595,95.0701562 36.0192276,94.8088496 C36.3402935,94.8421757 36.6800169,94.8573239 37.0352883,94.8573239 C43.7372467,94.8573239 55.9097632,89.2426409 55.9097632,89.2426409 C55.0406309,87.3006407 52.5405151,83.6256856 51.913154,82.7114913 C52.3034084,82.5940927 52.6975498,82.46912 53.0963555,82.3365732 C54.7265616,84.6716693 56.3373327,87.3021555 57.8796927,90.2590856 C55.0274151,91.7004375 45.8680979,96.0563045 38.3957369,96.5569527 C38.3467608,96.5599824 38.298562,96.5614972 38.2503633,96.5614972" id="Fill-26" fill="#3C6BC8"></path><path d="M50.1824903,81.2939683 C50.1824903,81.2939683 49.653147,81.5216767 48.8531506,81.7171493 C47.1813825,82.1327858 44.3268161,82.4133061 42.6408425,80.2075521 C42.4606564,79.9736709 42.5062637,79.6506267 42.7522439,79.4736726 C42.9406542,79.3378706 43.1978493,79.3193521 43.4042035,79.4284052 C43.9978457,79.7363603 45.3862505,80.2487043 47.3032511,79.6561137 C47.9140895,79.4695574 48.577264,79.1725762 49.2845505,78.7212745 L50.1824903,81.2939683" id="Fill-27" fill="#E15F62"></path><path d="M50.3126278,80.3904871 C49.8936946,79.7075081 49.2385885,78.8298452 48.9786054,78.4848679 C49.2051253,78.4106724 49.4400111,78.3174524 49.6826192,78.2020372 C50.1768446,78.8101866 50.67107,79.4487751 51.1646519,80.1190711 C50.9638728,80.195169 50.6691394,80.296633 50.3126278,80.3904871" id="Fill-28" fill="#DF5356"></path><path d="M65.4651101,89.4743939 C65.1990473,89.5967703 64.9367424,89.715526 64.6729343,89.8292129 C61.0277229,91.4374845 57.9973121,92.3028084 57.737262,91.7814417 C46.3987756,68.8594086 30.6755132,65.2199792 30.6755132,65.2199792 L48.8504621,55.8817217 L67.8266058,48.1640459 C67.8266058,48.1640459 60.8548572,62.2206722 72.192592,85.1434295 C72.4706803,85.7017263 69.4583077,87.6409209 65.4651101,89.4743939" id="Fill-29" fill="#7B97FF"></path><path d="M59.9907971,43.4774204 C61.9072772,42.7611688 63.4433072,42.2557971 64.5561988,41.9746239 C66.0607742,41.5950402 66.7070901,41.6327766 66.9385056,42.1122508 C66.9385056,42.1122508 68.6662585,45.0135136 67.1953844,47.2259022 C67.1497004,47.3679686 66.9886831,47.5610902 66.7243152,47.7986075 L66.7235663,47.8000873 L66.7228174,47.8000873 C64.8692463,49.4664081 57.9058105,53.3288391 49.3651542,57.3503549 C40.8252469,61.3718706 33.4034735,64.2834924 30.9253052,64.6556769 L30.9253052,64.6564168 L30.9238073,64.6564168 C30.5703182,64.7089518 30.3171841,64.7111716 30.1763876,64.6564168 C27.5109898,64.392262 26.3179641,61.2386834 26.3179641,61.2386834 C26.0865486,60.7592092 26.464003,60.2397788 27.7102019,59.3244862 C28.6321195,58.6474509 29.9966473,57.7869132 31.7670885,56.7665506 C35.3881051,54.6806899 40.3174807,52.1493918 45.6467784,49.6402915 C50.9753271,47.1311913 56.0694646,44.9424804 59.9907971,43.4774204" id="Fill-31" fill="#3C6BC8"></path><path d="M46.2398965,51.6041259 C35.3825894,56.6634119 26.9307048,61.4819516 27.3625421,62.3675797 C27.79364,63.2524848 36.9450419,59.8690241 47.802349,54.8097381 C58.6596562,49.7511751 67.1115407,44.9319124 66.6797034,44.0470073 C66.2486056,43.1621022 57.0972037,46.5455629 46.2398965,51.6041259" id="Fill-32" fill="#C9D5FF"></path><path d="M46.2127063,51.2638056 C42.8638749,52.7964333 39.9263166,54.2178565 37.4312108,55.4874425 L37.4096821,55.4974224 C31.8678896,58.3160318 28.5108922,60.3797328 27.6801801,61.2173317 C29.423265,61.0818902 36.6004987,58.6075875 47.4034678,53.6632591 C50.1123762,52.4236127 52.5532889,51.2552514 54.7069045,50.1838377 C61.1447376,46.9781507 65.0317873,44.6207554 65.935994,43.7097329 C64.1914244,43.8430359 57.0171601,46.3194772 46.2127063,51.2638056" id="Fill-33" fill="#3C6BC8"></path><path d="M65.582965,94.4945827 C64.7009774,94.4945827 63.9785493,94.2923751 63.5960874,93.8981981 C63.5960874,93.8981981 64.8172394,93.5430549 65.1964941,93.4003578 C65.1964941,93.4003578 65.81148,93.9423511 67.1593175,93.942991 C67.6812939,93.942991 68.3123159,93.861724 69.0612037,93.6358401 C68.8334905,93.749102 68.5889394,93.855325 68.3347665,93.9532293 C67.377409,94.3166912 66.4104298,94.4945827 65.582965,94.4945827" id="Fill-34" fill="#3C488C"></path><polyline id="Fill-41" fill="#7B97FF" points="37.9829441 50.1505451 13.1819423 37.8292465 18.4735771 35.9944615 0.820153421 20.6064721 29.9018108 37.6783399 22.4877153 38.7899686 37.9829441 50.1505451"></polyline><polyline id="Fill-42" fill="#7B97FF" points="44.5461904 43.4921234 27.0550386 23.0023974 32.5391742 23.4328961 22.6857253 3.00580121 42.1665862 29.3490148 35.0555709 27.4564039 44.5461904 43.4921234"></polyline><polyline id="Fill-43" fill="#7B97FF" points="53.3286845 39.5273234 46.2111352 17.5360812 50.3886509 19.6336802 49.2646722 0.135226124 56.0483445 27.4467755 51.0637752 23.6593007 53.3286845 39.5273234"></polyline></g><g id="Group-22" transform="translate(265.103306, 148.463612)"><path d="M45.5737598,28.1420112 C45.8803227,29.4443695 45.101554,30.7560546 43.8357457,31.0714696 L9.09194562,39.7157035 C7.82613734,40.0311184 6.55126403,39.2298628 6.24470109,37.9275045 L0.0664688985,11.6429284 C-0.239269949,10.3397222 0.53867472,9.02803705 1.80530709,8.71347003 L36.5482831,0.0683881805 C37.8149154,-0.246178842 39.0897888,0.554228892 39.3955276,1.85743513 L45.5737598,28.1420112 Z" id="Fill-44" fill="#6280EF"></path><path d="M27.1844099,20.6830418 L29.6914671,31.4767974 C29.8200134,32.0315105 29.4925842,32.5904322 28.9598042,32.7242704 L18.5928276,35.334536 C18.0600477,35.469216 17.5240338,35.1274656 17.394679,34.5727526 L14.8876219,23.7798388 C14.7590755,23.224284 15.0865048,22.666204 15.6192848,22.5315241 L25.9862614,19.9212584 C26.5190413,19.7874202 27.0558636,20.1283288 27.1844099,20.6830418" id="Fill-45" fill="#7B97FF"></path><path d="M24.0001893,7.42190098 L26.5072465,18.2147822 C26.6357928,18.7703352 26.3083635,19.3284136 25.7755836,19.4630931 L15.408607,22.0733508 C14.875827,22.2071886 14.3390047,21.866281 14.2104584,21.3115697 L11.7034012,10.5178468 C11.5748549,9.96313544 11.9022842,9.40421537 12.4350641,9.27037759 L22.8020407,6.66011986 C23.3348207,6.52544033 23.8708345,6.8663479 24.0001893,7.42190098" id="Fill-46" fill="#7B97FF"></path><path d="M40.9826994,18.4728131 L43.4897566,29.2667572 C43.6183029,29.8214799 43.2908736,30.3804114 42.7580936,30.514252 L32.3911171,33.1245632 C31.8583371,33.2584037 31.3215148,32.9174891 31.1929685,32.3627664 L28.6859113,21.5688223 C28.557365,21.0140996 28.8847943,20.4560099 29.4175742,20.3213276 L39.7845508,17.7110163 C40.3173308,17.5771758 40.8533446,17.9180904 40.9826994,18.4728131" id="Fill-47" fill="#7B97FF"></path><path d="M36.7371161,3.00144263 L39.2441295,13.7946899 C39.3726736,14.34942 39.0452501,14.908359 38.5124794,15.0422014 L28.1456839,17.6525476 C27.6129132,17.7872317 27.0761003,17.4463126 26.9475562,16.8907407 L24.4405428,6.09749343 C24.3111903,5.54276328 24.6394223,4.98382426 25.172193,4.84998193 L35.53818,2.23963568 C36.0717592,2.10495158 36.6077636,2.44587071 36.7371161,3.00144263" id="Fill-48" fill="#7B97FF"></path><path d="M15.8977677,34.8113123 C16.0053134,35.2896282 15.7309136,35.7704838 15.2849152,35.8856183 L8.86222146,37.5491418 C8.41622302,37.6642763 7.96706148,37.3705141 7.85872498,36.8930448 L2.1461493,11.6032542 C2.03860358,11.1257848 2.31300333,10.6440826 2.75900176,10.5289481 L9.18169551,8.86627117 C9.62769395,8.75029014 10.0768555,9.04405231 10.185192,9.52236824 L15.8977677,34.8113123 Z" id="Fill-49" fill="#7B97FF"></path><path d="M18.1248805,28.7115323 L26.8888465,26.9411985 C27.3854435,26.8407869 27.6906148,26.4236926 27.5703958,26.0089154 C27.4501768,25.5941383 26.9508055,25.3392473 26.4542085,25.4396589 L17.6902425,27.2099927 C17.1936455,27.3104043 16.8884742,27.7274986 17.0086932,28.1422758 C17.1289122,28.5570529 17.6282835,28.8111715 18.1248805,28.7115323" id="Fill-50" fill="#FFFFFE"></path><path d="M21.249145,24.2777339 L22.9489769,32.4904245 C23.0454318,32.9557843 23.4468325,33.2417596 23.8452654,33.1291027 C24.2429564,33.0164458 24.4878034,32.5484862 24.3913485,32.0831264 L22.6915166,23.8704357 C22.5950617,23.4059425 22.1936609,23.1199672 21.79597,23.2317576 C21.3975371,23.3444145 21.1526901,23.8132407 21.249145,24.2777339" id="Fill-51" fill="#FFFFFE"></path><path d="M32.2360341,23.5490922 L39.0816975,27.5135011 C39.469964,27.7382549 39.9758619,27.621976 40.2127703,27.2544098 C40.4496786,26.8868435 40.3271114,26.4061199 39.938845,26.181366 L33.0940042,22.2169572 C32.7057377,21.9922033 32.1998398,22.1084822 31.9629314,22.4760485 C31.7260231,22.8443951 31.8485903,23.3243383 32.2360341,23.5490922" id="Fill-52" fill="#FFFFFE"></path><path d="M37.8826129,21.4078108 L34.0750211,28.5348654 C33.8591576,28.9391401 33.9708369,29.4658963 34.3238637,29.7125724 C34.6768904,29.9592485 35.1385984,29.8316279 35.3544619,29.4282097 L39.1620537,22.3002986 C39.3779172,21.8968804 39.2662378,21.3692677 38.9132111,21.1225916 C38.5594348,20.876772 38.0984764,21.0035361 37.8826129,21.4078108" id="Fill-53" fill="#FFFFFE"></path><path d="M17.0035198,9.91148278 L18.7033518,18.1241734 C18.7998067,18.5886667 19.2012074,18.874642 19.5988983,18.7628516 C19.9973312,18.6501947 20.2421782,18.1813685 20.1457234,17.7168753 L18.4451495,9.50418462 C18.3494365,9.03882482 17.9480358,8.75284952 17.5496029,8.86550645 C17.151912,8.97816339 16.907065,9.44612297 17.0035198,9.91148278" id="Fill-54" fill="#FFFFFE"></path><path d="M30.8015656,6.59617711 L32.5018717,14.8084478 C32.5983114,15.2738329 32.9989071,15.5598237 33.3972772,15.4471607 C33.7956473,15.3353643 34.0404558,14.8665126 33.9440161,14.4011275 L32.24371,6.18885681 C32.1472703,5.72347169 31.7466746,5.43748084 31.3483045,5.55014391 C30.9499344,5.66194033 30.7058677,6.130792 30.8015656,6.59617711" id="Fill-55" fill="#FFFFFE"></path><path d="M29.4696428,8.87219363 C30.0392389,8.72876916 30.6130604,9.09304973 30.7508114,9.68610554 C30.8885623,10.2791614 30.5386918,10.8766167 29.9690957,11.0200412 C29.3994997,11.1634656 28.8256781,10.7983052 28.6879272,10.2052494 C28.5501762,9.61307344 28.9008919,9.01561811 29.4696428,8.87219363" id="Fill-56" fill="#FFFFFE"></path><path d="M34.7768286,7.76707632 C35.3464981,7.62363354 35.9203935,7.9879606 36.0581623,8.58109209 C36.1950858,9.17422358 35.8451701,9.77175516 35.2755007,9.91519794 C34.7058312,10.0577607 34.1327809,9.69343364 33.9950122,9.10030215 C33.8572435,8.50717066 34.2071591,7.9105191 34.7768286,7.76707632" id="Fill-57" fill="#FFFFFE"></path></g><polygon id="Fill-69" fill="#6979AD" points="381.632231 331.859838 408.822314 331.859838 408.822314 280.431267 381.632231 280.431267"></polygon><polygon id="Fill-70" fill="#F2AE40" points="414.64876 348.355795 431.157025 348.355795 431.157025 281.401617 414.64876 281.401617"></polygon><polyline id="Fill-71" fill="#DC9735" points="414.64876 281.401617 405.932208 281.401617 396.957742 313.778538 378.719008 313.778538 378.719008 348.355795 414.64876 348.355795 414.64876 281.401617"></polyline><path d="M417.561983,291.590724 C417.561983,294.002673 419.517642,295.956873 421.93139,295.956873 C424.345138,295.956873 426.301653,294.002673 426.301653,291.590724 C426.301653,289.178776 424.345138,287.22372 421.93139,287.22372 C419.517642,287.22372 417.561983,289.178776 417.561983,291.590724" id="Fill-72" fill="#F8C87D"></path><polygon id="Fill-73" fill="#F8C87D" points="417.561983 328.948787 426.301653 328.948787 426.301653 300.808625 417.561983 300.808625"></polygon><polygon id="Fill-74" fill="#F8C87D" points="417.561983 333.800539 426.301653 333.800539 426.301653 331.859838 417.561983 331.859838"></polygon><polygon id="Fill-75" fill="#F8C87D" points="417.561983 337.681941 426.301653 337.681941 426.301653 335.74124 417.561983 335.74124"></polygon><polygon id="Fill-76" fill="#96ACFF" points="357.355372 331.859838 384.545455 331.859838 384.545455 280.431267 357.355372 280.431267"></polygon><polygon id="Fill-77" fill="#5272E8" points="391.342975 348.355795 407.85124 348.355795 407.85124 281.401617 391.342975 281.401617"></polygon><polyline id="Fill-78" fill="#7B97FF" points="392.31405 281.401617 383.597497 281.401617 374.623031 313.778538 356.384298 313.778538 356.384298 348.355795 392.31405 348.355795 392.31405 281.401617"></polyline><path d="M394.256198,291.590724 C394.256198,294.002673 396.212521,295.956873 398.626033,295.956873 C401.039545,295.956873 402.995868,294.002673 402.995868,291.590724 C402.995868,289.178776 401.039545,287.22372 398.626033,287.22372 C396.212521,287.22372 394.256198,289.178776 394.256198,291.590724" id="Fill-79" fill="#4662CD"></path><polygon id="Fill-80" fill="#4662CD" points="395.227273 328.948787 403.966942 328.948787 403.966942 300.808625 395.227273 300.808625"></polygon><polygon id="Fill-81" fill="#4662CD" points="395.227273 333.800539 403.966942 333.800539 403.966942 331.859838 395.227273 331.859838"></polygon><polygon id="Fill-82" fill="#4662CD" points="395.227273 337.681941 403.966942 337.681941 403.966942 335.74124 395.227273 335.74124"></polygon><polygon id="Fill-83" fill="#FFFFFE" points="327.252066 347.385445 352.5 347.385445 352.5 317.304582 327.252066 317.304582"></polygon><polygon id="Fill-84" fill="#F3F8FA" points="325.309917 347.385445 333.078512 347.385445 333.078512 317.304582 325.309917 317.304582"></polygon><path d="M328.183461,342.533693 L329.428065,340.99797 C329.330087,340.924796 319.940749,333.748083 319.578912,327.608944 C319.41885,324.845206 320.093051,322.705326 321.531669,321.423837 C322.547336,320.520416 323.935511,320.094503 325.24996,320.261491 C327.364719,320.54856 329.753039,322.636842 329.776321,322.657481 L331.136364,321.2212 C331.020925,321.117068 328.267857,318.703253 325.528371,318.332691 C323.620237,318.073766 321.618006,318.695748 320.166777,319.990371 C318.841657,321.167727 317.316702,323.467089 317.568921,327.720582 C317.981202,334.739689 327.76924,342.216604 328.183461,342.533693" id="Fill-85" fill="#F3F8FA"></path><path d="M247.097281,317.732108 C239.461175,309.96611 232.593829,301.721917 228.441024,296.544897 C225.845403,293.309609 224.318182,291.258601 224.318182,291.258601 L242.974146,245.498652 C242.974146,245.498652 275.396288,309.019994 277.15292,314.824645 C279.498529,322.57103 274.957129,341.886557 258.00694,327.85826 C254.334493,324.820974 250.640509,321.326042 247.097281,317.732108 Z" id="Fill-95" fill="#1C3C7C"></path><path d="M244.710744,317.304582 C237.158891,309.349385 230.367316,300.904344 226.260331,295.601198 L233.763104,280.119419 L240.199079,276.549865 C240.199079,276.549865 242.479914,305.045064 244.710744,317.304582" id="Fill-97" fill="#1D7E76"></path><path d="M234.931837,347.385445 L179.355933,347.385445 C178.715047,342.580253 175.915477,334.705873 175.124238,326.536953 C174.632767,321.462249 174.131899,315.946186 173.641368,310.269542 C171.22724,282.410321 167.626987,249.406647 169.476556,246.954178 C179.355933,233.854447 197.675903,233.854447 197.675903,233.854447 L220.716771,234.535269 C220.716771,234.535269 242.590401,238.855236 243.592137,245.862534 C244.593873,252.869832 240.250623,310.11586 237.917311,325.45172 C236.634601,333.910811 235.592457,341.909761 234.931837,347.385445 Z" id="Fill-98" fill="#21407E"></path><path d="M195.18595,234.084149 C195.18595,239.012374 198.439472,248.917565 204.946516,263.799724 L207.600112,302.58304 L207.600112,349.326146 L230.144628,347.13106 L224.145796,300.48549 L217.187145,262.407708 L221.066323,235.008969 C216.523003,234.239288 212.412934,233.854447 208.736115,233.854447 C203.220888,233.854447 197.974476,234.176729 195.18595,234.084149 Z" id="Path-13" fill="#FFFFFF"></path><path d="M205.588328,240.95918 L206.360581,242.874808 L207.081527,244.966234 C207.102208,245.506361 207.182604,245.919963 207.322715,246.207039 C207.532881,246.637652 208.153916,247.335282 208.267513,247.919689 C208.343244,248.309293 209.189404,249.559839 210.805992,251.671327 L211.918586,248.886265 C212.316125,247.676876 212.343567,247.004414 212.000911,246.868878 C211.658255,246.733343 211.495925,245.898228 211.513921,244.363532 L210.804021,242.090814 L212.428068,240.960589 L215.425437,238.560097 L206.757189,237.446139 L205.588328,240.95918 Z" id="Path-6" fill="#F9B589" transform="translate(210.506883, 244.558733) rotate(11.000000) translate(-210.506883, -244.558733) "></path><g id="Group-106" transform="translate(207.809917, 212.991914) scale(-1, 1) translate(-207.809917, -212.991914) translate(192.272727, 181.455526)"><path d="M4.57339786,51.593512 C2.84273616,55.6202796 10.8599951,62.9289105 13.3941294,62.8128642 C15.9214235,62.7080339 22.6017399,61.7667121 26.5206731,52.6525709 C24.119304,44.9588876 23.7099124,39.6553738 23.2783078,36.0164142 C22.8474895,32.4066504 5.40942083,37.9726779 5.40942083,37.9726779 C6.59555015,42.5668029 6.3231714,47.5912955 4.57339786,51.593512 Z" id="Fill-883" fill="#F9B589"></path><path d="M1.57139638,11.4358707 C3.21986566,7.04753379 12.065356,3.24581118 14.1433857,3.26238498 C26.9664443,3.33574553 27.3288034,12.6480423 27.2213475,22.2376745 C30.1864122,20.2738274 31.3351779,23.5431346 31.0254774,27.3534147 C30.7984451,30.2650196 29.2706071,33.9868391 24.9918067,35.0264408 C23.8171291,43.2699377 17.9910249,49.6522599 12.5124452,50.0032438 C10.9247251,50.1049608 9.51723142,49.8269792 8.25123944,48.9751639 C6.31313246,47.9967282 4.98427753,45.9836492 3.9400854,43.4406755 C2.91538178,41.1738986 1.45227365,34.7859715 1.34028,34.3627269 C-0.0400672502,27.983749 -0.904954866,18.3073459 1.57139638,11.4358707 Z" id="Fill-910" fill="#FFC098"></path><path d="M18.2099799,1.09180363 C15.3451056,0.88552397 16.0097501,8.09653882 16.5438011,8.37050273 C18.1057227,7.39310253 19.6872016,8.90387194 20.0760512,9.09951887 C20.8621067,9.4439451 22.4104255,11.7386002 22.6105595,13.445434 C22.732844,14.4883324 24.3810602,15.4112711 24.9446434,16.5271419 C25.8423037,18.3044712 25.2468745,21.4122051 25.1501368,22.8366949 L27.170486,21.0316545 C27.7945325,18.3046554 27.9948532,15.8997818 27.771448,13.8170337 C27.4363403,10.6929116 26.802199,10.1688435 25.9145753,8.02827009 C25.0269517,5.88769666 21.0748541,1.29808329 18.2099799,1.09180363 Z" id="Fill-911" fill="#131730"></path><path d="M1.53611989,6.3968429 C3.42323053,2.88180934 6.78905181,1.12364178 9.08118816,0.416264281 C10.3783112,0.0159583934 17.4670893,-0.728010502 20.9774878,1.84418836 C23.3511702,3.87786394 25.3686076,8.72110408 25.6983643,12.2337005 C25.9206404,14.6014047 24.0666426,12.46209 23.298316,10.646789 C22.8943981,9.69246511 22.0661735,8.37941041 19.8684923,7.63132381 C17.670811,6.88323722 16.5742124,9.96343861 12.7169354,9.89928682 C8.85965838,9.83513503 6.60132754,7.54528386 4.79015005,9.33931367 C3.7533635,10.4230287 3.76058833,11.954087 3.40116107,13.0164439 C3.0417338,14.0788007 2.53824835,15.2363441 1.96861089,15.8722434 C1.60338553,16.2799528 1.05325881,19.5743099 1.05325881,19.5743099 C-0.484392316,18.0136995 -0.35099075,9.91187646 1.53611989,6.3968429 Z" id="Fill-916" fill="#131730"></path><path d="M5.3841621,46.4675243 C5.20429801,46.3034322 6.08724538,44.9377451 6.72409345,45.304023 C7.36094153,45.6703009 7.5856427,47.6364028 8.29874146,47.8693398 C9.74933942,48.1851863 10.1420995,45.8133199 11.5148754,45.8800794 C12.8876513,45.9468388 13.2899864,46.933334 14.1119365,47.5626738 C14.9338867,48.1920135 16.8108259,48.1421734 17.3667687,47.2037353 C17.6350835,46.7508167 18.0062192,44.5824615 18.9937207,44.1253555 C19.424473,43.925964 20.1010502,44.1253555 20.763042,45.0468935 C19.8326649,46.1592361 18.5766302,48.3355023 17.0270761,49.063449 C15.477522,49.7913957 13.3315409,49.9747192 12.0278694,50.0201457 C10.7241979,50.0655722 7.01209436,49.6442808 5.3841621,46.4675243 Z" id="Path-7" fill="#131730"></path></g><path d="M129.289296,329.182763 C132.065599,337.477536 154.477713,332.942054 160.282195,328.41789 C166.086676,323.893725 181.53907,281.763335 181.53907,281.763335 C181.53907,281.763335 193.608446,241.599295 169.045927,246.961897 C166.987372,252.031443 126.513939,320.888933 129.289296,329.182763 Z" id="Fill-100" fill="#1C3C7C"></path><path d="M215.578512,348.021339 C215.578512,348.021339 233.589052,348.248214 234.263941,348.349454 C234.937819,348.449475 236.780358,347.366327 235.567176,345.090252 C234.352982,342.814177 229.679348,342.814177 227.971382,342.651949 C226.263417,342.489721 225.499487,341.134566 222.398234,340.592992 L215.578512,348.021339" id="Fill-101" fill="#E9846E"></path><path d="M204.958829,335.928752 C204.958829,335.928752 211.784971,337.019674 214.686994,337.515801 C217.588057,338.011929 225.802291,335.322787 229.727371,334.786634 C233.653412,334.250482 249.611177,347.58263 248.543932,347.995914 C247.477647,348.410129 244.127977,348.843892 241.098191,346.942225 C238.069367,345.040558 232.394043,341.856219 231.242264,341.898106 C230.090484,341.939062 224.713912,344.213058 222.665877,345.494798 C220.617842,346.776539 218.185561,348.306808 215.113508,348.347764 C212.041456,348.388721 205.640867,348.285399 199.070248,347.748316 L204.958829,335.928752" id="Fill-102" fill="#EEA29E"></path><polyline id="Fill-103" fill="#E46D68" points="206.380105 334.770889 210.72314 348.355795 204.896694 348.355795 206.380105 334.770889"></polyline><path d="M130.38491,323.543309 C130.38491,323.543309 123.691306,344.140032 133.638878,346.636774 C143.586451,349.132581 209.349148,348.175465 209.349148,348.175465 C209.349148,348.175465 209.752066,338.978911 209.752066,333.886155 C209.752066,333.886155 183.058999,327.940236 173.513388,326.045671 C168.818103,325.112905 153.937898,322.156334 153.937898,322.156334 L130.38491,323.543309" id="Fill-104" fill="#1C3C7C"></path><path d="M60.1809388,349.326146 L445.748813,349.326146 C446.27162,349.326146 446.694215,348.891429 446.694215,348.355795 C446.694215,347.820162 446.27162,347.385445 445.748813,347.385445 L60.1809388,347.385445 C59.6590771,347.385445 59.2355372,347.820162 59.2355372,348.355795 C59.2355372,348.891429 59.6590771,349.326146 60.1809388,349.326146" id="Fill-140" fill="#C1CEF4"></path><path d="M26.2084031,349.326146 L47.5932498,349.326146 C48.1234288,349.326146 48.553719,348.891429 48.553719,348.355795 C48.553719,347.820162 48.1234288,347.385445 47.5932498,347.385445 L26.2084031,347.385445 C25.6782241,347.385445 25.2479339,347.820162 25.2479339,348.355795 C25.2479339,348.891429 25.6782241,349.326146 26.2084031,349.326146" id="Fill-141" fill="#C1CEF4"></path><path d="M120.384613,360 L216.578197,360 C217.09938,360 217.520661,359.565283 217.520661,359.02965 C217.520661,358.493046 217.09938,358.059299 216.578197,358.059299 L120.384613,358.059299 C119.864373,358.059299 119.442149,358.493046 119.442149,359.02965 C119.442149,359.565283 119.864373,360 120.384613,360" id="Fill-142" fill="#C1CEF4"></path><path d="M254.392878,358.059299 L350.586461,358.059299 C351.106702,358.059299 351.528926,357.624582 351.528926,357.088949 C351.528926,356.552345 351.106702,356.118598 350.586461,356.118598 L254.392878,356.118598 C253.871695,356.118598 253.450413,356.552345 253.450413,357.088949 C253.450413,357.624582 253.871695,358.059299 254.392878,358.059299" id="Fill-143" fill="#C1CEF4"></path><path d="M215.992052,346.415094 L169.523526,346.415094 C169.216215,346.415094 168.966942,346.234527 168.966942,346.012765 L168.966942,343.905686 C168.966942,343.683924 169.216215,343.504043 169.523526,343.504043 L215.992052,343.504043 C216.300314,343.504043 216.549587,343.683924 216.549587,343.905686 L216.549587,346.012765 C216.549587,346.234527 216.300314,346.415094 215.992052,346.415094" id="Fill-144" fill="#3B56C2"></path><path d="M215.152268,346.415094 C214.778597,346.415094 214.515992,346.049686 214.637412,345.698297 L239.070951,274.974572 C239.14625,274.755888 239.353322,274.609164 239.585807,274.609164 L335.446906,274.609164 C335.820577,274.609164 336.083181,274.973638 335.961762,275.325028 L311.529164,346.049686 C311.452924,346.26837 311.246793,346.415094 311.013366,346.415094 L215.152268,346.415094 Z" id="Fill-145" fill="#3B56C2"></path><path d="M313.9271,346.415094 L218.065488,346.415094 C217.691819,346.415094 217.429216,346.049686 217.550635,345.698297 L241.984065,274.974572 C242.059363,274.755888 242.266434,274.609164 242.498919,274.609164 L338.359589,274.609164 C338.733258,274.609164 338.995861,274.973638 338.875384,275.325028 L314.441953,346.049686 C314.366655,346.26837 314.159584,346.415094 313.9271,346.415094" id="Fill-146" fill="#6680E7"></path><path d="M291.322314,310.026954 C291.322314,314.046355 286.104526,317.304582 279.669421,317.304582 C273.233318,317.304582 268.016529,314.046355 268.016529,310.026954 C268.016529,306.007553 273.233318,302.749326 279.669421,302.749326 C286.104526,302.749326 291.322314,306.007553 291.322314,310.026954" id="Fill-147" fill="#4660C8"></path><g id="Group-21" transform="translate(216.549587, 61.132075)"><path d="M47.5826446,23.7735849 C47.5826446,36.9034841 36.9310177,47.5471698 23.7913223,47.5471698 C10.6516269,47.5471698 0,36.9034841 0,23.7735849 C0,10.6436857 10.6516269,0 23.7913223,0 C36.9310177,0 47.5826446,10.6436857 47.5826446,23.7735849" id="Fill-149" fill="#7B97FF"></path><path d="M45.4197971,23.7735849 C45.4197971,35.7096707 35.7363136,45.3859348 23.7913223,45.3859348 C11.846331,45.3859348 2.16284748,35.7096707 2.16284748,23.7735849 C2.16284748,11.8374991 11.846331,2.16123499 23.7913223,2.16123499 C35.7363136,2.16123499 45.4197971,11.8374991 45.4197971,23.7735849" id="Fill-150" fill="#FFFFFF"></path><path d="M23.7913223,24.8542024 C23.1944798,24.8542024 22.7098986,24.4356316 22.7098986,23.9185324 L22.7098986,10.6612275 C22.7098986,10.1441283 23.1944798,9.72555746 23.7913223,9.72555746 C24.3881648,9.72555746 24.8727461,10.1441283 24.8727461,10.6612275 L24.8727461,23.9185324 C24.8727461,24.4356316 24.3881648,24.8542024 23.7913223,24.8542024" id="Fill-151" fill="#7B97FF"></path><path d="M24.332438,6.48370497 C24.0336129,6.48370497 23.7913223,6.28075094 23.7913223,6.03044096 L23.7913223,3.6951165 C23.7913223,3.44480652 24.0336129,3.24185249 24.332438,3.24185249 C24.6304554,3.24185249 24.8727461,3.44480652 24.8727461,3.6951165 L24.8727461,6.03044096 C24.8727461,6.28075094 24.6304554,6.48370497 24.332438,6.48370497" id="Fill-152" fill="#7B97FF"></path><path d="M37.1511045,11.8867925 C37.0532484,11.8867925 36.9553924,11.8490616 36.8804266,11.7741716 C36.7310674,11.6249632 36.7310674,11.382571 36.8804266,11.2333626 L38.2773074,9.83789252 C38.4266666,9.68811244 38.6693038,9.68811244 38.8192353,9.83789252 C38.9685945,9.98710091 38.9685945,10.2294931 38.8192353,10.3787015 L37.4223545,11.7741716 C37.3473888,11.8490616 37.2495328,11.8867925 37.1511045,11.8867925" id="Fill-153" fill="#7B97FF"></path><path d="M43.8852591,23.7735849 L41.5472165,23.7735849 C41.2966151,23.7735849 41.0941022,23.5314749 41.0941022,23.2328726 C41.0941022,22.9350774 41.2966151,22.6929674 41.5472165,22.6929674 L43.8852591,22.6929674 C44.1365377,22.6929674 44.3383734,22.9350774 44.3383734,23.2328726 C44.3383734,23.5314749 44.1365377,23.7735849 43.8852591,23.7735849" id="Fill-154" fill="#7B97FF"></path><path d="M38.5479852,38.9022298 C38.4501291,38.9022298 38.3522731,38.864499 38.2773074,38.7901806 L36.8804266,37.3941389 C36.7310674,37.2449305 36.7310674,37.0025383 36.8804266,36.8533299 C37.0297859,36.7035498 37.2729953,36.7035498 37.4223545,36.8533299 L38.8192353,38.2488 C38.9685945,38.3985801 38.9685945,38.6404006 38.8192353,38.7901806 C38.7442695,38.864499 38.6458412,38.9022298 38.5479852,38.9022298" id="Fill-155" fill="#7B97FF"></path><path d="M24.332438,44.3053173 C24.0336129,44.3053173 23.7913223,44.1023633 23.7913223,43.8527298 L23.7913223,41.5167289 C23.7913223,41.2664189 24.0336129,41.0634648 24.332438,41.0634648 C24.6304554,41.0634648 24.8727461,41.2664189 24.8727461,41.5167289 L24.8727461,43.8527298 C24.8727461,44.1023633 24.6304554,44.3053173 24.332438,44.3053173" id="Fill-156" fill="#7B97FF"></path><path d="M9.03436438,38.9022298 C8.93654716,38.9022298 8.8381579,38.864499 8.76379393,38.7901806 C8.61392193,38.6404006 8.61392193,38.3985801 8.76379393,38.2488 L10.1606925,36.8533299 C10.3094205,36.7035498 10.5525334,36.7035498 10.7018334,36.8533299 C10.8517054,37.0025383 10.8517054,37.2449305 10.7018334,37.3941389 L9.30493483,38.7901806 C9.23057086,38.864499 9.13275363,38.9022298 9.03436438,38.9022298" id="Fill-157" fill="#7B97FF"></path><path d="M7.11694648,23.7735849 L4.77871468,23.7735849 C4.52884282,23.7735849 4.32569497,23.5314749 4.32569497,23.2328726 C4.32569497,22.9350774 4.52884282,22.6929674 4.77871468,22.6929674 L7.11694648,22.6929674 C7.36681834,22.6929674 7.56996619,22.9350774 7.56996619,23.2328726 C7.56996619,23.5314749 7.36681834,23.7735849 7.11694648,23.7735849" id="Fill-158" fill="#7B97FF"></path><path d="M10.431263,11.8867925 C10.3328737,11.8867925 10.2350565,11.8490616 10.1606925,11.7741716 L8.76379393,10.3787015 C8.61392193,10.2294931 8.61392193,9.98710091 8.76379393,9.83789252 C8.91309391,9.68811244 9.15620689,9.68811244 9.30493483,9.83789252 L10.7018334,11.2333626 C10.8517054,11.382571 10.8517054,11.6249632 10.7018334,11.7741716 C10.6268974,11.8490616 10.5290802,11.8867925 10.431263,11.8867925" id="Fill-159" fill="#7B97FF"></path></g><path d="M56.6972457,286.253369 C57.4405337,286.253369 58.0432517,285.639336 58.0432517,284.882093 C58.0432517,284.766349 58.0249584,284.65649 57.9989625,284.548592 L68.4512097,274.279715 C68.6119986,274.349358 68.7881926,274.387613 68.9730518,274.387613 C69.2763364,274.387613 69.554588,274.280696 69.7798851,274.108061 L80.0646036,280.365121 C80.1348886,281.054683 80.7010199,281.594169 81.3961675,281.594169 C82.1394555,281.594169 82.7421735,280.981116 82.7421735,280.223874 C82.7421735,280.099301 82.7209917,279.980615 82.6901819,279.865851 L93.5679903,266.652359 L93.820246,266.677862 C94.5625712,266.677862 95.1652893,266.063829 95.1652893,265.306586 C95.1652893,264.549344 94.5625712,263.93531 93.820246,263.93531 C93.0759952,263.93531 92.47424,264.549344 92.47424,265.306586 C92.47424,265.478241 92.5089011,265.641068 92.564744,265.793105 L81.7649231,278.911451 C81.6474605,278.876139 81.5251838,278.852598 81.3961675,278.852598 C81.0928829,278.852598 80.8165569,278.958533 80.5912597,279.130188 L70.3046157,272.873127 C70.2333678,272.184547 69.6681994,271.64506 68.9730518,271.64506 C68.2297637,271.64506 67.6270457,272.259094 67.6270457,273.016336 L67.6472647,273.216437 L57.0987368,283.579479 C56.9716461,283.539263 56.8387785,283.510817 56.6972457,283.510817 C55.9539577,283.510817 55.3512397,284.12485 55.3512397,284.882093 C55.3512397,285.639336 55.9539577,286.253369 56.6972457,286.253369" id="Fill-164" fill="#FFFFFE"></path><g id="Group-24" transform="translate(174.793388, 119.353100)"><path d="M27.0153375,24.3886842 C28.9447407,21.8344513 30.1033058,18.6540074 30.1033058,15.1940049 C30.1033058,6.80259036 23.364242,0 15.0521145,0 C6.73906382,0 0,6.80259036 0,15.1940049 C0,23.5854194 6.73906382,30.3880098 15.0521145,30.3880098 C17.9886846,30.3880098 20.7193902,29.5260377 23.0355972,28.0574237 L30.1033058,32.0215633 L27.0153375,24.3886842" id="Fill-165" fill="#FFC200"></path><path d="M7.52582645,16.0111733 C7.52582645,17.1899773 6.56315192,18.1455526 5.37559032,18.1455526 C4.18802871,18.1455526 3.22535419,17.1899773 3.22535419,16.0111733 C3.22535419,14.8323693 4.18802871,13.8760108 5.37559032,13.8760108 C6.56315192,13.8760108 7.52582645,14.8323693 7.52582645,16.0111733" id="Fill-166" fill="#FFFFFE"></path><path d="M16.126771,16.0111733 C16.126771,17.1899773 15.164273,18.1455526 13.9769293,18.1455526 C12.7895856,18.1455526 11.8262987,17.1899773 11.8262987,16.0111733 C11.8262987,14.8323693 12.7895856,13.8760108 13.9769293,13.8760108 C15.164273,13.8760108 16.126771,14.8323693 16.126771,16.0111733" id="Fill-167" fill="#FFFFFE"></path><path d="M24.7277155,16.0111733 C24.7277155,17.1899773 23.7650409,18.1455526 22.5774793,18.1455526 C21.3899177,18.1455526 20.4272432,17.1899773 20.4272432,16.0111733 C20.4272432,14.8323693 21.3899177,13.8760108 22.5774793,13.8760108 C23.7650409,13.8760108 24.7277155,14.8323693 24.7277155,16.0111733" id="Fill-168" fill="#FFFFFE"></path></g><g id="Group-28" transform="translate(328.223140, 203.773585)"><path d="M28.161157,14.0700809 C28.161157,21.8401521 21.8564469,28.1401617 14.0805785,28.1401617 C6.30382009,28.1401617 0,21.8401521 0,14.0700809 C0,6.29912033 6.30382009,0 14.0805785,0 C21.8564469,0 28.161157,6.29912033 28.161157,14.0700809" id="Fill-169" fill="#7B97FF"></path><path d="M17.7950939,9.87532876 C16.5951869,9.87532876 15.5256634,10.381789 14.7745405,11.1753042 L11.5206193,8.96205484 C11.6746232,8.62929037 11.76438,8.26361513 11.76438,7.87508519 C11.76438,6.40415653 10.5314046,5.21114106 9.01120744,5.21114106 C7.49101025,5.21114106 6.25803489,6.40415653 6.25803489,7.87508519 C6.25803489,9.34692803 7.49101025,10.5390293 9.01120744,10.5390293 C9.75193746,10.5390293 10.4218068,10.2528884 10.9168866,9.79213764 L14.1755318,12.0081296 C13.8741378,12.5612134 13.6870657,13.1810329 13.6870657,13.8502186 C13.6870657,14.7964033 14.0432586,15.6539117 14.613923,16.3358961 L12.9435012,18.0271441 C12.5145581,17.7602011 12.006251,17.6011324 11.458262,17.6011324 C9.93806477,17.6011324 8.70508942,18.7941479 8.70508942,20.2650765 C8.70508942,21.7360052 9.93806477,22.9290207 11.458262,22.9290207 C12.9784592,22.9290207 14.2114345,21.7360052 14.2114345,20.2650765 C14.2114345,19.6918806 14.0205832,19.1634799 13.7012378,18.7292405 L15.3678804,17.0416493 C16.0490874,17.5279974 16.8833535,17.8251085 17.7950939,17.8251085 C20.0635796,17.8251085 21.9031221,16.0451843 21.9031221,13.8502186 C21.9031221,11.6543388 20.0635796,9.87532876 17.7950939,9.87532876" id="Fill-170" fill="#FFFFFF"></path></g><path d="M368.522269,130.695225 C363.59368,130.695225 359.604611,126.701002 359.604611,121.776228 C359.604611,116.859697 363.59368,112.865474 368.522269,112.865474 C373.450858,112.865474 377.439927,116.859697 377.439927,121.776228 C377.439927,126.701002 373.450858,130.695225 368.522269,130.695225 Z M384.545455,124.447897 L384.545455,119.11097 L382.308936,119.11097 C381.945044,117.218729 381.20626,115.460208 380.164079,113.920586 L381.740641,112.345245 L377.964225,108.570836 L376.387663,110.146178 C374.847765,109.103888 373.086966,108.36476 371.193258,108.000233 L371.193258,105.768194 L365.852196,105.768194 L365.852196,108.000233 C363.958489,108.36476 362.197689,109.102972 360.656875,110.145262 L359.081229,108.570836 L355.304814,112.345245 L356.880459,113.91967 C355.838278,115.459292 355.099494,117.218729 354.735601,119.11097 L352.5,119.11097 L352.5,124.447897 L354.735601,124.447897 C355.100411,126.340139 355.839195,128.09866 356.882292,129.637365 L355.304814,131.212707 L359.081229,134.987115 L360.658708,133.410858 C362.198606,134.451316 363.959405,135.188612 365.852196,135.552223 L365.852196,137.789757 L371.193258,137.789757 L371.193258,135.552223 C373.086966,135.188612 374.845932,134.451316 376.38583,133.409942 L377.964225,134.987115 L381.740641,131.212707 L380.163162,129.636449 C381.205343,128.097744 381.944127,126.339223 382.30802,124.447897 L384.545455,124.447897 L384.545455,124.447897 Z" id="Fill-171" fill="#EB7676"></path><path d="M75.7438017,318.663073 L75.7438017,319.827493 C75.7438017,320.041747 75.9613223,320.215633 76.2293388,320.215633 C76.4983264,320.215633 76.714876,320.041747 76.714876,319.827493 L76.714876,318.663073 C76.714876,318.448819 76.4983264,318.274933 76.2293388,318.274933 C75.9613223,318.274933 75.7438017,318.448819 75.7438017,318.663073" id="Fill-172" fill="#FFFFFE"></path><path d="M75.7438017,324.556512 L75.7438017,327.269266 C75.7438017,327.522898 75.958743,327.728744 76.2235815,327.728744 C76.4893795,327.728744 76.7033613,327.522898 76.7033613,327.269266 L76.7033613,324.556512 C76.7033613,324.301962 76.4893795,324.097035 76.2235815,324.097035 C75.958743,324.097035 75.7438017,324.301962 75.7438017,324.556512 Z M75.7438017,329.982939 L75.7438017,332.696612 C75.7438017,332.950244 75.958743,333.156089 76.2235815,333.156089 C76.4893795,333.156089 76.7033613,332.950244 76.7033613,332.696612 L76.7033613,329.982939 C76.7033613,329.729308 76.4893795,329.523462 76.2235815,329.523462 C75.958743,329.523462 75.7438017,329.729308 75.7438017,329.982939 Z M75.8858165,335.533425 C76.2197432,336.568168 77.1082955,337.364901 78.2233038,337.606586 C78.4814254,337.662643 78.7385874,337.507339 78.7961609,337.260141 C78.8546941,337.012942 78.6925285,336.766662 78.434407,336.710606 C77.6590827,336.543356 77.0344094,335.982794 76.802196,335.262333 C76.7244716,335.020648 76.4557949,334.884643 76.2024712,334.959078 C75.9491474,335.034433 75.8071326,335.29174 75.8858165,335.533425 Z M81.1566777,337.681941 L83.9902574,337.681941 C84.2550959,337.681941 84.4700372,337.476095 84.4700372,337.222463 C84.4700372,336.968832 84.2550959,336.762986 83.9902574,336.762986 L81.1566777,336.762986 C80.8918393,336.762986 80.6768979,336.968832 80.6768979,337.222463 C80.6768979,337.476095 80.8918393,337.681941 81.1566777,337.681941 Z M86.8238371,337.681941 L89.6574168,337.681941 C89.9222553,337.681941 90.1371966,337.476095 90.1371966,337.222463 C90.1371966,336.968832 89.9222553,336.762986 89.6574168,336.762986 L86.8238371,336.762986 C86.5589986,336.762986 86.3440573,336.968832 86.3440573,337.222463 C86.3440573,337.476095 86.5589986,337.681941 86.8238371,337.681941 Z M92.4909965,337.681941 L95.3236166,337.681941 C95.5884551,337.681941 95.8033964,337.476095 95.8033964,337.222463 C95.8033964,336.968832 95.5884551,336.762986 95.3236166,336.762986 L92.4909965,336.762986 C92.2251984,336.762986 92.0102571,336.968832 92.0102571,337.222463 C92.0102571,337.476095 92.2251984,337.681941 92.4909965,337.681941 Z M98.1571963,337.681941 L100.990776,337.681941 C101.255614,337.681941 101.470556,337.476095 101.470556,337.222463 C101.470556,336.968832 101.255614,336.762986 100.990776,336.762986 L98.1571963,336.762986 C97.8923578,336.762986 97.6774165,336.968832 97.6774165,337.222463 C97.6774165,337.476095 97.8923578,337.681941 98.1571963,337.681941 Z M103.824356,337.681941 L106.657935,337.681941 C106.922774,337.681941 107.137715,337.476095 107.137715,337.222463 C107.137715,336.968832 106.922774,336.762986 106.657935,336.762986 L103.824356,336.762986 C103.559517,336.762986 103.344576,336.968832 103.344576,337.222463 C103.344576,337.476095 103.559517,337.681941 103.824356,337.681941 Z M109.490555,337.681941 L112.324135,337.681941 C112.588974,337.681941 112.803915,337.476095 112.803915,337.222463 C112.803915,336.968832 112.588974,336.762986 112.324135,336.762986 L109.490555,336.762986 C109.225717,336.762986 109.010776,336.968832 109.010776,337.222463 C109.010776,337.476095 109.225717,337.681941 109.490555,337.681941 Z M115.157715,337.681941 L117.991295,337.681941 C118.256133,337.681941 118.471074,337.476095 118.471074,337.222463 C118.471074,336.968832 118.256133,336.762986 117.991295,336.762986 L115.157715,336.762986 C114.892876,336.762986 114.677935,336.968832 114.677935,337.222463 C114.677935,337.476095 114.892876,337.681941 115.157715,337.681941 L115.157715,337.681941 Z" id="Fill-173" fill="#FFFFFE"></path><path d="M118.859504,336.71159 L120.024793,336.71159 C120.239207,336.71159 120.413223,336.494232 120.413223,336.226415 C120.413223,335.958598 120.239207,335.74124 120.024793,335.74124 L118.859504,335.74124 C118.645091,335.74124 118.471074,335.958598 118.471074,336.226415 C118.471074,336.494232 118.645091,336.71159 118.859504,336.71159" id="Fill-174" fill="#FFFFFE"></path><path d="M145.661157,170.781089 C145.661157,172.924559 143.921607,174.663073 141.77686,174.663073 C139.632112,174.663073 137.892562,172.924559 137.892562,170.781089 C137.892562,168.63762 139.632112,166.90027 141.77686,166.90027 C143.921607,166.90027 145.661157,168.63762 145.661157,170.781089" id="Fill-195" fill="#E0E5EE"></path><path d="M66.0330579,294.015591 C66.0330579,296.15906 64.2935073,297.897574 62.1487603,297.897574 C60.0040133,297.897574 58.2644628,296.15906 58.2644628,294.015591 C58.2644628,291.872121 60.0040133,290.134771 62.1487603,290.134771 C64.2935073,290.134771 66.0330579,291.872121 66.0330579,294.015591" id="Fill-197" fill="#E0E5EE"></path><path d="M188.38843,62.1030077 C188.38843,64.246477 186.649783,65.9838275 184.504714,65.9838275 C182.359646,65.9838275 180.619835,64.246477 180.619835,62.1030077 C180.619835,59.9595384 182.359646,58.2210243 184.504714,58.2210243 C186.649783,58.2210243 188.38843,59.9595384 188.38843,62.1030077" id="Fill-198" fill="#E0E5EE"></path><path d="M433.099174,169.811321 C433.099174,171.954469 431.359362,173.692722 429.214294,173.692722 C427.069225,173.692722 425.330579,171.954469 425.330579,169.811321 C425.330579,167.668173 427.069225,165.929919 429.214294,165.929919 C431.359362,165.929919 433.099174,167.668173 433.099174,169.811321" id="Fill-200" fill="#E0E5EE"></path><path d="M392.31405,246.468421 C392.31405,248.61189 390.575403,250.350404 388.430334,250.350404 C386.284101,250.350404 384.545455,248.61189 384.545455,246.468421 C384.545455,244.324952 386.284101,242.587601 388.430334,242.587601 C390.575403,242.587601 392.31405,244.324952 392.31405,246.468421" id="Fill-202" fill="#E0E5EE"></path><path d="M196.784144,233.854447 C197.856342,237.767155 200.560525,241.008691 204.896694,243.579055 C203.455242,243.74016 198.62189,245.812498 197.73497,248.409704 C196.035624,242.457842 195.18595,237.60609 195.18595,233.854447 L196.784144,233.854447 Z" id="Path-8" fill="#D8D8D8"></path><path d="M213.53865,235.327809 C214.849721,238.633342 217.762326,241.180179 222.276463,242.96832 C220.801949,243.126834 216.194262,244.790899 215.287549,247.351458 C213.472061,243.921565 212.491968,240.176905 212.34727,236.117477 L213.53865,235.327809 Z" id="Path-8-Copy" fill="#D8D8D8" transform="translate(217.311866, 241.339633) scale(-1, 1) rotate(12.000000) translate(-217.311866, -241.339633) "></path><polygon id="Path-21" fill="#17336C" transform="translate(197.394444, 258.114203) rotate(2.000000) translate(-197.394444, -258.114203) " points="194.430306 233.38774 188.446353 240.971187 193.910707 243.996004 187.864075 261.454878 206.924812 282.840665 204.686376 262.458285 196.71905 243.897935"></polygon><polygon id="Path-21-Copy" fill="#17336C" transform="translate(223.218566, 256.817005) scale(-1, 1) rotate(14.000000) translate(-223.218566, -256.817005) " points="219.962154 234.482219 214.953804 240.419185 219.242436 244.747709 216.608683 258.073559 231.483327 279.151791 230.300872 259.91598 223.712711 243.733422"></polygon></g></g></g></svg>