<svg xmlns="http://www.w3.org/2000/svg" xmlns:xlink="http://www.w3.org/1999/xlink" width="28px" height="28px" viewBox="0 0 28 28"><title>No_extra_charge_icon</title><desc>Created with Sketch.</desc><g id="Welcome" stroke="none" stroke-width="1" fill="none" fill-rule="evenodd"><g id="40_HOURS" transform="translate(-440.000000, -6165.000000)" fill="#5D7FFF" fill-rule="nonzero"><path d="M452.372269,6178.52213 L453.088138,6178.10867 L452.37258,6178.52275 C452.37258,6178.52244 452.37258,6178.52213 452.372269,6178.52213 Z M452.996671,6177.67778 C452.993249,6177.82493 453.052983,6177.96649 453.160628,6178.06667 L453.088138,6178.10867 L454.622234,6177.22293 C454.396677,6177.11373 454.149343,6177.0568 453.898897,6177.05555 C453.297517,6177.05555 452.996671,6177.26307 452.996671,6177.67778 Z M454.622856,6177.22293 L455.326281,6176.81631 L454.622234,6177.22293 C454.622545,6177.22293 454.622856,6177.22293 454.622856,6177.22293 Z M461.289995,6190.95039 C459.094164,6192.29035 456.572598,6192.99937 454.000631,6193 C449.115855,6193.00248 444.583258,6190.45635 442.043647,6186.28342 L442.040225,6186.28342 L441.651335,6185.61111 C438.009453,6178.78129 440.592619,6170.29138 447.421537,6166.64889 C449.446568,6165.56871 451.705555,6165.00249 454.00032,6165 C458.84154,6164.99751 463.339604,6167.49822 465.893215,6171.61205 L465.896637,6171.61205 L465.948593,6171.70289 C469.976565,6178.30467 467.890245,6186.92182 461.289995,6190.95039 Z M442.331115,6185.2188 L465.219656,6172.00187 C462.806046,6168.12854 458.564028,6165.77529 454.000631,6165.77778 C446.696645,6165.78027 440.777731,6171.70382 440.780219,6179.00871 C440.781153,6181.17466 441.313778,6183.30702 442.331115,6185.2188 Z M467.220747,6179 C467.224154,6176.78987 466.670996,6174.61396 465.61228,6172.67387 L442.717828,6185.89608 C446.523044,6192.12795 454.659878,6194.0951 460.890838,6190.28897 C464.824232,6187.88657 467.222598,6183.60911 467.220747,6179 Z M443.891033,6173.55556 L443.891033,6183.41777 L444.668814,6182.9704 L452.37258,6178.52213 C452.227913,6178.29035 452.155735,6178.02062 452.16569,6177.74778 C452.153557,6177.38347 452.294802,6177.03098 452.554581,6176.77555 C452.829604,6176.51391 453.181161,6176.34778 453.557918,6176.30111 L453.557918,6175.5 L454.374588,6175.5 L454.374588,6176.30111 C454.760679,6176.36178 455.125614,6176.51671 455.438282,6176.75191 L455.326903,6176.81631 L460.973283,6173.55556 L462.320088,6172.77778 L444.668503,6172.77778 C444.239168,6172.77778 443.891033,6173.12591 443.891033,6173.55556 Z M463.332448,6174.88711 L464.110229,6174.43818 L464.110229,6184.44444 C464.110229,6184.87408 463.762095,6185.22222 463.332448,6185.22222 L445.436328,6185.22222 L446.783445,6184.44444 L463.332448,6174.88711 Z M455.913661,6180.12 C455.923928,6179.83129 455.842417,6179.54631 455.680327,6179.30706 L454.892902,6179.76284 C455.016413,6179.8764 455.085169,6180.03786 455.081747,6180.20586 C455.081747,6180.69866 454.709034,6180.94475 453.962053,6180.94475 C453.685785,6180.94724 453.412629,6180.88409 453.165294,6180.76058 L452.351735,6181.23004 C452.703915,6181.49293 453.120183,6181.65751 453.556985,6181.70697 L453.556985,6182.50031 L454.373655,6182.50031 L454.373655,6181.70666 C455.400326,6181.57195 455.913661,6181.04275 455.913661,6180.12 Z" id="No_extra_charge_icon"></path></g></g></svg>