<svg xmlns="http://www.w3.org/2000/svg" xmlns:xlink="http://www.w3.org/1999/xlink" id="Layer_1" x="0px" y="0px" viewBox="0 0 954 695" style="enable-background:new 0 0 954 695;" xml:space="preserve"><style type="text/css">	.st0{fill:#E8F2FA;}	.st1{fill:#D5E7FF;}	.st2{fill:#F3FAFF;}	.st3{fill:#88ACF4;}	.st4{fill:#DCEAFF;}	.st5{fill:#97C0F8;}	.st6{fill:#FF8459;}	.st7{fill:#B8C8FC;}	.st8{fill:#32478F;}	.st9{fill:#2A3967;}	.st10{fill:#DAE6FF;}	.st11{fill:#6D76FF;}	.st12{fill:#C8E1FF;}	.st13{fill:#9BC7F7;}	.st14{opacity:0.5;fill:#B6D7FF;}	.st15{fill:#B6D7FF;}	.st16{fill:#FF7536;}	.st17{fill:#FFB600;}	.st18{fill:#FF9F00;}	.st19{fill:#75A3EF;}	.st20{fill:#100259;}	.st21{fill:#B1C5EA;}	.st22{fill:#E7EFFF;}	.st23{fill:#FF912B;}	.st24{fill:#F9924F;}	.st25{fill:#FFAE73;}	.st26{fill:#25468F;}	.st27{fill:#FFFFFF;}	.st28{fill:#F0F6FF;}	.st29{fill:#BED9E9;}	.st30{fill:#DCEAF5;}	.st31{fill:#1E3865;}	.st32{fill:#A8CCFF;}	.st33{fill-rule:evenodd;clip-rule:evenodd;fill:#E0E8F5;}	.st34{fill-rule:evenodd;clip-rule:evenodd;fill:#F9AF79;}	.st35{fill-rule:evenodd;clip-rule:evenodd;fill:#BF9071;}	.st36{fill-rule:evenodd;clip-rule:evenodd;fill:#FFFFFF;}	.st37{fill-rule:evenodd;clip-rule:evenodd;fill:#C4D1EB;}	.st38{fill-rule:evenodd;clip-rule:evenodd;fill:#0E2952;}	.st39{fill-rule:evenodd;clip-rule:evenodd;fill:#20386F;}	.st40{fill-rule:evenodd;clip-rule:evenodd;fill:#212956;}	.st41{fill-rule:evenodd;clip-rule:evenodd;fill:#556066;}	.st42{fill-rule:evenodd;clip-rule:evenodd;fill:#0E1538;}	.st43{fill-rule:evenodd;clip-rule:evenodd;fill:#545B9C;}	.st44{fill-rule:evenodd;clip-rule:evenodd;fill:#223F81;}	.st45{fill-rule:evenodd;clip-rule:evenodd;fill:#ED7D57;}	.st46{fill-rule:evenodd;clip-rule:evenodd;fill:#D8E8F7;}	.st47{fill-rule:evenodd;clip-rule:evenodd;fill:#466FB5;}	.st48{fill-rule:evenodd;clip-rule:evenodd;fill:#E9F0F9;}	.st49{fill-rule:evenodd;clip-rule:evenodd;fill:#EB795B;}	.st50{fill-rule:evenodd;clip-rule:evenodd;fill:#6D96CE;}	.st51{fill:none;stroke:#88ACF4;stroke-width:3;stroke-miterlimit:10;}	.st52{opacity:0.24;fill:#A8CCFF;}	.st53{fill:none;stroke:#97C0F8;stroke-miterlimit:10;}	.st54{fill:#7BB7FF;}	.st55{fill:#C0DDFF;}	.st56{fill:#C8DFFC;}	.st57{fill:#D4E6FC;}	.st58{fill:#3390FF;}	.st59{fill:#E9F7FF;}	.st60{fill:#5EA7EF;}	.st61{fill:none;stroke:#97C0F8;stroke-width:0.75;stroke-miterlimit:10;}</style><g>	<path class="st3" d="M566,267.3h-33.9c-8.6,0-15.7-7.1-15.7-15.7v-36.6c0-8.6,7.1-15.7,15.7-15.7H566c8.6,0,15.7,7.1,15.7,15.7  v36.6C581.7,260.3,574.6,267.3,566,267.3z"></path>	<path class="st4" d="M564.5,264.4h-30.9c-7.9,0-14.3-6.5-14.3-14.3v-33.4c0-7.9,6.5-14.3,14.3-14.3h30.9c7.9,0,14.3,6.5,14.3,14.3  V250C578.8,257.9,572.4,264.4,564.5,264.4z"></path>	<g>		<g>			<path class="st3" d="M547.7,208.5c0-0.8,0.6-1.5,1.4-1.5c0.7,0,1.4,0.6,1.4,1.5c0,0.8-0.6,1.5-1.4,1.5    C548.3,210,547.7,209.3,547.7,208.5z"></path>			<path class="st3" d="M558.6,210.6c0.4-0.7,1.2-1,1.8-0.6c0.7,0.4,0.9,1.3,0.5,2c-0.4,0.7-1.2,1-1.8,0.6    C558.5,212.1,558.2,211.3,558.6,210.6z"></path>			<path class="st3" d="M567.9,218.5c0.6-0.4,1.5-0.2,1.9,0.4c0.4,0.7,0.2,1.6-0.4,2c-0.6,0.4-1.5,0.2-1.9-0.4    C567.1,219.9,567.3,219,567.9,218.5z"></path>			<path class="st3" d="M572.6,230.9c0.7,0,1.4,0.6,1.4,1.5c0,0.8-0.6,1.5-1.4,1.5c-0.7,0-1.4-0.6-1.4-1.5    C571.2,231.5,571.8,230.9,572.6,230.9z"></path>			<path class="st3" d="M570.2,245.2c0.5,0.6,0.5,1.5,0,2.1c-0.5,0.6-1.4,0.6-1.9,0c-0.5-0.6-0.5-1.5,0-2.1    C568.8,244.6,569.7,244.6,570.2,245.2z"></path>			<path class="st3" d="M561.7,254.3c0.5,0.6,0.5,1.5,0,2.1c-0.5,0.6-1.4,0.6-1.9,0c-0.5-0.6-0.5-1.5,0-2.1S561.2,253.7,561.7,254.3    z"></path>			<path class="st3" d="M547.7,259c0-0.8,0.6-1.5,1.4-1.5c0.7,0,1.4,0.6,1.4,1.5c0,0.8-0.6,1.5-1.4,1.5    C548.3,260.5,547.7,259.8,547.7,259z"></path>		</g>		<g>			<path class="st3" d="M539.4,210.6c-0.4-0.7-1.2-1-1.8-0.6c-0.7,0.4-0.9,1.3-0.5,2c0.4,0.7,1.2,1,1.8,0.6    C539.6,212.1,539.8,211.3,539.4,210.6z"></path>			<path class="st3" d="M530.1,218.5c-0.6-0.4-1.5-0.2-1.9,0.4c-0.4,0.7-0.2,1.6,0.4,2c0.6,0.4,1.5,0.2,1.9-0.4    C530.9,219.9,530.7,219,530.1,218.5z"></path>			<path class="st3" d="M525.5,230.9c-0.7,0-1.4,0.6-1.4,1.5c0,0.8,0.6,1.5,1.4,1.5s1.4-0.6,1.4-1.5    C526.8,231.5,526.2,230.9,525.5,230.9z"></path>			<path class="st3" d="M527.8,245.2c-0.5,0.6-0.5,1.5,0,2.1c0.5,0.6,1.4,0.6,1.9,0c0.5-0.6,0.5-1.5,0-2.1    C529.2,244.6,528.3,244.6,527.8,245.2z"></path>			<path class="st3" d="M536.3,254.3c-0.5,0.6-0.5,1.5,0,2.1c0.5,0.6,1.4,0.6,1.9,0c0.5-0.6,0.5-1.5,0-2.1    C537.7,253.7,536.8,253.7,536.3,254.3z"></path>		</g>	</g>	<g>		<path class="st3" d="M548.7,232.3c0-0.8,0.6-1.5,1.4-1.5s1.4,0.6,1.4,1.5c0,0.8-0.6,1.5-1.4,1.5S548.7,233.1,548.7,232.3z"></path>		<g>			<rect x="549.8" y="214.2" class="st3" width="0.4" height="18.1"></rect>		</g>		<g>			<polygon class="st3" points="550.2,232.8 549.5,231.8 558.5,224.3 559.1,225.2    "></polygon>		</g>	</g></g><g>	<g>		<g>			<rect x="586.5" y="438.9" class="st3" width="157.2" height="116.1"></rect>			<rect x="534.8" y="438.9" class="st5" width="124.6" height="116.1"></rect>			<path class="st8" d="M607.4,457.9h-34.8c-1.3,0-2.4-1.1-2.4-2.4v-3c0-1.3,1.1-2.4,2.4-2.4h34.8c1.3,0,2.4,1.1,2.4,2.4v3    C609.8,456.8,608.7,457.9,607.4,457.9z"></path>			<rect x="528.7" y="419.2" class="st15" width="130.7" height="25.6"></rect>			<rect x="659.4" y="419.2" class="st19" width="88.1" height="25.6"></rect>		</g>		<g>							<rect x="607.4" y="467.7" transform="matrix(0.9672 -0.2541 0.2541 0.9672 -103.4764 175.6044)" class="st6" width="41.3" height="41.3"></rect>							<rect x="603" y="468.3" transform="matrix(0.9672 -0.2541 0.2541 0.9672 -99.3657 173.9411)" class="st16" width="41.3" height="6.7"></rect>		</g>	</g>	<g>		<polygon class="st16" points="615.7,367 648.5,340.6 697.1,346.6 697.1,367   "></polygon>					<rect x="594.4" y="313.1" transform="matrix(-1.836970e-16 1 -1 -1.836970e-16 961.5994 -253.9208)" class="st6" width="26.6" height="81.4"></rect>		<path class="st10" d="M638.3,349.7c2.3,0,4.2,1.9,4.2,4.2s-1.9,4.2-4.2,4.2c-2.3,0-4.2-1.9-4.2-4.2S636,349.7,638.3,349.7z"></path>		<path class="st20" d="M638.3,351.5c1.3,0,2.4,1.1,2.4,2.4c0,1.3-1.1,2.4-2.4,2.4c-1.3,0-2.4-1.1-2.4-2.4   C635.9,352.6,637,351.5,638.3,351.5z"></path>					<rect x="609.6" y="341.4" transform="matrix(-1.836970e-16 1 -1 -1.836970e-16 969.5454 -261.5546)" class="st15" width="11.9" height="25.2"></rect>	</g>	<g>		<rect x="572" y="393.2" class="st10" width="80.7" height="26"></rect>		<g>			<rect x="652.6" y="393.2" class="st21" width="80.7" height="26"></rect>			<g>				<rect x="572" y="405.9" class="st8" width="20.1" height="0.6"></rect>			</g>			<g>				<rect x="597" y="397.9" class="st8" width="55.6" height="0.6"></rect>			</g>			<g>				<rect x="572" y="412.9" class="st8" width="35.6" height="0.6"></rect>			</g>		</g>	</g>	<g>		<rect x="546.9" y="367.2" class="st22" width="80.7" height="26"></rect>		<g>			<rect x="627.6" y="367.2" class="st7" width="80.7" height="26"></rect>			<g>				<rect x="546.9" y="379.9" class="st3" width="20.1" height="0.6"></rect>			</g>			<g>				<rect x="572" y="371.9" class="st3" width="55.6" height="0.6"></rect>			</g>			<g>				<rect x="546.9" y="386.9" class="st3" width="35.6" height="0.6"></rect>			</g>		</g>	</g></g><g>	<path class="st23" d="M283.6,313.1c-1.4,0-2.4-0.3-2.9-1.1c-0.4-0.5-0.5-1.2-0.3-2c1.5-7.7,26.9-29.8,60.5-52.4  c32.8-22.1,69.2-41.4,73.3-35.5c0.4,0.5,0.5,1.2,0.3,2C413,232,387.6,254,354,276.6C325.2,295.9,293.7,313.1,283.6,313.1z   M281.3,311.6c1.5,2.2,10.3-0.3,23.5-6.8c13.7-6.7,31.1-17,48.8-28.9c32.9-22.1,58.8-44.4,60.2-51.9c0.1-0.6,0.1-1.1-0.2-1.4  c-1.5-2.2-10.3,0.3-23.5,6.8c-13.7,6.7-31.1,17-48.8,28.9c-32.9,22.1-58.8,44.4-60.2,51.9C281,310.8,281.1,311.3,281.3,311.6  L281.3,311.6z"></path></g><path class="st9" d="M469.3,428.7c-22.9-7.3-168.7,55.4-168.7,55.4s-23.7,16.9-1.1,52.1c18.8,29.3,160.4-60.2,163-49 c6.1,26.8,58.4,78.3,58.4,78.3c8.7,2.9,28.1-8.8,28.1-8.8C528.6,525.9,487.5,434.6,469.3,428.7z"></path><path class="st24" d="M395,329.9c0,0-3.2-5.1-3.7-10.2c-0.5-5.1,0.3-19.6-3.3-22.9c-3.6-3.4-15.1-11.7-19.2-9.9 c-4.1,1.8,9.4,10.1,9.8,14.3c0.4,4.2,0.2,4.7-1.4,5c-1.6,0.3-6.8-5.9-6.8-4c0,2,5.1,12.8,7.6,15c2.5,2.2,6.3,18.9,6.3,18.9 L395,329.9z"></path><path class="st3" d="M395,322.7c0,0-13.5,0-15.8,10.9c0,0,0.7,37,5.5,70c-29.1-27.5-18.3-27.1-42-45c-9.6-7.3-18.3,17.8-18,35.5 c0.2,17.7,62,58.2,77.9,53.2C419.9,442,423.4,403.3,395,322.7z"></path><path class="st9" d="M643.7,568.4c0.1-0.1,0.5-0.6,0.6-0.7l27.4-46c0.9-1.4,0.1-3.2-1.5-3.6c-3.4-0.7-7.8,0.1-10.8,3.9 c-5.5,7.1-17.3,18.2-28.9,15.8c-0.4-0.1-0.7-0.2-1.1-0.3c-12-3.4-7.4,21.6-7.4,21.6s0.4,0.3,1.1,0.7 C626.6,562.5,640.3,570.8,643.7,568.4z"></path><path class="st8" d="M274.6,498.5c0,0,127-5.6,176.1,7.1c0,0,48.8,34.3,8.1,45.7c-15.8,4.4-70,17.4-99.4,17.4 c-48.2,0-94.2,0.3-94.2,0.3c-7.4-3.3-8.6-25.2-9.8-31.1C247,496.8,274.6,498.5,274.6,498.5z"></path><path class="st8" d="M447.7,504.8c0,0,133.1,25.3,184.8,33.3c0,0-5.6,21.7-14,26.5c0,0-30.7,2-61.5,4c-38,2.5-75.4-2.2-98.1-11.3 C407.4,536.8,447.7,504.8,447.7,504.8z"></path><path class="st25" d="M347.8,385.3c-23.4-1-54-37.1-54-37.1s17.3-5.2,28.8-24.9c2.2-3.8,4.2-8.2,5.9-13.1l7.8,12.9l11.5,19 c0,0-1,2.8-3.4,7.7v0c-0.8,1.6-1.7,3.5-2.8,5.6c-1.3,2.5-2.8,5.3-4.5,8.3C344.3,371.9,347.8,385.3,347.8,385.3z"></path><path class="st24" d="M347.8,342.1c0,0-1,2.8-3.4,7.7c-16.5-11.3-18-27.4-18-27.4s1.3-0.2,9.9,0.8L347.8,342.1z"></path><path class="st25" d="M354.5,346.2c0,0-35.4-12.3-27.3-34.2c8-21.9,8.8-38.2,31.8-31.3s24.2,16.9,23.3,24.9 C381.3,313.5,363.9,348.9,354.5,346.2z"></path><path class="st26" d="M320.7,272.1c-0.3-0.5-1-1-2.7-1.4c0,0,1.6-0.6,3.5-0.3c0.9-2.4,3.1-6.6,7.6-6.8c0,0-2.5,0.8-3.4,3.4 c6-4.1,17.3-5.6,45.9,2.8c37.7,11.1,19.9,33.4,14.3,35.3c-5.6,1.9-16.4-8.8-25.8-10c-9.4-1.2-14,12-17.5,13.3 c-3.5,1.2-1.6-1.8-5.5-4.7c-3.8-2.8-5.7,4.2-5.5,9.1c0.3,4.9-8.1,9.1-8.1,9.1s-0.8-2.9-3.3-7c-4.6-7.7-4.4-36.2-0.5-41.4 C320,273,320.3,272.6,320.7,272.1z"></path><path class="st5" d="M357.8,409.1c-2.7,68.6-25.7,58-13.7,78.3c7.6,12.9-8.3,23.1-25.8,36.3c-0.5,0.4-1,0.8-1.5,1.2 c-5,3.8-10.3,7.6-15.6,10.9c-8.2,5.3-16.5,9.7-23.7,12.5c-7.3,2.8-13.6,3.8-17.6,2.1c-0.1-0.1-0.2-0.1-0.4-0.2 c-3.4-1.7-6.3-6.3-8.6-12.5c-4.2-11.1-8.9-54.9-10.3-68c-0.2-2.4-0.4-3.7-0.4-3.7c-7.8-95.5,71.5-129,71.5-129s6.9,20.7,29.3,19.5 C341.1,356.6,358.9,380.1,357.8,409.1z"></path><path class="st3" d="M318.3,523.8c-0.5,0.4-1,0.8-1.5,1.2c-5,3.8-10.3,7.6-15.6,10.9c-8.2,5.3-16.5,9.7-23.7,12.5 c-8,2.3-14.5,3.3-17.6,2.1c-0.1-0.1-0.2-0.1-0.4-0.2c-3.4-1.7-6.3-6.3-8.6-12.5c-4.2-11.1-8.9-54.9-10.3-68 c9.7-28,23.1-59.6,37.9-73.8c29.3-28,38.2,14.6,38.2,14.6S294.1,466.5,318.3,523.8z"></path><path class="st5" d="M288.3,370.3c-11.6,28.9-35.7,84.5-27.1,111.6c0,0,34.7,9.2,35.7-1.6c5.6-60,57.3-125.7,17.4-124.4 C303.1,356.2,292.4,359.9,288.3,370.3z"></path><path class="st16" d="M338.1,360c0,0,27.7,83.6,11.6,164.2l-23.8,8.2l-5.8-16.9c0,0,30.9-78.9,14.1-154.6L338.1,360z"></path><path class="st25" d="M287.2,549.3c0,0,9,12.4,20.1,10.6c11.1-1.8,15.2,1.5,20.1,4.1c5,2.6,6.3,4,4.5,4.7 c-1.3,0.5-25.6,0.3-37.5,0.1c-3.9-0.1-15.1-10.5-15.1-10.5L287.2,549.3z"></path><path class="st5" d="M259.7,474c-1.7,45.1,13.9,75.9,18.1,91.6c0,0,5.1,2.4,9.1,1.1c8.7-2.9,8.6-9.8,8.6-9.8s0.2-56.1,1.3-76.7 C297.9,460.2,260,464.6,259.7,474z"></path><path class="st16" d="M316.7,331.8c0,0-7.4,2-11.1,8.4c0,0,2.9,12.5,31.2,19.5l-1.1-3.3C335.7,356.4,319.6,348.5,316.7,331.8z"></path><path class="st16" d="M335.7,356.4c0,0,5.8-2.1,7-3.1c0,0,1.4,3.3,0.9,6c0,0-1.9,1.2-6.8,0.4C331.9,358.9,335.7,356.4,335.7,356.4z"></path><path class="st16" d="M338.1,356.4c0,0-5.6-0.5-6.2,0.2c-0.6,0.7,3.3,7.4,5.2,7.1C339.1,363.4,339.7,357.1,338.1,356.4z"></path><g>	<path class="st23" d="M284.2,313c-1.4,0-2.4-0.3-2.9-1.1l0.6-0.4c3,4.3,32.7-9,72.3-35.7c32.9-22.1,58.8-44.5,60.2-51.9  c0.1-0.6,0.1-1.1-0.2-1.4l0.6-0.4c0.4,0.5,0.5,1.2,0.3,2c-1.5,7.7-26.9,29.8-60.5,52.4C325.8,295.8,294.3,313,284.2,313z"></path></g><g>	<path class="st23" d="M292.6,290.8c-7.9,0-14.2-0.5-18.9-1.6c-5-1.2-8-2.9-8.7-5.2c-0.4-1.2-0.2-2.5,0.6-3.8  c3.4-5.9,17.2-11.8,25.1-14.8c13.8-5.2,31.7-10.1,50.6-13.8c21.7-4.3,42.7-6.6,59.1-6.7c8,0,14.4,0.5,19.2,1.6c5,1.2,8,2.9,8.7,5.2  c0.4,1.2,0.2,2.5-0.6,3.8c-3.4,5.9-17.2,11.8-25.1,14.8c-13.8,5.2-31.7,10.1-50.6,13.8c-21.7,4.3-42.7,6.6-59.1,6.7  C292.8,290.8,292.7,290.8,292.6,290.8z M400.6,245.7c-0.1,0-0.2,0-0.3,0c-16.3,0-37.2,2.4-58.9,6.7c-38.4,7.6-70,19.4-75.1,28.2  c-0.7,1.1-0.8,2.2-0.5,3.1c1.3,4,11.1,6.2,26.8,6.2c0.1,0,0.2,0,0.3,0c16.3,0,37.2-2.4,58.9-6.7c38.4-7.6,70-19.4,75.1-28.2  c0.7-1.1,0.8-2.2,0.5-3.1C426.1,248,416.3,245.7,400.6,245.7z"></path></g><polygon class="st17" points="288.4,264.7 286.1,266.5 289,267.2 290,270 291.5,267.5 294.4,267.4 292.6,265.1 293.4,262.3  290.7,263.4 288.2,261.8 "></polygon><polygon class="st17" points="405.7,233.9 404.8,236.7 407.5,235.7 409.8,237.5 409.8,234.6 412.2,232.9 409.4,232 408.5,229.2  406.9,231.6 403.9,231.6 "></polygon><polygon class="st23" points="374.2,214 373,216.7 375.9,216 378,218 378.3,215.1 380.8,213.7 378.1,212.5 377.6,209.7 375.7,211.9  372.8,211.5 "></polygon><polygon class="st23" points="409.6,286.8 408.4,289.4 411.2,288.8 413.4,290.7 413.7,287.8 416.2,286.4 413.5,285.3 413,282.4  411,284.6 408.2,284.2 "></polygon><polygon class="st17" points="296.6,306.3 294.2,308 296.9,308.9 297.7,311.7 299.5,309.3 302.4,309.4 300.7,307.1 301.7,304.3  298.9,305.2 296.6,303.4 "></polygon><polygon class="st23" points="238.5,293.8 253.9,299 252.1,292.7 261.2,294.5 245.3,286.5 248,293.9 "></polygon><polygon class="st23" points="341.1,203.7 340.1,228.7 348.6,223.3 350,237.3 354.8,210.5 345.1,217.8 "></polygon><g>	<path class="st27" d="M671.5,556.3c0.3,0.8,0.9,4.9,2.2,8.4l0,0c0.8,2.1,1.8,3.9,3.1,4.6c3.6,1.9,9.9-0.7,9.9-0.7  s10.5,1.8,11.6,1.4c1.1-0.4,3-16.2,3-16.2s-7.7-9-8.5-9.3c-0.7-0.3-6.9,2.6-7.9,2.5c-1-0.1-6.8-4.3-8.5-3.4  C674.6,544.5,671,555.1,671.5,556.3z"></path>	<path class="st28" d="M684.8,547c0,0,1.6,4.2,2.1,4.6c0.5,0.4,5.8-7.1,5.8-7.1C692,544.3,685.8,547.1,684.8,547z"></path>	<path class="st28" d="M676.2,547.7c0,0,7.1,7.4,7,8s-8.4,4.8-8.7,4.7c-0.3-0.2,2-5.4,2-6.3C676.4,553.3,676.2,547.7,676.2,547.7z"></path>	<path class="st28" d="M671.5,556.3c0.3,0.8,0.9,4.9,2.2,8.4l0,0l0,0l-0.5-7.8l3.1-13.3C674.6,544.5,671,555.1,671.5,556.3z"></path>	<path class="st28" d="M686.7,568.7c0,0,10.5,1.8,11.6,1.4c1.1-0.4,3-16.2,3-16.2s-2.7,8-2.8,8.4c-0.1,0.4-3.3-0.7-3.3-0.7  L686.7,568.7z"></path>	<polygon class="st28" points="698.5,553.7 697,557.8 694.6,557.7 696.5,556  "></polygon></g><g>	<path class="st27" d="M732.4,553.2c0.3,0.5,0.7,3.3,1.7,5.7l0,0c0.6,1.4,1.4,2.7,2.4,3.2c2.8,1.3,7.7-0.3,7.7-0.3s8.1,1.3,9,1.1  c0.8-0.3,2.3-10.9,2.3-10.9s-6-6.2-6.6-6.4c-0.6-0.2-5.4,1.6-6.2,1.6c-0.8-0.1-5.3-3-6.6-2.4C734.8,545.2,732,552.3,732.4,553.2z"></path>	<path class="st29" d="M742.7,547c0,0,1.2,2.9,1.6,3.2c0.4,0.3,4.5-4.8,4.5-4.8C748.3,545.2,743.5,547.1,742.7,547z"></path>	<path class="st30" d="M736,547.4c0,0,5.5,5.1,5.4,5.5c-0.1,0.4-6.5,3.2-6.7,3c-0.2-0.1,1.6-3.6,1.5-4.2  C736.2,551.1,736,547.4,736,547.4z"></path>	<path class="st29" d="M732.4,553.2c0.3,0.5,0.7,3.3,1.7,5.7l0,0h0l-0.4-5.3l2.4-9C734.8,545.2,732,552.3,732.4,553.2z"></path>	<path class="st30" d="M744.2,561.7c0,0,8.1,1.3,9,1.1c0.8-0.3,2.3-10.9,2.3-10.9s-2.1,5.4-2.2,5.7c-0.1,0.3-2.5-0.5-2.5-0.5  L744.2,561.7z"></path>	<polygon class="st30" points="753.3,551.7 752.2,554.5 750.3,554.3 751.8,553.2  "></polygon></g><g>	<path class="st32" d="M201.7,266.5c-1.3-1.1-2.4-2.2-3.3-3.1c-0.9-1-1.5-2-2.1-3c-0.5-1-0.9-2.2-1.2-3.4c-0.3-1.2-0.4-2.6-0.6-4.1  c-0.1-1.2-0.2-2.2-0.3-3.3c-0.1-1-0.3-2-0.5-2.9c-0.2-0.9-0.6-1.8-1-2.6c-0.5-0.8-1.1-1.5-1.9-2.2c-1.8-1.5-3.5-2.2-5.2-2  c-1.7,0.1-3.2,1-4.6,2.7c-0.6,0.7-1,1.4-1.4,2.2c-0.3,0.8-0.5,1.6-0.5,2.5c0,0.9,0.2,1.7,0.6,2.5c0.4,0.8,1,1.6,1.9,2.4l-5.7,6.9  c-1.8-1.5-3-3.1-3.9-4.9c-0.8-1.7-1.2-3.6-1.2-5.4c0-1.9,0.4-3.7,1.1-5.6c0.8-1.9,1.9-3.7,3.3-5.4c1.6-1.9,3.2-3.4,5-4.5  c1.7-1.1,3.5-1.8,5.3-2c1.8-0.3,3.6-0.1,5.4,0.5c1.8,0.6,3.6,1.6,5.3,3c1.2,1,2.2,2.2,3,3.5c0.7,1.3,1.3,2.7,1.7,4.1  c0.4,1.4,0.7,2.9,0.8,4.5c0.2,1.6,0.3,3.2,0.4,4.8c0.1,1.8,0.5,3.4,1.4,4.6c0.8,1.3,1.9,2.5,3.3,3.7L201.7,266.5z M210.1,274.3  c-0.5-0.4-0.9-0.9-1.3-1.5c-0.3-0.5-0.5-1.1-0.6-1.7c-0.1-0.6,0-1.2,0.2-1.9c0.2-0.6,0.6-1.3,1.1-1.9c0.5-0.6,1.1-1.1,1.7-1.4  c0.6-0.3,1.2-0.5,1.8-0.6c0.6,0,1.2,0,1.8,0.2c0.6,0.2,1.2,0.5,1.7,1c1,0.9,1.6,1.9,1.8,3.2c0.1,1.3-0.3,2.5-1.3,3.8  c-1,1.2-2.2,1.9-3.4,2C212.3,275.5,211.1,275.1,210.1,274.3z"></path></g><g>	<path class="st32" d="M337.2,178c0.3-1,0.8-1.9,1.4-2.6c0.6-0.8,1.4-1.4,2.2-1.8c0.8-0.4,1.8-0.7,2.8-0.8c1-0.1,2.1,0.1,3.3,0.5  c1.2,0.4,2.2,0.9,3,1.6c0.8,0.7,1.4,1.4,1.8,2.3c0.4,0.9,0.7,1.8,0.7,2.7c0.1,1-0.1,2-0.4,3c-0.6,2-1.8,3.4-3.6,4.3  c-1.7,0.9-3.8,1-6.1,0.2c-2.4-0.8-4-2-4.9-3.8C336.7,181.9,336.6,180,337.2,178z M355.6,165.3l-11.3-3.7l16.7-55.8l13.8,4.5  L355.6,165.3z"></path></g><g>	<path class="st32" d="M381,190.8c0.5-0.4,1-0.7,1.5-0.9c0.5-0.2,1.1-0.3,1.7-0.3c0.6,0,1.1,0.2,1.7,0.4c0.6,0.3,1.1,0.7,1.6,1.2  c0.5,0.6,0.9,1.1,1.1,1.7c0.2,0.6,0.3,1.1,0.3,1.7c0,0.6-0.2,1.1-0.4,1.6c-0.3,0.5-0.6,1-1.1,1.4c-0.9,0.8-2,1.2-3.1,1.2  c-1.2,0-2.2-0.6-3.2-1.7c-1-1.1-1.5-2.2-1.4-3.4C379.6,192.7,380.1,191.7,381,190.8z M394.3,189.7l-4.7-5.2l25.2-23.9l5.8,6.4  L394.3,189.7z"></path></g><g>	<path class="st26" d="M212.5,195.7c-0.6-1.9-1.1-3.8-1.4-5.8c-0.3-1.8-0.4-3.6-0.3-5.4c-1.1-2.4-1.9-4.9-2.5-7.5  c-1.8-7.9-1.9-15.8-0.2-22.8c-0.8-1.3-1.4-2.7-1.8-4.2c-1-3.7-0.8-7.5,0.7-11.4c1.4-3.7,3.8-7.4,7.1-10.8  c5.9-6,14.3-10.8,23.5-13.5c10.2-2.9,21-3.1,31-0.6c7.9,2,14.5,5,19.6,8.7c4.4,3.3,7.8,7.3,10.2,11.9c0.7,1.3,1.2,2.6,1.7,3.9  c3.9,3.4,7.4,7.6,10.2,12.4c3.2,5.6,6.5,14.6,4,25.8c-2.6,11.7-10.8,23.1-24.5,33.9c-0.8,0.6-1.6,1.2-2.4,1.8  c-0.2,1.5-0.5,3.2-0.8,5l0,0.1c-1,5.7-0.6,14,1.1,22.2c1.4,6.8,4.4,16.6,10.4,24.7c5.6,7.6,12.6,12,20.8,13l-0.1,0.9  c-8.4-1.1-15.6-5.5-21.4-13.4c-6.1-8.3-9.1-18.2-10.6-25.1c-1.7-8.2-2.2-16.7-1.1-22.5l0-0.1c0.3-1.5,0.5-2.9,0.7-4.2  c-7.1,4.9-14.5,7.8-22.3,8.8c-7.8,1-15.6,0-22.5-3.1c-2-0.9-3.9-1.9-5.6-3.1c-0.3,0-0.6-0.1-0.8-0.1c-0.9,0.9-1.8,1.6-2.7,1.8  c-1.5,0.4-3.3-0.8-5.4-3.7c-0.2-0.2-0.4-0.5-0.5-0.7c-3.5-1.7-6.4-4.2-8.9-7.5C215.4,202.5,213.7,199.2,212.5,195.7z M211.7,186.4  c0,1.1,0.1,2.3,0.3,3.4c0.8,5.4,2.9,10.6,6.3,15.1c2,2.7,4.4,4.8,7.2,6.5c-2.5-3.9-5.1-9.5-7.4-15.6c-0.2-0.2-0.4-0.4-0.6-0.6  C215.2,192.5,213.3,189.5,211.7,186.4z M208.7,155.2c-1.4,6.7-1.3,14.1,0.4,21.6c0.5,1.9,1,3.9,1.8,5.7c0.2-2.4,0.7-4.7,1.4-6.9  c-0.6-3.1-0.9-5.9-1.1-8.5c-0.2-3.4,0-6.3,0.5-8.6C210.5,157.5,209.6,156.4,208.7,155.2z M212.7,177.5c-0.6,2.2-0.9,4.6-1,6.9  c1.4,3.2,3.3,6.2,5.5,9c-1.1-3-2-6.1-2.9-9.3C213.6,181.8,213.1,179.6,212.7,177.5z M213.2,175.7c0.5,2.6,1.1,5.3,1.9,8.2  c1.1,3.9,2.3,7.7,3.7,11.4c1.7,1.9,3.6,3.7,5.6,5.2c-0.3-1.1-0.5-2.2-0.6-3.4c-0.2-2.6,0.6-5.1,2.4-7.6c-0.9-2.5-1.6-5.2-2.1-7.9  c-1.2-6.6-1-12.4,0.6-17.4c-1.4-0.3-2.6-0.6-3.7-0.9c-3.2,3-5.6,6.7-7.2,10.8C213.5,174.7,213.3,175.2,213.2,175.7z M224.8,201.9  c-1.8-1.3-3.6-2.8-5.2-4.5c2.4,6,5,11.3,7.5,14.8c1,0.5,2.1,0.9,3.3,1.3c1.3,0.4,2.7,0.7,4.2,1c-2-1.5-3.8-3.2-5.3-5  C227.2,207.1,225.7,204.5,224.8,201.9z M212.4,159.1c-0.7,3.8-0.6,8.8,0.4,14.9c0-0.1,0-0.1,0.1-0.2c1.6-4.1,4-7.7,7.1-10.8  c-1.4-0.5-2.7-1-3.7-1.5C214.9,160.8,213.6,160,212.4,159.1z M234.1,215.3c-2.1-0.4-4.1-0.9-6-1.7c1.7,2.1,3.1,3.1,4.1,2.8  C232.8,216.3,233.4,215.9,234.1,215.3z M298.8,137.2c-0.4-0.9-0.7-1.7-1.1-2.4c-2.3-4.5-5.6-8.4-9.9-11.6c-5-3.7-11.5-6.6-19.3-8.6  c-9.9-2.5-20.5-2.3-30.6,0.6c-9.1,2.6-17.3,7.3-23.1,13.2c-3.3,3.3-5.6,6.9-7,10.5c-1.4,3.8-1.6,7.4-0.6,10.9  c0.3,1.1,0.7,2.2,1.2,3.2c1.2-4.5,3.1-8.6,5.6-12.3c1.3-1.8,2.7-3.5,4.3-5c0.6-3.3,2-6.2,4.2-8.9c3.1-3.7,7.6-6.6,13.1-8.4  c2.3-0.8,4.7-1.3,7.2-1.6c6.5-2.4,15.1-2.3,24.2,0.5c8.7,2.7,16.5,7.3,21.5,12.8c0.6,0.6,1.1,1.2,1.5,1.8c1.4,0.6,2.7,1.2,4,2  C295.6,134.9,297.2,136,298.8,137.2z M218.1,137.1c-1.2,1.3-2.4,2.6-3.4,4.1c-2.7,3.8-4.6,8.1-5.7,12.8c0.8,1.3,1.8,2.4,2.9,3.5  c0.3-1.1,0.7-2.1,1.2-3c1.8-3,3.8-5.9,5.9-8.4c-0.4-1.4-0.7-2.8-0.8-4.2C218,140.3,218,138.7,218.1,137.1z M226.6,190.5  c-1.5,2.1-2.1,4.3-2,6.5c0.1,1.4,0.4,2.8,0.8,4.2c2.5,1.8,5.2,3.2,8,4.2c1.5,0.6,3,1,4.5,1.3C233,202.6,229.2,197,226.6,190.5z   M239,208c-1.9-0.3-3.8-0.9-5.8-1.6c-2.5-0.9-4.9-2.2-7.2-3.7c0.9,2.2,2.1,4.3,3.8,6.2c1.5,1.8,3.4,3.5,5.4,5.1c1-1.2,2-2.7,3-4.7  C238.5,208.9,238.7,208.4,239,208z M219.3,147.2c-1.9,2.3-3.8,4.9-5.5,7.8c-0.5,0.9-0.9,2-1.2,3.2c1.2,1,2.6,1.9,4.1,2.6  c1.1,0.5,2.4,1.1,4,1.6c0.5-0.4,1-0.8,1.5-1.3c0.5-0.4,1.1-0.8,1.6-1.2c0-0.3-0.1-0.6-0.1-0.9c0-0.8,0-1.6,0.1-2.4  C221.9,153.7,220.4,150.5,219.3,147.2z M225.3,165.3c-1.3,4.7-1.5,10.1-0.3,16.2c0.5,2.5,1.1,5,1.9,7.3c1.4-1.6,3.3-3.2,5.6-4.9  c0.3-0.2,0.6-0.4,0.9-0.6c-0.2-1.1-0.4-2.3-0.5-3.4c-0.2-1.5-0.2-3-0.2-4.4c-2.1-2.1-3.9-4.3-5.5-6.7  C226.5,167.7,225.8,166.5,225.3,165.3z M233.7,184.2c-0.2,0.1-0.4,0.3-0.6,0.4c-2.5,1.7-4.4,3.4-5.8,5.1  c2.6,6.9,6.8,12.8,12.2,17.3c0.7-1.5,1.4-3,2.1-4.7c-0.8-1.1-1.5-2.1-2.1-3.3C236.7,194.5,234.7,189.5,233.7,184.2z M239.8,208.3  c-0.2,0.5-0.5,1-0.7,1.4c-0.9,1.6-1.9,3.3-3.1,4.7c0.1,0.1,0.2,0.1,0.3,0.2c2.8,0.3,5.9,0.2,9.2-0.2c1.3-0.2,2.7-0.4,4.1-0.7  c-1.9-0.7-3.8-1.6-5.6-2.7C242.5,210.3,241.1,209.4,239.8,208.3z M251.1,214.4c-1.9,0.4-3.8,0.7-5.6,1c-2.7,0.3-5.3,0.4-7.8,0.3  c1.3,0.8,2.7,1.5,4.2,2.2c6.6,2.9,14.1,4,21.7,3c-1.8-0.9-5.2-2.6-9.1-5.5C253.4,215.1,252.2,214.8,251.1,214.4z M223.9,160.9  c-0.4,0.3-0.8,0.6-1.2,0.9c-0.4,0.3-0.7,0.6-1,0.9c0.9,0.3,1.8,0.5,2.9,0.7C224.3,162.5,224.1,161.7,223.9,160.9z M224.7,160.3  c0.1,0.8,0.3,1.6,0.5,2.4c0.3-0.8,0.7-1.7,1.1-2.5c-0.2-0.2-0.4-0.5-0.6-0.7C225.5,159.8,225.1,160,224.7,160.3z M230.6,165.1  c-1.7-0.1-3.2-0.3-4.7-0.6c0.5,1.3,1.2,2.6,2.1,3.9c1.3,2.1,3,4,4.8,5.9c0.1-2.1,0.5-4.2,1.1-6.1  C232.8,167.3,231.7,166.2,230.6,165.1z M220,146.4c0.9,3.2,2.3,6.1,4,8.9c0.5-2.4,1.6-4.8,3.3-7.1c0.9-1.3,1.9-2.4,3-3.6  c-0.3-1.9-0.4-4-0.5-6c0-0.1,0-0.3,0-0.4C226.6,139.9,223.2,142.7,220,146.4z M242.1,203.2c-0.6,1.5-1.2,2.9-1.9,4.2  c1.8,0.3,3.7,0.4,5.5,0.3C244.5,206.2,243.3,204.7,242.1,203.2z M219.1,136.1c-0.3,1.8-0.3,3.7-0.1,5.7c0.1,1.2,0.4,2.4,0.7,3.5  c1.1-1.3,2.3-2.5,3.5-3.5c2.2-2,4.4-3.6,6.6-4.7c0.1-2.7,0.4-5.5,1.3-8.3C226.6,130.5,222.5,132.9,219.1,136.1z M227,161  c-0.4,0.8-0.8,1.7-1.1,2.6c1.2,0.2,2.5,0.4,3.8,0.5C228.8,163.1,227.9,162.1,227,161z M224.6,157.7c0,0.5,0,1.1,0,1.6  c0.2-0.2,0.5-0.3,0.7-0.5C225.1,158.5,224.8,158.1,224.6,157.7z M246.6,208.4c-1.8,0.1-3.6,0.1-5.4-0.1c1.1,0.8,2.2,1.5,3.3,2.1  c2.2,1.3,4.4,2.3,6.7,3.1c0.2-0.1,0.5-0.1,0.7-0.2c-0.5-0.4-1.1-0.9-1.6-1.4C249,210.8,247.7,209.6,246.6,208.4z M230.5,145.7  c-0.9,0.9-1.7,1.9-2.5,3c-1.8,2.5-2.9,5.1-3.3,7.7c0.4,0.7,0.9,1.4,1.4,2c0.8-0.5,1.6-0.9,2.4-1.3c0.1-0.1,0.1-0.1,0.2-0.2  c1.1-1.4,2.3-2.7,3.8-3.8C231.6,150.7,230.9,148.2,230.5,145.7z M234.4,183.7c1,5.3,3,10.3,5.7,14.9c0.6,0.9,1.1,1.8,1.8,2.7  c1.7-4.4,3.2-9.2,4.4-14.1c-0.8-0.7-1.8-1.4-2.7-2.2c-1.5-1.2-3.1-2.5-4.7-3.9C237.3,182,235.8,182.9,234.4,183.7z M233.6,176.4  c0,1.1,0.1,2.2,0.2,3.4c0.1,1,0.3,2,0.4,3c1.2-0.8,2.5-1.5,3.9-2.3C236.6,179.2,235.1,177.9,233.6,176.4z M227.4,158.6  c-0.3,0.1-0.5,0.3-0.8,0.5c0.1,0.1,0.2,0.2,0.3,0.4C227,159.2,227.2,158.9,227.4,158.6z M229,157.8c-0.6,0.8-1.1,1.6-1.6,2.4  c1.1,1.4,2.3,2.8,3.5,4.1c1.4,0.1,2.9,0.2,4.5,0.2c0.1-0.2,0.2-0.5,0.4-0.7c0.4-0.6,0.8-1.3,1.2-1.9c-0.2-0.3-0.5-0.7-0.7-1  c-1-1.6-1.9-3.2-2.7-4.9C232,156.4,230.5,157.1,229,157.8z M239.8,118.1c-1.3,0.3-2.7,0.6-3.9,1.1c-5.3,1.8-9.7,4.6-12.7,8.2  c-1.9,2.2-3.1,4.7-3.8,7.4c3.5-3,7.5-5.4,12.1-6.9C233,124,235.5,120.5,239.8,118.1z M247,187.9c-1.2,4.9-2.7,9.9-4.5,14.3  c1.3,1.8,2.8,3.6,4.4,5.3c3.3-0.3,6.5-1,9.6-2.4c-1.4-0.9-2.7-1.9-3.7-3.1c-2.8-3.1-3.9-6.4-3.4-9.8c0.1-0.6,0.2-1.2,0.4-1.9  C249,189.6,248,188.8,247,187.9z M234.6,168.9c-0.6,2-0.9,4.1-0.9,6.3c1.7,1.7,3.5,3.4,5.3,4.9c2-1.1,4.1-2.1,6.3-3.1  c-1.7-1.1-3.4-2.2-5-3.4C238.6,172.3,236.6,170.8,234.6,168.9z M235,165.3c-1.1,0-2.1,0-3.2-0.1c0.8,0.8,1.5,1.5,2.3,2.2  C234.4,166.7,234.7,166,235,165.3z M232.7,153.9c-0.9,0.7-1.7,1.5-2.4,2.3c0.9-0.4,1.9-0.8,2.9-1.1  C233.1,154.7,232.9,154.3,232.7,153.9z M257.4,205.7c-3.2,1.4-6.4,2.3-9.7,2.6c1,1,2.1,2,3.2,3c0.7,0.6,1.4,1.2,2.1,1.8  c4.1-1,8.5-2.5,13.2-4.4C262.8,208.1,259.9,207.1,257.4,205.7z M236,165.3c-0.4,0.9-0.8,1.8-1.1,2.7c2.1,1.9,4.2,3.6,6,4.9  c1.8,1.3,3.6,2.6,5.4,3.7c0.7-0.3,1.4-0.6,2.1-1c0.1-1,0.2-2,0.2-3c-3.4-2.2-6.3-4.7-8.8-7.4C238.4,165.2,237.1,165.3,236,165.3z   M246.1,177.5c-2.3,1.1-4.4,2.1-6.5,3.2c1.5,1.3,3,2.5,4.5,3.7c0.8,0.7,1.6,1.3,2.4,1.9c0.1-0.3,0.1-0.5,0.2-0.8  c0.5-2.4,0.9-4.8,1.2-7C247.3,178.3,246.7,177.9,246.1,177.5z M252.8,214C252.8,214,252.8,214,252.8,214  C252.8,214,252.8,214,252.8,214C252.8,214,252.8,214,252.8,214z M237.6,162.6c-0.4,0.5-0.7,1-1,1.6c0,0.1-0.1,0.2-0.1,0.2  c0.8,0,1.7,0,2.5-0.1C238.5,163.8,238,163.2,237.6,162.6z M231.2,144.9c0.4,2.7,1,5.2,1.9,7.6c3.8-2.9,8.7-5.1,14.6-6.6  c0.2-0.5,0.5-1,0.8-1.6c0.2-0.3,0.4-0.6,0.5-0.9c-1.5-1.6-2.8-2.9-4-4c-0.7-0.7-1.5-1.2-2.3-1.7c-0.1,0-0.2,0.1-0.3,0.1  C238.2,139.4,234.4,141.8,231.2,144.9z M247.3,146.9c-5.6,1.5-10.3,3.7-13.9,6.5c0.2,0.5,0.4,1,0.6,1.5c1.6-0.5,3.2-0.9,4.9-1.2  c0.3-0.1,3.1-0.8,7.1-1C246.2,150.6,246.6,148.7,247.3,146.9z M246,153.5c-4.1,0.1-6.8,0.9-6.8,0.9l0,0c-1.6,0.3-3.2,0.7-4.7,1.2  c0.8,1.6,1.6,3.2,2.6,4.7c0.2,0.3,0.4,0.5,0.5,0.8c2.2-2.7,5-5,8.4-6.6C246,154.2,246,153.9,246,153.5z M267.8,208.9  c-5,2.1-9.6,3.7-14,4.8c0.4,0.3,0.8,0.6,1.1,0.8c7.1,1.7,14.7,1.3,21.9-1.2c3.3-1.1,5.2-2.8,5.8-5.2c0.1-0.3,0.1-0.5,0.2-0.8  C278.2,209,272.8,209.5,267.8,208.9z M230.7,137.7c0,0.3,0,0.6,0,0.9c0,1.8,0.1,3.6,0.4,5.3c3-2.9,6.6-5.1,10.6-6.7  c-2-0.9-4.2-1.2-6.5-0.9C233.8,136.5,232.3,137,230.7,137.7z M246,155.5c-3.2,1.6-5.9,3.7-7.9,6.4c0.6,0.8,1.3,1.6,1.9,2.4  c2.7-0.2,5.2-0.4,7.6-0.8c-0.1-0.3-0.2-0.6-0.3-0.9C246.6,160.2,246.1,157.8,246,155.5z M283.7,207.1c0,0.5-0.1,0.9-0.2,1.3  c-0.7,2.6-2.8,4.6-6.3,5.8c-6.7,2.3-13.7,2.9-20.5,1.7c4.4,3,7.9,4.5,8.5,4.8c7.4-1.2,14.6-4.2,21.4-9c0.4-2.3,0.6-4.3,0.6-6.3  c-1,0.6-2.1,1.1-3.2,1.5C283.9,207,283.8,207,283.7,207.1z M248.7,179.1c-0.3,2.1-0.7,4.4-1.2,6.7c-0.1,0.4-0.2,0.8-0.3,1.2  c1.1,0.9,2,1.7,2.9,2.5c0.9-2.3,2.5-4.6,4.6-6.7c-0.2-0.3-0.3-0.5-0.5-0.8C252.4,181.1,250.5,180.2,248.7,179.1z M250.5,191.1  c-0.1,0.4-0.2,0.9-0.3,1.3c-0.5,3.2,0.6,6.1,3.2,9.1c1.1,1.2,2.5,2.3,4,3.3c2.1-1,4.2-2.2,6.2-3.6c0.8-0.6,1.5-1.2,2.2-1.8  c-6.9-1.8-12.4-4.6-14.6-7.3C251,191.7,250.7,191.4,250.5,191.1z M232.2,128.5c-0.9,2.4-1.4,5.2-1.5,8.3c1.5-0.7,3-1.1,4.4-1.3  c2.8-0.4,5.3,0,7.7,1.3c4.9-1.7,10.1-2.3,15.2-1.8c2.3-1.3,4.8-2.5,7.6-3.4c-0.2-0.9-0.5-1.7-0.8-2.6c-8-2.4-16.5-3.1-24.4-2.2  C237.6,127.1,234.8,127.7,232.2,128.5z M247.8,164.3c-2.2,0.3-4.6,0.6-7.1,0.8c2.2,2.4,4.8,4.6,7.7,6.5  C248.5,168.8,248.3,166.4,247.8,164.3z M255.2,183.5c-2.2,2.3-3.6,4.5-4.4,6.7c0.4,0.4,0.8,0.9,1.1,1.3c2.1,2.6,7.6,5.3,14.3,7  c0.1,0,0.3,0.1,0.4,0.1c1.7-1.8,3-3.8,3.8-6c-2.6-0.3-5.3-1.2-7.9-2.6C259.6,188.3,257,186,255.2,183.5z M248.1,176.6  c-0.4,0.2-0.7,0.3-1.1,0.5c0.3,0.2,0.6,0.4,1,0.6C248.1,177.3,248.1,177,248.1,176.6z M249,176.2c-0.1,0.7-0.1,1.3-0.2,2  c1.6,0.9,3.1,1.8,4.7,2.5c-0.5-1-0.9-2.1-1.1-3.1c-0.2-0.9-0.1-1.7,0.1-2.6c-0.1-0.1-0.2-0.1-0.3-0.2  C251.1,175.3,250.1,175.7,249,176.2z M266.8,199.5c-0.8,0.8-1.7,1.6-2.7,2.3c-1.9,1.4-3.8,2.5-5.8,3.4c2.5,1.3,5.4,2.2,8.6,2.7  c0.2,0,0.4,0.1,0.6,0.1c3.1-1.3,6.4-2.9,9.8-4.6c1.2-0.6,2.4-1.3,3.5-2C276.4,201.4,271.6,200.7,266.8,199.5z M243,117.6  c-0.1,0-0.2,0.1-0.2,0.1c-3.8,1.5-6.8,3.9-8.8,7.1c-0.5,0.8-1,1.7-1.4,2.7c2.5-0.8,5.1-1.3,7.8-1.6c7.8-0.9,16.1-0.2,24.1,2.1  c-0.6-1.5-1.3-2.9-2-4.3c-1.7-3.1-5.5-5.2-10.6-6C249.1,117.2,246.1,117.2,243,117.6z M249.3,173.1c0,0.7-0.1,1.4-0.1,2.1  c0.7-0.3,1.4-0.6,2.1-0.9C250.5,173.9,249.9,173.5,249.3,173.1z M248.7,164.2c0.5,2.2,0.7,4.9,0.6,8c0.9,0.6,1.8,1.1,2.7,1.6  c0.1,0,0.1,0.1,0.2,0.1c0.3-0.1,0.7-0.3,1-0.4c0.8-1.5,2.2-3,3.7-4.5c-1.3-1.9-2.1-3.5-2.2-4.7c0-0.4-0.1-0.8-0.1-1.2  C252.9,163.4,250.9,163.8,248.7,164.2z M253.3,175.4c-0.2,0.7-0.2,1.4-0.1,2c0.3,1.3,0.8,2.7,1.6,3.9c0.3,0.1,0.6,0.3,0.9,0.4  c1.3-1.2,2.7-2.4,4.2-3.6C257.6,177.3,255.3,176.4,253.3,175.4z M246.8,155.1c0.1,2.3,0.5,4.7,1.4,7.2c0.1,0.3,0.2,0.7,0.3,1  c2.3-0.4,4.4-0.8,6.1-1.3c0-2.1,0.2-4.8,0.8-7.6c-0.7-0.2-1.3-0.3-2-0.4c-0.9-0.2-1.7-0.3-2.5-0.4  C249.5,154.1,248.1,154.5,246.8,155.1z M255.9,182.8c0,0-0.1,0.1-0.1,0.1c1.8,2.5,4.3,4.7,7.2,6.3c2.5,1.4,5.2,2.3,7.7,2.5  c0.5-1.5,0.8-3.1,0.9-4.8c0-0.2,0-0.4,0-0.6c-0.3-0.4-0.6-0.7-0.9-1.1c-1.4,0.3-2.7,0.5-3.8,0.6  C264.5,185.9,260.5,184.8,255.9,182.8z M253.8,174.1c-0.1,0.2-0.2,0.3-0.2,0.5c2.2,1.1,4.6,2.1,7.1,3c0.6-0.5,1.3-1,2-1.5  c-1.3-1.5-2.6-3-3.6-4.4c-1.7,0.8-3.3,1.5-5,2.3C253.9,174,253.9,174,253.8,174.1z M246.8,153.5c0,0.2,0,0.5,0,0.7  c0.6-0.2,1.1-0.5,1.7-0.7C248,153.5,247.4,153.5,246.8,153.5z M260.8,178.5c-0.8,0.6-1.6,1.2-2.3,1.9c-0.7,0.6-1.4,1.2-2,1.8  c4.4,1.9,8.1,2.9,10.2,2.8c1-0.1,2.1-0.2,3.3-0.4c-1.3-1.5-2.6-3-3.9-4.5C264.3,179.6,262.5,179.1,260.8,178.5z M248.3,146.6  c-0.8,1.9-1.3,3.9-1.4,6c1.2,0,2.5,0,3.9,0.2c1.7-0.5,3.5-0.8,5.3-0.9c0,0,0-0.1,0-0.1c-1.6-2.1-3.3-4.1-4.8-5.8  C250.3,146.1,249.3,146.3,248.3,146.6z M257.4,169.6c-1.1,1.1-2.1,2.2-2.8,3.2c1.3-0.6,2.6-1.2,3.9-1.8  C258.1,170.5,257.7,170,257.4,169.6z M256.8,135.7c-4.4-0.3-8.9,0.3-13,1.7c0.6,0.4,1.2,0.9,1.8,1.4c1.2,1.1,2.5,2.4,3.9,3.9  C251.3,140,253.8,137.6,256.8,135.7z M281.9,201.8c-1.3,0.9-2.7,1.7-4.1,2.4c-2.9,1.5-5.7,2.8-8.4,4c4.6,0.3,9.3-0.3,13.4-1.8  C282.9,205,282.5,203.5,281.9,201.8z M249.6,144c-0.1,0.2-0.3,0.5-0.4,0.7c-0.2,0.3-0.3,0.6-0.5,0.9c0.6-0.1,1.2-0.3,1.9-0.4  C250.3,144.8,250,144.4,249.6,144z M255.5,162.7c0,0.5,0,0.9,0.1,1.4c0.1,1.1,0.8,2.5,2,4.2c1.6-1.5,3.4-3,5.3-4.5  c0.3-0.3,0.7-0.6,1-0.8c-0.7-1.1-1.3-2.2-2-3.2c-0.9,0.8-1.9,1.4-3,1.9C258,161.9,256.8,162.3,255.5,162.7z M271.3,192.6  c-0.8,2.3-2.1,4.4-3.7,6.2c4.7,1.1,9.4,1.7,13.8,1.7c-1.2-2.7-3.1-5.5-5.2-8.4C274.6,192.6,273,192.7,271.3,192.6z M256.3,154.7  c-0.6,2.6-0.8,5.1-0.8,7.1c1.2-0.3,2.2-0.7,3.1-1c1-0.4,2-1,2.8-1.8c-0.7-1.1-1.5-2.2-2.3-3.3C258.2,155.3,257.2,155,256.3,154.7z   M264.3,163.6c-0.3,0.3-0.6,0.5-0.9,0.7c-1.9,1.6-3.7,3.1-5.3,4.6c0.4,0.5,0.8,1.1,1.2,1.7c2.4-1.1,4.7-2.2,7-3.3  C265.6,166,265,164.8,264.3,163.6z M255.9,152.7c-0.9,0.1-1.8,0.2-2.7,0.4c0.1,0,0.2,0,0.4,0.1c0.7,0.1,1.4,0.3,2.1,0.5  C255.7,153.3,255.8,153,255.9,152.7z M258.2,135.8c-3.4,2.1-6.2,4.6-8.1,7.5c0.5,0.5,1,1.1,1.5,1.7c2.6-0.5,5.3-0.9,8.2-1.2  c0.8-1.1,1.7-2.2,2.7-3.2c1.2-1.1,2.4-2.1,3.8-2.8c-2.2-0.9-4.8-1.6-7.5-1.9C258.7,135.8,258.4,135.8,258.2,135.8z M263.2,176.7  c-0.5,0.4-1.1,0.8-1.6,1.2c1.1,0.4,2.3,0.7,3.5,1C264.5,178.1,263.8,177.4,263.2,176.7z M266.7,168.1c-2.2,1.1-4.5,2.2-6.8,3.2  c1.1,1.3,2.3,2.8,3.5,4.2c1.6-1.2,3.4-2.3,5.1-3.5C267.9,170.7,267.3,169.4,266.7,168.1z M259.3,144.8c-2.5,0.2-4.8,0.6-7,1  c1.4,1.6,2.8,3.3,4.2,5C257.2,148.7,258.1,146.7,259.3,144.8z M256.8,152.7c-0.1,0.4-0.2,0.8-0.3,1.2c0.6,0.2,1.1,0.3,1.7,0.5  C257.7,153.8,257.3,153.2,256.8,152.7C256.8,152.7,256.8,152.7,256.8,152.7z M268.8,172.9c-1.6,1.1-3.3,2.2-4.9,3.3  c0.8,0.9,1.6,1.9,2.5,2.8c0.1,0.1,0.1,0.1,0.2,0.2c1.4,0.3,2.9,0.7,4.4,0.9C270.5,177.7,269.7,175.3,268.8,172.9z M260.4,144.6  c-1.5,2.2-2.5,4.6-3.3,6.9c0,0.1,0.1,0.1,0.1,0.2c2.3-0.1,4.7,0,7.1,0.3c0.4,0.1,0.8,0.1,1.2,0.2c0,0,0,0,0,0  c0.8-2.4,1.3-5.1,1.5-8c-0.9,0-1.8,0-2.7,0C263,144.4,261.7,144.5,260.4,144.6z M265.3,153.1c-0.3-0.1-0.7-0.1-1-0.2  c-2.1-0.3-4.2-0.4-6.3-0.3c0.6,0.8,1.2,1.6,1.7,2.3c1.3,0.5,2.5,1.1,3.7,1.8C264.1,155.7,264.7,154.5,265.3,153.1z M271.2,181.1  c-1.2-0.2-2.4-0.4-3.6-0.7c1.1,1.3,2.3,2.6,3.4,3.9c0.2,0,0.4-0.1,0.6-0.1C271.5,183.1,271.3,182.1,271.2,181.1z M272.4,187.3  c-0.1,1.6-0.4,3.1-0.8,4.5c1.4,0.1,2.8-0.1,4-0.4C274.6,190,273.5,188.7,272.4,187.3z M288.4,131.3c-0.2-0.2-0.4-0.4-0.6-0.6  c-4.8-5.3-12.6-10-21.1-12.6c-7.2-2.2-14.1-2.8-19.8-1.6c1.7,0,3.4,0.1,5,0.4c5.4,0.8,9.4,3.1,11.2,6.4c0.9,1.6,1.6,3.2,2.3,5  c1.8,0.5,3.6,1.2,5.3,1.9c4-0.8,7.9-0.9,11.7-0.3C284.5,130.1,286.5,130.6,288.4,131.3z M262.8,157.4c-0.7-0.4-1.5-0.8-2.3-1.2  c0.5,0.7,1,1.4,1.4,2.1C262.3,158.1,262.6,157.8,262.8,157.4z M263.6,157.9c-0.3,0.4-0.7,0.9-1.1,1.2c0.7,1.1,1.4,2.1,2,3.2  c0.8-0.7,1.6-1.4,2.4-2.1c-0.4-0.3-0.8-0.6-1.1-0.9C265.1,158.8,264.3,158.3,263.6,157.9z M272.4,184.8c0,0.4,0,0.8,0,1.2  c1.4,1.7,2.8,3.4,4.1,5.1c2.3-0.8,4.4-2.2,6.1-4c-0.6-1.5-1.4-3.2-2.2-5.1c-0.2,0-0.3,0-0.5,0C277.3,183.3,274.7,184.2,272.4,184.8  z M267.6,160.8c-0.9,0.8-1.7,1.5-2.6,2.2c0.8,1.3,1.5,2.6,2.1,3.9c1.4-0.7,2.9-1.5,4.2-2.2C270.1,163.3,268.9,162,267.6,160.8z   M272.1,181.2c0.1,0.9,0.3,1.8,0.3,2.7c1.8-0.5,3.7-1.2,5.7-2C276,181.7,274,181.5,272.1,181.2z M271.8,165.4  c-1.4,0.8-2.9,1.5-4.4,2.3c0.7,1.3,1.3,2.6,1.8,3.9c1.4-0.9,2.8-1.8,4.3-2.7c0.2-0.1,0.4-0.2,0.6-0.3  C273.3,167.5,272.6,166.4,271.8,165.4z M266.1,153.3c-0.6,1.5-1.2,2.8-2,3.9c0.7,0.5,1.5,1,2.2,1.5c0.4,0.3,0.9,0.7,1.3,1  c1.7-1.5,3.2-3,4.5-4.5C270.2,154.4,268.2,153.7,266.1,153.3z M270.5,175.1c0.6,1.8,1.1,3.5,1.4,5.2c2.6,0.4,5.2,0.7,7.8,0.8  c0.1,0,0.2-0.1,0.2-0.1c-1-2.2-2.1-4.7-3.3-7.4c-0.7-1.5-1.4-2.9-2.2-4.3c-0.2,0.1-0.4,0.2-0.5,0.3c-1.4,0.9-2.9,1.8-4.4,2.7  c0,0.1,0.1,0.2,0.1,0.4C270,173.5,270.3,174.3,270.5,175.1z M266.9,138.4c-1.3,0.8-2.6,1.7-3.7,2.8c-0.8,0.8-1.5,1.6-2.2,2.5  c1.1-0.1,2.2-0.2,3.3-0.2c0.9,0,1.8-0.1,2.7,0C267.2,141.8,267.1,140.1,266.9,138.4z M282.9,187.9c-1.7,1.7-3.7,3.1-5.9,3.9  c0.7,0.9,1.3,1.8,1.9,2.6c1.5,2.2,2.6,4.2,3.4,6.1c1.4-1,2.7-2,4-3.2C285.5,194.7,284.5,191.8,282.9,187.9z M265.9,132.3  c-2.3,0.8-4.5,1.7-6.4,2.7c2.7,0.4,5.1,1,7.3,1.9C266.6,135.4,266.3,133.9,265.9,132.3z M272.8,155.5c-1.3,1.6-2.9,3.2-4.6,4.7  c1.4,1.2,2.6,2.6,3.8,4c1.4-0.8,2.7-1.5,4-2.3c1.1-0.7,2.1-1.3,3-2C277.4,158.2,275.3,156.7,272.8,155.5z M283,202.4  c0.5,1.4,0.7,2.6,0.7,3.8c1.3-0.5,2.4-1.1,3.6-1.7c0-1.1-0.1-2.2-0.2-3.3c-1.4,0.2-2.9,0.3-4.4,0.3  C282.8,201.7,282.9,202.1,283,202.4z M267.9,144.4c-0.2,2.9-0.7,5.6-1.5,8.1c2.2,0.5,4.3,1.2,6.2,2c2.5-3.2,3.3-6.1,2.4-8.8  C272.8,145,270.4,144.5,267.9,144.4z M286.5,198.3c-0.9,0.8-1.8,1.5-2.7,2.2c1.1,0,2.1-0.1,3.1-0.2  C286.8,199.6,286.6,199,286.5,198.3z M288.1,204.9c0,1.9-0.2,3.8-0.5,6.1c0.6-0.4,1.1-0.8,1.7-1.3c13.5-10.7,21.7-21.9,24.2-33.4  c2.4-11-0.8-19.8-3.9-25.2c-2.4-4.2-5.5-8.1-8.9-11.2c1,3.3,1.5,6.6,1.7,10c2.4,3.6,4.2,7.5,5,11.4c1.2,5.3,0.6,10-1.6,13.3  c2.6,4.2,2.7,9.2,0.3,14.7c-2.2,4.9-6.4,8.4-12.3,10.4c-0.1,0.2-0.3,0.4-0.4,0.5C292,202,290.2,203.6,288.1,204.9z M279.7,160.6  c-1,0.7-2.1,1.4-3.2,2.1c-1.3,0.8-2.6,1.5-3.9,2.3c0.8,1,1.5,2.1,2.2,3.2c2.6-1.4,5.6-2.2,8.7-2.5  C282.5,164,281.2,162.3,279.7,160.6z M284,166.5c-3.2,0.3-6.1,1.1-8.7,2.5c0.8,1.4,1.5,2.8,2.2,4.3c1.2,2.7,2.3,5.1,3.3,7.3  c1.2-0.7,2.4-1.4,3.6-2.2c0.8-0.6,1.6-1.2,2.4-1.9C286.7,173.2,285.8,169.8,284,166.5z M267.8,138.4c0.2,1.7,0.2,3.4,0.2,5.1  c2.3,0.1,4.5,0.5,6.6,1.2C273.3,142.2,271,140,267.8,138.4z M287.9,201c0.1,1,0.2,1.9,0.2,2.8c1.7-1.1,3.1-2.3,4.3-3.7  c-1.4,0.4-2.8,0.7-4.4,0.9C288,201,287.9,201,287.9,201z M285.6,182c-1.4,0.1-2.8,0.1-4.3,0c0.7,1.5,1.3,3,1.8,4.3  C284.2,185.1,285,183.6,285.6,182z M286.6,177.7c-0.6,0.5-1.2,1-1.9,1.4c-1.1,0.8-2.2,1.5-3.3,2.1c1.5,0,3,0,4.5,0  c0.1-0.3,0.2-0.6,0.2-0.9C286.4,179.4,286.5,178.5,286.6,177.7z M287.2,197.6c0.1,0.6,0.3,1.1,0.4,1.6c0.1,0.3,0.1,0.6,0.2,0.9  c0.1,0,0.1,0,0.2,0c1.7-0.2,3.5-0.6,5.4-1.2c2-2.9,3-6.2,2.9-10c0-1-0.1-2.2-0.1-3.4C293.7,190.3,290.7,194.3,287.2,197.6z   M286.5,182c-0.7,2-1.7,3.7-3,5.3c1.6,3.9,2.7,6.8,3.4,9.4c3.6-3.5,6.6-7.8,9-12.8c-0.1-1-0.2-2.1-0.3-3.1  C293,181.4,289.9,181.8,286.5,182z M276,146.1c0.7,2.7-0.2,5.6-2.6,8.8c2.5,1.2,4.7,2.8,6.5,4.6c2.6-1.8,4.7-3.6,6.6-5.5  c-0.9-1.2-1.9-2.3-3-3.3C281.2,148.7,278.7,147.2,276,146.1z M266.7,132.1c0.4,1.7,0.7,3.3,1,5c3.3-1.6,7.2-2.2,11.5-1.8  c-2.6-1.6-5.4-3-8.4-4.3c-0.4,0.1-0.7,0.2-1.1,0.2C268.7,131.5,267.7,131.8,266.7,132.1z M280.8,136.3c-0.2,0-0.3,0-0.5-0.1  c-4.5-0.5-8.5,0-11.9,1.5c3.5,1.8,6.1,4.3,7.3,7.2c0,0,0,0.1,0,0.1c3.1,1.1,5.9,2.8,8.4,5.1c1.1,1,2.1,2.1,3,3.3  c1.9-2,3.4-4.1,4.5-6.2c0-0.1,0.1-0.1,0.1-0.2c-1.6-2.5-3.7-4.9-6.2-7.2C283.9,138.6,282.4,137.4,280.8,136.3z M265.9,129.4  c0.2,0.6,0.4,1.2,0.6,1.9c0.9-0.3,1.9-0.6,2.9-0.8c-1.1-0.4-2.3-0.8-3.5-1.2C265.9,129.3,265.9,129.3,265.9,129.4z M287.5,176.9  c0,1.2-0.2,2.4-0.5,3.6c-0.1,0.2-0.1,0.4-0.2,0.6c3.2-0.2,6.2-0.6,8.7-1.2c-0.4-3.4-1.1-7.1-2-10.8  C291.9,172.3,289.7,174.9,287.5,176.9z M286.9,154.7c-1.8,1.8-4,3.6-6.5,5.4c1.6,1.8,3,3.6,4,5.4c1.4-0.1,2.8-0.1,4.3,0  c1.3,0.1,2.6,0.3,3.9,0.6c0,0,0-0.1,0-0.1C291.2,162,289.4,158.1,286.9,154.7z M296.8,184c0.1,1.8,0.2,3.5,0.2,4.9  c0.1,3.5-0.7,6.8-2.4,9.6c4.3-1.6,8.5-4.5,10.8-9.5c2.2-5,2.2-9.7-0.1-13.6c-0.8,1.1-1.9,2-3.1,2.8c-1,0.6-2.3,1.2-3.7,1.7  c-0.4,1-0.7,2-1.2,2.9C297.1,183.2,297,183.6,296.8,184z M289.4,132.6c-2.3-0.9-4.6-1.6-7-2c-3.3-0.5-6.7-0.5-10.1,0.1  c3.2,1.4,6.1,3,8.8,4.8c3.2,0.5,7.3,1.7,11.6,4.6c-0.1-0.4-0.1-0.8-0.3-1.3C292,136.8,290.9,134.7,289.4,132.6z M286.5,170.1  c0.6,1.9,1,3.8,1,5.6c2.1-2,4.2-4.6,5.6-7.9c-0.1-0.2-0.1-0.5-0.2-0.7c-1.4-0.3-2.8-0.6-4.2-0.7c-1.3-0.1-2.5-0.1-3.8,0  C285.6,167.6,286.1,168.9,286.5,170.1z M296.5,180.5c0.1,0.6,0.1,1.2,0.2,1.7c0.3-0.7,0.5-1.3,0.8-2  C297.1,180.3,296.8,180.4,296.5,180.5z M292.1,147.9c-1.1,2.1-2.7,4.2-4.6,6.2c2.7,3.6,4.7,7.9,6.1,12.3c0,0,0.1,0,0.1,0  c0.9-2.4,1.4-5.2,1.3-8.2C295,154.7,294,151.2,292.1,147.9z M294,167.9c1.2,4,1.9,8,2.3,11.7c0.5-0.1,1-0.3,1.4-0.4  c1.1-3.1,1.9-6.1,2.4-9c-1.8-1.2-3.8-2.1-6-2.7C294.2,167.6,294.1,167.8,294,167.9z M292.8,141.2c-2.7-1.9-6.1-3.7-10.1-4.6  c1.1,0.8,2.2,1.6,3.1,2.5c2.5,2.2,4.5,4.5,6.1,6.9C292.7,144.5,292.9,142.9,292.8,141.2z M294.8,151.8c0.7,2.1,1.1,4.2,1.1,6.4  c0,3.2-0.5,6-1.4,8.5c2.2,0.6,4.2,1.5,5.9,2.6c0.7-4,1-7.6,1.1-10.6c0.1-3.3,0.1-6.1-0.1-8.6c-1.2-1.7-2.5-3.4-4-4.9  c-1.1-1.1-2.3-2.2-3.8-3.4c0,1.8-0.4,3.5-1.1,5.1C293.5,148.6,294.3,150.2,294.8,151.8z M301,170.8c-0.5,2.6-1.2,5.3-2.2,8.1  c1.1-0.4,2.1-0.9,2.9-1.4c1.2-0.8,2.2-1.7,3.1-2.8c-0.7-1-1.6-2-2.6-2.9C301.8,171.4,301.4,171,301,170.8z M302.5,151.6  c0.1,2.4,0.1,4.8,0,7.1c-0.1,3.1-0.4,6.9-1.2,11.1c0.5,0.4,1.1,0.8,1.5,1.2c1,0.9,1.9,1.8,2.6,2.8c1.9-3.1,2.4-7.4,1.2-12.4  C305.8,158.2,304.4,154.8,302.5,151.6z M299.4,138.8c-1.9-1.6-3.8-3-5.9-4.2c-0.9-0.5-1.7-0.9-2.6-1.4c1.1,1.8,1.9,3.5,2.4,5.3  c0.2,0.7,0.3,1.4,0.4,2.1c1.5,1.1,3,2.4,4.4,3.9c1.2,1.2,2.3,2.5,3.3,3.8C301,144.4,300.3,141.3,299.4,138.8z"></path></g><line class="st51" x1="120.7" y1="570.5" x2="835.3" y2="570.5"></line><g>	<polyline class="st53" points="150.7,370.7 171.7,345.8 185.3,353.4 199.5,332.4 226.8,354 237.9,334.8  "></polyline>	<g>		<circle class="st8" cx="150.7" cy="370.7" r="2.8"></circle>		<circle class="st8" cx="185.3" cy="353.4" r="2.8"></circle>		<circle class="st8" cx="171.5" cy="345.8" r="2.8"></circle>		<circle class="st8" cx="199.5" cy="332.4" r="2.8"></circle>		<circle class="st8" cx="226.6" cy="353.4" r="2.8"></circle>		<circle class="st8" cx="237.9" cy="335.2" r="2.8"></circle>	</g></g><rect x="441.9" y="331" class="st32" width="5.1" height="35"></rect><rect x="452.2" y="315.2" class="st32" width="5.1" height="50.8"></rect><rect x="462.5" y="341.4" class="st32" width="5.1" height="24.6"></rect><rect x="472.8" y="333.8" class="st32" width="5.1" height="32.2"></rect><rect x="483.1" y="321.5" class="st32" width="5.1" height="44.5"></rect><g>	<polygon class="st54" points="510.5,413.5 482.4,413.5 484.5,409.2 508.4,409.2  "></polygon>	<polygon class="st32" points="507.5,407.4 485.4,407.4 487.5,403.1 505.4,403.1  "></polygon>	<polygon class="st55" points="504.5,401.3 488.4,401.3 490.5,397 502.4,397  "></polygon>	<polygon class="st56" points="501.6,395.2 491.4,395.2 493.5,390.9 499.4,390.9  "></polygon>	<polygon class="st57" points="498.6,389.2 494.3,389.2 496.5,384.8  "></polygon></g><g>	<polygon class="st59" points="267.3,451.7 267.3,517.9 213.2,517.9 213.2,459.8 221.3,451.7  "></polygon>	<polygon class="st60" points="221.3,460.1 213.2,459.8 221.3,451.7  "></polygon>	<rect x="234" y="481.5" class="st60" width="4.7" height="19.6"></rect>	<rect x="242.4" y="477.1" class="st60" width="4.7" height="24"></rect>	<rect x="250.9" y="472.3" class="st60" width="4.7" height="28.8"></rect>	<rect x="259.4" y="465.9" class="st60" width="4.7" height="35.2"></rect>	<line class="st61" x1="219.7" y1="505.5" x2="254.8" y2="505.5"></line>	<line class="st61" x1="219.7" y1="508.6" x2="237.3" y2="508.6"></line></g></svg>