<svg xmlns="http://www.w3.org/2000/svg" xmlns:xlink="http://www.w3.org/1999/xlink" width="28px" height="28px" viewBox="0 0 28 28"><title>Video_icon</title><desc>Created with Sketch.</desc><g id="Welcome" stroke="none" stroke-width="1" fill="none" fill-rule="evenodd"><g id="40_HOURS" transform="translate(-440.000000, -6014.000000)" fill="#5D7FFF" fill-rule="nonzero"><path d="M449.275,6037.59149 L449.275,6038.78298 L458.725,6038.78298 L458.725,6037.59149 L468,6037.59149 L466.308333,6040.86809 C465.929167,6041.4766 465.248214,6041.931 464.499001,6041.99281 L464.325,6042 L443.733333,6042 C442.971111,6042 442.208889,6041.63673 441.826084,6041.00706 L441.75,6040.86809 L440,6037.59149 L449.275,6037.59149 Z M443.441667,6038.7234 C443.208333,6038.7234 442.916667,6038.90213 442.916667,6039.2 C442.916667,6039.49787 443.15,6039.73617 443.441667,6039.73617 C443.733333,6039.73617 443.966667,6039.55745 443.966667,6039.25957 C443.966667,6038.9617 443.733333,6038.7234 443.441667,6038.7234 Z M445.25,6038.7234 C444.958333,6038.7234 444.725,6038.90213 444.725,6039.2 C444.725,6039.49787 444.958333,6039.73617 445.25,6039.73617 C445.541667,6039.73617 445.775,6039.55745 445.775,6039.25957 C445.775,6038.9617 445.541667,6038.7234 445.25,6038.7234 Z M447,6038.7234 C446.766667,6038.7234 446.475,6038.90213 446.475,6039.2 C446.475,6039.49787 446.708333,6039.73617 447,6039.73617 C447.291667,6039.73617 447.525,6039.55745 447.525,6039.25957 C447.525,6038.9617 447.291667,6038.7234 447,6038.7234 Z M443.791667,6022.81702 L451.783333,6022.81702 C452.891667,6025.2 455.225,6026.80851 457.966667,6026.80851 C460.616944,6026.80851 462.885657,6025.24978 464.035114,6023.04714 L464.15,6022.81702 L464.208333,6022.81702 C464.75,6022.81702 465.191071,6023.22796 465.298023,6023.76366 L465.316667,6023.88936 L465.316667,6036.45957 L442.741667,6036.45957 L442.741667,6023.88936 C442.741667,6023.33333 443.148185,6022.8811 443.676659,6022.82327 L443.791667,6022.81702 L451.783333,6022.81702 Z M451.958333,6026.57021 L451.958333,6033.30213 L456.741667,6029.96596 L451.958333,6026.57021 Z M457.966667,6014 C461.116667,6014 463.683333,6016.62128 463.683333,6019.8383 C463.683333,6023.11489 461.116667,6025.6766 457.966667,6025.6766 C454.816667,6025.6766 452.25,6023.05532 452.25,6019.8383 C452.25,6016.62128 454.816667,6014 457.966667,6014 Z M456.741667,6018.58723 L454.875,6018.58723 L454.875,6022.34043 L456.741667,6022.34043 L456.741667,6018.58723 Z M458.958333,6016.08511 C458.783333,6016.08511 458.666667,6016.26383 458.608333,6016.44255 C458.491667,6017.21702 457.208333,6018.58723 457.208333,6018.58723 L457.208333,6018.58723 L457.208333,6022.22128 L460.358333,6022.22128 C460.591667,6022.22128 460.825,6021.98298 460.825,6021.74468 C460.825,6021.56596 460.766667,6021.38723 460.591667,6021.32766 L460.591667,6021.32766 L460.708333,6021.32766 C460.941667,6021.32766 461.175,6021.08936 461.175,6020.85106 C461.175,6020.67234 461.116667,6020.49362 460.941667,6020.43404 L460.941667,6020.43404 L461.058333,6020.43404 C461.291667,6020.43404 461.525,6020.25532 461.525,6019.95745 C461.525,6019.77872 461.466667,6019.6 461.291667,6019.54043 L461.291667,6019.54043 L461.583333,6019.54043 C461.816667,6019.54043 462.05,6019.3617 462.05,6019.06383 C462.05,6018.82553 461.525,6018.58723 461.291667,6018.58723 L461.291667,6018.58723 L458.608333,6018.58723 L459.191667,6017.39574 C459.366667,6017.0383 459.425,6016.74043 459.425,6016.50213 C459.366667,6016.26383 459.191667,6016.08511 458.958333,6016.08511 Z M456.041667,6021.44681 C456.158333,6021.44681 456.275,6021.56596 456.275,6021.68511 C456.275,6021.80426 456.158333,6021.9234 456.041667,6021.9234 C455.925,6021.9234 455.808333,6021.80426 455.808333,6021.68511 C455.808333,6021.56596 455.925,6021.44681 456.041667,6021.44681 Z" id="Video_icon"></path></g></g></svg>