<svg xmlns="http://www.w3.org/2000/svg" xmlns:xlink="http://www.w3.org/1999/xlink" width="188px" height="138px" viewBox="0 0 188 138"><title>Step_2_illustration</title><desc>Created with Sketch.</desc><defs><path d="M16.3149135,3.29561409 C17.4716296,3.3959816 19.0497977,4.90149437 18.9123497,6.17435644 C18.8759177,6.51062613 19.0497977,6.88539998 18.5380937,7.21824707 C16.7305695,8.39561881 10.4650929,9.18538198 8.24936474,8.12951226 C6.43190457,7.26359642 1.01430009,3.21715116 0.10846801,1.3984712 C-0.170568015,0.838706233 0.56552405,0.218874775 0.821376073,0.0657137714 C1.32480012,-0.410283247 5.31079247,3.25445741 9.56754085,4.39067248" id="path-1"></path><linearGradient x1="37.4073115%" y1="52.1128661%" x2="88.5189192%" y2="44.0123975%" id="linearGradient-3"><stop stop-color="#03086B" offset="0%"></stop><stop stop-color="#000446" offset="100%"></stop></linearGradient><linearGradient x1="0.531416043%" y1="83.7428418%" x2="98.0488849%" y2="17.4544848%" id="linearGradient-4"><stop stop-color="#030B23" offset="0%"></stop><stop stop-color="#23A0FA" offset="100%"></stop></linearGradient><path d="M0.951386611,13.0985156 C1.40462586,11.3244034 3.59597527,11.3426847 3.49451621,10.0555185 C2.59385913,-1.33203835 12.5950614,-6.1790625 13.0649333,12.6306818 L13.0665965,12.6298509 C14.8645842,21.7214489 12.5493216,21.936669 18.0580497,40.6101349 C17.9748866,40.7364418 19.0293955,41.461044 18.8722171,41.9081037 C18.4963196,42.9800497 19.2913595,45.2577273 17.9166723,45.4397088 C17.6488869,45.4422017 15.9190931,45.8286009 15.1573185,45.3034304 C14.9128188,45.1347443 14.6849517,44.8729901 14.9602218,44.5181676 C15.1423491,44.2830043 15.6396649,44.0586435 15.7128485,43.8658594 C15.9007972,43.3689418 15.6030731,42.2296875 15.4891395,42.0767898 C9.70597302,34.3031037 7.58448068,24.6946449 7.0439201,22.2823509 C6.39358415,29.9987003 6.51333911,30.7498935 7.70839379,42.7955753 C7.69342442,42.7955753 7.84561302,45.1737997 7.59529189,45.5510582 C7.30422081,45.9923011 5.99190606,45.7587997 3.27413382,45.8302628 C-0.550540154,45.9308097 -0.0856580603,44.8563707 0.192938544,44.5896307 C0.580478894,44.2198509 3.42881731,43.4703196 4.08414305,43.1130043" id="path-5"></path><linearGradient x1="51.1532217%" y1="85.6084497%" x2="47.4360038%" y2="-12.0833946%" id="linearGradient-7"><stop stop-color="#031442" offset="0%"></stop><stop stop-color="#23A0FA" offset="100%"></stop></linearGradient><path d="M14.083596,4.45267663 C12.5944878,6.08606658 7.67356563,8.32830163 5.04351619,6.69650136 C3.66882907,5.56703804 -0.90065708,1.62941576 0.198602242,0.741264946 C1.29786156,-0.146806386 2.0603961,0.109210598 2.0603961,0.109210598 C2.0603961,0.109210598 7.06876868,2.96553668 7.50438595,3.43766984 C7.8329378,3.79296196 13.099575,-0.633087636 14.822429,0.115966712" id="path-8"></path><linearGradient x1="42.4250678%" y1="51.6675022%" x2="95.5867218%" y2="40.8145416%" id="linearGradient-10"><stop stop-color="#03086B" offset="0%"></stop><stop stop-color="#000446" offset="100%"></stop></linearGradient><path d="M8.50463319,0.0554759358 C9.78200262,0.0554759358 11.4070207,0.427957219 12.0895601,1.77531337 C13.6850759,4.92609626 12.7473815,11.9385882 12.6923637,19.6902032 C10.923821,21.7682567 2.95182375,21.5563636 0.110035569,19.8754011 L0.0749517645,2.58334332 C0.276683641,2.26099893 1.4519911,0.0554759358 4.1446731,0.0554759358" id="path-11"></path><linearGradient x1="50.9703115%" y1="66.8560943%" x2="50.9641449%" y2="5.15450138%" id="linearGradient-13"><stop stop-color="#03086B" offset="0%"></stop><stop stop-color="#000446" offset="100%"></stop></linearGradient><path d="M0,20.5612981 C0.870588294,12.941713 3.66383028,6.68555018 9.79223663,1.88414407 C11.3920785,0.630850705 12.9141445,-0.179124341 13.7889143,0.146316477 C15.5351087,0.796538659 12.6682723,7.13356711 13.3916718,8.99759782" id="path-14"></path><linearGradient x1="8.17896948%" y1="159.32226%" x2="64.6589209%" y2="17.6479913%" id="linearGradient-16"><stop stop-color="#031442" offset="0%"></stop><stop stop-color="#23A0FA" offset="100%"></stop></linearGradient><path d="M0.0800293478,11.1680341 L13.5241514,0.0433628788 C15.1999174,1.08976439 21.805168,-0.599881061 22.1341775,1.23818598 C22.2990865,2.15826591 21.2578966,3.51272803 19.7753327,4.86459508" id="path-17"></path><linearGradient x1="-56.923627%" y1="69.2877115%" x2="82.7488479%" y2="43.8347861%" id="linearGradient-19"><stop stop-color="#031442" offset="0%"></stop><stop stop-color="#23A0FA" offset="100%"></stop></linearGradient><path d="M16.2786787,12.7699569 C17.4970571,17.9467905 15.8565766,30.1495012 15.246967,39.7210685 L15.341982,39.7121163 C15.341982,39.7121163 15.4184985,40.5381635 16.0735135,40.8840453 C16.7293694,41.230741 17.8712312,41.5001219 18.2588589,41.8590251 C18.5388589,42.1178261 19.6084084,43.584365 15.7783784,43.4867043 C13.0574174,43.4175279 12.4091291,43.2336002 12.1173574,42.8063344 C12.076997,42.7469241 9.8554955,22.6882199 9.57213213,21.0393809 C9.08612613,23.1407147 3.5845045,41.0687869 3.58618619,41.0801806 C3.63159159,41.3975781 4.06714715,42.239902 4.55147147,42.7640147 C4.7003003,43.2775475 5.05513514,44.1825371 2.41741742,44.1609563 C-0.221141141,44.1385898 0.321201201,43.493215 0.0386786787,43.0789707 C1.20912913,32.4209275 3.09093093,15.2480984 3.6812012,12.4118675 L3.84600601,12.2645625 C4.31603604,-5.97765174 14.3296096,-1.27691431 13.4282282,9.76688884" id="path-20"></path><linearGradient x1="48.6039092%" y1="85.5633716%" x2="53.7108499%" y2="-38.0489265%" id="linearGradient-22"><stop stop-color="#031442" offset="0%"></stop><stop stop-color="#23A0FA" offset="100%"></stop></linearGradient><path d="M0.339166667,4.06667234 C-0.464166667,2.9166383 0.66,-0.140093617 0.935,0.028493617 C3.25083333,0.827106383 5.055,4.71806809 5.4325,4.74339574 C5.83,4.76951489 5.9775,2.5596766 6.27666667,0.934748936 C6.7325,0.334008511 7.89166667,0.208161702 8.23166667,1.03131064 C8.545,1.78876596 9.4925,10.2695745 6.57,9.85641702" id="path-23"></path><linearGradient x1="48.1900078%" y1="150.24572%" x2="52.7091659%" y2="15.7873751%" id="linearGradient-25"><stop stop-color="#23A0FA" offset="0%"></stop><stop stop-color="#002990" offset="100%"></stop></linearGradient><path d="M0.215785441,2.17989362 C1.72375479,-0.018962766 7.1462069,-0.479840426 10.8078161,0.524361702 C14.5073563,3.30776596 14.5174713,14.8437234 14.6607663,18.1663298 C11.5866667,19.1235372 6.87984674,19.5085638 1.73302682,18.6436968" id="path-26"></path><linearGradient x1="51.4037499%" y1="150.259884%" x2="47.1513449%" y2="15.8392854%" id="linearGradient-28"><stop stop-color="#23A0FA" offset="0%"></stop><stop stop-color="#002990" offset="100%"></stop></linearGradient><path d="M6.86189744,2.74904124 C6.97,4.91016548 4.00851282,6.56480168 4.34589744,8.91076963 C4.44353846,9.34722879 9.05882051,10.4660625 10.773641,11.1753086 C11.419641,11.4415813 11.283641,11.8780405 11.152,12.1573417 C10.9253333,12.6385868 10.705641,12.7029157 9.94282051,13.0009456 C8.32564103,13.6328343 0.834307692,12.5897294 0.185692308,10.8324928 C-0.438512821,9.08177042 1.86476923,3.07638561 4.14625641,0.524402417" id="path-29"></path><linearGradient x1="-14.1896538%" y1="110.142212%" x2="61.2532801%" y2="35.8300266%" id="linearGradient-31"><stop stop-color="#23A0FA" offset="0%"></stop><stop stop-color="#002990" offset="100%"></stop></linearGradient><path d="M3.33076923,11.8493454 L2.2957265,15.1677258 L0.469230769,12.4312847 L0.588888889,1.49878386 L0.0666666667,0.606808511 L0.697435897,0.019895361 L1.34529915,0.557070108 L1.12222222,1.51867922" id="path-32"></path><linearGradient x1="50.0128306%" y1="77.5679965%" x2="50.0128306%" y2="5.50046517%" id="linearGradient-34"><stop stop-color="#A1BDE4" offset="0%"></stop><stop stop-color="#DDEBFF" offset="100%"></stop></linearGradient><path d="M5.39520249,0.0622069253 L6.50323988,0.338775553 L8.40666667,4.25444931 L8.62373832,8.49544848 C7.07264798,7.7422403 5.80666667,7.26223821 4.0741433,7.52115353 L1.02785047,7.97509595 C0.140124611,6.99155403 -0.405794393,4.98496037 0.436573209,3.84758239 C0.436573209,3.84758239 0.558878505,3.79882562 0.75894081,3.71560284 C1.29919003,3.48863162 2.40965732,3.005267 3.21395639,2.53283062" id="path-35"></path><linearGradient x1="53.3385762%" y1="95.1760338%" x2="43.9854171%" y2="22.2860346%" id="linearGradient-37"><stop stop-color="#022E9F" offset="0%"></stop><stop stop-color="#23A0FA" offset="100%"></stop></linearGradient><path d="M0.0852173913,0.134209066 L3.07913043,0.0585013876 C3.82695652,0.343265495 4.12173913,1.96839963 3.84782609,2.35812211 L1.2826087,3.89722479" id="path-38"></path><linearGradient x1="52.287793%" y1="57.1696899%" x2="51.9868512%" y2="1.09670051%" id="linearGradient-40"><stop stop-color="#A1BDE4" offset="0%"></stop><stop stop-color="#DDEBFF" offset="100%"></stop></linearGradient><linearGradient x1="50%" y1="0%" x2="50%" y2="100%" id="linearGradient-41"><stop stop-color="#EAF0F7" offset="0%"></stop><stop stop-color="#FFFFFF" offset="100%"></stop></linearGradient></defs><g id="Welcome" stroke="none" strokeWidth="1" fill="none" fillRule="evenodd"><g id="8_HOURS" transform="translate(-866.000000, -5499.000000)"><g id="Step_2_illustration" transform="translate(866.000000, 5499.000000)"><g id="Group-24" transform="translate(41.000000, 21.000000)"><path d="M7,73.1031048 C14.9507078,85.967222 29.1799879,94.5380974 45.4133333,94.5380974 C56.5959347,94.5380974 66.8285299,90.4706515 74.7116031,83.7331963 C74.9311555,83.5459002 75.1496673,83.3565231 75.3650575,83.1650649 C84.67366,74.8980253 90.5381004,62.8413622 90.5381004,49.4132758 C90.5381004,33.1802228 81.9672353,18.9497809 69.1031337,11 C83.3407381,18.7621727 93,33.8632291 93,51.2207867 C93,64.8433489 87.0502359,77.0758622 77.6074047,85.4625632 C77.3888929,85.6561024 77.1672595,85.8486011 76.9445856,86.0390188 C68.9460133,92.8732436 58.5656624,97 47.2207381,97 C29.8636177,97 14.7623714,87.3407264 7,73.1031048 Z" id="Fill-4-Copy" fill="#D4D1CC"></path><path d="M90,49.4998426 C90,63.0396201 84.1517744,75.1965672 74.8689095,83.5323698 C74.6541149,83.7254205 74.4362073,83.9163728 74.217262,84.1052267 C66.355985,90.8987222 56.1516822,95 45,95 C20.1471165,95 0,74.6289562 0,49.4998426 C0,24.3709389 20.1471165,4 45,4 C69.8528835,4 90,24.3709389 90,49.4998426" id="Fill-5-Copy" fill="#FFFFFE"></path><path d="M82,48.4997949 C82,68.6583389 65.4343874,85 44.9994802,85 C24.564573,85 8,68.6583389 8,48.4997949 C8,28.3415586 24.564573,12 44.9994802,12 C65.4343874,12 82,28.3415586 82,48.4997949" id="Fill-6-Copy" fill="#E05A60"></path><path d="M73,48.9999482 C73,64.4639456 60.4640151,77 45,77 C29.5359849,77 17,64.4639456 17,48.9999482 C17,33.5360544 29.5359849,21 45,21 C60.4640151,21 73,33.5360544 73,48.9999482" id="Fill-7-Copy" fill="#FFFFFE"></path><path d="M64,48.9999475 C64,59.4937983 55.4938688,68 45,68 C34.5071807,68 26,59.4937983 26,48.9999475 C26,38.5066215 34.5071807,30 45,30 C55.4938688,30 64,38.5066215 64,48.9999475" id="Fill-8-Copy" fill="#E05959"></path><path d="M55,48.9999452 C55,54.5232141 50.7471233,59 45.5,59 C40.2539178,59 36,54.5232141 36,48.9999452 C36,43.4771147 40.2539178,39 45.5,39 C50.7471233,39 55,43.4771147 55,48.9999452" id="Fill-9-Copy" fill="#FFFFFE"></path><polygon id="Fill-656-Copy" fill="#FFC761" points="84.4227103 44.9639561 65.056168 44.9639561 41.1023622 67.3980973 23.4410554 67.3980973 4 93.9273458 10.0278492 98 26.5200718 73.5873917 43.6734908 73.5873917 67.6272966 51.154114 86.975853 51.1705221 97 41.7825188 92.9266197 37"></polygon><polyline id="Fill-657-Copy" fill="#FFC761" points="99.4534687 47 90 35.9908448 102 34 99.4534687 47"></polyline><g id="Group-35-Copy" transform="translate(44.000000, 0.000000)"><path d="M25.1167155,35.2329545 C24.8261407,34.9986815 24.7498359,34.7837198 24.4037667,34.672843 C24.1509589,34.592079 23.879653,34.2854701 23.6607585,34.1244329 C23.4896508,33.9988272 22.7212076,33.5761865 22.9154379,33.2534575 C22.9370191,33.2172896 22.9639955,33.1975691 23.0056163,33.1879952 C22.9023351,33.0418507 23.1520599,32.8956244 23.2414675,32.844973 C23.1536014,32.6880272 23.384828,32.4967137 23.5042951,32.4778115 C23.3378119,32.2502483 24.056156,31.6997925 24.194892,31.9932271 C24.4538658,31.9125448 24.4214941,32.0145841 24.5771867,32.1669476 C24.6164952,32.1492728 25.7217586,33.3909283 25.7942096,33.5153066 C25.9051984,33.7029378 25.963005,33.9237911 26.1533816,34.0301673 L25.1167155,35.2329545" id="Fill-479" fill="#F4B1B1"></path><g id="Group-482" transform="translate(24.845713, 33.238636)"><mask id="mask-2" fill="white"><use xlink:href="#path-1"></use></mask><g id="Clip-481"></g><path d="M16.3149135,3.29561409 C17.4716296,3.3959816 19.0497977,4.90149437 18.9123497,6.17435644 C18.8759177,6.51062613 19.0497977,6.88539998 18.5380937,7.21824707 C16.7305695,8.39561881 10.4650929,9.18538198 8.24936474,8.12951226 C6.43190457,7.26359642 1.01430009,3.21715116 0.10846801,1.3984712 C-0.170568015,0.838706233 0.56552405,0.218874775 0.821376073,0.0657137714 C1.32480012,-0.410283247 5.31079247,3.25445741 9.56754085,4.39067248 C13.0766052,5.3281205 15.2749454,3.20534322 16.3149135,3.29561409" id="Fill-480" fill="url(#linearGradient-3)" mask="url(#mask-2)"></path></g><g id="Group-485" transform="translate(0.000000, 8.642045)" fill="url(#linearGradient-4)"><path d="M6.39739617,42.7065261 L4.52785625,40.4103244 L51.5624539,4.47103026 C51.7606761,2.97268392 50.6108227,0.425594827 48.0199513,0.0822445597 L3.64942747,39.3369914 L1.90819737,36.995929 L0.35531951,42.0610309 L0.0455287818,43.1160873 L1.14985341,43.0770419 L6.39739617,42.7065261 Z" id="Fill-483"></path></g><path d="M40.2852901,87.0852273 C40.8053303,87.0852273 41.3253705,87.0852273 41.8454106,87.0852273 C40.7646386,92.0721106 39.6854942,97.0614417 38.6063498,102.045877 C37.5280192,107.029497 36.4488749,112.01638 35.372172,117 C34.8521318,117 34.3329055,117 33.814493,117 C34.2385007,115.03772 34.6641361,113.072177 35.0897714,111.106633 C33.416528,111.106633 31.7432845,111.106633 30.0741102,111.106633 C28.4033082,111.106633 26.7300647,111.106633 25.0608904,111.106633 C24.6376965,113.072177 24.2112473,115.03772 23.7864257,117 C23.2663856,117 22.7463454,117 22.2303744,117 C23.3095188,112.01638 24.389477,107.029497 25.4669937,102.045877 C26.5445104,97.0622576 27.6244687,92.0721106 28.7011716,87.0852273 C29.2195841,87.0852273 29.7371827,87.0852273 30.2564091,87.0852273 C29.8332152,89.0507708 29.4075798,91.0163143 28.9819444,92.9818578 C30.6511187,92.9818578 32.3243622,92.9818578 33.9951642,92.9818578 C35.6643385,92.9818578 37.337582,92.9818578 39.0108255,92.9818578 C39.4364609,91.0163143 39.8620962,89.0507708 40.2852901,87.0852273 Z M28.6971024,94.2946679 C28.1852006,96.6608266 27.6757402,99.0245375 27.1638384,101.387432 C28.8330127,101.387432 30.5062562,101.387432 32.1770582,101.387432 C33.8462325,101.387432 35.519476,101.387432 37.1927195,101.387432 C37.7021798,99.0245375 38.2140816,96.6608266 38.7259834,94.2946679 C37.0535538,94.2946679 35.3803103,94.2946679 33.711136,94.2946679 C32.0395202,94.2946679 30.3670905,94.2946679 28.6971024,94.2946679 Z M26.8789964,102.701058 C26.3670946,105.067217 25.8576342,107.430112 25.3449186,109.793823 C27.0149067,109.793823 28.6873364,109.793823 30.3565107,109.793823 C32.0281265,109.793823 33.70137,109.793823 35.372172,109.793823 C35.8840738,107.430112 36.3959756,105.067217 36.9078774,102.701058 C35.234634,102.701058 33.5622043,102.701058 31.89303,102.701058 C30.2214142,102.701058 28.5481707,102.701058 26.8789964,102.701058 L26.8789964,102.701058 Z" id="Fill-518" fill="#5591C8"></path><polygon id="Fill-519" fill="#7AACDB" points="28.7687198 86.4204545 50.3452597 86.4204545 50.3452597 85.0909091 28.7687198 85.0909091"></polygon><g id="Group-523" transform="translate(30.730223, 39.886364)"><mask id="mask-6" fill="white"><use xlink:href="#path-5"></use></mask><g id="Clip-522"></g><path d="M0.951386611,13.0985156 C-1.39630955,26.5186151 2.61963971,38.5883949 4.08414305,43.1130043 C3.42881731,43.4703196 0.580478894,44.2198509 0.192938544,44.5896307 C-0.0856580603,44.8563707 -0.550540154,45.9308097 3.27413382,45.8302628 C5.99190606,45.7587997 7.30422081,45.9923011 7.59529189,45.5510582 C7.84561302,45.1737997 7.69342442,42.7955753 7.70839379,42.7955753 C6.51333911,30.7498935 6.39358415,29.9987003 7.0439201,22.2823509 C7.58448068,24.6946449 9.70597302,34.3031037 15.4891395,42.0767898 C15.6030731,42.2296875 15.9007972,43.3689418 15.7128485,43.8658594 C15.6396649,44.0586435 15.1423491,44.2830043 14.9602218,44.5181676 C14.6849517,44.8729901 14.9128188,45.1347443 15.1573185,45.3034304 C15.9190931,45.8286009 17.6488869,45.4422017 17.9166723,45.4397088 C19.2913595,45.2577273 18.4963196,42.9800497 18.8722171,41.9081037 C19.0293955,41.461044 17.9748866,40.7364418 18.0580497,40.6101349 C12.5493216,21.936669 14.8645842,21.7214489 13.0665965,12.6298509 L13.0649333,12.6306818 C12.5950614,-6.1790625 2.59385913,-1.33203835 3.49451621,10.0555185 C3.59597527,11.3426847 1.40462586,11.3244034 0.951386611,13.0985156" id="Fill-521" fill="url(#linearGradient-7)" mask="url(#mask-6)"></path></g><path d="M37.9224034,62.6475217 C38.2685729,64.3955397 39.4437665,69.9198807 41.8454106,75.7840909 C40.4094756,70.4099636 39.3174815,65.3203192 38.2433159,59.8295455 L37.9224034,62.6475217" id="Fill-524" fill="#041846"></path><path d="M38.9405697,27.4984089 C38.9405697,27.4984089 36.3888851,26.5089588 35.2121888,28.5254717 C34.9176067,29.0301082 34.4590053,29.1088915 34.4679814,29.7935436 C34.4712455,30.0215068 34.4671654,30.5334286 34.3953559,30.9699557 C34.3349707,31.3349849 34.0640531,31.8752856 34.0061159,32.170257 C33.9343064,32.5374887 34.4614533,32.734108 34.4728775,32.8954019 C34.5626394,34.1767737 34.3839317,34.9173365 34.9518794,35.1361507 C36.385621,35.3449687 38.6541478,35.311507 39.3126734,34.0497886 C39.970383,32.7884939 40.5660753,30.9643646 40.5366987,29.7453418 C40.5081381,28.5262342 39.6105195,27.8502229 38.9405697,27.4984089" id="Fill-525" fill="#F4B1B1"></path><path d="M36.032505,34.4521936 C36.032505,34.4521936 36.1320318,35.1757107 35.9669436,35.5319526 C35.8018554,35.8883711 39.0736031,35.8977273 39.0736031,35.8977273 C39.0736031,35.8977273 39.339008,33.9593158 39.8429615,32.3215386 C40.3469149,30.6837614 36.032505,34.4521936 36.032505,34.4521936" id="Fill-526" fill="#F4B1B1"></path><path d="M38.984109,34.5681818 C38.341738,34.3743904 37.7342693,34.1741079 37.1982676,33.5679651 C37.0079662,33.3523946 36.7029854,31.5005717 36.5974471,31.4623942 C36.191914,31.316773 35.9991196,32.7487287 35.9991196,32.7487287 C35.9384558,32.6737402 35.7240552,32.6122462 35.6758565,32.3749819 C35.6542503,32.2696735 35.790536,31.6788188 35.7024489,31.5289272 C35.6367991,31.4191776 35.1963635,31.0284346 35.0999663,30.8817885 C34.3196476,29.6898302 33.4263114,28.4006772 34.4816946,27.4798049 C34.5249071,27.4423106 34.8157608,27.2302418 35.151489,27.2257151 C35.6151928,27.2195657 35.9816684,27.0482367 36.1678147,26.9579601 C38.7273268,25.7140735 43.7416436,27.6139813 41.0965375,32.9284277 C40.7267378,33.6728465 39.5915776,34.5040402 38.984109,34.5681818" id="Fill-527" fill="#041948"></path><path d="M35.9608998,35.7426498 C35.9608998,35.7426498 35.9720537,34.8813558 36.250106,34.798743 C36.528955,34.7162419 39.5046723,34.4451827 39.8464616,34.6332942 L39.883907,35.7292532 C39.883907,35.7292532 39.0083211,36.0992245 35.9608998,35.7426498" id="Fill-528" fill="#DBDCDC"></path><path d="M36.0720305,31.3679874 C36.1460258,31.1176197 36.9005538,30.0926655 37.1998985,30.8593937 C37.4992432,31.6259392 36.7480786,32.6567414 36.3287718,32.5685644 C35.909465,32.4804789 35.8859211,32.0031355 36.0720305,31.3679874" id="Fill-529" fill="#F4B1B1"></path><path d="M18.7971866,36.2532217 C18.7971866,36.2532217 19.6430208,37.5435488 19.8162737,37.5232442 C20.0164954,37.5009746 19.9739993,38.0126024 20.5329854,37.8653937 C20.8476194,37.7825377 22.2303744,37.3338706 22.2303744,37.3338706 L21.719605,36.545674 C21.6689366,36.300299 21.3788196,36.0782579 21.2022977,35.5870166 C21.0993266,35.3021785 21.1083161,34.8037324 21.0355825,34.4760744 C21.0020761,34.3275558 20.8075751,34.3278015 20.6776353,34.4677233 C20.5403405,34.6157507 20.54933,35.015703 20.4251109,35.0545929 C20.2363305,35.1139513 19.417465,33.8698008 19.177199,33.9041058 C17.9121253,34.6986068 18.2496417,35.25461 18.7971866,36.2532217" id="Fill-530" fill="#F4B1B1"></path><g id="Group-533" transform="translate(19.615036, 35.897727)"><mask id="mask-9" fill="white"><use xlink:href="#path-8"></use></mask><g id="Clip-532"></g><path d="M14.083596,4.45267663 C12.5944878,6.08606658 7.67356563,8.32830163 5.04351619,6.69650136 C3.66882907,5.56703804 -0.90065708,1.62941576 0.198602242,0.741264946 C1.29786156,-0.146806386 2.0603961,0.109210598 2.0603961,0.109210598 C2.0603961,0.109210598 7.06876868,2.96553668 7.50438595,3.43766984 C7.8329378,3.79296196 13.099575,-0.633087636 14.822429,0.115966712 C15.1893937,0.275252038 15.1280967,4.46618886 14.083596,4.45267663" id="Fill-531" fill="url(#linearGradient-10)" mask="url(#mask-9)"></path></g><g id="Group-536" transform="translate(31.384058, 35.232955)"><mask id="mask-12" fill="white"><use xlink:href="#path-11"></use></mask><g id="Clip-535"></g><path d="M4.1446731,0.0554759358 L8.50463319,0.0554759358 C9.78200262,0.0554759358 11.4070207,0.427957219 12.0895601,1.77531337 C13.6850759,4.92609626 12.7473815,11.9385882 12.6923637,19.6902032 C10.923821,21.7682567 2.95182375,21.5563636 0.110035569,19.8754011 L0.0749517645,2.58334332 C0.276683641,2.26099893 1.4519911,0.0554759358 4.1446731,0.0554759358" id="Fill-534" fill="url(#linearGradient-13)" mask="url(#mask-12)"></path></g><g id="Group-574" transform="translate(36.614734, 0.000000)"><mask id="mask-15" fill="white"><use xlink:href="#path-14"></use></mask><g id="Clip-573"></g><path d="M0,20.5612981 L13.3916718,8.99759782 C12.6682723,7.13356711 15.5351087,0.796538659 13.7889143,0.146316477 C12.9141445,-0.179124341 11.3920785,0.630850705 9.79223663,1.88414407 C3.66383028,6.68555018 0.870588294,12.941713 0,20.5612981" id="Fill-572" fill="url(#linearGradient-16)" mask="url(#mask-15)"></path></g><g id="Group-577" transform="translate(37.922403, 11.301136)"><mask id="mask-18" fill="white"><use xlink:href="#path-17"></use></mask><g id="Clip-576"></g><path d="M0.0800293478,11.1680341 L13.5241514,0.0433628788 C15.1999174,1.08976439 21.805168,-0.599881061 22.1341775,1.23818598 C22.2990865,2.15826591 21.2578966,3.51272803 19.7753327,4.86459508 C14.0964825,10.0436129 7.58257861,11.6749947 0.0800293478,11.1680341" id="Fill-575" fill="url(#linearGradient-19)" mask="url(#mask-18)"></path></g></g><g id="Group-36-Copy" transform="translate(6.000000, 50.000000)"><g id="Group-539" transform="translate(2.000000, 17.808511)"><mask id="mask-21" fill="white"><use xlink:href="#path-20"></use></mask><g id="Clip-538"></g><path d="M16.2786787,12.7699569 C17.4970571,17.9467905 15.8565766,30.1495012 15.246967,39.7210685 L15.341982,39.7121163 C15.341982,39.7121163 15.4184985,40.5381635 16.0735135,40.8840453 C16.7293694,41.230741 17.8712312,41.5001219 18.2588589,41.8590251 C18.5388589,42.1178261 19.6084084,43.584365 15.7783784,43.4867043 C13.0574174,43.4175279 12.4091291,43.2336002 12.1173574,42.8063344 C12.076997,42.7469241 9.8554955,22.6882199 9.57213213,21.0393809 C9.08612613,23.1407147 3.5845045,41.0687869 3.58618619,41.0801806 C3.63159159,41.3975781 4.06714715,42.239902 4.55147147,42.7640147 C4.7003003,43.2775475 5.05513514,44.1825371 2.41741742,44.1609563 C-0.221141141,44.1385898 0.321201201,43.493215 0.0386786787,43.0789707 C1.20912913,32.4209275 3.09093093,15.2480984 3.6812012,12.4118675 L3.84600601,12.2645625 C4.31603604,-5.97765174 14.3296096,-1.27691431 13.4282282,9.76688884 C13.3264865,11.0153188 15.8254655,11.0495 16.2786787,12.7699569" id="Fill-537" fill="url(#linearGradient-22)" mask="url(#mask-21)"></path></g><g id="Group-542" transform="translate(13.333333, 12.531915)"><mask id="mask-24" fill="white"><use xlink:href="#path-23"></use></mask><g id="Clip-541"></g><path d="M0.339166667,4.06667234 C1.48083333,6.44588936 3.30333333,9.39418723 6.57,9.85641702 C9.4925,10.2695745 8.545,1.78876596 8.23166667,1.03131064 C7.89166667,0.208161702 6.7325,0.334008511 6.27666667,0.934748936 C5.9775,2.5596766 5.83,4.76951489 5.4325,4.74339574 C5.055,4.71806809 3.25083333,0.827106383 0.935,0.028493617 C0.66,-0.140093617 -0.464166667,2.9166383 0.339166667,4.06667234" id="Fill-540" fill="url(#linearGradient-25)" mask="url(#mask-24)"></path></g><g id="Group-545" transform="translate(4.000000, 12.531915)"><mask id="mask-27" fill="white"><use xlink:href="#path-26"></use></mask><g id="Clip-544"></g><path d="M0.215785441,2.17989362 C-0.884214559,3.78513298 2.65095785,10.488883 1.73302682,18.6436968 C6.87984674,19.5085638 11.5866667,19.1235372 14.6607663,18.1663298 C14.5174713,14.8437234 14.5073563,3.30776596 10.8078161,0.524361702 C7.1462069,-0.479840426 1.72375479,-0.018962766 0.215785441,2.17989362" id="Fill-543" fill="url(#linearGradient-28)" mask="url(#mask-27)"></path></g><path d="M4.66666667,20.671877 C5.18141131,23.4415477 5.87146132,27.233378 5.44265067,30.9154299 C5.62654942,30.9455173 5.80958884,30.9731653 5.99262825,31 C6.20058853,30.3998776 6.42401692,30.0006092 6.6405706,27.2032906 C6.85798361,24.4043457 5.6454549,19.1276596 5.6454549,19.1276596 L4.66666667,20.671877" id="Fill-546" fill="#146CCB"></path><path d="M5.33333333,25.7234043 C5.39350726,26.4371172 5.42751861,27.1744681 5.42664653,27.9301193 C6.07460637,28.0330587 7.24843401,27.8813184 9.1321396,27.8592055 C11.4736903,27.831755 12.4565311,28.3617021 12.4565311,28.3617021 C12.4565311,28.3617021 12.7486799,27.0913541 12.6440296,26.8625999 C12.5393793,26.6338458 10.5327096,26.2137007 9.48795066,25.9849465 C8.54435369,25.7790678 6.3571622,25.7813553 5.33333333,25.7234043" id="Fill-547" fill="#146CCB"></path><path d="M13.7088322,9.92144979 C13.3290996,10.634433 12.7962349,11.1839722 12.2022942,11.4516536 L12.2226528,12.4873555 L12.3828663,12.6157759 C13.0095578,13.247871 12.3315272,14.5470849 11.6180903,14.5070578 C9.81413939,14.5904476 8.42886798,13.1970032 8.97146949,12.4398233 L9.20692138,12.1929894 L9.25826051,10.7269958 C9.16531898,10.7219924 8.48817352,10.3592465 8.28635763,10.3008736 C8.08542688,10.2416668 7.78889914,9.87641927 7.76854052,9.48949035 C7.74906705,9.10339534 8.38283979,9.22848011 8.38283979,9.22848011 C7.61540828,8.23780867 6.74618366,7.4289271 7.87298909,6.53748958 C9.00067969,5.64605206 11.5906504,5.12569938 11.5906504,5.12569938 L13.1494127,4.61702128 C12.9511374,5.12403158 13.2157995,6.81434389 13.6158907,7.87005942 C13.9752646,8.81736814 14.2186829,8.96413428 13.7088322,9.92144979" id="Fill-548" fill="#F4B1B1"></path><path d="M10,11.212766 C10,11.212766 10.79079,12.3728715 11.4402541,12.4781504 C12.0905121,12.5834293 11.7578404,12.5059984 12,12.4808673 L11.9817388,11.6372776 C11.534736,11.6990865 11.0964669,11.6685217 10,11.212766" id="Fill-549" fill="#E98385"></path><g id="Group-552" transform="translate(0.000000, 13.851064)"><mask id="mask-30" fill="white"><use xlink:href="#path-29"></use></mask><g id="Clip-551"></g><path d="M6.86189744,2.74904124 C6.77384615,1.00971894 5.46528205,-0.950275808 4.14625641,0.524402417 C1.86476923,3.07638561 -0.438512821,9.08177042 0.185692308,10.8324928 C0.834307692,12.5897294 8.32564103,13.6328343 9.94282051,13.0009456 C10.705641,12.7029157 10.9253333,12.6385868 11.152,12.1573417 C11.283641,11.8780405 11.419641,11.4415813 10.773641,11.1753086 C9.05882051,10.4660625 4.44353846,9.34722879 4.34589744,8.91076963 C4.00851282,6.56480168 6.97,4.91016548 6.86189744,2.74904124" id="Fill-550" fill="url(#linearGradient-31)" mask="url(#mask-30)"></path></g><g id="Group-555" transform="translate(11.333333, 14.510638)"><mask id="mask-33" fill="white"><use xlink:href="#path-32"></use></mask><g id="Clip-554"></g><path d="M3.33076923,11.8493454 L2.2957265,15.1677258 L0.469230769,12.4312847 L0.588888889,1.49878386 L0.0666666667,0.606808511 L0.697435897,0.019895361 L1.34529915,0.557070108 L1.12222222,1.51867922 C1.87948718,3.47422742 2.88205128,9.2878177 3.33076923,11.8493454" id="Fill-553" fill="url(#linearGradient-34)" mask="url(#mask-33)"></path></g><path d="M10.3317118,25.2842277 L11.0577777,25.5210537 L12.6836467,25.235648 C12.8651632,25.1532361 14.0476134,24.8765053 13.7329848,25.2686128 C13.5125719,25.5436086 12.8323173,25.9964407 12.8487403,26.026803 C13.06656,26.4249829 15.2680956,27.0209516 15.290569,27.0573864 C15.5956896,27.5605332 14.1764036,27.2638501 13.9326529,27.2239453 C13.8695543,27.2135354 14.8653019,27.6472826 14.8194906,27.6880548 C14.7650356,27.739237 14.6250086,27.8780361 14.3579201,27.8277214 C14.0303261,27.7661293 13.486641,27.5709431 13.4209493,27.6177878 C13.3535289,27.667235 14.3224812,28.0801623 14.2559251,28.1209346 C14.2040633,28.1521644 14.1020683,28.2206964 13.897214,28.1764542 C13.5592476,28.1035847 13.0682888,27.890181 12.9853098,27.9240133 C12.9006021,27.9578456 13.6119738,28.2120215 13.5315879,28.2371788 C13.4684894,28.2562637 13.4520664,28.3699055 13.3889679,28.3612305 C11.6878992,28.135682 11.7155588,27.2595126 9.76123145,27.0539164 C8.67386133,26.9394071 9.95744211,25.4533891 10.3317118,25.2842277" id="Fill-556" fill="#F4B1B1"></path><path d="M19.9711696,13.1793787 C19.8532253,12.9438441 19.2877616,11.9492775 19.3362777,11.7067003 C19.3622087,11.5830642 19.4065424,11.6018443 19.4776436,11.621407 C19.5395435,11.6386222 19.700985,11.6519248 19.7495012,11.729393 C19.8507158,11.8921545 19.9954277,11.8788519 20.0364154,11.9766652 C20.3233297,11.4148251 20.2354988,10.7778643 20.278996,10.1581187 C20.2957257,9.90693389 21.0092473,9.73869486 21.0954052,10.1088207 C21.269394,10.8623751 22.45302,11.3068391 21.8105997,12.1409917 C21.3036899,12.7982977 21.5387421,12.988447 21.3154007,13.7122661 C21.1062795,13.7052235 20.3283486,14.0683068 19.9184711,13.647318 L19.9711696,13.1793787" id="Fill-557" fill="#F4B1B1"></path><path d="M19.3333333,10.5848241 C20.1877396,11.4791456 20.4683021,12.5974337 20.9239356,12.9758599 C21.0391533,13.0723972 21.1386594,13.1326365 21.2187132,13.1681622 C21.3324346,13.2191339 21.4543857,13.1851528 21.5254616,13.0801202 C21.6511536,12.893224 21.8337062,12.626781 21.9661317,12.4290727 C22.0701269,12.274613 21.9115155,12.1309655 21.8015351,12.031339 C21.6840729,11.9247618 21.5800777,11.7679852 21.5254616,11.6421006 C21.2838037,11.0883626 21.2680922,10.9647949 21.0571093,10.6087653 C20.7765468,10.1361187 20.5356371,9.89361702 20.5356371,9.89361702 L19.4006683,10.4612563 L19.3333333,10.5848241" id="Fill-558" fill="#000446"></path><path d="M20.9112939,10.4266609 C21.103989,10.8394558 21.1183387,10.9830366 21.3383665,11.6273556 C21.3889319,11.7727312 21.4839129,11.9548994 21.5911935,12.0796353 C21.691641,12.1953973 21.836504,12.3614127 21.7415231,12.5417861 C21.6390256,12.7356202 21.503729,12.9868867 21.3950818,13.1914894 C21.4620467,13.1861051 21.5242285,13.1421334 21.5665941,13.0622666 C21.6813913,12.8451006 21.8481204,12.5355044 21.9690674,12.3057751 C22.0640483,12.126299 21.9191853,11.9593863 21.8187378,11.8436243 C21.7114572,11.7197858 21.6164762,11.5376176 21.5665941,11.3913446 C21.345883,10.747923 21.3315333,10.6043422 21.1388382,10.1906499 C21.0875895,10.0811695 21.0377074,9.98156028 20.9905586,9.89361702 L20.6666667,9.95463888 C20.7390982,10.0793747 20.8231461,10.2373136 20.9112939,10.4266609" id="Fill-559" fill="#000446"></path><g id="Group-562" transform="translate(18.000000, 2.638298)"><mask id="mask-36" fill="white"><use xlink:href="#path-35"></use></mask><g id="Clip-561"></g><path d="M5.39520249,0.0622069253 C5.19757009,0.604415937 4.03121495,2.05282854 3.21395639,2.53283062 C2.40965732,3.005267 1.29919003,3.48863162 0.75894081,3.71560284 C0.558878505,3.79882562 0.436573209,3.84758239 0.436573209,3.84758239 C-0.405794393,4.98496037 0.140124611,6.99155403 1.02785047,7.97509595 L4.0741433,7.52115353 C5.80666667,7.26223821 7.07264798,7.7422403 8.62373832,8.49544848 L8.40666667,4.25444931 L6.50323988,0.338775553 L5.39520249,0.0622069253" id="Fill-560" fill="url(#linearGradient-37)" mask="url(#mask-36)"></path></g><path d="M24.9155074,0.0506700767 C25.86908,-0.203791107 26.8278164,0.545903077 27.4672608,1.27868687 C28.3950146,2.34243125 29.0766297,3.79511472 29.4897297,5.17451981 C29.8744291,6.46051509 30.1024947,7.93735627 29.9544672,9.27005646 C29.8511922,10.1920756 29.5258759,11.2864198 28.7134459,11.7075691 C28.6187771,11.7566898 28.5198052,11.7945369 28.4173909,11.8219156 C27.4638183,12.0755715 26.505082,11.3266826 25.8656375,10.5938988 C24.9378837,9.53015444 24.2562686,8.07747097 23.8440292,6.69806588 C23.4593298,5.4120706 23.2312642,3.93522942 23.3784311,2.60172397 C23.4817061,1.68051007 23.8070224,0.585360666 24.6203131,0.165016558 C24.7141212,0.115895887 24.8130931,0.0772435548 24.9155074,0.0506700767" id="Fill-563" fill="#1B83E1"></path><path d="M25.3683117,0.701899533 C26.7580075,0.324703888 28.6156172,2.51061081 29.5172075,5.5838414 C30.41792,8.65624117 30.0219928,11.4536371 28.6322971,11.8300019 C27.2417234,12.2071975 25.3841137,10.0221214 24.4834012,6.94889084 C23.5818109,3.87566025 23.9777381,1.07909518 25.3683117,0.701899533" id="Fill-564" fill="#1A47B6"></path><path d="M18.6023853,6.59574468 C17.8472738,7.73433278 18.5273057,9.79787369 19.3333333,10.5107915 C16.5493449,10.9532646 15.5689943,7.81114547 18.230439,6.73736808 L18.6023853,6.59574468" id="Fill-565" fill="#000446"></path><path d="M22,12.0476767 C22,12.0476767 21.4297942,12.6686148 21.310074,12.5042073 C21.1903538,12.3405054 21.54184,11.796479 21.54184,11.796479 L20.7552169,12.1013031 C20.7552169,12.1013031 20.5618227,12.0349757 20.6915196,11.8148249 C20.8212165,11.5946741 21.108238,11.3039621 21.108238,11.3039621 L20.2548479,11.5332859 C20.2548479,11.5332859 20.1190115,11.4274442 20.2264527,11.3413595 C20.3331265,11.2552749 20.7644261,11.0337129 20.7644261,11.0337129 L20.01464,11.2009429 C20.01464,11.2009429 19.9417335,11.0520588 20.1213138,10.913759 C20.3008941,10.7754591 20.6094038,10.6096404 20.6094038,10.6096404 L21.0360989,10.5531915 L21.1918887,10.6124629 C21.1918887,10.6124629 21.4328639,10.9081141 21.4413057,10.9560957 C21.4489801,11.0040772 21.8257918,11.5819731 21.8257918,11.5819731 L22,12.0476767" id="Fill-566" fill="#F4B1B1"></path><g id="Group-569" transform="translate(24.000000, 4.617021)"><mask id="mask-39" fill="white"><use xlink:href="#path-38"></use></mask><g id="Clip-568"></g><path d="M0.0852173913,0.134209066 L3.07913043,0.0585013876 C3.82695652,0.343265495 4.12173913,1.96839963 3.84782609,2.35812211 L1.2826087,3.89722479 C0.711304348,3.06185939 0.279130435,1.60792784 0.0852173913,0.134209066" id="Fill-567" fill="url(#linearGradient-40)" mask="url(#mask-39)"></path></g><path d="M27.6174593,5.27659574 C28.2687376,5.28683668 28.948378,6.72934548 28.5460561,7.23188277 C27.9683092,7.50326754 26.792857,5.32926341 27.6174593,5.27659574" id="Fill-570" fill="#FFFFFF"></path><path d="M12.952464,6.83655467 C11.6896343,7.4577628 10.2353377,6.72145566 9.50010533,7.55163788 C9.13589298,7.96387192 9.17248441,8.55650937 9.5800959,9.47321993 C9.7009327,9.74341689 9.86091383,9.94177902 9.38522527,9.73035601 C9.16737863,9.63403202 8.80827206,9.49852538 8.68573332,9.59321677 C8.41257406,9.80545608 8.55043013,10.2503423 8.76827677,10.3931957 C8.86528661,10.4576838 9.04909471,10.5531915 9.04909471,10.5531915 C7.35057168,10.2446282 6.64342107,8.77364651 6.66724804,7.59000421 C6.67575768,7.18919844 6.7217097,6.83165684 6.80170027,6.51493048 C6.7659598,6.40554561 6.74723861,6.28963029 6.74723861,6.16881715 C6.74723861,5.65454498 7.08847495,5.221087 7.55565387,5.08394776 C7.64245214,4.54763535 8.10537626,4.13785022 8.66360827,4.13785022 C8.83124807,4.13785022 8.99037823,4.17540025 9.13334009,4.24152096 L9.18950368,4.22764378 C9.3937349,3.8913261 9.77581749,3.66520961 10.2140637,3.66520961 C10.5212615,3.66520961 10.8012284,3.77622709 11.0114164,3.95907942 C11.3203161,3.55500843 11.788346,3.29787234 12.3125395,3.29787234 C13.2443445,3.29787234 14,4.11254477 14,5.11823257 C14,5.74760375 13.7038647,6.30187487 13.2537051,6.62921319 C13.1635029,6.70512956 13.0630893,6.77533179 12.952464,6.83655467" id="Fill-571" fill="#041948"></path></g></g><g id="Group-38"><path d="M117.899531,8.09917874 C101.428357,22.7387291 73.6549921,-4.46873921 50.6658601,4.92869252 C29.5541451,13.5591319 27.5189026,41.9933577 29.5619972,51.2585828 C33.6882315,69.9751334 20.8470448,72.7601871 8.93475155,80.8012364 C-9.75069054,93.4151954 3.98955198,137.744774 21.642454,137.956692 C39.2945708,138.16861 146.235886,137.533932 146.235886,137.533932 C146.235886,137.533932 171.879784,137.623217 182.543607,118.233262 C194.019328,97.3674114 186.744435,66.4897823 166.805812,43.1884889 C159.086495,34.1674536 149.780286,-20.2359728 117.899531,8.09917874 Z" id="Fill-171" fill="url(#linearGradient-41)"></path><path d="M106,122 L152,122 C157.522847,122 162,117.522847 162,112 L162,31 C162,25.4771525 157.522847,21 152,21 L106,21 C100.477153,21 96,25.4771525 96,31 L96,112 C96,117.522847 100.477153,122 106,122 Z" id="Fill-203" fill="#739AF0"></path><path d="M112,86 L146,86 C151.522847,86 156,81.5228475 156,76 L156,36 C156,30.4771525 151.522847,26 146,26 L112,26 C106.477153,26 102,30.4771525 102,36 L102,76 C102,81.5228475 106.477153,86 112,86 Z" id="Fill-204" fill="#F3F9FF"></path><path d="M104,107.000451 C104,101.47671 108.47741,97 114,97 C119.52259,97 124,101.47671 124,107.000451 C124,112.52329 119.52259,117 114,117 C108.47741,117 104,112.52329 104,107.000451" id="Fill-205" fill="#F3F9FF"></path><path d="M122,107.000427 C122,102.582013 118.418649,99 114,99 C109.581351,99 106,102.582013 106,107.000427 C106,111.417987 109.581351,115 114,115 C115.825669,115 117.507095,114.389769 118.852235,113.360484 L114,107.000427 L121.475942,109.853577 C121.814787,108.966821 122,108.005814 122,107.000427" id="Fill-206" fill="#FB7369"></path><path d="M138,107.000451 C138,101.47671 142.47741,97 148,97 C153.52259,97 158,101.47671 158,107.000451 C158,112.52329 153.52259,117 148,117 C142.47741,117 138,112.52329 138,107.000451" id="Fill-207" fill="#F3F9FF"></path><path d="M148.000427,98 C143.582013,98 140,101.684118 140,106.228478 C140,108.477397 140.876514,110.514766 142.299248,112 L148.000427,106.228478 L155.475969,109.162957 C155.813944,108.250925 156,107.262524 156,106.228478 C156,101.684118 152.41884,98 148.000427,98" id="Fill-208" fill="#FB7369"></path><path d="M145.75,102 L142.25,102 C142.113158,102 142,102.224561 142,102.5 C142,102.775439 142.113158,103 142.25,103 L145.75,103 C145.887719,103 146,102.775439 146,102.5 C146,102.224561 145.887719,102 145.75,102" id="Fill-209" fill="#A6C7F9"></path><path d="M145.75,103 L142.25,103 C142.113158,103 142,103.225919 142,103.500876 C142,103.774081 142.113158,104 142.25,104 L145.75,104 C145.887719,104 146,103.774081 146,103.500876 C146,103.225919 145.887719,103 145.75,103" id="Fill-210" fill="#A6C7F9"></path><path d="M143.743012,104 L142.256988,104 C142.116321,104 142,104.224561 142,104.5 C142,104.775439 142.116321,105 142.256988,105 L143.743012,105 C143.884581,105 144,104.775439 144,104.5 C144,104.224561 143.884581,104 143.743012,104" id="Fill-211" fill="#A6C7F9"></path><path d="M109,84 L112,84 C112.552285,84 113,83.5522847 113,83 L113,50 C113,49.4477153 112.552285,49 112,49 L109,49 C108.447715,49 108,49.4477153 108,50 L108,83 C108,83.5522847 108.447715,84 109,84 Z" id="Fill-215" fill="#A6C7F9"></path><path d="M118,83 L122,83 C122.552285,83 123,82.5522847 123,82 L123,39 C123,38.4477153 122.552285,38 122,38 L118,38 C117.447715,38 117,38.4477153 117,39 L117,82 C117,82.5522847 117.447715,83 118,83 Z" id="Fill-216" fill="#A6C7F9"></path><path d="M129,83 L132,83 C132.552285,83 133,82.5522847 133,82 L133,57 C133,56.4477153 132.552285,56 132,56 L129,56 C128.447715,56 128,56.4477153 128,57 L128,82 C128,82.5522847 128.447715,83 129,83 Z" id="Fill-217" fill="#A6C7F9"></path><path d="M139,83 L142,83 C142.552285,83 143,82.5522847 143,82 L143,45 C143,44.4477153 142.552285,44 142,44 L139,44 C138.447715,44 138,44.4477153 138,45 L138,82 C138,82.5522847 138.447715,83 139,83 Z" id="Fill-218" fill="#A6C7F9"></path><path d="M148,83 L151,83 C151.552285,83 152,82.5522847 152,82 L152,62 C152,61.4477153 151.552285,61 151,61 L148,61 C147.447715,61 147,61.4477153 147,62 L147,82 C147,82.5522847 147.447715,83 148,83 Z" id="Fill-219" fill="#A6C7F9"></path><path d="M40,87 L79,87 C84.5228475,87 89,82.5228475 89,77 L89,69 C89,63.4771525 84.5228475,59 79,59 L50,59 C44.4771525,59 40,63.4771525 40,69 L40,87 L40,87 Z" id="Fill-229" fill="#739AF0"></path><path d="M54,63 C49.0286561,63 45,67.0293464 45,72.0004446 C45,76.9706536 49.0286561,81 54,81 C58.9704545,81 63,76.9706536 63,72.0004446 C63,67.0293464 58.9704545,63 54,63" id="Fill-230" fill="#F3F9FF"></path><path d="M83.0682477,67 L68.9317523,67 C68.4190777,67 68,67.4497738 68,68 C68,68.5502262 68.4190777,69 68.9317523,69 L83.0682477,69 C83.5800791,69 84,68.5502262 84,68 C84,67.4497738 83.5800791,67 83.0682477,67" id="Fill-231" fill="#F3F9FF"></path><path d="M83.0682477,72 L68.9317523,72 C68.4190777,72 68,72.4499774 68,73.0004527 C68,73.5500226 68.4190777,74 68.9317523,74 L83.0682477,74 C83.5800791,74 84,73.5500226 84,73.0004527 C84,72.4499774 83.5800791,72 83.0682477,72" id="Fill-232" fill="#F3F9FF"></path><path d="M83.0682477,76 L68.9317523,76 C68.4190777,76 68,76.4499774 68,76.9995473 C68,77.5500226 68.4190777,78 68.9317523,78 L83.0682477,78 C83.5800791,78 84,77.5500226 84,76.9995473 C84,76.4499774 83.5800791,76 83.0682477,76" id="Fill-233" fill="#F3F9FF"></path><path d="M55,72.1117903 L55,63.9096129 C49.6657527,63.7373493 46,67.6930551 46,72.1117903 L55,72.1117903 Z" id="Fill-234" fill="#3A4ACE"></path><path d="M62,72 L46,72 C46,76.4178718 49.5823215,80 54.0004317,80 C58.4185419,80 62,76.4178718 62,72" id="Fill-235" fill="#3A4ACE"></path><path d="M47,120 L76,120 C81.5228475,120 86,115.522847 86,110 L86,102 C86,96.4771525 81.5228475,92 76,92 L47,92 C41.4771525,92 37,96.4771525 37,102 L37,110 C37,115.522847 41.4771525,120 47,120 Z" id="Fill-241" fill="#739AF0"></path><path d="M41,106 C41,101.029545 45.0295455,97 50,97 C54.9704545,97 59,101.029545 59,106 C59,110.971344 54.9704545,115 50,115 C45.0295455,115 41,110.971344 41,106" id="Fill-242" fill="#F3F9FF"></path><path d="M65.9899868,102 L81.0100132,102 C81.5547299,102 82,101.550023 82,101.000453 C82,100.449977 81.5547299,100 81.0100132,100 L65.9899868,100 C65.446166,100 65,100.449977 65,101.000453 C65,101.550023 65.446166,102 65.9899868,102" id="Fill-243" fill="#F3F9FF"></path><path d="M81.0100132,104 L65.9899868,104 C65.446166,104 65,104.449977 65,104.999547 C65,105.550023 65.446166,106 65.9899868,106 L81.0100132,106 C81.5547299,106 82,105.550023 82,104.999547 C82,104.449977 81.5547299,104 81.0100132,104" id="Fill-244" fill="#F3F9FF"></path><path d="M81.0100132,108 L65.9899868,108 C65.446166,108 65,108.449774 65,109 C65,109.550226 65.446166,110 65.9899868,110 L81.0100132,110 C81.5547299,110 82,109.550226 82,109 C82,108.449774 81.5547299,108 81.0100132,108" id="Fill-245" fill="#F3F9FF"></path><path d="M42.0009131,105 C42,105.037404 42,105.075767 42,105.113171 C42,110.02078 45.7885088,114 50.4609117,114 C52.1309967,114 53.5446426,113.284537 54.8558739,112.406021 L50.4609117,105.113171 L42.0009131,105 Z" id="Fill-246" fill="#3A4ACE"></path><path d="M47,56 L76,56 C81.5228475,56 86,51.5228475 86,46 L86,40 C86,34.4771525 81.5228475,30 76,30 L47,30 C41.4771525,30 37,34.4771525 37,40 L37,46 C37,51.5228475 41.4771525,56 47,56 Z" id="Fill-250" fill="#739AF0"></path><path d="M41,43.0001779 C41,38.0294963 45.0295455,34 50,34 C54.9704545,34 59,38.0294963 59,43.0001779 C59,47.9708594 54.9704545,52 50,52 C45.0295455,52 41,47.9708594 41,43.0001779" id="Fill-251" fill="#F3F9FF"></path><path d="M50.0004317,35 C45.5823215,35 42,38.5700473 42,42.9743796 C42,45.9915077 43.6819384,48.6175298 46.1608116,49.9715966 C47.4429874,47.6056807 50.0004317,42.9743796 50.0004317,42.9743796 L53.7882467,50 C56.2964762,48.6533352 58,46.0123368 58,42.9743796 C58,38.5700473 54.4185419,35 50.0004317,35" id="Fill-252" fill="#3A4ACE"></path><path d="M81.009961,37 L65.989143,37 C65.4452936,37 65,37.4500068 65,38.0000453 C65,38.5499932 65.4452936,39 65.989143,39 L81.009961,39 C81.5547064,39 82,38.5499932 82,38.0000453 C82,37.4500068 81.5547064,37 81.009961,37" id="Fill-253" fill="#F3F9FF"></path><path d="M81.009961,42 L65.989143,42 C65.4452936,42 65,42.4499163 65,42.9999547 C65,43.5499932 65.4452936,44 65.989143,44 L81.009961,44 C81.5547064,44 82,43.5499932 82,42.9999547 C82,42.4499163 81.5547064,42 81.009961,42" id="Fill-254" fill="#F3F9FF"></path><path d="M81.009961,46 L65.989143,46 C65.4452936,46 65,46.4500769 65,47.0000905 C65,47.5500136 65.4452936,48 65.989143,48 L81.009961,48 C81.5547064,48 82,47.5500136 82,47.0000905 C82,46.4500769 81.5547064,46 81.009961,46" id="Fill-255" fill="#F3F9FF"></path><path d="M96,73 C96,73 101.708623,78.972908 101.982294,81.224712 C102.255965,83.4774022 99.266567,87 99.266567,87 L96,73" id="Fill-258" fill="#F2564B"></path><path d="M95,133.961866 C95,133.961866 94.7973188,136.951603 94.1674619,136.994993 C94.0838446,137 90.9718246,137 90.9718246,137 L87,136.979139 C87,136.979139 87.0254488,136.100492 88.187003,135.914416 C89.3476483,135.729174 91.2917519,134.979862 91.9952284,133.570521 C92.7350602,132.088586 95,133.961866 95,133.961866" id="Fill-259" fill="#131732"></path><path d="M103,133.961866 C103,133.961866 102.798525,136.951603 102.169597,136.994993 C102.086103,137 98.9786727,137 98.9786727,137 L95,136.987484 C95,136.987484 95.0381168,136.100492 96.1970505,135.914416 C97.3568917,135.729174 99.2972206,134.979862 99.9996597,133.570521 C100.7384,132.088586 103,133.961866 103,133.961866" id="Fill-260" fill="#131732"></path><path d="M90,100.797602 C90,100.797602 91.0021544,107.200534 94.7407251,118.565718 C98.4801725,129.931778 98.9895791,134.853742 98.9895791,134.853742 C98.9895791,134.853742 100.000501,135 101.068414,135 C101.744408,135 103,134.740765 103,134.740765 C103,134.740765 103.034144,122.320249 101.311281,116.604815 C99.5884167,110.88938 100.939528,96 100.939528,96 L90,100.797602" id="Fill-261" fill="#113673"></path><path d="M89.5828247,118.699347 C91.3083079,130.657682 90.3041037,135.233028 90.3041037,135.233028 C90.3041037,135.233028 92.0694143,135.611175 92.5682292,135.627089 C93.1023505,135.644771 94.8561406,135.868567 94.8561406,135.868567 C94.8561406,135.868567 97.3257725,123.904928 96.6178355,117.919571 C95.9089932,111.933331 100,97.3801629 100,97.3801629 L88.0030931,97 C88.0030931,97 87.8564361,106.740128 89.5828247,118.699347 Z" id="Fill-262" fill="#1C468A"></path><path d="M96,73.6416702 L93.9553656,75 L91,74.4418406 C91.0408357,74.2006817 91.2355176,73.1976992 91.4131054,72.2901576 C91.4245014,72.2364721 91.4349478,72.1827865 91.4453941,72.1308053 C91.5973409,71.3587559 91.7283951,70.6949297 91.7283951,70.6949297 L94.4890788,69.4601619 L95.5175689,69 C95.5147198,69.0161909 95.4377968,69.8572646 95.4273504,69.9799744 C95.2345679,72.1606306 96,73.6416702 96,73.6416702" id="Fill-263" fill="#FFC192"></path><path d="M91.8708917,72.7125909 C91.930786,72.6900901 94.9677041,71.8934606 95.365825,72.009844 C95.7648268,72.1254515 95.7791642,72.870387 95.7791642,72.870387 L90.8446172,73.7425373 C90.8446172,73.485107 90.7328244,73.089106 91.5,72.8051305" id="Fill-264" fill="#F2564B"></path><path d="M88.2686596,98.1937869 C87.9661163,97.8903231 87.9520853,96.4778037 88.0652102,94.5722696 C88.2888292,90.8514202 89.0044099,85.2523758 89.031595,82.3927075 C89.045626,81.0111725 89.2280289,79.5986531 89.4718174,78.3155388 C89.9892104,75.5816304 90.7784538,73.6420455 91,73.6420455 C91.2215462,73.6420455 94.6038569,72.4701611 95.5448105,72.7581328 C100.082083,74.1433131 102.466273,94.6406173 101.847155,97.5750123 C101.228037,100.510319 90.9249023,100.858436 88.2686596,98.1937869 Z" id="Fill-265" fill="#E86B67"></path><path d="M89,95 C89.222776,91.4588031 89.9356592,86.1300954 89.9627418,83.4084996 C89.9767199,82.0936687 90.1584352,80.7493495 90.4013047,79.5281873 L93.4170802,79 C93.4170802,79 96.3655861,90.9566349 89,95" id="Fill-266" fill="#D04D48"></path><path d="M90.0649166,89.5383466 C90.0649166,89.5383466 90.319491,90.1034879 89.784343,90.4819218 C89.2491951,90.8613595 88.9014573,91.4756873 89.0249529,91.9243874 C89.1473653,92.3730875 90.3216576,93.1048603 90.7278934,92.9874153 C91.1352125,92.8689664 91.9639335,92.2777262 91.8751032,92.0408286 C91.7851897,91.8049348 92.4319171,89.9639593 91.4396185,89.255274 C90.4473199,88.5465888 90.0649166,89.5383466 90.0649166,89.5383466" id="Fill-267" fill="#FFC192"></path><path d="M93.6572857,74 C93.6572857,74 90.7671935,74.5558727 88.4650767,78.0437536 C86.1621016,81.5325167 84.6470994,84.1257072 85.0711283,85.3830384 C85.4951573,86.6403695 89.3620611,91 90.0281471,91 C90.6950914,91 91.7706143,90.5023616 91.8315577,89.3809104 C91.8315577,89.3809104 89.1088454,85.1871594 89.6453193,84.558935 C89.8745009,84.2907043 93.1791801,81.5325167 93.6512771,82.7783775 C94.4323831,84.8395183 93.6572857,74 93.6572857,74" id="Fill-268" fill="#E86B67"></path><path d="M91.4114876,70.7293654 C91.4114876,70.7293654 94.7015559,71.8151329 95.3095532,69.6371253 C95.9167857,67.4591176 96.7511569,66.1322481 94.6755535,65.3466443 C92.600715,64.5610405 91.9590675,65.2641195 91.5889157,65.9396902 C91.2187639,66.6144519 90.5709982,70.3911755 91.4114876,70.7293654" id="Fill-270" fill="#FFC192"></path><path d="M92.1818227,68.5377166 C92.7590714,68.4227601 93.2819802,68.337388 93.1982436,69.1361669 C93.1136161,69.9341005 92.3127727,70.8554433 94.0917318,70.9966031 C95.8706909,71.1386083 97.1715389,68.5461719 96,66.0044465 C94.6628808,63.1034845 90.0623782,63.8287057 91.3604906,66.0044465 C91.3604906,66.0044465 91.6045741,68.6526732 92.1818227,68.5377166 Z" id="Fill-271" fill="#163560"></path><polygon id="Fill-272" fill="#FC9490" points="25.2769479 129 26.2985628 134 28.4572119 134.237278 28.3116463 129 25.2769479 128.331346"></polygon><polygon id="Fill-273" fill="#FC9490" points="39.3745688 130.818959 40.40604 133.032732 42.4916432 132.554206 42.4916432 130.29753 39 129.604295"></polygon><path d="M29.4320079,65.2005117 C29.5573813,65.0637327 29.8021578,65.0139125 29.8021578,65.0139125 C29.5019441,64.965904 28.8315804,65.2829414 28.8315804,65.2829414 C24.6550267,63.5736572 23.999162,70.1046266 24.0861558,71.6218768 C24.1740024,73.139127 22.6831681,73.6355169 20.5100297,74.8302948 C16.3641798,77.1120579 16,80.1664863 16,80.1664863 C16.0324094,80.1864144 16.0656718,80.2099657 16.1014927,80.2362346 C16.3070368,79.8657538 16.7309182,79.170989 17.0882749,79.0659138 C17.0746289,79.0994292 16.6660993,80.0224608 16.5134338,80.5514603 C17.7364638,81.539711 20.024741,83.7299862 21.6196266,85.2816576 C21.6128036,84.9782075 21.623891,84.5479425 21.7279424,84.3205815 L21.9249577,85.5805785 C22.7786906,86.4139338 23.3671779,87 23.3671779,87 C23.2614207,85.7735184 28.5885095,79.3023331 31.3680456,77.364782 C32.0443795,76.306783 32.2848917,74.4380743 32.3028022,74.2904255 C32.1859576,75.7723486 31.9480041,76.6038923 31.7339312,77.071296 C34.0878801,74.7714164 32.7173019,66.4804368 31.1863822,65.5564993 C30.6089824,65.2077582 29.9164438,65.1697138 29.4320079,65.2005117 Z" id="Fill-274" fill="#163560"></path><path d="M30.9998961,77.4613531 C31.0137688,77.4678255 29.6360358,78.2315722 28.5990512,77.9292173 C27.6236267,77.645355 26.9863493,76.2972405 27.000222,76.2935419 C27.412935,76.2066264 27.53172,75.600992 27.5230496,73 L27.7103311,73.0397592 L30.8490304,73.7027209 C30.8490304,73.7027209 30.7779328,74.7558776 30.7761987,75.7489332 C30.7735976,76.5820274 30.821285,77.3725884 30.9998961,77.4613531" id="Fill-275" fill="#FFC192"></path><path d="M27,67 C27,67 28.7735849,64.8266234 31,66.8880174 C31,66.8880174 29.7040715,66.6309145 27,67" id="Fill-276" fill="#E37970"></path><path d="M27.2379653,72 C27.2379653,72 26.2627067,70.6467017 26.0285344,69.4893817 C25.8613997,68.663531 26.3407641,65.6020767 29.844165,66.0432293 C29.844165,66.0432293 30.8616665,66.1311373 31.8176404,66.6981031 C32.5780116,67.1497402 33.6763255,68.1231795 32.4485281,70.7950968 L32.1298701,71.6975644 L27.2379653,72" id="Fill-278" fill="#163560"></path><path d="M43,130.894552 L41.3184937,130.944683 L39.4994891,131 C39.4994891,131 35.296599,126.381912 32.9398628,118.979832 C32.8846884,118.807832 32.8268866,118.633238 32.7655817,118.45778 C31.475551,114.74464 28.800905,110.085064 27.3908918,105.867158 C27.166691,105.194713 26.9652605,104.562892 26.7848489,103.963914 C26.7270471,103.772034 26.6701212,103.583611 26.6166983,103.398646 C25.5780178,99.8367626 25.2776237,97.4987635 25,95 L35.1774923,95.0803822 C35.1774923,95.0803822 36.8204642,112.141293 43,130.894552" id="Fill-279" fill="#1C468A"></path><path d="M35.2133344,96.7780427 C35.2133344,96.7780427 30.7336804,99.0651021 25.4085198,97.3814718 C25.3463899,97.3615686 21,96.3645989 21,96.3645989 C21.0891429,96.1628527 21.8815239,92.7910686 21.9679654,92.6056069 C23.0926062,90.1792251 23.9462167,89.116213 24.0794808,88.3707474 C24.3270998,86.9784277 24.3325024,85.5372546 24.2091431,84.1793131 C23.8840868,80.5822609 22.9179222,77.59678 22.9179222,77.59678 C24.3685197,77.2647583 25.7070542,76.7207405 27.2170803,76.1516898 C27.5646474,76.5868463 28.6464768,77.0023978 29.5676197,76.9815899 C30.6283297,76.958068 30.8117525,76.5109666 30.7730338,76.0034348 C31.9030772,76.6358139 32.9496459,77.2330941 32.9496459,77.2330941 C33.9104079,78.9094869 35.8580444,80.537931 35.9994124,83.1090634 C36.0345293,83.7414426 34.4839837,89.4889458 34.4830833,89.6291729 C34.4569707,94.6312105 35.2133344,96.7780427 35.2133344,96.7780427 Z" id="Fill-280" fill="#E7F1FD"></path><path d="M25.4549734,89.8234713 C25.0055172,90.483621 24.1437645,94.4959357 22,95 C23.1050606,92.1408814 23.9438096,90.8866888 24.0747535,90.0080194 C24.3180615,88.3663675 24.3233701,86.6687085 24.2021585,85.0665371 C24.9196958,83.760928 25.4549734,82.8666501 25.4549734,82.8666501 C25.5115978,82.6554756 26.5954243,79.1766059 26.9431335,82.2863794 C27.289958,85.3961528 25.957515,89.0852788 25.4549734,89.8234713" id="Fill-281" fill="#F2564B"></path><path d="M31.5142258,73.9998273 C31.5142258,73.9998273 27.0527514,74.0681958 27.0499595,71.484041 C27.0471676,68.8998862 26.4692419,67.1681736 29.3169915,67.0158591 C32.1656718,66.8626791 32.7203315,67.8483966 32.9464763,68.7103585 C33.1735518,69.5723203 32.6747303,73.9158812 31.5142258,73.9998273" id="Fill-282" fill="#FFC192"></path><path d="M31.1983277,66.4495418 C30.3263284,65.1736479 27.1207104,67 27.1207104,67 C26.851367,68.7663053 26,69.7967028 26,69.7967028 C26,69.7967028 26.7348025,70.2417821 28.4308242,69.8148357 C29.7649158,69.4785536 30.8456562,67.9019197 31.1983277,67.1246794 C31.4382117,67.3332073 31.8312847,67.5333923 31.9827904,68.0056709 C32.1839562,68.632903 32.3905149,69.8585194 32.7743293,69.8148357 C32.7743293,69.8148357 33.4911134,67.916655 32.5559868,66.8064295 C31.9331302,66.0671034 31.4626209,66.2278264 31.1983277,66.4495418 Z" id="Fill-283" fill="#163560"></path><path d="M26.2985628,134 C26.2985628,134 26.4667416,134.873215 26.0324572,135.807147 C26.0324572,135.807147 25.6907775,136.975961 27.2246105,136.997532 C28.7584435,137.019103 29.1352492,136.911249 28.9606838,136.193823 C28.787183,135.477195 28.4572119,134.237278 28.4572119,134.237278 L26.2985628,134" id="Fill-284" fill="#FC9490"></path><path d="M28.9989017,136.997332 C28.9989017,136.997332 28.9979161,136.998221 28.9949595,137 L26.0560388,137 C26.0530821,136.998221 26.0520966,136.997332 26.0520966,136.997332 C25.8914514,136.31703 26.1536086,135.034682 26.1536086,135.034682 C27.762032,136.422855 28.7682821,135 28.7682821,135 C29.0294538,135.593153 28.9989017,136.997332 28.9989017,136.997332" id="Fill-285" fill="#131732"></path><path d="M42.4916432,132.554206 L40.40604,133.03273 L44.0512021,136.03273 L45,135.927303 L45.7125812,136.03273" id="Fill-286" fill="#FC9490"></path><path d="M47,137.03273 L43.6044515,137.03273 C43.305061,136.800014 43.0204097,136.329801 42.6703532,135.71454 C42.4704525,135.361481 42.0227486,135.167021 41.5621478,135.060226 L41.5621478,137.03273 L40.8601923,137.03273 L40.2098241,134.935102 C39.7759382,134.232173 40.1020435,133.588221 40.40604,133.03273 C40.7607026,133.031935 41.7896846,133.253493 43.5970818,135.050663 C44.1912568,135.641218 44.8471522,135.851619 45.4993628,135.834085 C45.5076536,135.838867 45.5168657,135.843649 45.5260777,135.846837 C46.5550597,136.254886 46.8912982,136.756978 47,137.03273" id="Fill-287" fill="#131732"></path><path d="M42.8184386,80.137571 C42.4677836,80.2971229 41.8330979,80.5958395 41.1843861,80.9025336 C40.7925291,81.0869047 40.3962889,81.2748214 40.0535236,81.4388053 C39.4740661,81.7135891 38.785029,81.5629012 38.3686261,81.0709495 C36.8748356,79.3079011 34.7818976,76.4847497 30.7896899,76.006094 C30.7809236,76.0031393 30.7771248,76.0025484 30.7782937,76.0043212 C30.7765404,76.0043212 30.7747871,76.0043212 30.7730338,76.003324 L30.7949498,76.0468684 C31.019369,76.6115048 31.4352993,81.1400887 31.5028004,82.3065903 C31.573808,83.5351399 31.7885842,102.405697 31.7885842,102.405697 C31.7885842,102.405697 31.6456923,103.273482 33.2902645,102.911831 C34.9348366,102.55018 37,101.510638 37,101.510638 C37,101.510638 33.7908245,90.548332 34.2195003,86.5001459 C34.3036575,85.7050456 34.2282667,84.8124414 34.0520625,83.890586 C36.4838553,85.379737 39.3504602,86.0418774 39.3504602,86.0418774 C39.3504602,86.0418774 40.4190815,85.5703129 42.0811864,84.52968 C42.7781133,84.0917987 43.5872498,83.3942024 44.3832367,82.6558317 C45.3449082,81.7650003 47,79.6110497 47,79.6110497 L46.5616812,78.1281035 C46.5616812,78.1281035 43.8029026,79.6881665 42.8184386,80.137571 Z" id="Fill-288" fill="#E86B67"></path><path d="M28.9764922,116.234123 C29.0024832,119.472103 28.8304048,126.917668 28.385869,130 L26.7367846,130 C25.825307,130 25.3700163,129.988093 25.3700163,129.988093 C24.2559881,124.628034 23.4628144,120.194205 22.8847386,116.37276 C22.4115231,113.236845 21.9902896,110.549161 21.6658502,108.234861 C21.3405145,105.905251 21.1137654,103.955829 21.0322074,102.307496 C21.01966,102.048083 21.0106976,101.795475 21.0053202,101.550522 C21,101.304718 20.9990465,101.064867 21.000839,100.832672 L30,100 C29.8870736,105.674756 28.9621523,114.351894 28.9764922,116.234123" id="Fill-290" fill="#1C468A"></path><path d="M23.2105958,103.975336 C21.0593679,103.694707 18,102.434882 18,102.434882 C18,102.434882 18.9195686,99.5994161 20.0624359,95.8740056 C21.4461845,91.3642077 23.1596063,85.5499583 23.9666465,81.8829047 C24.1934617,80.854791 24.3481883,79.9965992 24.4062108,79.3821339 L26.887157,76.2572758 C26.887157,76.4295922 28.8519647,81.8322714 28.9952626,83.302354 C29.1385606,84.7724365 25.9833677,102.062427 25.9833677,102.062427 C25.9833677,102.062427 25.3618237,104.255107 23.2105958,103.975336 Z" id="Fill-292" fill="#E86B67"></path><path d="M34.5558324,85.1000204 C33.5446653,85.2444485 33.1563496,85.8315391 33.0317793,86.6240177 C32.96391,87.0507369 32.7620202,87.4737048 32.5910582,87.7719393 C31.5833275,87.8310235 29.1829869,87.9735759 27.1666665,88.1123769 L27,91 C28.6563553,90.7749173 30.6924352,90.3163114 33.0352157,89.4403646 C33.2147688,89.4066022 33.4398544,89.2846825 33.721641,89.0333401 C35.1735292,87.7353634 35.9974113,85.5614399 36,85.2500755 C36.0025659,84.9387112 35.5678586,84.9546545 34.5558324,85.1000204" id="Fill-293" fill="#FFC192"></path><path d="M20.9828893,78.7759665 C19.8662046,81.2263226 19.5117015,89.3794594 20.9315796,91.7801461 C20.9315796,91.7801461 22.8878769,92.3292687 26.3461479,91.691845 C26.3890614,91.6835668 26.431042,91.6762083 26.4739555,91.6679301 C26.4739555,91.6679301 27.5775796,89.0041796 26.5877697,88.4789719 C26.5877697,88.4789719 23.6715153,88.6288999 23.9756417,87.678743 C24.279768,86.7285862 26.887157,76.2572758 26.887157,76.2572758 C26.0795507,76.4680525 22.0986411,76.3246906 20.9828893,78.7759665 Z" id="Fill-295" fill="#E86B67"></path><path d="M49.2150877,76.0348176 C46.6481954,75.6750868 46,78.2214372 46,78.2214372 L46.4794345,79.970942 C47.2705014,80.0901551 47.9628048,79.8653234 48.6014116,78.8697892 C49.2390594,77.8732094 49.4145325,78.2559463 49.8201341,77.5145243 C50.3705249,76.5095786 49.5094605,76.1352076 49.2150877,76.0348176" id="Fill-296" fill="#FFC192"></path><g id="Group-37" transform="translate(122.000000, 70.000000)"><path d="M11.1823692,27.8654434 C11.1823692,27.8654434 9.56270111,28.3145617 8.53339521,27.9802487 C7.50408931,27.6450173 5.73215196,28.1951642 5.44632817,28.6001973 C5.16135505,29.0061488 5.26598697,29.1668762 5.77468526,29.3064795 C6.28423422,29.4470012 8.08849687,30.2772731 9.27432532,29.7969277 C10.4601538,29.3156639 12.005814,29.2982135 12.005814,29.2982135 L11.1823692,27.8654434" id="Fill-298" fill="#FFC192"></path><path d="M25.2325581,13.5126909 C25.2325581,13.5126909 23.4069282,26.8892727 20.383842,28.0868472 C18.8927829,28.6781551 12.3003725,30.0182771 10.3509855,30.1529052 C10.3509855,30.1529052 9.87302722,29.7534204 9.9891028,28.1273236 C9.9891028,28.1273236 16.8956,25.5130739 17.8771215,24.0919991 C19.3366013,21.9757855 16.9698543,15.4485204 18.8023122,13.4616554 C20.6347701,11.4747904 23.7210151,10.6203857 25.2325581,13.5126909" id="Fill-299" fill="#1C468A"></path><path d="M25.0606826,65.0014885 L25.0606826,62.0779398 L29.4820709,62.0779398 C29.601522,62.0779398 29.6989468,61.9765195 29.6989468,61.8521695 L29.6989468,61.3838725 C29.6989468,61.2595225 29.601522,61.1581022 29.4820709,61.1581022 L25.0606826,61.1581022 L25.0606826,44.5190091 C25.0606826,44.051594 24.6938574,43.6697248 24.2457036,43.6697248 L23.3705754,43.6697248 C22.9224217,43.6697248 22.5555964,44.051594 22.5555964,44.5190091 L22.5555964,61.1581022 L18.1342082,61.1581022 C18.0156042,61.1581022 17.9173323,61.2595225 17.9173323,61.3838725 L17.9173323,61.8521695 C17.9173323,61.9765195 18.0156042,62.0779398 18.1342082,62.0779398 L22.5555964,62.0779398 L22.5555964,65.0014885 C19.3566767,65.2528343 16.7939829,66.451357 16.0755814,68 L31.5406977,68 C30.8222962,66.451357 28.2596023,65.2528343 25.0606826,65.0014885" id="Fill-300" fill="#1F2B79"></path><path d="M24.7267218,41.5674974 C24.1925521,42.5023468 23.5744903,43.3771682 22.9375957,44.2069685 C20.970413,46.7687561 18.8277419,48.880333 18.454508,50.8771503 C18.3808884,51.2752779 18.2627547,51.7043023 18.1086673,52.1553958 C17.9528678,52.6126688 17.7602586,53.0937764 17.5376879,53.5907738 C16.7030477,55.4613555 15.4540836,57.5570426 14.2068316,59.4629349 C12.0521759,62.755653 10.0250704,65.5045872 10.0250704,65.5045872 L6.30813953,65.3412754 C6.4570907,64.9572721 8.07843271,60.4092603 10.246785,54.851364 C11.1276514,52.5958962 12.0641605,50.1956547 12.9672839,47.8819244 C13.0879858,47.5729562 13.2078315,47.2648708 13.3268212,46.9603164 C13.6033226,46.2514551 13.8755437,45.5540698 14.1409164,44.8752225 C16.1774384,39.6571912 17.7987804,35.5020104 17.7987804,35.5020104 C17.7987804,35.5020104 25.9380201,32.3222864 26.7829327,34.3826628 C27.4797502,36.0811051 26.9121949,37.7451195 24.7267218,41.5674974" id="Fill-301" fill="#113673"></path><path d="M9.97093023,64.6326817 C9.97093023,64.6326817 9.78103549,67.7408675 9.18825597,67.7859766 C9.10956086,67.7920489 6.1807339,67.7920489 6.1807339,67.7920489 L2.44186047,67.7694944 C2.44186047,67.7694944 2.46666653,66.8560365 3.55984435,66.6625882 C4.65216679,66.4700073 6.48097288,65.691009 7.14303832,64.2267004 C7.83931902,62.685186 9.97093023,64.6326817 9.97093023,64.6326817" id="Fill-302" fill="#131732"></path><path d="M18.5098408,55.7308869 C18.5098408,55.7308869 21.2027129,57.4397481 20.9414508,57.9944017 C20.9066753,58.0683555 19.4184622,60.6998786 19.4184622,60.6998786 L17.4986763,64.0489297 C17.4986763,64.0489297 16.6908146,63.5752731 17.0733451,62.4976605 C17.454984,61.4200478 17.685929,59.39072 16.7077566,58.0709967 C15.6787584,56.682602 18.5098408,55.7308869 18.5098408,55.7308869" id="Fill-303" fill="#131732"></path><path d="M15.0429422,33.8960245 C15.0429422,33.8960245 4.86186661,40.4467164 3.7255173,44.8490916 C2.58916798,49.2505856 17.2687195,58.6422018 17.2687195,58.6422018 C17.2687195,58.6422018 18.8785477,57.174156 19.162635,56.0982352 C19.162635,56.0982352 12.5279589,47.8874002 11.0879006,46.0466152 C10.2040734,44.9160613 24.1584771,42.1332949 25.863001,39.3945875 C27.5683781,36.654999 26.9575477,34.3507133 26.9575477,34.3507133 L15.0429422,33.8960245" id="Fill-304" fill="#1C468A"></path><path d="M13.3749045,42.4220183 C12.9580022,42.4220183 12.6162791,42.6622225 12.6162791,42.9552716 L12.6162791,45.8887651 C12.6162791,46.1818142 12.9580022,46.4220183 13.3749045,46.4220183 L34.2413746,46.4220183 C34.6582768,46.4220183 35,46.1818142 35,45.8887651 L35,42.9552716 C35,42.6622225 34.6582768,42.4220183 34.2413746,42.4220183 L13.3749045,42.4220183 Z" id="Fill-305" fill="#294595"></path><path d="M19.6685251,11.0942376 C18.6640992,11.743733 18.1104651,12.5685743 18.1104651,12.5685743 C20.5606815,13.2296998 24.622093,10.8598466 24.622093,10.8598466 C24.622093,10.8598466 23.0451787,9.75319944 22.4606919,7.32251196 C22.4315533,7.19994877 22.4041287,7.07470171 22.3809892,6.94587617 C22.3038575,6.53613937 22.2567215,6.09330157 22.2481513,5.6146789 L19.251157,8.41752906 C19.251157,8.41752906 19.2931509,9.14396198 19.527117,10.3937487 C19.5682539,10.6111418 19.6145329,10.8455327 19.6685251,11.0942376" id="Fill-306" fill="#FFC192"></path><path d="M27.201995,22.8949613 C26.8528653,27.7478328 27.4401544,35.1249376 27.0440757,36.4033538 C26.701775,37.5064393 22.674406,36.8535748 21.117407,36.4852922 C20.541215,36.3487281 19.8438092,36.1540142 19.1225021,35.9240578 C17.1122321,35.281766 14.9218486,34.3645839 14.6871037,33.6835255 C14.6777139,33.6562126 14.6700314,33.6306619 14.6649097,33.6051112 C14.6435692,33.5055516 14.6486909,33.4130404 14.6691778,33.3196482 C14.7477106,32.9725111 15.0498913,32.596299 15.0848897,31.7372667 C15.1250097,30.7769127 15.1190344,29.6473954 15.1540327,28.4315344 C15.1557399,28.2949703 15.1574472,28.1460713 15.1719587,28.0095072 L15.1728123,27.9592869 C15.1736659,27.9337362 15.1736659,27.9081855 15.1745195,27.8817537 C15.2078106,26.5266854 15.2769537,25.1020134 15.3563401,23.6887952 C15.4067036,22.800688 15.4656032,21.9222724 15.533039,21.0799803 C15.7080307,18.9055273 15.9444828,16.9724845 16.256907,15.750456 C16.7682241,13.7583822 17.8949996,12.4588206 18.9210483,11.5063961 L19.6628422,10.8500074 C20.4908515,11.0367918 21.4690976,10.9125625 22.3542993,10.4799627 C23.3129121,10.0103584 23.6441158,9.67379394 23.8105713,9.8006664 C26.0231488,11.5627839 27.6151461,16.9619118 27.201995,22.8949613" id="Fill-307" fill="#3A4ACE"></path><path d="M19.1215705,36.1834862 C17.1055211,35.5384935 14.9088404,34.6174545 14.6725646,33.9335321 C14.6640039,33.9061045 14.6562992,33.8804463 14.6511628,33.8547882 C14.6520189,33.7592337 14.653731,33.6636792 14.6554432,33.5681247 C14.7342018,33.2195278 15.0363952,32.8417337 15.0723502,31.9790891 C15.1117295,31.0146967 15.105737,29.8804296 15.1408359,28.6594557 C15.1434042,28.5223173 15.1451163,28.3727922 15.1596695,28.2356538 L15.1596695,28.1852223 C15.1605256,28.1595642 15.1613817,28.133906 15.1613817,28.1073631 L22.7769977,24.5382263 C22.7769977,24.5382263 23.2161626,30.8810973 19.1215705,36.1834862" id="Fill-308" fill="#1C468A"></path><path d="M19.3313953,8.62025838 C19.3313953,8.62025838 19.3725444,9.35000936 19.6018034,10.6055046 C21.3930469,9.9862947 22.2051109,8.25448418 22.4763588,7.52023966 C22.5536182,7.31353679 22.5872093,7.18502153 22.5872093,7.18502153 C22.5872093,7.18502153 22.5175078,7.16884479 22.3982596,7.14188354 C22.1463266,7.08436622 21.6718528,6.97652125 21.1646277,6.86238532 L19.3313953,8.62025838" id="Fill-309" fill="#FF8585"></path><path d="M18.4518667,8.49337029 C18.4518667,8.49337029 22.4808265,8.95631967 22.725058,6.39431572 C22.9701494,3.83143498 23.6546856,2.16551865 21.0919748,1.76131474 C18.530124,1.35711084 17.9367447,2.28476319 17.6512346,3.12035175 C17.3648646,3.9550635 17.410443,8.3066123 18.4518667,8.49337029" id="Fill-310" fill="#FFC192"></path><path d="M22.8769533,6.65443425 C22.8769533,6.65443425 22.6224935,3.1994014 18.9692388,2.84133921 C16.4657655,2.59639618 17.861439,0.356280779 18.1278936,0 C18.1278936,0 20.0453382,0.272554796 22.0107619,0.610130834 C26.1360952,1.31912958 23.2822041,6.11645027 22.8769533,6.65443425" id="Fill-311" fill="#131732"></path><polyline id="Fill-312" fill="#4A75CB" points="3.45930233 31.2835806 3.09553881 31.4006116 0 21.9518934 0.363763517 21.8348624 3.45930233 31.2835806"></polyline><polyline id="Fill-313" fill="#4A75CB" points="13.0103887 30.5688073 2.84883721 30.7877943 2.86170428 31.4006116 13.0232558 31.1816246 13.0103887 30.5688073"></polyline><path d="M11.8544655,29.9449541 C11.8544655,29.9449541 10.2898933,30.5483406 9.23180658,30.3495269 C8.17286866,30.1515814 6.46699118,30.8669633 6.22438885,31.2802179 C5.98263775,31.6934725 6.10266206,31.8323816 6.62361866,31.9070453 C7.14457525,31.9808407 9.02325369,32.5581817 10.1536955,31.9730271 C11.2841372,31.3878725 12.8197674,31.1977406 12.8197674,31.1977406 L11.8544655,29.9449541" id="Fill-314" fill="#FFC192"></path><path d="M24.4186047,14.0321819 C24.4186047,14.0321819 24.0332294,27.5123726 21.1471967,29.0435536 C19.723021,29.7999201 13.2932486,31.8775122 11.3629466,32.2324159 C11.3629466,32.2324159 10.8439746,31.8898109 10.7848837,30.2637546 C10.7848837,30.2637546 17.3919288,26.8860203 18.2183446,25.3636241 C19.4472636,23.0989169 16.3865275,16.8907378 18.0008217,14.7112427 C19.6151159,12.5317476 22.6004897,11.3335084 24.4186047,14.0321819" id="Fill-315" fill="#3A4ACE"></path></g><path d="M174.84572,138 L17.1536231,138 C17.0689334,138 17,137.775641 17,137.5 C17,137.224359 17.0689334,137 17.1536231,137 L174.84572,137 C174.93041,137 175,137.224359 175,137.5 C175,137.775641 174.93041,138 174.84572,138" id="Fill-316" fill="#121A4C"></path></g></g></g></g></svg>