<svg xmlns="http://www.w3.org/2000/svg" xmlns:xlink="http://www.w3.org/1999/xlink" width="584px" height="438px" viewBox="0 0 584 438"><title>Money-back_guarantee_illustration</title><desc>Created with Sketch.</desc><defs><linearGradient x1="60.7354869%" y1="24.0358082%" x2="50%" y2="78.0884511%" id="linearGradient-1"><stop stop-color="#E6EEF6" offset="0%"></stop><stop stop-color="#F3F7FB" offset="100%"></stop></linearGradient></defs><g id="Welcome" stroke="none" strokeWidth="1" fill="none" fillRule="evenodd"><g id="80_HOURS_Complete" transform="translate(-989.000000, -5374.000000)"><g id="Money-back_guarantee_illustration" transform="translate(989.000000, 5374.000000)"><path d="M142.222426,433.998052 C84.5084237,426.613233 30.852327,403.84323 13.2224258,374.124817 C-4.40747528,344.406404 -4.40747528,306.302399 13.2224258,266.071933 C30.852327,225.841466 48.7690607,164.906404 43.5490566,113.906404 C38.3290525,62.9064042 90.6616002,8.52651283e-14 181.515927,8.52651283e-14 C260.467689,0.946940784 304.03341,88.3128875 385.222426,16.4877309 C421.824297,-13.5194471 449.552837,9.69346994 468.408046,86.126482 C467.88538,137.437849 489.905036,175.138102 534.467014,199.22724 C601.30998,235.360949 583.25157,353.373683 574.381093,374.124817 C565.510615,394.875951 534.467014,433.898056 454.137873,433.998052 C373.808733,434.098047 199.936428,441.382871 142.222426,433.998052 Z" id="Path-20" fill="url(#linearGradient-1)"></path><path d="M257.631552,114.796575 C244.538392,103.372823 204.10677,71.6696428 181.366228,97.9262741 C158.625686,124.182905 165.527768,159.218416 115.521469,173.951795 C82.1839369,183.774047 65.4175891,211.811768 65.2224258,258.064957 C66.3683708,269.159792 72.0035621,282.375949 82.1279997,297.713427 C97.3602155,319.571338 116.543917,347.909753 133.058628,342.150284 C149.573339,336.390816 192.89742,307.025996 239.647864,308.089277 C286.398308,309.152559 328.881639,269.453683 324.963427,240.047055 C321.045215,210.640428 297.311648,186.026861 336.802876,169.40048 C394.5757,139.48187 341.819952,59.9386037 297.739248,89.3058711 C272.269559,108.063698 270.724712,126.220328 257.631552,114.796575 Z" id="Path-19" fill="#DFE8F1"></path><g id="Group-47" transform="translate(60.222426, 128.906404)"><path d="M219.878495,132.550392 C219.243132,131.046159 218.672463,129.647041 218.204645,128.127622 C217.617339,128.57939 217.26989,129.11352 216.907218,129.623452 C216.038637,130.840025 215.278933,132.123123 214.606027,133.456112 C214.466569,133.730729 214.319497,134.00308 214.176232,134.274672 C214.018487,134.578795 213.786158,134.74982 213.426731,134.689434 C213.048267,134.626029 212.958503,134.345441 212.907593,134.019456 C212.56415,131.799579 211.880262,129.682689 210.916095,127.654394 C210.839235,127.494823 210.76009,127.336009 210.661161,127.132576 C209.103805,129.327398 207.573878,131.482878 206.043952,133.638359 C205.880901,133.869114 205.723941,134.105918 205.545664,134.325332 C205.407004,134.496324 205.319324,134.791346 205.037575,134.727907 C204.735267,134.659181 204.585335,134.397524 204.533653,134.101794 C204.369485,133.168469 204.251013,132.226052 204.044196,131.302575 C203.849544,130.43431 203.564261,129.587256 203.27979,128.596488 C201.766662,130.623377 200.335056,132.543586 198.90345,134.463796 C198.826511,134.530385 198.752617,134.601511 198.672633,134.664319 C198.442586,134.840638 198.349524,135.283913 197.998485,135.191756 C197.567491,135.080717 197.347542,134.688985 197.299716,134.256349 C197.196466,133.338887 197.135864,132.417628 197.034137,131.499409 C196.889896,130.201499 196.72357,128.905866 196.558033,127.53308 C194.092847,129.933956 191.664231,132.293218 188.915033,134.573171 C188.843086,133.425 188.73909,132.462912 188.727242,131.498522 C188.665787,126.467811 184.363094,104.565847 184.114298,99.5397405 C183.88593,94.8978712 183.330849,90.2893968 182.692757,85.6885152 C182.226341,82.3318309 181.992963,78.954643 181.813656,75.5721415 C181.698662,73.3907606 181.323209,71.2419951 181.00259,69.086403 L180.879285,68.9011311 C180.81382,68.8217332 180.727035,68.7332661 180.740777,68.6334182 C180.94082,67.1440219 180.435644,65.7456379 180.180264,64.3161549 C179.69459,61.5865223 179.205871,58.8531089 178.194688,56.2545145 C177.253504,53.8359159 176.249862,51.4513765 174.513484,49.445286 C173.088452,47.798371 171.301496,46.7022321 169.296614,45.965453 C165.966058,44.7412661 162.495192,44.0511375 159.000679,43.4722061 C157.630003,43.1897948 156.247875,42.988321 154.854302,42.8496313 C154.689826,42.8027926 154.529922,42.7438501 154.368495,42.6879337 C153.0237,42.4380381 151.675079,42.2380654 150.300467,42.321747 C148.211559,42.3202057 146.122665,42.2793322 144.039766,42.5168072 C143.185282,42.6146789 142.851893,42.5741966 142.737903,41.8821419 C142.586676,40.966966 142.504101,40.4275737 143.351767,40.2245666 L143.829621,40.2144375 C142.06012,39.2937743 142.520654,37.678727 142.569912,36.1878705 C142.606493,36.1091934 142.661346,36.0456378 142.73371,35.9972038 C142.849485,35.9366525 143.083325,35.6298289 143.212787,35.6290274 C145.851537,35.60466 148.542237,35.6374815 151.177897,35.7409446 C154.41212,35.8676471 157.468008,36.451909 160.653344,37.0044746 C164.144039,37.6091245 167.496094,38.6226416 170.777135,39.8899598 C172.488851,40.5504459 174.240922,41.1916963 175.863467,42.0503869 C179.891279,44.1842648 183.723746,46.7447371 187.21973,49.6563665 C190.649479,52.513559 193.566011,55.8596249 196.042778,59.5597649 C197.060429,61.0805052 198.465592,62.2524647 199.489336,63.7709337 C202.396923,68.0820845 205.134131,72.6786572 207.54661,77.2910227 C208.787096,79.6633774 210.243746,81.9605764 211.149862,84.4850815 C211.846759,86.4227029 218.160368,104.397499 218.937999,106.304837 C220.306843,109.659694 220.891813,113.799848 222.031401,117.248577 C222.650641,119.126471 223.473155,120.577359 224.069543,122.472658 C224.176041,122.809969 224.219428,123.391298 223.943628,123.741602 C222.677682,126.68212 221.463513,129.646825 219.878495,132.550392 Z" id="Fill-100" fill="#366ED3" transform="translate(183.315845, 85.412793) rotate(-49.000000) translate(-183.315845, -85.412793) "></path><path d="M165.046582,88.0013567 C167.37757,88.621296 169.614199,89.4601769 171.530484,90.9911046 C173.178443,92.3085749 174.416327,93.4874157 175.335683,95.3684854 C176.846163,98.4587047 178.078979,102.064146 178.680748,105.45396 C178.987323,107.181394 179.445883,108.764835 179.779072,110.487668 C179.882294,111.016534 179.575707,111.50421 179.640914,112.026966 C178.775476,112.515602 177.846342,113.642126 177.059946,114.227942 C176.026375,114.99831 174.923659,115.634754 173.703143,116.122748 C176.927362,119.408317 176.84864,124.939998 173.379139,127.31629 C172.958716,127.18555 173.146631,126.869369 173.201458,126.632071 C173.374318,125.878842 173.521325,125.126388 173.467613,124.347214 C173.462507,123.725699 173.489335,123.104938 173.361053,122.486528 C172.998979,120.741508 171.972881,119.702432 170.233338,119.371613 C167.446875,118.840621 164.626114,118.547684 161.817547,118.172079 C160.258922,117.963663 158.712488,117.680233 157.152338,117.485596 C156.48026,117.304427 155.802853,117.14316 155.109447,117.072218 C154.245732,116.981435 154.203132,117.040387 154.046212,117.872447 C153.565546,120.429101 154.575344,122.424186 156.181281,124.322621 C158.35572,126.892892 161.243797,127.120506 164.286502,127.629212 C166.280758,127.963769 168.232355,127.789216 170.238869,127.859701 C170.58482,127.871061 171.276764,127.462928 171.459828,127.974927 C169.980698,128.741623 168.280258,129.605892 166.64856,129.628657 C164.975042,129.652968 163.385812,129.993366 161.79729,130.483786 C159.649097,131.148149 157.399939,131.351768 155.211507,131.843926 C151.07189,132.774583 146.950277,132.221858 142.808851,131.795434 C138.709242,131.372823 134.745189,130.336302 130.739259,129.462063 C128.223484,128.913371 125.641451,128.675461 123.120346,128.146673 C118.027198,127.077632 113.328281,124.934576 108.716876,122.57947 C106.782154,121.591228 104.900688,120.509587 103.05422,119.366701 C99.224451,116.995249 95.1565396,115.071647 91.1837334,112.968141 C91.0484176,112.897004 90.8971248,112.854194 90.7534404,112.796837 C90.6570129,112.407275 90.6631154,112.350632 91.0615405,112.331358 C92.2218391,112.276609 93.3768118,112.231813 94.5080575,112.636323 C99.3340961,114.365245 104.042957,116.339905 108.434504,119.034932 C111.248683,120.761493 114.34592,121.880216 117.428707,123.008894 C123.014977,125.050606 128.665948,126.887929 134.444803,128.301933 C137.708666,129.100655 140.996897,129.794506 144.315604,130.306943 C145.646128,130.512376 147.001844,130.430769 148.339306,130.362181 C151.432426,130.204194 154.517227,129.91915 157.579286,129.436637 C158.258307,129.329242 158.933536,129.197355 159.767726,128.919985 C158.650907,128.571344 157.748515,128.192013 156.833946,127.846364 C154.900655,127.114536 153.242767,125.926424 151.600095,124.711517 C151.332524,124.514133 151.042902,124.317523 151.004258,123.935594 C151.272084,123.402006 151.837031,123.361243 152.302421,123.1858 C152.808874,122.995036 153.042364,122.805897 152.717138,122.232714 C152.323522,121.542447 152.289586,120.743366 152.256402,119.964185 C152.208884,118.8643 151.680716,118.09218 150.699266,117.66389 C148.873206,116.866198 147.044861,116.08152 145.545187,114.711949 C143.005698,112.390565 141.501208,109.568239 141.405867,106.060375 C141.402861,105.957045 141.405939,105.852948 141.405215,105.749617 C141.400278,104.643594 141.367595,104.610693 140.281837,104.586578 C139.998232,104.579023 139.711578,104.597492 139.440935,104.487367 C137.867595,102.867532 135.693878,102.588913 133.698963,101.962733 C130.889813,101.078892 128.058587,100.2716 125.342293,99.1152392 C124.842063,98.904159 124.347919,98.68083 123.884972,98.3939607 C123.507164,98.1598754 123.544508,97.9111025 123.906506,97.6920677 C124.104997,97.5702975 124.324005,97.486791 124.54149,97.4048158 C127.645614,96.2181064 130.542306,94.6250339 133.338701,92.8368156 C135.902379,91.1979342 138.029782,89.1030176 139.809077,86.6377614 C140.342332,85.9020118 140.5867,85.0438964 140.619706,84.1521765 C140.655793,83.143347 140.688841,82.1306914 140.540927,81.118099 C140.432454,80.3848692 140.58857,79.6775714 141.148374,79.1232159 C141.106981,80.0830607 141.202452,81.0367345 141.295641,81.9911745 C141.340341,82.4519387 141.606381,82.676878 141.980413,82.8382503 C142.303509,82.9766778 142.631171,83.1066842 142.999122,83.2588735 C142.678104,83.7021607 142.265288,83.5614682 141.906384,83.6304806 C141.068433,83.7907443 141.564704,84.4541861 141.501446,84.883606 C141.450381,85.2341838 141.621347,85.5502406 142.100391,85.4666435 C144.297149,85.0816397 146.516536,85.2155794 148.728374,85.1926117 C150.133454,85.2755524 151.946925,85.7343994 153.335223,85.9727251 C153.443935,86.0201429 154.403809,86.0498751 154.513281,86.0972927 C153.177211,86.5340447 151.192496,87.2970927 150.128782,88.2217652 C146.867604,91.0566644 147.035579,94.8514199 149.625746,97.9305473 C150.454173,98.9176439 151.140593,99.2639256 152.370008,99.4211727 C156.319801,99.9265011 160.158393,100.979905 164.057156,101.734777 C164.716326,101.863902 165.377025,101.967769 166.040768,102.066276 C168.011468,102.360274 169.611607,101.262877 170.058609,99.3055549 C169.985112,98.5692513 169.640142,97.9256575 169.340796,97.2728628 C168.715509,95.9129383 167.97311,94.6119915 167.280141,93.2865342 C166.793088,92.3551939 165.968345,91.7048786 165.31625,90.910605 C163.353763,88.8676309 160.835288,87.9356557 158.130247,87.2163428 C157.833742,87.136843 156.219829,86.980192 156.172112,86.4505414 C158.756398,86.7680536 162.53541,87.3347898 165.046582,88.0013567 Z" id="Fill-101" fill="#D47E44" transform="translate(135.251184, 105.737464) rotate(-49.000000) translate(-135.251184, -105.737464) "></path><path d="M165.432328,134.723654 C165.814341,135.296788 166.404292,135.635817 166.94169,136.025939 C169.023538,137.536902 171.311101,138.6369 173.766287,139.395319 C174.006095,139.469943 174.23752,139.570489 174.574006,139.696918 C173.997485,140.144603 173.386834,140.214187 172.80663,140.308917 C169.862967,140.791732 166.911712,141.212038 163.920233,141.261869 C163.460357,141.26889 163.001973,141.366627 162.541326,141.401092 C159.311467,141.646924 156.189291,140.948198 153.062528,140.306649 C146.565377,138.972559 140.227552,137.071246 133.977389,134.874882 C130.767043,133.746999 127.532321,132.654954 124.502575,131.088672 C121.935664,129.763123 119.482273,128.224084 116.870414,126.973259 C113.979938,125.587599 110.962192,124.544267 107.933779,123.52076 C107.039263,123.218429 106.086698,123.444408 105.160873,123.407377 C104.951497,123.399827 105.013113,123.559893 105.042764,123.681855 C101.105023,123.349329 97.1993414,122.784284 93.3089281,122.101835 C91.3256542,121.755669 89.3439076,121.396542 87.3514735,121.118226 C86.7020482,121.026973 86.6541644,120.788383 86.8226108,120.267657 C86.9316069,119.92686 86.9667574,119.562457 87.0354048,119.208715 C87.5111738,117.292068 87.9861816,115.374658 88.4619505,113.458011 C88.7506849,112.966211 89.2211757,113.086435 89.6437241,113.136661 C92.9784285,113.536481 96.2902345,114.100209 99.6173049,114.557968 C100.512644,114.681915 101.40798,114.818059 102.307142,114.897028 C105.639599,115.190123 108.571185,116.591777 111.425805,118.181752 C113.72701,119.463941 115.794331,121.146432 118.222762,122.211314 C121.847899,123.799496 125.381604,125.579053 128.84141,127.48823 C131.910704,129.181806 135.177356,130.411821 138.382291,131.772214 C141.209638,132.971127 144.209211,133.728593 147.189748,134.488354 C147.942686,134.680197 148.675806,134.936083 149.40588,135.193494 C152.046781,136.125658 154.748139,136.177317 157.513544,135.967476 C160.131238,135.767598 162.683538,135.322274 165.20395,134.621582 C165.291506,134.629175 165.367631,134.664215 165.432328,134.723654" id="Fill-102" fill="#E38C51" transform="translate(130.656894, 127.268993) rotate(-49.000000) translate(-130.656894, -127.268993) "></path><path d="M176.198793,98.9942544 C176.152733,99.1533 176.011695,99.3131253 176.212728,99.463872 C175.684943,100.079269 174.96954,100.380405 174.242271,100.663626 C174.010102,100.434496 173.717715,100.534644 173.451334,100.531751 C171.917601,100.521086 170.379388,100.593297 168.849392,100.507969 C166.15001,100.3566 163.208921,100.310223 160.964871,98.781186 C158.931503,97.3961725 157.160128,95.2486548 156.74256,92.5930819 C156.590044,91.6202925 156.772603,91.0307784 156.907977,90.0870067 C156.94145,89.851064 157.086991,89.5456467 157.401579,89.6157191 C158.274115,89.8117755 159.194964,89.7718839 160.019938,90.1792496 C158.774345,91.6124425 159.625652,93.5616675 160.781961,94.9544528 C161.493251,95.8120684 162.325591,96.374728 163.473402,96.6005531 C166.709831,97.23853 169.942569,97.8167787 173.260129,97.7297618 C173.790672,97.7153912 174.310099,97.6584673 174.830283,97.5597325 C175.317075,97.4669823 175.74453,97.3033241 176.033325,96.8634658 C176.138747,96.7014131 176.265694,96.5206874 176.512769,96.5624119 C176.580744,97.3956133 176.430577,98.1997727 176.198793,98.9942544 Z" id="Fill-103" fill="#E38C51" transform="translate(166.606996, 95.134571) rotate(-49.000000) translate(-166.606996, -95.134571) "></path><path d="M134.496527,132.381263 C132.774532,132.564414 131.054859,132.654026 129.323747,132.702153 C127.658305,132.748748 126.555097,132.776447 125.018135,132.267046 C122.249618,131.349974 119.750901,131.407818 116.987733,130.479429 C113.142662,129.188578 109.471914,127.399885 105.8286,125.63599 C103.226668,124.377142 101.022204,123.487588 98.3812976,122.318521 C94.4042862,120.557759 89.8994885,117.739119 86.1998399,115.479639 C83.8079706,114.018554 80.7487326,112.201678 77.9151221,111.821721 C75.8511908,111.544842 73.7796056,111.319261 71.7187377,111.016732 C69.7334626,110.726247 67.754309,110.399552 65.7621381,110.176206 C64.913041,110.081454 64.0510637,109.696285 63.1781228,110.094883 C64.1862213,105.315763 65.2653304,100.550196 66.1833291,95.7545117 C67.2711563,90.0754315 68.7010541,84.4678948 69.7644471,78.7850514 C70.0153742,77.4527926 70.3388434,76.1220172 70.4255996,74.7769917 C70.4778109,73.9562473 70.9994573,73.6596084 71.5226701,73.2505717 C71.3180972,73.0394266 71.1234368,72.8697671 70.9654399,72.669921 C70.460918,72.0334305 70.3145555,71.3161004 70.6782882,70.5812427 C71.0328502,69.8675098 71.6224934,69.4682564 72.4762095,69.4558894 C74.6066826,69.4227103 76.7202751,69.6226293 78.8330987,69.8376355 C81.4850103,70.1045036 84.1292653,70.4302131 86.7796499,70.6963274 C89.4865403,70.9654393 92.1643501,71.4171126 94.8436919,71.8552072 C95.7676027,72.0065084 96.6228613,71.9503889 97.5117922,71.6830414 C102.157295,70.2873952 106.608254,68.3909323 111.084388,66.5608429 C116.288342,64.4340428 121.631129,62.7183118 127.038758,61.1896354 C128.38971,60.808221 129.819882,60.9880109 131.208169,60.8426931 C133.337867,60.841951 135.467566,60.8412089 137.595736,60.8404674 C141.816133,60.9996721 146.031909,61.269767 150.244638,61.5187413 C153.081377,61.6859715 155.944947,61.5514549 158.759414,62.0845497 C160.126943,62.3420588 161.389059,62.7029498 162.389772,63.7775412 C164.011064,65.5210195 166.19995,66.5936882 167.94652,68.2043583 C168.854155,69.0421181 169.858042,69.7749906 170.8054,70.5704934 C171.108463,70.825356 171.442864,70.9934582 171.817758,71.1004444 C173.04534,71.951671 174.179723,72.916836 175.657129,73.4096621 C176.841344,73.8060344 177.977384,74.3977985 178.812421,75.3970133 C179.135252,75.8970308 179.413024,76.4151683 179.4235,77.0307093 C178.887179,79.9962222 175.815922,82.2806915 172.760832,81.996614 C172.262977,81.9507725 171.764341,81.9554723 171.26494,81.9609267 C170.546384,81.9679662 169.827828,81.9750056 169.11467,81.8311744 C166.747656,81.3560082 164.43948,80.7676698 162.253657,79.6716154 C159.504391,78.2936326 156.753597,76.9171591 154.027255,75.4954164 C153.423352,75.180311 152.907164,75.1503171 152.274787,75.469625 C151.328512,75.9474544 150.288386,76.2186263 149.267345,76.5056328 C144.721914,77.7865839 140.12009,78.7416781 135.409983,79.2675883 C132.705184,79.5687596 130.001174,79.7997767 127.288783,79.9779927 C126.658793,80.0197011 126.358574,80.3675583 126.036164,80.8504507 C124.233876,83.5508756 122.950739,86.5400334 121.208766,89.2698567 C119.732672,91.5846983 117.935957,93.6295964 115.770537,95.3419573 C114.657656,96.2226644 113.570725,97.1365537 112.434945,97.9908667 C111.408389,98.764427 110.280361,99.2838086 109.037854,99.6274681 C106.300825,100.385783 103.547075,100.918555 100.680551,100.764913 C98.4531528,100.645749 96.2586509,100.351565 94.0909473,99.8506816 C94.0481885,99.8416444 94.0336705,99.8688058 94.0313702,99.895963 C94.0290662,99.933681 94.0504341,99.9713907 94.0565637,99.9117954 L94.1787549,99.8710183 C97.3467088,100.584278 100.412995,101.6061 103.360046,102.95384 C107.711145,104.943038 112.046196,106.968449 116.513452,108.700375 C117.237253,108.981493 117.926663,109.344092 118.608435,109.713483 C120.500295,110.73496 122.553454,111.247953 124.651713,111.624394 C125.302264,111.741845 125.958207,111.728038 126.614149,111.714231 C126.943266,111.707328 127.273146,111.700424 127.602257,111.710115 C127.990166,111.720541 128.386489,111.686457 128.700992,111.982805 C129.17666,112.149349 129.226141,112.589869 129.317639,112.97757 C129.548673,113.950593 129.722429,114.944003 129.798444,115.933676 C129.961108,118.079728 130.950893,119.838513 132.226303,121.492345 C133.430729,123.054172 134.994967,124.177599 136.753251,125.041465 C137.351816,125.33545 137.689204,125.695155 137.868416,126.373247 C138.257344,127.838802 138.839487,129.240925 139.873002,130.410552 C140.050089,130.611146 140.308885,130.801905 140.217899,131.137619 C138.370497,131.821699 136.454486,132.174645 134.496527,132.381263 Z" id="Fill-104" fill="#FFC192" transform="translate(121.300812, 96.783020) rotate(-49.000000) translate(-121.300812, -96.783020) "></path><path d="M176.193518,20.1086461 C175.084901,19.689815 173.904499,18.6409038 172.993795,17.9077796 L173.293663,17.647109 C179.908057,18.4764408 185.795014,21.1437842 191.16168,24.9375307 C204.158967,34.1293462 211.914324,46.9501623 213.353492,49.1968168 C219.505231,57.5707112 225.223291,79.5024719 228.027157,86.7452683 C228.274,87.3819395 228.088876,87.9689083 227.981053,88.5573608 C225.962026,99.6140717 222.891944,110.354659 218.216863,120.611628 C217.3674,122.476874 216.683125,124.416843 215.710148,126.228503 C215.629761,126.378845 215.534977,126.522394 215.39469,126.757355 C214.725337,125.024068 214.094606,123.376122 213.448716,121.734224 C213.360124,121.508406 213.35947,121.209289 213.060148,121.107421 C212.919579,119.97294 212.444758,118.932993 211.969164,117.932325 C211.054328,116.011042 202.547857,88.1553142 200.830945,84.7757366 C199.531333,82.2185861 198.688088,79.2858692 197.15213,76.4138215 C195.970625,74.2010678 194.820198,71.972441 193.499217,69.8405579 C191.398827,66.4490284 189.343923,63.0182051 186.872091,59.8745587 C184.786601,57.2232636 183.017227,54.3278814 180.726298,51.8390575 C178.484611,49.4038459 176.070828,47.1424241 173.346194,45.2368788 C170.405619,43.1810947 167.487803,41.0610983 164.198404,39.5938507 C159.867096,37.6616728 155.462986,35.8647272 150.768285,35.0045126 C147.630907,34.4292764 144.496566,33.8359108 141.282498,33.6776526 C138.29806,33.5283785 135.320345,33.6631124 132.341955,33.5584017 C132.345901,33.1082138 132.72867,32.9796715 133.024299,32.8065941 C136.04351,31.0357651 138.996821,29.1629873 141.853177,27.14144 C142.608201,26.6071469 143.496437,26.5705808 144.356659,26.4539577 C145.682235,26.2759894 147.007053,26.097266 148.332631,25.9117442 C150.560117,25.5990099 152.717219,25.0105987 154.8554,24.3443933 C155.424622,24.1651779 155.874004,24.2639717 156.370295,24.5916192 C158.819167,26.2034308 161.32946,27.7170259 164.042994,28.855143 C165.888136,29.6287303 167.854692,29.9573762 169.832685,30.0896279 C171.967554,30.2301339 174.104775,30.1455457 176.173236,29.4695452 C177.931693,28.8933584 179.31668,27.8610724 180.232753,26.2352474 C180.389729,25.9557145 180.457308,25.5878372 180.857489,25.5121631 C181.187056,25.8179636 181.056574,26.1866182 180.953388,26.5167406 C180.49436,28.0004012 179.584525,29.1261845 178.2413,29.9303413 C176.614573,30.9045498 174.791077,31.0842023 172.975158,31.2691396 C171.800419,31.3888937 170.620385,31.4784358 169.43357,31.4539229 C165.668503,31.375168 161.935366,31.008615 158.264542,30.1623953 C156.448076,29.7430555 154.665688,29.3962172 152.789792,29.8818033 C151.72489,30.1571205 150.602469,30.2043431 149.50956,30.3807196 C149.280671,30.4178114 149.048753,30.4450847 148.835758,30.5410879 C148.441603,30.7225084 148.228514,31.0881704 148.248088,31.4650815 C148.269166,31.8722059 148.715584,31.7783874 148.995981,31.8198338 C150.929962,32.1107237 152.873066,32.3200329 154.81541,32.5361406 C157.136674,32.7944157 159.340335,33.4341817 161.531061,34.2189788 C167.123439,36.2202092 172.313897,38.9391589 177.039476,42.5306959 C180.184559,44.9195165 182.921769,47.7095682 185.46261,50.7285584 C188.629193,54.4898362 191.443282,58.4959691 194.144417,62.5897616 C195.687382,64.9285322 196.912735,67.4524734 198.227537,69.9167111 C201.210835,75.5097681 209.320746,97.3976407 212.164572,103.061749 C212.544001,103.817719 211.67345,105.300767 211.950551,106.100583 C212.073204,106.452531 212.241368,106.689652 212.688575,106.504436 C214.82835,105.615403 216.543879,106.440399 218.084883,107.879552 C219.154647,108.879258 219.131151,108.884554 219.774296,107.528483 C222.148173,102.518197 223.912796,97.300404 225.187894,91.9128281 C225.312367,91.3878188 225.289035,90.9232888 225.048205,90.4293761 C223.949322,88.1758049 223.1756,85.8216593 222.937746,83.3102149 C222.91056,83.0292355 222.850791,82.7369372 222.911514,82.4672573 C223.138464,81.4716315 222.752249,80.6167137 222.387264,79.7315748 C218.646549,70.6649428 208.992371,45.8264694 202.604593,38.4330971 C200.675079,36.1979436 198.64322,34.0572441 196.615908,31.914277 C195.255275,30.478082 193.620192,29.3358124 192.001023,28.1935372 C188.928619,26.0237418 185.719717,24.0866406 182.252225,22.6005715 C181.566456,22.3069806 180.884482,21.9967708 180.112966,22.0113912 C178.983366,20.9112449 177.645405,20.6572771 176.193518,20.1086461 Z" id="Fill-105" fill="#3B76DF" transform="translate(180.245762, 72.202232) rotate(-49.000000) translate(-180.245762, -72.202232) "></path><path d="M171.476341,68.4372544 C170.646184,70.1940672 169.40783,71.5605155 167.597717,72.3262669 C166.142958,72.9412922 164.595154,73.1665999 163.024669,73.2572059 C158.143514,73.5404348 153.765237,72.085128 149.711608,69.4642423 C148.677751,68.7963517 147.551418,68.2745549 146.59715,67.4810084 C146.354039,67.2782718 146.104036,67.2874405 145.808547,67.3874405 C141.974006,68.6889521 137.990482,69.2458284 133.99259,69.7277869 C133.370595,69.8029264 132.842477,70.0543667 132.317349,70.424623 C129.545459,72.3766089 126.694822,74.2120757 123.760141,75.9113485 C123.475235,76.0756725 123.15625,76.2074661 122.961452,76.4989004 L122.82432,76.5314905 C122.614954,77.3201448 122.357883,78.0467586 122.456814,78.9405002 C122.619933,80.4237635 122.705004,81.9592729 122.056014,83.4095202 C121.712565,84.177031 121.130544,84.7607236 120.626535,85.3981214 C118.457397,88.1452899 115.637025,90.0912384 112.624312,91.7958359 C110.322345,93.0975703 107.947707,94.2388893 105.317834,95.1858007 C106.741774,96.0488088 108.156748,96.555369 109.564907,97.0528502 C112.562263,98.1105634 115.629392,98.9510518 118.672252,99.8679851 C119.614576,100.152212 120.554573,100.59234 121.12774,101.504079 L121.177705,101.603202 L121.12693,101.653168 C120.793662,101.466356 120.427744,101.494485 120.07092,101.512772 C116.698892,101.688767 113.574186,100.850569 110.617162,99.2744366 C108.279719,98.0295648 105.742875,97.2403537 103.344779,96.1309696 C101.901074,95.4632218 100.420978,94.8726798 99.0045633,94.1519467 C95.015122,92.12361 90.8376264,90.5993648 86.542621,89.3211193 C87.4395512,89.4320558 88.3448299,89.499852 89.234167,89.6607397 C93.1755815,90.3745386 97.0491189,90.2142617 100.942658,89.1783649 C103.163317,88.5880471 104.941,87.4045555 106.623315,85.9766521 C107.813817,84.9666714 109.092163,84.0588275 110.169076,82.91342 C112.005361,80.9610032 113.615188,78.8459543 114.822083,76.4487608 C115.768949,74.5677928 116.706726,72.6838008 117.93687,70.9646885 C118.085426,70.7580314 118.208994,70.521868 118.290138,70.2819354 C118.535844,69.5591096 119.000331,69.291042 119.785198,69.2362792 C122.35647,69.0575362 124.932252,68.9809591 127.492249,68.5479365 C129.703741,68.1740655 131.944722,67.9636522 134.162273,67.5928063 C136.469982,67.2052794 138.678574,66.4575522 140.939371,65.9050602 C142.278877,65.5791711 143.619154,65.2154421 144.84212,64.5293588 C145.129297,64.3673043 145.439164,64.3134639 145.786825,64.5025417 C147.341832,65.3496114 148.878641,66.2413384 150.486716,66.9778974 C153.002222,68.1288644 155.355478,69.650718 158.049913,70.39598 C160.253486,71.0067034 162.489746,71.2965338 164.800352,71.2927015 C167.263988,71.2880591 169.119628,70.3149297 170.614209,68.470097 C171.081834,67.8924988 171.044981,67.1236069 171.308846,66.466616 C171.831358,67.0832227 171.842492,67.7439017 171.476341,68.4372544" id="Fill-106" fill="#E38C51" transform="translate(129.135923, 83.017866) rotate(-49.000000) translate(-129.135923, -83.017866) "></path><path d="M154.010208,85.736939 C153.755645,87.7740638 151.830649,89.2198713 149.895788,88.8938731 C146.623595,88.3427812 143.418163,87.4611047 140.167724,86.80267 C139.029584,86.5712847 137.877195,86.4013498 136.7278,86.2345251 C132.936668,85.6851697 131.323777,83.2846891 130.964925,79.452635 C130.797063,77.6606617 131.627229,76.33346 132.646838,75.033415 C133.500134,73.9449872 134.556256,73.1652721 135.717923,72.4982999 C136.198019,72.2220166 136.690807,72.0546197 137.24268,72.093317 C138.637734,72.1387206 140.003512,72.3879158 141.357279,72.7234501 C142.258703,73.1999222 143.285326,73.264899 144.210731,73.6908064 C146.098976,74.557386 147.874844,75.5787854 149.278337,77.1914361 C148.882126,77.4225782 148.530261,77.1792521 148.18884,77.0487021 C145.935164,76.1861387 143.60724,75.6502736 141.238824,75.2715366 C139.084562,74.9277255 137.016683,75.9636867 135.95939,77.9567571 C135.392903,79.0248623 135.661778,81.0431378 136.479203,81.893757 C136.783866,82.2117676 137.188209,82.2847391 137.577558,82.4051611 C142.714722,83.9962883 147.999684,84.788572 153.295902,85.5147395 C153.546748,85.5488749 153.806595,85.5402287 154.010208,85.736939" id="Fill-107" fill="#E38C51" transform="translate(142.476725, 80.513804) rotate(-49.000000) translate(-142.476725, -80.513804) "></path><path d="M144.822944,82.4836381 C149.351891,82.8570967 153.744205,83.9641747 158.168224,84.900225 C158.789787,85.0312712 159.415117,85.1630663 160.046498,85.2251024 C161.288166,85.3469317 162.063217,86.1057359 162.706343,87.0618554 C163.174755,87.7592605 163.54368,88.5422085 164.104045,89.1510729 C165.519269,90.6919806 165.307661,92.5207333 165.18421,94.346455 C165.153915,94.7950094 164.99177,95.2271082 164.777645,95.6299722 C164.415043,96.1626507 163.844622,96.301613 163.265161,96.435328 C161.674468,96.8041683 160.086232,96.6097026 158.548535,96.2517033 C154.388239,95.2863083 150.199265,94.4544364 146.012551,93.6210635 C143.902996,93.2010074 142.56001,91.9331012 141.376891,90.2878524 C139.3872,87.5230251 140.713109,83.741443 143.723582,82.6467871 C144.083784,82.5153987 144.431934,82.3742636 144.822944,82.4836381" id="Fill-109" fill="#E9A66A" transform="translate(152.852604, 89.539117) rotate(-49.000000) translate(-152.852604, -89.539117) "></path><path d="M147.833648,83.4733945 C145.13444,83.0643323 142.324544,82.408688 139.672668,81.7316488 C137.020792,81.0546096 137.379375,81.0572376 136.127288,80.738271 C135.609209,80.6048552 135.202622,80.1759511 134.976338,79.7122816 C133.804456,77.3140976 134.398133,75.6800224 136.699937,73.9347896 C138.127221,72.8524687 139.584007,73.1790419 141.102312,73.4088514 C143.572837,73.7834425 145.931496,74.5680752 148.283396,75.3826542 C150.624259,77.7458802 151.878273,81.0411454 153.022178,84.1096245 C150.711321,83.8591047 148.981811,83.647028 147.833648,83.4733945 Z" id="Fill-110" fill="#E9A66A" transform="translate(143.706513, 78.643234) rotate(-49.000000) translate(-143.706513, -78.643234) "></path><path d="M176.224772,95.600959 C175.607841,96.7603248 174.398955,96.8749268 173.198969,96.9215953 C169.023631,97.0878172 164.94056,96.4749767 160.914881,95.5810004 C159.607686,95.2909454 158.863216,94.2375627 158.241391,93.2303876 C157.571175,92.1444592 157.428755,90.9550061 157.831047,89.7516326 C157.948988,89.3982095 158.029035,88.9479627 158.636679,88.9694309 C160.467683,89.0208246 162.251768,89.4024915 164.060122,89.6136016 C166.595529,89.9097325 169.12768,90.2868027 171.662297,90.5345155 C174.841664,90.8441526 176.310553,92.5924845 176.236224,95.1594081 C176.231331,95.3061103 176.228052,95.4535346 176.224772,95.600959" id="Fill-111" fill="#E9A66A" transform="translate(166.923131, 92.958762) rotate(-49.000000) translate(-166.923131, -92.958762) "></path><path d="M145.333297,83.2301973 C143.389932,83.8344087 141.782025,84.8511559 141.30928,87.0951691 C141.061905,88.267474 140.986507,89.4143738 141.617152,90.5792444 C142.367416,91.9658445 143.340495,93.0909938 144.506045,94.073509 C144.730218,94.2627284 145.001404,94.325997 145.278646,94.4027283 C149.479702,95.5481379 153.792306,96.1612581 157.997915,97.2829049 C159.387918,97.6523031 160.796147,97.8957607 162.231723,97.9206057 C163.35064,97.9400169 164.423425,97.7313366 165.396354,97.1124146 C165.208969,97.8752141 164.708039,98.3925906 164.058708,98.6731989 C162.097835,99.5197805 160.046275,99.73197 157.94792,99.4451907 C156.931316,99.306938 155.90631,99.3666981 154.882884,99.2395364 C151.639888,98.8391022 148.386217,98.6382658 145.264723,97.4013954 C143.694508,96.7793993 142.223576,96.0346025 141.022477,94.8897316 C139.191294,93.1431301 138.079204,90.9234304 137.915736,88.2741146 C137.763565,85.8156764 138.407504,83.6159578 139.886946,81.6781132 C140.603171,80.7400886 140.542558,80.764663 141.517331,81.375778 C142.459536,81.9655192 143.422201,82.5386205 144.490251,82.8732812 C144.780367,82.9642647 145.093984,83.0053414 145.333297,83.2301973" id="Fill-112" fill="#E38C51" transform="translate(151.645154, 90.253542) rotate(-49.000000) translate(-151.645154, -90.253542) "></path><path d="M142.277003,92.815007 C144.346533,92.8377781 144.265158,92.8417327 144.383196,95.0714337 C144.516542,97.5711157 145.435135,99.7667688 146.913156,101.734608 C148.578769,103.955096 150.796453,105.290893 153.195817,106.235699 C154.552559,106.769948 154.778121,107.640764 154.830551,108.729325 C154.874974,109.641299 154.992759,110.479653 155.590713,111.26506 C155.875033,111.640109 155.507606,112.000306 155.146141,112.144853 C154.589647,112.368742 154.033153,112.591062 153.476658,112.815007 L153.326373,112.815007 C151.999974,111.243458 151.131109,109.426082 150.774769,107.335388 C150.713305,106.975952 150.403219,106.929762 150.169399,106.811338 C147.242615,105.336924 145.129845,103.014572 143.7607,99.8819827 C143.242052,98.6939211 143.273261,97.4044088 143.013411,96.1699446 C142.788698,95.0979301 142.91517,93.9316029 142.27622,92.9696218 L142.277003,92.815007 Z" id="Fill-113" fill="#C0784C" transform="translate(148.984124, 102.815007) rotate(-49.000000) translate(-148.984124, -102.815007) "></path><path d="M173.919383,20.8894612 C173.799811,20.3452263 173.663701,19.5298427 173.426641,19.0296766 C173.445828,18.6941466 173.781218,19.0312866 174.003946,19.0691642 C175.200724,19.2714276 176.247857,19.8631627 177.309511,20.3736689 C181.633158,22.4536217 185.668301,24.9982459 189.271476,28.167003 C191.848985,30.4335445 194.054262,32.6432829 196.328833,35.2037026 C198.931284,38.1344501 202.207011,41.8832757 204.150995,45.2773053 C213.596466,61.775387 216.373451,76.0789492 217.21801,77.9005013 C217.471073,78.4454488 216.851345,79.3793609 216.852687,79.9069368 C216.857477,81.4851095 217.142995,83.0221928 217.610837,84.525053 C217.994865,85.7546654 218.459761,86.9561629 219.055117,88.1006822 C219.270848,88.5150771 219.301232,88.8832313 219.191988,89.347081 C217.82911,95.1554501 215.918603,100.76968 213.256818,106.121522 C213.143079,106.351569 213.022476,106.578583 212.885839,106.846594 C212.143809,106.317758 211.621531,105.608179 210.918403,105.084643 C209.393177,103.951075 203.872891,105.645798 204.980681,105.101135 C205.259155,104.96364 201.624387,88.7794923 189.40461,63.6435258 C188.055406,60.8682267 185.914074,58.1427098 183.963797,55.2967545 C182.00742,52.4432103 179.664873,49.3956189 177.469668,46.7357291 C173.670951,42.1338544 168.86413,38.7673909 163.809281,35.7319826 C161.014166,34.0545806 157.912185,32.9951951 154.894172,31.7687778 C151.914294,30.5575292 148.427629,29.7005167 145.256726,29.4139217 C143.925664,29.2936881 142.604559,29.0580676 141.277331,28.8809 C140.846362,28.8241175 140.728915,28.7512845 140.877087,28.2145474 C141.245226,26.8814349 142.374851,27.1611501 143.25062,26.9801786 C144.584109,26.7056779 145.94882,26.5799504 147.292212,26.3434014 C148.623397,26.1098931 150.189794,26.8405578 151.436138,27.0936638 C154.294186,27.6756588 157.303072,28.0891249 160.216169,28.3044541 C163.070532,28.5152491 165.480339,28.227404 168.293735,27.792217 C170.451079,27.4582192 172.107606,26.5956314 173.267,24.6299107 C173.65779,23.9685961 173.857939,23.0089334 173.818542,22.2369398" id="Fill-114" fill="#4F8BE3" transform="translate(180.034843, 62.864457) rotate(-49.000000) translate(-180.034843, -62.864457) "></path><path d="M170.513647,87.7642892 L170.334377,87.8770254 C170.250995,87.811402 170.188031,87.7173814 170.139263,87.6233558 L170.30789,87.4973154 C170.423231,87.5132447 170.513706,87.5939479 170.513647,87.7642892" id="Fill-115" fill="#D38753" transform="translate(170.326455, 87.687170) rotate(-49.000000) translate(-170.326455, -87.687170) "></path><path d="M176.193135,34.935855 C178.876923,34.9785523 181.292942,35.7853079 183.243824,37.7496762 C184.695011,39.2112552 185.598309,40.9871788 185.907402,43.0838099 C186.089034,44.3157691 186.358503,45.5429377 186.048249,46.7790349 C185.342981,49.5923853 183.489829,51.3169105 180.907119,52.2325058 C178.028922,53.2529219 175.600148,52.3834987 173.435314,50.2787877 C172.10145,48.9829713 170.81391,47.6593726 169.896988,46.0246642 C168.905053,44.2535313 168.36114,42.3235788 168.456884,40.2537795 C168.555039,38.1411401 170.49376,36.0484857 172.939837,35.3836264 C174.001161,35.0960756 175.072853,34.8442205 176.193135,34.935855" id="Fill-116" fill="#285DBD" transform="translate(177.318025, 43.788164) rotate(-49.000000) translate(-177.318025, -43.788164) "></path><path d="M192.927258,44.4204779 C193.731635,44.4339099 194.456951,44.6751454 195.04182,45.2645689 C195.477214,45.7032096 195.749245,46.2363695 195.84181,46.864816 C195.895357,47.2350284 195.977277,47.6029456 195.883598,47.9732094 C195.671665,48.8173492 195.115549,49.3348 194.341744,49.6093149 C193.478212,49.9158563 192.749068,49.6548156 192.099035,49.0235162 C191.699664,48.6351412 191.313331,48.2376202 191.038218,47.7471218 C190.740882,47.2162561 190.577754,46.6365889 190.606342,46.0164799 C190.634935,45.3818969 191.217161,44.7539771 191.950298,44.5548938 C192.26932,44.4687001 192.590639,44.3931707 192.927258,44.4204779" id="Fill-117" fill="#285DBD" transform="translate(193.264711, 47.076237) rotate(-49.000000) translate(-193.264711, -47.076237) "></path><path d="M161.540911,42.2370585 C162.297944,42.0934419 163.022647,42.1973748 163.6798,42.6789051 C164.16772,43.0375086 164.519295,43.5230622 164.7206,44.1410539 C164.839187,44.5029196 164.981959,44.8592934 164.96277,45.2509743 C164.917025,46.1447908 164.489583,46.7747519 163.813059,47.2019125 C163.058843,47.6776678 162.326818,47.5549371 161.60299,47.0436628 C161.156092,46.7281291 160.721655,46.4024075 160.373729,45.9607203 C159.997237,45.4806589 159.738752,44.9277049 159.652501,44.2955728 C159.56479,43.6501243 159.995937,42.903443 160.648981,42.5608922 C160.932626,42.4127405 161.219932,42.2739877 161.540911,42.2370585" id="Fill-118" fill="#285DBD" transform="translate(162.302855, 44.838888) rotate(-49.000000) translate(-162.302855, -44.838888) "></path><path d="M136.463855,38.9634508 C139.544048,39.2376648 147.495057,43.6796036 141.203286,42.2141216 L136.463855,38.9634508" id="Fill-119" fill="#709262" transform="translate(140.012398, 40.736689) rotate(-49.000000) translate(-140.012398, -40.736689) "></path><path d="M239.066496,44.7811879 C239.066496,44.7811879 237.611131,61.3442523 226.113828,84.1906909 L225.7461,76.8513329 L230.360993,67.5745418 L236.693277,48.4925412 L235.773347,41.6019921 L239.066496,44.7811879" id="Fill-120" fill="#3B76DF" transform="translate(232.406298, 62.896342) rotate(-49.000000) translate(-232.406298, -62.896342) "></path><path d="M233.845036,88.3642651 C233.845036,88.3642651 236.547333,96.5685588 236.933042,97.7953066 L241.830119,89.6546432 L239.642768,84.6801254 L237.259949,84.4872761 L236.0358,85.6512525 L233.845036,88.3642651" id="Fill-121" fill="#366ED3" transform="translate(237.837577, 91.141291) rotate(-49.000000) translate(-237.837577, -91.141291) "></path><path d="M228.208495,94.6988071 C228.208495,94.6988071 230.407045,103.628866 230.807391,104.893705 L237.080891,95.8945962 L234.214007,90.89798 L231.746238,90.6982667 L230.477297,91.8983492 L228.208495,94.6988071" id="Fill-122" fill="#366ED3" transform="translate(232.644693, 97.795986) rotate(-49.000000) translate(-232.644693, -97.795986) "></path><path d="M98.7822092,103.401955 L96.4200427,149.536889 L87.9849531,148.480307 C87.9849531,148.480307 85.7560591,136.821062 86.500891,136.025595 C87.2450155,135.230884 89.2342202,122.510649 89.2342202,122.510649 C89.2342202,122.510649 91.7203487,108.200581 92.4648111,108.46539 C93.2085664,108.7302 98.7822092,103.401955 98.7822092,103.401955" id="Fill-123" fill="#E38C51" transform="translate(92.565391, 126.469422) rotate(-49.000000) translate(-92.565391, -126.469422) "></path><path d="M224.382762,98.0558116 C224.382762,98.0558116 225.52247,106.91666 225.710494,108.178527 L233.254683,100.618163 L231.256219,95.4391011 L228.882975,94.8695054 L227.45678,95.8109808 L224.382762,98.0558116" id="Fill-124" fill="#366ED3" transform="translate(228.818722, 101.524016) rotate(-49.000000) translate(-228.818722, -101.524016) "></path><path d="M94.0767611,178.474068 L107.607556,113.721973 L69.9234144,104.845345 C69.9234144,104.845345 56.5955434,167.953051 57.0233388,169.100065 C57.451134,170.247836 94.0767611,178.474068 94.0767611,178.474068" id="Fill-125" fill="#DEECEC" transform="translate(82.310406, 141.659706) rotate(-49.000000) translate(-82.310406, -141.659706) "></path><path d="M90.6818997,133.091449 L39.7270706,119.889457 C39.7270706,119.889457 33.8596323,131.276798 27.5415729,160.070786 C21.9733107,185.44764 23.9518354,196.912056 24.2039944,197.48187 C24.7250744,198.663767 79.9075563,212.02297 79.9075563,212.02297 L90.6818997,133.091449 Z" id="Fill-126" fill="#213F7E" transform="translate(57.170056, 165.956213) rotate(-49.000000) translate(-57.170056, -165.956213) "></path><path d="M10.4482733,158.910508 L10.4482733,158.910508 C12.9784429,146.213422 15.6924315,132.8455 17.4273181,124.3358 C15.6924315,132.8455 12.9784429,146.214185 10.4482733,158.910508 M93.8192981,133.8144 L67.0903466,127.477292 L67.0911061,127.475767 L93.8192981,133.8144 M17.431116,124.31598 C17.4409906,124.269479 17.4508652,124.221453 17.4599802,124.174952 C17.4508652,124.221453 17.4409906,124.268716 17.431116,124.31598" id="Fill-127" fill="#F5F9F8" transform="translate(52.133786, 137.165529) rotate(-49.000000) translate(-52.133786, -137.165529) "></path><polyline id="Fill-128" fill="#EBF4F4" transform="translate(76.215284, 123.078806) rotate(-49.000000) translate(-76.215284, -123.078806) " points="61.3119957 136.176045 65.6075022 104.824936 91.1185718 113.767006 85.2105602 141.332677"></polyline><path d="M13.145868,168.058249 C16.8939397,142.655787 28.6651241,126.549495 28.6658915,126.546424 C28.6728,126.51341 28.6789409,126.484235 28.6843143,126.458131 C28.685082,126.454292 28.6858497,126.450454 28.6866173,126.446615 C28.6881532,126.437402 28.6904552,126.428956 28.6919908,126.420511 C28.6919913,126.418975 28.6927582,126.41744 28.692759,126.415137 C28.6950617,126.404388 28.6973642,126.394407 28.6988998,126.385962 C28.699668,126.380587 28.7004357,126.376748 28.7012034,126.37291 C28.7019708,126.369839 28.7027382,126.366767 28.7035053,126.364464 C28.7035061,126.362161 28.704273,126.360625 28.7042738,126.358322 C28.7050407,126.356786 28.7050412,126.355251 28.7058081,126.353715 C28.7065757,126.349877 28.7065768,126.346806 28.7073437,126.34527 C28.7081108,126.342967 28.7081111,126.342199 28.7081114,126.341431 L28.709647,126.332986 L77.0406144,137.956146 L76.9714706,138.454413 L76.9722364,138.455948 L72.6452097,170.110087 L70.7686894,180.437192 L13.145868,168.058249 Z" id="Fill-129" fill="#2B4690" transform="translate(45.093241, 153.385089) rotate(-49.000000) translate(-45.093241, -153.385089) "></path><path d="M84.8394732,107.444641 L80.9019959,106.625087 L72.098848,171.536058 C84.7069262,174.629443 87.4097289,175.564882 92.504516,176.709405 C90.4197484,174.778893 77.8788607,172.744816 79.3580214,146.397441 C80.2970546,129.698949 84.6073507,108.848918 84.8394732,107.444641" id="Fill-130" fill="#ABB4C5" transform="translate(82.301682, 141.667246) rotate(-49.000000) translate(-82.301682, -141.667246) "></path></g><ellipse id="Oval" fill="#DFE8F1" transform="translate(432.722426, 404.906404) scale(-1, 1) translate(-432.722426, -404.906404) " cx="432.722426" cy="404.906404" rx="74.5" ry="16"></ellipse><g id="Group-49" transform="translate(417.722426, 231.406404) scale(-1, 1) translate(-417.722426, -231.406404) translate(324.222426, 54.906404)"><path d="M186.654522,78.1002884 C185.161111,82.0848923 182.562575,86.7079786 179.844567,87.8548824 C176.756192,89.1614068 175.465885,91 175.465885,91 L172.974875,89.5693262 L170,87.8548824 C170,87.8548824 170.071684,87.5297293 170.215051,86.9976605 C170.358419,86.4655918 170.585417,85.7266074 170.884099,84.9107686 C170.884099,84.9107686 171.798067,83.7461292 171.236545,82.285896 C170.680996,80.8315748 170.788521,78.5791503 171.744304,77.2016834 C172.700088,75.8301284 173.620029,72.4485358 174.199472,72.5431258 C175.591332,72.7855127 173.512503,77.4322466 174.109868,78.2953803 C174.647496,79.0757478 175.322518,78.8097135 175.447964,78.7505947 L175.465885,78.738771 C179.372649,77.0361509 184.109749,67.8786563 186.206499,69.1142382 C186.989046,69.5753645 187.293702,76.4035803 186.654522,78.1002884" id="Fill-655" fill="#FFC192"></path><path d="M136.6582,109.887866 L169.2062,85.4522281 C169.2062,85.4522281 173.927216,86.9070119 176,91.6853263 C176,91.6853263 156.23515,132.241861 136.775638,133.95685 C117.316127,135.677753 90,85.3516943 90,85.3516943 L103.317493,59 C103.317493,59 127.785744,101.981175 136.6582,109.887866 Z" id="Fill-658" fill="#183573"></path><path d="M55.8557567,353 L41.8291638,353 C40.0634564,352.054635 38.4900538,349.900348 37.9888959,346.680377 C37.3070881,342.234295 32.2372353,339.810722 31.1416809,336.178228 C30.0461265,332.545734 35.6637565,327.429302 35.6637565,327.429302 L36.6019707,326.237569 L37.5809767,325 L46.8931892,327.160016 C46.8931892,327.160016 47.1204585,329.337221 47.2603165,332.116022 C47.36521,334.121342 47.4176568,336.436055 47.3011084,338.470023 C47.0272198,343.311439 48.6822063,348.531001 53.0585965,349.476366 C56.2986404,350.169634 56.152955,352.060364 55.8557567,353" id="Fill-659" fill="#0C0A22"></path><path d="M132,350 L99.0655512,350 C97.4804388,348.049622 98.0666313,340.845904 98.3058935,338.496997 C98.353746,338.026008 98.3896353,337.748245 98.3896353,337.748245 C98.3896353,337.748245 109.634961,328.666609 111.178203,335.622755 C111.226055,335.840135 111.279889,336.051476 111.345686,336.262818 C113.289692,342.76609 122.022764,345.71883 127.059235,346.54608 C130.337127,347.083491 131.551383,348.798374 132,350" id="Fill-660" fill="#0C0A22"></path><path d="M122.341106,215.108239 C119.648489,249.372678 116.419707,291.453674 116.101542,299.423381 C115.5477,313.265814 113.33233,335.413706 113.33233,335.413706 C113.33233,335.413706 108.070829,340.67383 97.547825,338.453151 C97.547825,338.453151 86,166 86,166 L126,168.909856 C126,168.909856 124.314905,189.89145 122.341106,215.108239 Z" id="Fill-661" fill="#233E88"></path><path d="M79,273 C62.5893338,309.695086 52.5791488,333 52.5791488,333 C52.5791488,333 35.0383825,328.092853 34,324.978196 C39,315.734159 44.8589817,288.730402 55.3498434,252.5 C65.840705,216.269598 66.6629787,191.995386 66.8419622,187.680508 C67.2608552,177.718314 69.5500166,158 69.5500166,158 L109.59392,169" id="Fill-663" fill="#2B4690"></path><path d="M111,60.1534378 C98.9120219,63.9612396 78,53.6891697 78,53.6891697 C78,53.6891697 89.1442623,45.347985 88.5612022,28 L97.9021858,35.5136624 L104.255738,40.6167164 C104.255738,40.6167164 104.225683,43.620982 103.534426,48.8979356 C103.348087,50.283136 103.119672,51.8302428 102.831148,53.5212666 C108.02459,56.3576292 111,60.1534378 111,60.1534378" id="Fill-664" fill="#FFC192"></path><path d="M104,42.0658992 C104,42.0658992 103.969442,44.944237 103.266616,50 C96.1100076,48.8452178 88,37.9753272 88,37.9753272 C91.6424752,36.9871554 94.8326967,36.8090546 97.540107,37.1767465 L104,42.0658992" id="Fill-665" fill="#F8B888"></path><path d="M107.210665,41.5927592 C107.210665,41.5927592 87.8070687,44.9673487 85.9841474,32.2881843 C84.161226,19.6090198 80.4335855,11.5087821 92.7441475,8.81889189 C105.060552,6.12900165 108.168867,10.5856607 109.75808,14.6632898 C111.353136,18.7409189 112.212013,40.3884219 107.210665,41.5927592" id="Fill-666" fill="#FFC192"></path><path d="M126.604,169.946951 C126.250971,170.247007 125.839104,170.42351 125.362515,170.42351 C120.920234,170.364676 107.964073,172.829843 97.0025248,171.706103 C87.7590508,170.817702 79.5805475,168.081896 70.7960112,164.139983 C69.6310157,163.616356 66.9421121,162.186677 67.0009502,160.88055 C67.042137,159.456755 67.1833485,157.38578 67.359863,154.77941 C67.9835474,145.71301 69.0661694,130.115977 68.0129665,112.124379 C67.8188006,108.776695 67.7246595,105.452544 67.7070081,102.181344 C67.6187509,77.7944336 72.4552471,56.3492491 82.1694263,49.0890687 C82.9990442,48.49484 88.0944283,50.9835404 92.7779454,53.2957373 C97.1025496,55.4255471 101.427154,55.6608852 105.516406,54.8372018 L109.599773,58.4496417 C114.577481,63.0681519 120.031778,69.3516792 122.397072,78.8887558 C124.415221,87.0020369 125.597867,101.640067 126.250971,116.807607 C126.545162,123.67948 126.786398,130.610187 126.845236,137.187887 L126.845236,137.423225 C126.904074,138.076288 126.904074,138.788186 126.904074,139.435366 C127.139427,156.320875 126.904074,169.711613 126.604,169.946951" id="Fill-667" fill="#213F7E"></path><path d="M67.6552388,111.674084 C67.4604381,108.352229 67.3659892,105.053727 67.3482801,101.807767 C71.4095798,92.0640494 74.732998,85 74.732998,85 L84.9688901,85 C84.9688901,85 92.4716691,135.691852 67,154 C67.6257235,145.003554 68.7118851,129.526864 67.6552388,111.674084 Z" id="Fill-668" fill="#183573"></path><path d="M13.9354141,214.67452 L57.4456207,220.895738 C63.105772,221.704378 68.4011318,217.720202 69.2072033,212.036109 L71.8960693,193.12455 C72.7021407,187.440458 68.7306209,182.134124 63.0645859,181.325484 L19.5543793,175.104266 C13.894228,174.295625 8.59886818,178.279802 7.79279674,183.957992 L5.10393069,202.875454 C4.29785925,208.553644 8.26937912,213.865879 13.9354141,214.67452" id="Fill-669" fill="#070616"></path><path d="M32.2850743,172.268618 C32.3674099,171.697134 32.8143745,171.267047 33.3554369,171.178673 C33.4789403,171.155107 33.6083248,171.155107 33.7435904,171.172782 L35.6725955,171.449687 L42.8299102,172.468932 L46.7290882,173.028634 C47.4348218,173.128791 47.9229542,173.782757 47.8229752,174.483857 L47.240745,178.560839 L31.7087252,176.339709 L32.2850743,172.268618 Z M66.260265,186.602864 L66.260265,186.596972 C65.0369934,183.539235 62.3963736,181.117791 59.0559014,180.292968 L59.0441391,180.292968 C58.7147968,180.216377 58.3795733,180.145678 58.0384688,180.098545 L49.3814702,178.861311 L49.9578193,174.79022 C50.0872038,173.882915 49.8578404,172.969718 49.2991346,172.233269 C48.74631,171.496819 47.9405975,171.0196 47.0349061,170.889985 L44.7765586,170.565948 L35.6843577,169.269797 L34.0435271,169.034134 C32.167452,168.769012 30.4148803,170.076946 30.1502302,171.962255 L29.5738811,176.033346 L14.6240915,173.900589 C8.94293619,173.08755 3.63229101,177.082049 2.8206974,182.773328 L0.103623121,201.873872 C-0.702089381,207.565151 3.27942422,212.885259 8.96057953,213.698299 L52.3749568,219.896255 C53.1395015,220.008195 53.8981651,220.02587 54.6391854,219.966954 L54.6450665,219.966954 C55.8389325,219.87858 56.9798684,219.578109 58.0384688,219.112673 C61.2260321,217.698691 63.6490507,214.717545 64.1783509,211.017625 L66.8954252,191.922972 C67.1600753,190.061229 66.9130685,188.240726 66.260265,186.602864 L66.260265,186.602864 Z" id="Fill-670" fill="#201E37"></path><path d="M47,158.033748 C47,158.033748 44.753441,161.133446 44.6607994,162.374525 C44.058629,170.774289 47.7642933,171.937425 38.1700969,176.601962 C38.1700969,176.601962 34.0707058,178.22076 34.0012246,174.929204 C33.9317434,171.631652 36.8441639,171.577692 36.3114747,166.967115 C35.697724,161.649064 35.7614151,161.601099 39.1312536,158.82516 L41.3604422,155 L47,158.033748" id="Fill-671" fill="#FFC192"></path><path d="M42.0998155,159.516154 C45.8147161,160.22973 49.8386965,159.94313 49.8386965,159.94313 C49.8386965,159.94313 60.8526337,126.451807 62.2732117,123.386936 C63.6937897,120.327914 95,84.1168099 95,84.1168099 L81.959213,52 C81.959213,52 48.0912072,107.658999 44.6556671,115.484949 C38.9733552,128.40537 37,157.381272 37,157.381272 C37,157.381272 39.1873335,158.960499 42.0998155,159.516154" id="Fill-672" fill="#213F7E"></path><path d="M85.7478855,32 C85.7478855,32 87.7517649,31.6538197 87.4285586,28.8054237 C87.1053522,25.9509543 87.1112287,22.2279975 89.3560437,22.9203582 C91.6008587,23.6187921 91.7125118,25.4711606 92.6292426,24.3901062 C93.5518498,23.3029785 93.5694792,18.7358276 100.24516,18.4200139 C106.92084,18.1042003 109.629897,20.5031692 112.732678,19.0941546 C115.835459,17.6851399 116,12.8264687 116,12.8264687 C116,12.8264687 115.118528,14.5634437 113.784567,15.1100442 C113.784567,15.1100442 118.961745,7.79167066 112.967737,2.77509263 C106.973728,-2.24755875 100.86219,1.03811766 97.3891907,1.25675787 C89.7497678,1.73655165 84.8076489,2.2102721 82.3101453,7.40297696 C79.8126416,12.5896085 80.846902,27.0077153 85.7478855,32" id="Fill-673" fill="#1B2251"></path><path d="M44.2141084,162 C44.2141084,162 46.635366,163.984459 46.7907408,164.808773 C47.282761,167.459806 48.4092285,168.604686 47.8459947,168.889634 C46.6677357,169.49006 45.1204615,167.525955 44.3759572,165.770472 C43.6379268,164.009901 44.2141084,162 44.2141084,162" id="Fill-674" fill="#FFC192"></path></g></g></g></g></svg>