<svg xmlns="http://www.w3.org/2000/svg" xmlns:xlink="http://www.w3.org/1999/xlink" width="164px" height="138px" viewBox="0 0 164 138"><title>Step_1_illustration</title><desc>Created with Sketch.</desc><defs><linearGradient x1="44.6128362%" y1="0%" x2="44.6128362%" y2="113.053919%" id="linearGradient-1"><stop stop-color="#EAF0F7" offset="0%"></stop><stop stop-color="#FFFFFF" offset="100%"></stop></linearGradient><path d="M16.3149135,3.29561409 C17.4716296,3.3959816 19.0497977,4.90149437 18.9123497,6.17435644 C18.8759177,6.51062613 19.0497977,6.88539998 18.5380937,7.21824707 C16.7305695,8.39561881 10.4650929,9.18538198 8.24936474,8.12951226 C6.43190457,7.26359642 1.01430009,3.21715116 0.10846801,1.3984712 C-0.170568015,0.838706233 0.56552405,0.218874775 0.821376073,0.0657137714 C1.32480012,-0.410283247 5.31079247,3.25445741 9.56754085,4.39067248" id="path-2"></path><linearGradient x1="37.4073115%" y1="52.1128661%" x2="88.5189192%" y2="44.0123975%" id="linearGradient-4"><stop stop-color="#03086B" offset="0%"></stop><stop stop-color="#000446" offset="100%"></stop></linearGradient><path d="M0.951386611,13.0985156 C1.40462586,11.3244034 3.59597527,11.3426847 3.49451621,10.0555185 C2.59385913,-1.33203835 12.5950614,-6.1790625 13.0649333,12.6306818 L13.0665965,12.6298509 C14.8645842,21.7214489 12.5493216,21.936669 18.0580497,40.6101349 C17.9748866,40.7364418 19.0293955,41.461044 18.8722171,41.9081037 C18.4963196,42.9800497 19.2913595,45.2577273 17.9166723,45.4397088 C17.6488869,45.4422017 15.9190931,45.8286009 15.1573185,45.3034304 C14.9128188,45.1347443 14.6849517,44.8729901 14.9602218,44.5181676 C15.1423491,44.2830043 15.6396649,44.0586435 15.7128485,43.8658594 C15.9007972,43.3689418 15.6030731,42.2296875 15.4891395,42.0767898 C9.70597302,34.3031037 7.58448068,24.6946449 7.0439201,22.2823509 C6.39358415,29.9987003 6.51333911,30.7498935 7.70839379,42.7955753 C7.69342442,42.7955753 7.84561302,45.1737997 7.59529189,45.5510582 C7.30422081,45.9923011 5.99190606,45.7587997 3.27413382,45.8302628 C-0.550540154,45.9308097 -0.0856580603,44.8563707 0.192938544,44.5896307 C0.580478894,44.2198509 3.42881731,43.4703196 4.08414305,43.1130043" id="path-5"></path><path d="M39.8886912,27.2884305 C41.1660606,27.2884305 42.7910786,27.6609118 43.4736181,29.0082679 C45.0691339,32.1590508 44.1314394,39.1715428 44.0764217,46.9231578 C42.307879,49.0012112 34.3358817,48.7893182 31.4940935,47.1083556 L31.4590097,29.8162979 C31.6607416,29.4939535 32.8360491,27.2884305 35.5287311,27.2884305" id="path-7"></path><path d="M0,20.5612981 C0.870588294,12.941713 3.66383028,6.68555018 9.79223663,1.88414407 C11.3920785,0.630850705 12.9141445,-0.179124341 13.7889143,0.146316477 C15.5351087,0.796538659 12.6682723,7.13356711 13.3916718,8.99759782" id="path-9"></path><path d="M0.0800293478,11.1680341 L13.5241514,0.0433628788 C15.1999174,1.08976439 21.805168,-0.599881061 22.1341775,1.23818598 C22.2990865,2.15826591 21.2578966,3.51272803 19.7753327,4.86459508" id="path-11"></path><path d="M16.2786787,12.7699569 C17.4970571,17.9467905 15.8565766,30.1495012 15.246967,39.7210685 L15.341982,39.7121163 C15.341982,39.7121163 15.4184985,40.5381635 16.0735135,40.8840453 C16.7293694,41.230741 17.8712312,41.5001219 18.2588589,41.8590251 C18.5388589,42.1178261 19.6084084,43.584365 15.7783784,43.4867043 C13.0574174,43.4175279 12.4091291,43.2336002 12.1173574,42.8063344 C12.076997,42.7469241 9.8554955,22.6882199 9.57213213,21.0393809 C9.08612613,23.1407147 3.5845045,41.0687869 3.58618619,41.0801806 C3.63159159,41.3975781 4.06714715,42.239902 4.55147147,42.7640147 C4.7003003,43.2775475 5.05513514,44.1825371 2.41741742,44.1609563 C-0.221141141,44.1385898 0.321201201,43.493215 0.0386786787,43.0789707 C1.20912913,32.4209275 3.09093093,15.2480984 3.6812012,12.4118675 L3.84600601,12.2645625 C4.31603604,-5.97765174 14.3296096,-1.27691431 13.4282282,9.76688884" id="path-13"></path><path d="M0.339166667,4.06667234 C-0.464166667,2.9166383 0.66,-0.140093617 0.935,0.028493617 C3.25083333,0.827106383 5.055,4.71806809 5.4325,4.74339574 C5.83,4.76951489 5.9775,2.5596766 6.27666667,0.934748936 C6.7325,0.334008511 7.89166667,0.208161702 8.23166667,1.03131064 C8.545,1.78876596 9.4925,10.2695745 6.57,9.85641702" id="path-15"></path><path d="M0.215785441,2.17989362 C1.72375479,-0.018962766 7.1462069,-0.479840426 10.8078161,0.524361702 C14.5073563,3.30776596 14.5174713,14.8437234 14.6607663,18.1663298 C11.5866667,19.1235372 6.87984674,19.5085638 1.73302682,18.6436968" id="path-17"></path><path d="M6.86189744,2.74904124 C6.97,4.91016548 4.00851282,6.56480168 4.34589744,8.91076963 C4.44353846,9.34722879 9.05882051,10.4660625 10.773641,11.1753086 C11.419641,11.4415813 11.283641,11.8780405 11.152,12.1573417 C10.9253333,12.6385868 10.705641,12.7029157 9.94282051,13.0009456 C8.32564103,13.6328343 0.834307692,12.5897294 0.185692308,10.8324928 C-0.438512821,9.08177042 1.86476923,3.07638561 4.14625641,0.524402417" id="path-19"></path><path d="M3.33076923,11.8493454 L2.2957265,15.1677258 L0.469230769,12.4312847 L0.588888889,1.49878386 L0.0666666667,0.606808511 L0.697435897,0.019895361 L1.34529915,0.557070108 L1.12222222,1.51867922" id="path-21"></path><linearGradient x1="50.0128306%" y1="77.5679965%" x2="50.0128306%" y2="5.50046517%" id="linearGradient-23"><stop stop-color="#A1BDE4" offset="0%"></stop><stop stop-color="#DDEBFF" offset="100%"></stop></linearGradient><path d="M5.39520249,0.0622069253 L6.50323988,0.338775553 L8.40666667,4.25444931 L8.62373832,8.49544848 C7.07264798,7.7422403 5.80666667,7.26223821 4.0741433,7.52115353 L1.02785047,7.97509595 C0.140124611,6.99155403 -0.405794393,4.98496037 0.436573209,3.84758239 C0.436573209,3.84758239 0.558878505,3.79882562 0.75894081,3.71560284 C1.29919003,3.48863162 2.40965732,3.005267 3.21395639,2.53283062" id="path-24"></path><linearGradient x1="53.3385762%" y1="95.1760338%" x2="43.9854171%" y2="22.2860346%" id="linearGradient-26"><stop stop-color="#022E9F" offset="0%"></stop><stop stop-color="#23A0FA" offset="100%"></stop></linearGradient><path d="M0.0852173913,0.134209066 L3.07913043,0.0585013876 C3.82695652,0.343265495 4.12173913,1.96839963 3.84782609,2.35812211 L1.22399523,3.87034536 C0.539192925,2.44578133 0.245867174,1.26595745 0.0852173913,0.134209066 Z" id="path-27"></path><linearGradient x1="52.0361636%" y1="57.2615419%" x2="51.7683218%" y2="0.470192739%" id="linearGradient-29"><stop stop-color="#A1BDE4" offset="0%"></stop><stop stop-color="#DDEBFF" offset="100%"></stop></linearGradient></defs><g id="Welcome" stroke="none" stroke-width="1" fill="none" fill-rule="evenodd"><g id="8_HOURS" transform="translate(-488.000000, -5499.000000)"><g id="Step_1_illustration" transform="translate(488.000000, 5499.000000)"><path d="M39.9768744,126.040325 C23.7542189,123.895649 8.67218789,117.282858 3.71665195,108.652131 C-1.23888398,100.021405 -1.23888398,88.955362 3.71665195,77.2717587 C8.67218789,65.5881555 13.7083488,47.8915899 12.2410735,33.0803332 C10.7737982,18.2690765 25.4837968,0 51.0217667,0 C73.2140801,0.27500751 85.4598378,25.647546 108.281014,4.78831403 C118.569324,-3.92627453 126.363456,2.8151465 131.66341,25.0125771 C131.516496,39.91426 137.705935,50.8630466 150.231727,57.8589372 C169.020416,68.3527731 163.944432,102.625654 161.451056,108.652131 C158.95768,114.678609 150.231727,126.011284 127.65225,126.040325 C105.072774,126.069365 56.1995298,128.185 39.9768744,126.040325 Z" id="Path-20" fill="url(#linearGradient-1)"></path><ellipse id="Oval" fill="#E6EEF6" cx="43" cy="128" rx="19" ry="6"></ellipse><path d="M92.2303744,137.04362 C102.723785,137.04362 110.230223,135.313708 113.621937,133 C117.013651,130.686292 122.306534,123.118929 111.813124,123.118929 C101.319714,123.118929 81.7047349,128.847897 81.7047349,132.161605 C81.7047349,135.475314 81.7369641,137.04362 92.2303744,137.04362 Z" id="Oval-Copy-2" fill="#E6EEF6"></path><g id="Group-24" transform="translate(26.000000, 20.000000)"><path d="M7,69.1031048 C14.9507078,81.967222 29.1799879,90.5380974 45.4133333,90.5380974 C56.5959347,90.5380974 66.8285299,86.4706515 74.7116031,79.7331963 C74.9311555,79.5459002 75.1496673,79.3565231 75.3650575,79.1650649 C84.67366,70.8980253 90.5381004,58.8413622 90.5381004,45.4132758 C90.5381004,29.1802228 81.9672353,14.9497809 69.1031337,7 C83.3407381,14.7621727 93,29.8632291 93,47.2207867 C93,60.8433489 87.0502359,73.0758622 77.6074047,81.4625632 C77.3888929,81.6561024 77.1672595,81.8486011 76.9445856,82.0390188 C68.9460133,88.8732436 58.5656624,93 47.2207381,93 C29.8636177,93 14.7623714,83.3407264 7,69.1031048 Z" id="Fill-4-Copy" fill="#D2DEF2"></path><path d="M90,45.4998426 C90,59.0396201 84.1517744,71.1965672 74.8689095,79.5323698 C74.6541149,79.7254205 74.4362073,79.9163728 74.217262,80.1052267 C66.355985,86.8987222 56.1516822,91 45,91 C20.1471165,91 0,70.6289562 0,45.4998426 C0,20.3709389 20.1471165,0 45,0 C69.8528835,0 90,20.3709389 90,45.4998426" id="Fill-5-Copy" fill="#FFFFFE"></path><path d="M82,44.4997949 C82,64.6583389 65.4343874,81 44.9994802,81 C24.564573,81 8,64.6583389 8,44.4997949 C8,24.3415586 24.564573,8 44.9994802,8 C65.4343874,8 82,24.3415586 82,44.4997949" id="Fill-6-Copy" fill="#E05A60"></path><path d="M73,44.9999482 C73,60.4639456 60.4640151,73 45,73 C29.5359849,73 17,60.4639456 17,44.9999482 C17,29.5360544 29.5359849,17 45,17 C60.4640151,17 73,29.5360544 73,44.9999482" id="Fill-7-Copy" fill="#FFFFFE"></path><path d="M64,44.9999475 C64,55.4937983 55.4938688,64 45,64 C34.5071807,64 26,55.4937983 26,44.9999475 C26,34.5066215 34.5071807,26 45,26 C55.4938688,26 64,34.5066215 64,44.9999475" id="Fill-8-Copy" fill="#E05959"></path><path d="M55,44.9999452 C55,50.5232141 50.7471233,55 45.5,55 C40.2539178,55 36,50.5232141 36,44.9999452 C36,39.4771147 40.2539178,35 45.5,35 C50.7471233,35 55,39.4771147 55,44.9999452" id="Fill-9-Copy" fill="#FFFFFE"></path><polygon id="Fill-656-Copy" fill="#FFC761" points="84.4227103 40.9639561 65.056168 40.9639561 41.1023622 63.3980973 23.4410554 63.3980973 4 89.9273458 10.0278492 94 26.5200718 69.5873917 43.6734908 69.5873917 67.6272966 47.154114 86.975853 47.1705221 97 37.7825188 92.9266197 33"></polygon><polyline id="Fill-657-Copy" fill="#FFC761" points="99.4534687 43 90 31.9908448 102 30 99.4534687 43"></polyline><g id="Group-35-Copy" transform="translate(44.000000, 4.000000)"><path d="M25.1167155,27.2329545 C24.8261407,26.9986815 24.7498359,26.7837198 24.4037667,26.672843 C24.1509589,26.592079 23.879653,26.2854701 23.6607585,26.1244329 C23.4896508,25.9988272 22.7212076,25.5761865 22.9154379,25.2534575 C22.9370191,25.2172896 22.9639955,25.1975691 23.0056163,25.1879952 C22.9023351,25.0418507 23.1520599,24.8956244 23.2414675,24.844973 C23.1536014,24.6880272 23.384828,24.4967137 23.5042951,24.4778115 C23.3378119,24.2502483 24.056156,23.6997925 24.194892,23.9932271 C24.4538658,23.9125448 24.4214941,24.0145841 24.5771867,24.1669476 C24.6164952,24.1492728 25.7217586,25.3909283 25.7942096,25.5153066 C25.9051984,25.7029378 25.963005,25.9237911 26.1533816,26.0301673 L25.1167155,27.2329545" id="Fill-479" fill="#F4B1B1"></path><g id="Group-482" transform="translate(24.845713, 25.238636)"><mask id="mask-3" fill="white"><use xlink:href="#path-2"></use></mask><g id="Clip-481"></g><path d="M16.3149135,3.29561409 C17.4716296,3.3959816 19.0497977,4.90149437 18.9123497,6.17435644 C18.8759177,6.51062613 19.0497977,6.88539998 18.5380937,7.21824707 C16.7305695,8.39561881 10.4650929,9.18538198 8.24936474,8.12951226 C6.43190457,7.26359642 1.01430009,3.21715116 0.10846801,1.3984712 C-0.170568015,0.838706233 0.56552405,0.218874775 0.821376073,0.0657137714 C1.32480012,-0.410283247 5.31079247,3.25445741 9.56754085,4.39067248 C13.0766052,5.3281205 15.2749454,3.20534322 16.3149135,3.29561409" id="Fill-480" fill="url(#linearGradient-4)" mask="url(#mask-3)"></path></g><g id="Group-485" transform="translate(0.000000, 0.642045)" fill="#294595"><path d="M6.39739617,42.7065261 L4.52785625,40.4103244 L51.5624539,4.47103026 C51.7606761,2.97268392 50.6108227,0.425594827 48.0199513,0.0822445597 L3.64942747,39.3369914 L1.90819737,36.995929 L0.35531951,42.0610309 L0.0455287818,43.1160873 L1.14985341,43.0770419 L6.39739617,42.7065261 Z" id="Fill-483"></path></g><path d="M40.2302234,78.4204545 C40.7502636,78.4204545 41.2930837,78.4204545 41.8131238,78.4204545 C40.7323518,83.4073379 39.6854942,89.0614417 38.6063498,94.0458773 C37.5280192,99.029497 36.4488749,104.01638 35.372172,109 C34.8521318,109 34.3329055,109 33.814493,109 C34.2385007,107.03772 34.6641361,105.072177 35.0897714,103.106633 C33.416528,103.106633 31.7432845,103.106633 30.0741102,103.106633 C28.4033082,103.106633 26.7300647,103.106633 25.0608904,103.106633 C24.6376965,105.072177 24.2112473,107.03772 23.7864257,109 C23.2663856,109 22.7463454,109 22.2303744,109 C23.3095188,104.01638 24.389477,99.029497 25.4669937,94.0458773 C26.5445104,89.0622576 28.098283,83.4073379 29.1749859,78.4204545 C29.6933984,78.4204545 30.2109971,78.4204545 30.7302234,78.4204545 C30.3070296,80.3859981 29.4075798,83.0163143 28.9819444,84.9818578 C30.6511187,84.9818578 32.3243622,84.9818578 33.9951642,84.9818578 C35.6643385,84.9818578 37.337582,84.9818578 39.0108255,84.9818578 C39.4364609,83.0163143 39.8070296,80.3859981 40.2302234,78.4204545 Z M28.6971024,86.2946679 C28.1852006,88.6608266 27.6757402,91.0245375 27.1638384,93.3874325 C28.8330127,93.3874325 30.5062562,93.3874325 32.1770582,93.3874325 C33.8462325,93.3874325 35.519476,93.3874325 37.1927195,93.3874325 C37.7021798,91.0245375 38.2140816,88.6608266 38.7259834,86.2946679 C37.0535538,86.2946679 35.3803103,86.2946679 33.711136,86.2946679 C32.0395202,86.2946679 30.3670905,86.2946679 28.6971024,86.2946679 Z M26.8789964,94.7010585 C26.3670946,97.0672171 25.8576342,99.4301121 25.3449186,101.793823 C27.0149067,101.793823 28.6873364,101.793823 30.3565107,101.793823 C32.0281265,101.793823 33.70137,101.793823 35.372172,101.793823 C35.8840738,99.4301121 36.3959756,97.0672171 36.9078774,94.7010585 C35.234634,94.7010585 33.5622043,94.7010585 31.89303,94.7010585 C30.2214142,94.7010585 28.5481707,94.7010585 26.8789964,94.7010585 L26.8789964,94.7010585 Z" id="Fill-518" fill="#5591C8"></path><polygon id="Fill-519" fill="#5591C8" points="28.7687198 78.4204545 50.3452597 78.4204545 50.3452597 77.0909091 28.7687198 77.0909091"></polygon><g id="Group-523" transform="translate(30.730223, 31.886364)"><mask id="mask-6" fill="white"><use xlink:href="#path-5"></use></mask><g id="Clip-522"></g><path d="M4.08414305,43.1130043 C3.42881731,43.4703196 0.580478894,44.2198509 0.192938544,44.5896307 C-0.0856580603,44.8563707 -0.550540154,45.9308097 3.27413382,45.8302628 C5.99190606,45.7587997 7.30422081,45.9923011 7.59529189,45.5510582 C7.84561302,45.1737997 7.69342442,42.7955753 7.70839379,42.7955753 C6.51333911,30.7498935 6.39358415,29.9987003 7.0439201,22.2823509 C7.58448068,24.6946449 9.70597302,34.3031037 15.4891395,42.0767898 C15.6030731,42.2296875 15.9007972,43.3689418 15.7128485,43.8658594 C15.6396649,44.0586435 15.1423491,44.2830043 14.9602218,44.5181676 C14.6849517,44.8729901 14.9128188,45.1347443 15.1573185,45.3034304 C15.9190931,45.8286009 17.6488869,45.4422017 17.9166723,45.4397088 C19.2913595,45.2577273 18.4963196,42.9800497 18.8722171,41.9081037 C19.0293955,41.461044 17.9748866,40.7364418 18.0580497,40.6101349 C12.5493216,21.936669 14.8645842,21.7214489 13.0665965,12.6298509 C12.5950614,-6.1790625 2.59385913,-1.33203835 3.49451621,10.0555185 C3.59597527,11.3426847 1.40462586,11.3244034 0.951386611,13.0985156 C-1.39630955,26.5186151 2.61963971,38.5883949 4.08414305,43.1130043 Z" id="Fill-521" fill="#1F3F82" mask="url(#mask-6)"></path><rect id="Rectangle" fill="#041948" mask="url(#mask-6)" transform="translate(3.675129, 44.928061) rotate(7.000000) translate(-3.675129, -44.928061) " x="-0.824871423" y="42.9280606" width="9" height="4"></rect><rect id="Rectangle-Copy-19" fill="#041948" mask="url(#mask-6)" transform="translate(17.073374, 43.892593) rotate(-22.000000) translate(-17.073374, -43.892593) " x="13.5733738" y="41.3925931" width="7" height="5"></rect></g><path d="M38.9405697,19.4984089 C38.9405697,19.4984089 36.3888851,18.5089588 35.2121888,20.5254717 C34.9176067,21.0301082 34.4590053,21.1088915 34.4679814,21.7935436 C34.4712455,22.0215068 34.4671654,22.5334286 34.3953559,22.9699557 C34.3349707,23.3349849 34.0640531,23.8752856 34.0061159,24.170257 C33.9343064,24.5374887 34.4614533,24.734108 34.4728775,24.8954019 C34.5626394,26.1767737 34.3839317,26.9173365 34.9518794,27.1361507 C36.385621,27.3449687 38.6541478,27.311507 39.3126734,26.0497886 C39.970383,24.7884939 40.5660753,22.9643646 40.5366987,21.7453418 C40.5081381,20.5262342 39.6105195,19.8502229 38.9405697,19.4984089" id="Fill-525" fill="#F4B1B1"></path><path d="M36.032505,26.4521936 C36.032505,26.4521936 36.1320318,27.1757107 35.9669436,27.5319526 C35.8018554,27.8883711 39.0736031,27.8977273 39.0736031,27.8977273 C39.0736031,27.8977273 39.339008,25.9593158 39.8429615,24.3215386 C40.3469149,22.6837614 36.032505,26.4521936 36.032505,26.4521936" id="Fill-526" fill="#F4B1B1"></path><path d="M38.984109,26.5681818 C38.341738,26.3743904 37.7342693,26.1741079 37.1982676,25.5679651 C37.0079662,25.3523946 36.7029854,23.5005717 36.5974471,23.4623942 C36.191914,23.316773 35.9991196,24.7487287 35.9991196,24.7487287 C35.9384558,24.6737402 35.7240552,24.6122462 35.6758565,24.3749819 C35.6542503,24.2696735 35.790536,23.6788188 35.7024489,23.5289272 C35.6367991,23.4191776 35.1963635,23.0284346 35.0999663,22.8817885 C34.3196476,21.6898302 33.4263114,20.4006772 34.4816946,19.4798049 C34.5249071,19.4423106 34.8157608,19.2302418 35.151489,19.2257151 C35.6151928,19.2195657 35.9816684,19.0482367 36.1678147,18.9579601 C38.7273268,17.7140735 43.7416436,19.6139813 41.0965375,24.9284277 C40.7267378,25.6728465 39.5915776,26.5040402 38.984109,26.5681818" id="Fill-527" fill="#041948"></path><path d="M35.9608998,27.7426498 C35.9608998,27.7426498 35.9720537,26.8813558 36.250106,26.798743 C36.528955,26.7162419 39.5046723,26.4451827 39.8464616,26.6332942 L39.883907,27.7292532 C39.883907,27.7292532 39.0083211,28.0992245 35.9608998,27.7426498" id="Fill-528" fill="#DBDCDC"></path><path d="M36.0720305,23.3679874 C36.1460258,23.1176197 36.9005538,22.0926655 37.1998985,22.8593937 C37.4992432,23.6259392 36.7480786,24.6567414 36.3287718,24.5685644 C35.909465,24.4804789 35.8859211,24.0031355 36.0720305,23.3679874" id="Fill-529" fill="#F4B1B1"></path><path d="M18.7971866,28.2532217 C18.7971866,28.2532217 19.6430208,29.5435488 19.8162737,29.5232442 C20.0164954,29.5009746 19.9739993,30.0126024 20.5329854,29.8653937 C20.8476194,29.7825377 22.2303744,29.3338706 22.2303744,29.3338706 L21.719605,28.545674 C21.6689366,28.300299 21.3788196,28.0782579 21.2022977,27.5870166 C21.0993266,27.3021785 21.1083161,26.8037324 21.0355825,26.4760744 C21.0020761,26.3275558 20.8075751,26.3278015 20.6776353,26.4677233 C20.5403405,26.6157507 20.54933,27.015703 20.4251109,27.0545929 C20.2363305,27.1139513 19.417465,25.8698008 19.177199,25.9041058 C17.9121253,26.6986068 18.2496417,27.25461 18.7971866,28.2532217" id="Fill-530" fill="#F4B1B1"></path><path d="M33.6986322,32.3504039 C32.2095241,33.9837938 27.2886019,36.2260289 24.6585524,34.5942286 C23.2838653,33.4647653 18.7143792,29.527143 19.8136385,28.6389922 C20.9128978,27.7509209 21.6754323,28.0069379 21.6754323,28.0069379 C21.6754323,28.0069379 26.6838049,30.863264 27.1194222,31.3353971 C27.447974,31.6906892 32.7146113,27.2646396 34.4374653,28.013694" id="Clip-532"></path><path d="M24.6585524,34.5942286 C23.2838653,33.4647653 18.7143792,29.527143 19.8136385,28.6389922 C20.9128978,27.7509209 21.6754323,28.0069379 21.6754323,28.0069379 C21.6754323,28.0069379 26.6838049,30.863264 27.1194222,31.3353971 C27.447974,31.6906892 32.7146113,27.2646396 34.4374653,28.013694 C34.8044299,28.1729793 34.7431329,32.3639161 33.6986322,32.3504039 C32.2095241,33.9837938 27.2886019,36.2260289 24.6585524,34.5942286 Z" id="Fill-531" fill="#146ECD"></path><mask id="mask-8" fill="white"><use xlink:href="#path-7"></use></mask><g id="Clip-535"></g><path d="M35.5287311,27.2884305 L39.8886912,27.2884305 C41.1660606,27.2884305 42.7910786,27.6609118 43.4736181,29.0082679 C45.0691339,32.1590508 44.1314394,39.1715428 44.0764217,46.9231578 C42.307879,49.0012112 34.3358817,48.7893182 31.4940935,47.1083556 L31.4590097,29.8162979 C31.6607416,29.4939535 32.8360491,27.2884305 35.5287311,27.2884305" id="Fill-534" fill="#146ECD" mask="url(#mask-8)"></path><g id="Group-574" mask="url(#mask-8)"><g transform="translate(36.614734, -8.000000)"><mask id="mask-10" fill="white"><use xlink:href="#path-9"></use></mask><g id="Clip-573" stroke="none" fill="none"></g><path d="M0,20.5612981 L13.3916718,8.99759782 C12.6682723,7.13356711 15.5351087,0.796538659 13.7889143,0.146316477 C12.9141445,-0.179124341 11.3920785,0.630850705 9.79223663,1.88414407 C3.66383028,6.68555018 0.870588294,12.941713 0,20.5612981" id="Fill-572" stroke="none" fill="#3250A5" fill-rule="evenodd" mask="url(#mask-10)"></path></g></g><g id="Group-577" mask="url(#mask-8)"><g transform="translate(37.922403, 3.301136)"><mask id="mask-12" fill="white"><use xlink:href="#path-11"></use></mask><g id="Clip-576" stroke="none" fill="none"></g><path d="M0.0800293478,11.1680341 L13.5241514,0.0433628788 C15.1999174,1.08976439 21.805168,-0.599881061 22.1341775,1.23818598 C22.2990865,2.15826591 21.2578966,3.51272803 19.7753327,4.86459508 C14.0964825,10.0436129 7.58257861,11.6749947 0.0800293478,11.1680341" id="Fill-575" stroke="none" fill="#3250A5" fill-rule="evenodd" mask="url(#mask-12)"></path></g></g></g><g id="Group-36-Copy" transform="translate(6.000000, 46.000000)"><g id="Group-539" transform="translate(2.000000, 17.808511)"><mask id="mask-14" fill="white"><use xlink:href="#path-13"></use></mask><g id="Clip-538"></g><path d="M15.246967,39.7210685 L15.341982,39.7121163 C15.341982,39.7121163 15.4184985,40.5381635 16.0735135,40.8840453 C16.7293694,41.230741 17.8712312,41.5001219 18.2588589,41.8590251 C18.5388589,42.1178261 19.6084084,43.584365 15.7783784,43.4867043 C13.0574174,43.4175279 12.4091291,43.2336002 12.1173574,42.8063344 C12.076997,42.7469241 9.8554955,22.6882199 9.57213213,21.0393809 C9.08612613,23.1407147 3.5845045,41.0687869 3.58618619,41.0801806 C3.63159159,41.3975781 4.06714715,42.239902 4.55147147,42.7640147 C4.7003003,43.2775475 5.05513514,44.1825371 2.41741742,44.1605635 C-0.221141141,44.1385898 0.321201201,43.493215 0.0386786787,43.0789707 C1.20912913,32.4209275 3.09093093,15.2480984 3.6812012,12.4118675 L3.84600601,12.2645625 C4.31603604,-5.97765174 14.3296096,-1.27691431 13.4282282,9.76688884 C13.3264865,11.0153188 15.8254655,11.0495 16.2786787,12.7699569 C17.4970571,17.9467905 15.8565766,30.1495012 15.246967,39.7210685 Z" id="Fill-537" fill="#1F3F82" mask="url(#mask-14)"></path><rect id="Rectangle" fill="#041948" mask="url(#mask-14)" transform="translate(15.030791, 42.214837) rotate(-6.000000) translate(-15.030791, -42.214837) " x="11.030791" y="39.7148365" width="8" height="5"></rect><rect id="Rectangle-Copy-15" fill="#041948" mask="url(#mask-14)" transform="translate(2.000000, 43.691489) rotate(-6.000000) translate(-2.000000, -43.691489) " x="-2" y="41.1914894" width="8" height="5"></rect></g><g id="Group-542" transform="translate(13.333333, 12.531915)"><mask id="mask-16" fill="white"><use xlink:href="#path-15"></use></mask><g id="Clip-541"></g><path d="M6.57,9.85641702 C9.4925,10.2695745 8.545,1.78876596 8.23166667,1.03131064 C7.89166667,0.208161702 6.7325,0.334008511 6.27666667,0.934748936 C5.9775,2.5596766 5.83,4.76951489 5.4325,4.74339574 C5.055,4.71806809 3.33333333,1.03131064 1.13948453,0.383258985 C0.864484534,0.214671751 -0.464166667,2.9166383 0.339166667,4.06667234 C1.48083333,6.44588936 3.30333333,9.39418723 6.57,9.85641702 Z" id="Fill-540" fill="#146ECD" mask="url(#mask-16)"></path></g><g id="Group-545" transform="translate(4.000000, 12.531915)"><mask id="mask-18" fill="white"><use xlink:href="#path-17"></use></mask><g id="Clip-544"></g><path d="M1.73302682,18.6436968 C6.87984674,19.5085638 11.5866667,19.1235372 14.6607663,18.1663298 C14.5174713,14.8437234 14.5073563,3.30776596 10.8078161,0.524361702 C7.1462069,-0.479840426 1.72375479,-0.018962766 0.215785441,2.17989362 C-0.884214559,3.78513298 2.65095785,10.488883 1.73302682,18.6436968 Z" id="Fill-543" fill="#146ECD" mask="url(#mask-18)"></path></g><path d="M4.66666667,20.671877 C5.18141131,23.4415477 5.87146132,27.233378 5.44265067,30.9154299 C5.62654942,30.9455173 5.80958884,30.9731653 5.99262825,31 C6.20058853,30.3998776 6.42401692,30.0006092 6.6405706,27.2032906 C6.85798361,24.4043457 5.6454549,19.1276596 5.6454549,19.1276596 L4.66666667,20.671877" id="Fill-546" fill="#146CCB"></path><path d="M5.33333333,25.7234043 C5.39350726,26.4371172 5.42751861,27.1744681 5.42664653,27.9301193 C6.07460637,28.0330587 7.24843401,27.8813184 9.1321396,27.8592055 C11.4736903,27.831755 12.4565311,28.3617021 12.4565311,28.3617021 C12.4565311,28.3617021 12.7486799,27.0913541 12.6440296,26.8625999 C12.5393793,26.6338458 10.5327096,26.2137007 9.48795066,25.9849465 C8.54435369,25.7790678 6.3571622,25.7813553 5.33333333,25.7234043" id="Fill-547" fill="#146CCB"></path><path d="M13.7088322,9.92144979 C13.3290996,10.634433 12.7962349,11.1839722 12.2022942,11.4516536 L12.2226528,12.4873555 L12.3828663,12.6157759 C13.0095578,13.247871 12.3315272,14.5470849 11.6180903,14.5070578 C9.81413939,14.5904476 8.42886798,13.1970032 8.97146949,12.4398233 L9.20692138,12.1929894 L9.25826051,10.7269958 C9.16531898,10.7219924 8.48817352,10.3592465 8.28635763,10.3008736 C8.08542688,10.2416668 7.78889914,9.87641927 7.76854052,9.48949035 C7.74906705,9.10339534 8.38283979,9.22848011 8.38283979,9.22848011 C7.61540828,8.23780867 6.74618366,7.4289271 7.87298909,6.53748958 C9.00067969,5.64605206 11.5906504,5.12569938 11.5906504,5.12569938 L13.1494127,4.61702128 C12.9511374,5.12403158 13.2157995,6.81434389 13.6158907,7.87005942 C13.9752646,8.81736814 14.2186829,8.96413428 13.7088322,9.92144979" id="Fill-548" fill="#F4B1B1"></path><g id="Group-552" transform="translate(0.000000, 13.851064)"><mask id="mask-20" fill="white"><use xlink:href="#path-19"></use></mask><g id="Clip-551"></g><path d="M4.34589744,0.659574468 C2.06441026,3.21155766 -0.438512821,9.08177042 0.185692308,10.8324928 C0.834307692,12.5897294 8.32564103,13.6328343 9.94282051,13.0009456 C10.705641,12.7029157 10.9253333,12.6385868 11.152,12.1573417 C11.283641,11.8780405 11.419641,11.4415813 10.773641,11.1753086 C9.05882051,10.4660625 4.44353846,9.34722879 4.34589744,8.91076963 C4.00851282,6.56480168 6.97,4.91016548 6.86189744,2.74904124 C6.77384615,1.00971894 5.66492308,-0.815103756 4.34589744,0.659574468 Z" id="Fill-550" fill="#146ECD" mask="url(#mask-20)"></path></g><g id="Group-555" transform="translate(11.333333, 14.510638)"><mask id="mask-22" fill="white"><use xlink:href="#path-21"></use></mask><g id="Clip-554"></g><path d="M3.33076923,11.8493454 L2.2957265,15.1677258 L0.469230769,12.4312847 L0.588888889,1.49878386 L0.0666666667,0.606808511 L0.697435897,0.019895361 L1.34529915,0.557070108 L1.12222222,1.51867922 C1.87948718,3.47422742 2.88205128,9.2878177 3.33076923,11.8493454" id="Fill-553" fill="url(#linearGradient-23)" mask="url(#mask-22)"></path></g><path d="M10.3317118,25.2842277 L11.0577777,25.5210537 L12.6836467,25.235648 C12.8651632,25.1532361 14.0476134,24.8765053 13.7329848,25.2686128 C13.5125719,25.5436086 12.8323173,25.9964407 12.8487403,26.026803 C13.06656,26.4249829 15.2680956,27.0209516 15.290569,27.0573864 C15.5956896,27.5605332 14.1764036,27.2638501 13.9326529,27.2239453 C13.8695543,27.2135354 14.8653019,27.6472826 14.8194906,27.6880548 C14.7650356,27.739237 14.6250086,27.8780361 14.3579201,27.8277214 C14.0303261,27.7661293 13.486641,27.5709431 13.4209493,27.6177878 C13.3535289,27.667235 14.3224812,28.0801623 14.2559251,28.1209346 C14.2040633,28.1521644 14.1020683,28.2206964 13.897214,28.1764542 C13.5592476,28.1035847 13.0682888,27.890181 12.9853098,27.9240133 C12.9006021,27.9578456 13.6119738,28.2120215 13.5315879,28.2371788 C13.4684894,28.2562637 13.4520664,28.3699055 13.3889679,28.3612305 C11.6878992,28.135682 11.7155588,27.2595126 9.76123145,27.0539164 C8.67386133,26.9394071 9.95744211,25.4533891 10.3317118,25.2842277" id="Fill-556" fill="#F4B1B1"></path><path d="M19.9711696,13.1793787 C19.8532253,12.9438441 19.2877616,11.9492775 19.3362777,11.7067003 C19.3622087,11.5830642 19.4065424,11.6018443 19.4776436,11.621407 C19.5395435,11.6386222 19.700985,11.6519248 19.7495012,11.729393 C19.8507158,11.8921545 19.9954277,11.8788519 20.0364154,11.9766652 C20.3233297,11.4148251 20.2354988,10.7778643 20.278996,10.1581187 C20.2957257,9.90693389 21.0092473,9.73869486 21.0954052,10.1088207 C21.269394,10.8623751 22.45302,11.3068391 21.8105997,12.1409917 C21.3036899,12.7982977 21.5387421,12.988447 21.3154007,13.7122661 C21.1062795,13.7052235 20.3283486,14.0683068 19.9184711,13.647318 L19.9711696,13.1793787" id="Fill-557" fill="#F4B1B1"></path><path d="M19.3333333,10.5848241 C20.1877396,11.4791456 20.4683021,12.5974337 20.9239356,12.9758599 C21.0391533,13.0723972 21.1386594,13.1326365 21.2187132,13.1681622 C21.3324346,13.2191339 21.4543857,13.1851528 21.5254616,13.0801202 C21.6511536,12.893224 21.8337062,12.626781 21.9661317,12.4290727 C22.0701269,12.274613 21.9115155,12.1309655 21.8015351,12.031339 C21.6840729,11.9247618 21.5800777,11.7679852 21.5254616,11.6421006 C21.2838037,11.0883626 21.2680922,10.9647949 21.0571093,10.6087653 C20.7765468,10.1361187 20.5356371,9.89361702 20.5356371,9.89361702 L19.4006683,10.4612563 L19.3333333,10.5848241" id="Fill-558" fill="#000446"></path><path d="M20.9112939,10.4266609 C21.103989,10.8394558 21.1183387,10.9830366 21.3383665,11.6273556 C21.3889319,11.7727312 21.4839129,11.9548994 21.5911935,12.0796353 C21.691641,12.1953973 21.836504,12.3614127 21.7415231,12.5417861 C21.6390256,12.7356202 21.503729,12.9868867 21.3950818,13.1914894 C21.4620467,13.1861051 21.5242285,13.1421334 21.5665941,13.0622666 C21.6813913,12.8451006 21.8481204,12.5355044 21.9690674,12.3057751 C22.0640483,12.126299 21.9191853,11.9593863 21.8187378,11.8436243 C21.7114572,11.7197858 21.6164762,11.5376176 21.5665941,11.3913446 C21.345883,10.747923 21.3315333,10.6043422 21.1388382,10.1906499 C21.0875895,10.0811695 21.0377074,9.98156028 20.9905586,9.89361702 L20.6666667,9.95463888 C20.7390982,10.0793747 20.8231461,10.2373136 20.9112939,10.4266609" id="Fill-559" fill="#000446"></path><g id="Group-562" transform="translate(18.000000, 2.638298)"><mask id="mask-25" fill="white"><use xlink:href="#path-24"></use></mask><g id="Clip-561"></g><path d="M5.39520249,0.0622069253 C5.19757009,0.604415937 4.03121495,2.05282854 3.21395639,2.53283062 C2.40965732,3.005267 1.29919003,3.48863162 0.75894081,3.71560284 C0.558878505,3.79882562 0.436573209,3.84758239 0.436573209,3.84758239 C-0.405794393,4.98496037 0.140124611,6.99155403 1.02785047,7.97509595 L4.0741433,7.52115353 C5.80666667,7.26223821 7.07264798,7.7422403 8.62373832,8.49544848 L8.40666667,4.25444931 L6.50323988,0.338775553 L5.39520249,0.0622069253" id="Fill-560" fill="url(#linearGradient-26)" mask="url(#mask-25)"></path></g><path d="M24.9155074,0.0506700767 C25.86908,-0.203791107 26.8278164,0.545903077 27.4672608,1.27868687 C28.3950146,2.34243125 29.0766297,3.79511472 29.4897297,5.17451981 C29.8744291,6.46051509 30.1024947,7.93735627 29.9544672,9.27005646 C29.8511922,10.1920756 29.5258759,11.2864198 28.7134459,11.7075691 C28.6187771,11.7566898 28.5198052,11.7945369 28.4173909,11.8219156 C27.4638183,12.0755715 26.505082,11.3266826 25.8656375,10.5938988 C24.9378837,9.53015444 24.2562686,8.07747097 23.8440292,6.69806588 C23.4593298,5.4120706 23.2312642,3.93522942 23.3784311,2.60172397 C23.4817061,1.68051007 23.8070224,0.585360666 24.6203131,0.165016558 C24.7141212,0.115895887 24.8130931,0.0772435548 24.9155074,0.0506700767" id="Fill-563" fill="#1B83E1"></path><path d="M25.3683117,0.701899533 C26.7580075,0.324703888 28.6156172,2.51061081 29.5172075,5.5838414 C30.41792,8.65624117 30.0219928,11.4536371 28.6322971,11.8300019 C27.2417234,12.2071975 25.3841137,10.0221214 24.4834012,6.94889084 C23.5818109,3.87566025 23.9777381,1.07909518 25.3683117,0.701899533" id="Fill-564" fill="#1A47B6"></path><path d="M18.6023853,6.59574468 C17.8472738,7.73433278 18.5273057,9.79787369 19.3333333,10.5107915 C16.5493449,10.9532646 15.5689943,7.81114547 18.230439,6.73736808 L18.6023853,6.59574468" id="Fill-565" fill="#000446"></path><path d="M22,12.0476767 C22,12.0476767 21.4297942,12.6686148 21.310074,12.5042073 C21.1903538,12.3405054 21.54184,11.796479 21.54184,11.796479 L20.7552169,12.1013031 C20.7552169,12.1013031 20.5618227,12.0349757 20.6915196,11.8148249 C20.8212165,11.5946741 21.108238,11.3039621 21.108238,11.3039621 L20.2548479,11.5332859 C20.2548479,11.5332859 20.1190115,11.4274442 20.2264527,11.3413595 C20.3331265,11.2552749 20.7644261,11.0337129 20.7644261,11.0337129 L20.01464,11.2009429 C20.01464,11.2009429 19.9417335,11.0520588 20.1213138,10.913759 C20.3008941,10.7754591 20.6094038,10.6096404 20.6094038,10.6096404 L21.0360989,10.5531915 L21.1918887,10.6124629 C21.1918887,10.6124629 21.4328639,10.9081141 21.4413057,10.9560957 C21.4489801,11.0040772 21.8257918,11.5819731 21.8257918,11.5819731 L22,12.0476767" id="Fill-566" fill="#F4B1B1"></path><g id="Group-569" transform="translate(24.000000, 5.000000)"><mask id="mask-28" fill="white"><use xlink:href="#path-27"></use></mask><g id="Clip-568"></g><path d="M3.07913043,0.0585013876 C3.82695652,0.343265495 4.12173913,1.96839963 3.84782609,2.35812211 C3.11836557,4.00723976 2.26329311,4.52027399 1.2826087,3.89722479 C-0.188417919,2.962651 0.279130435,1.60792784 0.0852173913,0.134209066 L3.07913043,0.0585013876 Z" id="Fill-567" fill="url(#linearGradient-29)" mask="url(#mask-28)"></path></g><path d="M27.8921555,7.34400684 C27.4588454,7.61830972 26.4606787,5.11173537 27.0791304,5.05850139 C27.5675891,5.06885244 28.1938969,6.83606592 27.8921555,7.34400684 Z" id="Fill-570" fill="#FFFFFF"></path><path d="M9.50010533,7.55163788 C9.13589298,7.96387192 9.17248441,8.55650937 9.5800959,9.47321993 C9.7009327,9.74341689 9.86091383,9.94177902 9.38522527,9.73035601 C9.16737863,9.63403202 8.80827206,9.49852538 8.68573332,9.59321677 C8.41257406,9.80545608 8.55043013,10.2503423 8.76827677,10.3931957 C8.86528661,10.4576838 9.04909471,10.5531915 9.04909471,10.5531915 C7.4728691,10.7263947 7.01792521,8.81527926 6.88349857,8.21883628 C6.74907193,7.62239331 7.0285088,6.33866905 7.33333333,5.71689568 C7.63815787,5.0951223 8.02888265,4.59622462 8.66360827,4.13785022 C9.29833389,3.67947582 9.84941173,3.59545917 10.5346866,3.46750661 C11.2199615,3.33955405 12.2793237,3.42757989 12.8220462,3.81937336 C13.3647687,4.21116682 13.6720439,4.90511928 13.6720439,5.44006708 C13.6720439,5.85068378 13.7038647,6.30187487 13.2537051,6.62921319 C13.1635029,6.70512956 13.0630893,6.77533179 12.952464,6.83655467 C11.6896343,7.4577628 10.2353377,6.72145566 9.50010533,7.55163788 Z" id="Fill-571" fill="#041948"></path></g></g></g></g></g></svg>