<svg xmlns="http://www.w3.org/2000/svg" xmlns:xlink="http://www.w3.org/1999/xlink" width="191px" height="138px" viewBox="0 0 191 138"><title>Step-3-illustration</title><desc>Created with Sketch.</desc><defs><linearGradient x1="50%" y1="0%" x2="50%" y2="100%" id="linearGradient-1"><stop stop-color="#EAF0F7" offset="0%"></stop><stop stop-color="#FFFFFF" offset="100%"></stop></linearGradient></defs><g id="Welcome" stroke="none" strokeWidth="1" fill="none" fillRule="evenodd"><g id="8_HOURS" transform="translate(-1255.000000, -5499.000000)"><g id="Step-3-illustration" transform="translate(1255.000000, 5499.000000)"><path d="M119.780906,5.69702795 C96.5142523,14.8970809 74.8303377,-7.10329834 51.4743579,2.46791249 C30.0257538,11.2579476 27.9580341,40.2179846 30.0337312,49.6545439 C34.2258097,68.7172046 21.1797104,71.5537601 9.07732738,79.7435059 C-9.90628667,92.5907247 4.05321504,137.740054 21.9878123,137.955891 C39.9216118,138.171728 148.569437,137.525313 148.569437,137.525313 C148.569437,137.525313 174.622547,137.616249 185.456537,117.867732 C197.115381,96.6160259 189.7244,65.1674017 169.467606,41.4352164 C161.625109,32.2473623 152.152542,-7.10329834 119.780906,5.69702795 Z" id="Fill-171" fill="url(#linearGradient-1)"></path><g id="Group-28" transform="translate(24.000000, 19.000000)"><g id="Group-32"><polygon id="Fill-15" fill="#EAEDF1" points="0.384360902 75.7272727 0.698345865 75.7272727 0.698345865 74.6454545 0.384360902 74.6454545"></polygon><polygon id="Fill-16" fill="#EAEDF1" points="142.917293 75.7272727 144 75.7272727 144 74.6454545 142.917293 74.6454545"></polygon><polygon id="Fill-22" fill="#EAEDF1" points="0.384360902 31.3727273 0.698345865 31.3727273 0.698345865 30.2909091 0.384360902 30.2909091"></polygon><polygon id="Fill-23" fill="#EAEDF1" points="142.917293 31.3727273 144 31.3727273 144 30.2909091 142.917293 30.2909091"></polygon><polyline id="Fill-59" fill="#C4D3EA" points="0.698345865 27.0454545 0.384360902 27.0233097 0.384360902 25.9636364 0.698345865 25.9857812 0.698345865 27.0454545"></polyline><path d="M135.338346,104.395657 C135.338346,107.084185 105.042087,109.263636 67.6691729,109.263636 C30.2966775,109.263636 0,107.084185 0,104.395657 C0,101.707128 30.2966775,99.5272727 67.6691729,99.5272727 C105.042087,99.5272727 135.338346,101.707128 135.338346,104.395657" id="Fill-70" fill="#DBE6F6"></path><path d="M80.6524235,86.5454545 C80.6524235,86.5454545 80.0546581,99.8545384 85.5338346,106.018182 L64.962406,106.018182 L64.962406,86.5454545 L80.6524235,86.5454545" id="Fill-71" fill="#C7D8F1"></path><path d="M49.2721954,86.5454545 C49.2721954,86.5454545 49.870344,99.8545384 44.3909774,106.018182 L64.962406,106.018182 L64.962406,86.5454545 L49.2721954,86.5454545" id="Fill-72" fill="#C7D8F1"></path><path d="M126.894209,87.6272727 L7.36143017,87.6272727 C3.29588836,87.6272727 0,84.3564627 0,80.3218555 L0,7.30541721 C0,3.27081002 3.29588836,0 7.36143017,0 L126.894209,0 C130.960169,0 134.255639,3.27039536 134.255639,7.30541721 L134.255639,80.3218555 C134.255639,84.3564627 130.960169,87.6272727 126.894209,87.6272727" id="Fill-73" fill="#344554"></path><polygon id="Fill-74" fill="#F4F7FC" points="5.41353383 73.5636364 128.842105 73.5636364 128.842105 7.57272727 5.41353383 7.57272727"></polygon><path d="M27.0676692,65.9909091 L27.8699549,65.9909091 L27.8699549,56.3732338 L27.0676692,56.3732338 L27.0676692,65.9909091 Z M27.8699549,56.0673275 L27.0676692,56.0673275 L27.0676692,47.8483166 L27.8699549,47.7186883 L27.8699549,56.0673275 L27.8699549,56.0673275 Z M27.0676692,47.4842015 L27.0676692,42.169442 L27.8699549,42.169442 L27.8699549,47.3545732 L27.0676692,47.4842015 L27.0676692,47.4842015 Z M27.0676692,41.8639486 L27.8699549,41.8639486 L27.8699549,27.9656502 L27.0676692,27.9656502 L27.0676692,41.8639486 Z M27.0676692,27.6601568 L27.8699549,27.6601568 L27.8699549,20.5545455 L27.0676692,20.5545455 L27.0676692,27.6601568 Z" id="Fill-75" fill="#DFE1E4"></path><polyline id="Fill-76" fill="#DFE1E4" points="12.8517293 65.9909091 12.0505263 65.9909091 12.0505263 20.5545455 12.8517293 20.5545455 12.8517293 27.6601568 12.4511278 27.6601568 12.4511278 27.9656502 12.8517293 27.9656502 12.8517293 41.8639486 12.4511278 41.8639486 12.4511278 42.169442 12.8517293 42.169442 12.8517293 49.8604447 12.4814436 49.8509497 12.420812 50.1853411 12.8517293 50.1969003 12.8517293 56.0673275 12.4511278 56.0673275 12.4511278 56.3732338 12.8517293 56.3732338 12.8517293 65.9909091"></polyline><path d="M43.3082707,65.9909091 L44.1116391,65.9909091 L44.1116391,56.3732338 L43.3082707,56.3732338 L43.3082707,65.9909091 Z M44.1116391,56.0673275 L43.3082707,56.0673275 L43.3082707,45.4695964 L44.1116391,45.5232641 L44.1116391,56.0673275 L44.1116391,56.0673275 Z M44.1116391,45.1830931 L43.3082707,45.1290125 L43.3082707,42.169442 L44.1116391,42.169442 L44.1116391,45.1830931 L44.1116391,45.1830931 Z M43.3082707,41.8639486 L44.1116391,41.8639486 L44.1116391,27.9656502 L43.3082707,27.9656502 L43.3082707,41.8639486 Z M43.3082707,27.6601568 L44.1116391,27.6601568 L44.1116391,20.5545455 L43.3082707,20.5545455 L43.3082707,27.6601568 Z" id="Fill-77" fill="#DFE1E4"></path><path d="M59.5488722,65.9909091 L60.3511579,65.9909091 L60.3511579,56.3732338 L59.5488722,56.3732338 L59.5488722,65.9909091 Z M59.5488722,56.0673275 L60.3511579,56.0673275 L60.3511579,42.169442 L59.5488722,42.169442 L59.5488722,56.0673275 Z M60.3511579,41.8639486 L60.0198496,41.8639486 L60.3511579,41.7797315 L60.3511579,41.8639486 L60.3511579,41.8639486 Z M59.5488722,41.5803351 L59.5488722,27.9656502 L60.3511579,27.9656502 L60.3511579,41.3763976 L59.5488722,41.5803351 L59.5488722,41.5803351 Z M59.5488722,27.6601568 L60.3511579,27.6601568 L60.3511579,20.5545455 L59.5488722,20.5545455 L59.5488722,27.6601568 Z" id="Fill-78" fill="#DFE1E4"></path><path d="M75.7894737,65.9909091 L76.5917594,65.9909091 L76.5917594,56.3732338 L75.7894737,56.3732338 L75.7894737,65.9909091 Z M75.7894737,56.0673275 L76.5917594,56.0673275 L76.5917594,42.169442 L75.7894737,42.169442 L75.7894737,56.0673275 Z M76.5917594,41.8639486 L75.7894737,41.8639486 L75.7894737,30.2382734 L76.5917594,29.9856221 L76.5917594,41.8639486 L76.5917594,41.8639486 Z M75.7894737,29.8035646 L75.7894737,27.9656502 L76.5917594,27.9656502 L76.5917594,29.5509133 L75.7894737,29.8035646 L75.7894737,29.8035646 Z M75.7894737,27.6601568 L76.5917594,27.6601568 L76.5917594,20.5545455 L75.7894737,20.5545455 L75.7894737,27.6601568 Z" id="Fill-79" fill="#DFE1E4"></path><path d="M90.9473684,65.9909091 L91.7496541,65.9909091 L91.7496541,56.3732338 L90.9473684,56.3732338 L90.9473684,65.9909091 Z M91.7496541,56.0673275 L90.9473684,56.0673275 L90.9473684,47.6291044 C91.2126316,47.6493331 91.4800602,47.6679104 91.7496541,47.6840107 L91.7496541,56.0673275 L91.7496541,56.0673275 Z M90.9473684,32.3957173 L90.9473684,28.2979775 L91.7496541,28.4713656 L91.7496541,32.3403983 C91.4800602,32.3569114 91.2126316,32.3754887 90.9473684,32.3957173 L90.9473684,32.3957173 Z M91.7496541,28.0861962 L91.1931429,27.9656502 L91.7496541,27.9656502 L91.7496541,28.0861962 L91.7496541,28.0861962 Z M90.9473684,27.6601568 L91.7496541,27.6601568 L91.7496541,20.5545455 L90.9473684,20.5545455 L90.9473684,27.6601568 Z" id="Fill-80" fill="#DFE1E4"></path><path d="M106.105263,65.9909091 L106.907549,65.9909091 L106.907549,56.3732338 L106.105263,56.3732338 L106.105263,65.9909091 Z M106.105263,56.0673275 L106.907549,56.0673275 L106.907549,42.169442 L106.105263,42.169442 L106.105263,56.0673275 Z M106.907549,41.8639486 L106.105263,41.8639486 L106.105263,36.0207681 L106.907549,36.148745 L106.907549,41.8639486 L106.907549,41.8639486 Z M106.907549,35.7854556 L106.105263,35.6574786 L106.105263,27.9656502 L106.907549,27.9656502 L106.907549,35.7854556 L106.907549,35.7854556 Z M106.105263,27.6601568 L106.907549,27.6601568 L106.907549,20.5545455 L106.105263,20.5545455 L106.105263,27.6601568 Z" id="Fill-81" fill="#DFE1E4"></path><polyline id="Fill-82" fill="#DFE1E4" points="124.371609 65.9909091 123.568241 65.9909091 123.568241 56.3732338 123.971008 56.3732338 123.971008 56.0673275 123.568241 56.0673275 123.568241 42.169442 123.971008 42.169442 123.971008 41.8639486 123.568241 41.8639486 123.568241 39.3134915 123.956932 39.3180326 123.982917 38.9824027 123.568241 38.9778616 123.568241 27.9656502 123.971008 27.9656502 123.971008 27.6601568 123.568241 27.6601568 123.568241 20.5545455 124.371609 20.5545455 124.371609 65.9909091"></polyline><path d="M107.610137,58.1379909 L123.428571,58.1379909 L123.428571,57.3363636 L107.610137,57.3363636 L107.610137,58.1379909 Z M102.857143,58.1379909 L107.297657,58.1379909 L107.297657,57.3363636 L102.857143,57.3363636 L102.857143,58.1379909 Z" id="Fill-83" fill="#DFE1E4"></path><polygon id="Fill-84" fill="#D7D9DA" points="106.245474 57.1962682 107.047759 57.1962682 107.047759 56.3946409 106.245474 56.3946409"></polygon><polygon id="Fill-85" fill="#D7D9DA" points="123.768541 57.1962682 124.171308 57.1962682 124.171308 56.3946409 123.768541 56.3946409"></polygon><path d="M91.881043,58.1379909 L95.2781955,58.1379909 L95.2781955,57.3363636 L91.881043,57.3363636 L91.881043,58.1379909 Z M87.4281601,58.1379909 L91.5712227,58.1379909 L91.5712227,57.3363636 L87.4281601,57.3363636 L87.4281601,58.1379909 Z M75.8870402,58.1379909 L83.4857908,58.1379909 L83.4857908,57.3363636 L75.8870402,57.3363636 L75.8870402,58.1379909 Z M59.8926192,58.1379909 L75.5772199,58.1379909 L75.5772199,57.3363636 L59.8926192,57.3363636 L59.8926192,58.1379909 Z M43.8981982,58.1379909 L59.5827989,58.1379909 L59.5827989,57.3363636 L43.8981982,57.3363636 L43.8981982,58.1379909 Z M43.5879598,58.1379909 L41.4443044,58.1379909 C41.5007494,57.8761909 41.5542676,57.6079 41.604859,57.3363636 L43.5879598,57.3363636 L43.5879598,58.1379909 L43.5879598,58.1379909 Z M31.1621169,58.1379909 L27.9041954,58.1379909 L27.9041954,57.3363636 L31.0015622,57.3363636 C31.0521537,57.6079 31.1056719,57.8761909 31.1621169,58.1379909 L31.1621169,58.1379909 Z M11.9097744,58.1379909 L27.5943751,58.1379909 L27.5943751,57.3363636 L11.9097744,57.3363636 L11.9097744,58.1379909 Z" id="Fill-86" fill="#DFE1E4"></path><polygon id="Fill-87" fill="#D7D9DA" points="27.2078797 57.1962682 28.0101654 57.1962682 28.0101654 56.3946409 27.2078797 56.3946409"></polygon><polygon id="Fill-88" fill="#D7D9DA" points="12.2508271 57.1962682 12.6514286 57.1962682 12.6514286 56.3946409 12.2508271 56.3946409"></polygon><polygon id="Fill-89" fill="#D7D9DA" points="42.3652331 57.1962682 43.1686015 57.1962682 43.1686015 56.3946409 42.3652331 56.3946409"></polygon><polygon id="Fill-90" fill="#D7D9DA" points="59.6890827 57.1962682 60.4913684 57.1962682 60.4913684 56.3946409 59.6890827 56.3946409"></polygon><polygon id="Fill-91" fill="#D7D9DA" points="75.9296842 57.1962682 76.7319699 57.1962682 76.7319699 56.3946409 75.9296842 56.3946409"></polygon><polygon id="Fill-92" fill="#D7D9DA" points="91.0875789 57.1962682 91.8898647 57.1962682 91.8898647 56.3946409 91.0875789 56.3946409"></polygon><path d="M107.773047,42.9914545 L123.428571,42.9914545 L123.428571,42.1909091 L107.773047,42.1909091 L107.773047,42.9914545 Z M107.463784,42.9914545 L103.069002,42.9914545 L103.069002,42.1909091 L100.691729,42.1909091 L107.463784,42.1909091 L107.463784,42.9914545 L107.463784,42.9914545 Z" id="Fill-93" fill="#DFE1E4"></path><polygon id="Fill-94" fill="#D7D9DA" points="106.245474 43.1320909 107.047759 43.1320909 107.047759 42.3315455 106.245474 42.3315455"></polygon><polygon id="Fill-95" fill="#D7D9DA" points="123.768541 43.1320909 124.171308 43.1320909 124.171308 42.3315455 123.768541 42.3315455"></polygon><path d="M75.7821308,42.9914545 L83.3684211,42.9914545 L83.3684211,42.1909091 L75.7821308,42.1909091 L75.7821308,42.9914545 Z M59.8139373,42.9914545 L75.4728185,42.9914545 L75.4728185,42.1909091 L59.8139373,42.1909091 L59.8139373,42.9914545 Z M59.5046251,42.9914545 L59.2232803,42.9914545 L59.5046251,42.5046364 L59.5046251,42.9914545 L59.5046251,42.9914545 Z M58.611752,42.9914545 L43.8457439,42.9914545 L43.8457439,42.1909091 L59.0750943,42.1909091 L58.611752,42.9914545 L58.611752,42.9914545 Z M27.8779679,42.9914545 L43.5360142,42.9914545 L43.5360142,42.1909091 L27.8779679,42.1909091 L27.8779679,42.9914545 Z M11.9097744,42.9914545 L27.5686556,42.9914545 L27.5686556,42.1909091 L11.9097744,42.1909091 L11.9097744,42.9914545 Z" id="Fill-96" fill="#DFE1E4"></path><polygon id="Fill-97" fill="#D7D9DA" points="27.2078797 43.1320909 28.0101654 43.1320909 28.0101654 42.3315455 27.2078797 42.3315455"></polygon><polygon id="Fill-98" fill="#D7D9DA" points="12.2508271 43.1320909 12.6514286 43.1320909 12.6514286 42.3315455 12.2508271 42.3315455"></polygon><polygon id="Fill-99" fill="#D7D9DA" points="42.3652331 43.1320909 43.1686015 43.1320909 43.1686015 42.3315455 42.3652331 42.3315455"></polygon><polyline id="Fill-100" fill="#D7D9DA" points="60.4913684 43.1320909 59.6890827 43.1320909 59.6890827 42.6452727 60.1600602 42.3315455 60.4913684 42.3315455 60.4913684 43.1320909"></polyline><polygon id="Fill-101" fill="#D7D9DA" points="75.9296842 43.1320909 76.7319699 43.1320909 76.7319699 42.3315455 75.9296842 42.3315455"></polygon><path d="M107.763102,28.9278182 L123.428571,28.9278182 L123.428571,28.1272727 L107.763102,28.1272727 L107.763102,28.9278182 Z M91.7877563,28.9278182 L107.453643,28.9278182 L107.453643,28.1272727 L91.7877563,28.1272727 L91.7877563,28.9278182 Z M90.8861075,28.9278182 L78.2880817,28.9278182 L78.6626899,28.1272727 L90.3411091,28.1272727 L90.8861075,28.9278182 L90.8861075,28.9278182 Z M77.7551943,28.9278182 L75.8124105,28.9278182 L75.8124105,28.1272727 L78.1298025,28.1272727 L77.7551943,28.9278182 L77.7551943,28.9278182 Z M59.8366471,28.9278182 L75.5029516,28.9278182 L75.5029516,28.1272727 L59.8366471,28.1272727 L59.8366471,28.9278182 Z M43.8608837,28.9278182 L59.5271882,28.9278182 L59.5271882,28.1272727 L43.8608837,28.1272727 L43.8608837,28.9278182 Z M27.8855379,28.9278182 L43.5510072,28.9278182 L43.5510072,28.1272727 L27.8855379,28.1272727 L27.8855379,28.9278182 Z M11.9097744,28.9278182 L27.576079,28.9278182 L27.576079,28.1272727 L11.9097744,28.1272727 L11.9097744,28.9278182 Z M91.4782974,28.7893455 L91.0280995,28.1272727 L91.4782974,28.1272727 L91.4782974,28.7893455 L91.4782974,28.7893455 Z" id="Fill-102" fill="#DFE1E4"></path><polygon id="Fill-103" fill="#D7D9DA" points="27.2078797 27.9866364 28.0101654 27.9866364 28.0101654 27.1860909 27.2078797 27.1860909"></polygon><polygon id="Fill-104" fill="#D7D9DA" points="12.2508271 27.9866364 12.6514286 27.9866364 12.6514286 27.1860909 12.2508271 27.1860909"></polygon><polygon id="Fill-105" fill="#D7D9DA" points="42.3652331 27.9866364 43.1686015 27.9866364 43.1686015 27.1860909 42.3652331 27.1860909"></polygon><polygon id="Fill-106" fill="#D7D9DA" points="59.6890827 27.9866364 60.4913684 27.9866364 60.4913684 27.1860909 59.6890827 27.1860909"></polygon><polygon id="Fill-107" fill="#D7D9DA" points="75.9296842 27.9866364 76.7319699 27.9866364 76.7319699 27.1860909 75.9296842 27.1860909"></polygon><polyline id="Fill-108" fill="#D7D9DA" points="91.8898647 27.9866364 91.3333534 27.9866364 91.0875789 27.8481636 91.0875789 27.1860909 91.8898647 27.1860909 91.8898647 27.9866364"></polyline><polygon id="Fill-109" fill="#D7D9DA" points="106.245474 27.9866364 107.047759 27.9866364 107.047759 27.1860909 106.245474 27.1860909"></polygon><polygon id="Fill-110" fill="#D7D9DA" points="123.768541 27.9866364 124.171308 27.9866364 124.171308 27.1860909 123.768541 27.1860909"></polygon><path d="M11.9097744,56.7954545 C11.9097744,57.0941252 11.6672385,57.3363636 11.368271,57.3363636 C11.0693034,57.3363636 10.8270677,57.0941252 10.8270677,56.7954545 C10.8270677,56.4964837 11.0693034,56.2545455 11.368271,56.2545455 C11.6672385,56.2545455 11.9097744,56.4964837 11.9097744,56.7954545" id="Fill-111" fill="#FF441D"></path><path d="M11.9097744,42.7319682 C11.9097744,43.030556 11.6672385,43.2727273 11.368271,43.2727273 C11.0693034,43.2727273 10.8270677,43.030556 10.8270677,42.7319682 C10.8270677,42.4330803 11.0693034,42.1909091 11.368271,42.1909091 C11.6672385,42.1909091 11.9097744,42.4330803 11.9097744,42.7319682" id="Fill-112" fill="#FF441D"></path><path d="M11.9097744,28.6680317 C11.9097744,28.9667853 11.6672385,29.2090909 11.368271,29.2090909 C11.0693034,29.2090909 10.8270677,28.9667853 10.8270677,28.6680317 C10.8270677,28.3692781 11.0693034,28.1272727 11.368271,28.1272727 C11.6672385,28.1272727 11.9097744,28.3692781 11.9097744,28.6680317" id="Fill-113" fill="#FF441D"></path><polygon id="Fill-114" fill="#D6DADD" points="114.766917 65.9909091 118.015038 65.9909091 118.015038 43.2727273 114.766917 43.2727273"></polygon><polygon id="Fill-115" fill="#467BCA" points="110.43609 65.9909091 113.684211 65.9909091 113.684211 45.4363636 110.43609 45.4363636"></polygon><polygon id="Fill-116" fill="#D6DADD" points="99.6090226 65.9909091 102.857143 65.9909091 102.857143 41.1090909 99.6090226 41.1090909"></polygon><polygon id="Fill-117" fill="#467BCA" points="95.2781955 65.9909091 98.5263158 65.9909091 98.5263158 40.0272727 95.2781955 40.0272727"></polygon><polygon id="Fill-118" fill="#D6DADD" points="83.3684211 67.0727273 86.6165414 67.0727273 86.6165414 30.2909091 83.3684211 30.2909091"></polygon><polygon id="Fill-119" fill="#467BCA" points="79.037594 65.9909091 82.2857143 65.9909091 82.2857143 33.5363636 79.037594 33.5363636"></polygon><polygon id="Fill-120" fill="#D6DADD" points="67.1278195 65.9909091 70.3759398 65.9909091 70.3759398 46.5181818 67.1278195 46.5181818"></polygon><polygon id="Fill-121" fill="#467BCA" points="63.8796992 65.9909091 67.1278195 65.9909091 67.1278195 43.2727273 63.8796992 43.2727273"></polygon><polygon id="Fill-122" fill="#D6DADD" points="51.9699248 67.0727273 55.2180451 67.0727273 55.2180451 24.8818182 51.9699248 24.8818182"></polygon><polygon id="Fill-123" fill="#467BCA" points="48.7218045 65.9909091 51.9699248 65.9909091 51.9699248 33.5363636 48.7218045 33.5363636"></polygon><polygon id="Fill-124" fill="#D6DADD" points="36.8120301 67.0727273 40.0601504 67.0727273 40.0601504 53.0090909 36.8120301 53.0090909"></polygon><polygon id="Fill-125" fill="#467BCA" points="32.481203 65.9909091 35.7293233 65.9909091 35.7293233 50.8454545 32.481203 50.8454545"></polygon><polygon id="Fill-126" fill="#D6DADD" points="21.6541353 65.9909091 24.9022556 65.9909091 24.9022556 59.5 21.6541353 59.5"></polygon><polygon id="Fill-127" fill="#467BCA" points="16.2406015 65.9909091 19.4887218 65.9909091 19.4887218 56.2545455 16.2406015 56.2545455"></polygon><path d="M19.2010341,51.9272727 C19.0003267,51.9272727 18.8004521,51.9209548 18.6005775,51.9070554 L11.9097744,51.43995 L11.9330931,51.0987819 L18.6234798,51.5654661 C19.9518132,51.6585502 21.2963864,51.4298413 22.5193693,50.9050321 L33.9251314,46.011587 C35.4978949,45.3368324 37.2180658,45.1384495 38.9003439,45.4391828 L48.6317396,47.1736644 C50.7916348,47.5586368 52.986508,47.0936373 54.8103639,45.8620628 L67.2134172,37.492073 C67.4511847,37.3311765 67.6839553,37.1563805 67.9038174,36.9727394 L78.6591542,27.9937015 C81.4598973,25.6552261 85.4644687,25.3022646 88.6233206,27.1159308 L98.6632728,32.8770379 C98.9580878,33.0459371 99.2641458,33.1979886 99.5727023,33.3285591 L113.285767,39.134734 C114.247664,39.5424509 115.264526,39.764842 116.308871,39.7968528 L123.428571,40.0099775 L123.418578,40.3524092 L116.298877,40.1384421 C115.213308,40.1055888 114.155222,39.8739315 113.155016,39.4502092 L99.4423674,33.6440342 C99.1209024,33.5079882 98.8027686,33.35004 98.4958778,33.1744017 L88.456342,27.4128734 C85.4174149,25.6695467 81.56733,26.0094512 78.8744358,28.2573696 L68.1195154,37.2359864 C67.8904924,37.4276302 67.6485609,37.6087441 67.401216,37.7768009 L54.9981628,46.1467907 C53.1018523,47.4263815 50.819534,47.9115983 48.5726101,47.5106205 L38.8416307,45.7757178 C37.2234791,45.4863567 35.5691002,45.6775793 34.0575483,46.3262198 L22.6513698,51.2196649 C21.5641352,51.6863491 20.3823764,51.9272727 19.2010341,51.9272727" id="Fill-128" fill="#FF441D"></path><path d="M91.7496541,46.5181818 C91.6846917,46.5126404 91.6197293,46.507099 91.5558496,46.5011313 C91.620812,46.4793918 91.6857744,46.4572261 91.7496541,46.4346342 L91.7496541,46.5181818 M90.9473684,35.5934729 L90.9473684,34.6949093 C91.2126316,34.6667759 91.4800602,34.6412001 91.7496541,34.6181818 L91.7496541,35.503105 C91.4789774,35.5299596 91.2115489,35.559798 90.9473684,35.5934729" id="Fill-138" fill="#A6BCDE"></path><path d="M91.6960602,46.5181818 C91.4914286,46.497461 91.2878797,46.4752946 91.0875789,46.4512006 L91.0875789,45.4363636 C91.3506767,45.4734683 91.6181053,45.5071998 91.8898647,45.5375582 L91.8898647,46.4430087 C91.825985,46.4685483 91.7610226,46.493606 91.6960602,46.5181818" id="Fill-141" fill="#C1D0E8"></path><path d="M88.7819549,43.1320909 L87.8170193,43.1320909 C87.7749894,42.8692091 87.7355864,42.6009182 87.6992481,42.3315455 L88.6414175,42.3315455 C88.6847608,42.6030818 88.7316066,42.8692091 88.7819549,43.1320909" id="Fill-142" fill="#C1D0E8"></path><path d="M91.8898647,38.9454545 C91.6321805,38.8634283 91.3647519,38.7852712 91.0875789,38.7109832 L91.0875789,35.7820263 C91.3517594,35.7514599 91.619188,35.7243757 91.8898647,35.7 L91.8898647,38.9454545" id="Fill-147" fill="#B8C9E5"></path><path d="M95.2781955,43.1320909 L93.121938,43.1320909 C93.1229554,42.8638 93.1199034,42.5965909 93.112782,42.3315455 L95.2781955,42.3315455 L95.2781955,43.1320909" id="Fill-148" fill="#B8C9E5"></path><path d="M91.7496541,45.4363636 C91.4778947,45.4107801 91.2104662,45.3823539 90.9473684,45.3510852 L90.9473684,42.7322243 L91.7496541,42.7322243 L91.7496541,45.4363636 M91.7496541,42.4317192 L90.9473684,42.4317192 L90.9473684,38.9454545 C91.2245414,39.0234234 91.4919699,39.1054532 91.7496541,39.1915438 L91.7496541,42.4317192" id="Fill-151" fill="#CDD9ED"></path><path d="M93.11265,42.9914545 L91.7454324,42.9914545 L91.7454324,42.1909091 L93.106317,42.1909091 C93.1112427,42.4559545 93.1133537,42.7231636 93.11265,42.9914545 M91.4847252,42.9914545 L88.8948928,42.9914545 C88.8544322,42.7285727 88.8167862,42.4624455 88.7819549,42.1909091 L91.4847252,42.1909091 L91.4847252,42.9914545" id="Fill-152" fill="#CDD9ED"></path><polygon id="Fill-153" fill="#CBD7E9" points="91.0875789 43.1320909 91.8898647 43.1320909 91.8898647 42.3315455 91.0875789 42.3315455"></polygon><path d="M39.716391,54.0909091 C39.7033985,53.7103268 39.4760301,53.3459321 39.0710977,53.0090909 L39.9664962,53.0090909 L39.9664962,54.0409684 C39.8842105,54.0581893 39.8008421,54.0747214 39.716391,54.0909091" id="Fill-176" fill="#D9E3F1"></path></g><g id="Group-26" transform="translate(7.578947, 28.127273)"><path d="M46.556391,88.1687057 C46.556391,89.6616273 36.1347546,90.8727273 23.278441,90.8727273 C10.4221273,90.8727273 0,89.6616273 0,88.1687057 C0,86.6747363 10.4221273,85.4636364 23.278441,85.4636364 C36.1347546,85.4636364 46.556391,86.6747363 46.556391,88.1687057" id="Fill-69" fill="#DBE6F6"></path><path d="M28.3850587,85.1608735 L28.4433525,86.6405146 L28.1503759,87.3937267 L28.1503759,88.1563363 C28.1503759,88.3738891 28.3292776,88.5533819 28.5614477,88.568418 C29.7127502,88.6412488 32.6490489,88.8437656 34.5863126,88.5702975 C34.7219965,88.5510325 34.5863126,88.0567224 34.5863126,88.0567224 L32.6369882,87.0431988 L30.7499778,86.212927 L30.4007175,84.3818182 L28.3850587,85.1608735" id="Fill-168" fill="#000000"></path><path d="M11.2607644,84.3818182 L10.5664285,86.1439259 L9.7443609,87.39649 L9.7443609,88.649054 L12.3179892,88.7090909 C12.3179892,88.7090909 15.0062484,88.5546371 16.1112906,88.2185333 C16.2783242,88.1672197 16.235747,87.7572243 16.235747,87.7572243 L14.4959769,87.0424264 L13.4308918,86.1439259 L14.0223874,84.9395966 L11.2607644,84.3818182" id="Fill-169" fill="#000000"></path><path d="M41.1428571,8.65454545 L41.1428571,5.90293063 C41.5082707,5.75679967 41.8516917,5.59149551 42.1680451,5.40909091 C42.206109,5.61377789 42.2255639,5.82261042 42.2255639,6.03403394 C42.2255639,6.98181238 41.8330827,7.87414396 41.1428571,8.65454545" id="Fill-170" fill="#B0C7EA"></path><path d="M33.5639098,8.65454545 C32.8717475,8.00589882 32.481203,7.26972933 32.481203,6.49090909 C32.481203,5.71164458 32.8717475,4.97591936 33.5639098,4.32727273 L33.5639098,8.65454545" id="Fill-171" fill="#B0C7EA"></path><path d="M34.6563169,3.24545455 L33.5639098,3.24545455 C34.1489147,2.76128678 34.8911148,2.38574879 35.7293233,2.16363636 C35.6407766,2.37604304 35.5810823,2.59740887 35.5532249,2.82586737 C35.2323676,2.93972332 34.9314085,3.08083004 34.6563169,3.24545455" id="Fill-172" fill="#B0C7EA"></path><path d="M37.9123036,10.8181818 C37.906448,10.8181818 37.9005924,10.8181818 37.8947368,10.8181818 L37.8947368,10.2196194 C37.9005924,10.2196194 37.906448,10.2196194 37.9123036,10.2196194 C39.6500307,10.2196194 41.0636347,8.59183136 41.0636347,6.59133103 C41.0636347,6.57704174 41.0636347,6.56275246 41.0632903,6.54846317 C41.090157,6.52980771 41.1166793,6.51075532 41.1428571,6.49090909 L41.1428571,8.59857908 C40.5211332,9.91914745 39.3059297,10.8181818 37.9123036,10.8181818" id="Fill-173" fill="#A1B9DB"></path><path d="M36.8120301,11.9 C35.3995043,11.8919145 34.1723294,10.8939912 33.5639098,9.44072543 L33.5639098,5.29583284 C33.7113637,4.94347442 33.894992,4.61835143 34.108938,4.32727273 L34.8655006,4.32727273 C34.1416673,5.04050065 33.6769118,6.13885463 33.6769118,7.36827914 C33.6769118,9.50583514 35.0818582,11.2467751 36.8120301,11.2582651 L36.8120301,11.9" id="Fill-174" fill="#5A8AD2"></path><path d="M41.6821556,5.40909091 L41.6821556,4.16202386 L41.3113645,4.16202386 C40.7222238,2.72972822 39.2256091,1.70951415 37.4770178,1.70951415 C36.8520085,1.70951415 36.2597293,1.83979852 35.7293233,2.07206268 C35.7544313,1.81732135 35.8082341,1.57048865 35.8880416,1.33364581 C36.3852692,1.17047816 36.9201588,1.08181818 37.4770178,1.08181818 C39.9290808,1.08181818 41.9561015,2.80340341 42.2255639,5.01241037 C42.0578785,5.15892826 41.8758457,5.2917101 41.6821556,5.40909091" id="Fill-175" fill="#DFE9F7"></path><path d="M44.2227975,14.9311968 L40.0601504,10.7716191 L41.0960662,9.73636364 L45.2591448,13.8955098 C45.5451973,14.1811868 45.5451973,14.6450883 45.2591448,14.9311968 C44.9730922,15.2168738 44.5092815,15.2168738 44.2227975,14.9311968" id="Fill-177" fill="#F36F21"></path><path d="M37.3538071,11.9 C34.0700613,11.9 31.3984962,9.23083716 31.3984962,5.94978813 C31.3984962,2.66873909 34.0700613,0 37.3538071,0 C40.6371292,0 43.3082707,2.66873909 43.3082707,5.94978813 C43.3082707,9.23083716 40.6371292,11.9 37.3538071,11.9 M37.3538071,1.43733932 C34.8635661,1.43733932 32.8376505,3.46114019 32.8376505,5.94978813 C32.8376505,8.43801232 34.8635661,10.4622369 37.3538071,10.4622369 C39.8436244,10.4622369 41.8695401,8.43801232 41.8695401,5.94978813 C41.8695401,3.46114019 39.8436244,1.43733932 37.3538071,1.43733932" id="Fill-178" fill="#3C6179"></path><path d="M34.9708881,4.32727273 L34.6466165,4.32727273 C34.9786947,3.90282271 35.3419989,3.53900841 35.7293233,3.24545455 C35.7167127,3.46874798 35.7095067,3.69396635 35.7083057,3.92207214 C35.7077052,3.92207214 35.7077052,3.92207214 35.7077052,3.92207214 C35.4302729,3.92207214 35.1744586,4.0731802 34.9708881,4.32727273" id="Fill-179" fill="#D0DDF2"></path><path d="M37.9127427,10.8181818 C37.9067408,10.8181818 37.9007388,10.8181818 37.8947368,10.8181818 L37.8947368,7.57272727 C38.3752468,7.88142444 38.9503759,8.06092357 39.568578,8.06092357 C40.1451193,8.06092357 40.6835306,7.90381876 41.1425041,7.63164157 C41.1428571,7.64404459 41.1428571,7.6564476 41.1428571,7.66885061 C41.1428571,9.40527215 39.693913,10.8181818 37.9127427,10.8181818" id="Fill-180" fill="#C7D5E9"></path><path d="M36.8120301,10.8181818 C35.019496,10.8074214 33.5639098,9.17702239 33.5639098,7.17519048 C33.5639098,6.02382826 34.0454168,4.99521425 34.79534,4.32727273 L34.9880856,4.32727273 C34.8213963,4.47273732 34.7139585,4.69910414 34.7139585,4.95336827 C34.7139585,5.39215325 35.0327026,5.7476448 35.4260464,5.7476448 C35.5331273,5.7476448 35.6344972,5.72134162 35.725516,5.67431471 C35.9682327,6.24023175 36.3458713,6.72126124 36.8120301,7.06399973 L36.8120301,10.8181818" id="Fill-181" fill="#9CB9E4"></path><path d="M41.1428571,5.40909091 L37.4125703,5.40909091 L37.4125703,3.26253009 L36.2609206,3.26253009 C36.1139292,3.11711257 35.9296479,3.03063322 35.7293233,3.03063322 C35.7301905,2.90008795 35.7353938,2.77119515 35.7444994,2.643404 C36.2574518,2.33604425 36.8302414,2.16363636 37.434684,2.16363636 C39.1257358,2.16363636 40.5731028,3.5137058 41.1428571,5.40909091" id="Fill-182" fill="#ECF2FA"></path><path d="M39.5687599,7.57272727 C38.9504907,7.57272727 38.375299,7.31577388 37.8947368,6.87387322 L37.8947368,5.40909091 L40.9324126,5.40909091 C41.0644701,5.89143337 41.13862,6.41323124 41.1428571,6.95820917 C40.6838337,7.3478314 40.145364,7.57272727 39.5687599,7.57272727" id="Fill-183" fill="#E8EEF7"></path><path d="M36.8120301,7.57272727 C36.3475048,7.16627745 35.9711895,6.59582986 35.7293233,5.92471504 C35.9719008,5.77489575 36.1404958,5.44879066 36.1404958,5.06975257 C36.1404958,4.76822352 36.0334344,4.49977759 35.8673293,4.32727273 L36.8120301,4.32727273 L36.8120301,7.57272727" id="Fill-184" fill="#D7E3F4"></path><path d="M37.3538071,11.0571734 C34.5348103,11.0571734 32.2419923,8.7659901 32.2419923,5.94978813 C32.2419923,3.13358616 34.5348103,0.842402877 37.3538071,0.842402877 C40.1719566,0.842402877 42.4651983,3.13358616 42.4651983,5.94978813 C42.4651983,8.7659901 40.1719566,11.0571734 37.3538071,11.0571734 M37.3538071,0 C34.0700613,0 31.3984962,2.66873909 31.3984962,5.94978813 C31.3984962,9.23083716 34.0700613,11.9 37.3538071,11.9 C40.6371292,11.9 43.3082707,9.23083716 43.3082707,5.94978813 C43.3082707,2.66873909 40.6371292,0 37.3538071,0" id="Fill-185" fill="#0B3A57"></path><polyline id="Fill-186" fill="#FAC5A6" points="40.36704 14.994172 40.6691559 13.8294998 40.0601504 12.609345 41.0872078 11.1311961 42.3365898 10.8181818 45.2520417 11.9158125 45.4736842 12.8035341 45.2472678 14.0347854 44.0742673 14.6358469 43.1726936 16.2272727 40.1508533 15.584137 40.36704 14.994172"></polyline><polyline id="Fill-187" fill="#FAC5A6" points="6.6030532 50.6230175 6.74072277 52.1352855 7.57894737 53.5002743 7.27241216 55.5705327 6.43486574 56.2545455 3.90798481 55.5879936 3.46378003 54.5433748 3.2481203 52.9665774 3.93918087 51.9454928 4.11550643 49.7636364 6.57999524 49.8418309 6.6030532 50.6230175"></polyline><path d="M19.5731869,30.2909091 L24.9022556,29.8788222 C24.9022556,29.8788222 23.47897,28.0947965 23.9323632,26.7279095 C24.3867272,25.3610225 19.4887218,24.8818182 19.4887218,24.8818182 C19.4887218,24.8818182 20.3207517,28.2860452 19.5731869,30.2909091 Z" id="Fill-188" fill="#FAC5A6"></path><path d="M19.6377233,18.3977714 C19.6377233,18.3977714 22.4271137,18.6283053 23.0379335,19.2915583 C23.6493563,19.9537415 24.7690921,21.1138993 24.8854675,22.9522868 C25.0024458,24.7917441 24.5484011,26.6033875 22.2395866,27.0045486 C21.1499998,27.1944315 20.4215987,26.700201 19.8951962,25.9989715 C19.616016,25.6256242 19.3223642,24.9580922 19.2216664,24.8366741 C18.9310295,24.4868616 17.0099318,21.3786656 17.3674996,20.4533207 C17.7250674,19.527441 18.7097355,18.2875858 19.6377233,18.3977714" id="Fill-189" fill="#FAC5A6"></path><path d="M19.606089,25.9636364 C19.606089,25.9636364 18.3469757,24.7802548 17.775048,23.9683574 C17.5158738,23.6011431 16.1271734,20.8171464 16.2480383,19.6532845 C16.3689032,18.4900325 16.5564307,17.0528949 17.2056123,16.6063818 C17.8547939,16.1592588 19.1338437,15.9719917 20.3013737,15.9390522 C21.4695268,15.9055027 22.5330134,16.2885768 23.1105483,15.760325 C23.6880832,15.2320732 23.9790311,15.1454545 23.9790311,15.1454545 C23.9790311,15.1454545 25.1110494,15.8335238 24.8680735,17.3926596 C24.6257207,18.9517954 24.8282006,20.3053643 23.8868249,20.0869877 C23.0376555,19.8893508 23.3367027,20.2449753 23.2276751,20.712838 C23.1180244,21.1813107 23.0756594,21.9785683 23.0756594,21.9785683 C22.7386083,22.1164262 22.2993828,21.7309122 21.9293119,21.7766615 C21.5897687,21.8175308 21.0265632,22.6312582 21.7648359,23.1082708 C22.559803,23.6218828 21.0739123,25.6421714 21.0739123,25.6421714 C21.0739123,25.6421714 19.5319502,25.6879206 19.606089,25.9636364" id="Fill-190" fill="#000000"></path><polygon id="Fill-191" fill="#0C4BA9" points="20.5428324 67.3565821 14.169642 86.5454545 10.8270677 84.9397333 14.5941177 65.9514068 15.5688323 47.6 23.8195489 48.0660089"></polygon><path d="M29.4854703,27.0855894 C32.2313476,26.5431818 34.4374613,23.4491798 34.4374613,23.4491798 C34.4374613,23.4491798 37.5644991,20.4445821 39.4277004,14.2114157 C39.4277004,14.2114157 39.4728726,13.8789122 40.4270594,14.2114157 C41.3812462,14.5439192 41.3657762,14.6413479 41.9721984,14.8356387 C42.5780018,15.029363 43.3044709,15.6111026 43.3044709,15.6111026 C43.3044709,15.6111026 43.3651131,15.8331492 43.0018786,16.5247792 C42.638644,17.2181085 40.1721146,24.3100063 39.2333978,25.4734854 C38.2940621,26.6369645 36.528631,28.5101998 35.4079875,29.4250093 C34.7539179,29.9574681 27.4947966,34.2981401 27.4947966,34.2981401 L26.9558234,34.6181818 L26.2547251,33.285902 L24.6384243,31.3293992 C24.6384243,31.3293992 22.2801845,27.8718157 22.8160638,27.7658904 C24.8271578,27.3688121 26.3038932,27.714063 29.4854703,27.0855894 Z" id="Fill-192" fill="#E86B67"></path><path d="M13.3627537,35.8791428 C13.3627537,35.8791428 10.2414817,39.7201906 9.04446832,42.3043544 L7.47359758,50.7291523 C7.47359758,50.8454545 7.03988049,50.8454545 6.71602314,50.8454545 C6.3915936,50.8454545 3.2481203,50.7291523 3.2481203,50.7291523 C3.2481203,50.7291523 3.88679431,42.8727783 4.83141751,40.4076818 C5.77604071,37.9425853 10.1367683,31.0016876 13.3627537,29.2090909 C13.3627537,29.2090909 14.6919421,30.9571842 13.7192256,35.3517461" id="Fill-193" fill="#E86B67"></path><path d="M30.5714625,65.8803898 L31.3984962,86.4507138 C31.4095145,86.581151 27.6670264,86.5728505 27.4384432,86.4507138 C27.2104121,86.32917 25.0317513,66.4869804 25.0317513,66.4869804 L20.5714286,47.1986788 L28.6742326,46.5181818 L30.5714625,65.8803898 Z" id="Fill-194" fill="#2564C1"></path><path d="M18.7012063,27.2689461 C21.9817934,27.0546367 25.6916703,26.8444262 27.1402336,27.4030358 C28.588797,27.9610598 28.7164237,28.4769245 28.8440504,28.7773089 C28.9722573,29.0776933 28.2175192,32.9305651 28.5307848,37.3403128 C28.8440504,41.7500604 29.2663789,45.4395654 29.8203949,47.5867573 C30.3738308,49.7351204 30.3138893,50.780903 30.3138893,52.1124314 C30.3138893,53.4439597 28.7900838,52.8984469 24.2094235,52.8984469 C19.6287633,52.8984469 17.2594264,52.8984469 15.9390699,52.8984469 C14.6187134,52.8984469 14.1286888,52.1124314 14.1286888,50.5481748 C14.1286888,48.9839183 14.3143277,46.2236096 14.2859017,43.3298483 C14.2545751,40.0642662 14.1716178,39.9629669 14.1286888,37.6863696 C14.0863399,35.4103579 12.3540971,30.4906123 13.2486445,28.9014443 C13.2486445,28.9014443 15.4211995,27.4838409 18.7012063,27.2689461 Z" id="Fill-195" fill="#E86B67"></path><path d="M35.7293233,4.01408636 L34.6466165,4.01408636 C34.944295,3.72848636 35.3183689,3.55864091 35.7240547,3.55864091 C35.7240547,3.55864091 35.7240547,3.55864091 35.7249328,3.55864091 C35.7240547,3.59109545 35.7240547,3.62355 35.7240547,3.65600455 C35.7240547,3.77608636 35.7258109,3.89508636 35.7293233,4.01408636" id="Fill-196" fill="#F6F8FC"></path><path d="M35.4087901,5.40909091 C34.98778,5.40909091 34.6466165,5.13833282 34.6466165,4.80413478 C34.6466165,4.61047597 34.7616112,4.43806499 34.9400247,4.32727273 L35.4110824,4.32727273 C35.4286563,4.69364606 35.5409766,5.0405928 35.7293233,5.35323947 C35.6319026,5.38905724 35.5234027,5.40909091 35.4087901,5.40909091" id="Fill-197" fill="#EBF1FA"></path><path d="M36.8120301,4.01408636 L35.7346177,4.01408636 C35.7310881,3.89508636 35.7293233,3.77608636 35.7293233,3.65600455 C35.7293233,3.62355 35.7293233,3.59109545 35.7302057,3.55864091 C36.1378753,3.55864091 36.5128959,3.72848636 36.8120301,4.01408636" id="Fill-198" fill="#FBFCFE"></path><path d="M36.1827646,5.40909091 C35.9144014,5.07942442 35.7543633,4.71359064 35.7293233,4.32727273 L36.3939714,4.32727273 C36.6481815,4.44409629 36.8120301,4.62589295 36.8120301,4.83009414 C36.8120301,5.08678591 36.5540095,5.30763045 36.1827646,5.40909091" id="Fill-199" fill="#F7F9FD"></path></g><g id="Group-27" transform="translate(69.293233, 27.045455)"><path d="M71.4586466,81.6778795 C71.4586466,83.7688746 60.3094726,85.4636364 46.556391,85.4636364 C32.8033094,85.4636364 21.6541353,83.7688746 21.6541353,81.6778795 C21.6541353,79.5862777 32.8033094,77.8909091 46.556391,77.8909091 C60.3094726,77.8909091 71.4586466,79.5862777 71.4586466,81.6778795" id="Fill-68" fill="#DBE6F6"></path><path d="M45.1805962,80.1498603 L45.4736842,80.9030235 L45.4736842,81.6653388 C45.4736842,81.8828356 45.2946069,82.0626472 45.0625548,82.0777213 C43.9115078,82.1503996 40.9742937,82.3528223 39.0378398,82.0793363 C38.9019483,82.0604938 39.0378398,81.5662809 39.0378398,81.5662809 L40.9869615,80.552014 L42.4082169,79.7218655 L42.7577344,77.8909091 L45.239329,78.6704518 L45.1805962,80.1498603 Z" id="Fill-135" fill="#000000"></path><path d="M13.9354324,16.4184622 L10.7380785,12.9818182 L9.7443609,13.6665696 L12.9421189,17.1039103 C13.1619572,17.3397072 13.5624347,17.3780198 13.8368285,17.1888947 C14.1108181,16.9997695 14.1552707,16.6549557 13.9354324,16.4184622" id="Fill-136" fill="#0B3A57"></path><path d="M7.81428599,14.0636364 C7.58538431,14.0636364 7.35472859,14.0519644 7.12188033,14.0273699 C6.91051902,14.0052765 6.70310428,13.9731785 6.49963612,13.9323266 L6.49963612,13.8506227 C6.73950052,13.6488642 6.95963202,13.4254292 7.15608403,13.1832356 C7.17713246,13.1853199 7.19818089,13.187821 7.21922932,13.1899053 C7.4187509,13.2107481 7.61695695,13.2211696 7.81340897,13.2211696 C8.60930274,13.2211696 9.37274684,13.0531764 10.0625214,12.749705 L10.0625214,13.6647048 C9.36003008,13.9231558 8.60053256,14.0636364 7.81428599,14.0636364 M14.0748784,8.16803613 L13.1877748,8.16803613 C13.2184704,5.57685667 11.1680025,3.32791632 8.40013396,3.0373674 C8.20017387,3.01652458 8.00196782,3.00652003 7.80551581,3.00652003 C7.35779816,3.00652003 6.9197277,3.05946079 6.49963612,3.16034005 L6.49963612,2.29494613 C6.92235876,2.20865686 7.35955219,2.16363636 7.8050773,2.16363636 C8.03397898,2.16363636 8.26463469,2.1757252 8.49748295,2.19990287 C11.7192083,2.53797342 14.1064511,5.1529137 14.0748784,8.16803613 M2.16541353,5.53141932 C2.95516817,3.97821233 4.42768127,2.82060207 6.17470098,2.36998029 L6.17470098,3.2487136 C4.94906843,3.62221695 3.89883946,4.40507329 3.2257282,5.44429633 C3.19371705,5.44387947 3.1617059,5.44346262 3.12969474,5.44346262 C2.80125153,5.44346262 2.47850893,5.47389313 2.16541353,5.53141932" id="Fill-137" fill="#B0C7EA"></path><path d="M9.7443609,14.0636364 L9.7443609,13.1632151 C11.0819475,12.4473905 12.0744879,10.9648746 12.2480759,9.1529563 C12.2640503,8.98599892 12.2725699,8.81945176 12.2743449,8.65454545 L12.9924812,8.65454545 C12.9907063,8.84980765 12.9807667,9.04630048 12.9615974,9.24402396 C12.746831,11.4883085 11.4532627,13.2989962 9.7443609,14.0636364" id="Fill-139" fill="#5A8AD2"></path><path d="M1.97594552,9.73636364 C1.35447184,9.03951965 1.124938,8.28813342 1.36638161,7.51691364 C1.47790041,7.16257973 1.68361469,6.81930683 1.97594552,6.49090909 L1.97594552,9.73636364" id="Fill-143" fill="#BDCEE6"></path><path d="M16.059647,19.0792403 L13.2324331,15.213075 C13.1755701,15.1352086 13.0716231,15.1228298 13.0006349,15.1851229 L11.971306,16.0931647 C11.9003178,16.1562564 11.88909,16.2708597 11.9463152,16.3491254 L14.7728047,20.2144922 C15.0574819,20.6058206 15.5764926,20.668513 15.9317958,20.355051 C16.2867368,20.0419882 16.3443242,19.4705688 16.059647,19.0792403" id="Fill-144" fill="#F36F21"></path><path d="M15.111594,8.40457433 C15.5705926,4.25439116 12.564775,0.504540731 8.41085734,0.0462703837 C4.25693968,-0.412402308 0.504494976,2.59109913 0.046300881,6.74168465 C-0.412697769,10.8918678 2.59311986,14.6409136 6.74663524,15.0991839 C10.9005529,15.5578566 14.6529976,12.5543552 15.111594,8.40457433 M1.86620438,6.94245454 C2.21417443,3.79531612 5.0598856,1.51724175 8.20971858,1.86486737 C11.3595516,2.21249299 13.6396605,5.05626368 13.2912882,8.2034021 C12.9433182,11.3505405 10.097607,13.6282125 6.947774,13.2805869 C3.79794103,12.9329613 1.51823432,10.089593 1.86620438,6.94245454" id="Fill-145" fill="#3C6179"></path><path d="M7.73540014,12.9818182 C7.54324746,12.9818182 7.34937913,12.9718847 7.15422406,12.9520179 C7.13363627,12.9500312 7.11304849,12.9476471 7.0924607,12.9456604 C7.62645644,12.30396 7.98374033,11.5243834 8.08667927,10.6605712 C8.10555141,10.5024308 8.11541639,10.345085 8.11713204,10.1893286 L9.93529102,10.1893286 L9.93529102,12.5324292 C9.26061207,12.8216911 8.51387586,12.9818182 7.73540014,12.9818182 M9.93529102,9.89529873 L8.10941162,9.89529873 C8.03435197,8.65202898 7.41586053,7.51921913 6.45037908,6.72494101 L6.45037908,3.39207217 C6.861277,3.29591644 7.28976033,3.24545455 7.72767972,3.24545455 C7.91983241,3.24545455 8.11370074,3.25499065 8.30928472,3.27485754 C11.0165788,3.55180193 13.0221724,5.69543896 12.9921485,8.16529027 L9.93529102,8.16529027 L9.93529102,9.89529873 M6.13255511,6.48415435 C6.0167488,6.40389213 5.89665338,6.32760329 5.77269774,6.25647983 C5.85633563,6.12893442 5.91209422,5.9823168 5.93096635,5.82417639 C6.00045014,5.24167928 5.54666099,4.71759082 4.91744673,4.65322211 C4.87455551,4.64845406 4.8320932,4.64646737 4.7900598,4.64646737 C4.21317284,4.64646737 3.71649247,5.04857315 3.65215563,5.59133648 C3.51661936,5.57862167 3.38194092,5.57146959 3.2481203,5.56908557 C3.90650059,4.57852262 4.9337454,3.83232237 6.13255511,3.47630776 L6.13255511,6.48415435" id="Fill-146" fill="#C0D2EE"></path><path d="M8.66165414,12.9818182 L8.66165414,8.65454545 L11.9097744,8.65454545 C11.9074957,8.8128171 11.8965577,8.97266358 11.876049,9.13290378 C11.653188,10.8719233 10.3789149,12.2947933 8.66165414,12.9818182" id="Fill-149" fill="#7BA1DB"></path><path d="M6.59639922,14.0636364 C6.38664637,14.0342673 6.18100633,13.990913 5.98071292,13.9340396 L5.98071292,10.8297779 L7.57894737,10.8297779 C7.57730225,11.0125187 7.56784281,11.1971241 7.54974648,11.3826619 C7.45103926,12.3961271 7.10844294,13.3107632 6.59639922,14.0636364 M5.67595437,13.8361428 C4.32284286,13.347591 3.23747469,12.2376275 2.64852159,10.8297779 L5.67595437,10.8297779 L5.67595437,13.8361428 M7.57154433,10.4848082 L5.98071292,10.4848082 L5.98071292,6.76519502 C6.90650441,7.69707955 7.49957031,9.02614548 7.57154433,10.4848082 M5.67595437,10.4848082 L2.51650068,10.4848082 C2.22449181,9.64848958 2.10316418,8.72173298 2.19611348,7.76747203 C2.2804259,6.90318292 2.53212932,6.10462454 2.91009573,5.40909091 C3.03841512,5.41188796 3.16755707,5.42027912 3.29752158,5.43519673 C3.23048292,6.1186098 3.66561726,6.73349509 4.26937644,6.8090155 C4.31050445,6.81414343 4.35122118,6.81694048 4.39152663,6.81694048 C4.78306528,6.81694048 5.13635488,6.5801234 5.33089037,6.21557427 C5.44975032,6.29901966 5.56490874,6.38852533 5.67595437,6.48269275 L5.67595437,10.4848082" id="Fill-150" fill="#D3E0F3"></path><path d="M14.0447536,8.28672918 C14.4385834,4.72435332 11.8583746,1.50558135 8.29298769,1.11208648 C4.72760082,0.71859161 1.5069659,3.29682795 1.1127338,6.85920382 C0.718903971,10.4215797 3.29951514,13.6403516 6.86449973,14.0334442 C10.4298866,14.4273414 13.6509238,11.8491051 14.0447536,8.28672918 M0.0462957298,6.74171864 C0.504489981,2.5911122 4.25693596,-0.412404387 8.41085504,0.046270617 C12.5647741,0.504543275 15.5705928,4.25401026 15.111594,8.40421436 C14.6529974,12.5540161 10.9005515,15.5575327 6.74663238,15.09926 C2.59351785,14.6409874 -0.412703076,10.8919227 0.0462957298,6.74171864" id="Fill-154" fill="#0B3A57"></path><path d="M5.17865508,6.49090909 C4.31381087,6.02101768 3.31853914,5.70811272 2.23915994,5.60398905 C2.21417149,5.60131921 2.18979251,5.59918334 2.16541353,5.59704747 C2.2568347,4.86764785 2.96260608,4.32727273 3.78234918,4.32727273 C3.84207767,4.32727273 3.90241564,4.32994256 3.96336308,4.33635017 C4.85746206,4.42285291 5.502286,5.12715606 5.40355114,5.90995244 C5.37673427,6.12247151 5.29750259,6.31950552 5.17865508,6.49090909" id="Fill-155" fill="#F2F6FC"></path><path d="M3.33380356,6.49090909 C3.29102409,6.49090909 3.2478081,6.48871918 3.20415558,6.48470433 C2.56333662,6.42557662 2.10149298,5.94416023 2.17264658,5.40909091 C2.19010759,5.41055085 2.2075686,5.4120108 2.22546613,5.41383573 C2.99855222,5.48500797 3.71139784,5.69888971 4.33082707,6.02007729 C4.12435066,6.30549626 3.74937553,6.49090909 3.33380356,6.49090909" id="Fill-156" fill="#F6F9FD"></path><path d="M62.2882067,75.4592785 L62.7969925,77.6140118 L63.2171262,78.1965665 C63.2171262,78.1965665 63.5403484,79.230781 63.3768101,79.5537033 C63.1086513,80.0837562 60.8863507,80.6207325 60.8863507,80.6207325 C60.8863507,80.6207325 58.2890101,81.4312747 57.4779263,81.0198904 C57.3556855,80.9580389 57.3870717,80.4560349 57.3870717,80.4560349 L59.2884108,78.9809488 L60.0697605,77.882006 L59.6358609,76.4090775 L61.662194,75.7272727" id="Fill-157" fill="#000000"></path><polyline id="Fill-158" fill="#FAC5A6" points="19.4330462 19.3592516 18.2211833 18.6062188 16.4938266 17.3090909 14.750078 17.3440159 14.075188 18.089696 14.2831943 20.69253 15.0830012 21.2709375 16.350257 21.6906506 17.282894 21.1361391 19.4330462 22.7181818 20.5714286 20.0485614 19.4330462 19.3592516"></polyline><polyline id="Fill-159" fill="#FAC5A6" points="62.0046668 33.7831704 62.4934751 34.6513431 62.3842365 35.6831476 63.4379051 36.7008177 64.3546798 36.7818182 66.0451128 35.5450662 65.9759744 34.8242165 65.5217354 33.8935267 64.5849106 33.5787666 63.5879354 32.4545455 61.7142857 33.3515304 62.0046668 33.7831704"></polyline><path d="M41.3066306,19.4727273 C41.3066306,19.4727273 43.1305361,23.3747881 45.4736842,25.1290344 L39.6938314,27.0454545 C39.6938314,27.0454545 39.7475913,24.5663703 38.2082204,23.346111 C36.6675382,22.1268406 41.3066306,19.4727273 41.3066306,19.4727273" id="Fill-160" fill="#FAC5A6"></path><path d="M36.7890595,14.2589618 C36.7890595,14.2589618 34.9291411,15.8062627 34.7985713,16.7222701 C34.6691223,17.6376123 34.4057413,19.2654048 35.1577782,21.0548456 C35.9098151,22.8436211 37.0513198,24.336374 38.8596828,23.6139455 C39.7137098,23.273353 40.0028686,22.4604546 40.0549844,21.5484385 C40.0830037,21.0634934 39.9871778,20.2938343 40.0028686,20.1315207 C40.0488202,19.6632061 39.9927816,15.8169062 39.3208798,15.1150995 C38.6489779,14.4132928 37.3931547,13.7128165 36.7890595,14.2589618" id="Fill-161" fill="#FAC5A6"></path><path d="M41.6603861,22.2853188 C41.6603861,22.2853188 42.1388101,20.6468727 42.2210824,19.6636652 C42.2591075,19.2189142 42.0613773,16.1259364 41.38868,15.1734979 C40.716674,14.22036 39.8538515,13.0630283 39.08782,12.9896024 C38.3231712,12.9161765 37.1540743,13.3728156 36.1557445,13.911272 C35.1574146,14.4483299 34.450149,15.2965736 33.7055498,15.1175543 C32.9602592,14.9392343 32.6733431,15.0042687 32.6733431,15.0042687 C32.6733431,15.0042687 32.0587203,16.1518103 33.0280129,17.3895608 C33.9966141,18.6259128 34.4909395,19.9007259 35.17539,19.2545782 C35.7934696,18.6713669 35.7153455,19.1245095 36.0368298,19.4790516 C36.3583142,19.8328944 36.7855772,20.504916 36.7855772,20.504916 C37.1367902,20.4615598 37.3172363,19.9140125 37.6504738,19.7734544 C37.9567482,19.644085 38.8299411,20.0783466 38.4427772,20.8517659 C38.0265759,21.6825273 40.2672873,22.7181818 40.2672873,22.7181818 C40.2672873,22.7181818 41.5871015,22.0104962 41.6603861,22.2853188" id="Fill-162" fill="#000000"></path><polygon id="Fill-163" fill="#0C4BA9" points="53.6271353 61.2313634 59.895178 77.8909091 62.9919538 76.8090909 59.0792806 60.0409091 56.8421053 42.1909091 49.8045113 44.071226"></polygon><path d="M38.6645887,24.0720845 C37.0345479,24.6781796 36.3959631,26.2156591 33.5458953,26.6757909 C30.4837514,27.1699807 28.0601924,26.1906368 28.0601924,26.1906368 C28.0601924,26.1906368 24.7247059,24.418921 20.5739045,19.5249818 C20.5739045,19.5249818 20.3918725,19.2379207 19.8528456,20.0094407 C19.3138188,20.7816558 19.3686051,20.8650634 19.0192686,21.3397915 C18.6687538,21.8145196 18.406015,22.7083707 18.406015,22.7083707 C18.406015,22.7083707 18.4619796,22.9439971 19.0363525,23.4117746 C19.6101363,23.878857 24.5833218,29.2801923 25.7850866,29.9064441 C26.9862624,30.5333911 29.1040783,31.4189014 30.3241052,31.7247292 C31.0357385,31.9040555 38.2292435,32.4184022 38.2292435,32.4184022 L38.7623794,32.4545455 L38.6687124,30.8753621 L38.9544261,28.2709607 C38.9544261,28.2709607 39.0987557,23.9101348 38.6645887,24.0720845" id="Fill-164" fill="#FFAB1D"></path><path d="M49.053219,25.2664574 C49.053219,25.2664574 54.2319097,26.6095627 56.3876802,28.0014236 L61.6824462,33.5363636 C61.6824462,33.5363636 62.0915025,33.431887 62.3584133,33.2902631 C62.6253242,33.1480588 63.8748393,32.4823105 63.8748393,32.4823105 C63.8748393,32.4823105 63.9456017,32.4190441 63.5470976,31.9454166 C63.1485935,31.4712088 59.3212164,26.2717549 58.3317842,25.6315452 C57.3417312,24.9901748 50.0302367,20.4709798 46.5659825,20.555722 C46.5659825,20.555722 46.2636905,22.4351406 49.053219,25.2664574" id="Fill-165" fill="#FFAB1D"></path><path d="M43.1770725,60.9475908 L42.2263031,78.3685864 C42.216801,78.4877001 42.3000841,78.589443 42.4085199,78.5882022 C42.8092852,78.5819984 43.8888189,78.650861 44.2923789,78.8574488 C44.8200252,79.1285565 45.4559559,78.9684975 45.6582949,78.8574488 C45.8595159,78.7464001 47.6390977,62.2542934 47.6390977,62.2542934 L51.4490607,42.7318182 L43.3514641,42.1909091 L43.1770725,60.9475908 Z" id="Fill-166" fill="#2564C1"></path><path d="M54.4731177,32.3762476 C52.9812236,29.7543551 53.0025902,29.6353183 51.9807622,27.7973415 C50.9576772,25.9605982 49.0195974,21.4544711 47.5465562,20.596543 C47.5465562,20.596543 46.1784629,20.2443669 43.3857175,21.5796756 C40.5917153,22.9149842 37.4476773,24.4513602 36.5176001,25.5627811 C35.5875229,26.674202 35.7213786,27.1441813 35.7565707,27.4426983 C35.7917628,27.7418321 36.4840533,29.6100033 39.7223559,34.6181818 C42.961287,39.6263603 42.306246,41.303995 42.8498384,43.2727273 C43.0980685,44.1756797 43.1806993,47.224505 43.3082707,47.7105203 C45.3896327,46.8118854 54.6073017,47.8845528 57.8544024,44.4990981 C57.0927446,40.5832206 55.7180386,34.5651669 54.4731177,32.3762476 Z" id="Fill-167" fill="#FFAB1D"></path></g></g></g></g></g></svg>