<svg xmlns="http://www.w3.org/2000/svg" xmlns:xlink="http://www.w3.org/1999/xlink" width="91px" height="227px" viewBox="0 0 91 227"><title>Unvair_advantages_illustration</title><desc>Created with Sketch.</desc><g id="Welcome" stroke="none" strokeWidth="1" fill="none" fillRule="evenodd"><g id="8_HOURS" transform="translate(-643.000000, -8784.000000)"><g id="Unfair_advantages" transform="translate(643.000000, 8784.000000)"><g id="Unvair_advantages_illustration"><g id="Group-36" transform="translate(45.500000, 152.000000) scale(-1, 1) translate(-45.500000, -152.000000) translate(0.000000, 77.000000)"><path d="M38.3062544,94.131 C33.2642544,85.519 16.6102544,88.955 15.2002544,95.717 C0.0792543924,94.98 -7.70474561,115.359 10.8512544,122.139 C0.841254392,133.456 27.4972544,149.605 36.3672544,141.204 C39.5712544,151.592 58.3492544,152.006 60.1112544,141.545 C69.7442544,146.678 81.1162544,136.435 78.0412544,131.478 C87.7562544,134.021 99.7062544,114.188 78.2582544,108.675 C77.2702544,100.465 67.3542544,94.138 57.3482544,101.482 C55.2822544,95.749 42.6492544,89.509 38.3062544,94.131" id="Fill-168-Copy" fill="#EFF8FF"></path><path d="M41.3932544,88.702 C37.5142544,80.967 22.9282544,81.43 21.3282544,87.202 C12.1022544,86.459 5.38825439,96.648 21.0632544,103.556 C14.7542544,109.821 23.0592544,115.183 29.9692544,115.344 C30.4722544,118.728 35.5492544,121.96 39.2242544,120.633 C41.6192544,126.438 57.8102544,130.999 58.1332544,121.858 C66.0482544,125.677 70.0912544,120.142 67.7082544,115.68 C75.3902544,118.492 87.0082544,106.895 68.7322544,98.958 C68.3392544,91.798 59.7532544,87.771 53.3702544,91.294 C51.9052544,86.217 45.4102544,84.946 41.3932544,88.702" id="Fill-170-Copy" fill="#E4F3FF"></path><path d="M31.8822544,21.046 C31.6112544,30.339 43.1352544,85.514 33.3402544,88.019 C28.0862544,89.362 27.1132544,94.743 37.6682544,99.424 C39.4702544,103.461 51.5142544,111.23 53.7242544,102.682 C63.4952544,103.673 60.7212544,97.714 56.5302544,93.942 C55.3232544,92.856 53.7402544,91.893 52.6452544,90.2 C46.8382544,81.224 35.7402544,32.357 31.8822544,21.046" id="Fill-172-Copy" fill="#E4F3FF"></path><path d="M33.8142544,31.075 C34.8542544,28.767 37.7322544,20.108 37.9382544,17.746 L39.0052544,20.374 C41.5972544,10.858 40.2742544,7.781 35.8362544,3.69482223e-13 L21.4212544,2.135 C20.4862544,11.224 19.9582544,14.525 25.8532544,22.743 L25.9362544,19.907 C26.9532544,22.049 31.7692544,28.805 33.8142544,31.075" id="Fill-174-Copy-2" fill="#E3692A"></path><path d="M32.4862544,23.149 C33.2212544,21.52 35.2522544,15.407 35.3982544,13.739 L36.1512544,15.595 C37.9812544,8.877 37.0472544,6.705 33.9142544,1.212 L23.7372544,2.718 C23.0782544,9.135 22.7052544,11.465 26.8662544,17.267 L26.9252544,15.265 C27.6432544,16.777 31.0432544,21.546 32.4862544,23.149" id="Fill-175-Copy" fill="#EC933A"></path><path d="M31.5202544,17.423 C32.0572544,16.231 33.5442544,11.757 33.6502544,10.536 L34.2022544,11.894 C35.5412544,6.978 34.8572544,5.388 32.5642544,1.368 L25.1162544,2.47 C24.6332544,7.167 24.3602544,8.872 27.4062544,13.118 L27.4492544,11.653 C27.9752544,12.76 30.4632544,16.25 31.5202544,17.423" id="Fill-176-Copy" fill="#F3C04B"></path></g><g id="Group-40" transform="translate(47.500000, 86.000000) scale(-1, 1) translate(-47.500000, -86.000000) translate(13.000000, 0.000000)"><path d="M57,136.94576 C57.9965755,138.793001 58.3158955,140.609633 58.5475882,142.043656 C59.0094883,144.902518 58.461446,147.847085 57.7381491,152.21343 C57.3935805,154.291768 57.9356819,155.366137 59.8605133,154.887109 C61.3754269,154.50909 63.2215422,151.668593 64.3220823,149.839718 C66.3865234,146.40694 65.8548184,143.610826 66.355334,142.224248 L67.2122998,141.668698 C67.7945019,141.090192 69.1371312,137.839537 68.9886102,136.782003 C68.5980002,136.14534 67.9044074,135.049544 67.2509152,134.264429 C65.0528053,131.824907 64.4111949,132.212109 62.0155521,131 C60.0892355,133.292599 59.0094883,134.731213 57,136.94576" id="Fill-292" fill="#131730"></path><path d="M31.6370069,69 C31.5491578,69.5558748 31.6188312,71.7201415 31.4113255,72.3565118 C28.6728558,80.7705731 28.5638017,98.4006135 28.0094433,107.027304 C27.9427991,108.555201 28.2154344,110.433936 29.2590216,111.598843 C37.7016268,119.659028 49.4173697,130.812975 57.2298846,138.98555 C59.809317,139.275637 63.6792231,135.141508 62.8976687,131.684757 C57.2601774,124.678608 51.7756647,113.535292 48.0496495,110.321546 C45.432351,108.066152 44.0010159,107.224746 42.0940837,106.726585 C44.5614328,98.3428997 48.5873468,82.0357199 49.6718293,74.9764136 C39.8721064,74.0788125 39.6691446,74.0575495 31.6370069,69" id="Fill-293" fill="#1B3872"></path><path d="M56.9224513,155.038918 C57.5838015,156.907053 58.0293265,157.705542 57.9984943,160.312241 C57.5298452,161.687499 56.5185498,162.246292 55.3839256,163.197587 L54.5961635,163.363877 C52.6275289,164.385583 51.8289755,167.969045 49.9852113,169.598981 C48.6840933,170.751022 46.138897,171.37723 43.6137416,171.847634 C40.9159261,172.352495 38.3830626,171.606439 39.1338262,169.554038 C40.9960897,164.455994 48.6455531,158.697286 48.9584997,153 L56.9224513,155.038918" id="Fill-294" fill="#131730"></path><path d="M45.2642734,117.844233 C45.8756032,127.66133 47.6190253,146.154385 47.7080832,155.828463 C50.7269959,157.881908 55.0425316,157.175848 56.5278366,154.181491 C57.1648272,145.281219 57.8606865,131.319594 58.0101227,126.437392 C58.139936,122.1649 57.3972834,118.643632 55.6840505,115.50475 C56.6833106,104.764808 62.5339634,91.5890329 60.6169538,81.4843939 C59.7761866,77.0447961 56.6531215,72.2679755 55.6478236,68.6066999 C49.3594285,71.4565333 41.1494955,70.3665811 37,68 C37.6626513,81.6439725 43.0031078,97.9797052 44.4340724,112.859659 C44.4869034,114.575882 44.7223786,116.460717 45.2642734,117.844233" id="Fill-295" fill="#21407E"></path><path d="M59.2515989,28.8370784 C55.8860545,26.9551631 44.2797005,19.5177618 40.8843198,20.0247206 C36.969786,20.6099044 33.9458683,22.520402 32.3869171,25.4372954 C28.6394671,32.4474674 30.1357618,39.180843 31.3142991,47.8563069 C32.0557332,53.3094987 31.479891,64.7724838 31.5917774,70.946249 C33.741489,78.2001223 50.2052067,78.7883149 57.7045823,73.4975906 C56.6438987,70.8529807 55.8069881,62.7627006 59.4858145,53.9593687 C61.9696936,48.0157658 65.0413495,40.7167626 64.9995786,36.2519149 C64.9652667,32.600909 61.9174799,30.3278682 59.2515989,28.8370784" id="Fill-297" fill="#DAEAF2"></path><path d="M31.6152902,69 C30.7132101,59.101344 31.8203785,53.397573 31.4024919,49.6571718 C30.5975588,42.4475447 28.8550794,35.1439909 31.1156766,27.8783108 C31.8820592,25.4104641 33.1465134,23.3455929 35.1480518,21.9548727 C37.1480481,20.5671823 39.0462714,20.8201782 45,21.8942748 L44.8365462,24.0667071 C34.5898415,28.1358516 32.5944712,38.8101598 32.9244629,49.6041487 C33.1326352,56.4547337 31.6430465,61.5101079 31.6152902,69" id="Fill-298" fill="#21407E"></path><path d="M51.0217248,23.8478391 C57.9139234,26.6564934 65.048087,30.8604439 65.2611379,35.1411582 C65.6157156,42.30127 63.8977478,51.2206957 62.1020326,59.9311365 C60.712636,66.6607686 61,73 65,82 C64.1112731,85.342991 53.360118,84.8469518 50,84.1681184 C41.9983643,78.1744992 39.64176,55.7274203 49.3812325,27.4271424 C50.1025621,25.3334457 46.6237443,24.7057882 42.8923089,23.9035306 C39.3450105,23.1419126 38.1443161,20.9880089 39.6128459,20.9999501 C42.6899105,21.0256382 48.8531704,22.9643021 51.0217248,23.8478391 Z" id="Fill-299" fill="#21407E"></path><path d="M40.6442295,23.9922747 C40.5713529,23.6553035 40.4795283,23.3198038 40.3949914,22.9592888 C40.155956,21.9307174 40.3541805,19.9118332 40,17.5486205 L48.909898,15.5959534 L50.8367563,15 C49.8310587,18.1695892 50.3368226,21.0934396 51,23.6464746 C50.7595071,26.8513795 44.3667683,26.9146536 40.9882072,27 C40.7739499,26.1641937 40.8730621,25.0267321 40.6442295,23.9922747" id="Fill-302" fill="#F5C4A2"></path><path d="M40.9987468,25.3176471 C41.0213065,24.5149728 40.6946215,22.4909804 40.8015667,22 C39.9276241,22.0282353 38.3210472,25.7989812 37.0851607,27.5750768 C38.3170395,27 38.7707964,26.619054 40.9882072,27 C41,26.5486326 40.9882072,25.6926466 40.9987468,25.3176471 Z" id="Fill-303" fill="#F0F7F9"></path><path d="M41,26.9889006 C41.6557507,28.2245742 41.5097879,29.9647059 41.2287519,31 C43.9438719,30.8648956 48.5528624,30.6189753 51.0306632,27.8091082 C52.7246858,25.8872865 52.0731668,24.0282755 50.8319245,22.9778012 C49.9981843,26.1337784 44.8501933,26.9889006 41,26.9889006 Z" id="Fill-304" fill="#F0F7F9"></path><path d="M46.485893,21.6398726 C48.6500418,20.4470526 48.6710094,18.5302399 49.6430042,15.661938 C51.661878,14.5813291 52.4241976,13.6037085 52.7536873,12.4201113 C53.5354767,9.61329495 52.370281,6.29768554 50.4712217,4.30247876 C48.8102937,2.55936282 46.725522,1.83690736 44.2423671,2.03058691 C39.4183371,2.40564889 37.0624852,4.66524362 36.2447514,8.78477688 C36.1743604,9.13678178 35.9550696,12.6770189 36,15.661938 C36.0449304,18.6468571 36.659801,22.9218468 37.5,23.741142 C38.4360505,24.6526656 39.9604976,24.369832 41.7711937,23.741142 C42.8645008,23.2077547 45.4974237,22.1855571 46.485893,21.6398726 Z" id="Fill-305" fill="#F5C4A2"></path><path d="M36.2556895,8.68251812 C36.2556895,7.13430232 36.6159606,4.44578689 38.5616243,2.74705405 C40.5072881,1.04832121 48,-0.902740963 52.7485728,4.60809059 C53.9858998,6.40177074 54.208736,9.51051435 53.836365,11.2196439 C53.3041972,13.6655714 51.6124017,15.7310213 49.3855064,17.8795119 C48.5484048,18.6872719 48.8024157,15.7458569 48.5883758,15 C48.0532603,15 48.4527991,15 47.7697134,15 C47.5,13.7145516 47.4048748,12.7582753 46.5272407,12.1713028 C45.9441756,11.7813417 44.8597005,11.8297033 44.8597005,10.7544185 C44.8597005,9.95817177 45.9083825,9 44.8597005,7.74113795 C44.2279136,7.17760078 43.4307294,7.09249941 42.1248343,7.62346268 C41.2175508,7.99235468 38.4913099,8.89813036 37.0914289,8.38932292 C36.8215014,8.29121377 36.4152797,8.44856771 36.2556895,8.68251812 Z" id="Fill-306" fill="#131730"></path><path d="M50.1839524,13.0955372 C52.2523163,12.5036252 52.1648974,14.8005012 51.7888312,16.1789485 C51.5298734,17.1263294 50.7233104,17.0217797 50.3967267,17.7648867 C50.0074652,18.6495378 49.2734764,19.0387843 48.6631936,18.9969644 C47.422835,18.9117162 48.2689839,17.1472394 48.4487699,16.4395185 C48.3547534,15.2637367 48.8710196,13.471916 50.1839524,13.0955372" id="Fill-307" fill="#F5C4A2"></path><path d="M1,43 L1.16338832,36.6631211 C1.24746193,35.4989072 6.66782995,34.5226577 8.28267766,33.9733353 L11,33 L8.78553299,36.4197873 L5.95399746,38.8676963 L4.0107868,41.2150663 L1,43" id="Fill-315" fill="#F5C4A2"></path><path d="M3.00249199,37 L2,36.3458012 C2.01851193,36.0612395 2.22641509,35.7649432 2.62086152,35.5449212 C4.07191171,34.7352402 7.29441082,34.0561056 8.39088644,33.6380638 L10,33 L8.55464578,34.5914925 C5.91740833,35.3747708 3.47241011,36.4000733 3.00249199,37" id="Fill-316" fill="#F5C4A2"></path><path d="M11.3900403,77.6963719 C10.5163444,74.7043528 9.87522604,72.0181436 9,69.0599326 L29.1959939,69.5270994 C29.6963416,68.9462143 30.8179163,69.6285238 31,69 C30.2380025,71.9244029 29.5831131,74.7197202 28.6482125,77.6471965 C28.4186952,78.6983219 27.6230352,79.7171758 26.255112,80.5377912 C24.333287,81.6995614 22.0121018,82.0622303 19.8883016,81.9915406 C16.6857699,81.8839693 12.5942412,81.1617048 11.3900403,77.6963719" id="Fill-317" fill="#3D68BF"></path><path d="M29.2411275,69.5271235 C29.7289573,68.9462119 30.8224717,69.6285525 31,69 C30.2570666,71.9245366 29.6185616,74.7199818 28.7070509,77.647592 C28.4832758,78.6987654 27.707522,79.717666 26.3738222,80.538319 C24.5597519,81.663259 22.2682946,82.0628278 20.1663003,81.9921349 C17.1423524,81.8876322 12.8712788,81.4346947 11.6154804,77.9790484 C13.6426238,81.1730187 20.0380025,81.1730187 22.147456,80.4215219 C23.1604114,76.7116788 24.091316,73.0494766 24.9118247,69.4241577 L29.2411275,69.5271235 Z" id="Fill-318" fill="#3056A4"></path><path d="M12.1114249,62.9850307 C16.346725,60.4036102 23.3105358,60.3296793 27.6664997,62.8233068 C32.0239719,65.3169344 32.1220112,69.4324209 27.8867111,72.0138414 C23.6529193,74.5983423 16.6891086,74.6691928 12.3331447,72.1755652 C7.97718078,69.6819377 7.87763313,65.5664511 12.1114249,62.9850307" id="Fill-319" fill="#1D4161"></path><path d="M6.03074188,25.3554839 C6.41577991,24.3189681 6.84111261,23.2960707 7.30972477,22.2928444 C15.2985175,6.48030345 22.0665308,2.85930723 31.4745917,22.0129095 C31.8536601,22.7861352 32.1879567,23.5835714 32.5132989,24.3855472 C33.9624149,27.9626617 35.0369396,32.0633303 35.5891259,36.203341 C36.8561696,45.6893524 35.166778,58.3348457 30.8806183,66.8599993 C30.3881278,67.8632256 29.9239928,68.642504 29.3852381,69.3204005 C28.886778,69.9468494 28.3316069,70.4855351 27.4212457,71.0378391 C23.0738978,73.6389643 16.1820156,73.6147537 11.9152571,71.1982343 C10.624335,70.4598113 9.78411641,69.6835593 9.07672097,68.5078326 C8.54841298,67.6271724 8.00518105,66.4665773 7.63805177,65.6827595 C3.87124569,57.6630018 2.31467725,46.2401433 3.2787647,37.1324223 C3.7040974,33.1134646 4.64132173,29.0960199 6.03074188,25.3554839 Z" id="Fill-320" fill="#DAEAF2"></path><path d="M34.6171589,30.7302366 C35.1832012,33.0920334 35.593507,35.513256 35.8061472,37.937526 C36.6162766,47.2125303 34.8717282,58.8188566 30.8630104,66.8200144 C30.3688465,67.830254 29.9031344,68.61498 29.362549,69.2976154 C26.9201812,72.3770936 21.7659016,73.218198 18.1195708,72.954591 C15.8194623,72.7869796 13.6017145,72.1927211 11.8332066,71.1885765 C10.5468829,70.4495627 10.0512215,70.0869126 9,68.503747 C12.4022438,72.1561513 19.4163767,72.2414808 23.7650194,70.7025035 C28.4850337,57.0543659 30.5978153,41.8091422 26.9619667,29.6207473 C25.5828001,30.0047298 14.1198379,33.152983 9.68284471,27.3414393 L31.1475291,21.7401717 C30.9633407,21.3089533 30.7701675,20.8823061 30.5650146,20.4632777 C29.0750355,17.415798 27.6494474,14.944292 26.2762706,13 C27.9234838,15.0890473 29.6425753,17.9475832 31.4590021,21.6594134 C32.7977371,24.3960502 33.9358116,27.8808432 34.6171589,30.7302366 Z" id="Fill-321" fill="#C1D4E1"></path><path d="M7.75058063,21.5085753 C10.2979664,16.5731147 14.089389,10.7382771 18.6670793,7.43117766 C18.7568081,7.36746562 18.863266,7.29190017 18.9682031,7.21633473 C19.0457653,7.16003107 19.2617228,6.99852845 19.4731178,7 C19.6723461,7.0014918 19.8685329,7.16299442 19.9613033,7.22670646 C24.8279508,10.6582666 29.019351,16.7849942 31.4967787,21.9501146 C31.6534239,22.2790465 31.7918192,22.6124234 31.8648189,22.9102402 C32.3347546,24.6793606 31.5302369,26.3225386 30.2132004,27.5641825 C28.9463513,28.7613762 27.2186914,29.5822244 25.627906,30.081549 C25.4058652,30.1585961 25.1792619,30.2297165 24.949617,30.2963919 C20.6380715,31.5395175 14.9273648,31.1024233 11.2150253,29.2458841 C9.85084319,28.5643134 8.59007732,27.6353029 7.79772628,26.4558893 C7.40839448,25.8765543 7.13464556,25.2290621 7.03883344,24.5074862 C6.97647951,24.0422402 6.98712531,23.5562507 7.08597908,23.1280465 C7.21677023,22.5620465 7.4874775,22.0167899 7.75058063,21.5085753" id="Fill-322" fill="#E86B67"></path><path d="M19.630667,7 C19.8273897,7.00148168 20.021109,7.16298436 20.1127127,7.22669643 C24.9181529,10.658258 29.0568383,16.7849882 31.5031077,21.9501107 C31.6577828,22.2790428 31.7944375,22.6124199 31.8665191,22.9102368 C32.3305444,24.6793579 31.5361451,26.3225366 30.2356728,27.5641811 C30.2191541,27.5819612 30.2011337,27.5982596 30.1831133,27.614558 L30.1680963,27.6278931 L30.1230453,27.6693801 L30.1140351,27.6797518 C30.0749909,27.7138303 30.0374484,27.7479089 29.9999059,27.7819874 L29.9908957,27.7893958 C29.9728753,27.8056942 29.9548549,27.820511 29.9368345,27.8368094 C29.914309,27.8560712 29.8932852,27.8738513 29.8737631,27.8901498 L29.8722614,27.8916315 C29.8332172,27.9242283 29.7926713,27.9583069 29.7536271,27.9909037 L29.7416135,27.9997938 C29.6800438,28.0486891 29.6199758,28.0975844 29.5569044,28.1449981 L29.5493959,28.1524064 C29.5298738,28.1672232 29.50885,28.18204 29.4893279,28.1968567 C29.4232531,28.2472337 29.3556766,28.296129 29.2896018,28.3435426 L29.2881001,28.3450243 C29.2220253,28.3924379 29.1544488,28.4398516 29.0868723,28.4857835 C29.0403196,28.5168987 28.9937669,28.5480139 28.9487159,28.5776474 L28.8826411,28.620616 L28.8751326,28.6250611 C28.7384779,28.71248 28.5988197,28.7984172 28.4576599,28.8799093 L28.4501514,28.8843544 L28.3885817,28.9199146 L28.3780698,28.9258413 C28.3330188,28.9510298 28.2879678,28.9777 28.2444185,29.0014068 L28.2263981,29.0117785 L28.1753403,29.0384487 L28.1588216,29.0488204 C28.1137706,29.0740089 28.0672179,29.0977157 28.0221669,29.1214225 L28.011655,29.1273492 L27.951587,29.1584644 L27.9395734,29.1643911 L27.8885156,29.1910613 L27.8674918,29.2029147 L27.8029187,29.2340299 L27.7833966,29.2444016 L27.7368439,29.2681085 L27.711315,29.2799619 L27.6542504,29.3081137 L27.6482436,29.3110771 L27.5776637,29.3451556 L27.5671518,29.3496006 L27.5070838,29.3777525 L27.4935685,29.3851609 L27.4380056,29.4103493 L27.4214869,29.4192394 L27.3599172,29.4459096 L27.3223747,29.4636897 L27.2938424,29.4770248 L27.2578016,29.4933232 L27.215754,29.5111033 L27.1962319,29.5199934 L27.1346622,29.5481452 L27.1121367,29.5570353 L27.0640823,29.5777787 L27.0340483,29.5911138 L26.9619667,29.6207473 L26.9259259,29.6355641 L26.8988953,29.6474175 L26.8418307,29.6711243 C26.4619006,29.8267003 26.0804687,29.9630145 25.7080471,30.0815486 C25.4887989,30.1585957 25.2650456,30.2297162 25.0382889,30.2963916 C20.7809692,31.5395177 14.9703145,31.1009417 11.3046646,29.2444016 C9.98617198,28.5776474 8.58912221,27.7508742 7.79772628,26.4558893 C9.32946034,28.0116491 16.0761429,32.7885706 26.5895451,27.8812597 C25.3746697,20.9144192 23.1266247,14.147605 19.5585854,7.0059267 C19.5826126,7.00148168 19.6066398,7 19.630667,7 Z" id="Fill-323" fill="#D04D48"></path><path d="M19.9984549,36 C15.0295279,36 11,39.804833 11,44.5014938 C11,49.1981547 15.0295279,53 19.9984549,53 C24.9704721,53 29,49.1981547 29,44.5014938 C29,39.804833 24.9704721,36 19.9984549,36" id="Fill-324" fill="#B2C7D9"></path><path d="M19.9978048,36 C24.4159883,36 28,39.8028569 28,44.4992217 C28,49.1924732 24.4159883,53 19.9978048,53 C15.5825482,53 12,49.1924732 12,44.4992217 C12,39.8028569 15.5825482,36 19.9978048,36 Z M19.9978048,50.3615054 C23.0476539,50.3615054 25.5179731,47.7385771 25.5179731,44.4992217 C25.5179731,41.2614229 23.0476539,38.6338247 19.9978048,38.6338247 C16.9508826,38.6338247 14.4805634,41.2614229 14.4805634,44.4992217 C14.4805634,47.7385771 16.9508826,50.3615054 19.9978048,50.3615054 L19.9978048,50.3615054 Z" id="Fill-325" fill="#F0F7F9"></path><path d="M19.4985415,50 C16.4721559,50 14,47.5281391 14,44.50146 C14,41.4718609 16.4721559,39 19.4985415,39 C22.5278441,39 25,41.4718609 25,44.50146 C25,47.5281391 22.5278441,50 19.4985415,50" id="Fill-326" fill="#D04D48"></path><path d="M19.998,38.799 C19.556,38.799 19.198,38.445 19.198,38.003 C19.198,37.557 19.556,37.201 19.998,37.201 C20.444,37.201 20.802,37.557 20.802,38.003 C20.802,38.445 20.444,38.799 19.998,38.799" id="Fill-328" fill="#8E2222"></path><path d="M19.998,51.802 C19.556,51.802 19.198,51.44 19.198,51 C19.198,50.558 19.556,50.198 19.998,50.198 C20.444,50.198 20.802,50.558 20.802,51 C20.802,51.44 20.444,51.802 19.998,51.802" id="Fill-329" fill="#8E2222"></path><path d="M12.196,45.002 C12.196,45.444 12.554,45.804 12.998,45.804 C13.44,45.804 13.804,45.444 13.804,45.002 C13.804,44.562 13.44,44.196 12.998,44.196 C12.554,44.196 12.196,44.562 12.196,45.002" id="Fill-330" fill="#8E2222"></path><path d="M26.197,45.002 C26.197,45.444 26.559,45.804 27.001,45.804 C27.445,45.804 27.803,45.444 27.803,45.002 C27.803,44.562 27.445,44.196 27.001,44.196 C26.559,44.196 26.197,44.562 26.197,45.002" id="Fill-331" fill="#8E2222"></path><path d="M14.4335,39.431 C14.1195,39.747 14.1195,40.253 14.4335,40.563 C14.7435,40.879 15.2555,40.879 15.5695,40.563 C15.8795,40.253 15.8795,39.747 15.5695,39.431 C15.2555,39.123 14.7435,39.123 14.4335,39.431" id="Fill-332" fill="#8E2222"></path><path d="M24.4305,48.434 C24.1205,48.748 24.1205,49.25 24.4305,49.566 C24.7445,49.88 25.2565,49.88 25.5665,49.566 C25.8805,49.25 25.8805,48.748 25.5665,48.434 C25.2565,48.12 24.7445,48.12 24.4305,48.434" id="Fill-333" fill="#8E2222"></path><path d="M14.4335,49.566 C14.7435,49.88 15.2555,49.88 15.5695,49.566 C15.8795,49.25 15.8795,48.748 15.5695,48.434 C15.2555,48.12 14.7435,48.12 14.4335,48.434 C14.1195,48.748 14.1195,49.25 14.4335,49.566" id="Fill-334" fill="#8E2222"></path><path d="M24.4305,40.563 C24.7445,40.879 25.2565,40.879 25.5665,40.563 C25.8805,40.253 25.8805,39.747 25.5665,39.431 C25.2565,39.123 24.7445,39.123 24.4305,39.431 C24.1205,39.747 24.1205,40.253 24.4305,40.563" id="Fill-335" fill="#8E2222"></path><polyline id="Fill-336" fill="#7C7D7E" points="9.098 67.191 8.882 66.775 9.118 67.225 9.098 67.191"></polyline><path d="M6.08347967,57 L9,58.6816954 C4.14320684,72.1886217 4.65806664,80.104635 4.44112275,92 L1.52613019,90.312206 L1.52918574,90.3106813 C1.00821484,84.6877505 -0.232337546,78.6592612 0.0380784302,73.0988413 C0.158772567,70.6212755 0.56974374,68.2092699 1.40390828,65.7408521 C2.47182222,62.5817651 4.04390154,59.782497 6.08347967,57" id="Fill-337" fill="#E86B67"></path><path d="M9.04345089,59 L12,72.4096005 C9.12380838,77.7160573 6.55691727,84.0614561 4.51917265,92 C3.40629725,80.0521668 0.111640208,71.1547156 9.04345089,59" id="Fill-338" fill="#D04D48"></path><path d="M33.9153579,57 L31,58.6816954 C35.8558739,72.1886217 35.3409496,80.104635 35.5579207,92 L38.4748066,90.312206 L38.4702227,90.3106813 C38.9927868,84.6877505 40.2334947,78.6592612 39.9615169,73.0988413 C39.8408076,70.6212755 39.4297849,68.2092699 38.5955158,65.7408521 C37.527468,62.5817651 35.9567196,59.782497 33.9153579,57" id="Fill-339" fill="#E86B67"></path><path d="M30.9578162,59 L28,72.4096005 C30.8759494,77.7160573 33.4426244,84.0614561 35.4801974,92 C36.5944952,80.0521668 39.8873588,71.1547156 30.9578162,59" id="Fill-340" fill="#E25953"></path><path d="M1.36188446,36.9731617 L1.42734973,37.0455977 L1.36188446,36.9731617 L1.17347221,41.5917431 C1.09363651,43.4420101 0.574704472,44.481309 1.83291508,45.7205942 C3.9613348,47.8165137 3.97889865,48.4306448 5.34089567,47.7125838 L5.82789343,41.2642064 C5.69057603,41.2453101 5.56283891,41.2185403 5.43989194,41.1823223 L5.45106893,40.8232918 C5.76562159,40.8658085 6.09135123,40.7949472 5.97638783,40.4028481 C5.81032958,39.8343831 5.10617872,39.2737916 4.79481949,39.0013693 C3.92940052,38.2502396 3.38172763,37.2109407 3.18054167,36.4109955 C3.1038994,36.1023552 2.6009345,36.0409421 2.5434528,36 C1.85686579,36.1700671 1.56945727,36.4535123 1.36188446,36.9731617" id="Fill-341" fill="#F5C4A2"></path><path d="M5.82881278,40.5060991 C6.21984345,41.2632405 5.903691,47.3093764 5.2580744,47.6549596 C4.54423543,48.0303887 4.17150833,48.102647 3.74719845,47.8560262 C4.24139466,46.2113642 4.34622416,43.1466692 4.46935722,41.6103946 C3.0366874,40.0144284 2.26128191,38.7184912 1,37 C2.85864365,38.9541161 3.67232024,40.1935033 4.87037165,40.7354407 C5.17820431,40.873674 5.89869911,40.9742073 5.82881278,40.5060991" id="Fill-342" fill="#F5C4A2"></path><path d="M30,66.6597414 C27.8306175,67.0010589 25.6673159,68.9606401 23.9433637,69.9112391 C22.1935674,70.8768082 19.397846,71.4681257 16.5778007,70.5205207 C15.2323883,70.0684248 12.5370027,68.918724 12.4640312,67.9426758 L12.1903879,65.361837 C12.0946128,64.2690224 11.5792514,63.1372856 12.792403,63.474112 C13.894577,63.7809983 15.4604243,64.3798008 16.5185113,63.9965672 C17.8426404,63.5175252 19.3613602,62.4965669 19.6274022,62.3034531 C23.8354266,59.2360872 25.3435048,62.7091418 27.7196399,61.4995607 L30,66.6597414" id="Fill-343" fill="#F5C4A2"></path><path d="M19.5138995,64.3833317 C19.0545078,64.2930034 17.4718195,63.5259297 16.566772,63.8513983 C14.9001417,64.4507195 13.1572005,64.1324197 13,62.7602898 C14.1904502,62.4305198 15.6250954,61.9157918 16.7041317,61.5501773 C17.8838984,61.1501519 18.8316799,60.8576603 20.6143028,61.0727277 C22.4518696,61.2935302 24.3657473,62.2857077 27,61.6591447 C26.1987354,66.8637756 19.8572986,64.4507195 19.5138995,64.3833317" id="Fill-344" fill="#F5C4A2"></path><path d="M25,60.9581638 L45.2482981,53.1513752 C48.0224697,47.2333012 51.5145914,38.7043122 55.4588115,33.6260062 C58.0497405,30.2898371 62.4115132,27.96597 65.2382544,32.6075967 C67.0766875,35.624654 65.2127206,41.6099095 63.5935777,44.2956402 C60.5760841,49.303711 55.4783373,56.7837535 52.3151509,60.7825759 C52.0462951,61.1245905 51.7804433,61.4345412 51.5160934,61.7170086 C50.3835946,63.6057232 48.4054766,64.24242 46.3973188,64.5935957 L26.8864967,68 C28.3554408,64.0088118 26.2091002,61.4299607 25,60.9581638" id="Fill-345" fill="#1A3771"></path><path d="M43.0435263,22.9778012 C42.9312679,22.3469378 42.5931054,21.2179018 42.0072346,21.2179018 C41.7114594,21.2179018 41.6096647,21.3684353 41.416475,21.5591864 C41.1233219,21.8486391 41.4648386,22.4062464 41.3040315,22.8253864 C40.9998677,23.6181823 39.7230404,23.7926978 39.2374386,23.6181823 C38.1353744,23.2221224 39,21.7401143 37.5,21.4070848 C37.2234405,21.3632747 36.9400594,21.4139752 36.6498566,21.5591864 C36.8848012,23.1530499 37.4718419,24.0744918 38.4109787,24.3235121 C39.8196838,24.6970426 42.2735812,23.4300963 43.0435263,22.9778012 Z" id="Path-3" fill="#131730"></path></g></g></g></g></g></svg>