<svg xmlns="http://www.w3.org/2000/svg" xmlns:xlink="http://www.w3.org/1999/xlink" width="1321px" height="583px" viewBox="0 0 1321 583"><title>Still_not_sure_Decor</title><desc>Created with Sketch.</desc><g id="Welcome" stroke="none" strokeWidth="1" fill="none" fillRule="evenodd"><g id="Marketing_Consulting_Page" transform="translate(-286.000000, -9606.000000)"><g id="Still_not_sure_Decor" transform="translate(287.000000, 9606.000000)"><path d="M743,582 C743.178301,578.425532 745.053768,576.638298 748.626401,576.638298 C753.98535,576.638298 754.493509,575.111182 754.493509,572.169253 C754.493509,569.227324 757.11454,565.714286 762,567.470805" id="Path-18" stroke="#96D9E6" strokeWidth="2"></path><path d="M1300,91 C1300.1783,87.425532 1302.05377,85.638298 1305.6264,85.638298 C1310.98535,85.638298 1311.49351,84.1111824 1311.49351,81.1692532 C1311.49351,78.227324 1314.11454,74.7142862 1319,76.4708051" id="Path-18-Copy-2" stroke="#FADA5D" strokeWidth="2"></path><path d="M468,29 C468.178301,25.425532 470.053768,23.638298 473.626401,23.638298 C478.98535,23.638298 479.493509,22.1111824 479.493509,19.1692532 C479.493509,16.227324 482.11454,12.7142862 487,14.4708051" id="Path-18-Copy-3" stroke="#63C8F6" strokeWidth="2"></path><path d="M0,366 C0.178301444,362.425532 2.05376849,360.638298 5.62640113,360.638298 C10.9853501,360.638298 11.4935092,359.111182 11.4935092,356.169253 C11.4935092,353.227324 14.1145404,349.714286 19,351.470805" id="Path-18-Copy" stroke="#CF5DFA" strokeWidth="2"></path><circle id="Oval" fill="#EAB1FF" cx="1174.5" cy="242.5" r="7.5"></circle><circle id="Oval-Copy-15" fill="#F7E498" cx="254.5" cy="220.5" r="7.5"></circle><circle id="Oval-Copy-16" fill="#A9E2C7" cx="58.5" cy="7.5" r="7.5"></circle><path d="M1244,441.236068 L1234.61803,460 L1253.38197,460 L1244,441.236068 Z" id="Triangle-Copy" stroke="#98CEE7" strokeWidth="2"></path></g></g></g></svg>