<svg xmlns="http://www.w3.org/2000/svg" id="Layer_1" data-name="Layer 1" viewBox="0 0 53.93 9.57"><defs><style>.cls-1{fill:#399fd9;}</style></defs><title>Artboard 1</title><path d="M9.74,6.76H8.64L6,2.42h0l0,.24c0,.46,0,.89,0,1.27V6.76H5.19V1.31H6.27L9,5.63H9s0-.26,0-.62,0-.64,0-.84V1.31h.82Z"></path><path d="M14.37,6.76l-.54-1.51H11.74l-.53,1.51h-.94l2-5.47h1l2,5.47Zm-.78-2.28L13.08,3c0-.1-.09-.26-.16-.47s-.11-.37-.13-.47a9,9,0,0,1-.3,1L12,4.48Z"></path><path d="M15.16,8.29a1.53,1.53,0,0,1-.61-.1V7.44a1.91,1.91,0,0,0,.54.08c.49,0,.73-.31.73-.92V1.31h.9V6.57a1.86,1.86,0,0,1-.4,1.27A1.47,1.47,0,0,1,15.16,8.29Z"></path><path d="M20.3,6.76,18.72,2.21h0c0,.68.06,1.31.06,1.9V6.76h-.81V1.31H19.2l1.51,4.34h0l1.56-4.34h1.27V6.76H22.7V4.07c0-.27,0-.63,0-1.06s0-.7,0-.79h0L21.09,6.76Z"></path><path d="M32.1,5a.53.53,0,0,0-.45.2.85.85,0,0,0-.16.56.85.85,0,0,0,.16.56.53.53,0,0,0,.45.19,1,1,0,0,0,.25,0l.25-.06V6.7a1.53,1.53,0,0,1-.54.09.85.85,0,0,1-.68-.27,1.11,1.11,0,0,1-.24-.77,1.2,1.2,0,0,1,.12-.55.72.72,0,0,1,.33-.36,1,1,0,0,1,.51-.13,1.41,1.41,0,0,1,.58.13l-.12.28A1.45,1.45,0,0,0,32.34,5Z"></path><path d="M34.73,5.75a1.08,1.08,0,0,1-.25.77,1,1,0,0,1-1.4,0,1.08,1.08,0,0,1-.25-.77A1.07,1.07,0,0,1,33.08,5a1,1,0,0,1,1.4,0A1.08,1.08,0,0,1,34.73,5.75Zm-1.55,0a.92.92,0,0,0,.15.57.63.63,0,0,0,.9,0,.92.92,0,0,0,.15-.57.92.92,0,0,0-.15-.57A.56.56,0,0,0,33.78,5a.59.59,0,0,0-.45.19A.92.92,0,0,0,33.18,5.75Z"></path><path d="M36.74,6.76h-.4l-1-1.61h0v.09c0,.17,0,.33,0,.47v1h-.3v-2h.4l1,1.6h0s0-.09,0-.23,0-.23,0-.31V4.74h.3Z"></path><path d="M38.34,6.21a.52.52,0,0,1-.2.43.86.86,0,0,1-.53.15,1.35,1.35,0,0,1-.57-.1V6.37a1.54,1.54,0,0,0,.3.11l.29,0a.46.46,0,0,0,.29-.07.25.25,0,0,0,.09-.2.3.3,0,0,0-.08-.2,1.45,1.45,0,0,0-.36-.18,1,1,0,0,1-.39-.26.55.55,0,0,1-.11-.34.48.48,0,0,1,.18-.4.73.73,0,0,1,.48-.15,1.36,1.36,0,0,1,.58.13l-.11.27A1.18,1.18,0,0,0,37.72,5a.34.34,0,0,0-.24.07.19.19,0,0,0-.08.18.32.32,0,0,0,0,.14.36.36,0,0,0,.11.1,1.72,1.72,0,0,0,.27.13,1.21,1.21,0,0,1,.33.18.43.43,0,0,1,.15.18A.52.52,0,0,1,38.34,6.21Z"></path><path d="M40.21,4.74V6.05a.8.8,0,0,1-.09.39.7.7,0,0,1-.28.26,1,1,0,0,1-.44.09.77.77,0,0,1-.58-.2A.71.71,0,0,1,38.61,6V4.74h.33V6a.5.5,0,0,0,.12.37.45.45,0,0,0,.35.12c.32,0,.47-.16.47-.49V4.74Z"></path><path d="M40.63,6.76v-2H41V6.48h.85v.28Z"></path><path d="M42.76,6.76h-.33V5h-.6V4.74h1.52V5h-.59Z"></path><path d="M44.81,6.76l-.2-.56h-.77l-.2.56h-.35l.76-2h.36l.75,2Zm-.29-.84-.19-.55,0-.18A.68.68,0,0,1,44.23,5l-.11.37-.19.53Z"></path><path d="M47,6.76h-.4l-1-1.61h0v.09c0,.17,0,.33,0,.47v1h-.3v-2h.4l1,1.6h0s0-.09,0-.23,0-.23,0-.31V4.74H47Z"></path><path d="M48.14,6.76h-.33V5h-.6V4.74h1.53V5h-.6Z"></path><path d="M32.14,3.68l-.66-1.91h0c0,.29,0,.55,0,.8V3.68h-.34V1.4h.53l.63,1.82h0L33,1.4h.53V3.68h-.36V2.11a3.27,3.27,0,0,1,0-.33h0l-.69,1.9Z"></path><path d="M35.46,3.68l-.23-.63h-.87l-.22.63h-.4l.86-2.29H35l.86,2.29Zm-.32-1-.22-.63s0-.1-.06-.19,0-.16-.06-.2q0,.2-.12.42l-.21.6Z"></path><path d="M36.47,2.77v.91H36.1V1.4h.64a1.07,1.07,0,0,1,.66.16.6.6,0,0,1,.21.5.61.61,0,0,1-.44.61l.65,1h-.43l-.55-.91Zm0-.31h.26a.56.56,0,0,0,.38-.1.34.34,0,0,0,.12-.29.29.29,0,0,0-.13-.27.64.64,0,0,0-.38-.09h-.25Z"></path><path d="M39.83,3.68H39.4l-.72-1-.22.18v.85h-.38V1.4h.38V2.49q.15-.2.3-.36l.62-.73h.43L39,2.4Z"></path><path d="M41.36,3.68H40.07V1.4h1.29v.31h-.92v.62h.86v.32h-.86v.72h.92Z"></path><path d="M42.58,3.68h-.37v-2h-.68V1.4h1.72v.32h-.67Z"></path><path d="M43.54,3.68V1.4h.37V3.68Z"></path><path d="M46.36,3.68H45.9L44.78,1.86h0V2a5.06,5.06,0,0,1,0,.53V3.68h-.34V1.4h.46L46,3.21h0S46,3.1,46,3s0-.27,0-.36V1.4h.34Z"></path><path d="M47.84,2.44h.84V3.59a2.13,2.13,0,0,1-.4.1l-.41,0a1,1,0,0,1-.8-.3,1.25,1.25,0,0,1-.28-.87,1.14,1.14,0,0,1,.32-.87A1.21,1.21,0,0,1,48,1.36a1.72,1.72,0,0,1,.68.14l-.13.31A1.43,1.43,0,0,0,48,1.68a.77.77,0,0,0-.58.23.92.92,0,0,0-.21.63.94.94,0,0,0,.19.64.68.68,0,0,0,.55.22,1.89,1.89,0,0,0,.39,0V2.76h-.47Z"></path><rect class="cls-1" x="27.69" y="1.36" width="0.49" height="5.39"></rect></svg>