<svg xmlns="http://www.w3.org/2000/svg" xmlns:xlink="http://www.w3.org/1999/xlink" width="1793px" height="722px" viewBox="0 0 1793 722"><title>Bg_icon</title><desc>Created with Sketch.</desc><g id="Welcome" stroke="none" stroke-width="1" fill="none" fill-rule="evenodd"><g id="Bg_icon" transform="translate(0.000000, -1.000000)"><g id="Group-5"><path d="M1789.90868,1.5 C1789.96956,1.31057207 1790,1.14394314 1790,1.0001132 C1445.2236,1.0001077 263.492101,0.999861271 21.5589229,1.0001132 C21.5589229,1.11255209 21.3726153,1.27918102 21,1.5 L1789.90868,1.5 Z" id="Omuk-" fill="#F3F7FB"></path><g id="Icons" transform="translate(0.295092, 201.074525)"><g id="003-paper-plane" transform="translate(717.285909, 189.184432) scale(-1, 1) rotate(10.000000) translate(-717.285909, -189.184432) translate(696.285909, 168.184432)" fill="#E1E7EE" fill-rule="nonzero"><path d="M41.8898651,1.73977248 L41.889701,1.73977248 C42.0645925,1.35471831 42.0337486,0.894359551 41.7810911,0.529731131 C41.4421363,0.0407435024 40.8021252,-0.135787512 40.2605522,0.110469972 L0.721289868,18.0827546 C0.260682071,18.292098 -0.0248701529,18.7621365 0.0017081064,19.2673663 C0.028204334,19.7726781 0.361334924,20.2101502 0.841384225,20.3701929 L9.58210418,23.283775 L10.8021611,30.1999845 C10.8919858,30.7093979 11.2908237,31.1081513 11.8001584,31.1979754 L18.7164121,32.4180245 L21.6300127,41.1586886 C21.7900565,41.6387349 22.2275314,41.9718633 22.7328464,41.9983594 C22.7545848,41.9995078 22.7760771,42 22.7976514,42 C23.2779468,42 23.7171444,41.7195355 23.9174657,41.2787002 L41.8856815,1.749042 C41.8865838,1.74699123 41.8874862,1.74494045 41.8884706,1.7429717 L41.8898651,1.73977248 Z M35.1014167,5.15866636 L17.0732358,23.1867321 L4.59220005,19.0263588 L35.1014167,5.15866636 Z M13.0759968,28.9241542 L12.237141,24.168809 L16.4328146,25.5673579 L17.8313724,29.7630046 L13.0759968,28.9241542 Z M22.9737734,37.4078147 L18.8133735,24.9269408 L36.8416365,6.89879294 L22.9737734,37.4078147 Z" id="Shape"></path></g><g id="003-paper-plane-copy" transform="translate(1152.000000, 164.000000)" fill="#E1E7EE" fill-rule="nonzero"><path d="M50.8898651,10.7397725 L50.889701,10.7397725 C51.0645925,10.3547183 51.0337486,9.89435955 50.7810911,9.52973113 C50.4421363,9.0407435 49.8021252,8.86421249 49.2605522,9.11046997 L9.72128987,27.0827546 C9.26068207,27.292098 8.97512985,27.7621365 9.00170811,28.2673663 C9.02820433,28.7726781 9.36133492,29.2101502 9.84138422,29.3701929 L18.5821042,32.283775 L19.8021611,39.1999845 C19.8919858,39.7093979 20.2908237,40.1081513 20.8001584,40.1979754 L27.7164121,41.4180245 L30.6300127,50.1586886 C30.7900565,50.6387349 31.2275314,50.9718633 31.7328464,50.9983594 C31.7545848,50.9995078 31.7760771,51 31.7976514,51 C32.2779468,51 32.7171444,50.7195355 32.9174657,50.2787002 L50.8856815,10.749042 C50.8865838,10.7469912 50.8874862,10.7449404 50.8884706,10.7429717 L50.8898651,10.7397725 Z M44.1014167,14.1586664 L26.0732358,32.1867321 L13.5922001,28.0263588 L44.1014167,14.1586664 Z M22.0759968,37.9241542 L21.237141,33.168809 L25.4328146,34.5673579 L26.8313724,38.7630046 L22.0759968,37.9241542 Z M31.9737734,46.4078147 L27.8133735,33.9269408 L45.8416365,15.8987929 L31.9737734,46.4078147 Z" id="Shape" transform="translate(30.000000, 30.000000) rotate(-45.000000) translate(-30.000000, -30.000000) "></path></g><g id="001-shuttle" transform="translate(381.500000, 126.000000) scale(-1, 1) rotate(-45.000000) translate(-381.500000, -126.000000) translate(356.000000, 100.000000)" fill="#DAE2EA" fill-rule="nonzero"><path d="M50.5878602,4.3790381 C50.4795595,2.39291257 48.8999702,0.813523828 46.913838,0.705125788 C42.9062222,0.486181278 35.0640374,0.699168778 27.5652118,4.57776784 C23.7424592,6.55510434 19.6994918,9.90753346 16.4730281,13.775488 C16.433282,13.8231441 16.3946101,13.8710931 16.355157,13.9188469 L9.03289391,14.4844698 C7.82762088,14.5776335 6.75408609,15.2093695 6.08748476,16.2175689 L1.09197865,23.7734006 C0.586412414,24.5380462 0.506041348,25.4949763 0.876842003,26.3331568 C1.24774031,27.171435 2.00984943,27.7556126 2.91561084,27.8959441 L9.0846517,28.8514093 C9.06287437,28.9713308 9.04099937,29.0911545 9.02097985,29.211076 C8.81560883,30.4395871 9.22263994,31.7026684 10.1099443,32.5898722 L18.7029101,41.1829071 C19.4385544,41.9185489 20.4325971,42.3241138 21.4511514,42.3241138 C21.6609169,42.3241138 21.8718544,42.3068287 22.0818152,42.2717703 C22.2017371,42.2517508 22.3215613,42.2298759 22.4414831,42.2080986 L23.3969515,48.3772166 C23.5372835,49.282975 24.121463,50.0451793 24.9595486,50.4159787 C25.308279,50.570275 25.6773218,50.6464466 26.0447045,50.6464466 C26.5606223,50.6464466 27.0729268,50.4961542 27.519411,50.2009404 L35.0752678,45.2053533 C36.0835683,44.5386565 36.7152087,43.4651253 36.8081774,42.2599539 L37.3738022,34.9378128 C37.4215561,34.8983598 37.469603,34.8596881 37.5172592,34.8199421 C41.3853243,31.5934891 44.7378622,27.5505352 46.7151076,23.7276976 C50.5939149,16.228604 50.8065125,8.38634763 50.5878602,4.3790381 Z M33.4595457,42.7614169 L26.2319115,47.5400127 L25.3006618,41.5278277 C28.3553483,40.6296865 31.3771246,39.1912152 34.2559322,37.2641715 L33.8874753,42.0341735 C33.8645261,42.331731 33.7084714,42.5968667 33.4595457,42.7614169 L33.4595457,42.7614169 Z M20.7744915,39.1113326 L12.181428,30.5182977 C11.9621898,30.2989626 11.8608226,29.9908583 11.9105296,29.694082 C12.1659983,28.1664509 12.5629708,26.712257 13.0543769,25.3423402 L25.9477319,38.2356523 C24.3024199,38.8250056 22.82869,39.1765668 21.5987099,39.3822301 C21.3014444,39.431644 20.9937297,39.3305701 20.7744915,39.1113326 Z M9.25857743,17.4054552 L14.0284977,17.0369995 C12.1013499,19.9157975 10.6628738,22.9375638 9.7647296,25.9922401 L3.75262227,25.0610912 L8.53133158,17.8333833 C8.69597996,17.5843608 8.96111659,17.4284043 9.25857743,17.4054552 L9.25857743,17.4054552 Z M35.6408926,32.570048 C33.2743895,34.5439666 30.9772224,35.9716957 28.8598403,37.0047974 L14.287482,22.4324875 C15.6408018,19.6684352 17.2924614,17.3667835 18.7227344,15.6521413 C21.7085732,12.0725646 25.4221461,8.98458762 28.9113051,7.17990674 C35.7935293,3.62005651 43.0446011,3.42835799 46.7543654,3.63031038 C47.2453809,3.65706809 47.6359081,4.047594 47.6626659,4.53870548 C47.8649119,8.24845751 47.6728221,15.4994075 44.1129601,22.3817065 C42.3083708,25.8707562 39.2203836,29.5842191 35.6408926,32.570048 Z" id="Shape"></path><path d="M35.5459915,23.9540585 C37.4662556,23.9538583 39.3873196,23.2224902 40.8492683,21.759854 C42.2659155,20.3426406 43.0459415,18.4582922 43.0459415,16.4540834 C43.0459415,14.4498747 42.2658155,12.5655262 40.8492683,11.1483129 C37.9249708,8.22254026 33.1668122,8.22274036 30.2427148,11.1483129 C28.8260676,12.5655262 28.0459415,14.4498747 28.0459415,16.4540834 C28.0459415,18.4582922 28.8261676,20.3426406 30.2427148,21.759854 C31.7049635,23.2227903 33.6250275,23.9542585 35.5459915,23.9540585 Z M32.3638855,13.2705811 C33.2411147,12.3928393 34.3934531,11.9540184 35.5457915,11.9540184 C36.69823,11.9540184 37.8505684,12.3928393 38.7277976,13.2705811 C39.5777259,14.1209091 40.0457415,15.2514781 40.0457415,16.4539834 C40.0457415,17.6564886 39.5777259,18.7871577 38.7277976,19.6374857 C36.9733391,21.3928693 34.118344,21.3927692 32.3637855,19.6374857 C31.5138571,18.7871577 31.0457415,17.6565887 31.0457415,16.4540834 C31.0457415,15.2515782 31.5139571,14.1209091 32.3638855,13.2705811 Z" id="Shape"></path><path d="M2.9698908,41.8743687 C3.31017597,41.8743687 3.65046113,41.7446036 3.90999616,41.4848963 L8.25091446,37.1440604 C8.77016179,36.6248229 8.77016179,35.7830342 8.25091446,35.2637968 C7.73175577,34.7445593 6.88986244,34.7445593 6.37061511,35.2637968 L2.02978545,39.6046326 C1.51053812,40.1238701 1.51053812,40.9656588 2.02978545,41.4848963 C2.28932048,41.744515 2.62960564,41.8743687 2.9698908,41.8743687 Z" id="Path"></path><path d="M12.8370319,39.8700848 C12.270928,39.303887 11.3529059,39.303887 10.7867053,39.8700848 L1.68632076,48.9705201 C1.12012015,49.5367179 1.12012015,50.4546387 1.68632076,51.0208365 C1.96942106,51.3039354 2.34038009,51.4454365 2.71143576,51.4454365 C3.08249144,51.4454365 3.45354711,51.3039354 3.73655076,51.0207398 L12.8369353,41.9204011 C13.4032325,41.3542034 13.4032325,40.4362826 12.8370319,39.8700848 Z" id="Path"></path><path d="M14.8559851,43.7490781 L10.5150668,48.089914 C9.9958195,48.6091515 9.9958195,49.4509402 10.5150668,49.9701776 C10.7746905,50.2297964 11.1149757,50.35965 11.4551722,50.35965 C11.7953687,50.35965 12.1357425,50.229885 12.3952775,49.9701776 L16.7361958,45.6293418 C17.2554432,45.1101043 17.2554432,44.2683156 16.7361958,43.7490781 C16.2170371,43.2298407 15.3751438,43.2298407 14.8559851,43.7490781 Z" id="Path"></path></g><g id="002-flight" transform="translate(30.500000, 16.000000) scale(-1, 1) translate(-30.500000, -16.000000) " fill="#DAE2EA" fill-rule="nonzero"><path d="M16.3125245,21.9980143 C16.7324336,21.99926 17.1492221,21.9268125 17.5434293,21.7840547 L29.6190442,17.194797 L30.5427506,14.784854 C30.6217012,14.5788988 30.7850475,14.4153809 30.9925957,14.3345361 L44.1600316,9.20367275 C44.4735296,9.08113827 44.8312705,9.16799384 45.0513772,9.42008175 C45.271484,9.67216966 45.3056565,10.0341717 45.1365213,10.3220447 L44.6179261,11.2057512 L59.4764046,5.40045288 C60.4072002,5.03675152 61.0134589,4.1432966 61,3.15543603 C60.9860871,2.16757546 60.3553035,1.29081144 59.4147802,0.952359026 C55.2322263,-0.546237923 50.6073267,-0.266824754 46.6412391,1.72407212 L16.8680679,16.1902417 C16.6104686,16.3153373 16.3044327,16.2930137 16.0682701,16.1319009 L9.0236886,11.3266 C6.93215654,9.89682662 4.25447963,9.5945086 1.8897715,10.5211586 L0,11.2595341 L11.2428274,20.2675851 C12.6678713,21.4255294 14.4670618,22.0396434 16.3125245,21.9980143 L16.3125245,21.9980143 Z" id="Path"></path><polygon id="Path" points="31.0041718 32 43 12 32.2251897 16.1068858 26 32"></polygon><polygon id="Path" points="36 4.91141888 22.7171279 0 20 1.66345586 29.7672594 8"></polygon></g><path d="M843.426754,189.710199 C795.531329,197.634405 771.098053,213.096436 770.126926,236.096291 C768.670237,270.596074 814.368549,291.59506 805.803463,324.636078 C797.238378,357.677095 781.024742,342.701702 747.426754,376.710199" id="Path-2" stroke="#E1E7EE" stroke-width="2" stroke-linecap="round" stroke-dasharray="4,4" transform="translate(795.426754, 283.210199) scale(1, -1) rotate(10.000000) translate(-795.426754, -283.210199) "></path><path d="M1250.90205,219.666319 C1206.86034,226.926659 1184.39299,241.093325 1183.5,262.166319 C1182.16052,293.77581 1224.1819,313.015562 1216.30597,343.288498 C1208.43004,373.561435 1193.52097,359.840637 1162.62631,391" id="Path-2-Copy" stroke="#E1E7EE" stroke-width="2" stroke-linecap="round" stroke-dasharray="4,4" transform="translate(1206.764177, 305.333160) scale(-1, -1) rotate(-42.000000) translate(-1206.764177, -305.333160) "></path><g id="undraw_walk_in_the_city_1ma6-copy" transform="translate(1361.000000, 154.500000) scale(-1, 1) translate(-1361.000000, -154.500000) translate(1028.000000, 121.000000)" fill-rule="nonzero"><g id="001-shuttle" transform="translate(33.439340, 33.060660) rotate(-45.000000) translate(-33.439340, -33.060660) translate(10.439340, 9.560660)" fill="#E1E7EE"><path d="M45.8866121,4.00577895 C45.7891414,2.21826597 44.367511,0.796816106 42.5799921,0.69925787 C38.9731379,0.502207811 31.9151715,0.693896561 25.1662285,4.18463572 C21.7257512,5.96423857 18.0870805,8.98142477 15.1832632,12.4625839 C15.1474917,12.5054744 15.112687,12.5486285 15.0771792,12.5916069 L8.4871424,13.1006675 C7.40239667,13.1845148 6.43621536,13.7530772 5.83627416,14.6604567 L1.34031866,21.4607052 C0.885309053,22.1488863 0.812975093,23.0101233 1.14669568,23.7644858 C1.48050416,24.5189362 2.16640237,25.044696 2.98158763,25.1709943 L8.53372441,26.0309131 C8.51412481,26.1388423 8.49443732,26.2466837 8.47641974,26.354613 C8.29158582,27.460273 8.65791382,28.5970462 9.45648777,29.3955296 L17.190157,37.129261 C17.8522369,37.7913387 18.7468752,38.1563471 19.6635741,38.1563471 C19.8523631,38.1563471 20.0422068,38.1407905 20.2311716,38.1092379 C20.3391012,38.0912204 20.446943,38.071533 20.5548727,38.0519334 L21.4147942,43.6041396 C21.541093,44.4193222 22.0668546,45.105306 22.8211316,45.4390255 C23.134989,45.5778922 23.4671275,45.6464466 23.7977719,45.6464466 C24.262098,45.6464466 24.723172,45.5111834 25.1250078,45.245491 L31.9252789,40.7494626 C32.8327493,40.1494355 33.4012257,39.1832574 33.4848975,38.0986032 L33.9939599,31.5086762 C34.0369384,31.4731685 34.0801805,31.4383639 34.1230712,31.4025926 C37.6043297,28.4987849 40.6216139,24.8601263 42.4011347,21.4195725 C45.8920613,14.6703883 46.0833991,7.61235753 45.8866121,4.00577895 Z M30.471129,38.5499199 L23.9662582,42.8506561 L23.1281335,37.4396896 C25.8773513,36.6313625 28.59695,35.3367383 31.1878768,33.602399 L30.8562656,37.8954008 C30.8356113,38.1632026 30.6951622,38.4018247 30.471129,38.5499199 L30.471129,38.5499199 Z M19.0545802,35.264844 L11.3208231,27.5311126 C11.1235087,27.333711 11.0322782,27.0564171 11.0770146,26.7893185 C11.3069364,25.4144505 11.6642116,24.105676 12.1064771,22.8727508 L23.7104966,34.4767317 C22.2297158,35.0071497 20.9033589,35.3235548 19.7963768,35.5086517 C19.5288378,35.5531242 19.2518946,35.4621578 19.0545802,35.264844 Z M8.69025756,15.7295543 L12.9831858,15.3979442 C11.2487528,17.9888625 9.95412432,20.7084521 9.14579452,23.4576608 L3.73489792,22.6196267 L8.0357363,16.1146896 C8.18391984,15.8905694 8.42254281,15.7502086 8.69025756,15.7295543 L8.69025756,15.7295543 Z M32.4343413,29.3776879 C30.3044885,31.1542146 28.237038,32.4391708 26.3313941,33.3689623 L13.2162716,20.2538834 C14.4342595,17.7662363 15.9207531,15.6947498 17.2079988,14.1515718 C19.8952537,10.9299528 23.2374694,8.15077352 26.3777125,6.52656073 C32.5717143,3.32269552 39.0976788,3.15016685 42.4364668,3.331924 C42.8783807,3.35600594 43.2298552,3.70747926 43.2539372,4.1494796 C43.4359586,7.48825642 43.2630778,14.0141114 40.0592019,20.2081805 C38.4350716,23.3483252 35.6558831,26.6904419 32.4343413,29.3776879 Z" id="Shape"></path><path d="M32.6317713,20.4540585 C34.2960001,20.4538849 35.9609223,19.8200326 37.2279445,18.5524145 C38.4557054,17.324163 39.131728,15.691061 39.131728,13.9540801 C39.131728,12.2170991 38.4556188,10.5839972 37.2279445,9.35574562 C34.6935534,6.82007602 30.5698159,6.82024944 28.0355981,9.35574562 C26.8078372,10.5839972 26.131728,12.2170991 26.131728,13.9540801 C26.131728,15.691061 26.8079239,17.324163 28.0355981,18.5524145 C29.3028804,19.8202927 30.9669358,20.4542318 32.6317713,20.4540585 Z M29.8739461,11.1950447 C30.6342114,10.4343352 31.6329047,10.0540237 32.631598,10.0540237 C33.6303779,10.0540237 34.6290712,10.4343352 35.3893366,11.1950447 C36.1259411,11.9319956 36.5315546,12.9118222 36.5315546,13.9539934 C36.5315546,14.9961646 36.1259411,15.9760778 35.3893366,16.7130287 C33.8688059,18.2343611 31.3944767,18.2342744 29.8738594,16.7130287 C29.1372548,15.9760778 28.7315546,14.9962513 28.7315546,13.9540801 C28.7315546,12.9119089 29.1373415,11.9319956 29.8739461,11.1950447 Z" id="Shape"></path><path d="M2.88410437,37.9601551 C3.22438953,37.9601551 3.5646747,37.8303901 3.82420972,37.5706827 L8.16512802,33.2298468 C8.68437535,32.7106094 8.68437535,31.8688207 8.16512802,31.3495832 C7.64596933,30.8303457 6.804076,30.8303457 6.28482867,31.3495832 L1.94399901,35.6904191 C1.42475169,36.2096565 1.42475169,37.0514452 1.94399901,37.5706827 C2.20353404,37.8303014 2.5438192,37.9601551 2.88410437,37.9601551 Z" id="Path"></path><path d="M11.8220185,35.470883 C11.3502652,34.9990515 10.5852468,34.9990515 10.113413,35.470883 L2.52975924,43.0545791 C2.0579254,43.5264105 2.0579254,44.2913446 2.52975924,44.763176 C2.76567616,44.9990918 3.07480868,45.1170094 3.38402175,45.1170094 C3.69323481,45.1170094 4.00244787,44.9990918 4.23828425,44.7630955 L11.821938,37.1794799 C12.2938524,36.7076484 12.2938524,35.9427144 11.8220185,35.470883 Z" id="Path"></path><path d="M14.7701987,39.8348646 L10.4292804,44.1757004 C9.91003306,44.6949379 9.91003306,45.5367266 10.4292804,46.0559641 C10.6889041,46.3155828 11.0291892,46.4454365 11.3693857,46.4454365 C11.7095823,46.4454365 12.0499561,46.3156714 12.3094911,46.0559641 L16.6504094,41.7151282 C17.1696567,41.1958907 17.1696567,40.354102 16.6504094,39.8348646 C16.1312507,39.3156271 15.2893574,39.3156271 14.7701987,39.8348646 Z" id="Path"></path></g><g id="002-flight" transform="translate(635.500000, 50.000000) scale(-1, 1) translate(-635.500000, -50.000000) translate(605.000000, 34.000000)" fill="#DAE2EA"><path d="M16.3125245,21.9980143 C16.7324336,21.99926 17.1492221,21.9268125 17.5434293,21.7840547 L29.6190442,17.194797 L30.5427506,14.784854 C30.6217012,14.5788988 30.7850475,14.4153809 30.9925957,14.3345361 L44.1600316,9.20367275 C44.4735296,9.08113827 44.8312705,9.16799384 45.0513772,9.42008175 C45.271484,9.67216966 45.3056565,10.0341717 45.1365213,10.3220447 L44.6179261,11.2057512 L59.4764046,5.40045288 C60.4072002,5.03675152 61.0134589,4.1432966 61,3.15543603 C60.9860871,2.16757546 60.3553035,1.29081144 59.4147802,0.952359026 C55.2322263,-0.546237923 50.6073267,-0.266824754 46.6412391,1.72407212 L16.8680679,16.1902417 C16.6104686,16.3153373 16.3044327,16.2930137 16.0682701,16.1319009 L9.0236886,11.3266 C6.93215654,9.89682662 4.25447963,9.5945086 1.8897715,10.5211586 L0,11.2595341 L11.2428274,20.2675851 C12.6678713,21.4255294 14.4670618,22.0396434 16.3125245,21.9980143 L16.3125245,21.9980143 Z" id="Path"></path><polygon id="Path" points="31.0041718 32 43 12 32.2251897 16.1068858 26 32"></polygon><polygon id="Path" points="36 4.91141888 22.7171279 0 20 1.66345586 29.7672594 8"></polygon></g></g><g id="Group-52" transform="translate(1544.000000, 223.000000)"><path d="M51.052,25.526 C51.052,39.624 39.624,51.052 25.526,51.052 C11.428,51.052 -1.56319402e-13,39.624 -1.56319402e-13,25.526 C-1.56319402e-13,11.429 11.428,5.68434189e-14 25.526,5.68434189e-14 C39.624,5.68434189e-14 51.052,11.429 51.052,25.526" id="Fill-260" fill="#F3F7FB"></path><path d="M51.052,25.526 C51.052,39.624 39.624,51.052 25.526,51.052 C11.428,51.052 -1.56319402e-13,39.624 -1.56319402e-13,25.526 C-1.56319402e-13,11.429 11.428,5.68434189e-14 25.526,5.68434189e-14 C39.624,5.68434189e-14 51.052,11.429 51.052,25.526 Z" id="Stroke-261" stroke="#DAE2EA" stroke-width="3"></path><path d="M44.258,25.526 C44.258,35.872 35.872,44.259 25.526,44.259 C15.18,44.259 6.793,35.872 6.793,25.526 C6.793,15.181 15.18,6.793 25.526,6.793 C35.872,6.793 44.258,15.181 44.258,25.526" id="Fill-262" fill="#F3F7FB"></path><path d="M44.258,25.526 C44.258,35.872 35.872,44.259 25.526,44.259 C15.18,44.259 6.793,35.872 6.793,25.526 C6.793,15.181 15.18,6.793 25.526,6.793 C35.872,6.793 44.258,15.181 44.258,25.526 Z" id="Stroke-263" stroke="#DAE2EA" stroke-width="3"></path><path d="M25.526,5.68434189e-14 L25.526,6.793 M47.426,12.412 L41.685,16.054 M9.188,16.36 L3.503,12.622 M6.793,8.193 L11.583,12.983" id="Stroke-264" stroke="#DAE2EA" stroke-width="3" stroke-linecap="round" stroke-linejoin="round"></path><text id="%" font-family="LucidaGrande, Lucida Grande" font-size="18.0382" font-weight="normal" fill="#BCC9D5"><tspan x="20.0971" y="30.9377918">%</tspan></text></g><path d="M333.088,245 C323.691,245 315.921,252.081 314.822,261.185 L319.381,261.185 C320.447,254.58 326.187,249.518 333.088,249.518 C339.065,249.518 344.168,253.315 346.121,258.622 L343.558,261.185 L352.201,261.185 L352.201,252.543 L349.548,255.196 C346.526,249.158 340.287,245 333.088,245 Z" id="Fill-8" fill="#DAE2EA"></path><path d="M333.088,277.291 C327.118,277.291 322.021,273.502 320.062,268.204 L322.643,265.624 L314,265.624 L314,274.267 L316.636,271.631 C319.661,277.659 325.896,281.809 333.088,281.809 C342.485,281.809 350.255,274.729 351.355,265.624 L346.796,265.624 C345.73,272.229 339.99,277.291 333.088,277.291" id="Fill-9" fill="#DAE2EA"></path><path d="M450.444,276.405 C450.441,268.698 444.151,262.408 436.444,262.405 L367.039,262.405 C366.487,262.405 366.039,262.852 366.039,263.405 C366.039,263.957 366.487,264.405 367.039,264.405 L436.444,264.405 C439.744,264.405 442.739,265.752 444.919,267.931 C447.097,270.11 448.444,273.105 448.444,276.405 L448.444,520.925475 C449.226444,520.925475 449.911012,520.925475 450.444,520.925475 L450.444,276.405 Z" id="Fill-62" fill="#E5EAF0"></path><path d="M371.602,263.179 C371.602,265.699 369.559,267.742 367.039,267.742 C364.519,267.742 362.476,265.699 362.476,263.179 C362.476,260.659 364.519,258.616 367.039,258.616 C369.559,258.616 371.602,260.659 371.602,263.179" id="Fill-113" fill="#E5EAF0"></path><g id="Group-60" transform="translate(142.000000, 3.000000)"><polygon id="Fill-54" fill="#F3F7FB" points="0.589 66.239 8.343 66.239 8.343 44.012 0.589 44.012"></polygon><polygon id="Stroke-55" stroke="#DAE2EA" stroke-width="3" stroke-linecap="round" stroke-linejoin="round" points="0.589 66.239 8.343 66.239 8.343 44.012 0.589 44.012"></polygon><polygon id="Fill-56" fill="#F3F7FB" points="15.682 66.239 23.432 66.239 23.432 37.986 15.682 37.986"></polygon><polygon id="Stroke-57" stroke="#DAE2EA" stroke-width="3" stroke-linecap="round" stroke-linejoin="round" points="15.682 66.239 23.432 66.239 23.432 37.986 15.682 37.986"></polygon><polygon id="Fill-58" fill="#F3F7FB" points="30.772 66.239 38.522 66.239 38.522 31.571 30.772 31.571"></polygon><polygon id="Stroke-59" stroke="#DAE2EA" stroke-width="3" stroke-linecap="round" stroke-linejoin="round" points="30.772 66.239 38.522 66.239 38.522 31.571 30.772 31.571"></polygon><polygon id="Fill-60" fill="#F3F7FB" points="45.862 66.239 53.622 66.239 53.622 21.785 45.862 21.785"></polygon><path d="M45.862,66.239 L53.622,66.239 L53.622,21.785 L45.862,21.785 L45.862,66.239 Z M53.242,0 C40.762,14.826 28.922,28.088 0.589,28.088 L53.242,0 Z M44.162,0 L53.242,0 L53.242,9.026 L44.162,0 Z" id="Stroke-61" stroke="#DAE2EA" stroke-width="3" stroke-linecap="round" stroke-linejoin="round"></path></g><g id="Group-55" transform="translate(1393.000000, 125.000000)"><path d="M22.95,33.572 L17.76,70.012 C17.27,73.412 14.37,75.942 10.93,75.942 L10.76,75.942 L10.76,33.832 L14.8,33.572 L22.95,33.572" id="Fill-265" fill="#F3F7FB"></path><path d="M22.95,33.572 L17.76,70.012 C17.27,73.412 14.37,75.942 10.93,75.942 L10.76,75.942 L10.76,33.832 L14.8,33.572 L22.95,33.572 Z" id="Stroke-266" stroke="#DAE2EA" stroke-width="3"></path><path d="M47.18,23.702 C47.18,28.472 43.31,32.352 38.54,32.352 L38.54,15.052 C43.31,15.052 47.18,18.932 47.18,23.702" id="Fill-267" fill="#F3F7FB"></path><path d="M47.18,23.702 C47.18,28.472 43.31,32.352 38.54,32.352 L38.54,15.052 C43.31,15.052 47.18,18.932 47.18,23.702 Z M33.83,5.262 L33.83,42.142 C33.83,39.772 32.88,37.632 31.319,36.082 C29.779,34.532 27.64,33.572 25.27,33.572 L9.87,33.572 C4.42,33.572 0,29.162 0,23.702 C0,20.972 1.1,18.512 2.89,16.722 C4.68,14.942 7.15,13.832 9.87,13.832 L25.27,13.832 C30,13.832 33.83,9.992 33.83,5.262 Z M15.961,13.829 L15.961,33.038 L15.961,13.829 Z M38.54,2.992 L38.54,43.762 C38.54,45.052 37.48,46.112 36.18,46.112 C34.89,46.112 33.83,45.052 33.83,43.762 L33.83,2.992 C33.83,1.692 34.89,0.642 36.18,0.642 C36.83,0.642 37.42,0.902 37.85,1.332 C38.27,1.752 38.54,2.342 38.54,2.992 Z" id="Stroke-268" stroke="#DAE2EA" stroke-width="3"></path><path d="M49.413,12.209 L60.426,3.823 M60.118,15.087 L51.657,19.374 M49.413,34.457 L60.426,42.843 M60.118,31.579 L51.657,27.292" id="Stroke-269" stroke="#DAE2EA" stroke-width="3" stroke-linecap="round" stroke-linejoin="round"></path></g><g id="Group-62" transform="translate(847.000000, 150.000000)"><path d="M21.5220648,38.135 L30.2820648,22.13 C31.9550648,19.071 32.5080648,15.524 31.8430648,12.101 C30.4790648,5.074 24.3250648,8.52651283e-14 17.1660648,8.52651283e-14 L13.6920648,8.52651283e-14 L18.4260648,8.52651283e-14 L14.9520648,8.52651283e-14 C7.79206481,8.52651283e-14 1.63906481,5.074 0.274064809,12.101 C-0.389935191,15.524 0.161064809,19.071 1.83506481,22.13 L10.5960648,38.135 L21.5220648,38.135" id="Fill-280" fill="#F3F7FB"></path><path d="M21.5220648,38.135 L30.2820648,22.13 C31.9550648,19.071 32.5080648,15.524 31.8430648,12.101 C30.4790648,5.074 24.3250648,2.84217094e-14 17.1660648,2.84217094e-14 L13.6920648,2.84217094e-14 L18.4260648,2.84217094e-14 L14.9520648,2.84217094e-14 C7.79206481,2.84217094e-14 1.63906481,5.074 0.274064809,12.101 C-0.389935191,15.524 0.161064809,19.071 1.83506481,22.13 L10.5960648,38.135 L21.5220648,38.135 Z M13.9500648,41.938 L13.9500648,19.899 C13.9500648,18.409 12.7430648,17.202 11.2520648,17.202 C9.76306481,17.202 8.55606481,18.409 8.55606481,19.899 L8.55606481,20.319 C8.55606481,21.808 9.76306481,23.016 11.2520648,23.016 L18.5600648,23.016 L13.9500648,41.938 Z M18.1670648,41.938 L18.1670648,19.899 C18.1670648,18.409 19.3750648,17.202 20.8650648,17.202 C22.3540648,17.202 23.5620648,18.409 23.5620648,19.899 L23.5620648,20.319 C23.5620648,21.808 22.3540648,23.016 20.8650648,23.016 L13.5580648,23.016 L18.1670648,41.938 Z" id="Stroke-281" stroke="#DAE2EA" stroke-width="3"></path><path d="M19.5310648,43.026 L12.5870648,43.026 C11.1230648,43.026 9.92506481,41.828 9.92506481,40.364 C9.92506481,38.9 11.1230648,37.703 12.5870648,37.703 L19.5310648,37.703 C20.9940648,37.703 22.1920648,38.9 22.1920648,40.364 C22.1920648,41.828 20.9940648,43.026 19.5310648,43.026" id="Fill-282" fill="#F3F7FB"></path><path d="M19.5310648,43.026 L12.5870648,43.026 C11.1230648,43.026 9.92506481,41.828 9.92506481,40.364 C9.92506481,38.9 11.1230648,37.703 12.5870648,37.703 L19.5310648,37.703 C20.9940648,37.703 22.1920648,38.9 22.1920648,40.364 C22.1920648,41.828 20.9940648,43.026 19.5310648,43.026 Z" id="Stroke-283" stroke="#DAE2EA" stroke-width="3" stroke-linecap="round" stroke-linejoin="round"></path><path d="M19.5310648,37.703 L12.5870648,37.703 C11.1230648,37.703 9.92506481,38.9 9.92506481,40.364 C9.92506481,41.828 11.1230648,43.026 12.5870648,43.026 L19.5310648,43.026 C20.9940648,43.026 22.1920648,41.828 22.1920648,40.364 C22.1920648,38.9 20.9940648,37.703 19.5310648,37.703" id="Fill-284" fill="#F3F7FB"></path><path d="M19.5310648,37.703 L12.5870648,37.703 C11.1230648,37.703 9.92506481,38.9 9.92506481,40.364 C9.92506481,41.828 11.1230648,43.026 12.5870648,43.026 L19.5310648,43.026 C20.9940648,43.026 22.1920648,41.828 22.1920648,40.364 C22.1920648,38.9 20.9940648,37.703 19.5310648,37.703 Z" id="Stroke-285" stroke="#DAE2EA" stroke-width="3" stroke-linecap="round" stroke-linejoin="round"></path><path d="M19.5310648,43.026 L12.5870648,43.026 C11.1230648,43.026 9.92506481,44.223 9.92506481,45.687 C9.92506481,47.151 11.1230648,48.349 12.5870648,48.349 L19.5310648,48.349 C20.9940648,48.349 22.1920648,47.151 22.1920648,45.687 C22.1920648,44.223 20.9940648,43.026 19.5310648,43.026" id="Fill-286" fill="#F3F7FB"></path><path d="M19.5310648,43.026 L12.5870648,43.026 C11.1230648,43.026 9.92506481,44.223 9.92506481,45.687 C9.92506481,47.151 11.1230648,48.349 12.5870648,48.349 L19.5310648,48.349 C20.9940648,48.349 22.1920648,47.151 22.1920648,45.687 C22.1920648,44.223 20.9940648,43.026 19.5310648,43.026 Z" id="Stroke-287" stroke="#DAE2EA" stroke-width="3" stroke-linecap="round" stroke-linejoin="round"></path></g><g id="Group-39" transform="translate(1741.000000, 78.000000)" stroke="#DAE2EA" stroke-linecap="round" stroke-linejoin="round" stroke-width="3"><path d="M-2.84217094e-14,43.794 L-2.84217094e-14,47.382 C-2.84217094e-14,50.641 2.641,53.281 5.9,53.281 L44.464,53.281" id="Stroke-277"></path><path d="M11.121,43.794 L11.121,-2.84217094e-14 L49.751,-2.84217094e-14 L49.751,47.995 C49.751,50.914 47.384,53.281 44.464,53.281 C41.544,53.281 39.177,50.914 39.177,47.995 L39.177,43.794 L9.9475983e-14,43.794 M18.237,9.993 L39.177,9.993 M18.237,30.832 L39.177,30.832 M18.237,23.886 L39.177,23.886 M18.237,16.939 L32.469,16.939" id="Stroke-279"></path></g><path d="M1557.468,363.947 C1565.175,363.943 1571.464,357.653 1571.468,349.947 L1571.468,289.563 C1571.468,289.011 1571.02,288.563 1570.468,288.563 C1569.915,288.563 1569.468,289.011 1569.468,289.563 L1569.468,349.947 C1569.467,353.246 1568.12,356.241 1565.942,358.421 C1563.762,360.599 1560.767,361.946 1557.468,361.947 L1344,361.947 C1343.447,361.947 1343,362.394 1343,362.947 C1343,363.499 1343.447,363.947 1344,363.947 L1557.468,363.947 Z" id="Fill-64" fill="#E5EAF0"></path><path d="M1771.46798,520.947 L1771.46798,145.563 C1771.46798,145.011 1771.02,144.563 1770.468,144.563 C1769.915,144.563 1769.468,145.011 1769.468,145.563 L1769.468,520.947 C1770.09828,520.91666 1770.7224,520.947 1771.46798,520.947 Z" id="Fill-64-Copy" fill="#E5EAF0"></path><path d="M170.553361,520.947 L170.553361,88.563 C170.553361,88.011 170.105364,87.563 169.553361,87.563 C169.000364,87.563 168.553361,88.011 168.553361,88.563 L168.553361,520.947 C169.022337,520.90563 169.805586,520.91163 170.553361,520.947 Z" id="Fill-64-Copy-4" fill="#E5EAF0" transform="translate(169.553361, 304.255000) scale(-1, 1) translate(-169.553361, -304.255000) "></path><path d="M863.91464,520.947 L863.91464,211.563 C863.91464,211.011 863.466642,210.563 862.91464,210.563 C862.361642,210.563 861.91464,211.011 861.91464,211.563 L861.91464,520.947 L863.91464,520.947 Z" id="Fill-64-Copy-7" fill="#E5EAF0"></path><path d="M1433.91464,520.947 L1433.91464,214.563 C1433.91464,214.011 1433.46664,213.563 1432.91464,213.563 C1432.36164,213.563 1431.91464,214.011 1431.91464,214.563 L1431.91464,520.947 L1433.91464,520.947 Z" id="Fill-64-Copy-3" fill="#E5EAF0"></path><path d="M1570.468,294.126 C1567.948,294.126 1565.905,292.083 1565.905,289.563 C1565.905,287.043 1567.948,285 1570.468,285 C1572.988,285 1575.031,287.043 1575.031,289.563 C1575.031,292.083 1572.988,294.126 1570.468,294.126 Z" id="Fill-115" fill="#E5EAF0"></path><path d="M1770.468,152.126 C1767.948,152.126 1765.905,150.083 1765.905,147.563 C1765.905,145.043 1767.948,143 1770.468,143 C1772.988,143 1775.031,145.043 1775.031,147.563 C1775.031,150.083 1772.988,152.126 1770.468,152.126 Z" id="Fill-115-Copy" fill="#E5EAF0"></path><path d="M169.563,90.126 C167.043,90.126 165,88.083 165,85.563 C165,83.043 167.043,81 169.563,81 C172.083,81 174.126,83.043 174.126,85.563 C174.126,88.083 172.083,90.126 169.563,90.126 Z" id="Fill-115-Copy-4" fill="#E5EAF0" transform="translate(169.563000, 85.563000) scale(-1, 1) translate(-169.563000, -85.563000) "></path><path d="M862.914642,218.126 C860.394642,218.126 858.351642,216.083 858.351642,213.563 C858.351642,211.043 860.394642,209 862.914642,209 C865.434642,209 867.477642,211.043 867.477642,213.563 C867.477642,216.083 865.434642,218.126 862.914642,218.126 Z" id="Fill-115-Copy-7" fill="#E5EAF0"></path><path d="M1432.91464,221.126 C1430.39464,221.126 1428.35164,219.083 1428.35164,216.563 C1428.35164,214.043 1430.39464,212 1432.91464,212 C1435.43464,212 1437.47764,214.043 1437.47764,216.563 C1437.47764,219.083 1435.43464,221.126 1432.91464,221.126 Z" id="Fill-115-Copy-3" fill="#E5EAF0"></path></g></g></g></g></svg>