<svg xmlns="http://www.w3.org/2000/svg" xmlns:xlink="http://www.w3.org/1999/xlink" width="1897px" height="991px" viewBox="0 0 1897 991"><title>Marketing_icon_background_for_on_demand_section</title><desc>Created with Sketch.</desc><g id="Page-1" stroke="none" stroke-width="1" fill="none" fill-rule="evenodd"><g id="Marketing_icon_background_for_on_demand_section"><rect id="Rectangle" stroke="#F7F9FA" stroke-width="0.5" x="0.25" y="0.25" width="1896.5" height="990.5"></rect><g transform="translate(200.000000, 200.000000)"><g id="Group-32-Copy-2"><g id="undraw_walk_in_the_city_1ma6" transform="translate(214.500000, 295.500000) scale(-1, 1) translate(-214.500000, -295.500000) "><g id="003-paper-plane" transform="translate(267.000000, 197.000000) rotate(9.000000) translate(-267.000000, -197.000000) translate(246.000000, 176.000000)" fill="#00A2ED" fill-rule="nonzero"><path d="M41.8898651,1.73977248 L41.889701,1.73977248 C42.0645925,1.35471831 42.0337486,0.894359551 41.7810911,0.529731131 C41.4421363,0.0407435024 40.8021252,-0.135787512 40.2605522,0.110469972 L0.721289868,18.0827546 C0.260682071,18.292098 -0.0248701529,18.7621365 0.0017081064,19.2673663 C0.028204334,19.7726781 0.361334924,20.2101502 0.841384225,20.3701929 L9.58210418,23.283775 L10.8021611,30.1999845 C10.8919858,30.7093979 11.2908237,31.1081513 11.8001584,31.1979754 L18.7164121,32.4180245 L21.6300127,41.1586886 C21.7900565,41.6387349 22.2275314,41.9718633 22.7328464,41.9983594 C22.7545848,41.9995078 22.7760771,42 22.7976514,42 C23.2779468,42 23.7171444,41.7195355 23.9174657,41.2787002 L41.8856815,1.749042 C41.8865838,1.74699123 41.8874862,1.74494045 41.8884706,1.7429717 L41.8898651,1.73977248 Z M35.1014167,5.15866636 L17.0732358,23.1867321 L4.59220005,19.0263588 L35.1014167,5.15866636 Z M13.0759968,28.9241542 L12.237141,24.168809 L16.4328146,25.5673579 L17.8313724,29.7630046 L13.0759968,28.9241542 Z M22.9737734,37.4078147 L18.8133735,24.9269408 L36.8416365,6.89879294 L22.9737734,37.4078147 Z" id="Shape"></path></g><g id="Group-15" transform="translate(247.000000, 25.000000)"><path d="M47.6515482,22.9848202 C49.1094106,20.670509 49.9656413,17.9381443 49.9656413,15.0004059 C49.9656413,6.7156425 43.2576902,0 34.9832261,0 C26.708762,0 20,6.7156425 20,15.0004059 C20,23.2843575 26.708762,30 34.9832261,30 C37.3921857,30 39.659251,29.4171605 41.6757716,28.4065265 C44.6150104,30.7102849 48.8750823,30.5130287 51.5816146,27.8033931 C51.7299954,27.6540304 51.866214,27.4973618 52,27.3390697 L47.6515482,22.9848202" id="Fill-8" fill="#F7F7F7" fill-rule="nonzero"></path><path d="M47.6515482,22.9848202 C49.1094106,20.670509 49.9656413,17.9381443 49.9656413,15.0004059 C49.9656413,6.7156425 43.2576902,0 34.9832261,0 C26.708762,0 20,6.7156425 20,15.0004059 C20,23.2843575 26.708762,30 34.9832261,30 C37.3921857,30 39.659251,29.4171605 41.6757716,28.4065265 C44.6150104,30.7102849 48.8750823,30.5130287 51.5816146,27.8033931 C51.7299954,27.6540304 51.866214,27.4973618 52,27.3390697 L47.6515482,22.9848202 Z" id="Stroke-9" stroke="#00A2ED" stroke-width="3"></path><path d="M17.0175848,10 C8.74230984,10 2.03435869,16.7158242 2.03435869,25 C2.03435869,27.9378179 2.89140019,30.6710683 4.35007348,32.9846304 L0,37.3389977 C0.133786044,37.4972941 0.270004561,37.6547787 0.420007095,37.8033337 C3.1265393,40.5138543 7.38580044,40.7111159 10.3258501,38.4064834 C12.3415598,39.4171447 14.609436,40 17.0175848,40 C25.2928597,40 32,33.2841758 32,25 C32,16.7158242 25.2928597,10 17.0175848,10" id="Fill-10" fill="#F7F7F7" fill-rule="nonzero"></path><path d="M17.0175848,10 C8.74230984,10 2.03435869,16.7158242 2.03435869,25 C2.03435869,27.9378179 2.89140019,30.6710683 4.35007348,32.9846304 L0,37.3389977 C0.133786044,37.4972941 0.270004561,37.6547787 0.420007095,37.8033337 C3.1265393,40.5138543 7.38580044,40.7111159 10.3258501,38.4064834 C12.3415598,39.4171447 14.609436,40 17.0175848,40 C25.2928597,40 32,33.2841758 32,25 C32,16.7158242 25.2928597,10 17.0175848,10 Z" id="Stroke-11" stroke="#00A2ED" stroke-width="3"></path><path d="M12,25.5 C12,26.328598 11.3280559,27 10.4996508,27 C9.67194412,27 9,26.328598 9,25.5 C9,24.671402 9.67194412,24 10.4996508,24 C11.3280559,24 12,24.671402 12,25.5" id="Fill-12" fill="#00A2ED" fill-rule="nonzero"></path><path d="M19,25.5 C19,26.328598 18.3287544,27 17.5003492,27 C16.6719441,27 16,26.328598 16,25.5 C16,24.671402 16.6719441,24 17.5003492,24 C18.3287544,24 19,24.671402 19,25.5" id="Fill-13" fill="#00A2ED" fill-rule="nonzero"></path><path d="M25,25.5 C25,26.328598 24.328598,27 23.5,27 C22.671402,27 22,26.328598 22,25.5 C22,24.671402 22.671402,24 23.5,24 C24.328598,24 25,24.671402 25,25.5" id="Fill-14" fill="#00A2ED" fill-rule="nonzero"></path><path d="M31,15.5004408 C31,16.3291214 30.3289242,17 29.5,17 C28.6719577,17 28,16.3291214 28,15.5004408 C28,14.6717602 28.6719577,14 29.5,14 C30.3289242,14 31,14.6717602 31,15.5004408" id="Fill-15" fill="#00A2ED" fill-rule="nonzero"></path><path d="M36,15.5004408 C36,16.3291214 35.3289242,17 34.5,17 C33.6719577,17 33,16.3291214 33,15.5004408 C33,14.6717602 33.6719577,14 34.5,14 C35.3289242,14 36,14.6717602 36,15.5004408" id="Fill-16" fill="#00A2ED" fill-rule="nonzero"></path><path d="M41,15.5004408 C41,16.3291214 40.3282398,17 39.4995592,17 C38.6717602,17 38,16.3291214 38,15.5004408 C38,14.6717602 38.6717602,14 39.4995592,14 C40.3282398,14 41,14.6717602 41,15.5004408" id="Fill-17" fill="#00A2ED" fill-rule="nonzero"></path></g><circle id="Oval" stroke="#00A2ED" stroke-width="3" cx="274" cy="46" r="45.5"></circle><circle id="Oval-Copy-2" stroke="#00A2ED" stroke-width="3" cx="195" cy="339" r="45.5"></circle><circle id="Oval-Copy-3" stroke="#00A2ED" stroke-width="3" cx="383" cy="468" r="45.5"></circle><circle id="Oval-Copy-4" stroke="#00A2ED" stroke-width="3" cx="143" cy="545" r="45.5"></circle><circle id="Oval-Copy-5" stroke="#00A2ED" stroke-width="3" cx="78.5" cy="246.5" r="45.5"></circle><path d="M203.987836,151.757197 C176.416372,198.002021 120.727151,195.545461 111.464467,235.502021 C102.201782,275.458581 138.444672,292.632902 129.879587,325.673919 C121.314501,358.714936 71.062332,347.230577 50.4642937,394.750876" id="Path-2" stroke="#00A2ED" stroke-width="2" stroke-linecap="round" stroke-dasharray="4,4" transform="translate(127.226065, 273.254037) rotate(-150.000000) translate(-127.226065, -273.254037) "></path></g><g id="Group-44" transform="translate(217.000000, 312.000000)"><path d="M33.803,36.7996397 C33.803,46.1336397 26.235,53.7006397 16.901,53.7006397 C7.567,53.7006397 -5.68434189e-14,46.1336397 -5.68434189e-14,36.7996397 C-5.68434189e-14,27.4656397 7.567,12.4926397 16.901,12.4926397 C26.235,12.4926397 33.803,27.4656397 33.803,36.7996397" id="Fill-28" fill="#F7F7F7" fill-rule="nonzero"></path><path d="M33.803,36.7996397 C33.803,46.1336397 26.235,53.7006397 16.901,53.7006397 C7.567,53.7006397 -5.68434189e-14,46.1336397 -5.68434189e-14,36.7996397 C-5.68434189e-14,27.4656397 7.567,12.4926397 16.901,12.4926397 C26.235,12.4926397 33.803,27.4656397 33.803,36.7996397 Z" id="Stroke-29" stroke="#00A2ED" stroke-width="3"></path><path d="M26.176,11.7016397 L27.988,2.9586397 C28.359,1.1716397 26.852,-0.397360301 25.257,0.115639699 L19.342,2.0146397 C17.81,2.5076397 16.161,2.5106397 14.627,2.0246397 L8.538,0.0956396994 C6.944,-0.408360301 5.444,1.1586397 5.814,2.9416397 L7.63,11.7016397" id="Fill-30" fill="#F7F7F7" fill-rule="nonzero"></path><path d="M26.176,11.7016397 L27.988,2.9586397 C28.359,1.1716397 26.852,-0.397360301 25.257,0.115639699 L19.342,2.0146397 C17.81,2.5076397 16.161,2.5106397 14.627,2.0246397 L8.538,0.0956396994 C6.944,-0.408360301 5.444,1.1586397 5.814,2.9416397 L7.63,11.7016397" id="Stroke-31" stroke="#00A2ED" stroke-width="3"></path><path d="M25.226,17.5266397 L8.577,17.5266397 C6.976,17.5266397 5.665,16.2166397 5.665,14.6136397 C5.665,13.0116397 6.976,11.7016397 8.577,11.7016397 L25.226,11.7016397 C26.827,11.7016397 28.138,13.0116397 28.138,14.6136397 C28.138,16.2166397 26.827,17.5266397 25.226,17.5266397" id="Fill-32" fill="#F7F7F7" fill-rule="nonzero"></path><path d="M25.226,17.5266397 L8.577,17.5266397 C6.976,17.5266397 5.665,16.2166397 5.665,14.6136397 C5.665,13.0116397 6.976,11.7016397 8.577,11.7016397 L25.226,11.7016397 C26.827,11.7016397 28.138,13.0116397 28.138,14.6136397 C28.138,16.2166397 26.827,17.5266397 25.226,17.5266397 Z" id="Stroke-33" stroke="#00A2ED" stroke-width="3"></path><g id="$" transform="translate(8.000000, 18.000000)" fill="#00A2ED" font-family="LucidaGrande, Lucida Grande" font-size="27.0145" font-weight="normal"><g id="Group"><text id="$"><tspan x="0" y="26">$</tspan></text></g></g></g><g id="Group-37" transform="translate(326.000000, 222.000000)"><path d="M25.1338456,0 C25.0902218,0 25.0456066,0.00421496312 25,0.00421496312 L27.7344157,18 L41,6.53108535 C36.7992316,2.47523709 31.2332383,0 25.1338456,0" id="Fill-140" fill="#FFFFFF" fill-rule="nonzero"></path><path d="M25.1338456,0 C25.0902218,0 25.0456066,0.00421496312 25,0.00421496312 L27.7344157,18 L41,6.53108535 C36.7992316,2.47523709 31.2332383,0 25.1338456,0 Z" id="Stroke-141" stroke="#00A2ED" stroke-width="3" stroke-linecap="round" stroke-linejoin="round"></path><path d="M3,21 L22,21 L18.9602367,1 C10.6575997,3.90009953 4.37292359,11.5924878 3,21" id="Fill-142" fill="#FFFFFF" fill-rule="nonzero"></path><path d="M3,21 L22,21 L18.9602367,1 C10.6575997,3.90009953 4.37292359,11.5924878 3,21 Z" id="Stroke-143" stroke="#00A2ED" stroke-width="3" stroke-linecap="round" stroke-linejoin="round"></path><path d="M36,21 L49,21 C48.5415592,17.7629398 47.5339754,14.7258316 46.0916123,12 L36,21" id="Fill-144" fill="#FFFFFF" fill-rule="nonzero"></path><path d="M36,21 L49,21 C48.5415592,17.7629398 47.5339754,14.7258316 46.0916123,12 L36,21 Z" id="Stroke-145" stroke="#00A2ED" stroke-width="3" stroke-linecap="round" stroke-linejoin="round"></path><path d="M25.8680215,49 C25.9126613,49 25.9553602,48.9969379 26,48.9969379 L23.238155,31 L9,41.2825064 C13.2291357,46.0287496 19.2254253,49 25.8680215,49" id="Fill-146" fill="#FFFFFF" fill-rule="nonzero"></path><path d="M25.8680215,49 C25.9126613,49 25.9553602,48.9969379 26,48.9969379 L23.238155,31 L9,41.2825064 C13.2291357,46.0287496 19.2254253,49 25.8680215,49 Z" id="Stroke-147" stroke="#00A2ED" stroke-width="3" stroke-linecap="round" stroke-linejoin="round"></path><path d="M49,28 L30,28 L33.0407496,48 C41.3424003,45.0999005 47.6270764,37.4075122 49,28" id="Fill-148" fill="#FFFFFF" fill-rule="nonzero"></path><path d="M49,27.7688602 L30.1713642,27.7688602 L33.1846887,48 C41.4114655,45.066384 47.639459,37.2850949 49,27.7688602 Z M2.71619492,26.6147028 L0,32.2137971 L5.13623761,35.1421139 L2.71619492,26.6147028 Z M2.5471047,31.2270932 L21.3307801,26 L2.5471047,31.2270932 Z" id="Stroke-149" stroke="#00A2ED" stroke-width="3" stroke-linecap="round" stroke-linejoin="round"></path></g><path d="M45.689,478.945 C39.696,478.945 34.853,474.102 34.853,468.123 C34.853,462.13 39.696,457.287 45.689,457.287 C51.669,457.287 56.512,462.13 56.512,468.123 C56.512,474.102 51.669,478.945 45.689,478.945 Z M65.954,469.232 L72.434,468.366 L71.405,460.804 L64.953,461.67 C64.736,461.021 64.479,460.385 64.209,459.763 L69.538,456.015 L65.143,449.766 L59.812,453.513 C59.325,453.039 58.798,452.593 58.27,452.16 L61.273,446.384 L54.496,442.867 L51.493,448.643 C50.546,448.359 49.572,448.156 48.571,448.007 L48.571,441 L40.928,441 L40.928,448.372 C40.197,448.548 39.48,448.765 38.79,449.008 L35.449,443.408 L28.889,447.29 L32.216,452.904 C31.716,453.364 31.228,453.838 30.755,454.338 L25.223,450.902 L21.191,457.382 L26.724,460.818 C26.48,461.453 26.264,462.103 26.088,462.766 L19.581,462.265 L19,469.881 L25.479,470.382 C25.56,471.072 25.669,471.748 25.817,472.411 L19.825,474.954 L22.814,481.975 L28.794,479.432 C29.185,480 29.592,480.554 30.024,481.082 L25.885,486.101 L31.769,490.957 L35.909,485.938 C36.518,486.277 37.127,486.574 37.763,486.845 L36.409,493.203 L43.863,494.799 L45.229,488.428 C45.378,488.428 45.527,488.441 45.689,488.441 C46.217,488.441 46.758,488.414 47.286,488.36 L49.004,494.65 L56.362,492.635 L54.644,486.344 C55.253,486.047 55.862,485.708 56.431,485.343 L60.867,490.132 L66.468,484.951 L62.03,480.162 C62.436,479.621 62.815,479.039 63.167,478.458 L69.309,480.663 L71.893,473.48 L65.751,471.275 C65.846,470.598 65.927,469.922 65.954,469.232 Z M56.512,468.123 C56.512,474.102 51.669,478.945 45.689,478.945 C39.696,478.945 34.853,474.102 34.853,468.123 C34.853,462.13 39.696,457.287 45.689,457.287 C51.669,457.287 56.512,462.13 56.512,468.123 Z" id="Stroke-169" stroke="#00A2ED" stroke-width="3" stroke-linecap="round" stroke-linejoin="round"></path><path d="M283.262184,563 C282.045886,563 280.879233,562.521456 280.010449,561.663036 L265.34041,547.083465 C263.553197,545.300024 263.553197,542.407791 265.34041,540.62435 C267.140034,538.840908 270.056666,538.842142 271.843879,540.62435 L282.827792,551.535902 L299.769081,529.773232 C301.320481,527.777653 304.212291,527.411344 306.210494,528.955513 C308.221108,530.498449 308.593445,533.367248 307.042044,535.361595 L286.898666,561.228892 C286.091937,562.264916 284.87564,562.907498 283.560052,562.991366 C283.460763,562.997533 283.361473,563 283.262184,563 Z" id="Stroke-51" stroke="#00A2ED" stroke-width="3"></path><path d="M770.108954,340.9315 L196.193567,65.8847442" id="Path-8" stroke="#00A2ED" stroke-width="3"></path><path d="M776.776768,353.487993 L279,341" id="Path-9" stroke="#00A2ED" stroke-width="3"></path><path d="M820,357 L328.626248,529.237529" id="Path-10" stroke="#00A2ED" stroke-width="3"></path><path d="M674.038759,379 L91.2509169,463" id="Path-11" stroke="#00A2ED" stroke-width="3"></path></g><g id="Group-32-Copy-3" transform="translate(1087.000000, 295.500000) scale(-1, 1) translate(-1087.000000, -295.500000) translate(677.000000, 0.000000)"><g id="undraw_walk_in_the_city_1ma6" transform="translate(214.500000, 295.500000) scale(-1, 1) translate(-214.500000, -295.500000) "><g id="003-paper-plane" transform="translate(267.000000, 197.000000) rotate(9.000000) translate(-267.000000, -197.000000) translate(246.000000, 176.000000)" fill="#00A2ED" fill-rule="nonzero"><path d="M41.8898651,1.73977248 L41.889701,1.73977248 C42.0645925,1.35471831 42.0337486,0.894359551 41.7810911,0.529731131 C41.4421363,0.0407435024 40.8021252,-0.135787512 40.2605522,0.110469972 L0.721289868,18.0827546 C0.260682071,18.292098 -0.0248701529,18.7621365 0.0017081064,19.2673663 C0.028204334,19.7726781 0.361334924,20.2101502 0.841384225,20.3701929 L9.58210418,23.283775 L10.8021611,30.1999845 C10.8919858,30.7093979 11.2908237,31.1081513 11.8001584,31.1979754 L18.7164121,32.4180245 L21.6300127,41.1586886 C21.7900565,41.6387349 22.2275314,41.9718633 22.7328464,41.9983594 C22.7545848,41.9995078 22.7760771,42 22.7976514,42 C23.2779468,42 23.7171444,41.7195355 23.9174657,41.2787002 L41.8856815,1.749042 C41.8865838,1.74699123 41.8874862,1.74494045 41.8884706,1.7429717 L41.8898651,1.73977248 Z M35.1014167,5.15866636 L17.0732358,23.1867321 L4.59220005,19.0263588 L35.1014167,5.15866636 Z M13.0759968,28.9241542 L12.237141,24.168809 L16.4328146,25.5673579 L17.8313724,29.7630046 L13.0759968,28.9241542 Z M22.9737734,37.4078147 L18.8133735,24.9269408 L36.8416365,6.89879294 L22.9737734,37.4078147 Z" id="Shape"></path></g><g id="002-flight" transform="translate(243.000000, 33.000000)" fill="#00A2ED" fill-rule="nonzero"><path d="M16.3125245,21.9980143 C16.7324336,21.99926 17.1492221,21.9268125 17.5434293,21.7840547 L29.6190442,17.194797 L30.5427506,14.784854 C30.6217012,14.5788988 30.7850475,14.4153809 30.9925957,14.3345361 L44.1600316,9.20367275 C44.4735296,9.08113827 44.8312705,9.16799384 45.0513772,9.42008175 C45.271484,9.67216966 45.3056565,10.0341717 45.1365213,10.3220447 L44.6179261,11.2057512 L59.4764046,5.40045288 C60.4072002,5.03675152 61.0134589,4.1432966 61.0004322,3.15543603 C60.9860871,2.16757546 60.3553035,1.29081144 59.4147802,0.952359026 C55.2322263,-0.546237923 50.6073267,-0.266824754 46.6412391,1.72407212 L16.8680679,16.1902417 C16.6104686,16.3153373 16.3044327,16.2930137 16.0682701,16.1319009 L9.0236886,11.3266 C6.93215654,9.89682662 4.25447963,9.5945086 1.8897715,10.5211586 L0,11.2595341 L11.2428274,20.2675851 C12.6678713,21.4255294 14.4670618,22.0396434 16.3125245,21.9980143 L16.3125245,21.9980143 Z" id="Path"></path><polygon id="Path" points="31.0041718 32 43 12 32.2251897 16.1068858 26 32"></polygon><polygon id="Path" points="36 4.91141888 22.7171279 0 20 1.66345586 29.7672594 8"></polygon></g><circle id="Oval" stroke="#00A2ED" stroke-width="3" cx="274" cy="46" r="45.5"></circle><circle id="Oval-Copy-2" stroke="#00A2ED" stroke-width="3" cx="195" cy="339" r="45.5"></circle><circle id="Oval-Copy-3" stroke="#00A2ED" stroke-width="3" cx="383" cy="468" r="45.5"></circle><circle id="Oval-Copy-4" stroke="#00A2ED" stroke-width="3" cx="143" cy="545" r="45.5"></circle><circle id="Oval-Copy-5" stroke="#00A2ED" stroke-width="3" cx="77" cy="248" r="45.5"></circle><path d="M203.987836,151.757197 C176.416372,198.002021 120.727151,195.545461 111.464467,235.502021 C102.201782,275.458581 138.444672,292.632902 129.879587,325.673919 C121.314501,358.714936 71.062332,347.230577 50.4642937,394.750876" id="Path-2" stroke="#00A2ED" stroke-width="2" stroke-linecap="round" stroke-dasharray="4,4" transform="translate(127.226065, 273.254037) rotate(-150.000000) translate(-127.226065, -273.254037) "></path></g><g id="Group-30" transform="translate(215.000000, 320.000000)" fill="#1AACEF" fill-rule="nonzero"><path d="M19.088,-2.54019028e-13 C9.691,-2.54019028e-13 1.921,7.081 0.822,16.185 L5.381,16.185 C6.447,9.58 12.187,4.518 19.088,4.518 C25.065,4.518 30.168,8.315 32.121,13.622 L29.558,16.185 L38.201,16.185 L38.201,7.543 L35.548,10.196 C32.526,4.158 26.287,-2.54019028e-13 19.088,-2.54019028e-13 Z" id="Fill-8"></path><path d="M19.088,32.291 C13.118,32.291 8.021,28.502 6.062,23.204 L8.643,20.624 L-2.13162821e-13,20.624 L-2.13162821e-13,29.267 L2.636,26.631 C5.661,32.659 11.896,36.809 19.088,36.809 C28.485,36.809 36.255,29.729 37.355,20.624 L32.796,20.624 C31.73,27.229 25.99,32.291 19.088,32.291" id="Fill-9"></path></g><g id="Group-60" transform="translate(328.000000, 222.000000)"><polygon id="Fill-54" fill="#FDFDFD" fill-rule="nonzero" points="0 48 6 48 6 32 0 32"></polygon><polygon id="Stroke-55" stroke="#1AACEF" stroke-width="3" stroke-linecap="round" stroke-linejoin="round" points="0 48 6 48 6 32 0 32"></polygon><polygon id="Fill-56" fill="#FDFDFD" fill-rule="nonzero" points="11 49 17 49 17 28 11 28"></polygon><polygon id="Stroke-57" stroke="#1AACEF" stroke-width="3" stroke-linecap="round" stroke-linejoin="round" points="11 49 17 49 17 28 11 28"></polygon><polygon id="Fill-58" fill="#FDFDFD" fill-rule="nonzero" points="23 48 29 48 29 23 23 23"></polygon><polygon id="Stroke-59" stroke="#1AACEF" stroke-width="3" stroke-linecap="round" stroke-linejoin="round" points="23 48 29 48 29 23 23 23"></polygon><polygon id="Fill-60" fill="#FDFDFD" fill-rule="nonzero" points="34 49 40 49 40 16 34 16"></polygon><path d="M34.2933645,48 L40,48 L40,15.7864702 L34.2933645,15.7864702 L34.2933645,48 Z M39.7205514,0 C30.5428695,10.7436405 21.8358381,20.3539305 1,20.3539305 L39.7205514,0 Z M33.0431995,0 L39.7205514,0 L39.7205514,6.54067845 L33.0431995,0 Z" id="Stroke-61" stroke="#1AACEF" stroke-width="3" stroke-linecap="round" stroke-linejoin="round"></path></g><g id="Group-55-Copy" transform="translate(50.500000, 473.000000) scale(-1, 1) translate(-50.500000, -473.000000) translate(31.000000, 451.000000)"><path d="M14,19 L11.0196883,40.5010621 C10.7383101,42.5071985 9.07301066,44 7.097621,44 L7,44 L7,19.1534104 L9.31993437,19 L14,19" id="Fill-265" fill="#FFFFFF" fill-rule="nonzero"></path><path d="M14,20 L11.0196883,40.6410196 C10.7383101,42.5669105 9.07301066,44 7.097621,44 L7,44 L7,20.147274 L9.31993437,20 L14,20 Z" id="Stroke-266" stroke="#00A2ED" stroke-width="3"></path><path d="M28,14 C28,16.7572254 25.7604167,19 23,19 L23,9 C25.7604167,9 28,11.2427746 28,14" id="Fill-267" fill="#FFFFFF" fill-rule="nonzero"></path><path d="M28,13.6929844 C28,16.5254014 25.7032641,18.829338 22.8724036,18.829338 L22.8724036,8.5566307 C25.7032641,8.5566307 28,10.8605674 28,13.6929844 Z M20.0771513,2.74334726 L20.0771513,24.6426215 C20.0771513,23.23532 19.5133531,21.964592 18.5869436,21.044205 C17.672997,20.1238179 16.4035608,19.5537717 14.9970326,19.5537717 L5.85756677,19.5537717 C2.6231454,19.5537717 0,16.9351221 0,13.6929844 C0,12.0719155 0.652818991,10.6111722 1.71513353,9.5482736 C2.77744807,8.491313 4.24332344,7.8321971 5.85756677,7.8321971 L14.9970326,7.8321971 C17.8041543,7.8321971 20.0771513,5.5520123 20.0771513,2.74334726 Z M9.47240356,7.8304157 L9.47240356,19.2366835 L9.47240356,7.8304157 Z M22.8724036,1.39542556 L22.8724036,25.6045744 C22.8724036,26.370574 22.2433234,27 21.4718101,27 C20.7062315,27 20.0771513,26.370574 20.0771513,25.6045744 L20.0771513,1.39542556 C20.0771513,0.62348801 20.7062315,0 21.4718101,0 C21.8575668,0 22.2077151,0.15438751 22.462908,0.40972069 C22.7121662,0.6591159 22.8724036,1.00945678 22.8724036,1.39542556 Z" id="Stroke-268" stroke="#00A2ED" stroke-width="3"></path><path d="M31.0052877,6.38516767 L37.6451249,1.54703755 M37.4594289,8.04557047 L32.3582156,10.5188669 M31.0052877,19.2206933 L37.6451249,24.0588234 M37.4594289,17.5602905 L32.3582156,15.0869941" id="Stroke-269" stroke="#00A2ED" stroke-width="3" stroke-linecap="round" stroke-linejoin="round" transform="translate(34.325206, 12.802930) rotate(-2.000000) translate(-34.325206, -12.802930) "></path></g><g id="Group-39-Copy" stroke-linecap="round" stroke-linejoin="round" transform="translate(261.000000, 518.000000)" stroke="#00A2ED" stroke-width="3"><path d="M0,40 L0,43.4038157 C0,46.4955202 2.43525099,49 5.44035624,49 L41,49" id="Stroke-277"></path><path d="M10.282527,40.2752576 L10.282527,0 L46,0 L46,44.1387174 C46,46.8231827 43.8114611,49 41.1116158,49 C38.4117706,49 36.2232317,46.8231827 36.2232317,44.1387174 L36.2232317,40.2752576 L0,40.2752576 M16.8620128,9.19008652 L36.2232317,9.19008652 M16.8620128,28.3547231 L36.2232317,28.3547231 M16.8620128,21.9668174 L36.2232317,21.9668174 M16.8620128,15.5779922 L30.0209845,15.5779922" id="Stroke-279"></path></g><path d="M770.108954,340.9315 L196.193567,65.8847442" id="Path-8" stroke="#00A2ED" stroke-width="3"></path><path d="M776.776768,353.487993 L279,341" id="Path-9" stroke="#00A2ED" stroke-width="3"></path><path d="M820,357 L328.626248,529.237529" id="Path-10" stroke="#00A2ED" stroke-width="3"></path><path d="M674.038759,379 L91.2509169,463" id="Path-11" stroke="#00A2ED" stroke-width="3"></path></g></g></g></g></svg>