<svg xmlns="http://www.w3.org/2000/svg" id="Layer_1" data-name="Layer 1" viewBox="0 0 200 200"><defs><style>.cls-1{fill:#6b98f6;}.cls-2{fill:#1e3865;}</style></defs><path class="cls-1" d="M79.45,133.39a33.63,33.63,0,0,1,10.29-5.46c-4.83-3.85-7.29-8.76-7-14.83A16.68,16.68,0,0,1,88,101.38a17.3,17.3,0,0,1,23.85-.09,16.8,16.8,0,0,1,5,8.64,17.06,17.06,0,0,1-.59,9.9,17.61,17.61,0,0,1-6,8.09,33.83,33.83,0,0,1,10.31,5.46,34,34,0,0,1,19.74-17c-5.37-4.39-7.81-9.94-6.79-16.8a16.67,16.67,0,0,1,6.62-11,17.36,17.36,0,1,1,20.8,27.79c.22.1.4.2.59.27,11.68,4.4,19,12.65,21.76,24.82A43.21,43.21,0,0,1,184,148a2.36,2.36,0,0,1-2.16,2.56h-.23a2.45,2.45,0,0,1-2.49-2.57,28.56,28.56,0,0,0-26.29-28.26,28.42,28.42,0,0,0-28.12,16.45.93.93,0,0,0,.18,1.21,33,33,0,0,1,8.56,22.21,2.44,2.44,0,0,1-2,2.52,2.41,2.41,0,0,1-2.65-1.34,3.81,3.81,0,0,1-.28-1.41,28.29,28.29,0,0,0-20-26.83c-10.54-3.15-20.08-.92-28.15,6.63a27.43,27.43,0,0,0-8.82,20.21,2.57,2.57,0,0,1-1.4,2.52,2.33,2.33,0,0,1-2.55-.23,2.42,2.42,0,0,1-1-2.08,33.2,33.2,0,0,1,8.61-22.26.8.8,0,0,0,.19-1A28.51,28.51,0,0,0,21,146.72c0,.49,0,1,0,1.46a2.47,2.47,0,0,1-2.51,2.41,2.4,2.4,0,0,1-2.4-2.41v-.1a33.46,33.46,0,0,1,22.54-31.56c.15,0,.3-.13.53-.23-5.19-4.23-7.64-9.59-6.86-16.24A16.73,16.73,0,0,1,38.33,89a17.43,17.43,0,0,1,23.52,1.27c7.23,7.49,6.36,20-2.14,26.1A34,34,0,0,1,79.45,133.39Zm-30.09-18.7A12.4,12.4,0,1,0,37,102.26v0A12.39,12.39,0,0,0,49.36,114.69Zm101.21,0a12.4,12.4,0,1,0-12.38-12.41v0A12.42,12.42,0,0,0,150.57,114.69ZM100,126.25A12.32,12.32,0,0,0,112.4,114a12.39,12.39,0,1,0-24.77-.09A12.3,12.3,0,0,0,99.9,126.25h.1Z"></path><path class="cls-2" d="M112.27,69.49l0,.1a3.1,3.1,0,0,0,.68-.1Z"></path><path class="cls-2" d="M114.32,58.84a.33.33,0,0,1-.27-.4s0,0,0,0q.5-3,1-6A1.19,1.19,0,0,0,113.48,51L97.83,55.14a1.68,1.68,0,0,1-.67,0c-1.88-.29-3.73-.6-5.59-.91a7.68,7.68,0,0,0-4.89.77A7.44,7.44,0,0,0,83.54,65c.11.2.22.4.34.59a7.51,7.51,0,0,0,5.31,3.5l1.85.3a.27.27,0,0,1,0,.13c0,.11,0,.21,0,.3-.56,3.39-1.11,6.79-1.67,10.19a4.33,4.33,0,1,0,8.56,1.37c.45-2.7.89-5.4,1.34-8.11l.07-.43.32.19,9.25,6.1a1.2,1.2,0,0,0,2-.88l1-5.88c0-.24.11-.35.38-.36a6.81,6.81,0,0,0,6.34-5.66,6.31,6.31,0,0,0,.08-.76A6.83,6.83,0,0,0,114.32,58.84ZM89.46,66.73a5.32,5.32,0,0,1-2.56-1.17,5.2,5.2,0,0,1-1.16-6.51,5.13,5.13,0,0,1,5-2.53c1.75.24,3.48.56,5.22.84l.17.06c-.44,2.71-.88,5.41-1.33,8.14l-.33,2-.36-.06Zm7.63,4.89c-.5,3.12-1,6.25-1.53,9.37a2,2,0,0,1-2.27,1.69A2,2,0,0,1,92.08,82a1.79,1.79,0,0,1-.48-1.53c.56-3.52,1.15-7,1.72-10.55a1.07,1.07,0,0,1,.07-.19,4.68,4.68,0,0,1,2.34.71c.37.3.8.53,1.2.8a.42.42,0,0,1,.16.36Zm11.67,4.62-.33-.2L98.5,69.49l-1.44-.95a.43.43,0,0,1-.23-.5c.14-.83.27-1.66.41-2.48.44-2.63.86-5.25,1.29-7.88a.4.4,0,0,1,.34-.39l13.38-3.53.21,0q-1,5.93-1.94,11.84c-.22,1.31-.43,2.62-.65,3.93-.37,2.25-.73,4.49-1.11,6.74Zm7.48-10.68v0a4.44,4.44,0,0,1-3.31,3.9,2.6,2.6,0,0,1-.68.1l0-.1c.21-1.31.43-2.62.65-3.93.24-1.47.48-2.94.71-4.4,1.44.25,2.77,2.51,2.61,4.4Z"></path><path class="cls-2" d="M86,69.49H41.65l-30,44.76-3.25-2.19,31.2-46.5H82.2l0,.09A9,9,0,0,0,86,69.49Z"></path><path class="cls-2" d="M191.65,112.14l-3.37,2-26.9-44.68H118.84a8.17,8.17,0,0,0,1.09-2.94,8.33,8.33,0,0,0,.11-1H163.6Z"></path></svg>