<svg xmlns="http://www.w3.org/2000/svg" id="Layer_1" data-name="Layer 1" viewBox="0 0 200 200"><defs><style>.cls-1{fill:#1e3865;}.cls-2{fill:#6b98f6;}</style></defs><path class="cls-1" d="M76.69,141.82,87.61,153.6c-1.17,1.23-2.06,2.28-3.07,3.21C74.7,165.9,65,175.12,54.93,184c-9.77,8.62-21,10.37-32.8,4.84-11.52-5.43-17.15-15-17-27.8.06-8.67,3.68-15.8,9.9-21.65,6.9-6.48,13.91-12.86,20.87-19.3,2.8-2.59,5.57-5.21,8.38-7.78.86-.79,1.81-1.46,3-2.43L58.16,121.7c-3.82,3.56-7.3,6.82-10.81,10.06-7,6.5-14.18,12.9-21.14,19.5-7.27,6.88-6.35,17.46,1.79,22.25,5.3,3.12,11.69,2.33,16.59-2.14,5.87-5.36,11.68-10.79,17.53-16.18C66.82,150.84,71.56,146.52,76.69,141.82Zm-9.43,12.83,7.07,7.4,9-8.52-6.81-7.38ZM46.87,114.11l-9.1,8.46,6.83,7.51,9.23-8.55Z"></path><path class="cls-2" d="M148.76,95.09a4,4,0,0,1,2.4-4.43c3-1.48,6.11-2.85,9.22-4.09,2.36-.95,4.71-1.79,5.74-4.42a4.23,4.23,0,0,0-.44-4.57,42.92,42.92,0,0,1-3.52-5.73,5.08,5.08,0,0,1-.54-2.51q.12-3.89.5-7.76a6.68,6.68,0,0,1,4.13-5.82,13.6,13.6,0,0,1,11.4,0c3,1.33,4.47,4.48,4.24,8.47-.09,1.36.25,2.73.21,4.08a10,10,0,0,1-.56,3.78,43.71,43.71,0,0,1-3.09,5.27c-1.75,2.8-1.38,5.44,1.33,7.34a27,27,0,0,0,4.1,1.93c3,1.42,6.17,2.69,9.1,4.32,1.93,1.08,1.88,1.49,1.94,4C192.51,96,152,96.15,148.76,95.09Z"></path><path class="cls-2" d="M125.94,70.13H80.15c-.84-2.43.4-3.87,2.07-4.75,3-1.56,6.11-2.78,9.16-4.22a19.83,19.83,0,0,0,4.5-2.48c2.07-1.74,2.22-4.11.82-6.43-1.1-1.82-2.26-3.62-3.29-5.48a4.53,4.53,0,0,1-.58-2.16c.07-2.8.15-5.6.43-8.37a6.7,6.7,0,0,1,5.64-6.37,21.66,21.66,0,0,1,7.7-.14c4.66.84,6.9,4.35,6.42,9.09A10.13,10.13,0,0,0,113,42c.57,2.38.42,4.28-1.48,6.23-1.35,1.39-2.09,3.49-2.78,5.4-.83,2.3.66,5.11,3.27,6.46,1.14.58,2.47.84,3.65,1.37,2.86,1.3,5.76,2.56,8.52,4.08A3.35,3.35,0,0,1,125.94,70.13Z"></path><path class="cls-2" d="M90,130.56c-.34-2.26.51-3.63,2.09-4.4,3.31-1.61,6.64-3.2,10.06-4.55,2.1-.84,4-1.79,5-3.89a4.22,4.22,0,0,0-.27-4.87,42.87,42.87,0,0,1-3.51-5.71,4,4,0,0,1-.52-2.8c.87-2.25.3-4.49.4-6.73.17-3.62,1.88-6,5.26-7.09a14.49,14.49,0,0,1,9-.08c3.62,1.13,5.33,3.43,5.53,7.21.12,2.24-.51,4.48.38,6.73a4.1,4.1,0,0,1-.53,2.81c-.91,1.8-2,3.49-3.09,5.21-2,3.15-1.4,6.06,1.73,8a34.77,34.77,0,0,0,3.91,1.6c3,1.36,5.9,2.74,8.81,4.19,1.63.82,2.3,2.24,2,4.38Z"></path><path class="cls-2" d="M159.46,53.91c-.6,1.18-1.12,2.12-1.57,3.1s-.74,1.77-1.29,3.11c-20.89-25.61-47.43-40.9-80.26-46,.21-2,.4-3.84.64-6.11C110.58,13.09,137.81,28.4,159.46,53.91Z"></path><path class="cls-2" d="M178.07,101.24h6.4a126.61,126.61,0,0,1,3.71,54.19l-5.9-.58C184.19,136.69,183.45,118.93,178.07,101.24Z"></path><path class="cls-2" d="M146.83,101.17h6.62A97.84,97.84,0,0,1,159,151.43l-6-.83C155,133.54,153.43,117.17,146.83,101.17Z"></path><path class="cls-2" d="M96,117.87l-5,2.48c-6-10.41-14.86-16.78-27-18.92.23-2,.43-3.74.63-5.46C75.71,95.26,92.6,107.27,96,117.87Z"></path><path class="cls-2" d="M130.52,74.28c.49-2.11,1-4.07,1.55-6.59,6,5.67,10.35,12.22,14.55,19l-3.5,5.59Z"></path><path class="cls-2" d="M83.56,76.48c7.92-3.2,3-5,14.8,2,2.18,2.06,7.4,5,10.14,7.13l-5.36,2.76Z"></path><path class="cls-2" d="M87.44,40.35v6L72.11,43.06c.25-1.9.49-3.67.76-5.75A61,61,0,0,1,87.44,40.35Z"></path><path class="cls-2" d="M130.86,136.51c-.29,3.67-.53,7-.82,10.82l-6-.72c.16-3.46.31-6.65.48-10.1Z"></path><path class="cls-2" d="M94.74,142.56c.21-2.42.35-4.22.51-6.16h6c-.11,2.19-.21,4.25-.34,6.76Z"></path><path class="cls-2" d="M76.67,73.68c-2.46-.53-6.23-1-8.67-1.49.27-1.94.51-3.68.8-5.83,1.91.28,5.65,1.31,7.53,1.58C76.59,70.13,76.42,71.37,76.67,73.68Z"></path></svg>