<svg xmlns="http://www.w3.org/2000/svg" xmlns:xlink="http://www.w3.org/1999/xlink" width="246px" height="211px" viewBox="0 0 246 211"><title>Need_urgent_help_illustration</title><desc>Created with Sketch.</desc><defs><linearGradient x1="60.7354869%" y1="16.3189674%" x2="50%" y2="86.4366449%" id="linearGradient-1"><stop stop-color="#E6EEF6" offset="0%"></stop><stop stop-color="#FFFFFF" offset="100%"></stop></linearGradient></defs><g id="Welcome" stroke="none" stroke-width="1" fill="none" fill-rule="evenodd"><g id="Testimonial_page" transform="translate(-1206.000000, -2451.000000)"><g id="Group-13" transform="translate(390.000000, 2371.000000)"><g id="Need_urgent_help_illustration" transform="translate(816.001415, 80.000000)"><path d="M59.2809777,209.976597 C30.2663986,210.68035 12.8598292,195.387114 5.51135537,181.008775 C-1.83711846,166.630436 -1.83711846,148.194986 5.51135537,128.730714 C12.8598292,109.266441 25.5597003,88.8037919 23.3839046,64.1290119 C21.2081089,39.454232 37.7894573,0 75.6592469,0 C108.567824,0.458148147 93.830744,29.1124925 148.401356,7.28328686 C177.126608,-5.25810623 208.826457,15.8078319 215.07733,43.9588045 C221.328202,72.1097771 203.596076,91.9324426 233.515129,120.92654 C263.434182,149.920638 234.391379,209.928217 200.908685,209.976597 C167.425991,210.024976 88.2955567,209.272844 59.2809777,209.976597 Z" id="Path-20" fill="url(#linearGradient-1)"></path><g id="Group-6" transform="translate(24.000000, 17.000000)"><g id="Group-7" transform="translate(-0.001415, 163.000000)"><path d="M13.0010593,13.3673759 C12.4297587,13.3673759 11.8639949,13.1507795 11.4693696,12.5943851 C10.8049495,11.6341079 10.6574683,10.4184855 10.656965,9.25403144 C10.656965,9.23515377 10.6574683,9.21677289 10.6574683,9.198392 C10.6660253,6.66828774 11.2554465,4.14215773 12.3688535,1.86342452 C12.7468683,1.08844658 13.2713575,0.273229402 14.1144664,0.0536523189 C14.2543973,0.0168905448 14.3973483,-1.13686838e-13 14.5402993,-1.13686838e-13 C15.1226736,-1.13686838e-13 15.7055513,0.286145701 16.112257,0.709899663 C16.619129,1.23797758 16.8884205,1.94738046 17.0404318,2.65926725 C17.1627455,3.2355329 17.2155971,3.81626957 17.2150973,4.39849658 C17.2145904,6.2206883 16.6951346,8.05778344 16.1781956,9.82930353 C15.8802133,10.852175 15.5525333,11.9247246 14.7768732,12.6654247 C14.3575838,13.06583 13.6750431,13.3673759 13.0010593,13.3673759" id="Fill-219" fill="#C53C46"></path><path d="M14.793535,19.0926357 C16.1921489,18.345995 17.8389606,18.2485845 19.3916974,18.5143907 C20.2258618,18.6568794 21.0955545,18.9159497 21.6635069,19.5641437 C22.2309588,20.2128558 22.3385445,21.355356 21.6870256,21.9128754 C21.2987163,22.2444854 20.7577855,22.294745 20.2548849,22.2885274 C19.0389164,22.2740194 17.6903423,22.0522552 16.7190686,22.8097769 C16.1651274,23.2419062 15.7963337,23.9600492 15.133806,24.1724869 C14.4857898,24.3802613 13.7547075,23.9849199 13.4109337,23.3792135 C13.0671599,22.773507 13.0556507,22.0159854 13.2157783,21.3335941 C13.2157783,21.3335941 13.3844126,19.8454941 14.793535,19.0926357" id="Fill-220" fill="#DE4D59"></path><path d="M9.76261634,16.1049963 C10.6831165,15.0295058 10.8576941,13.4607158 10.4480319,12.1126896 C10.0383696,10.7651518 9.11290985,9.61884103 8.04709363,8.6830373 C6.79678061,7.58605651 5.32725365,6.73181814 3.74762375,6.18430458 C3.12569097,5.96940184 2.46953702,5.79943331 1.81387902,5.86097364 C1.15772506,5.92251397 0.49710747,6.25317113 0.191100673,6.82803595 C-0.261710032,7.67787859 0.172254226,8.70843489 0.641431583,9.54948605 C1.46819549,11.0313381 2.41349363,12.4492077 3.46542299,13.7845352 C4.31202526,14.8590489 5.2816254,15.9193985 6.57161516,16.4048833 C7.86160491,16.8903681 9.20168654,16.833712 9.88561421,15.9526107" id="Fill-221" fill="#DE4D59"></path><path d="M11.493141,30.9120567 C11.5090376,30.9130208 11.5362157,30.7219049 11.5721113,30.3754773 C11.6126221,29.9845365 11.662876,29.4944091 11.7233858,28.9104172 C11.7956899,28.2944921 11.8910697,27.5605106 12.072599,26.7621786 C12.2536156,25.9657821 12.5361655,25.1021321 12.899737,24.22687 C13.2766412,23.3564463 13.7355925,22.5648881 14.2724886,21.9325125 C14.8052824,21.29675 15.4247384,20.8371043 16.0072733,20.5714775 C16.587757,20.3014962 17.1082437,20.1911812 17.4682256,20.1423137 C17.8312843,20.1069935 18.034351,20.0803824 18.0348638,20.0648996 C18.0348638,20.0499007 17.8312843,20.0469977 17.4579697,20.0566744 C17.0887575,20.0798986 16.5467334,20.167957 15.9349692,20.4306808 C15.3211539,20.6871147 14.663751,21.1545017 14.1048047,21.8033279 C13.5412433,22.449251 13.0653697,23.2577435 12.682312,24.14365 C12.3120742,25.0348787 12.0331138,25.9067539 11.860302,26.7210525 C11.6885158,27.5334157 11.6095454,28.2751386 11.5577531,28.896386 C11.5085248,29.5181172 11.4900642,30.021792 11.4808339,30.3701551 C11.4726292,30.7185181 11.4767315,30.9110854 11.493141,30.9120567" id="Fill-222" fill="#1A282B"></path><path d="M11.6097242,30.0765957 C11.6186009,30.0760948 11.6241489,29.9869356 11.626368,29.818134 C11.6258133,29.6247886 11.6252585,29.3808528 11.6241489,29.0813177 C11.6224845,28.4411741 11.6224845,27.5160214 11.6602106,26.3724785 C11.7229026,24.0858937 11.9414924,20.9292545 12.3625828,17.4600569 C12.787002,13.9893567 13.3490107,10.8677802 13.8616426,8.62777853 C13.983143,8.06627543 14.1046434,7.56087255 14.2194862,7.11858243 C14.3293359,6.67529051 14.4225417,6.29310776 14.5129735,5.98405565 C14.590645,5.69253486 14.653337,5.45561161 14.7038235,5.26727516 C14.7448784,5.10248076 14.7620771,5.01482417 14.7537551,5.01276596 C14.7454332,5.01031612 14.7115906,5.09396555 14.6544466,5.25425189 C14.5923094,5.44008387 14.5140831,5.67350086 14.4175485,5.96101449 C14.3121372,6.26756212 14.2045067,6.6472404 14.0813419,7.08902963 C13.953184,7.52931618 13.8189233,8.03321637 13.6857721,8.59371768 C13.1270922,10.830714 12.5351245,13.9562977 12.1101505,17.4345113 C11.6879504,20.9112223 11.4976553,24.0773784 11.4810114,26.3694732 C11.4660319,27.5155205 11.4926621,28.4431777 11.5253951,29.0838222 C11.5453678,29.3828564 11.5620117,29.6267922 11.5753268,29.8201376 C11.5891967,29.9884383 11.6014022,30.0765957 11.6097242,30.0765957" id="Fill-223" fill="#1A282B"></path><path d="M11.4675344,26.7347518 C11.4815433,26.7342348 11.4792838,26.4534845 11.4625635,25.944432 C11.4368053,25.4358936 11.375347,24.702138 11.2497191,23.8028118 C11.1164089,22.9050282 10.9302265,21.8396171 10.6378479,20.6816511 C10.3590262,19.5195715 9.97671969,18.2649368 9.49047639,16.9892202 C8.53922904,14.4213328 7.24724986,12.3218766 6.12247331,11.0219928 C5.85901621,10.6769683 5.56528187,10.4280982 5.3302944,10.1838558 C5.20873358,10.0671336 5.10163352,9.95041145 4.99182207,9.85785644 C4.88201062,9.77147176 4.77942955,9.69125742 4.68453077,9.6172134 C4.3144255,9.32875028 4.10745577,9.1770629 4.09977349,9.19094615 C4.06633297,9.24185141 4.92855621,9.81929185 6.01672895,11.1371724 C7.1008346,12.4514536 8.35711375,14.5365124 9.30113071,17.0828036 C9.78285502,18.3477221 10.1674211,19.5905303 10.4543769,20.7412976 C10.7548897,21.8879514 10.9546291,22.9425644 11.1055633,23.8310925 C11.2492672,24.7216774 11.3324166,25.4482343 11.3821255,25.9516307 C11.4232483,26.4560555 11.4530736,26.7357773 11.4675344,26.7347518" id="Fill-224" fill="#1A282B"></path></g><path d="M3.99858499,192 L189.998585,192 C190.55087,192 190.998585,192.447715 190.998585,193 C190.998585,193.552285 190.55087,194 189.998585,194 L3.99858499,194 C3.44630024,194 2.99858499,193.552285 2.99858499,193 C2.99858499,192.447715 3.44630024,192 3.99858499,192 Z" id="Rectangle" fill="#C1CDFF"></path><g id="Group-2" transform="translate(25.998585, 0.000000)"><g id="Group-46" transform="translate(21.963722, 17.727273) scale(-1, 1) translate(-21.963722, -17.727273) translate(12.610488, 0.000000)"><path d="M5.14213109,24.0997377 C4.88665456,23.1300038 5.09851315,21.226606 4.71997169,18.9985763 L14.2427038,17.1576077 L16.302094,16.5957447 C15.4889941,18.8562669 16.1664341,24.4662857 16.7040154,28.2170495 C17.2769453,29.5143167 18.0143566,30.2039732 18.3352498,30.7834865 C18.0934371,31.2164055 16.0474142,31.6186669 15.1609201,32.1995161 C13.503815,33.2852852 11.2818127,33.6177248 8.29771679,34.8510638 C6.20662639,32.8594424 7.22737496,33.0216284 5.4172329,32.3617021 C5.95894378,32.0625816 4.7369887,28.123892 5.21033587,26.8379132 C5.40870466,24.9679986 5.51577298,25.5013593 5.40851212,25.0736337 C5.33062293,24.7559383 5.23248255,24.4396302 5.14213109,24.0997377 Z" id="Fill-302" fill="#F5C4A2"></path><path d="M11.3119825,22.1005174 C13.6452871,20.8590446 13.6678935,18.8640491 14.7158621,15.878755 C16.8925366,14.7540703 17.7144411,13.7365745 18.0696847,12.5047008 C18.9125809,9.58340016 17.6563103,6.13255381 15.6088154,4.05596663 C13.8180647,2.24175255 11.5703415,1.48982961 8.89309651,1.69140895 C3.69200721,2.08176895 1.15201544,4.43352793 0.270365404,8.72108853 C0.194472453,9.08745098 -0.0419587757,12.7720872 0.00648353392,15.878755 C0.0549258435,18.9854228 0.717856428,23.4347806 1.62372762,24.2874932 C2.6329424,25.236196 4.27654441,24.9418262 6.22876949,24.2874932 C7.40753235,23.7323501 10.2462517,22.6684592 11.3119825,22.1005174 Z" id="Fill-305" fill="#F5C4A2"></path><path d="M0.277398811,8.3631512 C0.277398811,6.72636242 0.0726379503,4.63782056 2.69964058,2.15756252 C5.32664321,-0.322695509 12.54282,-1.74826957 16.8868215,4.07757309 C18.1788157,5.97386917 18.5823618,10.2665661 18.1935389,12.0734745 C17.6378589,14.6593328 15.7004525,15.8368435 13.3751691,18.1082486 C12.501083,18.9622203 12.7663166,15.8525279 12.54282,15.0640007 C11.9840621,15.0640007 12.4012533,15.0640007 11.6879877,15.0640007 C11.4063579,13.7050121 11.3070299,12.6940276 10.3906204,12.0734745 C9.78179453,11.6612038 8.64940554,11.7123323 8.64940554,10.5755307 C8.64940554,9.7337309 9.74442007,8.7207424 8.64940554,7.38986121 C7.98970519,6.79408424 7.15730006,6.70411424 5.79370835,7.26545376 C4.84633948,7.65544997 2.6117927,8.59109855 1.15006254,8.05318238 C0.868209153,7.94946044 0.444039899,8.11581655 0.277398811,8.3631512 Z" id="Fill-306" fill="#131730"></path><path d="M14.0197293,14.2120837 C17.0364086,13.5572023 16.9089094,16.0984268 16.3604222,17.6235175 C15.9827359,18.6716836 14.8063753,18.5560116 14.3300575,19.3781725 C13.7623252,20.3569355 12.691813,20.7875912 11.8017243,20.7413224 C9.99267893,20.6470052 11.226775,18.694818 11.4889904,17.9118076 C11.3518686,16.6109427 12.1048356,14.6285028 14.0197293,14.2120837" id="Fill-307" fill="#F5C4A2"></path><path d="M7.50078402,24.0709668 C7.37495112,23.5519672 7.38331885,22.5973872 6.72660329,22.5973872 C6.39506227,22.5973872 6.28095836,22.7212283 6.06440772,22.8781557 C5.73580591,23.1162831 5.76951574,23.6038624 5.55094564,23.9455781 C5.27347149,24.3793852 4.16710223,24.3793852 3.88173588,24.2646388 C2.8525846,23.8508149 3.46774843,22.6907628 1.78636511,22.4167856 C1.47636341,22.3807438 1.15871519,22.4224542 0.833420446,22.5419168 C1.09677514,23.8531587 1.7548021,24.6112119 2.80750134,24.8160763 C4.3865502,25.1233728 6.63773547,24.4430616 7.50078402,24.0709668 Z" id="Path-3" fill="#131730"></path></g><path d="M123.826626,57.2553191 C126.049261,54.7657929 128.271353,52.2762667 130.493989,49.787234" id="Fill-18" fill="#FFFFFE"></path><path d="M15.0759978,184.327962 C15.449111,184.553932 15.5967416,185.083282 15.383946,185.460088 C15.1705736,185.837464 14.6261858,185.990577 14.2496124,185.771437 C13.8724624,185.552298 13.6752372,184.9222 13.9295539,184.571008 C14.1838707,184.219816 14.8332146,184.074671 15.1457763,184.376344" id="Fill-53" fill="#FFFFFE"></path><path d="M17.984131,184.203832 C18.0266654,184.289422 18.694206,183.732162 19.6414732,183.720462 C20.5882399,183.682901 21.2747959,184.205063 21.3143279,184.11701 C21.3328429,184.083143 21.1887262,183.900263 20.8924863,183.716768 C20.5987484,183.53204 20.1453812,183.371328 19.6354683,183.383643 C19.1260558,183.398421 18.6786935,183.581917 18.3914609,183.781422 C18.1022266,183.980927 17.9641148,184.171196 17.984131,184.203832" id="Fill-58" fill="#1A282B"></path><path d="M19.6341751,183.382717 C19.6484789,183.382192 19.6654646,183.205363 19.6261292,182.888436 C19.5867938,182.574131 19.4862204,182.114481 19.2309873,181.6181 C19.0991243,181.383553 18.9592154,181.079743 18.6409563,180.928625 C18.4827207,180.852016 18.2543072,180.90029 18.1309371,181.081842 C18.008014,181.258146 17.9767245,181.475378 17.9829824,181.68264 C18.0339396,182.509591 18.6776098,183.270953 19.4763865,183.338116 C20.2778453,183.389014 20.9742606,182.807105 21.2558663,182.071979 C21.3162104,181.882032 21.3533108,181.652207 21.2563133,181.437598 C21.1611037,181.220366 20.9309023,181.146906 20.7735607,181.188883 C20.4459147,181.26864 20.2483437,181.505287 20.0623946,181.684214 C19.6967542,182.070405 19.4777275,182.46604 19.3521224,182.746763 C19.2260704,183.030109 19.1898639,183.202215 19.2028267,183.209036 C19.2435031,183.239995 19.4531429,182.54947 20.1750368,181.837431 C20.35741,181.673195 20.5670498,181.465408 20.8035092,181.42448 C20.9188334,181.403492 21.0211949,181.450716 21.0676822,181.557758 C21.1150634,181.660602 21.0994187,181.825363 21.0462265,181.974907 C20.8075321,182.577804 20.1701199,183.106717 19.4929253,183.051622 C18.8193066,183.003348 18.2543072,182.332762 18.2082669,181.667424 C18.1988801,181.507385 18.2274876,181.34315 18.2958776,181.243454 C18.3633736,181.144807 18.4715459,181.112275 18.5765893,181.154252 C18.7974039,181.242404 18.9556395,181.506861 19.0848205,181.727241 C19.5984157,182.654413 19.5858998,183.398983 19.6341751,183.382717" id="Fill-59" fill="#1A282B"></path><path d="M11.8469949,192.549481 C13.0395633,192.44235 29.0515148,191.050992 31.5981421,190.821477 C34.1826235,187.681094 22.0217848,186.420037 17.5095145,182.058576 C16.2448615,182.116597 11.4810179,183.129256 11.4810179,183.129256 C11.4810179,183.129256 10.6820059,192.654661 11.8469949,192.549481 Z" id="Fill-182" fill="#12151A" transform="translate(21.584224, 187.304461) rotate(5.000000) translate(-21.584224, -187.304461) "></path><path d="M41.9507349,192.549465 C43.1433033,192.442335 59.1552547,191.050979 61.701882,190.821464 C64.2863635,187.681085 52.1255248,186.420031 47.6132544,182.058576 C46.3486014,182.116597 41.5847578,183.129255 41.5847578,183.129255 C41.5847578,183.129255 40.7857458,192.654646 41.9507349,192.549465 Z" id="Fill-182-Copy" fill="#12151A" transform="translate(51.687964, 187.304453) rotate(5.000000) translate(-51.687964, -187.304453) "></path><path d="M81.1639851,192.550856 C82.3565535,192.443726 98.3685049,191.052369 100.915132,190.822854 C103.499614,187.682476 91.3816322,186.082511 86.8693618,181.721057 C85.6047088,181.779077 80.8408653,182.791735 80.8408653,182.791735 C80.8408653,182.791735 79.998996,192.656036 81.1639851,192.550856 Z" id="Fill-182-Copy-2" fill="#12151A" transform="translate(90.909769, 187.136374) scale(-1, 1) rotate(5.000000) translate(-90.909769, -187.136374) "></path><path d="M111.631121,191.533432 C112.446323,191.459305 120.286339,190.811388 125.914717,190.313259 C128.410272,189.404952 130.147185,188.772767 131.043426,188.446562 C133.6299,185.302038 121.807351,185.390661 117.301714,181.031734 C116.037605,181.091075 111.274995,182.109088 111.274995,182.109088 C111.274995,182.109088 110.466579,191.639854 111.631121,191.533432 Z" id="Fill-182-Copy-3" fill="#12151A" transform="translate(121.205507, 186.283025) scale(-1, 1) rotate(20.000000) translate(-121.205507, -186.283025) "></path><path d="M44.6516832,182.482361 C44.6516832,182.519669 44.3284697,182.564232 43.8178947,182.446089 C43.5637581,182.387017 43.2654239,182.281829 42.9541987,182.111868 C42.7985862,182.026888 42.6402112,181.925845 42.4836778,181.807702 C42.4086339,181.749149 42.3193178,181.690077 42.2382887,181.577634 C42.1508142,181.479182 42.1070769,181.234087 42.2157295,181.089517 C42.3050456,180.948574 42.4574355,180.892094 42.5780582,180.893648 C42.700983,180.893648 42.7995069,180.925257 42.8892834,180.953756 C43.0734403,181.011273 43.2451667,181.087444 43.4017,181.173461 C43.7152272,181.348602 43.9675222,181.564162 44.1544414,181.770394 C44.52828,182.187521 44.6502839,182.534696 44.6222,182.551278 C44.5844478,182.579777 44.4048948,182.285974 44.0213881,181.938799 C43.8303253,181.766248 43.5849362,181.586443 43.2916663,181.439801 C43.1448011,181.367257 42.9859658,181.30404 42.8174622,181.255332 C42.6429736,181.196778 42.4928857,181.189524 42.4450049,181.276058 C42.42751,181.30974 42.4247476,181.322694 42.4601978,181.382284 C42.4965688,181.43721 42.5665484,181.492136 42.6402112,181.550171 C42.7847744,181.66365 42.929798,181.763657 43.0725196,181.850192 C43.3584232,182.023261 43.632817,182.144513 43.8685378,182.228457 C44.3413607,182.395826 44.6544274,182.433135 44.6516832,182.482361" id="Fill-67" fill="#1A282B"></path><path d="M44.0576711,182.552751 C44.0212732,182.567886 43.8341654,182.192415 43.8188101,181.525298 C43.8125542,181.194068 43.859189,180.795311 43.9968184,180.375598 C44.0667705,180.166615 44.1600401,179.952975 44.2800393,179.743991 C44.4074318,179.540247 44.5632602,179.266648 44.9545372,179.234043 C45.1581378,179.232884 45.3219282,179.401701 45.3753876,179.542576 C45.4390838,179.686943 45.4481833,179.809772 45.4686571,179.9326 C45.4982304,180.180004 45.4862873,180.421004 45.4459084,180.643376 C45.3668568,181.089285 45.175768,181.456025 44.9704613,181.717982 C44.5507484,182.249463 44.1276232,182.357739 44.1202299,182.323393 C44.0883818,182.27042 44.4449671,182.084139 44.7697043,181.570122 C44.9295137,181.316315 45.0756739,180.980428 45.1279958,180.589821 C45.1547255,180.395391 45.1581378,180.188736 45.1291332,179.979752 C45.1041097,179.755634 45.0279017,179.571682 44.9454378,179.592056 C44.8430688,179.586817 44.663923,179.74923 44.5734971,179.925033 C44.4620286,180.110149 44.3716027,180.300504 44.2999444,180.487949 C44.1589026,180.864002 44.0906566,181.226667 44.0662018,181.533448 C44.0178609,182.150502 44.1122679,182.539362 44.0576711,182.552751" id="Fill-68" fill="#1A282B"></path><polyline id="Fill-69" fill="#2A4E96" points="7.98118358 86.3431235 10.6094539 185.042553 24.6377114 184.619721 27.9832743 82.9787234 7.98118358 86.3431235"></polyline><path d="M47.9579419,131.809837 C47.9579419,135.171507 54.4578905,184.212766 54.4578905,184.212766 L40.872418,184.212766 L33.301583,132.75287 L22.9827516,89.9061064 L25.4805138,83.197633 L37.3395347,82.9787234 C37.3395347,82.9787234 47.9579419,128.448167 47.9579419,131.809837 Z" id="Fill-70" fill="#2A4E96"></path><path d="M32.0695958,62.5633897 C32.1434806,69.475484 34.6506379,82.9787234 34.6506379,82.9787234 L12.5334719,82.9787234 L12.0561761,45.6055338 L10.4814449,34.4576714 L13.8151267,28.212766 L26.8902719,31.1203707 C26.8902719,31.1203707 31.995711,55.6508184 32.0695958,62.5633897 Z" id="Fill-72" fill="#F8F7F5"></path><path d="M27.1498538,29.8723404 C27.1498538,29.8723404 32.4938934,31.4186271 33.9067314,33.3670957 C35.021237,34.9040407 36.5243728,63.9943879 36.5243728,63.9943879 L38.8177401,89.6170213 L36.575259,89.4105219 L33.4108412,79.8196114 L27.1498538,29.8723404" id="Fill-73" fill="#1C3C7C"></path><path d="M33.8172174,33.1914894 L48.9673664,46.8475683 L67.6086171,40.914957 L71.3211375,48.6029914 L51.4315262,57.4721346 C48.5886503,58.6635782 46.8067807,58.0075706 44.8340503,56.4553967 L34.3993182,48.2452138 L33.8172174,33.1914894" id="Fill-74" fill="#17336C"></path><path d="M64.3194059,43.0793041 C64.2404365,43.0793041 64.1595719,43.0982624 64.0850248,43.1380748 C63.9675184,43.2012692 63.880968,43.3061719 63.8424309,43.4338246 C63.8032621,43.5621092 63.816529,43.6967132 63.8797045,43.8148867 C63.9422482,43.9324283 64.0471195,44.0190046 64.1753657,44.0575531 C64.3029802,44.0967337 64.4381758,44.082199 64.5556822,44.0202685 C64.6738203,43.9570741 64.759739,43.8521714 64.798276,43.7245187 C64.8374448,43.5968661 64.824178,43.4616301 64.7610025,43.3434566 C64.6712933,43.1753595 64.4981925,43.0793041 64.3194059,43.0793041 Z M64.3206506,44.0793041 L64.1750806,44.0578994 C64.0473355,44.0192521 63.9427628,43.9330389 63.8797815,43.8147187 C63.8168002,43.6969931 63.8031344,43.5620249 63.8423492,43.4341915 C63.8809698,43.3063581 63.9671235,43.2011186 64.0853619,43.1380937 C64.2030062,43.0756635 64.3378813,43.0625829 64.4656264,43.1006356 C64.5933715,43.1398775 64.6979442,43.2260907 64.7609255,43.3438163 C64.8239068,43.4615419 64.8375726,43.5965101 64.7983578,43.7249381 C64.7597372,43.8521769 64.6735835,43.9574164 64.5559392,44.0204412 C64.482263,44.0596831 64.4020509,44.0793041 64.3206506,44.0793041 L64.3206506,44.0793041 Z" id="Fill-76" fill="#1A282B"></path><path d="M65.1529401,43.0793041 C65.0714132,43.0793041 64.9911502,43.0995198 64.9178392,43.1386877 C64.6751545,43.2681946 64.5828837,43.572062 64.712442,43.8152823 C64.7756411,43.9327861 64.8805517,44.0187028 65.008214,44.0578708 C65.1365083,44.096407 65.2717545,44.0825087 65.3893049,44.0199663 C65.6326216,43.8904594 65.7248924,43.5872238 65.5947021,43.3440035 C65.531503,43.2264997 65.4265924,43.1399512 65.2989301,43.101415 L65.1529401,43.0793041 Z M65.154025,44.0793041 L65.0083655,44.0573048 C64.8805418,44.0186575 64.7753103,43.9324443 64.7128848,43.8147187 C64.582683,43.571538 64.674835,43.2677108 64.9179971,43.1380937 C65.0351192,43.0756635 65.1706717,43.0625829 65.2984954,43.1006356 C65.426319,43.1392829 65.5315506,43.2254961 65.5945706,43.3438163 C65.6575906,43.4615419 65.6706702,43.5965101 65.6320259,43.7243435 C65.592787,43.8521769 65.5065804,43.9568219 65.3888637,44.0198467 C65.3157367,44.0596831 65.2348808,44.0793041 65.154025,44.0793041 L65.154025,44.0793041 Z" id="Fill-78" fill="#1A282B"></path><path d="M66.8200192,42.2495168 C66.7409942,42.2495168 66.6600725,42.2684892 66.5848406,42.3083313 C66.4672513,42.3709403 66.3812721,42.4759211 66.3427078,42.6043012 C66.3035114,42.7320488 66.3167876,42.8673855 66.3800077,42.9850145 C66.4425955,43.103276 66.5475408,43.1892843 66.6752453,43.2278616 C66.803582,43.2664388 66.9382407,43.2531581 67.0564622,43.1905491 C67.2992272,43.0609042 67.3915285,42.756713 67.2619274,42.5138659 C67.1721549,42.3450114 66.998932,42.2495168 66.8200192,42.2495168 Z M66.8212876,43.2495168 L66.6756083,43.2275305 C66.5477673,43.188906 66.4425214,43.1027435 66.3800874,42.9850872 C66.3170588,42.8668366 66.3033828,42.7319478 66.342627,42.6041896 C66.3812766,42.4764315 66.467495,42.3718481 66.5852277,42.3088603 C66.8278283,42.1781311 67.1316737,42.27083 67.2618932,42.5138676 C67.391518,42.7569052 67.2993536,43.0605536 67.0561583,43.1900944 C66.9830214,43.2293132 66.9027491,43.2495168 66.8212876,43.2495168 L66.8212876,43.2495168 Z" id="Fill-80" fill="#1A282B"></path><path d="M13.7923644,28.212766 L3.35809327,34.7649502 C0.910295069,36.461731 -0.117830182,39.5390855 0.828785139,42.336188 L8.83326028,67.1082022 L5.94740871,89.6170213 L28.8166947,88.6610121 L28.2611271,78.7940718 L26.3183904,61.1431189 C25.9578465,57.8692432 25.1312458,54.6618596 23.8630913,51.6155348 L13.7923644,28.212766" id="Fill-86" fill="#1C3C7C"></path><path d="M2.87426087,43.9660962 L13.2648396,65.3590756 C14.1040901,67.0871679 15.6929915,68.3489496 17.5870297,68.7902793 L46.4177248,75.5106383 L47.1519446,67.2512583 L25.1447645,59.1060069 L14.0737258,38.1979513 C12.3897492,35.0165569 8.32690049,33.8933948 5.20484867,35.745902 C2.33865377,37.4460744 1.31671939,41.0506751 2.87426087,43.9660962" id="Fill-87" fill="#17336C"></path><path d="M41.8180014,72.1218572 C41.5424009,72.1218572 41.3180014,72.3462567 41.3180014,72.6218572 C41.3180014,72.8974578 41.5424009,73.1218572 41.8180014,73.1218572 C42.0936019,73.1218572 42.3180014,72.8974578 42.3180014,72.6218572 C42.3180014,72.3462567 42.0936019,72.1218572 41.8180014,72.1218572 Z M41.8180014,73.1218572 C41.5421394,73.1218572 41.3180014,72.8977193 41.3180014,72.6218572 C41.3180014,72.3459952 41.5421394,72.1218572 41.8180014,72.1218572 C42.0938635,72.1218572 42.3180014,72.3459952 42.3180014,72.6218572 C42.3180014,72.8977193 42.0938635,73.1218572 41.8180014,73.1218572 L41.8180014,73.1218572 Z" id="Fill-90" fill="#1A282B"></path><path d="M43.4845265,72.1218572 C43.2091001,72.1218572 42.9848423,72.3462567 42.9848423,72.6218572 C42.9848423,72.8974578 43.2091001,73.1218572 43.4845265,73.1218572 C43.7605846,73.1218572 43.9848423,72.8974578 43.9848423,72.6218572 C43.9848423,72.3462567 43.7605846,72.1218572 43.4845265,72.1218572 Z M43.4842478,73.1218572 C43.2089803,73.1218572 42.9848423,72.8977193 42.9848423,72.6218572 C42.9848423,72.3459952 43.2089803,72.1218572 43.4842478,72.1218572 C43.7601099,72.1218572 43.9848423,72.3459952 43.9848423,72.6218572 C43.9848423,72.8977193 43.7601099,73.1218572 43.4842478,73.1218572 L43.4842478,73.1218572 Z" id="Fill-92" fill="#1A282B"></path><path d="M45.1516832,72.9516445 C44.8760827,72.9516445 44.6516832,73.176044 44.6516832,73.4516445 C44.6516832,73.727245 44.8760827,73.9516445 45.1516832,73.9516445 C45.4272837,73.9516445 45.6516832,73.727245 45.6516832,73.4516445 C45.6516832,73.176044 45.4272837,72.9516445 45.1516832,72.9516445 Z M45.1516832,73.9516445 C44.8758211,73.9516445 44.6516832,73.7275066 44.6516832,73.4516445 C44.6516832,73.1757824 44.8758211,72.9516445 45.1516832,72.9516445 C45.4275453,72.9516445 45.6516832,73.1757824 45.6516832,73.4516445 C45.6516832,73.7275066 45.4275453,73.9516445 45.1516832,73.9516445 L45.1516832,73.9516445 Z" id="Fill-94" fill="#1A282B"></path><path d="M72.2805709,38.399959 C72.9642532,38.1618703 76.6945468,37.2871249 78.7645422,38.3375525 C80.8345376,39.3879801 81.6795382,42.3452058 82.2735993,43.0463616 C82.8195209,43.6914039 82.2971569,44.4638815 81.6754413,44.1675815 C81.0537257,43.8712816 81.0163408,44.2693199 81.3169562,44.6316973 C81.7215322,45.1188879 81.4608623,46.0628523 80.8345376,45.7906759 C80.4647859,45.6296775 79.7257944,45.5483917 79.888137,45.8688151 C80.1544402,46.3937642 77.2082047,44.7517906 76.724762,44.449722 C76.724762,44.449722 76.1911313,44.4109146 75.4060489,45.2662512 C74.6214786,46.1215878 70.6512688,47.5462927 70.6512688,47.5462927 L67.9874557,41.8858098 C67.9874557,41.8858098 71.5963765,38.6380478 72.2805709,38.399959 Z" id="Fill-111" fill="#F5C4A2"></path><path d="M54.2214218,67.212766 C54.2214218,67.212766 62.0174078,72.4277093 61.2695297,73.575312 C60.522156,74.7224223 59.2407276,73.575312 59.2407276,73.575312 C59.2407276,73.575312 60.6290677,75.2440151 58.3864421,75.7651154 C58.3864421,75.7651154 57.8523876,76.9127182 56.998102,76.8083011 L56.4640475,76.8151965 C56.4640475,76.8151965 55.980423,78.2686625 55.2612901,77.9559038 C54.5416528,77.6426526 52.3655949,75.7651154 52.3655949,75.7651154 L46.4319571,75.1319361 L47.1519446,67.6736622 L54.2214218,67.212766 Z" id="Fill-115" fill="#F5C4A2"></path><path d="M50.4760697,75.0019718 C50.1370017,75.5598982 50.2680992,76.5162741 51.3190468,76.7553191 C51.7207036,76.8467597 52.5596556,76.7553191 52.5596556,76.7553191 L52.1524672,75.5106383 C52.1524672,75.5106383 52.4969253,75.0292904 52.8593961,74.772143 C53.2060836,74.5261355 52.8261968,73.5648496 51.8906303,73.9347892 C51.8906303,73.9347892 50.8145935,74.4440454 50.4760697,75.0019718 Z" id="Fill-116" fill="#F2B499"></path><path d="M53.8053479,73.9462998 C53.8053479,73.9462998 52.5314944,74.5486001 52.2668528,75.1781349 C52.0022113,75.8076697 52.1770789,76.8650997 52.9986591,77.1353492 C53.312655,77.2385259 54.3129321,77.0798328 54.3129321,77.0798328 L54.1793349,76.7603518 C53.9210754,76.1423392 53.810879,75.6421681 54.2648541,75.2289377 L54.5626823,74.8916495 C54.8124324,74.6014978 54.5371541,73.5288795 53.8053479,73.9462998" id="Fill-117" fill="#F2B499"></path><path d="M53.9051426,77.0331775 C53.6493666,76.7278924 53.7583638,75.901779 53.9251335,75.5076287 C54.0914347,75.1122693 54.4118574,74.8565552 54.7472706,74.7332321 C54.9679125,74.6528303 55.2410213,74.6419488 55.3885844,74.8686457 C55.4836806,75.0149408 55.4982027,75.2228974 55.4785276,75.4121137 C55.4260608,75.914474 55.172627,76.3376415 54.9280939,76.7342099 C54.7978637,76.9457937 54.5028902,77.4587631 54.2939596,77.4521133 C54.079876,77.444859 53.926223,77.1927721 53.8058303,76.9648662" id="Fill-118" fill="#F2B499"></path><polyline id="Fill-119" fill="#DE4D59" points="23.0130784 30.4178563 24.3353768 29.8723404 25.483013 32.1048436 24.8442628 34.4875693 23.4947836 34.8510638 22.1493312 33.0050819 23.0130784 30.4178563"></polyline><path d="M22.9827516,34.3554243 C22.9827516,34.3554243 24.6421783,43.785648 26.0255216,50.4187074 C26.0255216,50.4187074 27.1600972,55.940461 27.6195857,57.2140528 C28.1322422,58.6358186 29.7102096,60.7616635 29.7102096,60.7616635 L31.3169561,61.4042553 L30.3355433,52.0839022 L24.2904891,34.0212766 L22.9827516,34.3554243" id="Fill-120" fill="#DE4D59"></path><polyline id="Fill-121" fill="#8F2C34" points="23.4947836 34.8510638 22.1493312 33.0050819 23.0130784 30.4178563 24.3353768 29.8723404 25.483013 32.1048436 24.8442628 34.4875693 23.4947836 34.8510638"></polyline><path d="M28.3481041,58.0851064 C28.1880874,57.7388533 28.0701584,57.4409027 28.0351547,57.2553191 C28.1143297,57.5146277 28.223091,57.7968163 28.3481041,58.0851064" id="Fill-122" fill="#8C8D89"></path><path d="M31.3169561,61.4042553 L29.7102096,60.7616635 C29.7102096,60.7616635 28.5917307,59.1468681 27.9859083,58.0365703 C27.8395744,57.7508059 27.7122639,57.4710895 27.6195857,57.2140528 C27.3249668,55.8890537 26.0255216,50.4187074 26.0255216,50.4187074 C24.6421783,43.785648 22.9827516,34.3554243 22.9827516,34.3554243 L24.2904891,34.0212766 L30.3355433,52.0839022 L31.3169561,61.4042553" id="Fill-123" fill="#8F2C34"></path><polyline id="Fill-124" fill="#E9EDF2" points="14.842008 24.893617 22.9827516 30.8045014 21.2226048 35.6808511 13.8151267 27.9972212 14.842008 24.893617"></polyline><polyline id="Fill-125" fill="#E9EDF2" points="23.8161721 29.7981294 25.9455951 24.893617 27.1498538 28.939316 25.4772186 33.1914894 23.8161721 29.7981294"></polyline><path d="M122.621916,191.45266 C122.62025,191.446851 122.618583,191.441043 122.616916,191.435234 L122.518572,191.079255 C122.522739,191.079255 122.523573,191.079255 122.52774,191.079255 C122.568577,191.217 122.603581,191.341468 122.634418,191.45266 C122.630251,191.45266 122.626917,191.45266 122.621916,191.45266" id="Fill-130" fill="#A1A7A6"></path><path d="M127.459824,183.37309 C127.473322,183.370291 127.457575,183.252024 127.361291,183.052229 C127.265007,182.853834 127.082788,182.571113 126.740845,182.290141 C126.569424,182.159278 126.376406,181.984676 126.035363,181.938839 C125.865742,181.915395 125.650228,181.985026 125.561593,182.123937 C125.472958,182.259 125.481956,182.405609 125.525599,182.539622 C125.726715,183.070424 126.497886,183.459166 127.296502,183.370291 C128.093768,183.269869 128.672371,182.775456 128.815897,182.249203 C128.840193,182.11554 128.834794,181.959483 128.700716,181.835618 C128.567538,181.710352 128.327729,181.700555 128.180603,181.75444 C127.872855,181.860461 127.72168,182.047659 127.570956,182.194968 C127.282104,182.507431 127.138578,182.801349 127.06614,183.005692 C126.994152,183.211085 126.989203,183.329352 127.003151,183.331452 C127.049043,183.345448 127.13003,182.860133 127.709982,182.276495 C127.859357,182.138983 128.028079,181.968581 128.253041,181.902799 C128.362373,181.869558 128.471705,181.883554 128.536944,181.945487 C128.602183,182.004621 128.61703,182.11449 128.592284,182.22086 C128.466305,182.65299 127.936294,183.104015 127.260508,183.180993 C126.58877,183.261471 125.911184,182.918566 125.744262,182.492385 C125.706019,182.389514 125.704669,182.278245 125.753261,182.201266 C125.801853,182.126037 125.902186,182.086848 126.012867,182.096645 C126.246828,182.117289 126.450194,182.263549 126.617566,182.385665 C127.291553,182.90422 127.414382,183.391985 127.459824,183.37309" id="Fill-138" fill="#1A282B"></path><path d="M89.6563873,183.312061 C89.6570253,183.350416 90.0873231,183.394991 90.7680652,183.276298 C91.1069016,183.21721 91.50528,183.111475 91.9196181,182.941987 C92.1270941,182.856465 92.338253,182.755913 92.5469566,182.638256 C92.6470116,182.579168 92.7660955,182.520081 92.8741303,182.407607 C92.9907588,182.30861 93.049073,182.063967 92.904822,181.919358 C92.7857381,181.777858 92.5819452,181.721881 92.4217345,181.723436 C92.2572269,181.723436 92.1258664,181.754534 92.0061687,181.78356 C91.7612489,181.841092 91.5322887,181.916766 91.3229713,182.003324 C90.9049502,182.177995 90.5685691,182.394131 90.3199662,182.600419 C89.820919,183.01766 89.658253,183.364411 89.6956969,183.380997 C89.7460313,183.410022 89.9854266,183.116139 90.4967505,182.769389 C90.7514917,182.596791 91.0786653,182.4159 91.4696777,182.269736 C91.6654908,182.197173 91.8772635,182.133939 92.1019269,182.085217 C92.33457,182.026648 92.53468,182.019392 92.5991326,182.10595 C92.6218444,182.13964 92.6255274,182.152598 92.578876,182.211685 C92.5297693,182.267145 92.4364665,182.322086 92.338253,182.380137 C92.1461229,182.493647 91.9521513,182.593681 91.7618627,182.680239 C91.3812855,182.853355 91.0148265,182.97464 90.7005434,183.058088 C90.0707495,183.226022 89.6527285,183.262822 89.6563873,183.312061" id="Fill-146" fill="#1A282B"></path><path d="M90.2502754,183.382571 C90.2866774,183.397124 90.4743755,183.021649 90.4891639,182.355108 C90.4959892,182.023875 90.4493491,181.625114 90.3111351,181.204815 C90.2411749,180.995829 90.1484634,180.782769 90.0278816,180.573784 C89.9004744,180.370037 89.7446281,180.096435 89.353306,180.06383 C89.149682,180.062672 88.9858727,180.230908 88.932976,180.372948 C88.8692724,180.517317 88.8596031,180.640147 88.8396957,180.762394 C88.8095503,181.0098 88.8220635,181.250803 88.8618782,181.472595 C88.9409389,181.919091 89.1320497,182.285834 89.3373801,182.547211 C89.7571413,183.07928 90.1803152,183.188139 90.1877093,183.152629 C90.2195611,183.099655 89.8629347,182.913372 89.5381602,182.39935 C89.3783324,182.146122 89.2321554,181.80965 89.1798274,181.419621 C89.1536634,181.225189 89.149682,181.018532 89.1786899,180.810129 C89.2037163,180.584844 89.2799331,180.401472 89.3629753,180.421847 C89.4647873,180.416608 89.6445224,180.579023 89.73439,180.754827 C89.8458713,180.939945 89.9363076,181.130302 90.0079742,181.317748 C90.1496009,181.693806 90.2178548,182.055892 90.2423124,182.363258 C90.2906589,182.980318 90.1956723,183.3686 90.2502754,183.382571" id="Fill-147" fill="#1A282B"></path><polygon id="Fill-148" fill="#2A4E96" points="87.5361154 184.580422 101.659194 184.15864 101.659194 98.7446809 117.768646 184.212766 130.524608 180.901999 117.768646 82.9787234 84.8306101 82.9787234"></polygon><path d="M104.860771,13.2525092 C105.408147,12.0517314 105.491376,10.6208932 105.491376,9.41126647 C105.491376,7.6965377 104.80315,5.78544932 104.345365,4.96159897 C103.88758,4.13774862 102.774222,2.16962649 101.001803,1.30232165 C99.4081029,0.522492824 97.8414812,0.140282265 96.07497,0.00956526033 C95.5412749,-0.0296995435 91.7261898,-0.00833627116 89.585017,1.30232165 C88.1845198,2.17337906 86.797792,3.19733851 86.5288654,4.46625831 C85.8456903,7.68979329 87.0115073,8.81077457 87.8263278,8.50510553" id="Fill-151" fill="#1A282B"></path><path d="M92.0611749,27.6085736 C92.1464114,25.8998019 92.2252429,24.521808 92.2252429,24.521808 C92.2252429,24.521808 87.1619478,25.3816454 86.5951602,23.6875753 C86.0852469,22.1634968 84.5506173,16.8056486 85.3893279,11.7407967 C86.2174582,7.67798904 87.7752049,6.45263467 87.7752049,6.45263467 C93.0657837,4.01160283 99.2579978,4.63508696 103.960297,8.08180216 L104.657955,8.5935437 C104.19285,13.2747815 103.692353,17.3274052 103.156464,20.7514149 C102.905915,22.35228 103.26238,24.7797379 104.22586,28.0337888 C104.158853,31.4088107 101.377087,34.0901386 98.0139383,34.0199287 C94.5842755,33.9482354 91.8897164,31.0468834 92.0611749,27.6085736 Z" id="Fill-152" fill="#F2B499"></path><path d="M103.060738,14.2835959 C103.141925,14.246543 106.347286,13.2344424 106.324677,16.4910311 C106.302068,19.7476197 102.996507,19.0532598 102.991369,18.9598664 C102.98623,18.8664729 103.060738,14.2835959 103.060738,14.2835959" id="Fill-154" fill="#F2B499"></path><path d="M105.433239,8.84629929 C105.595612,10.2289309 105.541475,10.9884803 105.24566,12.337471 C105.079673,13.0944099 104.570529,13.6472351 104.396125,14.106383 C104.115866,14.1046737 103.732934,14.1018628 103.321858,14.106383 C103.037544,13.6393457 102.878373,12.4677122 102.760535,11.9379011 C102.438614,10.4951073 101.760706,10.1184643 101.439286,8.67617269 C100.330613,9.22808023 99.479645,8.59381342 98.2426044,8.54962064 C97.0055639,8.50593005 93.5536841,8.52099577 92.4314722,8.69726469 C91.3092603,8.87353362 87.8814494,8.63649962 87.1949847,8.24177776 C86.5080185,7.8470559 86.1830885,6.95164994 86.3791497,6.18329823 C86.6739935,5.02625094 87.8869652,4.3718965 89.0222145,4.00680389 C93.4609186,2.57606268 98.4321469,3.48452559 102.511322,5.74639235 C103.106526,6.07633162 103.693205,6.43941547 104.164554,6.93005575 C104.636404,7.42119822 105.280247,7.66164292 105.316852,8.34211127" id="Fill-164" fill="#1A282B"></path><path d="M53.619018,65.078582 C52.7866846,65.1240652 52.1356657,65.8686609 52.1527977,66.7640155 C52.1837306,68.3656372 52.435477,70.5595625 53.5980788,70.3510553 C53.94087,68.5522916 54.2813883,67.6519665 54.6196336,67.6500799 C55.381631,67.8008665 57.0955344,69.2488638 59.7613436,71.9940719 C60.3090942,72.527094 60.9858112,72.8827828 61.7139245,73.0212766 L64.6537739,72.4683727 L60.7603238,64.4526963 L53.619018,65.078582 Z" id="Fill-169" fill="#F2B499"></path><path d="M89.7200058,29.8019114 L87.9895464,59.3394439 L87.9895464,85.5381019 L109.40988,87.9574468 L109.658478,50.1739061 L108.274889,31.3691786 L104.764834,27.3829787 C101.313436,30.9107074 98.7252832,32.7655002 97.0003757,32.9473573 C95.2754682,33.1292143 93.7772838,31.920027 92.5058224,29.3197952 L89.7200058,29.8019114 Z" id="Fill-170" fill="#F3F4F9"></path><path d="M105.133561,26.5531915 L108.58744,28.2591291 L115.256448,29.9321548 C118.185171,30.4537598 120.194869,33.2467902 119.817047,36.2702044 L116.324753,64.1995105 L120.492944,91.2765957 L103.96071,90.7714467 L102.991114,80.6988847 L102.991114,52.7750639 L105.133561,26.5531915" id="Fill-177" fill="#6680E7"></path><path d="M102.993067,59.7446809 C102.985273,59.7426614 103.000862,59.6228686 103.038917,59.3968161 C103.084309,59.145201 103.142997,58.8173998 103.215898,58.4099037 C103.385544,57.5257425 103.621213,56.2972396 103.910068,54.7915592 C104.524458,51.7160416 105.363055,47.5157747 106.289684,42.8759333 C106.549654,41.5973079 106.802746,40.3527658 107.045751,39.1583462 L107.075554,39.2741292 C106.706919,38.8531001 106.346997,38.441093 105.994869,38.0386092 L105.935263,37.9704426 L105.979738,37.8897453 C106.625765,36.7148735 107.233278,35.6101733 107.793107,34.5921849 L107.787146,34.6909263 C106.965514,32.5141054 106.280973,30.6996703 105.790377,29.3984897 C105.563878,28.7794767 105.382312,28.283765 105.247513,27.9153645 C105.126011,27.5725265 105.065489,27.3875744 105.075117,27.3829787 C105.084746,27.3785523 105.164066,27.5544824 105.30345,27.8893008 C105.451087,28.2521878 105.649159,28.7398799 105.896749,29.3488685 C106.40706,30.6415282 107.118194,32.4439339 107.971922,34.605718 L107.991637,34.6563418 L107.965503,34.7049606 C107.412551,35.7269587 106.812374,36.83617 106.174142,38.0160541 L106.158553,37.8676914 C106.511598,38.2681703 106.873355,38.6781725 107.243365,39.097698 L107.286922,39.146818 L107.273167,39.213481 C107.031996,40.4079006 106.780738,41.6534451 106.522602,42.9320705 C105.56938,47.5658972 104.706941,51.7601494 104.075128,54.8316572 C103.755095,56.3298193 103.494208,57.5523074 103.306682,58.4319576 C103.21544,58.8354439 103.142538,59.1592353 103.086143,59.407843 C103.032498,59.6308882 103.00132,59.74617 102.993067,59.7446809" id="Fill-178" fill="#1A282B"></path><path d="M60.4866717,63.8981544 L75.696629,55.5281384 L83.0662353,35.9092603 C84.0957049,33.1686666 86.2325115,30.9730971 88.9654598,29.8481111 L90.9217553,29.0425532 L90.9313624,80.6990772 L91.3232282,92.9361702 L83.0824156,90.4995323 L87.2847345,65.9040634 L85.8320499,53.7982353 L84.3884666,59.6547509 C83.8717093,61.7485027 82.5171175,63.5462843 80.6341388,64.6358338 L64.8007356,72.7533018 L60.4866717,63.8981544" id="Fill-179" fill="#6680E7"></path><path d="M90.4848456,59.7446809 C90.4757013,59.7456605 90.451496,59.637169 90.4143812,59.4295559 C90.3756527,59.195313 90.3261663,58.8935096 90.265384,58.5202005 C90.1438196,57.6976382 89.9749202,56.5609438 89.7689061,55.1697878 C89.3730147,52.3100523 88.8329672,48.411758 88.2369786,44.1046482 C88.1541426,43.4931511 88.0734582,42.8895442 87.9938496,42.2962933 L87.9895464,42.264239 L88.0024559,42.2341573 C88.410181,41.2833779 88.8055345,40.362187 89.1842133,39.4794613 L89.1863648,39.5736516 C88.7781018,38.7175556 88.3870515,37.8999247 88.0191307,37.1291424 L88.0013801,37.0921567 L88.0132139,37.0541847 C88.7296912,34.6787155 89.3321346,32.68198 89.7656787,31.2444686 C89.9792234,30.5654108 90.1502743,30.0199948 90.2782935,29.6146314 C90.4009338,29.2388565 90.472474,29.0396268 90.4848456,29.0425532 C90.498293,29.0455445 90.451496,29.2511851 90.3519853,29.6323845 C90.2411787,30.0421863 90.0921816,30.5930268 89.9060696,31.2789886 C89.4967308,32.7224177 88.9276369,34.7275366 88.2509638,37.1128687 L88.2445091,37.037911 C88.6188847,37.8057344 89.0153139,38.6213927 89.4305696,39.475023 L89.4531612,39.5208853 L89.4327212,39.5692133 C89.0578077,40.4524322 88.6662195,41.3751025 88.2617218,42.3273613 L88.2697902,42.2652253 C88.3504746,42.857983 88.4316969,43.4615899 88.5145328,44.0730871 C89.0793236,48.384142 89.5903247,52.2853952 89.965776,55.1475964 C90.1352132,56.5426976 90.2734525,57.6828439 90.3735011,58.5078719 C90.4133054,58.8841399 90.4455792,59.1874227 90.4703224,59.423145 C90.4891487,59.6327308 90.4950656,59.7436879 90.4848456,59.7446809" id="Fill-184" fill="#1A282B"></path><path d="M103.824535,86.0182926 C104.114458,86.2156236 116.689137,94.5957447 116.689137,94.5957447 L118.139725,93.4122546 L118.826103,74.1878542 L106.573939,64.7234043 L104.888397,65.3153972 L103.824535,86.0182926" id="Fill-188" fill="#DE4D59"></path><polyline id="Fill-189" fill="#DFDFDA" points="105.860468 65.5531915 106.324796 86.2978723 103.824535 86.2978723 104.662305 65.9639724 105.860468 65.5531915"></polyline><path d="M110.611885,91.0141595 C110.611885,91.0141595 110.903744,91.9588721 112.092525,92.0469299 C112.129752,92.0499839 112.165986,92.0779792 112.200731,92.1395687 C112.467773,92.6058169 112.921445,92.9381969 113.449075,92.9361702 C113.857083,92.9346339 114.347982,92.836905 114.856254,92.5192861 C115.542223,92.0907043 116.764756,89.2809989 116.764756,89.2809989 L119.659523,82.6685201 L114.790734,81.3191489 L108.605601,83.2956138 C108.605601,83.4106488 107.158217,89.4158851 107.158217,89.4158851 C107.158217,89.4158851 108.330617,89.7533551 108.895971,88.4711726 C109.461324,87.189499 109.987465,86.3761096 109.987465,86.3761096 L110.448086,89.0784151 L108.689485,89.6953286 C108.689485,89.6953286 108.476051,90.6950137 109.442462,91.066587 L110.611885,91.0141595" id="Fill-190" fill="#F2B499"></path><path d="M112.158739,45.7573782 L120.483335,60.4523743 L113.708865,79.7404734 L121.242341,83.8085106 L130.815295,62.3536598 C131.525366,60.7628182 131.495801,58.9573547 130.734246,57.3885131 L118.988262,33.1914894 L112.158739,45.7573782" id="Fill-191" fill="#6680E7"></path><polyline id="Fill-192" fill="#DFDFDA" points="113.738256 79.6595745 112.99216 81.3391637 120.535903 85.4680851 121.326364 83.9983759 113.738256 79.6595745"></polyline><path d="M120.762029,80.567494 C120.776984,80.6011266 120.692864,80.6664419 120.684452,80.8082834 C120.669497,80.9549992 120.766235,81.1139007 120.950833,81.0554094 C121.135897,81.0008174 121.134963,80.8126703 121.046636,80.6971499 C120.965787,80.5830917 120.861572,80.5752929 120.856431,80.5387358 C120.840542,80.510465 120.986817,80.4295519 121.165807,80.567494 C121.246188,80.6337842 121.331711,80.7527166 121.326103,80.9218541 C121.321897,81.0944036 121.182163,81.2528177 121.019064,81.2991233 C120.858768,81.352253 120.659216,81.2981485 120.566216,81.1548447 C120.473217,81.0159277 120.483498,80.8672622 120.516679,80.7668521 C120.595191,80.5494592 120.761095,80.5348364 120.762029,80.567494" id="Fill-196" fill="#1A282B"></path><path d="M120.761896,78.9079262 C120.776866,78.9415615 120.692662,79.0068823 120.683774,79.1487358 C120.66974,79.2954639 120.766574,79.4543788 120.950886,79.3958825 C121.136602,79.341286 121.135198,79.153123 121.047253,79.0375929 C120.966324,78.9230377 120.861069,78.9152382 120.856391,78.8791655 C120.840486,78.8508923 120.987375,78.7699724 121.166073,78.9079262 C121.246066,78.9737345 121.332141,79.0931643 121.32606,79.2618286 C121.322785,79.43488 121.182914,79.5933074 121.019653,79.639617 C120.85873,79.6927511 120.658981,79.6381546 120.565422,79.4953262 C120.473266,79.3563975 120.483557,79.2077195 120.516771,79.1068135 C120.595361,78.8898898 120.760493,78.8752657 120.761896,78.9079262" id="Fill-197" fill="#1A282B"></path><path d="M171.644767,158.489362 L170.498171,154.112474 C171.555113,151.100314 174.238905,148.698049 177.379203,147.953739 C178.094008,147.784404 178.826744,147.702128 179.56045,147.702128 C182.050396,147.702128 184.545672,148.650214 186.343105,150.358396 C187.245456,151.215118 187.999515,152.398552 188,153.590118 C188,153.86182 187.960746,154.133521 187.875454,154.402353 C187.415556,155.853662 185.75333,156.615671 184.19772,156.615671 C184.102251,156.615671 184.007266,156.612801 183.913251,156.607061 C182.281557,156.507564 180.771984,155.769951 179.234789,155.219372 C178.276223,154.87544 177.238665,154.604695 176.229214,154.604695 C175.620539,154.604695 175.022041,154.703234 174.457466,154.943365 C173.013801,155.557565 172.080919,156.998828 171.644767,158.489362" id="Fill-202" fill="#73242A"></path><path d="M158.284848,165.130166 C155.834949,162.81519 155.957395,158.784577 157.17937,155.650258 C158.400849,152.516433 161.067877,150.1102 164.04672,148.523803 C169.819994,145.449172 177.037826,145.216342 182.999477,147.912626 C180.070208,148.008816 177.238101,149.663779 175.726124,152.162256 C174.383686,154.380549 174.085753,157.072392 172.976308,159.414992 C171.741444,162.024458 169.473974,164.133735 166.774228,165.18344 C164.073985,166.233639 160.97121,166.214401 158.284848,165.130166" id="Fill-203" fill="#DE4D59"></path><path d="M157.532251,151.021277 C154.835605,147.859803 154.476282,142.784895 154.873558,138.66034 C155.270834,134.535294 156.233464,130.384299 155.578403,126.292058 C155.190492,123.867952 154.243634,121.55303 153.923743,119.119131 C153.603852,116.685232 154.057318,113.93259 155.95547,112.361401 C158.138024,110.555194 161.574511,110.981653 163.844307,112.676716 C166.11509,114.372758 167.430142,117.036289 168.391294,119.691489 C170.50287,125.524335 171.2782,131.99221 169.54369,137.946474 C167.808195,143.900738 163.737841,149.224373 157.765885,151.021277" id="Fill-204" fill="#DE4D59"></path><path d="M155.50726,177.574468 C155.499267,177.574468 155.49577,177.448888 155.496603,177.209501 C155.500266,176.970605 155.496603,176.61692 155.517251,176.162674 C155.552219,175.254671 155.641138,173.940496 155.84845,172.326597 C156.056261,170.713678 156.381965,168.800545 156.898496,166.708853 C157.407034,164.613236 158.278243,162.378795 159.508626,160.2042 C160.744503,158.029605 162.251135,156.151301 163.774751,154.604116 C165.303363,153.055459 166.866443,151.850676 168.247689,150.951994 C168.930069,150.488427 169.590469,150.136705 170.158953,149.810491 C170.741924,149.509786 171.249962,149.263531 171.667083,149.065841 C172.079209,148.895621 172.406911,148.76023 172.650191,148.660158 C172.875486,148.569407 172.995377,148.525748 172.998432,148.532616 C173.001372,148.539484 172.887475,148.597368 172.668174,148.700874 C172.429891,148.810756 172.108682,148.95792 171.704549,149.143838 C171.295421,149.352811 170.794376,149.609857 170.220397,149.918902 C169.660905,150.253945 169.009497,150.612535 168.336608,151.082479 C166.975344,151.992444 165.433744,153.201642 163.925115,154.745884 C162.420481,156.290126 160.931333,158.155676 159.706446,160.313101 C157.194227,164.628934 156.505853,169.166984 156.006806,172.3472 C155.780511,173.953741 155.666615,175.26252 155.605171,176.167579 C155.578695,176.605147 155.557714,176.952455 155.542228,177.210973 C155.527241,177.449379 155.514753,177.574468 155.50726,177.574468" id="Fill-205" fill="#1A282B"></path><path d="M132.556701,138.574468 C127.560548,141.693115 127.576344,144.530429 128.411093,147.208953 C129.244855,149.887476 132.311361,151.748554 134.853125,150.745768 C136.290117,150.179019 137.331702,148.886731 138.220752,147.588827 C139.109308,146.290923 139.945044,144.901113 141.190997,143.968787 C142.437444,143.03544 144.243681,142.679052 145.495557,143.60372 L132.556701,138.574468" id="Fill-206" fill="#DE4D59"></path><path d="M133.272218,150.959348 C131.171358,150.959348 129.065665,149.322954 128.402591,147.146882 C128.163846,146.36519 127.993728,145.569203 127.993728,144.756878 C127.994694,142.787588 128.998004,140.720268 132.461258,138.51254 L143.828716,143.025516 C143.700161,143.009689 143.570156,143.00203 143.439668,143.00203 C142.556698,143.00203 141.638931,143.352795 140.914479,143.90677 C139.694656,144.83908 138.876446,146.228867 138.006525,147.52675 C137.13612,148.824632 136.116379,150.116899 134.709522,150.683638 C134.242664,150.87204 133.757441,150.959348 133.272218,150.959348 M145.495557,143.491263 L143.828716,142.661476 C144.424813,142.753401 144.995505,143.018506 145.495557,143.491263" id="Fill-207" fill="#73242A"></path><path d="M128.827148,141.968989 C130.119353,140.179534 133.312262,139.66183 135.328219,140.554356 C137.344176,141.446881 138.82147,143.217742 140.142977,144.985178 C141.464972,146.752614 142.751805,148.618893 144.582672,149.848562 C146.41354,151.078232 148.97109,151.523516 150.79561,150.285039 C151.994049,149.471294 152.688988,148.05715 152.906797,146.622454 C153.124118,145.188736 152.914123,143.723703 152.616222,142.304665 C152.180115,140.227977 151.468084,138.058317 149.809119,136.738613 C147.96067,135.268196 145.395306,135.198712 143.036031,135.276025 C140.328554,135.364593 137.581031,135.567662 135.040085,136.508141 C132.498651,137.448621 129.905939,139.479312 128.827148,141.968989" id="Fill-208" fill="#DE4D59"></path><path d="M151.315614,173.425532 C151.311783,173.425532 151.306994,173.388804 151.302206,173.316817 C151.297418,173.231609 151.292629,173.126812 151.285925,172.99704 C151.275869,172.698319 151.261504,172.287456 151.243787,171.7669 C151.213619,170.679753 151.170044,169.13914 151.116892,167.243 C151.057994,165.333149 150.981857,163.059447 150.8473,160.537953 C150.709392,158.017439 150.526472,155.245217 150.152492,152.359872 C149.96191,150.919648 149.739725,149.510766 149.349464,148.20668 C148.956808,146.901615 148.433427,145.685187 147.864556,144.572576 C147.289459,143.460944 146.659295,142.449703 145.990344,141.564315 C145.318521,140.682356 144.625149,139.915967 143.944705,139.267597 C142.569454,137.98212 141.254058,137.196632 140.317431,136.738758 C140.08088,136.627594 139.874497,136.51937 139.688225,136.441506 C139.505305,136.36952 139.348243,136.306837 139.215123,136.253949 C139.097805,136.205468 139.002515,136.165802 138.92542,136.134461 C138.860297,136.106058 138.827256,136.089898 138.828194,136.08598 C138.829172,136.082063 138.864606,136.091367 138.932124,136.112914 C139.011134,136.138868 139.108819,136.171679 139.229967,136.211834 C139.365481,136.259336 139.525896,136.315652 139.712646,136.380293 C139.901791,136.45179 140.112006,136.555118 140.352866,136.660405 C141.305774,137.097222 142.64607,137.868998 144.047658,139.152026 C144.741509,139.798437 145.448288,140.565806 146.132562,141.452173 C146.813963,142.340498 147.456098,143.357617 148.040772,144.477083 C148.620657,145.598998 149.151221,146.820814 149.552495,148.142039 C149.951854,149.469141 150.175955,150.88341 150.367016,152.33049 C150.742433,155.227098 150.919128,158.003238 151.04698,160.52718 C151.171002,163.052101 151.231337,165.327762 151.270123,167.238593 C151.308431,169.149424 151.322796,170.696403 151.328543,171.764941 C151.329022,172.285987 151.329022,172.69734 151.3295,172.99606 C151.327585,173.126322 151.32567,173.231119 151.324233,173.316328 C151.321839,173.388804 151.318487,173.425532 151.315614,173.425532" id="Fill-209" fill="#1A282B"></path><path d="M153.802146,175.914894 C153.802146,175.914894 153.545136,175.166654 153.299025,173.751321 C153.05927,172.33798 152.879454,170.242112 153.088331,167.672808 C153.284494,165.103006 153.884334,162.088641 154.839266,158.852741 C155.782391,155.611365 157.062898,152.144472 158.156777,148.418707 C158.69895,146.553833 159.160295,144.70937 159.476335,142.897764 C159.796462,141.087651 159.999436,139.319357 160.128395,137.630715 C160.385858,134.249946 160.349532,131.186794 160.274609,128.622468 C160.195145,126.056648 160.070727,123.982187 159.993079,122.547937 C159.95539,121.842013 159.925421,121.288425 159.904533,120.896633 C159.896814,120.716916 159.890457,120.575034 159.88637,120.466507 C159.883191,120.36943 159.883645,120.319149 159.887278,120.319149 C159.890457,120.319149 159.897268,120.368434 159.906804,120.464516 C159.916793,120.573043 159.929508,120.714427 159.9454,120.893148 C159.975824,121.284443 160.018961,121.837035 160.072997,122.541465 C160.175165,123.974222 160.321833,126.047687 160.41946,128.616494 C160.513001,131.184305 160.56522,134.253431 160.317292,137.647143 C160.19242,139.343252 159.993533,141.12001 159.674314,142.94008 C159.358728,144.761642 158.896929,146.617057 158.352486,148.48691 C157.255428,152.22512 155.969926,155.687533 155.019536,158.916463 C154.057793,162.138922 153.446601,165.133871 153.232729,167.687245 C153.006597,170.240619 153.163255,172.324041 153.377581,173.736386 C153.490647,174.441812 153.593723,174.988431 153.684085,175.352345 C153.723136,175.526586 153.754013,175.664485 153.777171,175.770523 C153.796697,175.865111 153.805324,175.913898 153.802146,175.914894" id="Fill-210" fill="#1A282B"></path><path d="M142.682294,177.574468 C142.428675,175.552537 143.862174,173.70784 145.884105,173.45422 C146.036432,173.435113 146.189803,173.425532 146.343323,173.425532 L161.348712,173.425532 C163.640106,173.425532 165.497648,175.283074 165.497648,177.574468 L165.497648,177.574468 L165.497648,177.574468 L142.682294,177.574468 Z" id="Fill-211" fill="#5975E2"></path><polygon id="Fill-212" fill="#6680E7" points="147.580705 191.680851 160.266479 191.680851 162.997387 177.574468 144.662137 177.574468"></polygon></g></g></g></g></g></g></svg>