<svg xmlns="http://www.w3.org/2000/svg" id="Layer_1" data-name="Layer 1" viewBox="0 0 200 200"><defs><style>.cls-1{fill:#6b98f6;}.cls-2{fill:#1e3865;}</style></defs><path class="cls-1" d="M145.47,169.15H91.66l.49-5.22h14.31c-1.88-3.7-4.36-6.09-8-7.22-.49-.16-1-.22-1.52-.34-1.76-.43-2.49-1.49-1.77-3.14,1.63-3.77.77-7.23-.46-10.94a94.4,94.4,0,0,1-4.42-16.89c-2-14.94,7.63-28.18,22.36-31.42a34.89,34.89,0,0,1,13-.77v7.63c4.61.18,7.52,3,10.37,5.86s5.78,6,8.65,9a4.84,4.84,0,0,1,.57,6.55c-2.66,4-4,4.48-8.62,3.36-4.28-1-8.61-1.9-12.94-2.75a7,7,0,0,0-2.34.38c.19.83.09,1.94.6,2.47a108.45,108.45,0,0,0,8.52,8.23c4.58,3.81,8.95,7.78,11.79,13.09,2.73,5.11,4.69,10.35,2.84,16.39C144.55,165.06,145.29,167.1,145.47,169.15Zm-42.09-23.78.87.08c.19-2.94.6-5.88.53-8.81-.14-5.31-.82-10.61-.8-15.92,0-6.52,3.25-11.36,8.93-14.52,1.5-.84,3.08-1.53,5-2.49-.81-.09-1.17-.16-1.53-.17-8.41-.27-14.87,8.36-15.65,14.64C99.61,127.37,102.08,136.34,103.38,145.37Z"></path><path class="cls-2" d="M102.44,11c33.42.89,58.88,15.69,75.49,44.7,9.14,16,12.29,33.47,10.11,51.83-.4,3.4-2,5.32-4.13,5.07-2.41-.27-3.67-2.62-3.27-5.89A76.21,76.21,0,0,0,173.94,64C162.4,39.68,143.34,24.38,117,19.66c-30.93-5.54-56.81,4.48-76.55,29-12.57,15.64-18,33.91-16.52,53.84,1.76,23.51,12,42.85,30.74,57.46.89.69,1.79,1.37,2.62,2.13,1.7,1.53,2.17,3.37.63,5.2s-3.29,1.73-5,.41c-2.83-2.17-5.73-4.27-8.34-6.68-15.88-14.63-25.37-32.74-27.69-54.13-2.73-25.09,4.26-47.5,20.88-66.67,13.54-15.61,30.71-24.88,51-28.52a56.37,56.37,0,0,1,7-.73C97.94,10.88,100.19,11,102.44,11Z"></path><path class="cls-2" d="M90.58,102.89c-2.14,3.67-4.2,7.21-6.55,11.22a69.85,69.85,0,0,1-6.46-3.81,5.36,5.36,0,0,0-6.72-.25c-2.69,1.67-5.5,3.16-8.47,4.84-2.42-4.21-4.75-8.24-7.26-12.59,2.82-1.66,5.47-3.37,8.27-4.8a5.57,5.57,0,0,0,3.34-6.14,38.44,38.44,0,0,1,0-6.7c.21-2.63-.58-4.48-3-5.73-2.82-1.46-5.51-3.18-8.61-5,2.43-4.18,4.81-8.27,7.32-12.61,3,1.72,5.89,3.27,8.67,5,2.3,1.4,4.3,1.19,6.49-.36a43.29,43.29,0,0,1,6.32-3.6A4.78,4.78,0,0,0,87,57.49c-.07-3.36,0-6.73,0-10.28h14.62c0,3.11.07,6.26,0,9.4-.09,2.85.87,4.78,3.64,6a45.05,45.05,0,0,1,6.54,3.8,4.66,4.66,0,0,0,5.28.17l9.15-5.22,7.31,12.58c-2.94,1.74-5.58,3.49-8.39,4.91s-3.72,3.34-3.16,6.17c.41,2-.19,2.78-2.33,3-3.33.39-6.6,1.24-9.89,1.9-1.73-11.3-6.31-16.46-14.86-16.75a14.83,14.83,0,0,0-15.18,11.3C78.26,90.71,80.05,99.15,90.58,102.89Z"></path><path class="cls-1" d="M118.47,180.49H94.09a11.47,11.47,0,0,1-1.55,0,3.94,3.94,0,0,1-3.4-3.29,3.76,3.76,0,0,1,2.91-3.68,8.94,8.94,0,0,1,2.31-.25h48.17a8.89,8.89,0,0,1,2.13.16,3.83,3.83,0,0,1,3,4,3.74,3.74,0,0,1-3.87,3.13c-5.2,0-10.4,0-15.6,0Z"></path><path class="cls-1" d="M89.17,189.71l.62-5.55h56.38c.31,1.85.61,3.62,1,5.55Z"></path><path class="cls-2" d="M38.31,105.48c.56.57,2,1.43,2.55,2.68,2.78,6.2,5.36,12.5,8,18.77.81,1.95.58,3.7-1.38,4.89s-3.72.42-4.83-1.3A62,62,0,0,1,34,109.93C33.46,107.3,35,105.49,38.31,105.48Z"></path><path class="cls-2" d="M101.45,88.21a7.32,7.32,0,0,1-7.27,7.06,7.18,7.18,0,1,1,7.27-7.06Z"></path><path class="cls-2" d="M51.89,140.83c.1-3.09,2.82-4.8,5-3.3A18,18,0,0,1,62,142.58c.63,1,.17,3.27-.6,4.45-1.1,1.68-3,1.35-4.37,0C55,145,52.22,143.63,51.89,140.83Z"></path></svg>