<svg xmlns="http://www.w3.org/2000/svg" xmlns:xlink="http://www.w3.org/1999/xlink" id="Layer_1" data-name="Layer 1" viewBox="0 0 600 500"><defs><style>.cls-1{fill:#0e56a2;}.cls-2{fill:#f0f5fc;opacity:0.9;}.cls-3{fill:#fbc343;}.cls-4{fill:#8db4ff;}.cls-5{fill:#2b478b;}.cls-6{fill:#6b98f6;}.cls-7,.cls-9{fill:none;stroke-miterlimit:10;}.cls-7{stroke:#fdfeff;}.cls-8{fill:#fff;}.cls-9{stroke:#6b98f6;strokeLinecap:round;strokeWidth:9px;}.cls-10{fill:#1e3865;}.cls-11{fill:#ffae73;}.cls-12{fill:#f99352;}.cls-13{fill:#2a3967;}.cls-14{fill:url(#linear-gradient);}.cls-15{fill:#25468f;}.cls-16{fill:url(#linear-gradient-2);}.cls-17{fill:url(#linear-gradient-3);}.cls-18{fill:#0b3563;}.cls-19{fill:#143057;}.cls-20{fill:#577bec;}.cls-21{fill:#f48f4e;}.cls-22{fill:#2e3552;}</style><linearGradient id="linear-gradient" x1="445.45" y1="205.3" x2="526.48" y2="205.3" gradientUnits="userSpaceOnUse"><stop offset="0" stop-color="#75bfff"></stop><stop offset="1" stop-color="#97d1ff"></stop></linearGradient><linearGradient id="linear-gradient-2" x1="405.35" y1="201.49" x2="457.99" y2="201.49" xlink:href="#linear-gradient"></linearGradient><linearGradient id="linear-gradient-3" x1="517.4" y1="202.11" x2="568.14" y2="202.11" xlink:href="#linear-gradient"></linearGradient></defs><rect class="cls-1" x="166.68" y="74.11" width="288.62" height="387.76"></rect><rect class="cls-2" x="177.32" y="83.27" width="267.34" height="369.44"></rect><path class="cls-3" d="M250,67.91a5.44,5.44,0,0,0-5.43,5.44V83.86c0,8.8,7.65,15.94,17.1,15.94h91.86c9.44,0,17.1-7.14,17.1-15.94V72.8a4.89,4.89,0,0,0-4.89-4.89Z"></path><path class="cls-4" d="M253.78,348.65h-54v-54h54Zm-51.45-2.55h48.9V297.2h-48.9Z"></path><path class="cls-5" d="M228.12,337.8a3.83,3.83,0,0,1-2.94-1.39l-16.65-20.15a3.81,3.81,0,1,1,5.87-4.86l13.22,16,23.9-40.11a3.81,3.81,0,1,1,6.55,3.9L231.4,335.93a3.78,3.78,0,0,1-3,1.85Z"></path><rect class="cls-4" x="275.52" y="323.43" width="131.39" height="4.43"></rect><rect class="cls-4" x="275.52" y="343.23" width="131.39" height="4.43"></rect><rect class="cls-4" x="370.31" y="333.33" width="36.6" height="4.43"></rect><rect class="cls-4" x="275.52" y="333.33" width="81.31" height="4.43"></rect><rect class="cls-4" x="275.52" y="394.55" width="131.39" height="4.43"></rect><rect class="cls-4" x="275.52" y="414.35" width="131.39" height="4.43"></rect><rect class="cls-4" x="370.31" y="404.45" width="36.6" height="4.43"></rect><rect class="cls-4" x="275.52" y="404.45" width="81.31" height="4.43"></rect><rect class="cls-4" x="323.06" y="180.95" width="101.59" height="4.43"></rect><rect class="cls-4" x="323.06" y="200.75" width="101.59" height="4.43"></rect><rect class="cls-4" x="398.11" y="190.85" width="28.29" height="4.43"></rect><rect class="cls-4" x="323.06" y="190.85" width="62.87" height="4.43"></rect><rect class="cls-4" x="323.06" y="125.2" width="101.59" height="4.43"></rect><rect class="cls-4" x="323.06" y="145" width="101.59" height="4.43"></rect><rect class="cls-4" x="398.11" y="135.1" width="28.29" height="4.43"></rect><rect class="cls-4" x="323.06" y="135.1" width="62.87" height="4.43"></rect><rect class="cls-3" x="331.38" y="239.5" width="85.23" height="4.43"></rect><rect class="cls-3" x="331.38" y="259.29" width="85.23" height="4.43"></rect><rect class="cls-3" x="394.35" y="249.39" width="23.74" height="4.43"></rect><rect class="cls-3" x="331.38" y="249.39" width="52.75" height="4.43"></rect><path class="cls-4" d="M253.78,436.28h-54v-54h54Zm-51.45-2.55h48.9v-48.9h-48.9Z"></path><path class="cls-5" d="M228.12,425.43a3.83,3.83,0,0,1-2.94-1.39l-16.65-20.15A3.81,3.81,0,1,1,214.4,399l13.22,16,23.9-40.11a3.81,3.81,0,1,1,6.55,3.9L231.4,423.56a3.78,3.78,0,0,1-3,1.85Z"></path><path class="cls-6" d="M248.15,167.68s-47.19,20.9-67.6,69.76l15.78-3.77,7.49,10.93s15.94-43.81,53.55-59.06Z"></path><path class="cls-7" d="M197.42,230.86l-12.56,3a123.85,123.85,0,0,1,16.78-26.35A148.88,148.88,0,0,1,247.05,171l6.88,13.33c-18.67,8.4-31.72,23.59-39.5,35.1a132.76,132.76,0,0,0-11.15,20Z"></path><path class="cls-6" d="M169.91,158.55c.51-2.85,12.81-2.57,13.73-5.22s-8.86-10.13-7.53-12.62,13,1.55,14.68-.7-5.29-12.37-3.25-14.33,11.84,5.49,14.18,3.87-1.24-13.39,1.32-14.63,9.56,8.87,12.3,8,2.94-13.12,5.78-13.51,6.31,11.4,9.19,11.47,6.84-11.56,9.69-11,2.56,12.81,5.21,13.73,10.14-8.86,12.62-7.53-1.55,13,.7,14.67,12.37-5.29,14.33-3.24-5.49,11.84-3.87,14.18,13.39-1.24,14.63,1.32-8.86,9.56-8,12.3,13.12,2.94,13.51,5.78-11.4,6.31-11.46,9.19,11.55,6.84,11,9.68-12.81,2.57-13.73,5.22,8.86,10.13,7.53,12.62-13-1.55-14.67.7,5.29,12.37,3.24,14.33-11.84-5.49-14.17-3.87,1.23,13.39-1.33,14.63-9.56-8.87-12.29-8-2.95,13.12-5.79,13.51-6.31-11.4-9.19-11.47-6.84,11.56-9.68,11-2.57-12.81-5.22-13.73-10.13,8.86-12.61,7.53,1.54-13-.71-14.68-12.37,5.3-14.33,3.25,5.49-11.84,3.87-14.18S176.2,198.06,175,195.5s8.87-9.56,8-12.3-13.12-2.94-13.5-5.78,11.39-6.31,11.46-9.19S169.4,161.39,169.91,158.55Z"></path><path class="cls-6" d="M201.42,152.28s45.32,39,51.59,100l-16.24-9.46-12,9.6s-3-53.9-39.59-83.4Z"></path><path class="cls-7" d="M226.85,247.57A153.63,153.63,0,0,0,221.11,221c-4.77-15.41-14.21-36.71-32.24-52.22l12.66-13.06a172.47,172.47,0,0,1,38.52,56.2,144.59,144.59,0,0,1,9.89,35.64l-13.39-7.8Z"></path><circle class="cls-8" cx="229.29" cy="169.25" r="52.43" transform="translate(-42.61 83.86) rotate(-19)"></circle><path class="cls-6" d="M220.94,215.55a47,47,0,1,1,54.65-38A47.1,47.1,0,0,1,220.94,215.55Zm16.44-91.19a45.61,45.61,0,1,0,36.8,53A45.67,45.67,0,0,0,237.38,124.36Z"></path><polyline class="cls-9" points="208.47 165.95 227.03 184.5 255.94 155.59"></polyline><path class="cls-10" d="M446.08,462.6s0-6.05.86-8.06,4-10.21,4-10.21h12.35s2.3,7.48,2.44,9.92,0,8.35,0,8.35Z"></path><path class="cls-10" d="M524.54,462.6s0-6.05-.87-8.06-4-10.21-4-10.21H507.29s-2.29,7.48-2.44,9.92,0,8.35,0,8.35Z"></path><path class="cls-11" d="M475,123.06s-.43,13.47-2.16,19.51l-13.64,9.52,51.36,7.68-12.25-16.92s-3.7-18.06-1.76-24.74S475,123.06,475,123.06Z"></path><path class="cls-12" d="M475,124.92s4.06,9.78,11.71,9.57,9.39-8.87,9.39-8.87Z"></path><path class="cls-13" d="M470.39,117s-2.47-12.34-4.19-16.07S463,80.53,482.14,79.67c0,0,7.33.86,11.36-1.58,0,0,0,2.44-1,3.31a12.71,12.71,0,0,1,11.78,4.16c5.17,5.75-3.45,25.87-3,30.61Z"></path><path class="cls-11" d="M485.79,130.71c-5.54-.1-15.74-7.48-15.74-16.62V99.82c0-3.34,2.32-6.07,5.17-6.07h21.15c2.84,0,5.17,2.73,5.17,6.07v13.46C501.54,122.86,492.15,130.82,485.79,130.71Z"></path><path class="cls-13" d="M470.05,107.44s0-8.57,6.81-9.89,22,4.18,24.14-2.07-29.37-6.15-30.95-2.16S470.05,107.44,470.05,107.44Z"></path><path class="cls-5" d="M447.63,253.1s2.16,66-1.07,103.69,0,90.08,0,90.08,10.34,5.7,21.55,0c0,0,12.29-72.77,12.21-90.08C480.26,338.34,493.72,256,493.72,256Z"></path><path class="cls-5" d="M524.09,446.87s-10.34,5.7-21.54,0c0,0-12.29-72.77-12.22-90.09,0-7.79-2.34-27-5.1-46.55C481.45,283.46,477,256,477,256l47.88-3s-4,66.13-.72,103.79S524.09,446.87,524.09,446.87Z"></path><path class="cls-14" d="M524.26,264.08s-20.41,4-39,4a188.61,188.61,0,0,1-24-1.84c-7.77-1-13.34-2.12-13.34-2.12s-4.14.37-1.69-20c1.85-15.52,1.27-29.54.86-44,0-1.61,0-3.5.08-5.61.8-16.82,5.88-47.09,9.76-48.72a70.89,70.89,0,0,1,15.94-3.18c0,.2,5.91,8.83,12.93,9.8,4.35-1.72,7.78-3.19,12.54-9.52A136.49,136.49,0,0,1,518,146.64s.73,3.21,3.5,58.85C522.61,227.53,530.13,264.16,524.26,264.08Z"></path><path class="cls-15" d="M490.33,356.78c0-7.79-2.34-27-5.1-46.55,2.86-11.69,9.85-22.94,9.85-22.94C503.91,312.08,490.33,356.78,490.33,356.78Z"></path><path class="cls-16" d="M427.8,209.79c-.92,2.9,1.64,6.81,4.14,12.29,5.14,11.26,13.69,27.9,13.69,27.9a50.08,50.08,0,0,1-2.59,7.59c-14.38-11.3-23.66-20.91-29.57-28.28-8.32-10.37-9-20.84-7.47-25.37,18.48-54.34,52-58.52,52-58.52l-2.66,43.07S429.71,203.83,427.8,209.79Z"></path><path class="cls-11" d="M443.93,250.8s7.75-7.19,10.92-3.16,3.73,10.34,1.29,9.91-7.47-2.73-8.19-1.58-3.94,3.35-4.92,1.6S443.93,250.8,443.93,250.8Z"></path><path class="cls-11" d="M445.63,250a50.08,50.08,0,0,1-2.59,7.59c-14.38-11.3-23.66-20.91-29.57-28.28,4.46-.33,11-1.93,18.47-7.21C437.08,233.34,445.63,250,445.63,250Z"></path><path class="cls-17" d="M568.12,208.29c.14,3.38-.53,10.63-8.85,21-5.92,7.37-15.19,17-29.57,28.28a49.31,49.31,0,0,1-2.6-7.59s8.55-16.64,13.7-27.9c2.5-5.48,4.28-8,3.71-10.1-1.84-6.55-17.29-15.7-23.79-20.62a28,28,0,0,1-3.32-2.89l.61-41.83s8.51,2.1,13.76,7.35C553.11,175.34,567.49,192.48,568.12,208.29Z"></path><path class="cls-11" d="M528.81,250.8s-7.76-7.19-10.92-3.16-3.74,10.34-1.3,9.91,7.47-2.73,8.19-1.58,3.94,3.35,4.92,1.6S528.81,250.8,528.81,250.8Z"></path><path class="cls-11" d="M527.1,250a49.31,49.31,0,0,0,2.6,7.59c14.38-11.3,23.65-20.91,29.57-28.28-4.47-.33-11-1.93-18.47-7.21C535.65,233.34,527.1,250,527.1,250Z"></path><path class="cls-8" d="M473.59,139.28a5.46,5.46,0,0,0-2.93,3.54s9.15,9.41,15.14,9.55Z"></path><path class="cls-8" d="M485.8,152.37l11.8-13.56a5.54,5.54,0,0,1,2.41,4.24S490.87,152.73,485.8,152.37Z"></path><path class="cls-15" d="M483.67,151.38s-9,77.8-5.88,87.28a64.91,64.91,0,0,0,5.5,12.06,3.2,3.2,0,0,0,5.53,0c2.39-4.16,5.52-10.17,5.52-13.22,0-5-6.84-86.18-6.84-86.18Z"></path><path class="cls-15" d="M481.31,147.71a39,39,0,0,1,8.76-.31c.66.1,1,1.15.7,2-.93,2.44-2.82,6.66-4.8,6.66C483.18,156.05,478.84,148,481.31,147.71Z"></path><path class="cls-8" d="M481.38,121.52a6,6,0,0,0,4.74,2.25,5.61,5.61,0,0,0,4.43-2.25A30.2,30.2,0,0,0,481.38,121.52Z"></path><path class="cls-18" d="M120.63,156c-.92-2.78,12.6,5.75,28.72.35,13.9-4.66,1.37-13.73,4.91-25.23,2.52-8.19,1.72-30.2-19.75-31.08,0,0-5.16-3.13-12.62-.65C104.93,105,69.65,160,120.63,156Z"></path><path class="cls-6" d="M144.16,206.45a56.22,56.22,0,0,0,5.74,8.68c4.46,5.58,27.87-7.68,25.86-8.68s-13.42-33.38-18.25-39.11a20.48,20.48,0,0,0-10.68-6.52Z"></path><path class="cls-19" d="M65.16,435s-6.47,5.9-5.21,10.09,7.1,7,7.88,12.11,3.94,7.91,6.78,7.91H88.14s2.08-3.6-3-4.69-6.94-7.1-6.63-12.69a97.84,97.84,0,0,0-.47-13l-10.72-2.48Z"></path><path class="cls-19" d="M119.85,437.54s-2.33,25,.51,26.38l36.3-.08s0-4.19-5.83-5.12-16.07-4.35-17.81-12S119.85,437.54,119.85,437.54Z"></path><path class="cls-6" d="M91.92,189.59a145,145,0,0,0,0,16.79c.36,6.06,6.5,14.19,7.37,16.2,2.18,5,4.65,5.86,4.65,5.86L123,233.11l6.7,1.64,21.14-6.31s9.62-26.87,5.76-42a116.46,116.46,0,0,0-9.77-25.63s-14.37-3.23-39.71-1.44Z"></path><path class="cls-20" d="M90.1,206.59c.36,6.06,8.32,14,9.19,16,2.18,5,4.65,5.86,4.65,5.86L123,233.11l5.08-7.17s-30.86-8.58-25-35.79Z"></path><path class="cls-5" d="M149.49,232.52S160,265.1,160.63,276.19s-20,157.58-20.84,162.69c-.78,4.82-6.77,7.89-6.77,7.89a9,9,0,0,1-6.67.51c-5.45-1.53-7.18-3.38-7.18-3.38s-8.14-104.47-3.1-141.79a591.35,591.35,0,0,0,5.1-69.59Z"></path><path class="cls-5" d="M105.15,231.55s-16,21.42-17.46,35.9-2.33,65.35-5.51,79.47-14.82,41.29-14.82,85.32a8.8,8.8,0,0,0,5,3.87,39.4,39.4,0,0,0,4.36,1.2,6.84,6.84,0,0,0,7.65-3.63c7.88-15.86,33-67,34.26-77.63.91-7.52,8.83-57.25,26.11-86.43,4.15-7-2.55-34.87-2.55-34.87Z"></path><path class="cls-20" d="M151.16,227.49s-4.2,3.32-12.55,3.49c-10,.2-34.67-2.54-34.67-2.54a20.52,20.52,0,0,0-1.06,6.31s30.18,7.61,47.66,1.11C150.54,235.86,152.8,231.62,151.16,227.49Z"></path><path class="cls-8" d="M136.46,234.43c0-2.84,2-5.15,4.55-5.15s4.55,2.31,4.55,5.15-2,5.15-4.55,5.15S136.46,237.27,136.46,234.43Zm1.51,0c0,2,1.36,3.64,3,3.64s3-1.64,3-3.64-1.37-3.65-3-3.65S138,232.42,138,234.43Z"></path><polygon class="cls-18" points="119.21 248.94 164.56 249.37 186.88 196.92 141.53 196.49 119.21 248.94"></polygon><path class="cls-11" d="M125.14,225.24l3.32-4.08s2.25-2,3.88-2.35,5.08-2.33,5.42-1.77-2.65,4.56-2.65,4.56l-.15,0c3.42,2.57,12.07.3,13.14,1.35,1.29,1.27-1.79,4-3.43,5.57s-6.37,4.12-10,3c-2.68-.84-6.91-1.69-6.91-1.69Z"></path><path class="cls-11" d="M183.47,206.14s-2.85-3.23-4.67-1.68.48,9.2,2.2,8.42S184.46,207.09,183.47,206.14Z"></path><path class="cls-6" d="M107.12,159.38S92,160.44,86.2,174.54s-16.45,37.28-14.16,47c.91,3.88,11.93,17.29,57.88,8.77,0,0-.38-4.81-3.48-7.06,0,0-32.37-10.39-32.32-12.46.11-3.91,4.38-7.29,22.46-25.38C121.5,180.49,107.12,159.38,107.12,159.38Z"></path><path class="cls-11" d="M117.11,160.07c-.44-.6.13-2.51.85-6.06a66.37,66.37,0,0,0,1.71-13.79l1,.16,16.09,2.71s-.36,4.3-.38,8.35v.1c0,3.52.95,8.84-.23,9.54C130,164.65,118.83,162.37,117.11,160.07Z"></path><path class="cls-21" d="M136.72,143.09s-.32,6.06-.33,10.12c-9-.22-13.81-9-15.76-12.83Z"></path><path class="cls-11" d="M137.69,150.32s-21.09-3-19-16.11.75-22.32,14.31-21,15.37,6.78,15.74,11.32S143.23,150.76,137.69,150.32Z"></path><path class="cls-18" d="M142.61,114.45s-8.21,14.46-17.41,15.33-12.66-2.12-12.66-2.12a25.3,25.3,0,0,0,10.54-13.48S139.43,106.44,142.61,114.45Z"></path><path class="cls-18" d="M141,115.48s4,2.27,5.28,5.67a21.46,21.46,0,0,1,.93,12.48s6-9.76,2.07-16.44C145.08,110.09,141,115.48,141,115.48Z"></path><path class="cls-3" d="M109.33,68.72l8.07-4.24a.52.52,0,0,1,.75.55l-1.54,9a.52.52,0,0,0,.15.46l6.52,6.36a.51.51,0,0,1-.28.88L114,83a.52.52,0,0,0-.39.28l-4,8.17a.52.52,0,0,1-.93,0l-4-8.17a.52.52,0,0,0-.39-.28l-9-1.31a.51.51,0,0,1-.29-.88l6.53-6.36a.55.55,0,0,0,.15-.46L100,65a.52.52,0,0,1,.75-.55l8.06,4.24A.51.51,0,0,0,109.33,68.72Z"></path><path class="cls-3" d="M74,68.72l8.07-4.24a.52.52,0,0,1,.75.55l-1.54,9a.52.52,0,0,0,.14.46L88,80.83a.51.51,0,0,1-.29.88l-9,1.31a.5.5,0,0,0-.39.28l-4,8.17a.51.51,0,0,1-.92,0l-4-8.17a.5.5,0,0,0-.39-.28l-9-1.31a.51.51,0,0,1-.28-.88l6.52-6.36a.52.52,0,0,0,.15-.46L64.7,65a.52.52,0,0,1,.75-.55l8.07,4.24A.51.51,0,0,0,74,68.72Z"></path><path class="cls-3" d="M144.67,68.72l8.06-4.24a.52.52,0,0,1,.76.55l-1.55,9a.55.55,0,0,0,.15.46l6.53,6.36a.51.51,0,0,1-.29.88l-9,1.31a.53.53,0,0,0-.39.28l-4,8.17a.52.52,0,0,1-.93,0l-4-8.17a.5.5,0,0,0-.39-.28l-9-1.31a.51.51,0,0,1-.28-.88l6.52-6.36a.52.52,0,0,0,.15-.46l-1.54-9a.52.52,0,0,1,.75-.55l8.07,4.24A.51.51,0,0,0,144.67,68.72Z"></path><path class="cls-3" d="M494.51,46.3l6.94-3.65a.45.45,0,0,1,.65.47l-1.33,7.73a.47.47,0,0,0,.13.39l5.62,5.47a.45.45,0,0,1-.25.76l-7.76,1.13a.43.43,0,0,0-.33.24l-3.47,7a.45.45,0,0,1-.8,0l-3.47-7a.45.45,0,0,0-.34-.24l-7.75-1.13a.44.44,0,0,1-.25-.76l5.61-5.47a.41.41,0,0,0,.13-.39l-1.32-7.73a.44.44,0,0,1,.64-.47l6.94,3.65A.43.43,0,0,0,494.51,46.3Z"></path><path class="cls-3" d="M464.12,46.3l6.94-3.65a.44.44,0,0,1,.64.47l-1.32,7.73a.41.41,0,0,0,.13.39l5.61,5.47a.45.45,0,0,1-.25.76l-7.76,1.13a.43.43,0,0,0-.33.24l-3.47,7a.45.45,0,0,1-.8,0l-3.47-7a.43.43,0,0,0-.33-.24L452,57.47a.45.45,0,0,1-.25-.76l5.62-5.47a.43.43,0,0,0,.12-.39l-1.32-7.73a.44.44,0,0,1,.64-.47l6.94,3.65A.45.45,0,0,0,464.12,46.3Z"></path><path class="cls-3" d="M524.91,46.3l6.94-3.65a.45.45,0,0,1,.65.47l-1.33,7.73a.44.44,0,0,0,.13.39l5.61,5.47a.44.44,0,0,1-.24.76l-7.76,1.13a.45.45,0,0,0-.34.24l-3.47,7a.44.44,0,0,1-.79,0l-3.47-7a.45.45,0,0,0-.34-.24l-7.76-1.13a.44.44,0,0,1-.24-.76l5.61-5.47a.47.47,0,0,0,.13-.39l-1.33-7.73a.45.45,0,0,1,.65-.47l6.94,3.65A.43.43,0,0,0,524.91,46.3Z"></path><rect class="cls-22" x="22.14" y="463.97" width="555.73" height="2.35" rx="1.11"></rect></svg>