<svg xmlns="http://www.w3.org/2000/svg" xmlns:xlink="http://www.w3.org/1999/xlink" width="218px" height="179px" viewBox="0 0 218 179"><title>Ad-marketing-illustration </title><desc>Created with Sketch.</desc><defs><path d="M21.8195106,172 C21.8195106,172 -16.1268947,154.781846 8.06401821,118.986202 C32.2545569,83.1905567 5.69248481,55.0980618 10.910008,33.3490219 C16.1275311,11.5996246 37.9465364,2.08462074 67.8290547,17.4902055 C97.7115729,32.8957903 121.022796,6.68842427 144.67003,1.63138915 C176.449999,-5.16529751 233.843128,7.52161263 210.601128,73.2223213 C187.359502,138.92303 225.621712,139.393419 194.632379,171.554989 L21.8195106,172" id="path-1"></path><linearGradient x1="50%" y1="81.7043896%" x2="58.5268836%" y2="14.459342%" id="linearGradient-3"><stop stop-color="#F9FCFF" offset="0%"></stop><stop stop-color="#EEF5FF" offset="100%"></stop></linearGradient></defs><g id="Welcome" stroke="none" stroke-width="1" fill="none" fill-rule="evenodd"><g id="Pricing-page" transform="translate(-994.000000, -565.000000)"><g id="Card_2" transform="translate(974.000000, 545.000000)"><g id="Ad-marketing-illustration-" transform="translate(20.000000, 20.000000)"><g id="108"><g id="Group-271"><mask id="mask-2" fill="white"><use xlink:href="#path-1"></use></mask><g id="Clip-270"></g><path d="M8.06401821,118.986202 C32.2545569,83.1905567 5.69248481,55.0980618 10.910008,33.3490219 C16.1275311,11.5996246 37.9465364,2.08462074 67.8290547,17.4902055 C97.7115729,32.8957903 121.022796,6.68842427 144.67003,1.63138915 C176.449999,-5.16529751 233.843128,7.52161263 210.601128,73.2223213 C187.359502,138.92303 225.621712,139.393419 194.632379,171.554989 L21.8195106,172 C21.8195106,172 -16.1268947,154.781846 8.06401821,118.986202 Z" id="Fill-269" fill="url(#linearGradient-3)" mask="url(#mask-2)"></path></g><path d="M143.438648,178 C176.584332,174.000109 176.584332,170.5 172.872473,163 C170.372543,154.875 118.927946,156 88,156 C57.072054,156 35.0767,159.294156 35.0767,166.75 C35.0767,174.205844 71.7534724,181 143.438648,178 Z" id="Oval" fill="#E6F0FF"></path><g id="noun_advertising_416756" transform="translate(10.021914, 46.750000)"><path d="M24.4295568,4.42985866 L26.6530882,3.55212008 C26.961912,3.44240276 27.3325006,3.50823315 27.4869125,3.7276678 L27.4869125,3.7276678 C27.6413244,3.94710244 27.5486772,4.21042402 27.2398534,4.32014134 L25.0163221,5.19787992 C24.7074983,5.30759724 24.3369097,5.24176685 24.1824978,5.0223322 L24.1824978,5.0223322 C24.0280859,4.82484102 24.1516154,4.53957598 24.4295568,4.42985866 Z M24.5211272,0.247841092 L22.5654465,2.41762618 C22.3071491,2.68467665 22.3440487,3.08525236 22.6392458,3.31892153 C22.9344429,3.585972 23.4510378,3.55259069 23.7093352,3.25215891 L25.6650159,1.08237382 C25.9233134,0.815323346 25.8864137,0.414747637 25.5912166,0.181078474 C25.2960196,-0.0859719987 24.8163243,-0.0525906896 24.5211272,0.247841092 Z M26.9329418,5.25331269 L24.6021442,5.60198761 C24.2651614,5.63685511 24.0685882,6.02039752 24.124752,6.43880743 C24.1809157,6.78748236 24.4617347,7.0315548 24.7425537,6.99668731 L27.0733513,6.64801239 C27.410334,6.61314489 27.6069073,6.22960248 27.5507435,5.81119257 C27.4945797,5.46251764 27.2418427,5.2184452 26.9329418,5.25331269 Z M13.7801321,26.25 L16.4097727,26.25 C17.8163247,26.25 18.9476817,24.7949438 18.9476817,22.9859551 L18.9476817,22.75 L17.4188209,23.7331461 L13.7801321,26.25 Z M24.0392985,10.29484 C24.1810396,10.5981701 24.1243432,10.9621661 23.8692091,11.1441641 C23.5857268,11.3564952 23.2171998,11.2654962 23.0471104,10.9621661 C23.0471104,10.9621661 23.0471104,10.9621661 23.0471104,10.9621661 C20.5524663,10.264507 17.8593845,10.9924991 16.3002319,11.5991592 C16.3002319,11.5991592 16.3002319,11.5991592 16.3002319,11.6294922 L16.5553659,12.1451533 C16.5553659,12.1451533 16.5553659,12.1451533 16.5553659,12.1754863 L15.3647403,12.8731453 C15.3647403,12.8731453 15.3647403,12.8731453 15.3647403,12.9034784 L16.7538035,14.5111276 C16.7538035,14.5111276 16.7538035,14.5111276 16.7538035,14.5111276 C17.3207681,14.0561325 18.3413044,13.3888064 19.0500101,13.5708044 C19.8721088,13.7831355 19.8437605,14.6931256 19.8437605,14.7841246 C19.8437605,14.7841246 19.8437605,14.7841246 19.8437605,14.7841246 C19.9571534,14.8144576 21.0060379,15.1481206 20.6942074,16.4524398 C20.6942074,16.4524398 20.6942074,16.4524398 20.6942074,16.4524398 C20.7792521,16.5131058 21.6580472,17.1197659 21.1477791,18.333086 C21.1477791,18.333086 21.1477791,18.333086 21.1477791,18.333086 C21.2328238,18.424085 22.1683153,19.3947412 20.7225556,20.7293933 C20.268984,21.1237224 19.6453229,21.5180514 19.0216619,21.7910484 L19.0216619,21.7910484 L16.5270177,23.1257006 L16.5270177,23.1257006 L14.0040253,24.5816848 L14.0323735,24.5816848 L13.6638465,24.7940158 L11.1692024,26.25 C11.1692024,26.25 11.1692024,26.25 11.1692024,26.25 L11.0558094,26.25 L9.78013912,26.25 L2.35290303,26.25 C2.06942074,26.25 1.81428668,26.189334 1.55915261,26.098335 C0.652009275,25.7343389 0,24.8243488 0,23.7323607 L0,10.446505 C0,9.02085387 1.07723271,7.89853274 2.38125126,7.89853274 L8.7029064,7.89853274 C8.58951349,8.11086376 8.47612057,8.32319479 8.41942411,8.56585882 C8.27768296,9.11185289 8.27768296,9.68817996 8.44777234,10.234174 C8.36272765,10.385839 8.27768296,10.5375041 8.24933473,10.7195021 C8.13594182,11.1744971 8.16429005,11.6598252 8.39107588,12.0844873 L8.73125463,12.7214803 L1.55915261,12.7214803 L1.55915261,23.1257006 L1.55915261,23.4593637 C1.55915261,24.0963567 2.04107251,24.6120178 2.63638533,24.6120178 L3.94040388,24.6120178 L12.2464351,19.8497362 C12.5582656,19.6677382 12.7850514,19.3644082 12.8984443,19.0004121 C12.9267926,18.8487471 12.9551408,18.7274151 12.9551408,18.6364161 C12.9551408,18.5757501 12.9267926,18.515084 12.9267926,18.454418 L12.9267926,18.454418 C12.8984443,18.211754 12.8984443,17.878091 12.983489,17.5140949 C12.983489,17.5140949 13.5504536,15.6637817 14.7410793,15.1481206 C14.7410793,15.1481206 14.7410793,15.1481206 14.7410793,15.1177876 L13.6071501,13.8741345 C13.6071501,13.8741345 13.6071501,13.8741345 13.6071501,13.8741345 L13.3236678,14.0257995 C12.6716585,14.4201285 11.8495599,14.1471315 11.4810329,13.4494724 L11.254247,12.9944774 C11.254247,12.9944774 11.254247,12.9944774 11.2258988,12.9944774 L10.8857201,13.2068084 C10.6589342,13.3281404 10.3754519,13.2371414 10.262059,13.0248104 L9.4683086,11.4474942 C9.35491568,11.2048301 9.43996037,10.9015001 9.63839797,10.7801681 L9.97857672,10.5678371 C9.97857672,10.5678371 9.97857672,10.5678371 9.97857672,10.5375041 L9.69509443,9.99150999 C9.32656745,9.29385091 9.58170151,8.4141938 10.2337108,8.01986475 L13.4937572,6.13921852 C13.4937572,6.13921852 13.4937572,6.13921852 13.5221054,6.13921852 L13.7772395,6.65487958 C13.7772395,6.65487958 13.7772395,6.65487958 13.8055877,6.65487958 C15.1096062,5.56289145 17.1223305,3.5305802 17.9160809,0.891608871 C17.9160809,0.891608871 17.9160809,0.891608871 17.9160809,0.891608871 C17.7743398,0.588278833 17.9160809,0.193949785 18.2279115,0.0422847659 C18.5113938,-0.0790472491 18.8515725,0.0726177696 18.9933137,0.345614803 L20.6091627,3.5609132 C20.6091627,3.5609132 20.6091627,3.5609132 20.6091627,3.5609132 C21.4029131,3.43958119 22.2250118,3.83391023 22.621887,4.65290133 C23.0187622,5.44155943 22.9053693,6.41221555 22.3951012,7.04920863 C22.3951012,7.04920863 22.3951012,7.04920863 22.3951012,7.04920863 L24.0392985,10.29484 Z" id="Shape" fill="#B1CBEC" fill-rule="nonzero"></path><path d="M18.7910893,22.92081 C18.7910893,22.3775132 18.6253605,21.9038978 18.2946757,21.5005081 C17.9632182,21.0971184 17.359023,20.6482725 16.4805448,20.1545148 C15.7929057,19.7674566 15.318512,19.4381034 15.05775,19.166455 C14.796988,18.8948066 14.6664139,18.6024715 14.6664139,18.2894498 C14.6664139,17.7382594 15.0164144,17.4619837 15.7164155,17.4619837 C16.0606214,17.4619837 16.3209971,17.5300319 16.4994742,17.6658561 C16.677565,17.8016803 16.7668035,18.0178014 16.7668035,18.3142194 L16.7668035,18.7589824 L18.7528442,18.7589824 L18.7528442,18.4005045 C18.7528442,17.700969 18.4951727,17.1636604 17.9794434,16.788851 C17.6765732,16.5689192 17.2860096,16.4151303 16.8135475,16.3242179 L16.8135475,15 L15.0094608,15 L15.0094608,16.2599804 C14.322208,16.3280286 13.774801,16.5038651 13.3680123,16.788851 C12.8333536,17.1636604 12.5660243,17.6928032 12.5660243,18.3757349 C12.5660243,18.8782028 12.7375477,19.3289541 13.0813672,19.7282609 C13.4251868,20.1278399 14.0297683,20.574236 14.8954981,21.068266 C15.5831372,21.4553241 16.0536677,21.7865827 16.308635,22.062314 C16.563216,22.3383175 16.6903133,22.6573274 16.6903133,23.0193438 C16.6903133,23.3241998 16.5979843,23.5444037 16.4137124,23.6802279 C16.2290543,23.8160521 15.9582482,23.8841003 15.6020666,23.8841003 C14.8765687,23.8841003 14.5138198,23.6040139 14.5138198,23.0441134 L14.5138198,22.4512775 L12.5273928,22.4512775 L12.5273928,22.9455796 C12.5273928,23.6453872 12.7885412,24.1824236 13.3104515,24.5569609 C13.721876,24.85229 14.2897577,25.0292154 15.0094608,25.0918197 L15.0094608,26.25 L16.8135475,26.25 L16.8135475,25.0115228 C17.2806012,24.9187051 17.6711648,24.7665493 17.9794434,24.5507004 C18.5202831,24.1720803 18.7910893,23.6287835 18.7910893,22.92081" id="Fill-373" fill="#FFFFFF"></path></g><g id="001-adwords" transform="translate(51.362311, 10.500000)" fill="#B1CBEC" fill-rule="nonzero"><path d="M15.967268,0.2925 C15.8310924,0.10828125 15.60999,0 15.374245,0 L8.05297367,0 C7.738159,0 7.45848643,0.1940625 7.35891714,0.4809375 L0.0376457783,21.5746875 C-0.0370311896,21.7884375 0.00103942147,22.0246875 0.137215069,22.2075 C0.27485497,22.3917187 0.495957366,22.5 0.731702303,22.5 L5.41438747,22.5 C7.30766824,22.5 8.98277513,21.34125 9.58165513,19.6157812 L16.0697658,0.9253125 C16.1429785,0.7115625 16.1063722,0.4753125 15.967268,0.2925 Z" id="Path"></path><path d="M22.5113009,21.5882966 L15.8420406,3.21428571 L11.2746536,15.7980099 L12.6764053,19.6595866 C13.2920293,21.3582924 15.0181908,22.5 16.9691758,22.5 L21.7945817,22.5 C22.0375118,22.5 22.265353,22.3933113 22.4056791,22.211802 C22.5490229,22.0316782 22.586745,21.7989028 22.5113009,21.5882966 Z" id="Path"></path></g><g id="002-cost-per-click" transform="translate(110.241057, 10.500000)" fill="#B1CBEC" fill-rule="nonzero"><path d="M10.3674975,6.03448276 L11.2094247,6.03448276 C10.9904113,3.62155172 8.95406203,1.72413793 6.47968595,1.72413793 C3.85973293,1.72413793 1.72791625,3.8512931 1.72791625,6.46551724 C1.72791625,9.07974138 3.85973293,11.2068966 6.47968595,11.2068966 C7.2978543,11.2068966 8.06850495,10.999569 8.74109635,10.6344828 C8.77695062,10.5336207 8.81842061,10.4357759 8.87112205,10.3448276 C8.72381719,10.0909483 8.63958127,9.79655172 8.63958127,9.48275862 C8.63958127,9.16896552 8.72381719,8.87456897 8.87155403,8.62068966 C8.72381719,8.36681034 8.63958127,8.07241379 8.63958127,7.75862069 C8.63958127,6.80775862 9.41455171,6.03448276 10.3674975,6.03448276 Z M6.47968595,6.03448276 C7.43263177,6.03448276 8.20760221,6.80775862 8.20760221,7.75862069 L8.20760221,9.48275862 L6.91166502,9.48275862 L6.91166502,10.3448276 L6.04770689,10.3448276 L6.04770689,9.42155172 C5.3047029,9.22887931 4.7517697,8.55991379 4.7517697,7.75862069 L5.61572783,7.75862069 C5.61572783,8.23405172 6.00321305,8.62068966 6.47968595,8.62068966 L7.34364408,8.62068966 L7.34364408,7.75862069 C7.34364408,7.28318966 6.95615886,6.89655172 6.47968595,6.89655172 C5.52674014,6.89655172 4.7517697,6.12327586 4.7517697,5.17241379 L4.7517697,3.44827586 L6.04770689,3.44827586 L6.04770689,2.5862069 L6.91166502,2.5862069 L6.91166502,3.50948276 C7.65466901,3.70215517 8.20760221,4.37112069 8.20760221,5.17241379 L7.34364408,5.17241379 C7.34364408,4.69698276 6.95615886,4.31034483 6.47968595,4.31034483 L5.61572783,4.31034483 L5.61572783,5.17241379 C5.61572783,5.64784483 6.00321305,6.03448276 6.47968595,6.03448276 Z" id="Shape"></path><path d="M6.47968595,12.9310345 C7.25595233,12.9310345 7.99766038,12.787069 8.68839491,12.5357759 C8.727705,12.3698276 8.78818207,12.2125 8.87155403,12.0689655 C8.79034197,11.9288793 8.73029688,11.7758621 8.69098678,11.6146552 C8.01191569,11.9060345 7.26459191,12.0689655 6.47968595,12.0689655 C3.38326003,12.0689655 0.863958127,9.55517241 0.863958127,6.46551724 C0.863958127,3.37586207 3.38326003,0.862068966 6.47968595,0.862068966 C9.43053494,0.862068966 11.8513456,3.14612069 12.0733828,6.03448276 L12.5273928,6.03448276 L12.5273928,4.41465517 C12.5273928,4.34008621 12.5330086,4.26637931 12.5381923,4.19310345 C11.6137571,1.74741379 9.25039967,0 6.47968595,0 C2.90678712,0 0,2.90043103 0,6.46551724 C0,10.0306034 2.90678712,12.9310345 6.47968595,12.9310345 Z" id="Path"></path><path d="M0,21.5517241 C0,23.4530172 1.55037286,25 3.45583251,25 L5.18374876,25 L5.18374876,18.1034483 L3.45583251,18.1034483 C1.55037286,18.1034483 0,19.650431 0,21.5517241 Z" id="Path"></path><path d="M6.99114917,21.9827586 L6.04770689,21.9827586 L6.04770689,25 L7.34364408,25 C8.71085782,25 9.86726577,24.0892241 10.2400637,22.8448276 L8.20760221,22.8448276 C7.64516547,22.8448276 7.1699885,22.4831897 6.99114917,21.9827586 Z" id="Path"></path><path d="M6.04770689,18.1034483 L6.04770689,21.1206897 L6.99114917,21.1206897 C7.1699885,20.6202586 7.64516547,20.2586207 8.20760221,20.2586207 L10.2400637,20.2586207 C9.86726577,19.0137931 8.71042584,18.1034483 7.34364408,18.1034483 L6.04770689,18.1034483 Z" id="Path"></path><path d="M7.77562315,21.5517241 C7.77562315,21.7896552 7.96958175,21.9827586 8.20760221,21.9827586 L10.3674975,21.9827586 L10.3674975,21.1206897 L8.20760221,21.1206897 C7.96958175,21.1206897 7.77562315,21.3137931 7.77562315,21.5517241 Z" id="Path"></path><path d="M19.8710369,16.8103448 L24.1908276,16.8103448 C25.1437734,16.8103448 25.9187438,16.037069 25.9187438,15.0862069 L25.9187438,11.637931 C25.9187438,10.687069 25.1437734,9.9137931 24.1908276,9.9137931 L22.0309322,9.9137931 L22.0309322,7.32758621 L18.5750997,7.32758621 L18.5750997,8.18965517 L17.331432,8.18965517 C16.7448044,8.18965517 16.1819357,7.95689655 15.7672358,7.54310345 C15.3525359,7.12931034 15.1192672,6.56767241 15.1192672,5.98232759 L15.1192672,3.19612069 C15.1192672,2.85905172 14.8458245,2.5862069 14.5084488,2.5862069 C14.3464567,2.5862069 14.1909442,2.65043103 14.0764698,2.76465517 C13.637579,3.20258621 13.391351,3.79612069 13.391351,4.41508621 L13.391351,6.03448276 C13.391351,6.51077586 13.0047297,6.89655172 12.5273928,6.89655172 L10.3674975,6.89655172 C9.89016066,6.89655172 9.5035394,7.28232759 9.5035394,7.75862069 C9.5035394,8.23491379 9.89016066,8.62068966 10.3674975,8.62068966 C9.89016066,8.62068966 9.5035394,9.00646552 9.5035394,9.48275862 C9.5035394,9.95905172 9.89016066,10.3448276 10.3674975,10.3448276 C9.89016066,10.3448276 9.5035394,10.7306034 9.5035394,11.2068966 C9.5035394,11.6831897 9.89016066,12.0689655 10.3674975,12.0689655 C9.89016066,12.0689655 9.5035394,12.4547414 9.5035394,12.9310345 C9.5035394,13.4073276 9.89016066,13.7931034 10.3674975,13.7931034 L16.3240568,13.7931034 C16.6653203,13.7931034 16.9988081,13.6922414 17.2826184,13.5034483 L18.1431207,12.9310345 L18.5750997,12.9310345 L18.5750997,13.7931034 L22.0309322,13.7931034 L22.0309322,10.7758621 L24.1908276,10.7758621 C24.6673005,10.7758621 25.0547857,11.1625 25.0547857,11.637931 L25.0547857,15.0862069 C25.0547857,15.5616379 24.6673005,15.9482759 24.1908276,15.9482759 L19.8710369,15.9482759 C18.9180911,15.9482759 18.1431207,16.7215517 18.1431207,17.6724138 C18.1431207,18.6232759 18.9180911,19.3965517 19.8710369,19.3965517 L24.1908276,19.3965517 C24.6673005,19.3965517 25.0547857,19.7831897 25.0547857,20.2586207 C25.0547857,20.7340517 24.6673005,21.1206897 24.1908276,21.1206897 L11.2314557,21.1206897 L11.2314557,21.9827586 L24.1908276,21.9827586 C25.1437734,21.9827586 25.9187438,21.2094828 25.9187438,20.2586207 C25.9187438,19.3077586 25.1437734,18.5344828 24.1908276,18.5344828 L19.8710369,18.5344828 C19.394564,18.5344828 19.0070788,18.1478448 19.0070788,17.6724138 C19.0070788,17.1969828 19.394564,16.8103448 19.8710369,16.8103448 Z" id="Path"></path></g><g id="noun_video-marketing_2346876" transform="translate(179.141718, 28.000000)" fill-rule="nonzero"><path d="M9.05730503,18 L1.50328714,18 L1.50328714,17.25 L9.01972285,17.25 L9.01972285,16.5 L1.50328714,16.5 L1.50328714,15.75 L9.05730503,15.75 C9.13246938,15.4875 9.24521592,15.225 9.39554463,15 L1.50328714,15 L1.50328714,14.25 L10.8988318,14.25 L10.8988318,14.25 C11.2370714,13.8 11.8008041,13.5 12.4021189,13.5 L0,13.5 L0,19.5 L10.8988318,19.5 C9.99685949,19.5 9.24521592,18.8625 9.05730503,18 Z" id="Path" fill="#B1CBEC"></path><rect id="Rectangle" fill="#B1CBEC" x="0" y="0" width="18.0394457" height="2.25"></rect><path d="M18.7910893,2.25 L21.04602,2.25 L21.04602,0 L18.7910893,0 L18.7910893,2.25 Z M20.2943764,0.75 L20.2943764,1.5 L19.5427328,1.5 L19.5427328,0.75 L20.2943764,0.75 Z" id="Shape" fill="#B1CBEC"></path><rect id="Rectangle" fill="#B1CBEC" x="15.784515" y="9" width="3.75821785" height="2.25"></rect><path d="M0,12.75 L13.5295843,12.75 L13.5295843,3 L0,3 L0,12.75 Z M10.109606,7.8 L4.13403964,11.475 L4.13403964,4.125 L10.109606,7.8 Z" id="Shape" fill="#B1CBEC"></path><rect id="Rectangle" fill="#B1CBEC" x="15.784515" y="4.5" width="3.75821785" height="2.25"></rect><path d="M15.0328714,18.375 L15.0328714,15.375 C15.0328714,14.7375 14.5443031,14.25 13.9054061,14.25 L12.4021189,14.25 C11.9135506,14.25 11.5001466,14.55 11.3498179,15 L10.8988318,15 C10.2599347,15 9.77136642,15.4875 9.77136642,16.125 L9.77136642,17.625 C9.77136642,18.2625 10.2599347,18.75 10.8988318,18.75 L11.3498179,18.75 C11.4625645,19.0875 11.7632219,19.35 12.1014615,19.4625 L12.6651942,21.675 C12.7779407,22.1625 13.2289268,22.5 13.7550773,22.5 C14.093317,22.5 14.4315566,22.35 14.6194675,22.0875 C14.8449605,21.825 14.9201249,21.4875 14.8073783,21.15 L14.3563922,19.425 C14.7697962,19.2375 15.0328714,18.825 15.0328714,18.375 Z" id="Path" fill="#F6C564"></path><path d="M15.0328714,13.875 L15.5590219,13.8375 C17.2126378,13.725 19.0165823,13.35 21.04602,12.675 L21.04602,3 L14.2812278,3 L14.2812278,13.5375 C14.5443031,13.575 14.8073783,13.725 15.0328714,13.875 Z M15.0328714,3.75 L20.2943764,3.75 L20.2943764,7.5 L15.0328714,7.5 L15.0328714,3.75 Z M15.0328714,8.25 L20.2943764,8.25 L20.2943764,12 L15.0328714,12 L15.0328714,8.25 Z" id="Shape" fill="#B1CBEC"></path><path d="M22.0607388,13.1625 C19.6554794,13.9875 17.5132952,14.4375 15.5966041,14.5875 C15.7093506,14.8125 15.784515,15.1125 15.784515,15.375 L15.784515,18.375 C15.784515,18.675 15.7093506,18.9375 15.5966041,19.2 C17.2878021,19.3875 19.3924041,19.8375 22.0607388,20.625 L22.5493071,20.775 L22.5493071,12.975 L22.0607388,13.1625 Z" id="Path" fill="#F6C564"></path></g><g id="Group" transform="translate(192.921850, 101.750000)" fill="#B1CBEC" fill-rule="nonzero"><path d="M18.5822994,10.1041667 C18.2691146,9.89583333 17.9037323,9.89583333 17.5905475,10 L11.6400359,12.6041667 L11.6400359,22.03125 L17.5905475,24.6354167 C17.7471399,24.6875 17.8515348,24.7395833 18.0081272,24.7395833 C18.2169171,24.7395833 18.3735095,24.6875 18.5822994,24.5833333 C18.8954842,24.375 19.0520766,24.0625 19.0520766,23.75 L19.0520766,10.9895833 C19.0520766,10.625 18.8432867,10.3125 18.5822994,10.1041667 Z" id="Path"></path><path d="M20.8789881,6.14583333 C19.7306437,2.65625 16.3900056,0.260416667 12.5273928,0.260416667 C8.66478005,0.260416667 5.32414196,2.65625 4.17579762,6.14583333 C1.82691146,6.97916667 0.260987351,9.11458333 0.260987351,11.5625 C0.260987351,13.5416667 1.30493675,15.3125 2.92305833,16.3541667 C3.39283556,13.6979167 5.74172172,11.6666667 8.50818764,11.6666667 L10.1263092,11.6666667 L16.9641778,8.69791667 C17.2773626,8.54166667 17.6427449,8.48958333 18.0081272,8.48958333 C18.5301019,8.48958333 18.9998791,8.64583333 19.4174589,8.90625 C20.1482235,9.375 20.5658033,10.15625 20.5658033,11.0416667 L20.5658033,17.1354167 L20.9311855,16.9791667 C21.2443704,16.875 21.5575552,16.71875 21.87074,16.5625 C23.6976515,15.5208333 24.7937983,13.6458333 24.7937983,11.6145833 C24.7937983,9.11458333 23.2278742,6.97916667 20.8789881,6.14583333 Z" id="Path"></path><path d="M9.60433451,13.1770833 L8.50818764,13.1770833 C6.21149895,13.1770833 4.33239003,15.0520833 4.33239003,17.3958333 C4.33239003,19.6875 6.21149895,21.5625 8.50818764,21.5625 L9.60433451,21.5625 L9.60433451,13.1770833 Z" id="Path"></path></g><path d="M175.007615,56.75 L57.8304366,56.75 C54.949997,56.75 52.61505,59.1018358 52.61505,62.0031099 L52.61505,143.036971 C52.61505,145.08778 54.265706,146.75 56.3017888,146.75 L175.454979,146.75 C177.491062,146.75 179.141718,145.08778 179.141718,143.036971 L179.141718,60.9140047 C179.141718,58.6144068 177.290699,56.75 175.007615,56.75" id="Fill-277" fill="#31B3F0"></path><polyline id="Fill-279" fill="#5E4A86" points="129.032146 163 100.219143 163 104.33507 146.75 124.915841 146.75 129.032146 163"></polyline><path d="M174.130761,130.5 L56.3732678,130.5 L56.3732678,64.2763033 C56.3732678,62.8808922 57.5087652,61.75 58.9098585,61.75 L171.59417,61.75 C172.99489,61.75 174.130761,62.8808922 174.130761,64.2763033 L174.130761,130.5 L174.130761,130.5" id="Fill-280" fill="#FFFFFE"></path><path d="M64.6369642,95.5 L164.614325,95.5 C165.718894,95.5 166.614325,94.6045695 166.614325,93.5 L166.614325,71.25 C166.614325,70.1454305 165.718894,69.25 164.614325,69.25 L64.6369642,69.25 C63.5323947,69.25 62.6369642,70.1454305 62.6369642,71.25 L62.6369642,93.5 C62.6369642,94.6045695 63.5323947,95.5 64.6369642,95.5 Z" id="Fill-281" fill="#D9E5FF"></path><rect id="Rectangle" fill="#FFFFFF" x="68.9006607" y="74.25" width="91.4499678" height="3.75" rx="1"></rect><rect id="Rectangle-Copy-124" fill="#FFFFFF" x="68.9006607" y="80.5" width="91.4499678" height="3.75" rx="1"></rect><rect id="Rectangle-Copy-125" fill="#FFFFFF" x="68.9006607" y="86.75" width="91.4499678" height="3.75" rx="1"></rect><path d="M65.8897035,123 L110.746536,123 C111.851105,123 112.746536,122.104569 112.746536,121 L112.746536,103.75 C112.746536,102.645431 111.851105,101.75 110.746536,101.75 L65.8897035,101.75 C64.785134,101.75 63.8897035,102.645431 63.8897035,103.75 L63.8897035,121 C63.8897035,122.104569 64.785134,123 65.8897035,123 Z" id="Fill-282" fill="#D9E5FF"></path><path d="M121.010232,123 L165.867064,123 C166.971634,123 167.867064,122.104569 167.867064,121 L167.867064,103.75 C167.867064,102.645431 166.971634,101.75 165.867064,101.75 L121.010232,101.75 C119.905663,101.75 119.010232,102.645431 119.010232,103.75 L119.010232,121 C119.010232,122.104569 119.905663,123 121.010232,123 Z" id="Fill-283" fill="#D9E5FF"></path><rect id="Rectangle" fill="#FFFFFF" x="122.76845" y="105.5" width="13.7801321" height="15" rx="1"></rect><rect id="Rectangle" fill="#FFFFFF" x="139.054061" y="105.5" width="20.0438286" height="2.5" rx="1"></rect><rect id="Rectangle-Copy-122" fill="#FFFFFF" x="139.054061" y="110.5" width="20.0438286" height="2.5" rx="1"></rect><rect id="Rectangle-Copy-123" fill="#FFFFFF" x="139.054061" y="115.5" width="15.0328714" height="2.5" rx="1"></rect><ellipse id="Oval" fill="#FB7669" cx="163.482477" cy="104.875" rx="6.89006607" ry="6.875"></ellipse><ellipse id="Oval-Copy-19" fill="#F2B83C" cx="107.109209" cy="96.125" rx="6.89006607" ry="6.875"></ellipse><path d="M165.361586,106.66063 C165.361586,106.238066 165.262148,105.869698 165.063737,105.555951 C164.864863,105.242203 164.502346,104.893101 163.975259,104.509067 C163.562675,104.208022 163.278039,103.951858 163.121582,103.740576 C162.965125,103.529294 162.88678,103.301922 162.88678,103.058461 C162.88678,102.629757 163.096781,102.414876 163.516781,102.414876 C163.723305,102.414876 163.87953,102.467803 163.986617,102.573444 C164.093471,102.679085 164.147014,102.847179 164.147014,103.077726 L164.147014,103.423653 L165.338639,103.423653 L165.338639,103.144837 C165.338639,102.600754 165.184036,102.182847 164.874598,101.891329 C164.692876,101.72027 164.458538,101.600657 164.175061,101.529947 L164.175061,100.5 L163.092608,100.5 L163.092608,101.479985 C162.680257,101.532911 162.351813,101.669673 162.107739,101.891329 C161.786944,102.182847 161.626547,102.594403 161.626547,103.125572 C161.626547,103.51638 161.729461,103.866964 161.935752,104.177536 C162.142044,104.48832 162.504793,104.835517 163.024231,105.219762 C163.436814,105.520808 163.719133,105.778453 163.872113,105.992911 C164.024862,106.20758 164.10112,106.455699 164.10112,106.737267 C164.10112,106.974378 164.045723,107.145647 163.935159,107.251288 C163.824365,107.356929 163.661881,107.409856 163.448172,107.409856 C163.012873,107.409856 162.795224,107.192011 162.795224,106.756533 L162.795224,106.295438 L161.603368,106.295438 L161.603368,106.679895 C161.603368,107.22419 161.760057,107.641885 162.073203,107.933192 C162.320058,108.162892 162.660787,108.300501 163.092608,108.349193 L163.092608,109.25 L164.175061,109.25 L164.175061,108.28674 C164.455293,108.214548 164.689631,108.096205 164.874598,107.928323 C165.199102,107.63384 165.361586,107.211276 165.361586,106.66063" id="Fill-373" fill="#FFFFFF"></path><path d="M108.988318,97.91063 C108.988318,97.4880659 108.888881,97.1196983 108.69047,96.8059507 C108.491595,96.4922032 108.129078,96.1431008 107.601991,95.759067 C107.189408,95.4580218 106.904771,95.2018582 106.748314,94.9905761 C106.591857,94.779294 106.513513,94.5519223 106.513513,94.308461 C106.513513,93.8797573 106.723513,93.6648762 107.143514,93.6648762 C107.350037,93.6648762 107.506262,93.7178026 107.613349,93.8234437 C107.720203,93.9290847 107.773746,94.0971789 107.773746,94.3277262 L107.773746,94.6736529 L108.965371,94.6736529 L108.965371,94.3948368 C108.965371,93.8507537 108.810768,93.432847 108.50133,93.1413285 C108.319608,92.9702705 108.08527,92.8506569 107.801793,92.7799473 L107.801793,91.75 L106.719341,91.75 L106.719341,92.7299848 C106.306989,92.7829111 105.978545,92.9196729 105.734472,93.1413285 C105.413676,93.432847 105.253279,93.8444025 105.253279,94.3755716 C105.253279,94.76638 105.356193,95.1169643 105.562485,95.4275362 C105.768776,95.7383199 106.131525,96.0855169 106.650963,96.4697624 C107.063547,96.7708076 107.345865,97.0284532 107.498845,97.2429109 C107.651594,97.4575803 107.727852,97.7056991 107.727852,97.9872674 C107.727852,98.2243776 107.672455,98.3956473 107.561892,98.5012884 C107.451097,98.6069294 107.288613,98.6598558 107.074904,98.6598558 C106.639605,98.6598558 106.421956,98.4420108 106.421956,98.0065326 L106.421956,97.545438 L105.2301,97.545438 L105.2301,97.9298952 C105.2301,98.4741901 105.386789,98.891885 105.699935,99.1831918 C105.94679,99.4128923 106.287519,99.5505008 106.719341,99.5991931 L106.719341,100.5 L107.801793,100.5 L107.801793,99.53674 C108.082025,99.4645484 108.316363,99.346205 108.50133,99.1783226 C108.825834,98.8838402 108.988318,98.461276 108.988318,97.91063" id="Fill-373-Copy" fill="#FFFFFF"></path><path d="M110.241057,170.500457 C112.194721,170.493994 113.773303,168.909471 113.767351,166.960069 L112.628012,127.768551 C112.621616,125.818773 111.033629,124.244011 109.079965,124.249916 L52.3830756,124.421946 C50.4294115,124.427577 48.8508299,126.012475 48.8564779,127.961877 L48.975732,166.981449 C48.9817513,168.930851 50.5697383,170.505989 52.5234024,170.499983 L110.241057,170.500457 Z" id="Fill-303" fill="#FB7669"></path><path d="M73.0239588,119.25 L70.1533999,119.25 L75.3798467,105.5 L78.6998364,105.5 L83.9335321,119.25 L81.0629732,119.25 L77.0978326,108.319824 L76.9818505,108.319824 L73.0239588,119.25 Z M73.9116178,113 L81.4280535,113 L81.4280535,115.5 L73.9116178,115.5 L73.9116178,113 Z M88.3056008,119.25 C87.4721638,119.25 86.7262259,119.04458 86.0677647,118.633735 C85.4093034,118.22289 84.8889887,117.62651 84.5068049,116.844578 C84.1246211,116.062647 83.9335321,115.112857 83.9335321,113.995181 C83.9335321,112.864251 84.1280745,111.90894 84.5171653,111.129217 C84.906256,110.349494 85.4323264,109.759741 86.0953923,109.35994 C86.7584582,108.960139 87.4974892,108.760241 88.3125077,108.760241 C88.934132,108.760241 89.4452376,108.860742 89.8458399,109.061747 C90.2464422,109.262752 90.5641565,109.503513 90.7989923,109.784036 C91.0338281,110.06456 91.215708,110.328513 91.3446375,110.575904 L91.448241,110.575904 L91.448241,105.5 L93.9554463,105.5 L93.9554463,119.071084 L91.4965894,119.071084 L91.4965894,117.46747 L91.3446375,117.46747 C91.215708,117.714861 91.0292236,117.976605 90.7851785,118.252711 C90.5411334,118.528817 90.2188146,118.764055 89.8182123,118.958434 C89.41761,119.152812 88.9134112,119.25 88.3056008,119.25 Z M88.9582935,116.75 C89.4874606,116.75 89.9383962,116.618345 90.3111139,116.35503 C90.6838316,116.091716 90.9668167,115.724134 91.1600777,115.252275 C91.3533387,114.780416 91.4499678,114.230623 91.4499678,113.602882 C91.4499678,112.97514 91.3544891,112.429561 91.1635288,111.966127 C90.9725685,111.502694 90.6918841,111.142485 90.3214671,110.88549 C89.9510501,110.628496 89.4966635,110.5 88.9582935,110.5 C88.4015177,110.5 87.9367779,110.632708 87.5640602,110.898129 C87.1913426,111.16355 86.9106581,111.530079 86.7219986,111.997725 C86.533339,112.465371 86.4390106,113.000418 86.4390106,113.602882 C86.4390106,114.209558 86.5344894,114.749871 86.7254496,115.223837 C86.9164099,115.697803 87.199395,116.070651 87.5744135,116.342391 C87.9494319,116.614132 88.4107206,116.75 88.9582935,116.75 Z M105.010037,111.936003 L102.809407,112.162989 C102.747167,111.952815 102.63936,111.755255 102.485982,111.570303 C102.332604,111.38535 102.126991,111.236129 101.869139,111.122636 C101.611286,111.009142 101.295643,110.952396 100.922201,110.952396 C100.419833,110.952396 99.9986052,111.055379 99.6585062,111.261349 C99.3184072,111.467319 99.1505831,111.734235 99.1550289,112.062106 C99.1505831,112.343738 99.2606135,112.572824 99.4851233,112.749369 C99.7096331,112.925915 100.081958,113.070933 100.602109,113.184426 L102.349276,113.537516 C103.318447,113.735079 104.039757,114.048232 104.513228,114.476986 C104.986699,114.90574 105.225654,115.466894 105.2301,116.160467 C105.225654,116.769969 105.037825,117.306954 104.666605,117.771438 C104.295386,118.235921 103.7808,118.598464 103.12283,118.859079 C102.464861,119.119694 101.709097,119.25 100.855515,119.25 C99.6018171,119.25 98.5926496,119.000948 97.8279826,118.502837 C97.0633156,118.004726 96.6076343,117.310114 96.4609249,116.418979 L98.8149316,116.204603 C98.9216293,116.641763 99.1483586,116.971731 99.4951261,117.194515 C99.8418937,117.417298 100.293129,117.528689 100.848847,117.528689 C101.422347,117.528689 101.883585,117.417298 102.232576,117.194515 C102.581566,116.971731 102.756059,116.696408 102.756059,116.368537 C102.756059,116.091108 102.643806,115.862023 102.419296,115.681274 C102.194786,115.500525 101.846912,115.361812 101.375664,115.265132 L99.6284976,114.918348 C98.6459895,114.724989 97.9191221,114.398174 97.4478739,113.937894 C96.9766256,113.477614 96.7432279,112.894392 96.7476736,112.188209 C96.7432279,111.591317 96.9154976,111.073247 97.2644881,110.633985 C97.6134786,110.194722 98.1002796,109.854247 98.7249058,109.612547 C99.3495321,109.370848 100.070842,109.25 100.888858,109.25 C102.089207,109.25 103.035024,109.491696 103.726336,109.975095 C104.417649,110.458493 104.845545,111.112123 105.010037,111.936003 Z" id="Ads" fill="#8B9DC8" fill-rule="nonzero"></path><polyline id="Fill-304" fill="#FEEEEE" points="112.719409 130.5 48.8568321 130.688585 48.8835815 139.25 112.746536 139.061415 112.719409 130.5"></polyline><path d="M96.2361233,146.75 L105.460864,146.716239 C106.02656,146.714129 106.484588,146.160123 106.482839,145.479113 C106.481081,144.798525 106.020598,144.248316 105.454551,144.25 L96.2298105,144.283759 C95.6641144,144.285869 95.2064371,144.840297 95.2081856,145.520885 C95.2095935,146.201051 95.6704272,146.752104 96.2361233,146.75" id="Fill-305" fill="#FEEEEE"></path><path d="M81.2036026,146.75 L90.4283429,146.716655 C90.994039,146.714123 91.4517163,146.160446 91.4499678,145.479744 C91.4482092,144.798619 90.9877262,144.247896 90.4220301,144.25 L81.1972898,144.283767 C80.6315937,144.285877 80.1735657,144.839976 80.1753142,145.520678 C80.1770728,146.201803 80.6379065,146.752104 81.2036026,146.75" id="Fill-306" fill="#FEEEEE"></path><path d="M96.2364724,150.5 L105.460863,150.466239 C106.02691,150.464129 106.484588,149.910123 106.482839,149.229536 C106.481081,148.548949 106.020598,147.997896 105.454901,148 L96.2301596,148.033761 C95.6644634,148.035871 95.206786,148.589877 95.2081856,149.270886 C95.2099424,149.951473 95.6704255,150.502104 96.2364724,150.5" id="Fill-307" fill="#FEEEEE"></path><path d="M81.2032519,150.5 L90.4283429,150.466658 C90.994039,150.464548 91.4517163,149.910543 91.4499678,149.229535 C91.4482092,148.548948 90.9877262,147.997896 90.4220301,148 L81.1972898,148.033761 C80.6315937,148.035871 80.1735657,148.590298 80.1753142,149.270885 C80.1770728,149.951471 80.6375558,150.502523 81.2032519,150.5" id="Fill-308" fill="#FEEEEE"></path><path d="M129.801682,170.5 C129.801682,170.5 128.504068,162.166472 127.779407,160.5 C127.779407,160.5 129.960337,165.777875 130.284886,170.5 L129.801682,170.5" id="Fill-312" fill="#E38777"></path><path d="M118.153785,171.75 C118.153785,171.75 113.36923,164.013025 116.087542,153 C116.087542,153 123.916975,154.807083 126.526668,171.75 L118.153785,171.75" id="Fill-317" fill="#EAA393"></path><path d="M121.801833,171.75 C121.801833,171.75 119.207418,161.333271 117.757493,159.25 C117.757493,159.25 122.118948,165.847023 122.76845,171.75 L121.801833,171.75" id="Fill-318" fill="#E38777"></path><g id="Group-50" transform="translate(12.527393, 99.250000)"><path d="M25.0547857,12.5001964 C25.0547857,19.4033837 19.4462983,25 12.5271961,25 C5.60848735,25 0,19.4033837 0,12.5001964 C0,5.59661635 5.60848735,0 12.5271961,0 C19.4462983,0 25.0547857,5.59661635 25.0547857,12.5001964" id="Fill-371" fill="#B1CBEC"></path><path d="M22.5493071,12.5 C22.5493071,18.0226729 18.0625432,22.5 12.5273928,22.5 C6.99261746,22.5 2.50547857,18.0226729 2.50547857,12.5 C2.50547857,6.97695301 6.99261746,2.5 12.5273928,2.5 C18.0625432,2.5 22.5493071,6.97695301 22.5493071,12.5" id="Fill-372" fill="#FFFFFF"></path><path d="M16.2856107,15.5610801 C16.2856107,14.8366843 16.0867362,14.2051971 15.6899144,13.6673441 C15.2921654,13.1294912 14.5671312,12.53103 13.5129573,11.8726864 C12.6877904,11.3566088 12.118518,10.9174711 11.8056036,10.5552733 C11.4926892,10.1930754 11.3360002,9.80329535 11.3360002,9.38593308 C11.3360002,8.65101256 11.7560009,8.28264499 12.5960022,8.28264499 C13.0090492,8.28264499 13.3215001,8.37337592 13.5356726,8.55447485 C13.7493815,8.73557378 13.8564678,9.02373521 13.8564678,9.41895913 L13.8564678,10.0119765 L16.2397166,10.0119765 L16.2397166,9.53400595 C16.2397166,8.60129201 15.9305108,7.8848806 15.3116357,7.38513464 C14.9481914,7.09189228 14.4795151,6.88684039 13.9125606,6.76562387 L13.9125606,5 L11.7476565,5 L11.7476565,6.67997387 C10.9229532,6.7707048 10.2660648,7.00515352 9.77791831,7.38513464 C9.13632789,7.8848806 8.81553268,8.5904043 8.81553268,9.50097989 C8.81553268,10.1709371 9.02136082,10.7719387 9.43394425,11.3043478 C9.84652769,11.8371198 10.5720255,12.4323147 11.6109013,13.0910213 C12.4360682,13.6070988 13.0007049,14.0487769 13.3066656,14.4164187 C13.6121628,14.7844233 13.7646796,15.2097699 13.7646796,15.6924584 C13.7646796,16.098933 13.6538847,16.3925383 13.4327585,16.5736372 C13.2111688,16.7547362 12.8862014,16.8454671 12.4587835,16.8454671 C11.5881861,16.8454671 11.1528874,16.4720186 11.1528874,15.7254845 L11.1528874,14.9350367 L8.76917499,14.9350367 L8.76917499,15.5941061 C8.76917499,16.527183 9.08255297,17.2432315 9.70884535,17.7426145 C10.2025547,18.1363867 10.8840128,18.3722871 11.7476565,18.4557596 L11.7476565,20 L13.9125606,20 L13.9125606,18.3486971 C14.4730251,18.2249401 14.9417013,18.0220658 15.3116357,17.7342673 C15.9606433,17.2294404 16.2856107,16.5050446 16.2856107,15.5610801" id="Fill-373" fill="#F2B83C"></path></g><path d="M135.295843,164.558938 C135.295843,172.182438 127.751844,171.745375 118.384047,171.745375 C109.016249,171.745375 101.471882,172.119791 101.471882,164.558938 C101.471882,156.935439 109.016249,144.25 118.384047,144.25 C127.751844,144.312647 135.295843,156.997719 135.295843,164.558938" id="Fill-374" fill="#F2B83C"></path><path d="M110.241057,135.34975 C110.241057,131.558801 114.190404,131.751644 119.010232,131.751644 C123.83006,131.751644 127.779407,131.558801 127.779407,135.34975 C127.779407,139.139945 123.83006,145.5 119.010232,145.5 C114.190404,145.5 110.241057,139.139945 110.241057,135.34975" id="Fill-375" fill="#F2B83C"></path><path d="M126.461427,144.402474 C126.461427,145.01237 125.941026,145.5 125.290143,145.5 L112.665461,145.5 C112.014579,145.5 111.493796,145.01237 111.493796,144.402474 L111.493796,144.097526 C111.493796,143.48763 112.014579,143 112.665461,143 L125.355003,143 C126.005885,143 126.526668,143.48763 126.526668,144.097526 L126.526668,144.402474 L126.461427,144.402474" id="Fill-376" fill="#FFFFFF"></path><path d="M119.010232,151.75 C123.161385,151.75 126.526668,155.108209 126.526668,159.249817 C126.526668,163.392157 123.161385,166.75 119.010232,166.75 C114.85908,166.75 111.493796,163.392157 111.493796,159.249817 C111.493796,155.108209 114.85908,151.75 119.010232,151.75" id="Fill-377" fill="#FFFFFF"></path><path d="M118.509195,164.25 L118.509195,162.934235 C117.506827,162.881777 116.955701,162.67102 116.504753,162.407805 L116.805581,160.986816 C117.306765,161.250031 117.958069,161.513246 118.709551,161.513246 C119.361149,161.513246 119.812097,161.250031 119.812097,160.776368 C119.812097,160.302705 119.461327,160.03949 118.559137,159.723509 C117.306765,159.302612 116.504753,158.670958 116.504753,157.513184 C116.504753,156.460325 116.955701,155.618531 118.459253,155.355008 L118.459253,154.25 L119.461327,154.25 L119.461327,155.30255 C120.463695,155.355008 120.814171,155.512999 121.165234,155.723447 L120.864407,157.091979 C120.563873,156.933988 120.062689,156.671082 119.210735,156.671082 C118.459253,156.671082 118.208661,156.986754 118.208661,157.355193 C118.208661,157.776399 118.609373,157.986847 119.611447,158.408052 C120.964585,158.934482 121.515711,159.565518 121.515711,160.671144 C121.515711,161.77646 120.964585,162.67102 119.461327,162.934235 L119.461327,164.25 L118.509195,164.25" id="Fill-378" fill="#5E4A86"></path></g><g id="Group-49" transform="translate(135.000000, 73.000000)"><path d="M10.9108125,80.0403172 C11.6150625,88.6532386 12.31875,96.5622274 12.31875,96.5622274 L15.838875,96.5622274 L16.5246894,78.8852096 L20.2381875,67.0335757 L29.0927901,95.3512464 L32.1166449,94.2141196 L27.102375,55.7841375 L12.31875,54.3779577 C12.31875,54.3779577 10.207125,71.4279577 10.9108125,80.0403172 Z" id="Fill-319" fill="#2B478B"></path><path d="M2.728125,21.949306 L5.367375,18.7858229 C5.367375,18.7858229 15.2229375,24.0588566 16.8069375,25.2886318 C18.390375,26.5195307 28.069875,27.9257105 30.1815,32.8470588 C32.2936875,37.7684071 35.2850625,44.6234633 35.2850625,44.6234633 L31.2373125,47.0841375 L26.75025,40.1414408 L27.102375,55.7841375 C27.102375,55.7841375 19.3584375,60.7060476 12.31875,54.3779577 L11.966625,32.7588566 L2.728125,21.949306" id="Fill-320" fill="#FB7669"></path><path d="M2.6398125,21.8616656 L-4.54747351e-13,18.6976206 L3.695625,5.16391275 C3.695625,5.16391275 3.5195625,2.1757105 4.7514375,1.12121612 C5.983875,0.0667217376 6.6875625,-0.284963656 7.5673125,0.242002636 C8.447625,0.769530726 5.63175,1.99986781 6.5115,3.58189028 C6.5115,3.58189028 7.5673125,3.05436219 7.743375,2.52739589 C7.9194375,1.99986781 8.97525,2.3515532 8.447625,3.23020488 C7.9194375,4.10885657 6.159375,5.86672174 6.159375,5.86672174 L3.8716875,16.7639127 L5.279625,18.6976206 L2.6398125,21.8616656" id="Fill-321" fill="#FFC098"></path><path d="M31.1495625,46.996497 L39.2450625,58.2453734 C39.2450625,58.2453734 39.77325,59.4757105 41.1811875,59.6515532 C42.589125,59.8273959 43.11675,60.8818903 43.4683125,61.760542 C43.8204375,62.6397554 44.87625,63.1667217 44.5246875,60.5307667 C44.1725625,57.893688 42.237,57.0150363 41.1811875,56.8391936 L35.1973125,44.5352611 L31.1495625,46.996497" id="Fill-322" fill="#FFC098"></path><path d="M15.679125,37.1807667 C14.8095,37.754924 13.68675,37.7813285 12.74625,37.3324521 C10.953,36.4740251 8.623125,35.1111038 8.623125,33.8139127 C8.623125,31.7043622 8.447625,29.5953734 11.6150625,28.013351 C14.7825,26.4313285 17.598375,23.2678453 18.4786875,19.7526768 C19.3584375,16.2369465 20.0626875,13.6004296 22.3498125,13.249306 C24.6380625,12.8976206 28.861875,13.6004296 29.0379375,17.2914408 C29.214,20.9824521 28.1581875,30.2981824 26.398125,33.4622274 C24.6380625,36.6262723 23.75775,41.0200925 20.766375,40.1414408 C17.775,39.2622274 19.0063125,37.8560476 18.302625,37.3290813 C17.775,36.9335757 16.65225,36.5380701 15.679125,37.1807667" id="Fill-323" fill="#121519"></path><path d="M12.31875,96.5622274 L10.5969375,98.4054858 C10.315125,98.7071712 10.5294375,99.199306 10.9423125,99.199306 L15.366375,99.199306 C15.627375,99.199306 15.838875,98.9880701 15.838875,98.7273959 L15.838875,96.5622274 L12.31875,96.5622274" id="Fill-324" fill="#121519"></path><path d="M28.686813,98.804892 C28.6865385,99.2511898 29.248627,99.4481369 29.5282597,99.0994705 L32.5130766,95.369307 C32.7116888,95.1218663 32.614653,94.7537585 32.3201273,94.6364633 L30.273625,93.8187603 L28.6881489,96.6335464 L28.686813,98.804892 Z" id="Fill-325" fill="#121519" transform="translate(30.652015, 96.548268) rotate(40.000000) translate(-30.652015, -96.548268) "></path></g></g></g></g></g></svg>