<svg xmlns="http://www.w3.org/2000/svg" xmlns:xlink="http://www.w3.org/1999/xlink" width="250px" height="150px" viewBox="0 0 250 150"><title>30_minutes_free_illustration_mobile</title><desc>Created with Sketch.</desc><defs><path d="M74.6235808,0 L5.69514875,95.2581811 L0,95.2702703 L68.9362194,0 L74.6235808,0 L74.6235808,0 Z M127,0.000134324236 L58.4258924,95.1601244 L22.1602028,95.2272865 L91.1236778,0.000134324236 L127,0.000134324236 Z" id="path-1"></path><path d="M2.87930188,7.13136489 C1.29553253,7.13136489 0,5.52752379 0,3.56568244 C0,1.6052731 1.29553253,0 2.87930188,0 L25.7052052,0 C27.2874413,0 28.584507,1.6052731 28.584507,3.56568244 C28.584507,5.52752379 27.2874413,7.13136489 25.7052052,7.13136489" id="path-3"></path><linearGradient x1="49.9999464%" y1="75.6427711%" x2="49.9999464%" y2="-23.0604418%" id="linearGradient-5"><stop stop-color="#FAD07F" offset="0%"></stop><stop stop-color="#E26229" offset="100%"></stop></linearGradient><path d="M2.96576886,7.92373876 C1.33406719,7.92373876 0,6.14046007 0,3.96107398 C0,1.78327869 1.33406719,0 2.96576886,0 L26.4849354,0 C28.1151262,0 29.4507042,1.78327869 29.4507042,3.96107398 C29.4507042,6.14046007 28.1151262,7.92373876 26.4849354,7.92373876" id="path-6"></path><linearGradient x1="49.9974863%" y1="14.193937%" x2="49.9974863%" y2="104.744027%" id="linearGradient-8"><stop stop-color="#C0242B" offset="0%"></stop><stop stop-color="#501A1C" offset="100%"></stop></linearGradient><path d="M4.33098592,0 C3.35313184,0.489497375 3.90114113,2.3613716 2.94212487,3.45820831 L1.70567891,2.52302659 L0,3.52166167 C0.657611147,2.31302618 0.337368219,0.465324665 1.4453745,0" id="path-9"></path><linearGradient x1="50.0197707%" y1="66.4525955%" x2="50.0197707%" y2="-12.2059202%" id="linearGradient-11"><stop stop-color="#25367D" offset="0%"></stop><stop stop-color="#4E8EBF" offset="100%"></stop></linearGradient><linearGradient x1="49.9999682%" y1="113.739086%" x2="49.9999682%" y2="7.28691193%" id="linearGradient-12"><stop stop-color="#95BAEC" offset="0%"></stop><stop stop-color="#518CDC" offset="100%"></stop></linearGradient><path d="M3,91.2162162 L64,91.2162162 C65.6568542,91.2162162 67,89.8730705 67,88.2162162 L67,3 C67,1.34314575 65.6568542,1.39730022e-16 64,0 L3,0 C1.34314575,7.48448398e-16 -2.02906125e-16,1.34314575 0,3 L0,88.2162162 C2.02906125e-16,89.8730705 1.34314575,91.2162162 3,91.2162162 Z" id="path-13"></path><path d="M2.84754175,3.2445472 C1.95913776,2.29064879 1.05296569,1.31164779 0.129025547,0.307544202 C1.05296569,1.11082707 1.95913776,2.08982807 2.84754175,3.2445472" id="path-15"></path><path d="M1.5149827,3.97950921 C1.26127396,2.56224406 1.04380932,1.35116034 0.931625186,0.715898639 C0.89365517,0.496714776 0.750404658,0.374120412 0.524310475,0.329540644 L0.869492433,0.119644232 C0.890203351,0.288675855 1.15599346,1.88797506 1.5149827,3.97950921" id="path-17"></path></defs><g id="Welcome" stroke="none" stroke-width="1" fill="none" fill-rule="evenodd"><g id="30_minutes_free_illustration_mobile"><path d="M41.5197842,9.04272536 C43.6559694,9.04272536 45.3884892,7.2457866 45.3884892,5.02855081 C45.3884892,2.81059606 43.6559694,1.01351351 41.5197842,1.01351351 C39.383599,1.01351351 37.6510791,2.81059606 37.6510791,5.02855081 C37.6510791,7.2457866 39.383599,9.04272536 41.5197842,9.04272536 Z M219.619359,107.23944 L229.679635,107.23944 C240.85591,107.23944 250,116.860419 250,128.61972 C250,140.37902 240.85591,150 229.679635,150 L41.1615854,150 C23.0643381,150 11,134.421014 11,115.378241 C11,96.3383966 24.4245549,82.5345096 41.1615854,80.7577993 C48.8122496,80.7577993 55.7332219,74.1703062 55.7332219,66.1190884 C55.7332219,58.0680172 49.4738566,51.4809634 41.8217123,51.4809634 L33.9534727,51.4809634 C25.9979068,51.4809634 19.4898839,44.6320386 19.4898839,36.2613909 C19.4898839,27.8908896 25.9979068,21.0421113 33.9534727,21.0421113 L54.0755039,21.0421113 C57.1733643,21.0421113 59.7073045,18.3760937 59.7073045,15.1172047 C59.7073045,11.8580228 57.1733643,9.19185882 54.0755039,9.19185882 L52.642762,9.19185882 C50.5040099,9.19185882 48.7560056,7.35173113 48.7560056,5.10312555 L48.7560056,5.10253971 C48.7560056,2.85378767 50.50549,1.01351351 52.642762,1.01351351 L66.631237,1.01351351 C66.631237,1.01351351 70.7266883,1.01351351 75.8848552,1.01351351 C81.0430221,1.01351351 81.617303,7.42452191 94.6451897,7.42452191 C114.786462,7.42452191 102.507509,7.42452191 122.648782,7.42452191 C125.4373,7.42452191 127.719622,9.82632501 127.719622,12.7602185 L127.719622,12.7606579 C127.719622,15.6954302 125.4373,18.0965009 122.648782,18.0965009 L117.777755,18.0965009 C113.737068,18.0965009 110.430512,21.5759592 110.430512,25.8281422 C110.430512,30.0806181 113.737068,33.5593441 117.777755,33.5593441 L125.107236,33.5593441 C144.899204,33.5593441 147.695123,39.0022497 151.16153,49.826401 C154.627936,60.6508452 189.771556,61.523163 189.771556,61.523163 L208.280272,61.523163 C214.370906,61.523163 219.35442,66.7660038 219.35442,73.1742294 C219.329258,77.3391221 218.08449,82.1901814 209.914309,85.8342611 C206.200725,87.4907275 203.88584,92.4440161 203.88584,96.9593884 C203.88584,103.122439 213.762582,107.23944 219.619359,107.23944 L219.619359,107.23944 Z" id="Fill-154" fill="#F0F7FE"></path><g id="Group-156-Copy" transform="translate(119.500000, 75.000000) scale(-1, 1) translate(-119.500000, -75.000000) " fill="#F0F7FE"><path d="M218.679635,106.948551 C229.85591,106.948551 239,116.63498 239,128.474276 C239,140.313572 229.85591,150 218.679635,150 L30.1615854,150 C12.0643381,150 0,134.315034 0,115.142718 C0,95.9733516 13.4245549,82.0755607 30.1615854,80.2867639 C37.8122496,80.2867639 44.7332219,73.6544579 44.7332219,65.54847 C44.7332219,57.4426295 38.4738566,50.8107659 30.8217123,50.8107659 L22.9534727,50.8107659 C14.9979068,50.8107659 8.48988388,43.9152498 8.48988388,35.4876589 C8.48988388,27.0602154 14.9979068,20.1648467 22.9534727,20.1648467 C32.8218279,18.1877477 37.7560056,12.8386097 37.7560056,4.11743252 C37.7560056,1.85279303 39.50549,0 41.642762,0 L55.631237,0 C55.631237,0 59.7266883,0 64.8848552,0 C70.0430221,0 70.617303,6.4546207 83.6451897,6.4546207 C103.786462,6.4546207 91.5075089,6.4546207 111.648782,6.4546207 C114.4373,6.4546207 116.719622,8.87276259 116.719622,11.8266146 C116.719622,14.7817936 114.4373,17.1991982 111.648782,17.1991982 L106.777755,17.1991982 C102.737068,17.1991982 99.4305125,20.7023263 99.4305125,24.9834357 C99.4305125,29.26484 102.737068,32.7672308 106.777755,32.7672308 L114.107236,32.7672308 C133.899204,32.7672308 136.695123,38.2471629 140.16153,49.1449479 C143.627936,60.0430279 178.771556,60.9212798 178.771556,60.9212798 L197.280272,60.9212798 C203.370906,60.9212798 208.35442,66.1997861 208.35442,72.6516051 C208.329258,76.8448304 207.08449,81.7288901 198.914309,85.3977594 C195.200725,87.0654944 192.88584,92.0524788 192.88584,96.5985679 C192.88584,102.803544 202.762582,106.948551 208.619359,106.948551 L218.679635,106.948551 Z" id="Path"></path></g><polygon id="Rectangle" fill="#A6C3EA" points="5 146.959459 220 146.959459 220 148.986486 5 148.986486"></polygon><g id="Group-165" transform="translate(68.000000, 32.432432)" fill="#518CDC"><path d="M6.07488514,0 L146.925115,0 C150.266368,0 153,3.17156 153,7.04738964 L153,97.343674 C153,101.21978 150.266368,104.391892 146.925115,104.391892 L6.07488514,104.391892 C2.73363212,104.391892 0,101.21978 0,97.343674 L0,7.04738964 C0,3.17142196 2.73363212,0 6.07488514,0" id="Fill-163"></path></g><path d="M212.747559,36.4864865 C213.436928,36.4864865 214,37.0619323 214,37.765658 L214,130.476645 C214,131.180505 213.436928,131.756757 212.747559,131.756757 L77.2524405,131.756757 C76.5643876,131.756757 76,131.180505 76,130.476645 L76,37.765658 C76,37.0619323 76.5643876,36.4864865 77.2524405,36.4864865 L212.747559,36.4864865 Z" id="Fill-166" fill="#3C76C5"></path><g id="Group-171" transform="translate(81.000000, 36.486486)"><mask id="mask-2" fill="white"><use xlink:href="#path-1"></use></mask><g id="Clip-170"></g></g><path d="M81.8203861,38.5135135 L142.180962,38.5135135 C143.731366,38.5135135 145,39.7791389 145,41.3261339 L145,126.917378 C145,128.464104 143.731366,129.72973 142.180962,129.72973 L81.8203861,129.72973 C80.2686345,129.72973 79,128.464104 79,126.917378 L79,41.3261339 C79,39.7791389 80.2686345,38.5135135 81.8203861,38.5135135" id="Fill-172" fill="#FFFFFF"></path><path d="M91,103.378378 C94.3126801,103.378378 97,106.100553 97,109.459459 C97,112.816906 94.3126801,115.540541 91,115.540541 C87.685879,115.540541 85,112.816906 85,109.459459 C85,106.100553 87.685879,103.378378 91,103.378378" id="Fill-173" fill="#00A2ED"></path><path d="M102.935701,104.391892 L114.062913,104.391892 C114.578588,104.391892 115,105.07607 115,105.913287 C115,106.748255 114.578588,107.432432 114.062913,107.432432 L102.935701,107.432432 C102.421412,107.432432 102,106.748255 102,105.913287 C102,105.07607 102.421412,104.391892 102.935701,104.391892" id="Fill-174" fill="#00A2ED"></path><path d="M102.871731,109.459459 L129.128269,109.459459 C129.607398,109.459459 130,109.915916 130,110.472973 C130,111.03003 129.607398,111.486486 129.128269,111.486486 L102.871731,111.486486 C102.392602,111.486486 102,111.03003 102,110.472973 C102,109.915916 102.392602,109.459459 102.871731,109.459459" id="Fill-175" fill="#00A2ED"></path><path d="M102.902071,112.5 L119.097929,112.5 C119.593734,112.5 120,113.184178 120,114.019145 C120,114.856363 119.593734,115.540541 119.097929,115.540541 L102.902071,115.540541 C102.406266,115.540541 102,114.856363 102,114.019145 C102,113.184178 102.406266,112.5 102.902071,112.5" id="Fill-176" fill="#00A2ED"></path><polygon id="Fill-210" fill="#0F112B" points="135 145.945946 159 145.945946 159 135.810811 135 135.810811"></polygon><path d="M123.205737,142.905405 L172.794263,142.905405 C174.008513,142.905405 175,143.816562 175,144.932432 L175,146.959459 L121,146.959459 L121,144.932432 C121,143.816562 121.992775,142.905405 123.205737,142.905405" id="Fill-211" fill="#25367D"></path><g id="Group-28" transform="translate(8.000000, 47.635135)"><path d="M96.1545376,37.857863 L106.53431,37.857863 C107.015346,37.857863 107.408451,38.4514344 107.408451,39.178975 C107.408451,39.9045599 107.015346,40.4991092 106.53431,40.4991092 L96.1545376,40.4991092 C95.6747948,40.4991092 95.2816901,39.9045599 95.2816901,39.178975 C95.2816901,38.4514344 95.6747948,37.857863 96.1545376,37.857863" id="Fill-219" fill="#00A2ED"></path><path d="M96.1446512,41.3795246 L122.137039,41.3795246 C122.611348,41.3795246 123,41.7760377 123,42.2599401 C123,42.7451468 122.611348,43.1403555 122.137039,43.1403555 L96.1446512,43.1403555 C95.6703422,43.1403555 95.2816901,42.7451468 95.2816901,42.2599401 C95.2816901,41.7760377 95.6703422,41.3795246 96.1446512,41.3795246" id="Fill-221" fill="#00A2ED"></path><path d="M96.1932905,45.7816017 L112.560231,45.7816017 C113.061273,45.7816017 113.471831,46.375931 113.471831,47.1012473 L113.471831,47.1032024 C113.471831,47.8285187 113.061273,48.422848 112.560231,48.422848 L96.1932905,48.422848 C95.6922479,48.422848 95.2816901,47.8285187 95.2816901,47.1032024 L95.2816901,47.1012473 C95.2816901,46.375931 95.6922479,45.7816017 96.1932905,45.7816017" id="Fill-223" fill="#00A2ED"></path><g id="Group-51" transform="translate(10.394366, 0.000000)"><path d="M46.2196362,17.2045088 C46.3137422,15.2748341 45.687134,13.3156373 44.5349095,11.9280965 C46.2035693,10.7472107 47.9433825,8.71823426 48.9005093,6.7321991 C48.7398405,7.06767801 49.7336916,11.077322 46.2196362,17.2045088" id="Fill-28" fill="#131730"></path><path d="M97.4904097,53.8575928 C98.2835458,52.5453088 99.8392223,48.6580263 99.9710194,47.3927028 C100.098109,46.1273792 99.9568983,42.6601319 99.8368688,42.1566114 C99.7168393,41.6530909 98.5942104,41.773101 98.5188978,43.2810536 C98.4671203,44.2933124 98.2152937,46.409142 97.83167,48.0658027 C97.6151462,48.9919673 96.5113455,50.6016675 95.6405433,52.0913577 L97.4904097,53.8575928" id="Fill-29" fill="#FFC098"></path><path d="M100.092609,54.6056149 C100.844778,53.1400444 102.194962,48.9046549 102.210909,47.5703294 C102.226856,46.236004 101.705919,42.6377002 101.51987,42.1263911 C101.336479,41.6150819 100.087293,41.8748379 100.153739,43.4552479 C100.20158,44.516146 100.135134,46.7527817 99.8773236,48.5245908 C99.7311422,49.5171321 98.6573738,51.3244868 97.8307847,52.9814565 L100.092609,54.6056149" id="Fill-30" fill="#FAB488"></path><path d="M95.4873431,49.4794354 C96.4505986,46.7532106 96.2315638,45.1862931 95.3106218,45.0089561 C94.556445,44.8660278 94.1681559,47.7669427 91.9180707,50.3211242 C89.8347505,52.6794409 88.408535,54.9636467 87.1864201,58.5156794 C85.5585929,63.2587811 90.8950783,68.7826948 91.7861519,63.9681289 C92.56273,59.7570381 100.104498,55.5353599 100.754136,54.0690215 C101.403773,52.60533 102.245066,49.1379956 102.21022,47.8357601 C102.170395,46.5335245 101.339058,44.0878627 101.144914,43.598201 C100.950769,43.1085392 99.7908801,43.4235108 99.9178208,44.9613134 C99.9999588,45.9935732 100.233928,47.1422932 100.057207,48.881254 C99.9601343,49.8552838 99.2831175,50.9404801 98.5737433,52.5973895 C96.1245354,52.9255952 94.6460502,51.6074788 95.4873431,49.4794354" id="Fill-31" fill="#FFC098"></path><path d="M24.3917354,23.1886858 C25.0311467,28.4768875 24.9305941,33.8499679 24.0926559,39.1073046 L28.5968959,48.6214379 L37.2341046,40.8357441 C36.638524,39.9843848 35.9521854,35.6959581 36.4755745,34.7957292" id="Fill-33" fill="#FFC098"></path><path d="M44.3756679,42.6408768 C48.0813894,42.5161657 51.0581582,45.639139 53.3212136,48.6477938 C57.7711273,54.5559812 61.5301869,61.0071814 64.4917162,67.8195242 C64.8117442,68.5573981 65.2282887,69.3888053 65.9978799,69.5628811 C66.609997,69.6979848 67.2170344,69.3576275 67.7554942,69.0302609 C72.738788,65.9800357 77.7246217,62.9324087 82.7079155,59.8847817 C83.5435442,59.3729467 87.1400499,57.0969695 87.1400499,57.0969695 C87.1400499,57.0969695 87.2137071,57.5906175 88.2423687,59.1079356 C89.6901146,61.2410147 90.7721141,63.3091401 92.7202213,65.068086 C84.9303324,71.9219991 76.8153357,78.3939845 68.4184095,84.4476681 C62.4293133,88.7657893 57.7050898,83.3382592 54.4413118,78.5732567 C50.6289142,73.0002303 46.326315,67.9078612 43.3165275,61.7684387 C41.5919319,58.2453507 40.225463,54.2208202 41.2211058,50.4171322 C41.9297393,47.7020681 43.7787902,45.392315 44.3756679,42.6408768" id="Fill-35" fill="#116DC0"></path><path d="M50.2658491,84.1409381 C49.6952351,80.3638936 49.7054703,76.4953004 50.3119076,72.726103 C50.9081096,69.027529 49.0632098,65.3655746 48.84827,61.6251497 C48.6819475,58.7269744 48.8431523,55.8235676 48.8150055,52.9227766 C48.7919762,50.4588044 48.582154,47.9974479 48.2878912,45.5517855 C48.6921827,45.5378352 49.4808174,45.5378352 50.6537951,45.5517855 L48.5284191,43.2761424 C45.6945389,40.8760458 40.9371314,40.479002 36.9556276,39.9506342 C29.2775614,45.3732956 24.3536543,38.8903323 24.0926559,38.8824853 C22.6648416,38.8458658 18.2081923,40.3493963 14.1124643,43.2761424 C10.0167364,46.2028885 8.9866931,48.2896121 8.20881576,49.5686804 C7.35417421,50.9706858 7.04455856,52.6447221 6.8782361,54.2873703 C6.20782865,60.8998137 13.321793,63.9557221 14.1124643,70.5524715 C14.7956658,76.252042 15.0233996,82.0065418 14.7905482,87.7453475 C14.6779607,90.502276 14.4144036,93.3978357 12.8995898,95.6839415 C20.2280132,96.4764931 25.7422424,96.288164 32.6100805,99.058171 C35.5373557,100.237843 37.8683018,99.6274159 38.7664431,99.0467345 C42.4741545,96.6455387 53.010001,101.27268 54.1665818,99.0467345 C55.051929,97.3386944 52.0365435,91.2817492 51.5452526,89.7123402 C50.9771974,87.8918257 50.5473178,86.0268446 50.2658491,84.1409381 Z" id="Fill-41" fill="#116DC0"></path><path d="M51.0250646,89.2467168 C50.4935608,87.414611 50.0913417,85.5377555 49.8279839,83.6398413 C49.2869035,79.7782045 49.6915167,75.1716167 50.0386701,72.1207394 C50.0937358,71.6416542 48.3340273,70.5308085 47.5032533,62.8338583 C47.4362168,63.2813554 47.3715745,63.7288525 47.3093263,64.1763496 C47.2566547,64.6475377 47.215954,65.1187258 47.1608883,65.589914 C47.0028736,66.992949 46.8616181,68.3986164 46.7251509,69.8016514 C46.8352823,71.4336997 46.9597787,73.0631156 47.187224,74.6793699 C47.5702898,77.4169992 48.1257353,80.0914525 47.883925,82.8264495 C47.6708446,85.2560956 48.0491221,87.9437105 49.5311079,89.8600511 C50.0171227,90.4891794 50.6204513,91.0288082 50.9556339,91.7684946 C51.446437,92.853017 51.8271086,93.3742195 52.5501453,94.2507874 C52.7225249,92.6134744 51.4224953,90.6155315 51.0250646,89.2467168" id="Fill-42" fill="#0F61AB"></path><path d="M46.9877945,96.6739989 C48.4077391,96.6713746 49.8096117,96.6582534 51.1056338,96.4115743 C49.0402599,95.5062096 46.7967474,95.1335667 44.6048693,94.6244631 C37.3657337,92.9501944 30.4725482,89.7486148 24.4907089,85.2795245 C23.0423654,84.2009596 21.5940219,82.9754369 20.9098668,81.288047 C19.7351854,78.4040011 21.1060774,75.1893002 21.9451355,72.1897875 C22.7273959,69.3975902 23.0475289,66.4715564 22.8848807,63.571765 C22.6654347,59.6012815 19.4073073,55.098076 16.8875511,52.2428968 C15.6947976,50.8887861 14.3368143,49.7131241 12.914288,48.6214379 C12.777457,49.2643781 12.6535345,49.9125668 12.5889916,50.5633797 C11.9125816,57.1974725 13.3299445,63.8394381 14.1276952,70.4577855 C14.8170137,76.1760166 15.0467866,81.9493569 14.8118503,87.7069517 C14.6982547,90.4729065 14.4323378,93.3779464 12.9039611,95.671537 C20.2979998,96.4666835 25.8616008,96.2777378 32.7909304,99.0568139 C35.7444151,100.240349 38.3287143,98.6684255 39.2348971,98.0832187 C41.4784095,96.6398837 44.2666644,96.6792474 46.9877945,96.6739989" id="Fill-43" fill="#0F61AB"></path><path d="M20.2140134,66.3824399 C21.4740142,62.7223285 22.6568721,58.7159903 21.4328713,55.0428628 C20.5328707,52.3459387 18.3060121,50.1358145 15.6188675,49.2793588 C12.9368657,48.4229032 11.8337221,46.9625031 9.56572061,48.6519855 L7.9508624,50.1748626 C7.0842904,51.0209054 0.403714553,72.9295097 0,90.6521544 C2.12141705,92.5084279 5.44476287,94.8983423 9.14256598,97.3797018 C17.0645659,97.664403 25.660729,98.2651609 29.2775614,97.6966654 C22.2174245,91.3057568 13.8768788,84.739621 13.9191521,84.5944878 C15.7731533,78.4613281 18.1285834,72.4375033 20.2140134,66.3824399 Z" id="Fill-44" fill="#116DC0"></path><path d="M44.8236429,29.8635206 C44.0112145,32.195048 42.7508116,34.4577675 40.7640318,35.8286315 C37.0967147,38.358643 31.0300763,34.5609793 28.9369975,31.2476169 C25.8720417,26.3993103 21.2114707,21.670817 21.9024145,15.6951204 C22.6667552,9.09750662 30.1189416,2.86702737 36.5272555,3.88061985 C41.3107126,4.63485969 45.4462516,8.7024619 46.4307833,13.6169299 C46.8559795,15.726155 46.7420876,17.9041879 46.5750463,20.0478169 C46.36751,22.6889796 46.0764531,25.3433745 45.4158805,27.8972042 C45.2463082,28.558818 45.0488957,29.2177855 44.8236429,29.8635206 Z" id="Fill-48" fill="#FFC098"></path><path d="M25.2371885,9.3839217 C32.804776,15.4098833 50.8206488,16.1734378 49.5849676,1.83883246 C48.7304801,3.68519774 46.2898179,4.10023086 44.4043169,3.50694634 C37.0900056,1.21362232 26.091676,-4.95068366 24.8227364,7.8621336" id="Fill-50" fill="#131730"></path><path d="M20.5652951,5.0746941 C18.4233315,8.37574883 17.8333614,12.4367586 18.5296324,16.2655599 C19.279054,20.3951767 21.5406061,23.759561 24.0971433,27.0078411 C24.3814983,27.3667088 24.6658533,27.7255764 24.9502083,28.0844441 L25.2212756,28.4248406 C25.1256048,26.6225861 25.0219614,22.7779524 24.9448932,22.5774088 L24.5967577,22.0734108 C23.4726254,20.7197409 22.9304907,18.3132166 24.00413,16.8909396 C25.1601526,15.3631133 26.361353,16.9885727 27.2117604,18.2921067 C27.6582243,16.0808486 28.6787132,12.2045501 30.7064033,11.1859993 L31.2379079,10.8244929 C31.5621257,10.4128506 31.3149761,9.8217744 31.0811141,9.35207997 C30.0606252,7.32025571 30.0074747,3.16689029 27.8442509,2.01904152 C25.0618242,0.54135115 22.4308764,2.43860003 20.8363625,4.67624545 L20.5652951,5.0746941" id="Fill-51" fill="#131730"></path></g><path d="M43.7855132,97.7261114 L68.4295775,97.7261114 L68.4295775,100.367358 L42.443662,100.367358 L42.443662,99.0460141 C42.443662,98.3197794 43.047202,97.7261114 43.7855132,97.7261114" id="Fill-192" fill="#C8D3E3"></path><g id="Group-195" transform="translate(0.000000, 85.400296)"><mask id="mask-4" fill="white"><use xlink:href="#path-3"></use></mask><g id="Clip-194"></g><path d="M2.87930188,0 L25.7052052,0 C27.2874413,0 28.584507,1.6052731 28.584507,3.56568244 C28.584507,5.52752379 27.2874413,7.13136489 25.7052052,7.13136489 L2.87930188,7.13136489 C1.29553253,7.13136489 0,5.52752379 0,3.56568244 C0,1.6052731 1.29553253,0 2.87930188,0" id="Fill-193" fill="url(#linearGradient-5)" mask="url(#mask-4)"></path></g><path d="M9.63476312,85.4002955 L17.3239437,85.4002955 C15.8359475,85.4002955 14.618758,87.1839323 14.618758,89.3621649 C14.618758,91.5419886 15.8359475,93.3240343 17.3239437,93.3240343 L9.63476312,93.3240343 C8.14676697,93.3240343 6.92957746,91.5419886 6.92957746,89.3621649 C6.92957746,87.1839323 8.14676697,85.4002955 9.63476312,85.4002955" id="Fill-196" fill="#E26229"></path><path d="M24.630794,92.4436189 L45.0422535,92.4436189 C44.1958823,91.0829538 43.8654497,89.1502601 45.0422535,87.1611264 L24.630794,87.1611264 C23.9481898,87.1611264 23.3873239,88.3509457 23.3873239,89.8016099 C23.3873239,91.2522742 23.9481898,92.4436189 24.630794,92.4436189" id="Fill-197" fill="#EEEFEB"></path><path d="M44.2799397,89.8023726 C44.2639978,88.9694546 44.4828369,88.0719009 45.0422535,87.1611264 L24.630794,87.1611264 C23.9481898,87.1611264 23.3873239,88.3069395 23.3873239,89.7039502 C23.3873239,89.737737 23.3873239,89.7700548 23.3887732,89.8023726 L44.2799397,89.8023726" id="Fill-198" fill="#DEDED7"></path><path d="M45.9084507,93.3240343 L24.5672247,93.3240343 C23.5727361,93.3256244 22.5211268,91.5181211 22.5211268,89.3382977 C22.5211268,87.1584743 23.5727361,85.4002955 24.5672247,85.4002955 L45.9084507,85.4002955 L45.8981982,86.5872651 L24.6360626,86.6079495 C23.9462186,86.6079495 23.3794041,87.8490169 23.3794041,89.3621644 C23.3794041,90.8753119 23.9462186,92.1179704 24.6360626,92.1179704 L45.8981982,92.0972859 L45.9084507,93.3240343" id="Fill-199" fill="#E26229"></path><g id="Group-202" transform="translate(20.788732, 92.443619)"><mask id="mask-7" fill="white"><use xlink:href="#path-6"></use></mask><g id="Clip-201"></g><path d="M26.4849354,0 L2.96576886,0 C1.33406719,0 0,1.78327869 0,3.96107398 C0,6.14046007 1.33406719,7.92373876 2.96576886,7.92373876 L26.4849354,7.92373876 C28.1151262,7.92373876 29.4507042,6.14046007 29.4507042,3.96107398 C29.4507042,1.78327869 28.1151262,0 26.4849354,0" id="Fill-200" fill="url(#linearGradient-8)" mask="url(#mask-7)"></path></g><path d="M41.2448772,92.4436189 L32.915493,92.4436189 C34.527343,92.4436189 35.8466721,94.2268976 35.8466721,96.4046929 L35.8466721,96.4062837 C35.8466721,98.584079 34.527343,100.367358 32.915493,100.367358 L41.2448772,100.365767 C42.8567272,100.365767 44.1760563,98.584079 44.1760563,96.4046929 C44.1760563,94.2268976 42.8582197,92.4436189 41.2448772,92.4436189" id="Fill-203" fill="#5C1A1B"></path><path d="M25.5092354,98.6065268 L3.46478873,98.6065268 C4.3780052,97.4726392 4.7358064,95.8620612 3.46478873,94.2044497 L25.5092354,94.2044497 C26.2472939,94.2044497 26.8521127,95.1959658 26.8521127,96.4048527 C26.8521127,97.6150107 26.2472939,98.6065268 25.5092354,98.6065268" id="Fill-204" fill="#EEEFEB"></path><path d="M4.28818063,97.7261114 C4.30464846,96.6175127 4.06811043,95.4188158 3.46478873,94.2044497 L25.5092354,94.2044497 C26.2472939,94.2044497 26.8521127,95.7322006 26.8521127,97.5948815 C26.8521127,97.6399306 26.8521127,97.683021 26.8521127,97.7261114 L4.28818063,97.7261114" id="Fill-205" fill="#DEDED7"></path><path d="M1.73239437,100.367358 L23.86346,100.367358 C24.8949065,100.368948 25.9859155,98.5614445 25.9859155,96.3816211 C25.9859155,94.2033887 24.8949065,92.4436189 23.86346,92.4436189 L1.73239437,92.4436189 L1.74111082,93.6305884 L23.7922757,93.6512729 C24.5084773,93.652864 25.0953849,94.8923402 25.0953849,96.4054877 C25.0953849,97.9202264 24.5084773,99.1612937 23.7922757,99.1612937 L1.74111082,99.1406093 L1.73239437,100.367358" id="Fill-206" fill="#5C1A1B"></path><g id="Group-209" transform="translate(19.922535, 95.084865)"><mask id="mask-10" fill="white"><use xlink:href="#path-9"></use></mask><g id="Clip-208"></g><path d="M4.33098592,0 C3.2743555,0 2.50371744,0 1.4453745,0 C0.337368219,0.465324665 0.657611147,2.31302618 0,3.52166167 L1.70567891,2.52302659 L2.94212487,3.45820831 C3.90114113,2.3613716 3.35313184,0.489497375 4.33098592,0" id="Fill-207" fill="url(#linearGradient-11)" mask="url(#mask-10)"></path></g><path d="M76.5894274,65.1507409 L117.486085,65.1507409 C119.064091,65.1507409 120.702003,66.579821 120.354258,68.2334709 L114.242406,97.2846277 C113.89466,98.9382776 112.95224,100.367358 111.374234,100.367358 L70.477576,100.367358 C68.9010311,100.367358 67.2616581,98.9382776 67.610865,97.2846277 L73.7212552,68.2334709 C74.069001,66.579821 75.0128824,65.1507409 76.5894274,65.1507409" id="Fill-289" fill="#C8D3E3"></path><g id="Group-292" transform="translate(68.429577, 65.150741)" fill="url(#linearGradient-12)"><path d="M9.1737055,0 L50.7410895,0 C52.3449757,0 54.0097501,1.4290801 53.6563011,3.08272993 L47.4456974,32.1338868 C47.0922484,33.7875366 46.1343719,35.2166167 44.5304857,35.2166167 L2.96310173,35.2166167 C1.36070061,35.2166167 -0.305558943,33.7875366 0.0478900525,32.1338868 L6.25997891,3.08272993 C6.61342791,1.4290801 7.57130439,0 9.1737055,0" id="Fill-290"></path></g><path d="M99.8902703,81.9074593 C101.178779,82.1368566 101.710572,83.6901248 101.079395,85.3760565 C100.446474,87.0619882 98.8911964,88.2435223 97.6026875,88.0127432 C96.3141785,87.7833459 95.7823853,86.2300777 96.4135629,84.544146 C97.046484,82.8568323 98.6017614,81.6766801 99.8902703,81.9074593" id="Fill-293" fill="#FFFFFE"></path></g><path d="M91,45.6081081 C94.3126801,45.6081081 97,48.3306249 97,51.6890431 C97,55.0476074 94.3126801,57.7702703 91,57.7702703 C87.685879,57.7702703 85,55.0476074 85,51.6890431 C85,48.3306249 87.685879,45.6081081 91,45.6081081" id="Fill-212" fill="#00A2ED"></path><path d="M102.935701,44.5945946 L114.062913,44.5945946 C114.578588,44.5945946 115,45.0506156 115,45.6081081 L115,45.6082582 C115,46.1656006 114.578588,46.6216216 114.062913,46.6216216 L102.935701,46.6216216 C102.421412,46.6216216 102,46.1656006 102,45.6082582 L102,45.6081081 C102,45.0506156 102.421412,44.5945946 102.935701,44.5945946" id="Fill-213" fill="#00A2ED"></path><path d="M102.871731,49.6621622 L129.128269,49.6621622 C129.607398,49.6621622 130,50.1180669 130,50.6756006 L130,50.6757507 C130,51.2332845 129.607398,51.6891892 129.128269,51.6891892 L102.871731,51.6891892 C102.392602,51.6891892 102,51.2332845 102,50.6757507 L102,50.6756006 C102,50.1180669 102.392602,49.6621622 102.871731,49.6621622" id="Fill-214" fill="#00A2ED"></path><path d="M102.902071,53.7162162 L119.097929,53.7162162 C119.593734,53.7162162 120,54.1722373 120,54.7297297 L120,54.7298798 C120,55.2873723 119.593734,55.7432432 119.097929,55.7432432 L102.902071,55.7432432 C102.406266,55.7432432 102,55.2873723 102,54.7298798 L102,54.7297297 C102,54.1722373 102.406266,53.7162162 102.902071,53.7162162" id="Fill-215" fill="#00A2ED"></path><path d="M91,64.8648649 C94.3126801,64.8648649 97,67.587495 97,70.9458729 C97,74.3043969 94.3126801,77.027027 91,77.027027 C87.685879,77.027027 85,74.3043969 85,70.9458729 C85,67.587495 87.685879,64.8648649 91,64.8648649" id="Fill-216" fill="#00A2ED"></path><path d="M91,85.1351351 C94.3126801,85.1351351 97,87.8583168 97,91.2159241 C97,94.5749919 94.3126801,97.2972973 91,97.2972973 C87.685879,97.2972973 85,94.5749919 85,91.2159241 C85,87.8583168 87.685879,85.1351351 91,85.1351351" id="Fill-217" fill="#00A2ED"></path><path d="M102.935701,65.8783784 L114.062913,65.8783784 C114.578588,65.8783784 115,66.5624606 115,67.3985361 L115,67.3987612 C115,68.2350619 114.578588,68.9189189 114.062913,68.9189189 L102.935701,68.9189189 C102.421412,68.9189189 102,68.2350619 102,67.3987612 L102,67.3985361 C102,66.5624606 102.421412,65.8783784 102.935701,65.8783784" id="Fill-218" fill="#00A2ED"></path><path d="M102.871731,69.9324324 L129.128269,69.9324324 C129.607398,69.9324324 130,70.6162388 130,71.4524775 L130,71.4527027 C130,72.2889414 129.607398,72.972973 129.128269,72.972973 L102.871731,72.972973 C102.392602,72.972973 102,72.2889414 102,71.4527027 L102,71.4524775 C102,70.6162388 102.392602,69.9324324 102.871731,69.9324324" id="Fill-220" fill="#00A2ED"></path><path d="M102.902071,73.9864865 L119.097929,73.9864865 C119.593734,73.9864865 120,74.4425075 120,75 L120,75.0001501 C120,75.5574925 119.593734,76.0135135 119.097929,76.0135135 L102.902071,76.0135135 C102.406266,76.0135135 102,75.5574925 102,75.0001501 L102,75 C102,74.4425075 102.406266,73.9864865 102.902071,73.9864865" id="Fill-222" fill="#00A2ED"></path><g id="Group-73" transform="translate(146.000000, 38.513514)"><mask id="mask-14" fill="white"><use xlink:href="#path-13"></use></mask><use id="Mask" fill="#FFFFFF" xlink:href="#path-13"></use><g mask="url(#mask-14)"><g transform="translate(34.626162, 104.653604) rotate(-3.000000) translate(-34.626162, -104.653604) translate(6.626162, 11.410360)"><path d="M0.231466553,71.7195042 C2.32348133,78.7136419 8.0193986,74.8713882 11.9352562,68.7243853 C17.3301642,60.2485154 22.7291768,41.8271024 22.0601152,37.2160965 C21.3896853,32.606598 17.4168208,31.499125 17.4168208,31.499125 C10.7398868,35.16954 -1.86054822,64.7268739 0.231466553,71.7195042 Z" id="Fill-40" fill="#22407A"></path><path d="M15.7254566,128.930458 C16.2433721,138.352474 18.5074439,185.132239 18.5074439,185.132239 C24.5025324,186.440282 28.3145638,185.132239 28.3145638,185.132239 C30.2864039,149.263103 30.2285363,138.948506 30.7956392,133.598892 C31.3612955,128.250746 32.0600474,112.787658 32.0600474,112.787658 C36.2858325,103.911761 31.8647441,92.361057 29.780062,89.5790813 C27.6939332,86.7985736 16.6252986,90.7711469 16.6252986,90.7711469 C16.6252986,90.7711469 15.2075412,119.508442 15.7254566,128.930458 Z" id="Fill-42" fill="#2B478B"></path><path d="M29.7037572,123.55142 C31.9555268,131.146802 33.9808845,153.414734 34.9400478,157.299434 C35.8992112,161.184134 37.0710645,185.175613 37.0710645,185.175613 C42.2510952,186.386064 46.2963218,185.175613 46.2963218,185.175613 C46.1865463,162.706793 46.7697286,144.445119 46.2963218,138.281548 C45.8215428,132.117977 46.4843123,113.856303 46.4843123,113.856303 C48.6221899,105.355002 48.7498039,104.268668 46.4843123,98.6220337 C44.2188207,92.9741196 34.4776186,88.4995488 26.0194175,93.1609332 C26.0194175,93.1609332 27.4492432,115.957317 29.7037572,123.55142 Z" id="Fill-44" fill="#2B478B"></path><path d="M52.6066963,41.9183385 C58.4868099,49.7840459 49.9528896,63.6855039 47.9068357,72.0630667 C45.863602,80.4406294 48.8516021,101.474037 48.8459617,103.491871 C39.72262,109.839765 17.7448141,110.643052 15.2785506,101.176687 C14.2590489,90.8730102 16.5081571,78.6402596 16.6294256,72.6148645 C16.3333048,59.6675876 10.9777481,34.0407963 21.1727652,30.2077988 C28.8747269,29.8497959 46.7294029,34.0511518 52.6066963,41.9183385 Z" id="Fill-45" fill="#FCFCFC"></path><g id="Group-65" stroke-width="1" fill="none" transform="translate(24.661401, 0.000000)"><g id="Group-873" transform="translate(12.210264, 3.425087) rotate(9.000000) translate(-12.210264, -3.425087) translate(10.710264, 1.398060)"><mask id="mask-16" fill="white"><use xlink:href="#path-15"></use></mask><g id="Clip-872"></g><path d="M2.84754175,3.2445472 C1.95913776,2.29064879 1.05296569,1.31164779 0.129025547,0.307544202 C1.05296569,1.11082707 1.95913776,2.08982807 2.84754175,3.2445472" id="Fill-871" mask="url(#mask-16)"></path></g><path d="M3.65359687,36.158791 C3.93102644,39.8763438 5.95345296,45.7698505 7.33119911,45.6084101 C8.70574794,45.4542916 14.0795033,39.2922302 13.785683,34.5540262 C13.5835749,29.7768873 13.5624748,27.1246386 13.1528243,24.8413227 C12.7449995,22.5764193 2.73756322,24.3357061 2.73756322,24.3357061 C3.60476863,27.1960491 3.37616731,32.4412382 3.65359687,36.158791 Z" id="Fill-883" fill="#F9B589" transform="translate(8.267422, 34.648099) rotate(9.000000) translate(-8.267422, -34.648099) "></path><g id="Group-890" transform="translate(16.602502, 19.729374) rotate(9.000000) translate(-16.602502, -19.729374) translate(15.602502, 17.702347)"><mask id="mask-18" fill="white"><use xlink:href="#path-17"></use></mask><g id="Clip-889"></g><path d="M1.5149827,3.97950921 C1.26127396,2.56224406 1.04380932,1.35116034 0.931625186,0.715898639 C0.89365517,0.496714776 0.750404658,0.374120412 0.524310475,0.329540644 L0.869492433,0.119644232 C0.890203351,0.288675855 1.15599346,1.88797506 1.5149827,3.97950921" id="Fill-888" mask="url(#mask-18)"></path></g><path d="M2.65796624,9.25948119 C3.36483096,6.61806124 8.03825355,4.07095616 9.1767253,4.00824833 C16.2006744,3.6040387 16.8143102,9.07459385 17.1830868,14.7248386 C18.7189031,13.465055 19.4936383,15.3499858 19.4939793,17.6043314 C19.4995089,19.3266417 19.5048839,21.8279178 17.2085787,22.589328 C16.5661252,25.2836353 15.7958731,26.110763 14.8881219,27.8494229 C13.744733,29.4500184 11.6829627,30.2346927 10.2153735,30.3883232 C8.67145025,30.5499446 6.13825,29.363636 5.45315709,27.9027311 C4.4823637,26.5485906 3.76596829,25.1732974 3.12284362,23.022036 C2.08265389,19.3141716 1.60855763,13.3918874 2.65796624,9.25948119 Z" id="Fill-910" fill="#FFC098" transform="translate(10.781516, 17.195125) rotate(9.000000) translate(-10.781516, -17.195125) "></path><path d="M12.3959657,3.01466595 C10.6753104,2.99582942 11.5583551,7.83657917 11.8901683,7.98614714 C12.777083,7.320594 13.6450643,7.80297141 13.8864821,7.90949886 C14.3721071,8.0931719 15.4045593,9.45722378 15.6042397,10.5080598 C15.7262471,11.1501347 16.7539421,11.6597475 17.14293,12.3302801 C17.7624996,13.3982866 17.5528403,15.348134 17.5619628,16.235179 L18.6837935,15.0389382 C18.9284237,13.3241054 18.9351227,11.8251566 18.7038907,10.5420919 C18.3570426,8.61749495 17.9537078,8.31663993 17.3230738,7.02299424 C16.6924397,5.72934854 14.1166211,3.03361278 12.3959657,3.01466595 Z" id="Fill-911" fill="#131730" transform="translate(15.119800, 9.624922) rotate(9.000000) translate(-15.119800, -9.624922) "></path><path d="M3.591144,5.91760283 C4.56595428,3.58572561 6.52415347,2.32564451 7.88153771,1.78237459 C8.64968329,1.47493741 12.9178588,0.722557262 15.1745894,2.23969753 C18.0058522,4.25754702 18.40225,6.61252042 18.7734266,8.85705465 C19.0236222,10.3700076 17.3571296,10.2281243 16.8022497,9.09128943 C16.5105431,8.49364275 16.1536955,6.39729103 14.7828335,6.00158398 C13.4119715,5.60587692 12.8960069,7.62773161 10.5507051,7.73575476 C8.20540337,7.84377791 6.72268239,6.45963621 5.71022477,7.68260986 C5.13341724,8.41915185 5.21231507,9.40277354 5.0457679,10.0993812 C4.87922074,10.7959889 4.62983227,11.5593402 4.31488915,11.9900279 C4.1129621,12.266165 3.52610531,14.0322865 3.52610531,14.0322865 C2.94058445,12.399963 2.61633373,8.24948005 3.591144,5.91760283 Z" id="Fill-916" fill="#131730" transform="translate(10.884185, 7.677399) rotate(9.000000) translate(-10.884185, -7.677399) "></path><path d="M3.94531646,28.1439609 C3.84304438,28.0201835 4.18175258,26.6533504 4.83283384,27.1643846 C4.94025723,27.2487013 5.27919305,27.9067299 5.33629205,27.983622 C5.75171208,28.5430458 5.97111023,28.560965 6.28881461,28.6951629 C7.05334007,28.8972382 7.0622575,27.2520368 7.77187524,27.2598278 C8.48149298,27.2676188 8.79835797,27.7920316 9.25851181,28.2624257 C9.71866565,28.7328199 11.1074797,28.3157499 11.5087654,27.8270994 C12.0251458,27.2329903 11.5190939,26.4644566 12.5088412,26.2635737 C12.9669882,26.1705865 13.2699262,26.5704907 13.5097689,26.926603 C13.0981111,27.8360704 12.4173206,28.5613989 11.4147994,29.1846392 C10.4416047,29.8069909 9.07400174,30.2175573 8.25065429,30.2328437 C7.42730684,30.24813 5.33120947,29.8214788 3.94531646,28.1439609 Z" id="Path-7" fill="#131730" transform="translate(8.718545, 28.241582) rotate(9.000000) translate(-8.718545, -28.241582) "></path></g><path d="M21.2647199,78.8306466 C21.809007,86.5624293 22.036589,111.559401 22.036589,111.559401 C15.5258331,108.382583 12.6691215,102.557186 12.6691215,99.9086078 C12.6691215,97.2600296 15.1215965,74.6371873 15.0420223,72.819333 C14.9624482,70.9985277 10.92864,50.9383158 11.8437426,41.6173861 C12.7572537,32.2979319 17.8568855,31.274105 17.8568855,31.274105 L27.9708738,31.499125 L27.5448546,34.5072173 C23.6718157,40.470703 20.7204328,71.0988638 21.2647199,78.8306466 Z" id="Fill-46" fill="#274887"></path><path d="M30.5825709,70.9767166 C30.7991506,81.6851211 33.0957988,112.871865 33.0957988,112.871865 C44.1864886,110.273694 51.7427167,107.258425 53.9024985,103.620406 C49.1527835,91.5607784 47.4246572,83.4519933 48.3977623,80.021075 C49.3678592,76.5901567 57.7482937,50.4346542 53.3956416,42.6691059 C49.2610733,38.3330275 40.1060653,35.4365157 40.1060653,35.4365157 C33.7139536,48.4172337 30.3674951,60.2683121 30.5825709,70.9767166 Z" id="Fill-51" fill="#274887"></path><path d="M39.6796117,34.5685075 C39.6796117,34.5685075 37.0538185,40.4920444 36.1083051,43.1075748 C35.1613678,45.7216351 32.6722753,47.9049193 32.6722753,47.9049193 L29.2718447,44.0720425 C33.9595405,41.5094402 38.6734839,32.6641289 38.6734839,32.6641289 C38.713355,32.8905436 39.6796117,34.5685075 39.6796117,34.5685075 Z" id="Fill-52" fill="#FCFCFC"></path><path d="M29.9223301,44.1133522 C27.9885698,46.0697967 26.6888295,46.5924558 26.6888295,46.5924558 C26.6888295,46.5924558 26.4294441,38.9348192 27.8311618,35.4502267 C28.1075936,35.080676 28.9188448,42.288696 29.9223301,44.1133522 Z" id="Fill-53" fill="#FCFCFC"></path><path d="M24.6566418,62.1125942 C24.0411125,61.74146 23.3852451,61.4312583 22.6994976,61.1944526 C22.3812749,61.0836663 22.0750042,60.9798041 21.7358655,60.9687255 C21.478897,60.9590317 20.9530078,60.8233185 20.7498234,60.9991917 C20.6168571,61.1141325 20.6512192,61.3163175 20.7229313,61.4700335 C21.0038039,62.0641251 21.6701294,62.4020234 22.2707187,62.7302278 C23.3030749,63.2966229 23.6974918,64.1081326 24.0441005,65.0470466 C23.0476003,64.1053629 22.1377524,63.0695109 20.9291038,62.3438606 C19.7458532,61.6334434 18.4266484,61.1473684 17.1029615,60.697299 C16.5262763,60.5006533 15.9167229,60.3067773 15.3101576,60.3954063 C14.6124581,60.4978837 14.3151515,61.021349 14.7857625,61.5489688 C15.1966134,62.0073472 15.9017829,62.1790659 16.4456001,62.4712648 C17.1761677,62.8631714 17.8604211,63.3270891 18.4849145,63.8533241 C18.7732571,64.0956691 19.0944678,64.3504776 19.3170743,64.6482159 C19.4799206,64.8628643 19.6786231,65.3212427 19.9505317,65.4306442 C19.202036,65.1315211 18.4714685,64.7963925 17.7603229,64.4266432 C17.1373236,64.1025933 16.4874322,63.9461076 15.8465048,63.6539087 C15.2877476,63.3991002 14.7767985,63.0168874 14.2225233,62.7440761 C13.9267106,62.5986691 13.5636679,62.4588014 13.2678552,62.6069781 C13.0497307,62.7163795 12.9391745,62.9601094 12.9481385,63.189991 C12.9556085,63.4198726 13.0631768,63.6372908 13.1916611,63.8339365 C13.5158598,64.3283204 13.9849768,64.7285359 14.5317819,65.0041169 C15.021815,65.2520012 15.4042798,65.5691271 15.8644328,65.8654804 C16.4411181,66.2379994 17.0103333,66.6174425 17.5571385,67.0287367 C17.8275531,67.2350762 18.0934856,67.4483399 18.3489602,67.6712973 C18.5566266,67.8527099 18.7986552,68.2044564 19.0421777,68.3277062 C17.9052412,67.7585415 16.7937028,67.1450623 15.7105505,66.4886535 C15.3056756,66.2435387 14.8694267,66.0011937 14.5168419,65.6965313 C14.088063,65.3240124 13.5890659,65.0539707 13.0064047,64.9556479 C12.8644743,64.9307209 12.707604,64.9196423 12.5836017,64.9874989 C12.4222494,65.0747432 12.3654773,65.2755433 12.4043214,65.4458773 C12.4431654,65.6162112 12.5552157,65.7630031 12.6657719,65.9028708 C13.3231333,66.726844 14.0551949,67.4995785 14.8724147,68.1892233 C15.6059703,68.8110115 16.6039644,69.680684 17.5900066,69.916105 C16.2155236,69.5892853 14.9904409,69.1018256 13.9521087,68.2072261 C13.4740277,67.7931623 12.9361865,67.3818681 12.2862951,67.3043177 C12.0905807,67.2807756 11.8575162,67.3057025 11.755924,67.4621882 C11.6468617,67.6283676 11.7469599,67.8402464 11.8530342,68.0078107 C12.5716497,69.1461401 13.645838,70.4520337 14.9486088,71.0364315 C15.6612484,71.356327 16.2932118,71.8714834 16.9804532,72.246772 C17.7229728,72.6539117 18.4849145,73.0305851 19.2199641,73.4501883 C20.9410558,74.4278775 23.1073605,75.411106 25.0495647,75.9151837 C25.6068279,76.0605908 26.1969592,76.1339867 26.7751384,76.1215232 C27.3906677,76.1090598 27.7238304,75.9899645 28.1839834,75.6271393 C28.9952272,74.9873484 29.5181283,74.067822 29.7541808,73.11229 C30.0335594,71.9781152 29.9349552,70.7885472 29.6764927,69.648833 C29.5749004,69.1946091 29.4479102,68.7390004 29.2955218,68.2861614 C28.4768081,65.8474777 26.9379848,63.4960382 24.6566418,62.1125942 Z" id="Fill-96" fill="#FFC098"></path><path d="M8.65697774,59.8270272 C8.58046061,59.7118235 8.49501648,59.592189 8.37513964,59.5567417 C8.09457682,59.4755083 7.89818285,59.8816751 7.86885128,60.2125163 C7.77958129,61.1666389 8.14558824,62.0838372 8.40447121,62.9966046 C8.67483174,63.959589 8.65315189,65.1411649 8.53965147,66.2976323 L8.36493735,66.0022384 C6.95319626,63.8399544 6.25051392,60.8815837 5.30425205,58.3869815 C5.19457749,58.0974954 5.03134094,57.7637002 4.75970512,57.7489305 C4.37839474,57.7282529 4.22791105,58.3116561 4.22918633,58.7532701 C4.23428748,60.7575182 4.59009214,62.5180664 5.36291518,64.3214466 C4.59136743,63.0025125 3.94607294,61.5846214 3.44616101,60.1017436 C3.32245831,59.739886 3.14264305,59.3145186 2.80851824,59.2864562 C1.44523799,59.1727295 3.1643229,65.2637534 3.42320587,66.0170081 C2.71159654,64.8974649 2.21295989,63.5947774 1.97575678,62.2300572 C1.9298465,61.9671566 1.89031264,61.6953941 1.76916052,61.4649868 C1.62887911,61.2006092 1.26542273,60.9436164 1.04607361,61.2198098 C0.86115721,61.4502171 0.824173929,62.0838372 0.802494075,62.3821851 C0.737454512,63.2757519 0.924921487,64.1796575 1.20548431,65.0067606 C1.61485097,66.216399 2.21678574,67.3344652 2.56238813,68.5692121 C1.96555449,67.7140465 1.36872086,66.8603579 0.771887222,66.0051923 C0.648184524,65.8264789 0.48622326,65.628565 0.288554001,65.6610583 C0.027120464,65.7038904 -0.0506719542,66.115965 0.0309463206,66.4054511 C0.589521389,68.3535745 1.45926613,70.1894481 2.64018055,71.7254968 C3.21660961,72.4772744 3.93842123,73.0651085 4.48551873,73.8287019 C5.03899265,74.5996802 5.80926512,75.1948991 6.60121745,75.5833422 C7.44035534,75.9924628 8.35983621,76.1829919 9.26911481,76.1061895 C9.97434771,76.0456337 10.3862649,75.8610125 10.7981822,75.2244385 C11.1527116,74.6735287 11.5046904,74.0148001 11.5901345,73.3206243 C11.7418935,72.0858774 11.7597475,70.8466997 11.5748311,69.6149068 C11.0838461,66.3463724 10.4206977,62.5106815 8.65697774,59.8270272 Z" id="Fill-97" fill="#FFC098"></path><path d="M43.0144076,71.8582734 C41.7064446,54.5333389 44.7381469,36.1131247 51.9189504,42.716845 C56.0579459,46.5226503 56.3033694,78.9047663 53.1143073,83.6907886 C49.9238015,88.4753544 36.2479367,81.5992707 26.6821941,76.7608148 C26.4382142,72.5806919 29.9073479,67.35481 29.9073479,67.35481 L43.0144076,71.8582734 Z" id="Fill-98" fill="#22407A"></path></g></g></g><path d="M138.99934,31 L150.99934,31 C152.649505,31 154,32.454753 154,34.2331797 L154,36.8882996 C154,38.6667263 152.649505,40.1216216 150.99934,40.1216216 L138.99934,40.1216216 C137.349175,40.1216216 136,38.6667263 136,36.8882996 L136,34.2331797 C136,32.454753 137.349175,31 138.99934,31" id="Fill-277" fill="#0F1429"></path><path d="M144.999254,34 C146.104812,34 147,34.9076398 147,36.027027 C147,37.1465655 146.104812,38.0540541 144.999254,38.0540541 C143.895188,38.0540541 143,37.1465655 143,36.027027 C143,34.9076398 143.895188,34 144.999254,34" id="Fill-281" fill="#F4FAFB"></path><g id="Group-59" transform="translate(35.000000, 16.216216)"><path d="M12,0 C18.6267813,0 24,5.44524185 24,12.1621622 C24,18.8790825 18.6267813,24.3243243 12,24.3243243 C5.37180544,24.3243243 0,18.8790825 0,12.1621622 C0,5.44524185 5.37180544,0 12,0" id="Fill-282" fill="#6EB0D5"></path><path d="M21.8823529,12.1620877 C21.8823529,17.6937077 17.4586906,22.1780604 12.0007346,22.1780604 C6.54277856,22.1780604 2.11764706,17.6937077 2.11764706,12.1620877 C2.11764706,6.63046774 6.54277856,2.14626391 12.0007346,2.14626391 C17.4586906,2.14626391 21.8823529,6.63046774 21.8823529,12.1620877 Z" id="Fill-283" fill="#FFFFFE"></path><path d="M15.5045813,5.35259567 L11.6852948,12.1640599 L11.2891531,11.9347251 L15.1084396,5.12326091 C15.1704946,5.01197964 15.3105624,4.97291749 15.4195383,5.03593948 L15.4195381,5.03608954 C15.5285139,5.09911153 15.5666361,5.24146447 15.5045813,5.35259567" id="Fill-284" fill="#2B2B68" transform="translate(13.411750, 8.584938) rotate(-6.000000) translate(-13.411750, -8.584938) "></path><path d="M7.15289975,14.6442145 L11.1066501,12.1621622 L11.2941176,12.5145247 L7.3391578,14.9967085 C7.25086664,15.0527184 7.1359672,15.0191914 7.08396008,14.9222917 L7.08396008,14.9221602 C7.03195296,14.825129 7.06339913,14.7002244 7.15289975,14.6442145" id="Fill-285" fill="#3973AC"></path><path d="M18.257762,15.7286779 L12,11.5341348 L12.070974,11.4467409 L18.328736,15.6414057 C18.3555186,15.6591766 18.3608751,15.6931361 18.3407881,15.7172364 C18.3220403,15.7413367 18.2845446,15.7464488 18.257762,15.7286779" id="Fill-286" fill="#2B2B68"></path><path d="M12,10.0158983 C12.7797888,10.0158983 13.4117647,10.6563961 13.4117647,11.4466644 C13.4117647,12.2367799 12.7797888,12.8775835 12,12.8775835 C11.2202112,12.8775835 10.5882353,12.2367799 10.5882353,11.4466644 C10.5882353,10.6563961 11.2202112,10.0158983 12,10.0158983" id="Fill-287" fill="#3973AC"></path><path d="M12.0007225,10.7313196 C12.3908724,10.7313196 12.7058824,11.0515132 12.7058824,11.4466677 C12.7058824,11.8418221 12.3908724,12.1621622 12.0007225,12.1621622 C11.6105726,12.1621622 11.2941176,11.8418221 11.2941176,11.4466677 C11.2941176,11.0515132 11.6105726,10.7313196 12.0007225,10.7313196" id="Fill-288" fill="#FFFFFE"></path></g></g></g></svg>